<?xml version="1.0" encoding="utf-8" standalone="no"?>
<!DOCTYPE svg PUBLIC "-//W3C//DTD SVG 1.1//EN"
  "http://www.w3.org/Graphics/SVG/1.1/DTD/svg11.dtd">
<!-- Created with matplotlib (https://matplotlib.org/) -->
<svg height="230.4pt" version="1.1" viewBox="0 0 360 230.4" width="360pt" xmlns="http://www.w3.org/2000/svg" xmlns:xlink="http://www.w3.org/1999/xlink">
 <metadata>
  <rdf:RDF xmlns:cc="http://creativecommons.org/ns#" xmlns:dc="http://purl.org/dc/elements/1.1/" xmlns:rdf="http://www.w3.org/1999/02/22-rdf-syntax-ns#">
   <cc:Work>
    <dc:type rdf:resource="http://purl.org/dc/dcmitype/StillImage"/>
    <dc:date>2021-07-22T19:18:15.420063</dc:date>
    <dc:format>image/svg+xml</dc:format>
    <dc:creator>
     <cc:Agent>
      <dc:title>Matplotlib v3.3.4, https://matplotlib.org/</dc:title>
     </cc:Agent>
    </dc:creator>
   </cc:Work>
  </rdf:RDF>
 </metadata>
 <defs>
  <style type="text/css">*{stroke-linecap:butt;stroke-linejoin:round;}</style>
 </defs>
 <g id="figure_1">
  <g id="patch_1">
   <path d="M 0 230.4 
L 360 230.4 
L 360 0 
L 0 0 
z
" style="fill:#ffffff;"/>
  </g>
  <g id="axes_1">
   <g id="patch_2">
    <path d="M 103.02125 201.345354 
L 284.731958 201.345354 
L 284.731958 19.634646 
L 103.02125 19.634646 
z
" style="fill:#ffffff;"/>
   </g>
   <g id="matplotlib.axis_1">
    <g id="xtick_1">
     <g id="line2d_1">
      <path clip-path="url(#p4b8a444fa4)" d="M 108.164006 201.345354 
L 108.164006 19.634646 
" style="fill:none;stroke:#000000;stroke-linecap:square;stroke-opacity:0.1;stroke-width:0.5;"/>
     </g>
     <g id="line2d_2">
      <defs>
       <path d="M 0 0 
L 0 -2.5 
" id="m4c98811c2c" style="stroke:#000000;stroke-opacity:0.1;stroke-width:0.5;"/>
      </defs>
      <g>
       <use style="fill-opacity:0.1;stroke:#000000;stroke-opacity:0.1;stroke-width:0.5;" x="108.164006" xlink:href="#m4c98811c2c" y="201.345354"/>
      </g>
     </g>
     <g id="text_1">
      <!-- $\mathregular{-4}$ -->
      <g transform="translate(103.564006 210.584104)scale(0.08 -0.08)">
       <defs>
        <path d="M 55.421875 29.59375 
L 55.421875 21.390625 
L 4.5 21.390625 
L 4.5 29.59375 
z
" id="Helvetica-8722"/>
        <path d="M 33.0625 24.75 
L 33.0625 56.453125 
L 10.640625 24.75 
z
M 33.203125 0 
L 33.203125 17.09375 
L 2.546875 17.09375 
L 2.546875 25.6875 
L 34.578125 70.125 
L 42 70.125 
L 42 24.75 
L 52.296875 24.75 
L 52.296875 17.09375 
L 42 17.09375 
L 42 0 
z
" id="Helvetica-52"/>
       </defs>
       <use transform="translate(0 0.875)" xlink:href="#Helvetica-8722"/>
       <use transform="translate(58.398438 0.875)" xlink:href="#Helvetica-52"/>
      </g>
     </g>
    </g>
    <g id="xtick_2">
     <g id="line2d_3">
      <path clip-path="url(#p4b8a444fa4)" d="M 136.734872 201.345354 
L 136.734872 19.634646 
" style="fill:none;stroke:#000000;stroke-linecap:square;stroke-opacity:0.1;stroke-width:0.5;"/>
     </g>
     <g id="line2d_4">
      <g>
       <use style="fill-opacity:0.1;stroke:#000000;stroke-opacity:0.1;stroke-width:0.5;" x="136.734872" xlink:href="#m4c98811c2c" y="201.345354"/>
      </g>
     </g>
     <g id="text_2">
      <!-- $\mathregular{-3}$ -->
      <g transform="translate(132.134872 210.584104)scale(0.08 -0.08)">
       <defs>
        <path d="M 25.984375 -1.90625 
Q 13.578125 -1.90625 7.984375 4.90625 
Q 2.390625 11.71875 2.390625 21.484375 
L 11.578125 21.484375 
Q 12.15625 14.703125 14.109375 11.625 
Q 17.53125 6.109375 26.46875 6.109375 
Q 33.40625 6.109375 37.59375 9.8125 
Q 41.796875 13.53125 41.796875 19.390625 
Q 41.796875 26.609375 37.375 29.484375 
Q 32.953125 32.375 25.09375 32.375 
Q 24.21875 32.375 23.3125 32.34375 
Q 22.40625 32.328125 21.484375 32.28125 
L 21.484375 40.046875 
Q 22.859375 39.890625 23.78125 39.84375 
Q 24.703125 39.796875 25.78125 39.796875 
Q 30.71875 39.796875 33.890625 41.359375 
Q 39.453125 44.09375 39.453125 51.125 
Q 39.453125 56.34375 35.734375 59.171875 
Q 32.03125 62.015625 27.09375 62.015625 
Q 18.3125 62.015625 14.9375 56.15625 
Q 13.09375 52.9375 12.84375 46.96875 
L 4.15625 46.96875 
Q 4.15625 54.78125 7.28125 60.25 
Q 12.640625 70.015625 26.171875 70.015625 
Q 36.859375 70.015625 42.71875 65.25 
Q 48.578125 60.5 48.578125 51.46875 
Q 48.578125 45.015625 45.125 41.015625 
Q 42.96875 38.53125 39.546875 37.109375 
Q 45.0625 35.59375 48.15625 31.265625 
Q 51.265625 26.953125 51.265625 20.703125 
Q 51.265625 10.6875 44.671875 4.390625 
Q 38.09375 -1.90625 25.984375 -1.90625 
z
" id="Helvetica-51"/>
       </defs>
       <use transform="translate(0 0.984375)" xlink:href="#Helvetica-8722"/>
       <use transform="translate(58.398438 0.984375)" xlink:href="#Helvetica-51"/>
      </g>
     </g>
    </g>
    <g id="xtick_3">
     <g id="line2d_5">
      <path clip-path="url(#p4b8a444fa4)" d="M 165.305738 201.345354 
L 165.305738 19.634646 
" style="fill:none;stroke:#000000;stroke-linecap:square;stroke-opacity:0.1;stroke-width:0.5;"/>
     </g>
     <g id="line2d_6">
      <g>
       <use style="fill-opacity:0.1;stroke:#000000;stroke-opacity:0.1;stroke-width:0.5;" x="165.305738" xlink:href="#m4c98811c2c" y="201.345354"/>
      </g>
     </g>
     <g id="text_3">
      <!-- $\mathregular{-2}$ -->
      <g transform="translate(160.705738 210.584104)scale(0.08 -0.08)">
       <defs>
        <path d="M 3.125 0 
Q 3.609375 9.03125 6.859375 15.71875 
Q 10.109375 22.40625 19.53125 27.875 
L 28.90625 33.296875 
Q 35.203125 36.96875 37.75 39.546875 
Q 41.75 43.609375 41.75 48.828125 
Q 41.75 54.9375 38.078125 58.515625 
Q 34.421875 62.109375 28.328125 62.109375 
Q 19.28125 62.109375 15.828125 55.28125 
Q 13.96875 51.609375 13.765625 45.125 
L 4.828125 45.125 
Q 4.984375 54.25 8.203125 60.015625 
Q 13.921875 70.171875 28.375 70.171875 
Q 40.375 70.171875 45.921875 63.671875 
Q 51.46875 57.171875 51.46875 49.21875 
Q 51.46875 40.828125 45.5625 34.859375 
Q 42.140625 31.390625 33.296875 26.46875 
L 26.609375 22.75 
Q 21.828125 20.125 19.09375 17.71875 
Q 14.203125 13.484375 12.9375 8.296875 
L 51.125 8.296875 
L 51.125 0 
L 3.125 0 
z
" id="Helvetica-50"/>
       </defs>
       <use transform="translate(0 0.828125)" xlink:href="#Helvetica-8722"/>
       <use transform="translate(58.398438 0.828125)" xlink:href="#Helvetica-50"/>
      </g>
     </g>
    </g>
    <g id="xtick_4">
     <g id="line2d_7">
      <path clip-path="url(#p4b8a444fa4)" d="M 193.876604 201.345354 
L 193.876604 19.634646 
" style="fill:none;stroke:#000000;stroke-linecap:square;stroke-opacity:0.1;stroke-width:0.5;"/>
     </g>
     <g id="line2d_8">
      <g>
       <use style="fill-opacity:0.1;stroke:#000000;stroke-opacity:0.1;stroke-width:0.5;" x="193.876604" xlink:href="#m4c98811c2c" y="201.345354"/>
      </g>
     </g>
     <g id="text_4">
      <!-- $\mathregular{-1}$ -->
      <g transform="translate(189.276604 210.584104)scale(0.08 -0.08)">
       <defs>
        <path d="M 9.578125 49.515625 
L 9.578125 56.25 
Q 19.09375 57.171875 22.84375 59.34375 
Q 26.609375 61.53125 28.46875 69.625 
L 35.40625 69.625 
L 35.40625 0 
L 26.03125 0 
L 26.03125 49.515625 
z
" id="Helvetica-49"/>
       </defs>
       <use transform="translate(0 0.375)" xlink:href="#Helvetica-8722"/>
       <use transform="translate(58.398438 0.375)" xlink:href="#Helvetica-49"/>
      </g>
     </g>
    </g>
    <g id="xtick_5">
     <g id="line2d_9">
      <path clip-path="url(#p4b8a444fa4)" d="M 222.44747 201.345354 
L 222.44747 19.634646 
" style="fill:none;stroke:#000000;stroke-linecap:square;stroke-opacity:0.1;stroke-width:0.5;"/>
     </g>
     <g id="line2d_10">
      <g>
       <use style="fill-opacity:0.1;stroke:#000000;stroke-opacity:0.1;stroke-width:0.5;" x="222.44747" xlink:href="#m4c98811c2c" y="201.345354"/>
      </g>
     </g>
     <g id="text_5">
      <!-- $\mathregular{0}$ -->
      <g transform="translate(220.20747 210.584104)scale(0.08 -0.08)">
       <defs>
        <path d="M 27.046875 69.921875 
Q 40.625 69.921875 46.6875 58.734375 
Q 51.375 50.09375 51.375 35.0625 
Q 51.375 20.796875 47.125 11.46875 
Q 40.96875 -1.90625 27 -1.90625 
Q 14.40625 -1.90625 8.25 9.03125 
Q 3.125 18.171875 3.125 33.546875 
Q 3.125 45.453125 6.203125 54 
Q 11.96875 69.921875 27.046875 69.921875 
z
M 26.953125 6.109375 
Q 33.796875 6.109375 37.84375 12.15625 
Q 41.890625 18.21875 41.890625 34.71875 
Q 41.890625 46.625 38.953125 54.3125 
Q 36.03125 62.015625 27.59375 62.015625 
Q 19.828125 62.015625 16.234375 54.703125 
Q 12.640625 47.40625 12.640625 33.203125 
Q 12.640625 22.515625 14.9375 16.015625 
Q 18.453125 6.109375 26.953125 6.109375 
z
" id="Helvetica-48"/>
       </defs>
       <use transform="translate(0 0.078125)" xlink:href="#Helvetica-48"/>
      </g>
     </g>
    </g>
    <g id="xtick_6">
     <g id="line2d_11">
      <path clip-path="url(#p4b8a444fa4)" d="M 251.018336 201.345354 
L 251.018336 19.634646 
" style="fill:none;stroke:#000000;stroke-linecap:square;stroke-opacity:0.1;stroke-width:0.5;"/>
     </g>
     <g id="line2d_12">
      <g>
       <use style="fill-opacity:0.1;stroke:#000000;stroke-opacity:0.1;stroke-width:0.5;" x="251.018336" xlink:href="#m4c98811c2c" y="201.345354"/>
      </g>
     </g>
     <g id="text_6">
      <!-- $\mathregular{1}$ -->
      <g transform="translate(248.778336 210.584104)scale(0.08 -0.08)">
       <use transform="translate(0 0.375)" xlink:href="#Helvetica-49"/>
      </g>
     </g>
    </g>
    <g id="xtick_7">
     <g id="line2d_13">
      <path clip-path="url(#p4b8a444fa4)" d="M 279.589202 201.345354 
L 279.589202 19.634646 
" style="fill:none;stroke:#000000;stroke-linecap:square;stroke-opacity:0.1;stroke-width:0.5;"/>
     </g>
     <g id="line2d_14">
      <g>
       <use style="fill-opacity:0.1;stroke:#000000;stroke-opacity:0.1;stroke-width:0.5;" x="279.589202" xlink:href="#m4c98811c2c" y="201.345354"/>
      </g>
     </g>
     <g id="text_7">
      <!-- $\mathregular{2}$ -->
      <g transform="translate(277.349202 210.584104)scale(0.08 -0.08)">
       <use transform="translate(0 0.828125)" xlink:href="#Helvetica-50"/>
      </g>
     </g>
    </g>
    <g id="text_8">
     <!-- Re ζ -->
     <g transform="translate(182.876604 224.142386)scale(0.11 -0.11)">
      <defs>
       <path d="M 40.96875 38.875 
Q 47.796875 38.875 51.78125 41.609375 
Q 55.765625 44.34375 55.765625 51.46875 
Q 55.765625 59.125 50.203125 61.921875 
Q 47.21875 63.375 42.234375 63.375 
L 18.5 63.375 
L 18.5 38.875 
z
M 8.796875 71.734375 
L 42 71.734375 
Q 50.203125 71.734375 55.515625 69.34375 
Q 65.625 64.75 65.625 52.390625 
Q 65.625 45.953125 62.953125 41.84375 
Q 60.296875 37.75 55.515625 35.25 
Q 59.71875 33.546875 61.84375 30.765625 
Q 63.96875 27.984375 64.203125 21.734375 
L 64.546875 12.109375 
Q 64.703125 8.015625 65.234375 6 
Q 66.109375 2.59375 68.359375 1.609375 
L 68.359375 0 
L 56.453125 0 
Q 55.953125 0.921875 55.65625 2.390625 
Q 55.375 3.859375 55.171875 8.0625 
L 54.59375 20.015625 
Q 54.25 27.046875 49.359375 29.4375 
Q 46.578125 30.765625 40.625 30.765625 
L 18.5 30.765625 
L 18.5 0 
L 8.796875 0 
z
" id="Helvetica-82"/>
       <path d="M 28.21875 53.46875 
Q 33.796875 53.46875 39.015625 50.859375 
Q 44.234375 48.25 46.96875 44.09375 
Q 49.609375 40.140625 50.484375 34.859375 
Q 51.265625 31.25 51.265625 23.34375 
L 12.9375 23.34375 
Q 13.1875 15.375 16.703125 10.5625 
Q 20.21875 5.765625 27.59375 5.765625 
Q 34.46875 5.765625 38.578125 10.296875 
Q 40.921875 12.9375 41.890625 16.40625 
L 50.53125 16.40625 
Q 50.203125 13.53125 48.265625 9.984375 
Q 46.34375 6.453125 43.953125 4.203125 
Q 39.9375 0.296875 34.03125 -1.078125 
Q 30.859375 -1.859375 26.859375 -1.859375 
Q 17.09375 -1.859375 10.296875 5.25 
Q 3.515625 12.359375 3.515625 25.140625 
Q 3.515625 37.75 10.34375 45.609375 
Q 17.1875 53.46875 28.21875 53.46875 
z
M 42.234375 30.328125 
Q 41.703125 36.03125 39.75 39.453125 
Q 36.140625 45.796875 27.6875 45.796875 
Q 21.625 45.796875 17.515625 41.421875 
Q 13.421875 37.0625 13.1875 30.328125 
z
M 27.390625 53.5625 
z
" id="Helvetica-101"/>
       <path id="Helvetica-32"/>
       <path d="M 43.3125 64.59375 
Q 31.78125 58.296875 22.609375 47.125 
Q 12.890625 35.984375 12.59375 22.40625 
Q 12.59375 19.578125 12.984375 17 
Q 13.484375 14.3125 14.5 12.109375 
Q 15.71875 10.015625 17.671875 8.796875 
Q 19.78125 7.515625 23.1875 7.515625 
Q 25.296875 7.515625 27.296875 7.71875 
Q 29.390625 7.8125 31.984375 7.8125 
Q 37.890625 7.8125 41.015625 5.8125 
Q 44.09375 3.515625 44.09375 -2.6875 
Q 44.09375 -6.984375 42.78125 -11.375 
Q 41.5 -15.921875 39.796875 -19.578125 
L 32.421875 -19.578125 
Q 33.015625 -17.921875 33.6875 -16.109375 
Q 34.28125 -14.3125 34.90625 -12.3125 
Q 36.1875 -8.296875 36.28125 -4.203125 
Q 36.28125 -1.90625 35.203125 -0.875 
Q 34.078125 0 31.109375 0 
L 24.703125 0 
Q 14.59375 0 9.1875 4.78125 
Q 3.609375 9.71875 3.609375 21.09375 
Q 3.8125 34.078125 11.71875 45.21875 
Q 19.390625 56.296875 30.171875 63.1875 
L 30.171875 63.375 
L 8.109375 63.375 
L 8.109375 70.609375 
L 43.3125 70.609375 
z
" id="Helvetica-950"/>
      </defs>
      <use xlink:href="#Helvetica-82"/>
      <use x="72.216797" xlink:href="#Helvetica-101"/>
      <use x="127.832031" xlink:href="#Helvetica-32"/>
      <use x="155.615234" xlink:href="#Helvetica-950"/>
     </g>
    </g>
   </g>
   <g id="matplotlib.axis_2">
    <g id="ytick_1">
     <g id="line2d_15">
      <path clip-path="url(#p4b8a444fa4)" d="M 103.02125 196.202598 
L 284.731958 196.202598 
" style="fill:none;stroke:#000000;stroke-linecap:square;stroke-opacity:0.1;stroke-width:0.5;"/>
     </g>
     <g id="line2d_16">
      <defs>
       <path d="M 0 0 
L 2.5 0 
" id="mb1c7f96330" style="stroke:#000000;stroke-opacity:0.1;stroke-width:0.5;"/>
      </defs>
      <g>
       <use style="fill-opacity:0.1;stroke:#000000;stroke-opacity:0.1;stroke-width:0.5;" x="103.02125" xlink:href="#mb1c7f96330" y="196.202598"/>
      </g>
     </g>
     <g id="text_9">
      <!-- $\mathregular{-3}$ -->
      <g transform="translate(90.32125 199.071973)scale(0.08 -0.08)">
       <use transform="translate(0 0.984375)" xlink:href="#Helvetica-8722"/>
       <use transform="translate(58.398438 0.984375)" xlink:href="#Helvetica-51"/>
      </g>
     </g>
    </g>
    <g id="ytick_2">
     <g id="line2d_17">
      <path clip-path="url(#p4b8a444fa4)" d="M 103.02125 167.631732 
L 284.731958 167.631732 
" style="fill:none;stroke:#000000;stroke-linecap:square;stroke-opacity:0.1;stroke-width:0.5;"/>
     </g>
     <g id="line2d_18">
      <g>
       <use style="fill-opacity:0.1;stroke:#000000;stroke-opacity:0.1;stroke-width:0.5;" x="103.02125" xlink:href="#mb1c7f96330" y="167.631732"/>
      </g>
     </g>
     <g id="text_10">
      <!-- $\mathregular{-2}$ -->
      <g transform="translate(90.32125 170.501107)scale(0.08 -0.08)">
       <use transform="translate(0 0.828125)" xlink:href="#Helvetica-8722"/>
       <use transform="translate(58.398438 0.828125)" xlink:href="#Helvetica-50"/>
      </g>
     </g>
    </g>
    <g id="ytick_3">
     <g id="line2d_19">
      <path clip-path="url(#p4b8a444fa4)" d="M 103.02125 139.060866 
L 284.731958 139.060866 
" style="fill:none;stroke:#000000;stroke-linecap:square;stroke-opacity:0.1;stroke-width:0.5;"/>
     </g>
     <g id="line2d_20">
      <g>
       <use style="fill-opacity:0.1;stroke:#000000;stroke-opacity:0.1;stroke-width:0.5;" x="103.02125" xlink:href="#mb1c7f96330" y="139.060866"/>
      </g>
     </g>
     <g id="text_11">
      <!-- $\mathregular{-1}$ -->
      <g transform="translate(90.32125 141.930241)scale(0.08 -0.08)">
       <use transform="translate(0 0.375)" xlink:href="#Helvetica-8722"/>
       <use transform="translate(58.398438 0.375)" xlink:href="#Helvetica-49"/>
      </g>
     </g>
    </g>
    <g id="ytick_4">
     <g id="line2d_21">
      <path clip-path="url(#p4b8a444fa4)" d="M 103.02125 110.49 
L 284.731958 110.49 
" style="fill:none;stroke:#000000;stroke-linecap:square;stroke-opacity:0.1;stroke-width:0.5;"/>
     </g>
     <g id="line2d_22">
      <g>
       <use style="fill-opacity:0.1;stroke:#000000;stroke-opacity:0.1;stroke-width:0.5;" x="103.02125" xlink:href="#mb1c7f96330" y="110.49"/>
      </g>
     </g>
     <g id="text_12">
      <!-- $\mathregular{0}$ -->
      <g transform="translate(95.04125 113.359375)scale(0.08 -0.08)">
       <use transform="translate(0 0.078125)" xlink:href="#Helvetica-48"/>
      </g>
     </g>
    </g>
    <g id="ytick_5">
     <g id="line2d_23">
      <path clip-path="url(#p4b8a444fa4)" d="M 103.02125 81.919134 
L 284.731958 81.919134 
" style="fill:none;stroke:#000000;stroke-linecap:square;stroke-opacity:0.1;stroke-width:0.5;"/>
     </g>
     <g id="line2d_24">
      <g>
       <use style="fill-opacity:0.1;stroke:#000000;stroke-opacity:0.1;stroke-width:0.5;" x="103.02125" xlink:href="#mb1c7f96330" y="81.919134"/>
      </g>
     </g>
     <g id="text_13">
      <!-- $\mathregular{1}$ -->
      <g transform="translate(95.04125 84.788509)scale(0.08 -0.08)">
       <use transform="translate(0 0.375)" xlink:href="#Helvetica-49"/>
      </g>
     </g>
    </g>
    <g id="ytick_6">
     <g id="line2d_25">
      <path clip-path="url(#p4b8a444fa4)" d="M 103.02125 53.348268 
L 284.731958 53.348268 
" style="fill:none;stroke:#000000;stroke-linecap:square;stroke-opacity:0.1;stroke-width:0.5;"/>
     </g>
     <g id="line2d_26">
      <g>
       <use style="fill-opacity:0.1;stroke:#000000;stroke-opacity:0.1;stroke-width:0.5;" x="103.02125" xlink:href="#mb1c7f96330" y="53.348268"/>
      </g>
     </g>
     <g id="text_14">
      <!-- $\mathregular{2}$ -->
      <g transform="translate(95.04125 56.217643)scale(0.08 -0.08)">
       <use transform="translate(0 0.828125)" xlink:href="#Helvetica-50"/>
      </g>
     </g>
    </g>
    <g id="ytick_7">
     <g id="line2d_27">
      <path clip-path="url(#p4b8a444fa4)" d="M 103.02125 24.777402 
L 284.731958 24.777402 
" style="fill:none;stroke:#000000;stroke-linecap:square;stroke-opacity:0.1;stroke-width:0.5;"/>
     </g>
     <g id="line2d_28">
      <g>
       <use style="fill-opacity:0.1;stroke:#000000;stroke-opacity:0.1;stroke-width:0.5;" x="103.02125" xlink:href="#mb1c7f96330" y="24.777402"/>
      </g>
     </g>
     <g id="text_15">
      <!-- $\mathregular{3}$ -->
      <g transform="translate(95.04125 27.646777)scale(0.08 -0.08)">
       <use transform="translate(0 0.984375)" xlink:href="#Helvetica-51"/>
      </g>
     </g>
    </g>
    <g id="text_16">
     <!-- Im ζ -->
     <g transform="translate(84.028437 120.56875)rotate(-90)scale(0.11 -0.11)">
      <defs>
       <path d="M 9.8125 71.734375 
L 19.625 71.734375 
L 19.625 0 
L 9.8125 0 
z
" id="Helvetica-73"/>
       <path d="M 6.453125 52.296875 
L 15.140625 52.296875 
L 15.140625 44.875 
Q 18.265625 48.734375 20.796875 50.484375 
Q 25.140625 53.46875 30.671875 53.46875 
Q 36.921875 53.46875 40.71875 50.390625 
Q 42.875 48.640625 44.625 45.21875 
Q 47.5625 49.421875 51.515625 51.4375 
Q 55.46875 53.46875 60.40625 53.46875 
Q 70.953125 53.46875 74.75 45.84375 
Q 76.8125 41.75 76.8125 34.8125 
L 76.8125 0 
L 67.671875 0 
L 67.671875 36.328125 
Q 67.671875 41.546875 65.0625 43.5 
Q 62.453125 45.453125 58.6875 45.453125 
Q 53.515625 45.453125 49.78125 41.984375 
Q 46.046875 38.53125 46.046875 30.421875 
L 46.046875 0 
L 37.109375 0 
L 37.109375 34.125 
Q 37.109375 39.453125 35.84375 41.890625 
Q 33.84375 45.5625 28.375 45.5625 
Q 23.390625 45.5625 19.3125 41.703125 
Q 15.234375 37.84375 15.234375 27.734375 
L 15.234375 0 
L 6.453125 0 
z
" id="Helvetica-109"/>
      </defs>
      <use xlink:href="#Helvetica-73"/>
      <use x="27.783203" xlink:href="#Helvetica-109"/>
      <use x="111.083984" xlink:href="#Helvetica-32"/>
      <use x="138.867188" xlink:href="#Helvetica-950"/>
     </g>
    </g>
   </g>
   <g id="patch_3">
    <path clip-path="url(#p4b8a444fa4)" d="M 51.022273 281.915197 
L 393.872667 281.915197 
L 393.872667 -60.935197 
L 51.022273 -60.935197 
" style="fill:#ccccff;stroke:#000000;stroke-linejoin:miter;"/>
   </g>
   <g id="patch_4">
    <path clip-path="url(#p4b8a444fa4)" d="M 279.589202 110.49 
L 279.584851 109.99137 
L 279.571798 109.492891 
L 279.550047 108.994716 
L 279.519605 108.496997 
L 279.480482 107.999885 
L 279.432688 107.503531 
L 279.37624 107.008087 
L 279.311153 106.513704 
L 279.237448 106.020532 
L 279.155147 105.528721 
L 279.064275 105.038422 
L 278.96486 104.549783 
L 278.856933 104.062954 
L 278.740526 103.578082 
L 278.615674 103.095316 
L 278.482416 102.614802 
L 278.340791 102.136687 
L 278.190845 101.661117 
L 278.032621 101.188236 
L 277.866168 100.718188 
L 277.691538 100.251117 
L 277.508782 99.787165 
L 277.317957 99.326473 
L 277.119121 98.869182 
L 276.912335 98.41543 
L 276.697661 97.965357 
L 276.475164 97.519098 
L 276.244914 97.076791 
L 276.006979 96.638569 
L 275.761432 96.204567 
L 275.508348 95.774916 
L 275.247805 95.349748 
L 274.979881 94.929191 
L 274.704658 94.513374 
L 274.42222 94.102424 
L 274.132653 93.696466 
L 273.836045 93.295624 
L 273.532486 92.900018 
L 273.22207 92.509771 
L 272.90489 92.125001 
L 272.581043 91.745825 
L 272.250628 91.372359 
L 271.913745 91.004716 
L 271.570497 90.643009 
L 271.220989 90.287347 
L 270.865328 89.937839 
L 270.50362 89.594591 
L 270.135977 89.257709 
L 269.762511 88.927294 
L 269.383335 88.603447 
L 268.998565 88.286267 
L 268.608318 87.97585 
L 268.212713 87.672292 
L 267.81187 87.375684 
L 267.405912 87.086117 
L 266.994962 86.803678 
L 266.579145 86.528455 
L 266.158589 86.260531 
L 265.73342 85.999988 
L 265.303769 85.746904 
L 264.869767 85.501357 
L 264.431545 85.263423 
L 263.989238 85.033172 
L 263.54298 84.810676 
L 263.092906 84.596002 
L 262.639154 84.389215 
L 262.181863 84.190379 
L 261.721171 83.999554 
L 261.257219 83.816799 
L 260.790148 83.642168 
L 260.3201 83.475715 
L 259.847219 83.317492 
L 259.371649 83.167545 
L 258.893534 83.025921 
L 258.413021 82.892663 
L 257.930254 82.767811 
L 257.445383 82.651403 
L 256.958553 82.543476 
L 256.469915 82.444061 
L 255.979615 82.35319 
L 255.487804 82.270889 
L 254.994632 82.197184 
L 254.500249 82.132097 
L 254.004805 82.075648 
L 253.508451 82.027855 
L 253.011339 81.988731 
L 252.51362 81.958289 
L 252.015445 81.936538 
L 251.516967 81.923485 
L 251.018336 81.919134 
L 250.519706 81.923485 
L 250.021227 81.936538 
L 249.523053 81.958289 
L 249.025333 81.988731 
L 248.528221 82.027855 
L 248.031868 82.075648 
L 247.536424 82.132097 
L 247.04204 82.197184 
L 246.548868 82.270889 
L 246.057057 82.35319 
L 245.566758 82.444061 
L 245.078119 82.543476 
L 244.59129 82.651403 
L 244.106418 82.767811 
L 243.623652 82.892663 
L 243.143138 83.025921 
L 242.665023 83.167545 
L 242.189453 83.317492 
L 241.716572 83.475715 
L 241.246525 83.642168 
L 240.779454 83.816799 
L 240.315501 83.999554 
L 239.85481 84.190379 
L 239.397518 84.389215 
L 238.943767 84.596002 
L 238.493693 84.810676 
L 238.047434 85.033172 
L 237.605127 85.263423 
L 237.166906 85.501357 
L 236.732903 85.746904 
L 236.303252 85.999988 
L 235.878084 86.260531 
L 235.457527 86.528455 
L 235.041711 86.803678 
L 234.630761 87.086117 
L 234.224803 87.375684 
L 233.82396 87.672292 
L 233.428355 87.97585 
L 233.038108 88.286267 
L 232.653338 88.603447 
L 232.274162 88.927294 
L 231.900695 89.257709 
L 231.533052 89.594591 
L 231.171345 89.937839 
L 230.815683 90.287347 
L 230.466175 90.643009 
L 230.122928 91.004716 
L 229.786045 91.372359 
L 229.45563 91.745825 
L 229.131783 92.125001 
L 228.814603 92.509771 
L 228.504187 92.900018 
L 228.200628 93.295624 
L 227.90402 93.696466 
L 227.614453 94.102424 
L 227.332015 94.513374 
L 227.056792 94.929191 
L 226.788868 95.349748 
L 226.528324 95.774916 
L 226.27524 96.204567 
L 226.029694 96.638569 
L 225.791759 97.076791 
L 225.561508 97.519098 
L 225.339012 97.965357 
L 225.124338 98.41543 
L 224.917551 98.869182 
L 224.718715 99.326473 
L 224.52789 99.787165 
L 224.345135 100.251117 
L 224.170504 100.718188 
L 224.004052 101.188236 
L 223.845828 101.661117 
L 223.695881 102.136687 
L 223.554257 102.614802 
L 223.420999 103.095316 
L 223.296147 103.578082 
L 223.17974 104.062954 
L 223.071812 104.549783 
L 222.972397 105.038422 
L 222.881526 105.528721 
L 222.799225 106.020532 
L 222.72552 106.513704 
L 222.660433 107.008087 
L 222.603984 107.503531 
L 222.556191 107.999885 
L 222.517067 108.496997 
L 222.486626 108.994716 
L 222.464875 109.492891 
L 222.451822 109.99137 
L 222.44747 110.49 
L 222.451822 110.98863 
L 222.464875 111.487109 
L 222.486626 111.985284 
L 222.517067 112.483003 
L 222.556191 112.980115 
L 222.603984 113.476469 
L 222.660433 113.971913 
L 222.72552 114.466296 
L 222.799225 114.959468 
L 222.881526 115.451279 
L 222.972397 115.941578 
L 223.071812 116.430217 
L 223.17974 116.917046 
L 223.296147 117.401918 
L 223.420999 117.884684 
L 223.554257 118.365198 
L 223.695881 118.843313 
L 223.845828 119.318883 
L 224.004052 119.791764 
L 224.170504 120.261812 
L 224.345135 120.728883 
L 224.52789 121.192835 
L 224.718715 121.653527 
L 224.917551 122.110818 
L 225.124338 122.56457 
L 225.339012 123.014643 
L 225.561508 123.460902 
L 225.791759 123.903209 
L 226.029694 124.341431 
L 226.27524 124.775433 
L 226.528324 125.205084 
L 226.788868 125.630252 
L 227.056792 126.050809 
L 227.332015 126.466626 
L 227.614453 126.877576 
L 227.90402 127.283534 
L 228.200628 127.684376 
L 228.504187 128.079982 
L 228.814603 128.470229 
L 229.131783 128.854999 
L 229.45563 129.234175 
L 229.786045 129.607641 
L 230.122928 129.975284 
L 230.466175 130.336991 
L 230.815683 130.692653 
L 231.171345 131.042161 
L 231.533052 131.385409 
L 231.900695 131.722291 
L 232.274162 132.052706 
L 232.653338 132.376553 
L 233.038108 132.693733 
L 233.428355 133.00415 
L 233.82396 133.307708 
L 234.224803 133.604316 
L 234.630761 133.893883 
L 235.041711 134.176322 
L 235.457527 134.451545 
L 235.878084 134.719469 
L 236.303252 134.980012 
L 236.732903 135.233096 
L 237.166906 135.478643 
L 237.605127 135.716577 
L 238.047434 135.946828 
L 238.493693 136.169324 
L 238.943767 136.383998 
L 239.397518 136.590785 
L 239.85481 136.789621 
L 240.315501 136.980446 
L 240.779454 137.163201 
L 241.246525 137.337832 
L 241.716572 137.504285 
L 242.189453 137.662508 
L 242.665023 137.812455 
L 243.143138 137.954079 
L 243.623652 138.087337 
L 244.106418 138.212189 
L 244.59129 138.328597 
L 245.078119 138.436524 
L 245.566758 138.535939 
L 246.057057 138.62681 
L 246.548868 138.709111 
L 247.04204 138.782816 
L 247.536424 138.847903 
L 248.031868 138.904352 
L 248.528221 138.952145 
L 249.025333 138.991269 
L 249.523053 139.021711 
L 250.021227 139.043462 
L 250.519706 139.056515 
L 251.018336 139.060866 
L 251.516967 139.056515 
L 252.015445 139.043462 
L 252.51362 139.021711 
L 253.011339 138.991269 
L 253.508451 138.952145 
L 254.004805 138.904352 
L 254.500249 138.847903 
L 254.994632 138.782816 
L 255.487804 138.709111 
L 255.979615 138.62681 
L 256.469915 138.535939 
L 256.958553 138.436524 
L 257.445383 138.328597 
L 257.930254 138.212189 
L 258.413021 138.087337 
L 258.893534 137.954079 
L 259.371649 137.812455 
L 259.847219 137.662508 
L 260.3201 137.504285 
L 260.790148 137.337832 
L 261.257219 137.163201 
L 261.721171 136.980446 
L 262.181863 136.789621 
L 262.639154 136.590785 
L 263.092906 136.383998 
L 263.54298 136.169324 
L 263.989238 135.946828 
L 264.431545 135.716577 
L 264.869767 135.478643 
L 265.303769 135.233096 
L 265.73342 134.980012 
L 266.158589 134.719469 
L 266.579145 134.451545 
L 266.994962 134.176322 
L 267.405912 133.893883 
L 267.81187 133.604316 
L 268.212713 133.307708 
L 268.608318 133.00415 
L 268.998565 132.693733 
L 269.383335 132.376553 
L 269.762511 132.052706 
L 270.135977 131.722291 
L 270.50362 131.385409 
L 270.865328 131.042161 
L 271.220989 130.692653 
L 271.570497 130.336991 
L 271.913745 129.975284 
L 272.250628 129.607641 
L 272.581043 129.234175 
L 272.90489 128.854999 
L 273.22207 128.470229 
L 273.532486 128.079982 
L 273.836045 127.684376 
L 274.132653 127.283534 
L 274.42222 126.877576 
L 274.704658 126.466626 
L 274.979881 126.050809 
L 275.247805 125.630252 
L 275.508348 125.205084 
L 275.761432 124.775433 
L 276.006979 124.341431 
L 276.244914 123.903209 
L 276.475164 123.460902 
L 276.697661 123.014643 
L 276.912335 122.56457 
L 277.119121 122.110818 
L 277.317957 121.653527 
L 277.508782 121.192835 
L 277.691538 120.728883 
L 277.866168 120.261812 
L 278.032621 119.791764 
L 278.190845 119.318883 
L 278.340791 118.843313 
L 278.482416 118.365198 
L 278.615674 117.884684 
L 278.740526 117.401918 
L 278.856933 116.917046 
L 278.96486 116.430217 
L 279.064275 115.941578 
L 279.155147 115.451279 
L 279.237448 114.959468 
L 279.311153 114.466296 
L 279.37624 113.971913 
L 279.432688 113.476469 
L 279.480482 112.980115 
L 279.519605 112.483003 
L 279.550047 111.985284 
L 279.571798 111.487109 
L 279.584851 110.98863 
L 279.589202 110.49 
" style="fill:#ffffff;stroke:#000000;stroke-linejoin:miter;"/>
   </g>
   <g id="line2d_29">
    <path clip-path="url(#p4b8a444fa4)" d="M 103.02125 110.49 
L 284.731958 110.49 
" style="fill:none;stroke:#000000;stroke-linecap:square;stroke-width:0.75;"/>
   </g>
   <g id="line2d_30">
    <path clip-path="url(#p4b8a444fa4)" d="M 222.44747 201.345354 
L 222.44747 19.634646 
" style="fill:none;stroke:#000000;stroke-linecap:square;stroke-width:0.75;"/>
   </g>
   <g id="text_17">
    <!-- Stability region and ζ values -->
    <g transform="translate(107.112698 13.634646)scale(0.14 -0.14)">
     <defs>
      <path d="M 13.96875 23.140625 
Q 14.3125 17.046875 16.84375 13.234375 
Q 21.6875 6.109375 33.890625 6.109375 
Q 39.359375 6.109375 43.84375 7.671875 
Q 52.546875 10.6875 52.546875 18.5 
Q 52.546875 24.359375 48.875 26.859375 
Q 45.171875 29.296875 37.25 31.109375 
L 27.546875 33.296875 
Q 18.015625 35.453125 14.0625 38.03125 
Q 7.234375 42.53125 7.234375 51.46875 
Q 7.234375 61.140625 13.921875 67.328125 
Q 20.609375 73.53125 32.859375 73.53125 
Q 44.140625 73.53125 52.015625 68.078125 
Q 59.90625 62.640625 59.90625 50.6875 
L 50.78125 50.6875 
Q 50.046875 56.453125 47.65625 59.515625 
Q 43.21875 65.140625 32.5625 65.140625 
Q 23.96875 65.140625 20.203125 61.515625 
Q 16.453125 57.90625 16.453125 53.125 
Q 16.453125 47.859375 20.84375 45.40625 
Q 23.734375 43.84375 33.890625 41.5 
L 43.953125 39.203125 
Q 51.21875 37.546875 55.171875 34.671875 
Q 62.015625 29.640625 62.015625 20.0625 
Q 62.015625 8.15625 53.34375 3.03125 
Q 44.671875 -2.09375 33.203125 -2.09375 
Q 19.828125 -2.09375 12.25 4.734375 
Q 4.6875 11.53125 4.828125 23.140625 
z
M 33.59375 73.6875 
z
" id="Helvetica-83"/>
      <path d="M 8.203125 66.890625 
L 17.09375 66.890625 
L 17.09375 52.296875 
L 25.4375 52.296875 
L 25.4375 45.125 
L 17.09375 45.125 
L 17.09375 10.984375 
Q 17.09375 8.25 18.953125 7.328125 
Q 19.96875 6.78125 22.359375 6.78125 
Q 23 6.78125 23.734375 6.8125 
Q 24.46875 6.84375 25.4375 6.9375 
L 25.4375 0 
Q 23.921875 -0.4375 22.28125 -0.625 
Q 20.65625 -0.828125 18.75 -0.828125 
Q 12.59375 -0.828125 10.390625 2.3125 
Q 8.203125 5.46875 8.203125 10.5 
L 8.203125 45.125 
L 1.125 45.125 
L 1.125 52.296875 
L 8.203125 52.296875 
z
" id="Helvetica-116"/>
      <path d="M 13.1875 13.921875 
Q 13.1875 10.109375 15.96875 7.90625 
Q 18.75 5.71875 22.5625 5.71875 
Q 27.203125 5.71875 31.546875 7.859375 
Q 38.875 11.421875 38.875 19.53125 
L 38.875 26.609375 
Q 37.25 25.59375 34.703125 24.90625 
Q 32.171875 24.21875 29.734375 23.921875 
L 24.421875 23.25 
Q 19.625 22.609375 17.234375 21.234375 
Q 13.1875 18.953125 13.1875 13.921875 
z
M 34.46875 31.6875 
Q 37.5 32.078125 38.53125 34.234375 
Q 39.109375 35.40625 39.109375 37.59375 
Q 39.109375 42.09375 35.90625 44.109375 
Q 32.71875 46.140625 26.765625 46.140625 
Q 19.875 46.140625 17 42.4375 
Q 15.375 40.375 14.890625 36.328125 
L 6.6875 36.328125 
Q 6.9375 46 12.96875 49.78125 
Q 19 53.5625 26.953125 53.5625 
Q 36.1875 53.5625 41.9375 50.046875 
Q 47.65625 46.53125 47.65625 39.109375 
L 47.65625 8.984375 
Q 47.65625 7.625 48.21875 6.78125 
Q 48.78125 5.953125 50.59375 5.953125 
Q 51.171875 5.953125 51.90625 6.03125 
Q 52.640625 6.109375 53.46875 6.25 
L 53.46875 -0.25 
Q 51.421875 -0.828125 50.34375 -0.96875 
Q 49.265625 -1.125 47.40625 -1.125 
Q 42.875 -1.125 40.828125 2.09375 
Q 39.75 3.8125 39.3125 6.9375 
Q 36.625 3.421875 31.59375 0.828125 
Q 26.5625 -1.765625 20.515625 -1.765625 
Q 13.234375 -1.765625 8.609375 2.65625 
Q 4 7.078125 4 13.71875 
Q 4 21 8.546875 25 
Q 13.09375 29 20.453125 29.9375 
z
M 27.203125 53.5625 
z
" id="Helvetica-97"/>
      <path d="M 5.765625 71.96875 
L 14.3125 71.96875 
L 14.3125 45.953125 
Q 17.1875 49.703125 21.1875 51.671875 
Q 25.203125 53.65625 29.890625 53.65625 
Q 39.65625 53.65625 45.734375 46.9375 
Q 51.8125 40.234375 51.8125 27.15625 
Q 51.8125 14.75 45.796875 6.546875 
Q 39.796875 -1.65625 29.15625 -1.65625 
Q 23.1875 -1.65625 19.09375 1.21875 
Q 16.65625 2.9375 13.875 6.6875 
L 13.875 0 
L 5.765625 0 
z
M 28.609375 6.109375 
Q 35.75 6.109375 39.28125 11.765625 
Q 42.828125 17.4375 42.828125 26.703125 
Q 42.828125 34.96875 39.28125 40.375 
Q 35.75 45.796875 28.859375 45.796875 
Q 22.859375 45.796875 18.328125 41.359375 
Q 13.8125 36.921875 13.8125 26.703125 
Q 13.8125 19.34375 15.671875 14.75 
Q 19.140625 6.109375 28.609375 6.109375 
z
" id="Helvetica-98"/>
      <path d="M 6.453125 52.046875 
L 15.375 52.046875 
L 15.375 0 
L 6.453125 0 
z
M 6.453125 71.734375 
L 15.375 71.734375 
L 15.375 61.765625 
L 6.453125 61.765625 
z
" id="Helvetica-105"/>
      <path d="M 6.6875 71.734375 
L 15.484375 71.734375 
L 15.484375 0 
L 6.6875 0 
z
" id="Helvetica-108"/>
      <path d="M 39.109375 52.296875 
L 48.828125 52.296875 
Q 46.96875 47.265625 40.578125 29.34375 
Q 35.796875 15.875 32.5625 7.375 
Q 24.953125 -12.640625 21.828125 -17.03125 
Q 18.703125 -21.4375 11.078125 -21.4375 
Q 9.234375 -21.4375 8.234375 -21.28125 
Q 7.234375 -21.140625 5.765625 -20.75 
L 5.765625 -12.75 
Q 8.0625 -13.375 9.078125 -13.515625 
Q 10.109375 -13.671875 10.890625 -13.671875 
Q 13.328125 -13.671875 14.46875 -12.859375 
Q 15.625 -12.0625 16.40625 -10.890625 
Q 16.65625 -10.5 18.15625 -6.875 
Q 19.671875 -3.265625 20.359375 -1.515625 
L 1.03125 52.296875 
L 10.984375 52.296875 
L 25 9.71875 
z
M 24.953125 53.5625 
z
" id="Helvetica-121"/>
      <path d="M 6.6875 52.296875 
L 15.046875 52.296875 
L 15.046875 43.265625 
Q 16.0625 45.90625 20.0625 49.6875 
Q 24.078125 53.46875 29.296875 53.46875 
Q 29.546875 53.46875 30.125 53.421875 
Q 30.71875 53.375 32.125 53.21875 
L 32.125 43.953125 
Q 31.34375 44.09375 30.6875 44.140625 
Q 30.03125 44.1875 29.25 44.1875 
Q 22.609375 44.1875 19.046875 39.90625 
Q 15.484375 35.640625 15.484375 30.078125 
L 15.484375 0 
L 6.6875 0 
z
" id="Helvetica-114"/>
      <path d="M 24.90625 53.21875 
Q 31.0625 53.21875 35.640625 50.203125 
Q 38.140625 48.484375 40.71875 45.21875 
L 40.71875 51.8125 
L 48.828125 51.8125 
L 48.828125 4.25 
Q 48.828125 -5.71875 45.90625 -11.46875 
Q 40.4375 -22.125 25.25 -22.125 
Q 16.796875 -22.125 11.03125 -18.328125 
Q 5.28125 -14.546875 4.59375 -6.5 
L 13.53125 -6.5 
Q 14.15625 -10.015625 16.0625 -11.921875 
Q 19.046875 -14.84375 25.4375 -14.84375 
Q 35.546875 -14.84375 38.671875 -7.71875 
Q 40.53125 -3.515625 40.375 7.28125 
Q 37.75 3.265625 34.03125 1.3125 
Q 30.328125 -0.640625 24.21875 -0.640625 
Q 15.71875 -0.640625 9.34375 5.390625 
Q 2.984375 11.421875 2.984375 25.34375 
Q 2.984375 38.484375 9.40625 45.84375 
Q 15.828125 53.21875 24.90625 53.21875 
z
M 40.71875 26.375 
Q 40.71875 36.078125 36.71875 40.765625 
Q 32.71875 45.453125 26.515625 45.453125 
Q 17.234375 45.453125 13.8125 36.765625 
Q 12.015625 32.125 12.015625 24.609375 
Q 12.015625 15.765625 15.59375 11.15625 
Q 19.1875 6.546875 25.25 6.546875 
Q 34.71875 6.546875 38.578125 15.09375 
Q 40.71875 19.921875 40.71875 26.375 
z
M 25.921875 53.5625 
z
" id="Helvetica-103"/>
      <path d="M 27.203125 5.671875 
Q 35.9375 5.671875 39.1875 12.28125 
Q 42.4375 18.890625 42.4375 27 
Q 42.4375 34.328125 40.09375 38.921875 
Q 36.375 46.140625 27.296875 46.140625 
Q 19.234375 46.140625 15.578125 39.984375 
Q 11.921875 33.84375 11.921875 25.140625 
Q 11.921875 16.796875 15.578125 11.234375 
Q 19.234375 5.671875 27.203125 5.671875 
z
M 27.546875 53.8125 
Q 37.640625 53.8125 44.625 47.0625 
Q 51.609375 40.328125 51.609375 27.25 
Q 51.609375 14.59375 45.453125 6.34375 
Q 39.3125 -1.90625 26.375 -1.90625 
Q 15.578125 -1.90625 9.21875 5.390625 
Q 2.875 12.703125 2.875 25 
Q 2.875 38.1875 9.5625 46 
Q 16.265625 53.8125 27.546875 53.8125 
z
M 27.25 53.5625 
z
" id="Helvetica-111"/>
      <path d="M 6.453125 52.296875 
L 14.796875 52.296875 
L 14.796875 44.875 
Q 18.5 49.46875 22.65625 51.46875 
Q 26.8125 53.46875 31.890625 53.46875 
Q 43.015625 53.46875 46.921875 45.703125 
Q 49.078125 41.453125 49.078125 33.546875 
L 49.078125 0 
L 40.140625 0 
L 40.140625 32.953125 
Q 40.140625 37.75 38.71875 40.671875 
Q 36.375 45.5625 30.21875 45.5625 
Q 27.09375 45.5625 25.09375 44.921875 
Q 21.484375 43.84375 18.75 40.625 
Q 16.546875 38.03125 15.890625 35.265625 
Q 15.234375 32.515625 15.234375 27.390625 
L 15.234375 0 
L 6.453125 0 
z
M 27.09375 53.5625 
z
" id="Helvetica-110"/>
      <path d="M 12.015625 25.53125 
Q 12.015625 17.140625 15.578125 11.46875 
Q 19.140625 5.8125 27 5.8125 
Q 33.109375 5.8125 37.03125 11.0625 
Q 40.96875 16.3125 40.96875 26.125 
Q 40.96875 36.03125 36.90625 40.796875 
Q 32.859375 45.5625 26.90625 45.5625 
Q 20.265625 45.5625 16.140625 40.484375 
Q 12.015625 35.40625 12.015625 25.53125 
z
M 25.25 53.21875 
Q 31.25 53.21875 35.296875 50.6875 
Q 37.640625 49.21875 40.625 45.5625 
L 40.625 71.96875 
L 49.078125 71.96875 
L 49.078125 0 
L 41.15625 0 
L 41.15625 7.28125 
Q 38.09375 2.4375 33.890625 0.28125 
Q 29.6875 -1.859375 24.265625 -1.859375 
Q 15.53125 -1.859375 9.125 5.484375 
Q 2.734375 12.84375 2.734375 25.046875 
Q 2.734375 36.46875 8.5625 44.84375 
Q 14.40625 53.21875 25.25 53.21875 
z
" id="Helvetica-100"/>
      <path d="M 10.75 52.296875 
L 24.703125 9.71875 
L 39.3125 52.296875 
L 48.921875 52.296875 
L 29.203125 0 
L 19.828125 0 
L 0.53125 52.296875 
z
" id="Helvetica-118"/>
      <path d="M 15.234375 52.296875 
L 15.234375 17.578125 
Q 15.234375 13.578125 16.5 11.03125 
Q 18.84375 6.34375 25.25 6.34375 
Q 34.421875 6.34375 37.75 14.546875 
Q 39.546875 18.953125 39.546875 26.609375 
L 39.546875 52.296875 
L 48.34375 52.296875 
L 48.34375 0 
L 40.046875 0 
L 40.140625 7.71875 
Q 38.421875 4.734375 35.890625 2.6875 
Q 30.859375 -1.421875 23.6875 -1.421875 
Q 12.5 -1.421875 8.453125 6.0625 
Q 6.25 10.0625 6.25 16.75 
L 6.25 52.296875 
z
M 27.296875 53.5625 
z
" id="Helvetica-117"/>
      <path d="M 11.671875 16.40625 
Q 12.0625 12.015625 13.875 9.671875 
Q 17.1875 5.421875 25.390625 5.421875 
Q 30.28125 5.421875 33.984375 7.546875 
Q 37.703125 9.671875 37.703125 14.109375 
Q 37.703125 17.484375 34.71875 19.234375 
Q 32.8125 20.3125 27.203125 21.734375 
L 20.21875 23.484375 
Q 13.53125 25.140625 10.359375 27.203125 
Q 4.6875 30.765625 4.6875 37.0625 
Q 4.6875 44.484375 10.03125 49.0625 
Q 15.375 53.65625 24.421875 53.65625 
Q 36.234375 53.65625 41.453125 46.734375 
Q 44.734375 42.328125 44.625 37.25 
L 36.328125 37.25 
Q 36.078125 40.234375 34.234375 42.671875 
Q 31.203125 46.140625 23.734375 46.140625 
Q 18.75 46.140625 16.1875 44.234375 
Q 13.625 42.328125 13.625 39.203125 
Q 13.625 35.796875 17 33.734375 
Q 18.953125 32.515625 22.75 31.59375 
L 28.5625 30.171875 
Q 38.03125 27.875 41.265625 25.734375 
Q 46.390625 22.359375 46.390625 15.140625 
Q 46.390625 8.15625 41.09375 3.078125 
Q 35.796875 -2 24.953125 -2 
Q 13.28125 -2 8.421875 3.296875 
Q 3.5625 8.59375 3.21875 16.40625 
z
M 24.65625 53.5625 
z
" id="Helvetica-115"/>
     </defs>
     <use xlink:href="#Helvetica-83"/>
     <use x="66.699219" xlink:href="#Helvetica-116"/>
     <use x="94.482422" xlink:href="#Helvetica-97"/>
     <use x="150.097656" xlink:href="#Helvetica-98"/>
     <use x="205.712891" xlink:href="#Helvetica-105"/>
     <use x="227.929688" xlink:href="#Helvetica-108"/>
     <use x="250.146484" xlink:href="#Helvetica-105"/>
     <use x="272.363281" xlink:href="#Helvetica-116"/>
     <use x="300.146484" xlink:href="#Helvetica-121"/>
     <use x="350.146484" xlink:href="#Helvetica-32"/>
     <use x="377.929688" xlink:href="#Helvetica-114"/>
     <use x="411.230469" xlink:href="#Helvetica-101"/>
     <use x="466.845703" xlink:href="#Helvetica-103"/>
     <use x="522.460938" xlink:href="#Helvetica-105"/>
     <use x="544.677734" xlink:href="#Helvetica-111"/>
     <use x="600.292969" xlink:href="#Helvetica-110"/>
     <use x="655.908203" xlink:href="#Helvetica-32"/>
     <use x="683.691406" xlink:href="#Helvetica-97"/>
     <use x="739.306641" xlink:href="#Helvetica-110"/>
     <use x="794.921875" xlink:href="#Helvetica-100"/>
     <use x="850.537109" xlink:href="#Helvetica-32"/>
     <use x="878.320312" xlink:href="#Helvetica-950"/>
     <use x="922.705078" xlink:href="#Helvetica-32"/>
     <use x="950.488281" xlink:href="#Helvetica-118"/>
     <use x="1000.488281" xlink:href="#Helvetica-97"/>
     <use x="1056.103516" xlink:href="#Helvetica-108"/>
     <use x="1078.320312" xlink:href="#Helvetica-117"/>
     <use x="1133.935547" xlink:href="#Helvetica-101"/>
     <use x="1189.550781" xlink:href="#Helvetica-115"/>
    </g>
   </g>
   <g id="PathCollection_1">
    <defs>
     <path d="M 0 2 
C 0.530406 2 1.03916 1.789267 1.414214 1.414214 
C 1.789267 1.03916 2 0.530406 2 0 
C 2 -0.530406 1.789267 -1.03916 1.414214 -1.414214 
C 1.03916 -1.789267 0.530406 -2 0 -2 
C -0.530406 -2 -1.03916 -1.789267 -1.414214 -1.414214 
C -1.789267 -1.03916 -2 -0.530406 -2 0 
C -2 0.530406 -1.789267 1.03916 -1.414214 1.414214 
C -1.03916 1.789267 -0.530406 2 0 2 
z
" id="m75b946958c" style="stroke:#000000;stroke-opacity:0;"/>
    </defs>
    <g clip-path="url(#p4b8a444fa4)">
     <use style="fill:#3ea44e;stroke:#000000;stroke-opacity:0;" x="165.305738" xlink:href="#m75b946958c" y="110.49"/>
     <use style="fill:#3ea44e;stroke:#000000;stroke-opacity:0;" x="165.657493" xlink:href="#m75b946958c" y="110.49"/>
     <use style="fill:#3ea44e;stroke:#000000;stroke-opacity:0;" x="165.657493" xlink:href="#m75b946958c" y="110.49"/>
     <use style="fill:#3ea44e;stroke:#000000;stroke-opacity:0;" x="166.704096" xlink:href="#m75b946958c" y="110.49"/>
     <use style="fill:#3ea44e;stroke:#000000;stroke-opacity:0;" x="166.704096" xlink:href="#m75b946958c" y="110.49"/>
     <use style="fill:#3ea44e;stroke:#000000;stroke-opacity:0;" x="168.419776" xlink:href="#m75b946958c" y="110.49"/>
     <use style="fill:#3ea44e;stroke:#000000;stroke-opacity:0;" x="168.419776" xlink:href="#m75b946958c" y="110.49"/>
     <use style="fill:#3ea44e;stroke:#000000;stroke-opacity:0;" x="170.762288" xlink:href="#m75b946958c" y="110.49"/>
     <use style="fill:#3ea44e;stroke:#000000;stroke-opacity:0;" x="170.762288" xlink:href="#m75b946958c" y="110.49"/>
     <use style="fill:#3ea44e;stroke:#000000;stroke-opacity:0;" x="173.673951" xlink:href="#m75b946958c" y="110.49"/>
     <use style="fill:#3ea44e;stroke:#000000;stroke-opacity:0;" x="173.673951" xlink:href="#m75b946958c" y="110.49"/>
     <use style="fill:#3ea44e;stroke:#000000;stroke-opacity:0;" x="177.08307" xlink:href="#m75b946958c" y="110.49"/>
     <use style="fill:#3ea44e;stroke:#000000;stroke-opacity:0;" x="177.08307" xlink:href="#m75b946958c" y="110.49"/>
     <use style="fill:#3ea44e;stroke:#000000;stroke-opacity:0;" x="180.905702" xlink:href="#m75b946958c" y="110.49"/>
     <use style="fill:#3ea44e;stroke:#000000;stroke-opacity:0;" x="180.905702" xlink:href="#m75b946958c" y="110.49"/>
     <use style="fill:#3ea44e;stroke:#000000;stroke-opacity:0;" x="185.047721" xlink:href="#m75b946958c" y="110.49"/>
     <use style="fill:#3ea44e;stroke:#000000;stroke-opacity:0;" x="185.047721" xlink:href="#m75b946958c" y="110.49"/>
     <use style="fill:#3ea44e;stroke:#000000;stroke-opacity:0;" x="189.407136" xlink:href="#m75b946958c" y="110.49"/>
     <use style="fill:#3ea44e;stroke:#000000;stroke-opacity:0;" x="189.407136" xlink:href="#m75b946958c" y="110.49"/>
     <use style="fill:#3ea44e;stroke:#000000;stroke-opacity:0;" x="193.876604" xlink:href="#m75b946958c" y="110.49"/>
     <use style="fill:#3ea44e;stroke:#000000;stroke-opacity:0;" x="193.876604" xlink:href="#m75b946958c" y="110.49"/>
     <use style="fill:#3ea44e;stroke:#000000;stroke-opacity:0;" x="198.346072" xlink:href="#m75b946958c" y="110.49"/>
     <use style="fill:#3ea44e;stroke:#000000;stroke-opacity:0;" x="198.346072" xlink:href="#m75b946958c" y="110.49"/>
     <use style="fill:#3ea44e;stroke:#000000;stroke-opacity:0;" x="202.705487" xlink:href="#m75b946958c" y="110.49"/>
     <use style="fill:#3ea44e;stroke:#000000;stroke-opacity:0;" x="202.705487" xlink:href="#m75b946958c" y="110.49"/>
     <use style="fill:#3ea44e;stroke:#000000;stroke-opacity:0;" x="206.847506" xlink:href="#m75b946958c" y="110.49"/>
     <use style="fill:#3ea44e;stroke:#000000;stroke-opacity:0;" x="206.847506" xlink:href="#m75b946958c" y="110.49"/>
     <use style="fill:#3ea44e;stroke:#000000;stroke-opacity:0;" x="210.670138" xlink:href="#m75b946958c" y="110.49"/>
     <use style="fill:#3ea44e;stroke:#000000;stroke-opacity:0;" x="210.670138" xlink:href="#m75b946958c" y="110.49"/>
     <use style="fill:#3ea44e;stroke:#000000;stroke-opacity:0;" x="214.079257" xlink:href="#m75b946958c" y="110.49"/>
     <use style="fill:#3ea44e;stroke:#000000;stroke-opacity:0;" x="214.079257" xlink:href="#m75b946958c" y="110.49"/>
     <use style="fill:#3ea44e;stroke:#000000;stroke-opacity:0;" x="216.99092" xlink:href="#m75b946958c" y="110.49"/>
     <use style="fill:#3ea44e;stroke:#000000;stroke-opacity:0;" x="216.99092" xlink:href="#m75b946958c" y="110.49"/>
     <use style="fill:#3ea44e;stroke:#000000;stroke-opacity:0;" x="219.333432" xlink:href="#m75b946958c" y="110.49"/>
     <use style="fill:#3ea44e;stroke:#000000;stroke-opacity:0;" x="219.333432" xlink:href="#m75b946958c" y="110.49"/>
     <use style="fill:#3ea44e;stroke:#000000;stroke-opacity:0;" x="221.049112" xlink:href="#m75b946958c" y="110.49"/>
     <use style="fill:#3ea44e;stroke:#000000;stroke-opacity:0;" x="221.049112" xlink:href="#m75b946958c" y="110.49"/>
     <use style="fill:#3ea44e;stroke:#000000;stroke-opacity:0;" x="222.095715" xlink:href="#m75b946958c" y="110.49"/>
     <use style="fill:#3ea44e;stroke:#000000;stroke-opacity:0;" x="222.095715" xlink:href="#m75b946958c" y="110.49"/>
     <use style="fill:#3ea44e;stroke:#000000;stroke-opacity:0;" x="222.44747" xlink:href="#m75b946958c" y="110.49"/>
    </g>
   </g>
  </g>
 </g>
 <defs>
  <clipPath id="p4b8a444fa4">
   <rect height="181.710709" width="181.710709" x="103.02125" y="19.634646"/>
  </clipPath>
 </defs>
</svg>
