<?xml version="1.0" encoding="utf-8" standalone="no"?>
<!DOCTYPE svg PUBLIC "-//W3C//DTD SVG 1.1//EN"
  "http://www.w3.org/Graphics/SVG/1.1/DTD/svg11.dtd">
<!-- Created with matplotlib (https://matplotlib.org/) -->
<svg height="230.4pt" version="1.1" viewBox="0 0 360 230.4" width="360pt" xmlns="http://www.w3.org/2000/svg" xmlns:xlink="http://www.w3.org/1999/xlink">
 <metadata>
  <rdf:RDF xmlns:cc="http://creativecommons.org/ns#" xmlns:dc="http://purl.org/dc/elements/1.1/" xmlns:rdf="http://www.w3.org/1999/02/22-rdf-syntax-ns#">
   <cc:Work>
    <dc:type rdf:resource="http://purl.org/dc/dcmitype/StillImage"/>
    <dc:date>2021-07-22T19:18:12.195239</dc:date>
    <dc:format>image/svg+xml</dc:format>
    <dc:creator>
     <cc:Agent>
      <dc:title>Matplotlib v3.3.4, https://matplotlib.org/</dc:title>
     </cc:Agent>
    </dc:creator>
   </cc:Work>
  </rdf:RDF>
 </metadata>
 <defs>
  <style type="text/css">*{stroke-linecap:butt;stroke-linejoin:round;}</style>
 </defs>
 <g id="figure_1">
  <g id="patch_1">
   <path d="M 0 230.4 
L 360 230.4 
L 360 0 
L 0 0 
z
" style="fill:#ffffff;"/>
  </g>
  <g id="axes_1">
   <g id="patch_2">
    <path d="M 44.014498 156.650209 
L 357.165354 156.650209 
L 357.165354 64.329791 
L 44.014498 64.329791 
z
" style="fill:#ffffff;"/>
   </g>
   <g id="matplotlib.axis_1">
    <g id="xtick_1">
     <g id="line2d_1">
      <path clip-path="url(#pa6c006afb4)" d="M 71.341342 156.650209 
L 71.341342 64.329791 
" style="fill:none;stroke:#000000;stroke-linecap:square;stroke-opacity:0.1;stroke-width:0.5;"/>
     </g>
     <g id="line2d_2">
      <defs>
       <path d="M 0 0 
L 0 -2.5 
" id="mb3645d9ad2" style="stroke:#000000;stroke-opacity:0.1;stroke-width:0.5;"/>
      </defs>
      <g>
       <use style="fill-opacity:0.1;stroke:#000000;stroke-opacity:0.1;stroke-width:0.5;" x="71.341342" xlink:href="#mb3645d9ad2" y="156.650209"/>
      </g>
     </g>
     <g id="text_1">
      <!-- $\mathregular{-6000}$ -->
      <g transform="translate(60.101342 165.888959)scale(0.08 -0.08)">
       <defs>
        <path d="M 55.421875 29.59375 
L 55.421875 21.390625 
L 4.5 21.390625 
L 4.5 29.59375 
z
" id="Helvetica-8722"/>
        <path d="M 29.25 70.21875 
Q 40.96875 70.21875 45.578125 64.140625 
Q 50.203125 58.0625 50.203125 51.609375 
L 41.5 51.609375 
Q 40.71875 55.765625 39.015625 58.109375 
Q 35.84375 62.5 29.390625 62.5 
Q 22.015625 62.5 17.671875 55.6875 
Q 13.328125 48.875 12.84375 36.1875 
Q 15.875 40.625 20.453125 42.828125 
Q 24.65625 44.78125 29.828125 44.78125 
Q 38.625 44.78125 45.15625 39.15625 
Q 51.703125 33.546875 51.703125 22.40625 
Q 51.703125 12.890625 45.5 5.53125 
Q 39.3125 -1.8125 27.828125 -1.8125 
Q 18.015625 -1.8125 10.890625 5.640625 
Q 3.765625 13.09375 3.765625 30.71875 
Q 3.765625 43.75 6.9375 52.828125 
Q 13.03125 70.21875 29.25 70.21875 
z
M 28.609375 6 
Q 35.546875 6 38.984375 10.65625 
Q 42.4375 15.328125 42.4375 21.6875 
Q 42.4375 27.046875 39.359375 31.90625 
Q 36.28125 36.765625 28.171875 36.765625 
Q 22.515625 36.765625 18.234375 33 
Q 13.96875 29.25 13.96875 21.6875 
Q 13.96875 15.046875 17.84375 10.515625 
Q 21.734375 6 28.609375 6 
z
" id="Helvetica-54"/>
        <path d="M 27.046875 69.921875 
Q 40.625 69.921875 46.6875 58.734375 
Q 51.375 50.09375 51.375 35.0625 
Q 51.375 20.796875 47.125 11.46875 
Q 40.96875 -1.90625 27 -1.90625 
Q 14.40625 -1.90625 8.25 9.03125 
Q 3.125 18.171875 3.125 33.546875 
Q 3.125 45.453125 6.203125 54 
Q 11.96875 69.921875 27.046875 69.921875 
z
M 26.953125 6.109375 
Q 33.796875 6.109375 37.84375 12.15625 
Q 41.890625 18.21875 41.890625 34.71875 
Q 41.890625 46.625 38.953125 54.3125 
Q 36.03125 62.015625 27.59375 62.015625 
Q 19.828125 62.015625 16.234375 54.703125 
Q 12.640625 47.40625 12.640625 33.203125 
Q 12.640625 22.515625 14.9375 16.015625 
Q 18.453125 6.109375 26.953125 6.109375 
z
" id="Helvetica-48"/>
       </defs>
       <use transform="translate(0 0.78125)" xlink:href="#Helvetica-8722"/>
       <use transform="translate(58.398438 0.78125)" xlink:href="#Helvetica-54"/>
       <use transform="translate(114.013672 0.78125)" xlink:href="#Helvetica-48"/>
       <use transform="translate(169.628906 0.78125)" xlink:href="#Helvetica-48"/>
       <use transform="translate(225.244141 0.78125)" xlink:href="#Helvetica-48"/>
      </g>
     </g>
    </g>
    <g id="xtick_2">
     <g id="line2d_3">
      <path clip-path="url(#pa6c006afb4)" d="M 117.50155 156.650209 
L 117.50155 64.329791 
" style="fill:none;stroke:#000000;stroke-linecap:square;stroke-opacity:0.1;stroke-width:0.5;"/>
     </g>
     <g id="line2d_4">
      <g>
       <use style="fill-opacity:0.1;stroke:#000000;stroke-opacity:0.1;stroke-width:0.5;" x="117.50155" xlink:href="#mb3645d9ad2" y="156.650209"/>
      </g>
     </g>
     <g id="text_2">
      <!-- $\mathregular{-5000}$ -->
      <g transform="translate(106.26155 165.888959)scale(0.08 -0.08)">
       <defs>
        <path d="M 12.359375 17.828125 
Q 13.234375 10.296875 19.34375 7.421875 
Q 22.46875 5.953125 26.5625 5.953125 
Q 34.375 5.953125 38.125 10.9375 
Q 41.890625 15.921875 41.890625 21.96875 
Q 41.890625 29.296875 37.421875 33.296875 
Q 32.953125 37.3125 26.703125 37.3125 
Q 22.171875 37.3125 18.921875 35.546875 
Q 15.671875 33.796875 13.375 30.671875 
L 5.765625 31.109375 
L 11.078125 68.75 
L 47.40625 68.75 
L 47.40625 60.25 
L 17.671875 60.25 
L 14.703125 40.828125 
Q 17.140625 42.671875 19.34375 43.609375 
Q 23.25 45.21875 28.375 45.21875 
Q 37.984375 45.21875 44.671875 39.015625 
Q 51.375 32.8125 51.375 23.296875 
Q 51.375 13.375 45.234375 5.796875 
Q 39.109375 -1.765625 25.6875 -1.765625 
Q 17.140625 -1.765625 10.5625 3.046875 
Q 4 7.859375 3.21875 17.828125 
z
" id="Helvetica-53"/>
       </defs>
       <use transform="translate(0 0.078125)" xlink:href="#Helvetica-8722"/>
       <use transform="translate(58.398438 0.078125)" xlink:href="#Helvetica-53"/>
       <use transform="translate(114.013672 0.078125)" xlink:href="#Helvetica-48"/>
       <use transform="translate(169.628906 0.078125)" xlink:href="#Helvetica-48"/>
       <use transform="translate(225.244141 0.078125)" xlink:href="#Helvetica-48"/>
      </g>
     </g>
    </g>
    <g id="xtick_3">
     <g id="line2d_5">
      <path clip-path="url(#pa6c006afb4)" d="M 163.661759 156.650209 
L 163.661759 64.329791 
" style="fill:none;stroke:#000000;stroke-linecap:square;stroke-opacity:0.1;stroke-width:0.5;"/>
     </g>
     <g id="line2d_6">
      <g>
       <use style="fill-opacity:0.1;stroke:#000000;stroke-opacity:0.1;stroke-width:0.5;" x="163.661759" xlink:href="#mb3645d9ad2" y="156.650209"/>
      </g>
     </g>
     <g id="text_3">
      <!-- $\mathregular{-4000}$ -->
      <g transform="translate(152.421759 165.888959)scale(0.08 -0.08)">
       <defs>
        <path d="M 33.0625 24.75 
L 33.0625 56.453125 
L 10.640625 24.75 
z
M 33.203125 0 
L 33.203125 17.09375 
L 2.546875 17.09375 
L 2.546875 25.6875 
L 34.578125 70.125 
L 42 70.125 
L 42 24.75 
L 52.296875 24.75 
L 52.296875 17.09375 
L 42 17.09375 
L 42 0 
z
" id="Helvetica-52"/>
       </defs>
       <use transform="translate(0 0.875)" xlink:href="#Helvetica-8722"/>
       <use transform="translate(58.398438 0.875)" xlink:href="#Helvetica-52"/>
       <use transform="translate(114.013672 0.875)" xlink:href="#Helvetica-48"/>
       <use transform="translate(169.628906 0.875)" xlink:href="#Helvetica-48"/>
       <use transform="translate(225.244141 0.875)" xlink:href="#Helvetica-48"/>
      </g>
     </g>
    </g>
    <g id="xtick_4">
     <g id="line2d_7">
      <path clip-path="url(#pa6c006afb4)" d="M 209.821968 156.650209 
L 209.821968 64.329791 
" style="fill:none;stroke:#000000;stroke-linecap:square;stroke-opacity:0.1;stroke-width:0.5;"/>
     </g>
     <g id="line2d_8">
      <g>
       <use style="fill-opacity:0.1;stroke:#000000;stroke-opacity:0.1;stroke-width:0.5;" x="209.821968" xlink:href="#mb3645d9ad2" y="156.650209"/>
      </g>
     </g>
     <g id="text_4">
      <!-- $\mathregular{-3000}$ -->
      <g transform="translate(198.581968 165.888959)scale(0.08 -0.08)">
       <defs>
        <path d="M 25.984375 -1.90625 
Q 13.578125 -1.90625 7.984375 4.90625 
Q 2.390625 11.71875 2.390625 21.484375 
L 11.578125 21.484375 
Q 12.15625 14.703125 14.109375 11.625 
Q 17.53125 6.109375 26.46875 6.109375 
Q 33.40625 6.109375 37.59375 9.8125 
Q 41.796875 13.53125 41.796875 19.390625 
Q 41.796875 26.609375 37.375 29.484375 
Q 32.953125 32.375 25.09375 32.375 
Q 24.21875 32.375 23.3125 32.34375 
Q 22.40625 32.328125 21.484375 32.28125 
L 21.484375 40.046875 
Q 22.859375 39.890625 23.78125 39.84375 
Q 24.703125 39.796875 25.78125 39.796875 
Q 30.71875 39.796875 33.890625 41.359375 
Q 39.453125 44.09375 39.453125 51.125 
Q 39.453125 56.34375 35.734375 59.171875 
Q 32.03125 62.015625 27.09375 62.015625 
Q 18.3125 62.015625 14.9375 56.15625 
Q 13.09375 52.9375 12.84375 46.96875 
L 4.15625 46.96875 
Q 4.15625 54.78125 7.28125 60.25 
Q 12.640625 70.015625 26.171875 70.015625 
Q 36.859375 70.015625 42.71875 65.25 
Q 48.578125 60.5 48.578125 51.46875 
Q 48.578125 45.015625 45.125 41.015625 
Q 42.96875 38.53125 39.546875 37.109375 
Q 45.0625 35.59375 48.15625 31.265625 
Q 51.265625 26.953125 51.265625 20.703125 
Q 51.265625 10.6875 44.671875 4.390625 
Q 38.09375 -1.90625 25.984375 -1.90625 
z
" id="Helvetica-51"/>
       </defs>
       <use transform="translate(0 0.984375)" xlink:href="#Helvetica-8722"/>
       <use transform="translate(58.398438 0.984375)" xlink:href="#Helvetica-51"/>
       <use transform="translate(114.013672 0.984375)" xlink:href="#Helvetica-48"/>
       <use transform="translate(169.628906 0.984375)" xlink:href="#Helvetica-48"/>
       <use transform="translate(225.244141 0.984375)" xlink:href="#Helvetica-48"/>
      </g>
     </g>
    </g>
    <g id="xtick_5">
     <g id="line2d_9">
      <path clip-path="url(#pa6c006afb4)" d="M 255.982177 156.650209 
L 255.982177 64.329791 
" style="fill:none;stroke:#000000;stroke-linecap:square;stroke-opacity:0.1;stroke-width:0.5;"/>
     </g>
     <g id="line2d_10">
      <g>
       <use style="fill-opacity:0.1;stroke:#000000;stroke-opacity:0.1;stroke-width:0.5;" x="255.982177" xlink:href="#mb3645d9ad2" y="156.650209"/>
      </g>
     </g>
     <g id="text_5">
      <!-- $\mathregular{-2000}$ -->
      <g transform="translate(244.742177 165.888959)scale(0.08 -0.08)">
       <defs>
        <path d="M 3.125 0 
Q 3.609375 9.03125 6.859375 15.71875 
Q 10.109375 22.40625 19.53125 27.875 
L 28.90625 33.296875 
Q 35.203125 36.96875 37.75 39.546875 
Q 41.75 43.609375 41.75 48.828125 
Q 41.75 54.9375 38.078125 58.515625 
Q 34.421875 62.109375 28.328125 62.109375 
Q 19.28125 62.109375 15.828125 55.28125 
Q 13.96875 51.609375 13.765625 45.125 
L 4.828125 45.125 
Q 4.984375 54.25 8.203125 60.015625 
Q 13.921875 70.171875 28.375 70.171875 
Q 40.375 70.171875 45.921875 63.671875 
Q 51.46875 57.171875 51.46875 49.21875 
Q 51.46875 40.828125 45.5625 34.859375 
Q 42.140625 31.390625 33.296875 26.46875 
L 26.609375 22.75 
Q 21.828125 20.125 19.09375 17.71875 
Q 14.203125 13.484375 12.9375 8.296875 
L 51.125 8.296875 
L 51.125 0 
L 3.125 0 
z
" id="Helvetica-50"/>
       </defs>
       <use transform="translate(0 0.828125)" xlink:href="#Helvetica-8722"/>
       <use transform="translate(58.398438 0.828125)" xlink:href="#Helvetica-50"/>
       <use transform="translate(114.013672 0.828125)" xlink:href="#Helvetica-48"/>
       <use transform="translate(169.628906 0.828125)" xlink:href="#Helvetica-48"/>
       <use transform="translate(225.244141 0.828125)" xlink:href="#Helvetica-48"/>
      </g>
     </g>
    </g>
    <g id="xtick_6">
     <g id="line2d_11">
      <path clip-path="url(#pa6c006afb4)" d="M 302.142385 156.650209 
L 302.142385 64.329791 
" style="fill:none;stroke:#000000;stroke-linecap:square;stroke-opacity:0.1;stroke-width:0.5;"/>
     </g>
     <g id="line2d_12">
      <g>
       <use style="fill-opacity:0.1;stroke:#000000;stroke-opacity:0.1;stroke-width:0.5;" x="302.142385" xlink:href="#mb3645d9ad2" y="156.650209"/>
      </g>
     </g>
     <g id="text_6">
      <!-- $\mathregular{-1000}$ -->
      <g transform="translate(290.902385 165.888959)scale(0.08 -0.08)">
       <defs>
        <path d="M 9.578125 49.515625 
L 9.578125 56.25 
Q 19.09375 57.171875 22.84375 59.34375 
Q 26.609375 61.53125 28.46875 69.625 
L 35.40625 69.625 
L 35.40625 0 
L 26.03125 0 
L 26.03125 49.515625 
z
" id="Helvetica-49"/>
       </defs>
       <use transform="translate(0 0.078125)" xlink:href="#Helvetica-8722"/>
       <use transform="translate(58.398438 0.078125)" xlink:href="#Helvetica-49"/>
       <use transform="translate(114.013672 0.078125)" xlink:href="#Helvetica-48"/>
       <use transform="translate(169.628906 0.078125)" xlink:href="#Helvetica-48"/>
       <use transform="translate(225.244141 0.078125)" xlink:href="#Helvetica-48"/>
      </g>
     </g>
    </g>
    <g id="xtick_7">
     <g id="line2d_13">
      <path clip-path="url(#pa6c006afb4)" d="M 348.302594 156.650209 
L 348.302594 64.329791 
" style="fill:none;stroke:#000000;stroke-linecap:square;stroke-opacity:0.1;stroke-width:0.5;"/>
     </g>
     <g id="line2d_14">
      <g>
       <use style="fill-opacity:0.1;stroke:#000000;stroke-opacity:0.1;stroke-width:0.5;" x="348.302594" xlink:href="#mb3645d9ad2" y="156.650209"/>
      </g>
     </g>
     <g id="text_7">
      <!-- $\mathregular{0}$ -->
      <g transform="translate(346.062594 165.888959)scale(0.08 -0.08)">
       <use transform="translate(0 0.078125)" xlink:href="#Helvetica-48"/>
      </g>
     </g>
    </g>
    <g id="text_8">
     <!-- Re λ -->
     <g transform="translate(188.972895 179.44724)scale(0.11 -0.11)">
      <defs>
       <path d="M 40.96875 38.875 
Q 47.796875 38.875 51.78125 41.609375 
Q 55.765625 44.34375 55.765625 51.46875 
Q 55.765625 59.125 50.203125 61.921875 
Q 47.21875 63.375 42.234375 63.375 
L 18.5 63.375 
L 18.5 38.875 
z
M 8.796875 71.734375 
L 42 71.734375 
Q 50.203125 71.734375 55.515625 69.34375 
Q 65.625 64.75 65.625 52.390625 
Q 65.625 45.953125 62.953125 41.84375 
Q 60.296875 37.75 55.515625 35.25 
Q 59.71875 33.546875 61.84375 30.765625 
Q 63.96875 27.984375 64.203125 21.734375 
L 64.546875 12.109375 
Q 64.703125 8.015625 65.234375 6 
Q 66.109375 2.59375 68.359375 1.609375 
L 68.359375 0 
L 56.453125 0 
Q 55.953125 0.921875 55.65625 2.390625 
Q 55.375 3.859375 55.171875 8.0625 
L 54.59375 20.015625 
Q 54.25 27.046875 49.359375 29.4375 
Q 46.578125 30.765625 40.625 30.765625 
L 18.5 30.765625 
L 18.5 0 
L 8.796875 0 
z
" id="Helvetica-82"/>
       <path d="M 28.21875 53.46875 
Q 33.796875 53.46875 39.015625 50.859375 
Q 44.234375 48.25 46.96875 44.09375 
Q 49.609375 40.140625 50.484375 34.859375 
Q 51.265625 31.25 51.265625 23.34375 
L 12.9375 23.34375 
Q 13.1875 15.375 16.703125 10.5625 
Q 20.21875 5.765625 27.59375 5.765625 
Q 34.46875 5.765625 38.578125 10.296875 
Q 40.921875 12.9375 41.890625 16.40625 
L 50.53125 16.40625 
Q 50.203125 13.53125 48.265625 9.984375 
Q 46.34375 6.453125 43.953125 4.203125 
Q 39.9375 0.296875 34.03125 -1.078125 
Q 30.859375 -1.859375 26.859375 -1.859375 
Q 17.09375 -1.859375 10.296875 5.25 
Q 3.515625 12.359375 3.515625 25.140625 
Q 3.515625 37.75 10.34375 45.609375 
Q 17.1875 53.46875 28.21875 53.46875 
z
M 42.234375 30.328125 
Q 41.703125 36.03125 39.75 39.453125 
Q 36.140625 45.796875 27.6875 45.796875 
Q 21.625 45.796875 17.515625 41.421875 
Q 13.421875 37.0625 13.1875 30.328125 
z
M 27.390625 53.5625 
z
" id="Helvetica-101"/>
       <path id="Helvetica-32"/>
       <path d="M 9.515625 71.875 
Q 11.53125 72.40625 14.5 72.40625 
Q 19.578125 72.40625 22.125 69.78125 
Q 24.609375 67.09375 26.8125 61.078125 
L 46.96875 11.28125 
Q 47.703125 9.8125 48.6875 8.5 
Q 49.703125 7.171875 51.3125 7.171875 
L 53.8125 7.171875 
L 53.8125 0 
L 48.6875 0 
Q 41.5 0 38.8125 7.421875 
L 26.609375 39.59375 
L 11.53125 0 
L 1.8125 0 
L 22.3125 50.296875 
L 18.703125 59.90625 
Q 16.796875 64.796875 12.703125 64.59375 
L 9.515625 64.59375 
z
" id="Helvetica-955"/>
      </defs>
      <use xlink:href="#Helvetica-82"/>
      <use x="72.216797" xlink:href="#Helvetica-101"/>
      <use x="127.832031" xlink:href="#Helvetica-32"/>
      <use x="155.615234" xlink:href="#Helvetica-955"/>
     </g>
    </g>
   </g>
   <g id="matplotlib.axis_2">
    <g id="ytick_1">
     <g id="line2d_15">
      <path clip-path="url(#pa6c006afb4)" d="M 44.014498 156.650209 
L 357.165354 156.650209 
" style="fill:none;stroke:#000000;stroke-linecap:square;stroke-opacity:0.1;stroke-width:0.5;"/>
     </g>
     <g id="line2d_16">
      <defs>
       <path d="M 0 0 
L 2.5 0 
" id="m1c25f1ea56" style="stroke:#000000;stroke-opacity:0.1;stroke-width:0.5;"/>
      </defs>
      <g>
       <use style="fill-opacity:0.1;stroke:#000000;stroke-opacity:0.1;stroke-width:0.5;" x="44.014498" xlink:href="#m1c25f1ea56" y="156.650209"/>
      </g>
     </g>
     <g id="text_9">
      <!-- $\mathregular{-1000}$ -->
      <g transform="translate(18.034498 159.519584)scale(0.08 -0.08)">
       <use transform="translate(0 0.078125)" xlink:href="#Helvetica-8722"/>
       <use transform="translate(58.398438 0.078125)" xlink:href="#Helvetica-49"/>
       <use transform="translate(114.013672 0.078125)" xlink:href="#Helvetica-48"/>
       <use transform="translate(169.628906 0.078125)" xlink:href="#Helvetica-48"/>
       <use transform="translate(225.244141 0.078125)" xlink:href="#Helvetica-48"/>
      </g>
     </g>
    </g>
    <g id="ytick_2">
     <g id="line2d_17">
      <path clip-path="url(#pa6c006afb4)" d="M 44.014498 133.570104 
L 357.165354 133.570104 
" style="fill:none;stroke:#000000;stroke-linecap:square;stroke-opacity:0.1;stroke-width:0.5;"/>
     </g>
     <g id="line2d_18">
      <g>
       <use style="fill-opacity:0.1;stroke:#000000;stroke-opacity:0.1;stroke-width:0.5;" x="44.014498" xlink:href="#m1c25f1ea56" y="133.570104"/>
      </g>
     </g>
     <g id="text_10">
      <!-- $\mathregular{-500}$ -->
      <g transform="translate(22.434498 136.439479)scale(0.08 -0.08)">
       <use transform="translate(0 0.078125)" xlink:href="#Helvetica-8722"/>
       <use transform="translate(58.398438 0.078125)" xlink:href="#Helvetica-53"/>
       <use transform="translate(114.013672 0.078125)" xlink:href="#Helvetica-48"/>
       <use transform="translate(169.628906 0.078125)" xlink:href="#Helvetica-48"/>
      </g>
     </g>
    </g>
    <g id="ytick_3">
     <g id="line2d_19">
      <path clip-path="url(#pa6c006afb4)" d="M 44.014498 110.49 
L 357.165354 110.49 
" style="fill:none;stroke:#000000;stroke-linecap:square;stroke-opacity:0.1;stroke-width:0.5;"/>
     </g>
     <g id="line2d_20">
      <g>
       <use style="fill-opacity:0.1;stroke:#000000;stroke-opacity:0.1;stroke-width:0.5;" x="44.014498" xlink:href="#m1c25f1ea56" y="110.49"/>
      </g>
     </g>
     <g id="text_11">
      <!-- $\mathregular{0}$ -->
      <g transform="translate(36.034498 113.359375)scale(0.08 -0.08)">
       <use transform="translate(0 0.078125)" xlink:href="#Helvetica-48"/>
      </g>
     </g>
    </g>
    <g id="ytick_4">
     <g id="line2d_21">
      <path clip-path="url(#pa6c006afb4)" d="M 44.014498 87.409896 
L 357.165354 87.409896 
" style="fill:none;stroke:#000000;stroke-linecap:square;stroke-opacity:0.1;stroke-width:0.5;"/>
     </g>
     <g id="line2d_22">
      <g>
       <use style="fill-opacity:0.1;stroke:#000000;stroke-opacity:0.1;stroke-width:0.5;" x="44.014498" xlink:href="#m1c25f1ea56" y="87.409896"/>
      </g>
     </g>
     <g id="text_12">
      <!-- $\mathregular{500}$ -->
      <g transform="translate(27.154498 90.279271)scale(0.08 -0.08)">
       <use transform="translate(0 0.078125)" xlink:href="#Helvetica-53"/>
       <use transform="translate(55.615234 0.078125)" xlink:href="#Helvetica-48"/>
       <use transform="translate(111.230469 0.078125)" xlink:href="#Helvetica-48"/>
      </g>
     </g>
    </g>
    <g id="ytick_5">
     <g id="line2d_23">
      <path clip-path="url(#pa6c006afb4)" d="M 44.014498 64.329791 
L 357.165354 64.329791 
" style="fill:none;stroke:#000000;stroke-linecap:square;stroke-opacity:0.1;stroke-width:0.5;"/>
     </g>
     <g id="line2d_24">
      <g>
       <use style="fill-opacity:0.1;stroke:#000000;stroke-opacity:0.1;stroke-width:0.5;" x="44.014498" xlink:href="#m1c25f1ea56" y="64.329791"/>
      </g>
     </g>
     <g id="text_13">
      <!-- $\mathregular{1000}$ -->
      <g transform="translate(22.674498 67.199166)scale(0.08 -0.08)">
       <use transform="translate(0 0.078125)" xlink:href="#Helvetica-49"/>
       <use transform="translate(55.615234 0.078125)" xlink:href="#Helvetica-48"/>
       <use transform="translate(111.230469 0.078125)" xlink:href="#Helvetica-48"/>
       <use transform="translate(166.845703 0.078125)" xlink:href="#Helvetica-48"/>
      </g>
     </g>
    </g>
    <g id="text_14">
     <!-- Im λ -->
     <g transform="translate(11.741685 121.185781)rotate(-90)scale(0.11 -0.11)">
      <defs>
       <path d="M 9.8125 71.734375 
L 19.625 71.734375 
L 19.625 0 
L 9.8125 0 
z
" id="Helvetica-73"/>
       <path d="M 6.453125 52.296875 
L 15.140625 52.296875 
L 15.140625 44.875 
Q 18.265625 48.734375 20.796875 50.484375 
Q 25.140625 53.46875 30.671875 53.46875 
Q 36.921875 53.46875 40.71875 50.390625 
Q 42.875 48.640625 44.625 45.21875 
Q 47.5625 49.421875 51.515625 51.4375 
Q 55.46875 53.46875 60.40625 53.46875 
Q 70.953125 53.46875 74.75 45.84375 
Q 76.8125 41.75 76.8125 34.8125 
L 76.8125 0 
L 67.671875 0 
L 67.671875 36.328125 
Q 67.671875 41.546875 65.0625 43.5 
Q 62.453125 45.453125 58.6875 45.453125 
Q 53.515625 45.453125 49.78125 41.984375 
Q 46.046875 38.53125 46.046875 30.421875 
L 46.046875 0 
L 37.109375 0 
L 37.109375 34.125 
Q 37.109375 39.453125 35.84375 41.890625 
Q 33.84375 45.5625 28.375 45.5625 
Q 23.390625 45.5625 19.3125 41.703125 
Q 15.234375 37.84375 15.234375 27.734375 
L 15.234375 0 
L 6.453125 0 
z
" id="Helvetica-109"/>
      </defs>
      <use xlink:href="#Helvetica-73"/>
      <use x="27.783203" xlink:href="#Helvetica-109"/>
      <use x="111.083984" xlink:href="#Helvetica-32"/>
      <use x="138.867188" xlink:href="#Helvetica-955"/>
     </g>
    </g>
   </g>
   <g id="PathCollection_1">
    <defs>
     <path d="M 0 2 
C 0.530406 2 1.03916 1.789267 1.414214 1.414214 
C 1.789267 1.03916 2 0.530406 2 0 
C 2 -0.530406 1.789267 -1.03916 1.414214 -1.414214 
C 1.03916 -1.789267 0.530406 -2 0 -2 
C -0.530406 -2 -1.03916 -1.789267 -1.414214 -1.414214 
C -1.789267 -1.03916 -2 -0.530406 -2 0 
C -2 0.530406 -1.789267 1.03916 -1.414214 1.414214 
C -1.03916 1.789267 -0.530406 2 0 2 
z
" id="m6becf5002d" style="stroke:#000000;stroke-opacity:0;"/>
    </defs>
    <g clip-path="url(#pa6c006afb4)">
     <use style="fill:#009afa;stroke:#000000;stroke-opacity:0;" x="52.877258" xlink:href="#m6becf5002d" y="110.49"/>
     <use style="fill:#009afa;stroke:#000000;stroke-opacity:0;" x="54.695846" xlink:href="#m6becf5002d" y="110.49"/>
     <use style="fill:#009afa;stroke:#000000;stroke-opacity:0;" x="54.695846" xlink:href="#m6becf5002d" y="110.49"/>
     <use style="fill:#009afa;stroke:#000000;stroke-opacity:0;" x="60.106831" xlink:href="#m6becf5002d" y="110.49"/>
     <use style="fill:#009afa;stroke:#000000;stroke-opacity:0;" x="60.106831" xlink:href="#m6becf5002d" y="110.49"/>
     <use style="fill:#009afa;stroke:#000000;stroke-opacity:0;" x="68.976975" xlink:href="#m6becf5002d" y="110.49"/>
     <use style="fill:#009afa;stroke:#000000;stroke-opacity:0;" x="68.976975" xlink:href="#m6becf5002d" y="110.49"/>
     <use style="fill:#009afa;stroke:#000000;stroke-opacity:0;" x="81.087867" xlink:href="#m6becf5002d" y="110.49"/>
     <use style="fill:#009afa;stroke:#000000;stroke-opacity:0;" x="81.087867" xlink:href="#m6becf5002d" y="110.49"/>
     <use style="fill:#009afa;stroke:#000000;stroke-opacity:0;" x="96.141297" xlink:href="#m6becf5002d" y="110.49"/>
     <use style="fill:#009afa;stroke:#000000;stroke-opacity:0;" x="96.141297" xlink:href="#m6becf5002d" y="110.49"/>
     <use style="fill:#009afa;stroke:#000000;stroke-opacity:0;" x="113.766598" xlink:href="#m6becf5002d" y="110.49"/>
     <use style="fill:#009afa;stroke:#000000;stroke-opacity:0;" x="113.766598" xlink:href="#m6becf5002d" y="110.49"/>
     <use style="fill:#009afa;stroke:#000000;stroke-opacity:0;" x="133.529778" xlink:href="#m6becf5002d" y="110.49"/>
     <use style="fill:#009afa;stroke:#000000;stroke-opacity:0;" x="133.529778" xlink:href="#m6becf5002d" y="110.49"/>
     <use style="fill:#009afa;stroke:#000000;stroke-opacity:0;" x="154.944201" xlink:href="#m6becf5002d" y="110.49"/>
     <use style="fill:#009afa;stroke:#000000;stroke-opacity:0;" x="154.944201" xlink:href="#m6becf5002d" y="110.49"/>
     <use style="fill:#009afa;stroke:#000000;stroke-opacity:0;" x="177.482574" xlink:href="#m6becf5002d" y="110.49"/>
     <use style="fill:#009afa;stroke:#000000;stroke-opacity:0;" x="177.482574" xlink:href="#m6becf5002d" y="110.49"/>
     <use style="fill:#009afa;stroke:#000000;stroke-opacity:0;" x="200.589926" xlink:href="#m6becf5002d" y="110.49"/>
     <use style="fill:#009afa;stroke:#000000;stroke-opacity:0;" x="200.589926" xlink:href="#m6becf5002d" y="110.49"/>
     <use style="fill:#009afa;stroke:#000000;stroke-opacity:0;" x="223.697278" xlink:href="#m6becf5002d" y="110.49"/>
     <use style="fill:#009afa;stroke:#000000;stroke-opacity:0;" x="223.697278" xlink:href="#m6becf5002d" y="110.49"/>
     <use style="fill:#009afa;stroke:#000000;stroke-opacity:0;" x="246.235651" xlink:href="#m6becf5002d" y="110.49"/>
     <use style="fill:#009afa;stroke:#000000;stroke-opacity:0;" x="246.235651" xlink:href="#m6becf5002d" y="110.49"/>
     <use style="fill:#009afa;stroke:#000000;stroke-opacity:0;" x="267.650074" xlink:href="#m6becf5002d" y="110.49"/>
     <use style="fill:#009afa;stroke:#000000;stroke-opacity:0;" x="267.650074" xlink:href="#m6becf5002d" y="110.49"/>
     <use style="fill:#009afa;stroke:#000000;stroke-opacity:0;" x="287.413254" xlink:href="#m6becf5002d" y="110.49"/>
     <use style="fill:#009afa;stroke:#000000;stroke-opacity:0;" x="287.413254" xlink:href="#m6becf5002d" y="110.49"/>
     <use style="fill:#009afa;stroke:#000000;stroke-opacity:0;" x="305.038555" xlink:href="#m6becf5002d" y="110.49"/>
     <use style="fill:#009afa;stroke:#000000;stroke-opacity:0;" x="305.038555" xlink:href="#m6becf5002d" y="110.49"/>
     <use style="fill:#009afa;stroke:#000000;stroke-opacity:0;" x="320.091985" xlink:href="#m6becf5002d" y="110.49"/>
     <use style="fill:#009afa;stroke:#000000;stroke-opacity:0;" x="320.091985" xlink:href="#m6becf5002d" y="110.49"/>
     <use style="fill:#009afa;stroke:#000000;stroke-opacity:0;" x="332.202877" xlink:href="#m6becf5002d" y="110.49"/>
     <use style="fill:#009afa;stroke:#000000;stroke-opacity:0;" x="332.202877" xlink:href="#m6becf5002d" y="110.49"/>
     <use style="fill:#009afa;stroke:#000000;stroke-opacity:0;" x="341.073022" xlink:href="#m6becf5002d" y="110.49"/>
     <use style="fill:#009afa;stroke:#000000;stroke-opacity:0;" x="341.073022" xlink:href="#m6becf5002d" y="110.49"/>
     <use style="fill:#009afa;stroke:#000000;stroke-opacity:0;" x="346.484006" xlink:href="#m6becf5002d" y="110.49"/>
     <use style="fill:#009afa;stroke:#000000;stroke-opacity:0;" x="346.484006" xlink:href="#m6becf5002d" y="110.49"/>
     <use style="fill:#009afa;stroke:#000000;stroke-opacity:0;" x="348.302594" xlink:href="#m6becf5002d" y="110.49"/>
    </g>
   </g>
   <g id="line2d_25">
    <path clip-path="url(#pa6c006afb4)" d="M 44.014498 110.49 
L 357.165354 110.49 
" style="fill:none;stroke:#000000;stroke-linecap:square;stroke-width:0.75;"/>
   </g>
   <g id="line2d_26">
    <path clip-path="url(#pa6c006afb4)" d="M 348.302594 156.650209 
L 348.302594 64.329791 
" style="fill:none;stroke:#000000;stroke-linecap:square;stroke-width:0.75;"/>
   </g>
   <g id="text_15">
    <!-- Eigenvalues -->
    <g transform="translate(162.454145 58.329791)scale(0.14 -0.14)">
     <defs>
      <path d="M 8.546875 71.734375 
L 60.84375 71.734375 
L 60.84375 62.9375 
L 18.015625 62.9375 
L 18.015625 41.15625 
L 57.625 41.15625 
L 57.625 32.859375 
L 18.015625 32.859375 
L 18.015625 8.546875 
L 61.578125 8.546875 
L 61.578125 0 
L 8.546875 0 
z
M 35.0625 71.734375 
z
" id="Helvetica-69"/>
      <path d="M 6.453125 52.046875 
L 15.375 52.046875 
L 15.375 0 
L 6.453125 0 
z
M 6.453125 71.734375 
L 15.375 71.734375 
L 15.375 61.765625 
L 6.453125 61.765625 
z
" id="Helvetica-105"/>
      <path d="M 24.90625 53.21875 
Q 31.0625 53.21875 35.640625 50.203125 
Q 38.140625 48.484375 40.71875 45.21875 
L 40.71875 51.8125 
L 48.828125 51.8125 
L 48.828125 4.25 
Q 48.828125 -5.71875 45.90625 -11.46875 
Q 40.4375 -22.125 25.25 -22.125 
Q 16.796875 -22.125 11.03125 -18.328125 
Q 5.28125 -14.546875 4.59375 -6.5 
L 13.53125 -6.5 
Q 14.15625 -10.015625 16.0625 -11.921875 
Q 19.046875 -14.84375 25.4375 -14.84375 
Q 35.546875 -14.84375 38.671875 -7.71875 
Q 40.53125 -3.515625 40.375 7.28125 
Q 37.75 3.265625 34.03125 1.3125 
Q 30.328125 -0.640625 24.21875 -0.640625 
Q 15.71875 -0.640625 9.34375 5.390625 
Q 2.984375 11.421875 2.984375 25.34375 
Q 2.984375 38.484375 9.40625 45.84375 
Q 15.828125 53.21875 24.90625 53.21875 
z
M 40.71875 26.375 
Q 40.71875 36.078125 36.71875 40.765625 
Q 32.71875 45.453125 26.515625 45.453125 
Q 17.234375 45.453125 13.8125 36.765625 
Q 12.015625 32.125 12.015625 24.609375 
Q 12.015625 15.765625 15.59375 11.15625 
Q 19.1875 6.546875 25.25 6.546875 
Q 34.71875 6.546875 38.578125 15.09375 
Q 40.71875 19.921875 40.71875 26.375 
z
M 25.921875 53.5625 
z
" id="Helvetica-103"/>
      <path d="M 6.453125 52.296875 
L 14.796875 52.296875 
L 14.796875 44.875 
Q 18.5 49.46875 22.65625 51.46875 
Q 26.8125 53.46875 31.890625 53.46875 
Q 43.015625 53.46875 46.921875 45.703125 
Q 49.078125 41.453125 49.078125 33.546875 
L 49.078125 0 
L 40.140625 0 
L 40.140625 32.953125 
Q 40.140625 37.75 38.71875 40.671875 
Q 36.375 45.5625 30.21875 45.5625 
Q 27.09375 45.5625 25.09375 44.921875 
Q 21.484375 43.84375 18.75 40.625 
Q 16.546875 38.03125 15.890625 35.265625 
Q 15.234375 32.515625 15.234375 27.390625 
L 15.234375 0 
L 6.453125 0 
z
M 27.09375 53.5625 
z
" id="Helvetica-110"/>
      <path d="M 10.75 52.296875 
L 24.703125 9.71875 
L 39.3125 52.296875 
L 48.921875 52.296875 
L 29.203125 0 
L 19.828125 0 
L 0.53125 52.296875 
z
" id="Helvetica-118"/>
      <path d="M 13.1875 13.921875 
Q 13.1875 10.109375 15.96875 7.90625 
Q 18.75 5.71875 22.5625 5.71875 
Q 27.203125 5.71875 31.546875 7.859375 
Q 38.875 11.421875 38.875 19.53125 
L 38.875 26.609375 
Q 37.25 25.59375 34.703125 24.90625 
Q 32.171875 24.21875 29.734375 23.921875 
L 24.421875 23.25 
Q 19.625 22.609375 17.234375 21.234375 
Q 13.1875 18.953125 13.1875 13.921875 
z
M 34.46875 31.6875 
Q 37.5 32.078125 38.53125 34.234375 
Q 39.109375 35.40625 39.109375 37.59375 
Q 39.109375 42.09375 35.90625 44.109375 
Q 32.71875 46.140625 26.765625 46.140625 
Q 19.875 46.140625 17 42.4375 
Q 15.375 40.375 14.890625 36.328125 
L 6.6875 36.328125 
Q 6.9375 46 12.96875 49.78125 
Q 19 53.5625 26.953125 53.5625 
Q 36.1875 53.5625 41.9375 50.046875 
Q 47.65625 46.53125 47.65625 39.109375 
L 47.65625 8.984375 
Q 47.65625 7.625 48.21875 6.78125 
Q 48.78125 5.953125 50.59375 5.953125 
Q 51.171875 5.953125 51.90625 6.03125 
Q 52.640625 6.109375 53.46875 6.25 
L 53.46875 -0.25 
Q 51.421875 -0.828125 50.34375 -0.96875 
Q 49.265625 -1.125 47.40625 -1.125 
Q 42.875 -1.125 40.828125 2.09375 
Q 39.75 3.8125 39.3125 6.9375 
Q 36.625 3.421875 31.59375 0.828125 
Q 26.5625 -1.765625 20.515625 -1.765625 
Q 13.234375 -1.765625 8.609375 2.65625 
Q 4 7.078125 4 13.71875 
Q 4 21 8.546875 25 
Q 13.09375 29 20.453125 29.9375 
z
M 27.203125 53.5625 
z
" id="Helvetica-97"/>
      <path d="M 6.6875 71.734375 
L 15.484375 71.734375 
L 15.484375 0 
L 6.6875 0 
z
" id="Helvetica-108"/>
      <path d="M 15.234375 52.296875 
L 15.234375 17.578125 
Q 15.234375 13.578125 16.5 11.03125 
Q 18.84375 6.34375 25.25 6.34375 
Q 34.421875 6.34375 37.75 14.546875 
Q 39.546875 18.953125 39.546875 26.609375 
L 39.546875 52.296875 
L 48.34375 52.296875 
L 48.34375 0 
L 40.046875 0 
L 40.140625 7.71875 
Q 38.421875 4.734375 35.890625 2.6875 
Q 30.859375 -1.421875 23.6875 -1.421875 
Q 12.5 -1.421875 8.453125 6.0625 
Q 6.25 10.0625 6.25 16.75 
L 6.25 52.296875 
z
M 27.296875 53.5625 
z
" id="Helvetica-117"/>
      <path d="M 11.671875 16.40625 
Q 12.0625 12.015625 13.875 9.671875 
Q 17.1875 5.421875 25.390625 5.421875 
Q 30.28125 5.421875 33.984375 7.546875 
Q 37.703125 9.671875 37.703125 14.109375 
Q 37.703125 17.484375 34.71875 19.234375 
Q 32.8125 20.3125 27.203125 21.734375 
L 20.21875 23.484375 
Q 13.53125 25.140625 10.359375 27.203125 
Q 4.6875 30.765625 4.6875 37.0625 
Q 4.6875 44.484375 10.03125 49.0625 
Q 15.375 53.65625 24.421875 53.65625 
Q 36.234375 53.65625 41.453125 46.734375 
Q 44.734375 42.328125 44.625 37.25 
L 36.328125 37.25 
Q 36.078125 40.234375 34.234375 42.671875 
Q 31.203125 46.140625 23.734375 46.140625 
Q 18.75 46.140625 16.1875 44.234375 
Q 13.625 42.328125 13.625 39.203125 
Q 13.625 35.796875 17 33.734375 
Q 18.953125 32.515625 22.75 31.59375 
L 28.5625 30.171875 
Q 38.03125 27.875 41.265625 25.734375 
Q 46.390625 22.359375 46.390625 15.140625 
Q 46.390625 8.15625 41.09375 3.078125 
Q 35.796875 -2 24.953125 -2 
Q 13.28125 -2 8.421875 3.296875 
Q 3.5625 8.59375 3.21875 16.40625 
z
M 24.65625 53.5625 
z
" id="Helvetica-115"/>
     </defs>
     <use xlink:href="#Helvetica-69"/>
     <use x="66.699219" xlink:href="#Helvetica-105"/>
     <use x="88.916016" xlink:href="#Helvetica-103"/>
     <use x="144.53125" xlink:href="#Helvetica-101"/>
     <use x="200.146484" xlink:href="#Helvetica-110"/>
     <use x="255.761719" xlink:href="#Helvetica-118"/>
     <use x="305.761719" xlink:href="#Helvetica-97"/>
     <use x="361.376953" xlink:href="#Helvetica-108"/>
     <use x="383.59375" xlink:href="#Helvetica-117"/>
     <use x="439.208984" xlink:href="#Helvetica-101"/>
     <use x="494.824219" xlink:href="#Helvetica-115"/>
    </g>
   </g>
  </g>
 </g>
 <defs>
  <clipPath id="pa6c006afb4">
   <rect height="92.320418" width="313.150856" x="44.014498" y="64.329791"/>
  </clipPath>
 </defs>
</svg>
