<?xml version="1.0" encoding="utf-8" standalone="no"?>
<!DOCTYPE svg PUBLIC "-//W3C//DTD SVG 1.1//EN"
  "http://www.w3.org/Graphics/SVG/1.1/DTD/svg11.dtd">
<!-- Created with matplotlib (https://matplotlib.org/) -->
<svg height="230.4pt" version="1.1" viewBox="0 0 360 230.4" width="360pt" xmlns="http://www.w3.org/2000/svg" xmlns:xlink="http://www.w3.org/1999/xlink">
 <metadata>
  <rdf:RDF xmlns:cc="http://creativecommons.org/ns#" xmlns:dc="http://purl.org/dc/elements/1.1/" xmlns:rdf="http://www.w3.org/1999/02/22-rdf-syntax-ns#">
   <cc:Work>
    <dc:type rdf:resource="http://purl.org/dc/dcmitype/StillImage"/>
    <dc:date>2021-07-22T19:18:14.800739</dc:date>
    <dc:format>image/svg+xml</dc:format>
    <dc:creator>
     <cc:Agent>
      <dc:title>Matplotlib v3.3.4, https://matplotlib.org/</dc:title>
     </cc:Agent>
    </dc:creator>
   </cc:Work>
  </rdf:RDF>
 </metadata>
 <defs>
  <style type="text/css">*{stroke-linecap:butt;stroke-linejoin:round;}</style>
 </defs>
 <g id="figure_1">
  <g id="patch_1">
   <path d="M 0 230.4 
L 360 230.4 
L 360 0 
L 0 0 
z
" style="fill:#ffffff;"/>
  </g>
  <g id="axes_1">
   <g id="patch_2">
    <path d="M 37.338601 201.345354 
L 357.165354 201.345354 
L 357.165354 19.634646 
L 37.338601 19.634646 
z
" style="fill:#ffffff;"/>
   </g>
   <g id="matplotlib.axis_1">
    <g id="xtick_1">
     <g id="line2d_1">
      <path clip-path="url(#pa65e490fdb)" d="M 68.68308 201.345354 
L 68.68308 19.634646 
" style="fill:none;stroke:#000000;stroke-linecap:square;stroke-opacity:0.1;stroke-width:0.5;"/>
     </g>
     <g id="line2d_2">
      <defs>
       <path d="M 0 0 
L 0 -2.5 
" id="mbf2f15070c" style="stroke:#000000;stroke-opacity:0.1;stroke-width:0.5;"/>
      </defs>
      <g>
       <use style="fill-opacity:0.1;stroke:#000000;stroke-opacity:0.1;stroke-width:0.5;" x="68.68308" xlink:href="#mbf2f15070c" y="201.345354"/>
      </g>
     </g>
     <g id="text_1">
      <!-- $\mathregular{-2.5}$ -->
      <g transform="translate(60.76308 210.584104)scale(0.08 -0.08)">
       <defs>
        <path d="M 55.421875 29.59375 
L 55.421875 21.390625 
L 4.5 21.390625 
L 4.5 29.59375 
z
" id="Helvetica-8722"/>
        <path d="M 3.125 0 
Q 3.609375 9.03125 6.859375 15.71875 
Q 10.109375 22.40625 19.53125 27.875 
L 28.90625 33.296875 
Q 35.203125 36.96875 37.75 39.546875 
Q 41.75 43.609375 41.75 48.828125 
Q 41.75 54.9375 38.078125 58.515625 
Q 34.421875 62.109375 28.328125 62.109375 
Q 19.28125 62.109375 15.828125 55.28125 
Q 13.96875 51.609375 13.765625 45.125 
L 4.828125 45.125 
Q 4.984375 54.25 8.203125 60.015625 
Q 13.921875 70.171875 28.375 70.171875 
Q 40.375 70.171875 45.921875 63.671875 
Q 51.46875 57.171875 51.46875 49.21875 
Q 51.46875 40.828125 45.5625 34.859375 
Q 42.140625 31.390625 33.296875 26.46875 
L 26.609375 22.75 
Q 21.828125 20.125 19.09375 17.71875 
Q 14.203125 13.484375 12.9375 8.296875 
L 51.125 8.296875 
L 51.125 0 
L 3.125 0 
z
" id="Helvetica-50"/>
        <path d="M 8.546875 10.640625 
L 18.75 10.640625 
L 18.75 0 
L 8.546875 0 
z
" id="Helvetica-46"/>
        <path d="M 12.359375 17.828125 
Q 13.234375 10.296875 19.34375 7.421875 
Q 22.46875 5.953125 26.5625 5.953125 
Q 34.375 5.953125 38.125 10.9375 
Q 41.890625 15.921875 41.890625 21.96875 
Q 41.890625 29.296875 37.421875 33.296875 
Q 32.953125 37.3125 26.703125 37.3125 
Q 22.171875 37.3125 18.921875 35.546875 
Q 15.671875 33.796875 13.375 30.671875 
L 5.765625 31.109375 
L 11.078125 68.75 
L 47.40625 68.75 
L 47.40625 60.25 
L 17.671875 60.25 
L 14.703125 40.828125 
Q 17.140625 42.671875 19.34375 43.609375 
Q 23.25 45.21875 28.375 45.21875 
Q 37.984375 45.21875 44.671875 39.015625 
Q 51.375 32.8125 51.375 23.296875 
Q 51.375 13.375 45.234375 5.796875 
Q 39.109375 -1.765625 25.6875 -1.765625 
Q 17.140625 -1.765625 10.5625 3.046875 
Q 4 7.859375 3.21875 17.828125 
z
" id="Helvetica-53"/>
       </defs>
       <use transform="translate(0 0.828125)" xlink:href="#Helvetica-8722"/>
       <use transform="translate(58.398438 0.828125)" xlink:href="#Helvetica-50"/>
       <use transform="translate(114.013672 0.828125)" xlink:href="#Helvetica-46"/>
       <use transform="translate(141.796875 0.828125)" xlink:href="#Helvetica-53"/>
      </g>
     </g>
    </g>
    <g id="xtick_2">
     <g id="line2d_3">
      <path clip-path="url(#pa65e490fdb)" d="M 111.539379 201.345354 
L 111.539379 19.634646 
" style="fill:none;stroke:#000000;stroke-linecap:square;stroke-opacity:0.1;stroke-width:0.5;"/>
     </g>
     <g id="line2d_4">
      <g>
       <use style="fill-opacity:0.1;stroke:#000000;stroke-opacity:0.1;stroke-width:0.5;" x="111.539379" xlink:href="#mbf2f15070c" y="201.345354"/>
      </g>
     </g>
     <g id="text_2">
      <!-- $\mathregular{-2.0}$ -->
      <g transform="translate(103.619379 210.584104)scale(0.08 -0.08)">
       <defs>
        <path d="M 27.046875 69.921875 
Q 40.625 69.921875 46.6875 58.734375 
Q 51.375 50.09375 51.375 35.0625 
Q 51.375 20.796875 47.125 11.46875 
Q 40.96875 -1.90625 27 -1.90625 
Q 14.40625 -1.90625 8.25 9.03125 
Q 3.125 18.171875 3.125 33.546875 
Q 3.125 45.453125 6.203125 54 
Q 11.96875 69.921875 27.046875 69.921875 
z
M 26.953125 6.109375 
Q 33.796875 6.109375 37.84375 12.15625 
Q 41.890625 18.21875 41.890625 34.71875 
Q 41.890625 46.625 38.953125 54.3125 
Q 36.03125 62.015625 27.59375 62.015625 
Q 19.828125 62.015625 16.234375 54.703125 
Q 12.640625 47.40625 12.640625 33.203125 
Q 12.640625 22.515625 14.9375 16.015625 
Q 18.453125 6.109375 26.953125 6.109375 
z
" id="Helvetica-48"/>
       </defs>
       <use transform="translate(0 0.828125)" xlink:href="#Helvetica-8722"/>
       <use transform="translate(58.398438 0.828125)" xlink:href="#Helvetica-50"/>
       <use transform="translate(114.013672 0.828125)" xlink:href="#Helvetica-46"/>
       <use transform="translate(141.796875 0.828125)" xlink:href="#Helvetica-48"/>
      </g>
     </g>
    </g>
    <g id="xtick_3">
     <g id="line2d_5">
      <path clip-path="url(#pa65e490fdb)" d="M 154.395678 201.345354 
L 154.395678 19.634646 
" style="fill:none;stroke:#000000;stroke-linecap:square;stroke-opacity:0.1;stroke-width:0.5;"/>
     </g>
     <g id="line2d_6">
      <g>
       <use style="fill-opacity:0.1;stroke:#000000;stroke-opacity:0.1;stroke-width:0.5;" x="154.395678" xlink:href="#mbf2f15070c" y="201.345354"/>
      </g>
     </g>
     <g id="text_3">
      <!-- $\mathregular{-1.5}$ -->
      <g transform="translate(146.475678 210.584104)scale(0.08 -0.08)">
       <defs>
        <path d="M 9.578125 49.515625 
L 9.578125 56.25 
Q 19.09375 57.171875 22.84375 59.34375 
Q 26.609375 61.53125 28.46875 69.625 
L 35.40625 69.625 
L 35.40625 0 
L 26.03125 0 
L 26.03125 49.515625 
z
" id="Helvetica-49"/>
       </defs>
       <use transform="translate(0 0.375)" xlink:href="#Helvetica-8722"/>
       <use transform="translate(58.398438 0.375)" xlink:href="#Helvetica-49"/>
       <use transform="translate(114.013672 0.375)" xlink:href="#Helvetica-46"/>
       <use transform="translate(141.796875 0.375)" xlink:href="#Helvetica-53"/>
      </g>
     </g>
    </g>
    <g id="xtick_4">
     <g id="line2d_7">
      <path clip-path="url(#pa65e490fdb)" d="M 197.251978 201.345354 
L 197.251978 19.634646 
" style="fill:none;stroke:#000000;stroke-linecap:square;stroke-opacity:0.1;stroke-width:0.5;"/>
     </g>
     <g id="line2d_8">
      <g>
       <use style="fill-opacity:0.1;stroke:#000000;stroke-opacity:0.1;stroke-width:0.5;" x="197.251978" xlink:href="#mbf2f15070c" y="201.345354"/>
      </g>
     </g>
     <g id="text_4">
      <!-- $\mathregular{-1.0}$ -->
      <g transform="translate(189.331978 210.584104)scale(0.08 -0.08)">
       <use transform="translate(0 0.078125)" xlink:href="#Helvetica-8722"/>
       <use transform="translate(58.398438 0.078125)" xlink:href="#Helvetica-49"/>
       <use transform="translate(114.013672 0.078125)" xlink:href="#Helvetica-46"/>
       <use transform="translate(141.796875 0.078125)" xlink:href="#Helvetica-48"/>
      </g>
     </g>
    </g>
    <g id="xtick_5">
     <g id="line2d_9">
      <path clip-path="url(#pa65e490fdb)" d="M 240.108277 201.345354 
L 240.108277 19.634646 
" style="fill:none;stroke:#000000;stroke-linecap:square;stroke-opacity:0.1;stroke-width:0.5;"/>
     </g>
     <g id="line2d_10">
      <g>
       <use style="fill-opacity:0.1;stroke:#000000;stroke-opacity:0.1;stroke-width:0.5;" x="240.108277" xlink:href="#mbf2f15070c" y="201.345354"/>
      </g>
     </g>
     <g id="text_5">
      <!-- $\mathregular{-0.5}$ -->
      <g transform="translate(232.188277 210.584104)scale(0.08 -0.08)">
       <use transform="translate(0 0.078125)" xlink:href="#Helvetica-8722"/>
       <use transform="translate(58.398438 0.078125)" xlink:href="#Helvetica-48"/>
       <use transform="translate(114.013672 0.078125)" xlink:href="#Helvetica-46"/>
       <use transform="translate(141.796875 0.078125)" xlink:href="#Helvetica-53"/>
      </g>
     </g>
    </g>
    <g id="xtick_6">
     <g id="line2d_11">
      <path clip-path="url(#pa65e490fdb)" d="M 282.964576 201.345354 
L 282.964576 19.634646 
" style="fill:none;stroke:#000000;stroke-linecap:square;stroke-opacity:0.1;stroke-width:0.5;"/>
     </g>
     <g id="line2d_12">
      <g>
       <use style="fill-opacity:0.1;stroke:#000000;stroke-opacity:0.1;stroke-width:0.5;" x="282.964576" xlink:href="#mbf2f15070c" y="201.345354"/>
      </g>
     </g>
     <g id="text_6">
      <!-- $\mathregular{0.0}$ -->
      <g transform="translate(277.364576 210.584104)scale(0.08 -0.08)">
       <use transform="translate(0 0.078125)" xlink:href="#Helvetica-48"/>
       <use transform="translate(55.615234 0.078125)" xlink:href="#Helvetica-46"/>
       <use transform="translate(83.398438 0.078125)" xlink:href="#Helvetica-48"/>
      </g>
     </g>
    </g>
    <g id="xtick_7">
     <g id="line2d_13">
      <path clip-path="url(#pa65e490fdb)" d="M 325.820875 201.345354 
L 325.820875 19.634646 
" style="fill:none;stroke:#000000;stroke-linecap:square;stroke-opacity:0.1;stroke-width:0.5;"/>
     </g>
     <g id="line2d_14">
      <g>
       <use style="fill-opacity:0.1;stroke:#000000;stroke-opacity:0.1;stroke-width:0.5;" x="325.820875" xlink:href="#mbf2f15070c" y="201.345354"/>
      </g>
     </g>
     <g id="text_7">
      <!-- $\mathregular{0.5}$ -->
      <g transform="translate(320.220875 210.584104)scale(0.08 -0.08)">
       <use transform="translate(0 0.078125)" xlink:href="#Helvetica-48"/>
       <use transform="translate(55.615234 0.078125)" xlink:href="#Helvetica-46"/>
       <use transform="translate(83.398438 0.078125)" xlink:href="#Helvetica-53"/>
      </g>
     </g>
    </g>
    <g id="text_8">
     <!-- Re ζ -->
     <g transform="translate(186.251978 224.142386)scale(0.11 -0.11)">
      <defs>
       <path d="M 40.96875 38.875 
Q 47.796875 38.875 51.78125 41.609375 
Q 55.765625 44.34375 55.765625 51.46875 
Q 55.765625 59.125 50.203125 61.921875 
Q 47.21875 63.375 42.234375 63.375 
L 18.5 63.375 
L 18.5 38.875 
z
M 8.796875 71.734375 
L 42 71.734375 
Q 50.203125 71.734375 55.515625 69.34375 
Q 65.625 64.75 65.625 52.390625 
Q 65.625 45.953125 62.953125 41.84375 
Q 60.296875 37.75 55.515625 35.25 
Q 59.71875 33.546875 61.84375 30.765625 
Q 63.96875 27.984375 64.203125 21.734375 
L 64.546875 12.109375 
Q 64.703125 8.015625 65.234375 6 
Q 66.109375 2.59375 68.359375 1.609375 
L 68.359375 0 
L 56.453125 0 
Q 55.953125 0.921875 55.65625 2.390625 
Q 55.375 3.859375 55.171875 8.0625 
L 54.59375 20.015625 
Q 54.25 27.046875 49.359375 29.4375 
Q 46.578125 30.765625 40.625 30.765625 
L 18.5 30.765625 
L 18.5 0 
L 8.796875 0 
z
" id="Helvetica-82"/>
       <path d="M 28.21875 53.46875 
Q 33.796875 53.46875 39.015625 50.859375 
Q 44.234375 48.25 46.96875 44.09375 
Q 49.609375 40.140625 50.484375 34.859375 
Q 51.265625 31.25 51.265625 23.34375 
L 12.9375 23.34375 
Q 13.1875 15.375 16.703125 10.5625 
Q 20.21875 5.765625 27.59375 5.765625 
Q 34.46875 5.765625 38.578125 10.296875 
Q 40.921875 12.9375 41.890625 16.40625 
L 50.53125 16.40625 
Q 50.203125 13.53125 48.265625 9.984375 
Q 46.34375 6.453125 43.953125 4.203125 
Q 39.9375 0.296875 34.03125 -1.078125 
Q 30.859375 -1.859375 26.859375 -1.859375 
Q 17.09375 -1.859375 10.296875 5.25 
Q 3.515625 12.359375 3.515625 25.140625 
Q 3.515625 37.75 10.34375 45.609375 
Q 17.1875 53.46875 28.21875 53.46875 
z
M 42.234375 30.328125 
Q 41.703125 36.03125 39.75 39.453125 
Q 36.140625 45.796875 27.6875 45.796875 
Q 21.625 45.796875 17.515625 41.421875 
Q 13.421875 37.0625 13.1875 30.328125 
z
M 27.390625 53.5625 
z
" id="Helvetica-101"/>
       <path id="Helvetica-32"/>
       <path d="M 43.3125 64.59375 
Q 31.78125 58.296875 22.609375 47.125 
Q 12.890625 35.984375 12.59375 22.40625 
Q 12.59375 19.578125 12.984375 17 
Q 13.484375 14.3125 14.5 12.109375 
Q 15.71875 10.015625 17.671875 8.796875 
Q 19.78125 7.515625 23.1875 7.515625 
Q 25.296875 7.515625 27.296875 7.71875 
Q 29.390625 7.8125 31.984375 7.8125 
Q 37.890625 7.8125 41.015625 5.8125 
Q 44.09375 3.515625 44.09375 -2.6875 
Q 44.09375 -6.984375 42.78125 -11.375 
Q 41.5 -15.921875 39.796875 -19.578125 
L 32.421875 -19.578125 
Q 33.015625 -17.921875 33.6875 -16.109375 
Q 34.28125 -14.3125 34.90625 -12.3125 
Q 36.1875 -8.296875 36.28125 -4.203125 
Q 36.28125 -1.90625 35.203125 -0.875 
Q 34.078125 0 31.109375 0 
L 24.703125 0 
Q 14.59375 0 9.1875 4.78125 
Q 3.609375 9.71875 3.609375 21.09375 
Q 3.8125 34.078125 11.71875 45.21875 
Q 19.390625 56.296875 30.171875 63.1875 
L 30.171875 63.375 
L 8.109375 63.375 
L 8.109375 70.609375 
L 43.3125 70.609375 
z
" id="Helvetica-950"/>
      </defs>
      <use xlink:href="#Helvetica-82"/>
      <use x="72.216797" xlink:href="#Helvetica-101"/>
      <use x="127.832031" xlink:href="#Helvetica-32"/>
      <use x="155.615234" xlink:href="#Helvetica-950"/>
     </g>
    </g>
   </g>
   <g id="matplotlib.axis_2">
    <g id="ytick_1">
     <g id="line2d_15">
      <path clip-path="url(#pa65e490fdb)" d="M 37.338601 196.202598 
L 357.165354 196.202598 
" style="fill:none;stroke:#000000;stroke-linecap:square;stroke-opacity:0.1;stroke-width:0.5;"/>
     </g>
     <g id="line2d_16">
      <defs>
       <path d="M 0 0 
L 2.5 0 
" id="m50f7949a99" style="stroke:#000000;stroke-opacity:0.1;stroke-width:0.5;"/>
      </defs>
      <g>
       <use style="fill-opacity:0.1;stroke:#000000;stroke-opacity:0.1;stroke-width:0.5;" x="37.338601" xlink:href="#m50f7949a99" y="196.202598"/>
      </g>
     </g>
     <g id="text_9">
      <!-- $\mathregular{-1.0}$ -->
      <g transform="translate(17.998601 199.071973)scale(0.08 -0.08)">
       <use transform="translate(0 0.078125)" xlink:href="#Helvetica-8722"/>
       <use transform="translate(58.398438 0.078125)" xlink:href="#Helvetica-49"/>
       <use transform="translate(114.013672 0.078125)" xlink:href="#Helvetica-46"/>
       <use transform="translate(141.796875 0.078125)" xlink:href="#Helvetica-48"/>
      </g>
     </g>
    </g>
    <g id="ytick_2">
     <g id="line2d_17">
      <path clip-path="url(#pa65e490fdb)" d="M 37.338601 153.346299 
L 357.165354 153.346299 
" style="fill:none;stroke:#000000;stroke-linecap:square;stroke-opacity:0.1;stroke-width:0.5;"/>
     </g>
     <g id="line2d_18">
      <g>
       <use style="fill-opacity:0.1;stroke:#000000;stroke-opacity:0.1;stroke-width:0.5;" x="37.338601" xlink:href="#m50f7949a99" y="153.346299"/>
      </g>
     </g>
     <g id="text_10">
      <!-- $\mathregular{-0.5}$ -->
      <g transform="translate(17.998601 156.215674)scale(0.08 -0.08)">
       <use transform="translate(0 0.078125)" xlink:href="#Helvetica-8722"/>
       <use transform="translate(58.398438 0.078125)" xlink:href="#Helvetica-48"/>
       <use transform="translate(114.013672 0.078125)" xlink:href="#Helvetica-46"/>
       <use transform="translate(141.796875 0.078125)" xlink:href="#Helvetica-53"/>
      </g>
     </g>
    </g>
    <g id="ytick_3">
     <g id="line2d_19">
      <path clip-path="url(#pa65e490fdb)" d="M 37.338601 110.49 
L 357.165354 110.49 
" style="fill:none;stroke:#000000;stroke-linecap:square;stroke-opacity:0.1;stroke-width:0.5;"/>
     </g>
     <g id="line2d_20">
      <g>
       <use style="fill-opacity:0.1;stroke:#000000;stroke-opacity:0.1;stroke-width:0.5;" x="37.338601" xlink:href="#m50f7949a99" y="110.49"/>
      </g>
     </g>
     <g id="text_11">
      <!-- $\mathregular{0.0}$ -->
      <g transform="translate(22.638601 113.359375)scale(0.08 -0.08)">
       <use transform="translate(0 0.078125)" xlink:href="#Helvetica-48"/>
       <use transform="translate(55.615234 0.078125)" xlink:href="#Helvetica-46"/>
       <use transform="translate(83.398438 0.078125)" xlink:href="#Helvetica-48"/>
      </g>
     </g>
    </g>
    <g id="ytick_4">
     <g id="line2d_21">
      <path clip-path="url(#pa65e490fdb)" d="M 37.338601 67.633701 
L 357.165354 67.633701 
" style="fill:none;stroke:#000000;stroke-linecap:square;stroke-opacity:0.1;stroke-width:0.5;"/>
     </g>
     <g id="line2d_22">
      <g>
       <use style="fill-opacity:0.1;stroke:#000000;stroke-opacity:0.1;stroke-width:0.5;" x="37.338601" xlink:href="#m50f7949a99" y="67.633701"/>
      </g>
     </g>
     <g id="text_12">
      <!-- $\mathregular{0.5}$ -->
      <g transform="translate(22.638601 70.503076)scale(0.08 -0.08)">
       <use transform="translate(0 0.078125)" xlink:href="#Helvetica-48"/>
       <use transform="translate(55.615234 0.078125)" xlink:href="#Helvetica-46"/>
       <use transform="translate(83.398438 0.078125)" xlink:href="#Helvetica-53"/>
      </g>
     </g>
    </g>
    <g id="ytick_5">
     <g id="line2d_23">
      <path clip-path="url(#pa65e490fdb)" d="M 37.338601 24.777402 
L 357.165354 24.777402 
" style="fill:none;stroke:#000000;stroke-linecap:square;stroke-opacity:0.1;stroke-width:0.5;"/>
     </g>
     <g id="line2d_24">
      <g>
       <use style="fill-opacity:0.1;stroke:#000000;stroke-opacity:0.1;stroke-width:0.5;" x="37.338601" xlink:href="#m50f7949a99" y="24.777402"/>
      </g>
     </g>
     <g id="text_13">
      <!-- $\mathregular{1.0}$ -->
      <g transform="translate(22.638601 27.646777)scale(0.08 -0.08)">
       <use transform="translate(0 0.078125)" xlink:href="#Helvetica-49"/>
       <use transform="translate(55.615234 0.078125)" xlink:href="#Helvetica-46"/>
       <use transform="translate(83.398438 0.078125)" xlink:href="#Helvetica-48"/>
      </g>
     </g>
    </g>
    <g id="text_14">
     <!-- Im ζ -->
     <g transform="translate(11.705788 120.56875)rotate(-90)scale(0.11 -0.11)">
      <defs>
       <path d="M 9.8125 71.734375 
L 19.625 71.734375 
L 19.625 0 
L 9.8125 0 
z
" id="Helvetica-73"/>
       <path d="M 6.453125 52.296875 
L 15.140625 52.296875 
L 15.140625 44.875 
Q 18.265625 48.734375 20.796875 50.484375 
Q 25.140625 53.46875 30.671875 53.46875 
Q 36.921875 53.46875 40.71875 50.390625 
Q 42.875 48.640625 44.625 45.21875 
Q 47.5625 49.421875 51.515625 51.4375 
Q 55.46875 53.46875 60.40625 53.46875 
Q 70.953125 53.46875 74.75 45.84375 
Q 76.8125 41.75 76.8125 34.8125 
L 76.8125 0 
L 67.671875 0 
L 67.671875 36.328125 
Q 67.671875 41.546875 65.0625 43.5 
Q 62.453125 45.453125 58.6875 45.453125 
Q 53.515625 45.453125 49.78125 41.984375 
Q 46.046875 38.53125 46.046875 30.421875 
L 46.046875 0 
L 37.109375 0 
L 37.109375 34.125 
Q 37.109375 39.453125 35.84375 41.890625 
Q 33.84375 45.5625 28.375 45.5625 
Q 23.390625 45.5625 19.3125 41.703125 
Q 15.234375 37.84375 15.234375 27.734375 
L 15.234375 0 
L 6.453125 0 
z
" id="Helvetica-109"/>
      </defs>
      <use xlink:href="#Helvetica-73"/>
      <use x="27.783203" xlink:href="#Helvetica-109"/>
      <use x="111.083984" xlink:href="#Helvetica-32"/>
      <use x="138.867188" xlink:href="#Helvetica-950"/>
     </g>
    </g>
   </g>
   <g id="patch_3">
    <path clip-path="url(#pa65e490fdb)" d="M 282.964576 110.49 
L 282.951522 108.994109 
L 282.912362 107.498673 
L 282.84711 106.004149 
L 282.755784 104.510991 
L 282.638414 103.019655 
L 282.495033 101.530594 
L 282.325687 100.044262 
L 282.130427 98.561112 
L 281.909312 97.081596 
L 281.662409 95.606163 
L 281.389794 94.135265 
L 281.09155 92.669349 
L 280.767768 91.208861 
L 280.418545 89.754246 
L 280.04399 88.305947 
L 279.644215 86.864406 
L 279.219343 85.430061 
L 278.769503 84.00335 
L 278.294832 82.584708 
L 277.795474 81.174565 
L 277.271582 79.773352 
L 276.723315 78.381495 
L 276.15084 76.99942 
L 275.554332 75.627545 
L 274.933973 74.266291 
L 274.289951 72.91607 
L 273.622462 71.577295 
L 272.93171 70.250372 
L 272.217905 68.935708 
L 271.481265 67.633701 
L 270.722014 66.344748 
L 269.940383 65.069243 
L 269.136611 63.807573 
L 268.310942 62.560123 
L 267.463628 61.327273 
L 266.594926 60.109399 
L 265.705102 58.906871 
L 264.794427 57.720055 
L 263.863177 56.549314 
L 262.911637 55.395004 
L 261.940097 54.257476 
L 260.948852 53.137077 
L 259.938204 52.034148 
L 258.908461 50.949026 
L 257.859937 49.88204 
L 256.792951 48.833517 
L 255.707829 47.803774 
L 254.6049 46.793126 
L 253.484502 45.801881 
L 252.346974 44.83034 
L 251.192663 43.8788 
L 250.021922 42.947551 
L 248.835107 42.036875 
L 247.632579 41.147051 
L 246.414704 40.27835 
L 245.181854 39.431035 
L 243.934404 38.605366 
L 242.672735 37.801594 
L 241.397229 37.019963 
L 240.108277 36.260712 
L 238.80627 35.524072 
L 237.491605 34.810268 
L 236.164683 34.119516 
L 234.825908 33.452027 
L 233.475687 32.808005 
L 232.114432 32.187645 
L 230.742558 31.591137 
L 229.360482 31.018663 
L 227.968626 30.470396 
L 226.567413 29.946504 
L 225.15727 29.447146 
L 223.738627 28.972475 
L 222.311916 28.522634 
L 220.877572 28.097762 
L 219.43603 27.697988 
L 217.987732 27.323432 
L 216.533117 26.97421 
L 215.072629 26.650427 
L 213.606712 26.352183 
L 212.135814 26.079569 
L 210.660382 25.832666 
L 209.180866 25.611551 
L 207.697716 25.41629 
L 206.211384 25.246944 
L 204.722323 25.103564 
L 203.230986 24.986193 
L 201.737828 24.894868 
L 200.243304 24.829615 
L 198.747869 24.790456 
L 197.251978 24.777402 
L 195.756086 24.790456 
L 194.260651 24.829615 
L 192.766127 24.894868 
L 191.272969 24.986193 
L 189.781632 25.103564 
L 188.292571 25.246944 
L 186.806239 25.41629 
L 185.323089 25.611551 
L 183.843573 25.832666 
L 182.368141 26.079569 
L 180.897243 26.352183 
L 179.431326 26.650427 
L 177.970838 26.97421 
L 176.516223 27.323432 
L 175.067925 27.697988 
L 173.626384 28.097762 
L 172.192039 28.522634 
L 170.765328 28.972475 
L 169.346685 29.447146 
L 167.936542 29.946504 
L 166.535329 30.470396 
L 165.143473 31.018663 
L 163.761397 31.591137 
L 162.389523 32.187645 
L 161.028268 32.808005 
L 159.678047 33.452027 
L 158.339272 34.119516 
L 157.01235 34.810268 
L 155.697685 35.524072 
L 154.395678 36.260712 
L 153.106726 37.019963 
L 151.83122 37.801594 
L 150.569551 38.605366 
L 149.322101 39.431035 
L 148.089251 40.27835 
L 146.871376 41.147051 
L 145.668848 42.036875 
L 144.482033 42.947551 
L 143.311292 43.8788 
L 142.156981 44.83034 
L 141.019453 45.801881 
L 139.899055 46.793126 
L 138.796126 47.803774 
L 137.711004 48.833517 
L 136.644018 49.88204 
L 135.595494 50.949026 
L 134.565751 52.034148 
L 133.555104 53.137077 
L 132.563858 54.257476 
L 131.592318 55.395004 
L 130.640778 56.549314 
L 129.709528 57.720055 
L 128.798853 58.906871 
L 127.909029 60.109399 
L 127.040327 61.327273 
L 126.193013 62.560123 
L 125.367344 63.807573 
L 124.563572 65.069243 
L 123.781941 66.344748 
L 123.02269 67.633701 
L 122.28605 68.935708 
L 121.572245 70.250372 
L 120.881493 71.577295 
L 120.214004 72.91607 
L 119.569982 74.266291 
L 118.949623 75.627545 
L 118.353115 76.99942 
L 117.78064 78.381495 
L 117.232373 79.773352 
L 116.708481 81.174565 
L 116.209124 82.584708 
L 115.734452 84.00335 
L 115.284612 85.430061 
L 114.85974 86.864406 
L 114.459965 88.305947 
L 114.08541 89.754246 
L 113.736187 91.208861 
L 113.412405 92.669349 
L 113.114161 94.135265 
L 112.841546 95.606163 
L 112.594643 97.081596 
L 112.373528 98.561112 
L 112.178268 100.044262 
L 112.008922 101.530594 
L 111.865541 103.019655 
L 111.748171 104.510991 
L 111.656845 106.004149 
L 111.591593 107.498673 
L 111.552434 108.994109 
L 111.539379 110.49 
L 111.552434 111.985891 
L 111.591593 113.481327 
L 111.656845 114.975851 
L 111.748171 116.469009 
L 111.865541 117.960345 
L 112.008922 119.449406 
L 112.178268 120.935738 
L 112.373528 122.418888 
L 112.594643 123.898404 
L 112.841546 125.373837 
L 113.114161 126.844735 
L 113.412405 128.310651 
L 113.736187 129.771139 
L 114.08541 131.225754 
L 114.459965 132.674053 
L 114.85974 134.115594 
L 115.284612 135.549939 
L 115.734452 136.97665 
L 116.209124 138.395292 
L 116.708481 139.805435 
L 117.232373 141.206648 
L 117.78064 142.598505 
L 118.353115 143.98058 
L 118.949623 145.352455 
L 119.569982 146.713709 
L 120.214004 148.06393 
L 120.881493 149.402705 
L 121.572245 150.729628 
L 122.28605 152.044292 
L 123.02269 153.346299 
L 123.781941 154.635252 
L 124.563572 155.910757 
L 125.367344 157.172427 
L 126.193013 158.419877 
L 127.040327 159.652727 
L 127.909029 160.870601 
L 128.798853 162.073129 
L 129.709528 163.259945 
L 130.640778 164.430686 
L 131.592318 165.584996 
L 132.563858 166.722524 
L 133.555104 167.842923 
L 134.565751 168.945852 
L 135.595494 170.030974 
L 136.644018 171.09796 
L 137.711004 172.146483 
L 138.796126 173.176226 
L 139.899055 174.186874 
L 141.019453 175.178119 
L 142.156981 176.14966 
L 143.311292 177.1012 
L 144.482033 178.032449 
L 145.668848 178.943125 
L 146.871376 179.832949 
L 148.089251 180.70165 
L 149.322101 181.548965 
L 150.569551 182.374634 
L 151.83122 183.178406 
L 153.106726 183.960037 
L 154.395678 184.719288 
L 155.697685 185.455928 
L 157.01235 186.169732 
L 158.339272 186.860484 
L 159.678047 187.527973 
L 161.028268 188.171995 
L 162.389523 188.792355 
L 163.761397 189.388863 
L 165.143473 189.961337 
L 166.535329 190.509604 
L 167.936542 191.033496 
L 169.346685 191.532854 
L 170.765328 192.007525 
L 172.192039 192.457366 
L 173.626384 192.882238 
L 175.067925 193.282012 
L 176.516223 193.656568 
L 177.970838 194.00579 
L 179.431326 194.329573 
L 180.897243 194.627817 
L 182.368141 194.900431 
L 183.843573 195.147334 
L 185.323089 195.368449 
L 186.806239 195.56371 
L 188.292571 195.733056 
L 189.781632 195.876436 
L 191.272969 195.993807 
L 192.766127 196.085132 
L 194.260651 196.150385 
L 195.756086 196.189544 
L 197.251978 196.202598 
L 198.747869 196.189544 
L 200.243304 196.150385 
L 201.737828 196.085132 
L 203.230986 195.993807 
L 204.722323 195.876436 
L 206.211384 195.733056 
L 207.697716 195.56371 
L 209.180866 195.368449 
L 210.660382 195.147334 
L 212.135814 194.900431 
L 213.606712 194.627817 
L 215.072629 194.329573 
L 216.533117 194.00579 
L 217.987732 193.656568 
L 219.43603 193.282012 
L 220.877572 192.882238 
L 222.311916 192.457366 
L 223.738627 192.007525 
L 225.15727 191.532854 
L 226.567413 191.033496 
L 227.968626 190.509604 
L 229.360482 189.961337 
L 230.742558 189.388863 
L 232.114432 188.792355 
L 233.475687 188.171995 
L 234.825908 187.527973 
L 236.164683 186.860484 
L 237.491605 186.169732 
L 238.80627 185.455928 
L 240.108277 184.719288 
L 241.397229 183.960037 
L 242.672735 183.178406 
L 243.934404 182.374634 
L 245.181854 181.548965 
L 246.414704 180.70165 
L 247.632579 179.832949 
L 248.835107 178.943125 
L 250.021922 178.032449 
L 251.192663 177.1012 
L 252.346974 176.14966 
L 253.484502 175.178119 
L 254.6049 174.186874 
L 255.707829 173.176226 
L 256.792951 172.146483 
L 257.859937 171.09796 
L 258.908461 170.030974 
L 259.938204 168.945852 
L 260.948852 167.842923 
L 261.940097 166.722524 
L 262.911637 165.584996 
L 263.863177 164.430686 
L 264.794427 163.259945 
L 265.705102 162.073129 
L 266.594926 160.870601 
L 267.463628 159.652727 
L 268.310942 158.419877 
L 269.136611 157.172427 
L 269.940383 155.910757 
L 270.722014 154.635252 
L 271.481265 153.346299 
L 272.217905 152.044292 
L 272.93171 150.729628 
L 273.622462 149.402705 
L 274.289951 148.06393 
L 274.933973 146.713709 
L 275.554332 145.352455 
L 276.15084 143.98058 
L 276.723315 142.598505 
L 277.271582 141.206648 
L 277.795474 139.805435 
L 278.294832 138.395292 
L 278.769503 136.97665 
L 279.219343 135.549939 
L 279.644215 134.115594 
L 280.04399 132.674053 
L 280.418545 131.225754 
L 280.767768 129.771139 
L 281.09155 128.310651 
L 281.389794 126.844735 
L 281.662409 125.373837 
L 281.909312 123.898404 
L 282.130427 122.418888 
L 282.325687 120.935738 
L 282.495033 119.449406 
L 282.638414 117.960345 
L 282.755784 116.469009 
L 282.84711 114.975851 
L 282.912362 113.481327 
L 282.951522 111.985891 
L 282.964576 110.49 
" style="fill:#ccccff;stroke:#000000;stroke-linejoin:miter;"/>
   </g>
   <g id="line2d_25">
    <path clip-path="url(#pa65e490fdb)" d="M 37.338601 110.49 
L 357.165354 110.49 
" style="fill:none;stroke:#000000;stroke-linecap:square;stroke-width:0.75;"/>
   </g>
   <g id="line2d_26">
    <path clip-path="url(#pa65e490fdb)" d="M 282.964576 201.345354 
L 282.964576 19.634646 
" style="fill:none;stroke:#000000;stroke-linecap:square;stroke-width:0.75;"/>
   </g>
   <g id="PathCollection_1">
    <defs>
     <path d="M 0 2 
C 0.530406 2 1.03916 1.789267 1.414214 1.414214 
C 1.789267 1.03916 2 0.530406 2 0 
C 2 -0.530406 1.789267 -1.03916 1.414214 -1.414214 
C 1.03916 -1.789267 0.530406 -2 0 -2 
C -0.530406 -2 -1.03916 -1.789267 -1.414214 -1.414214 
C -1.789267 -1.03916 -2 -0.530406 -2 0 
C -2 0.530406 -1.789267 1.03916 -1.414214 1.414214 
C -1.03916 1.789267 -0.530406 2 0 2 
z
" id="mfebb58b5fb" style="stroke:#000000;stroke-opacity:0;"/>
    </defs>
    <g clip-path="url(#pa65e490fdb)">
     <use style="fill:#e36f47;stroke:#000000;stroke-opacity:0;" x="111.539379" xlink:href="#mfebb58b5fb" y="110.49"/>
     <use style="fill:#e36f47;stroke:#000000;stroke-opacity:0;" x="112.594643" xlink:href="#mfebb58b5fb" y="110.49"/>
     <use style="fill:#e36f47;stroke:#000000;stroke-opacity:0;" x="112.594643" xlink:href="#mfebb58b5fb" y="110.49"/>
     <use style="fill:#e36f47;stroke:#000000;stroke-opacity:0;" x="115.734452" xlink:href="#mfebb58b5fb" y="110.49"/>
     <use style="fill:#e36f47;stroke:#000000;stroke-opacity:0;" x="115.734452" xlink:href="#mfebb58b5fb" y="110.49"/>
     <use style="fill:#e36f47;stroke:#000000;stroke-opacity:0;" x="120.881493" xlink:href="#mfebb58b5fb" y="110.49"/>
     <use style="fill:#e36f47;stroke:#000000;stroke-opacity:0;" x="120.881493" xlink:href="#mfebb58b5fb" y="110.49"/>
     <use style="fill:#e36f47;stroke:#000000;stroke-opacity:0;" x="127.909029" xlink:href="#mfebb58b5fb" y="110.49"/>
     <use style="fill:#e36f47;stroke:#000000;stroke-opacity:0;" x="127.909029" xlink:href="#mfebb58b5fb" y="110.49"/>
     <use style="fill:#e36f47;stroke:#000000;stroke-opacity:0;" x="136.644018" xlink:href="#mfebb58b5fb" y="110.49"/>
     <use style="fill:#e36f47;stroke:#000000;stroke-opacity:0;" x="136.644018" xlink:href="#mfebb58b5fb" y="110.49"/>
     <use style="fill:#e36f47;stroke:#000000;stroke-opacity:0;" x="146.871376" xlink:href="#mfebb58b5fb" y="110.49"/>
     <use style="fill:#e36f47;stroke:#000000;stroke-opacity:0;" x="146.871376" xlink:href="#mfebb58b5fb" y="110.49"/>
     <use style="fill:#e36f47;stroke:#000000;stroke-opacity:0;" x="158.339272" xlink:href="#mfebb58b5fb" y="110.49"/>
     <use style="fill:#e36f47;stroke:#000000;stroke-opacity:0;" x="158.339272" xlink:href="#mfebb58b5fb" y="110.49"/>
     <use style="fill:#e36f47;stroke:#000000;stroke-opacity:0;" x="170.765328" xlink:href="#mfebb58b5fb" y="110.49"/>
     <use style="fill:#e36f47;stroke:#000000;stroke-opacity:0;" x="170.765328" xlink:href="#mfebb58b5fb" y="110.49"/>
     <use style="fill:#e36f47;stroke:#000000;stroke-opacity:0;" x="183.843573" xlink:href="#mfebb58b5fb" y="110.49"/>
     <use style="fill:#e36f47;stroke:#000000;stroke-opacity:0;" x="183.843573" xlink:href="#mfebb58b5fb" y="110.49"/>
     <use style="fill:#e36f47;stroke:#000000;stroke-opacity:0;" x="197.251978" xlink:href="#mfebb58b5fb" y="110.49"/>
     <use style="fill:#e36f47;stroke:#000000;stroke-opacity:0;" x="197.251978" xlink:href="#mfebb58b5fb" y="110.49"/>
     <use style="fill:#e36f47;stroke:#000000;stroke-opacity:0;" x="210.660382" xlink:href="#mfebb58b5fb" y="110.49"/>
     <use style="fill:#e36f47;stroke:#000000;stroke-opacity:0;" x="210.660382" xlink:href="#mfebb58b5fb" y="110.49"/>
     <use style="fill:#e36f47;stroke:#000000;stroke-opacity:0;" x="223.738627" xlink:href="#mfebb58b5fb" y="110.49"/>
     <use style="fill:#e36f47;stroke:#000000;stroke-opacity:0;" x="223.738627" xlink:href="#mfebb58b5fb" y="110.49"/>
     <use style="fill:#e36f47;stroke:#000000;stroke-opacity:0;" x="236.164683" xlink:href="#mfebb58b5fb" y="110.49"/>
     <use style="fill:#e36f47;stroke:#000000;stroke-opacity:0;" x="236.164683" xlink:href="#mfebb58b5fb" y="110.49"/>
     <use style="fill:#e36f47;stroke:#000000;stroke-opacity:0;" x="247.632579" xlink:href="#mfebb58b5fb" y="110.49"/>
     <use style="fill:#e36f47;stroke:#000000;stroke-opacity:0;" x="247.632579" xlink:href="#mfebb58b5fb" y="110.49"/>
     <use style="fill:#e36f47;stroke:#000000;stroke-opacity:0;" x="257.859937" xlink:href="#mfebb58b5fb" y="110.49"/>
     <use style="fill:#e36f47;stroke:#000000;stroke-opacity:0;" x="257.859937" xlink:href="#mfebb58b5fb" y="110.49"/>
     <use style="fill:#e36f47;stroke:#000000;stroke-opacity:0;" x="266.594926" xlink:href="#mfebb58b5fb" y="110.49"/>
     <use style="fill:#e36f47;stroke:#000000;stroke-opacity:0;" x="266.594926" xlink:href="#mfebb58b5fb" y="110.49"/>
     <use style="fill:#e36f47;stroke:#000000;stroke-opacity:0;" x="273.622462" xlink:href="#mfebb58b5fb" y="110.49"/>
     <use style="fill:#e36f47;stroke:#000000;stroke-opacity:0;" x="273.622462" xlink:href="#mfebb58b5fb" y="110.49"/>
     <use style="fill:#e36f47;stroke:#000000;stroke-opacity:0;" x="278.769503" xlink:href="#mfebb58b5fb" y="110.49"/>
     <use style="fill:#e36f47;stroke:#000000;stroke-opacity:0;" x="278.769503" xlink:href="#mfebb58b5fb" y="110.49"/>
     <use style="fill:#e36f47;stroke:#000000;stroke-opacity:0;" x="281.909312" xlink:href="#mfebb58b5fb" y="110.49"/>
     <use style="fill:#e36f47;stroke:#000000;stroke-opacity:0;" x="281.909312" xlink:href="#mfebb58b5fb" y="110.49"/>
     <use style="fill:#e36f47;stroke:#000000;stroke-opacity:0;" x="282.964576" xlink:href="#mfebb58b5fb" y="110.49"/>
    </g>
   </g>
   <g id="text_15">
    <!-- Stability region and ζ values -->
    <g transform="translate(110.488071 13.634646)scale(0.14 -0.14)">
     <defs>
      <path d="M 13.96875 23.140625 
Q 14.3125 17.046875 16.84375 13.234375 
Q 21.6875 6.109375 33.890625 6.109375 
Q 39.359375 6.109375 43.84375 7.671875 
Q 52.546875 10.6875 52.546875 18.5 
Q 52.546875 24.359375 48.875 26.859375 
Q 45.171875 29.296875 37.25 31.109375 
L 27.546875 33.296875 
Q 18.015625 35.453125 14.0625 38.03125 
Q 7.234375 42.53125 7.234375 51.46875 
Q 7.234375 61.140625 13.921875 67.328125 
Q 20.609375 73.53125 32.859375 73.53125 
Q 44.140625 73.53125 52.015625 68.078125 
Q 59.90625 62.640625 59.90625 50.6875 
L 50.78125 50.6875 
Q 50.046875 56.453125 47.65625 59.515625 
Q 43.21875 65.140625 32.5625 65.140625 
Q 23.96875 65.140625 20.203125 61.515625 
Q 16.453125 57.90625 16.453125 53.125 
Q 16.453125 47.859375 20.84375 45.40625 
Q 23.734375 43.84375 33.890625 41.5 
L 43.953125 39.203125 
Q 51.21875 37.546875 55.171875 34.671875 
Q 62.015625 29.640625 62.015625 20.0625 
Q 62.015625 8.15625 53.34375 3.03125 
Q 44.671875 -2.09375 33.203125 -2.09375 
Q 19.828125 -2.09375 12.25 4.734375 
Q 4.6875 11.53125 4.828125 23.140625 
z
M 33.59375 73.6875 
z
" id="Helvetica-83"/>
      <path d="M 8.203125 66.890625 
L 17.09375 66.890625 
L 17.09375 52.296875 
L 25.4375 52.296875 
L 25.4375 45.125 
L 17.09375 45.125 
L 17.09375 10.984375 
Q 17.09375 8.25 18.953125 7.328125 
Q 19.96875 6.78125 22.359375 6.78125 
Q 23 6.78125 23.734375 6.8125 
Q 24.46875 6.84375 25.4375 6.9375 
L 25.4375 0 
Q 23.921875 -0.4375 22.28125 -0.625 
Q 20.65625 -0.828125 18.75 -0.828125 
Q 12.59375 -0.828125 10.390625 2.3125 
Q 8.203125 5.46875 8.203125 10.5 
L 8.203125 45.125 
L 1.125 45.125 
L 1.125 52.296875 
L 8.203125 52.296875 
z
" id="Helvetica-116"/>
      <path d="M 13.1875 13.921875 
Q 13.1875 10.109375 15.96875 7.90625 
Q 18.75 5.71875 22.5625 5.71875 
Q 27.203125 5.71875 31.546875 7.859375 
Q 38.875 11.421875 38.875 19.53125 
L 38.875 26.609375 
Q 37.25 25.59375 34.703125 24.90625 
Q 32.171875 24.21875 29.734375 23.921875 
L 24.421875 23.25 
Q 19.625 22.609375 17.234375 21.234375 
Q 13.1875 18.953125 13.1875 13.921875 
z
M 34.46875 31.6875 
Q 37.5 32.078125 38.53125 34.234375 
Q 39.109375 35.40625 39.109375 37.59375 
Q 39.109375 42.09375 35.90625 44.109375 
Q 32.71875 46.140625 26.765625 46.140625 
Q 19.875 46.140625 17 42.4375 
Q 15.375 40.375 14.890625 36.328125 
L 6.6875 36.328125 
Q 6.9375 46 12.96875 49.78125 
Q 19 53.5625 26.953125 53.5625 
Q 36.1875 53.5625 41.9375 50.046875 
Q 47.65625 46.53125 47.65625 39.109375 
L 47.65625 8.984375 
Q 47.65625 7.625 48.21875 6.78125 
Q 48.78125 5.953125 50.59375 5.953125 
Q 51.171875 5.953125 51.90625 6.03125 
Q 52.640625 6.109375 53.46875 6.25 
L 53.46875 -0.25 
Q 51.421875 -0.828125 50.34375 -0.96875 
Q 49.265625 -1.125 47.40625 -1.125 
Q 42.875 -1.125 40.828125 2.09375 
Q 39.75 3.8125 39.3125 6.9375 
Q 36.625 3.421875 31.59375 0.828125 
Q 26.5625 -1.765625 20.515625 -1.765625 
Q 13.234375 -1.765625 8.609375 2.65625 
Q 4 7.078125 4 13.71875 
Q 4 21 8.546875 25 
Q 13.09375 29 20.453125 29.9375 
z
M 27.203125 53.5625 
z
" id="Helvetica-97"/>
      <path d="M 5.765625 71.96875 
L 14.3125 71.96875 
L 14.3125 45.953125 
Q 17.1875 49.703125 21.1875 51.671875 
Q 25.203125 53.65625 29.890625 53.65625 
Q 39.65625 53.65625 45.734375 46.9375 
Q 51.8125 40.234375 51.8125 27.15625 
Q 51.8125 14.75 45.796875 6.546875 
Q 39.796875 -1.65625 29.15625 -1.65625 
Q 23.1875 -1.65625 19.09375 1.21875 
Q 16.65625 2.9375 13.875 6.6875 
L 13.875 0 
L 5.765625 0 
z
M 28.609375 6.109375 
Q 35.75 6.109375 39.28125 11.765625 
Q 42.828125 17.4375 42.828125 26.703125 
Q 42.828125 34.96875 39.28125 40.375 
Q 35.75 45.796875 28.859375 45.796875 
Q 22.859375 45.796875 18.328125 41.359375 
Q 13.8125 36.921875 13.8125 26.703125 
Q 13.8125 19.34375 15.671875 14.75 
Q 19.140625 6.109375 28.609375 6.109375 
z
" id="Helvetica-98"/>
      <path d="M 6.453125 52.046875 
L 15.375 52.046875 
L 15.375 0 
L 6.453125 0 
z
M 6.453125 71.734375 
L 15.375 71.734375 
L 15.375 61.765625 
L 6.453125 61.765625 
z
" id="Helvetica-105"/>
      <path d="M 6.6875 71.734375 
L 15.484375 71.734375 
L 15.484375 0 
L 6.6875 0 
z
" id="Helvetica-108"/>
      <path d="M 39.109375 52.296875 
L 48.828125 52.296875 
Q 46.96875 47.265625 40.578125 29.34375 
Q 35.796875 15.875 32.5625 7.375 
Q 24.953125 -12.640625 21.828125 -17.03125 
Q 18.703125 -21.4375 11.078125 -21.4375 
Q 9.234375 -21.4375 8.234375 -21.28125 
Q 7.234375 -21.140625 5.765625 -20.75 
L 5.765625 -12.75 
Q 8.0625 -13.375 9.078125 -13.515625 
Q 10.109375 -13.671875 10.890625 -13.671875 
Q 13.328125 -13.671875 14.46875 -12.859375 
Q 15.625 -12.0625 16.40625 -10.890625 
Q 16.65625 -10.5 18.15625 -6.875 
Q 19.671875 -3.265625 20.359375 -1.515625 
L 1.03125 52.296875 
L 10.984375 52.296875 
L 25 9.71875 
z
M 24.953125 53.5625 
z
" id="Helvetica-121"/>
      <path d="M 6.6875 52.296875 
L 15.046875 52.296875 
L 15.046875 43.265625 
Q 16.0625 45.90625 20.0625 49.6875 
Q 24.078125 53.46875 29.296875 53.46875 
Q 29.546875 53.46875 30.125 53.421875 
Q 30.71875 53.375 32.125 53.21875 
L 32.125 43.953125 
Q 31.34375 44.09375 30.6875 44.140625 
Q 30.03125 44.1875 29.25 44.1875 
Q 22.609375 44.1875 19.046875 39.90625 
Q 15.484375 35.640625 15.484375 30.078125 
L 15.484375 0 
L 6.6875 0 
z
" id="Helvetica-114"/>
      <path d="M 24.90625 53.21875 
Q 31.0625 53.21875 35.640625 50.203125 
Q 38.140625 48.484375 40.71875 45.21875 
L 40.71875 51.8125 
L 48.828125 51.8125 
L 48.828125 4.25 
Q 48.828125 -5.71875 45.90625 -11.46875 
Q 40.4375 -22.125 25.25 -22.125 
Q 16.796875 -22.125 11.03125 -18.328125 
Q 5.28125 -14.546875 4.59375 -6.5 
L 13.53125 -6.5 
Q 14.15625 -10.015625 16.0625 -11.921875 
Q 19.046875 -14.84375 25.4375 -14.84375 
Q 35.546875 -14.84375 38.671875 -7.71875 
Q 40.53125 -3.515625 40.375 7.28125 
Q 37.75 3.265625 34.03125 1.3125 
Q 30.328125 -0.640625 24.21875 -0.640625 
Q 15.71875 -0.640625 9.34375 5.390625 
Q 2.984375 11.421875 2.984375 25.34375 
Q 2.984375 38.484375 9.40625 45.84375 
Q 15.828125 53.21875 24.90625 53.21875 
z
M 40.71875 26.375 
Q 40.71875 36.078125 36.71875 40.765625 
Q 32.71875 45.453125 26.515625 45.453125 
Q 17.234375 45.453125 13.8125 36.765625 
Q 12.015625 32.125 12.015625 24.609375 
Q 12.015625 15.765625 15.59375 11.15625 
Q 19.1875 6.546875 25.25 6.546875 
Q 34.71875 6.546875 38.578125 15.09375 
Q 40.71875 19.921875 40.71875 26.375 
z
M 25.921875 53.5625 
z
" id="Helvetica-103"/>
      <path d="M 27.203125 5.671875 
Q 35.9375 5.671875 39.1875 12.28125 
Q 42.4375 18.890625 42.4375 27 
Q 42.4375 34.328125 40.09375 38.921875 
Q 36.375 46.140625 27.296875 46.140625 
Q 19.234375 46.140625 15.578125 39.984375 
Q 11.921875 33.84375 11.921875 25.140625 
Q 11.921875 16.796875 15.578125 11.234375 
Q 19.234375 5.671875 27.203125 5.671875 
z
M 27.546875 53.8125 
Q 37.640625 53.8125 44.625 47.0625 
Q 51.609375 40.328125 51.609375 27.25 
Q 51.609375 14.59375 45.453125 6.34375 
Q 39.3125 -1.90625 26.375 -1.90625 
Q 15.578125 -1.90625 9.21875 5.390625 
Q 2.875 12.703125 2.875 25 
Q 2.875 38.1875 9.5625 46 
Q 16.265625 53.8125 27.546875 53.8125 
z
M 27.25 53.5625 
z
" id="Helvetica-111"/>
      <path d="M 6.453125 52.296875 
L 14.796875 52.296875 
L 14.796875 44.875 
Q 18.5 49.46875 22.65625 51.46875 
Q 26.8125 53.46875 31.890625 53.46875 
Q 43.015625 53.46875 46.921875 45.703125 
Q 49.078125 41.453125 49.078125 33.546875 
L 49.078125 0 
L 40.140625 0 
L 40.140625 32.953125 
Q 40.140625 37.75 38.71875 40.671875 
Q 36.375 45.5625 30.21875 45.5625 
Q 27.09375 45.5625 25.09375 44.921875 
Q 21.484375 43.84375 18.75 40.625 
Q 16.546875 38.03125 15.890625 35.265625 
Q 15.234375 32.515625 15.234375 27.390625 
L 15.234375 0 
L 6.453125 0 
z
M 27.09375 53.5625 
z
" id="Helvetica-110"/>
      <path d="M 12.015625 25.53125 
Q 12.015625 17.140625 15.578125 11.46875 
Q 19.140625 5.8125 27 5.8125 
Q 33.109375 5.8125 37.03125 11.0625 
Q 40.96875 16.3125 40.96875 26.125 
Q 40.96875 36.03125 36.90625 40.796875 
Q 32.859375 45.5625 26.90625 45.5625 
Q 20.265625 45.5625 16.140625 40.484375 
Q 12.015625 35.40625 12.015625 25.53125 
z
M 25.25 53.21875 
Q 31.25 53.21875 35.296875 50.6875 
Q 37.640625 49.21875 40.625 45.5625 
L 40.625 71.96875 
L 49.078125 71.96875 
L 49.078125 0 
L 41.15625 0 
L 41.15625 7.28125 
Q 38.09375 2.4375 33.890625 0.28125 
Q 29.6875 -1.859375 24.265625 -1.859375 
Q 15.53125 -1.859375 9.125 5.484375 
Q 2.734375 12.84375 2.734375 25.046875 
Q 2.734375 36.46875 8.5625 44.84375 
Q 14.40625 53.21875 25.25 53.21875 
z
" id="Helvetica-100"/>
      <path d="M 10.75 52.296875 
L 24.703125 9.71875 
L 39.3125 52.296875 
L 48.921875 52.296875 
L 29.203125 0 
L 19.828125 0 
L 0.53125 52.296875 
z
" id="Helvetica-118"/>
      <path d="M 15.234375 52.296875 
L 15.234375 17.578125 
Q 15.234375 13.578125 16.5 11.03125 
Q 18.84375 6.34375 25.25 6.34375 
Q 34.421875 6.34375 37.75 14.546875 
Q 39.546875 18.953125 39.546875 26.609375 
L 39.546875 52.296875 
L 48.34375 52.296875 
L 48.34375 0 
L 40.046875 0 
L 40.140625 7.71875 
Q 38.421875 4.734375 35.890625 2.6875 
Q 30.859375 -1.421875 23.6875 -1.421875 
Q 12.5 -1.421875 8.453125 6.0625 
Q 6.25 10.0625 6.25 16.75 
L 6.25 52.296875 
z
M 27.296875 53.5625 
z
" id="Helvetica-117"/>
      <path d="M 11.671875 16.40625 
Q 12.0625 12.015625 13.875 9.671875 
Q 17.1875 5.421875 25.390625 5.421875 
Q 30.28125 5.421875 33.984375 7.546875 
Q 37.703125 9.671875 37.703125 14.109375 
Q 37.703125 17.484375 34.71875 19.234375 
Q 32.8125 20.3125 27.203125 21.734375 
L 20.21875 23.484375 
Q 13.53125 25.140625 10.359375 27.203125 
Q 4.6875 30.765625 4.6875 37.0625 
Q 4.6875 44.484375 10.03125 49.0625 
Q 15.375 53.65625 24.421875 53.65625 
Q 36.234375 53.65625 41.453125 46.734375 
Q 44.734375 42.328125 44.625 37.25 
L 36.328125 37.25 
Q 36.078125 40.234375 34.234375 42.671875 
Q 31.203125 46.140625 23.734375 46.140625 
Q 18.75 46.140625 16.1875 44.234375 
Q 13.625 42.328125 13.625 39.203125 
Q 13.625 35.796875 17 33.734375 
Q 18.953125 32.515625 22.75 31.59375 
L 28.5625 30.171875 
Q 38.03125 27.875 41.265625 25.734375 
Q 46.390625 22.359375 46.390625 15.140625 
Q 46.390625 8.15625 41.09375 3.078125 
Q 35.796875 -2 24.953125 -2 
Q 13.28125 -2 8.421875 3.296875 
Q 3.5625 8.59375 3.21875 16.40625 
z
M 24.65625 53.5625 
z
" id="Helvetica-115"/>
     </defs>
     <use xlink:href="#Helvetica-83"/>
     <use x="66.699219" xlink:href="#Helvetica-116"/>
     <use x="94.482422" xlink:href="#Helvetica-97"/>
     <use x="150.097656" xlink:href="#Helvetica-98"/>
     <use x="205.712891" xlink:href="#Helvetica-105"/>
     <use x="227.929688" xlink:href="#Helvetica-108"/>
     <use x="250.146484" xlink:href="#Helvetica-105"/>
     <use x="272.363281" xlink:href="#Helvetica-116"/>
     <use x="300.146484" xlink:href="#Helvetica-121"/>
     <use x="350.146484" xlink:href="#Helvetica-32"/>
     <use x="377.929688" xlink:href="#Helvetica-114"/>
     <use x="411.230469" xlink:href="#Helvetica-101"/>
     <use x="466.845703" xlink:href="#Helvetica-103"/>
     <use x="522.460938" xlink:href="#Helvetica-105"/>
     <use x="544.677734" xlink:href="#Helvetica-111"/>
     <use x="600.292969" xlink:href="#Helvetica-110"/>
     <use x="655.908203" xlink:href="#Helvetica-32"/>
     <use x="683.691406" xlink:href="#Helvetica-97"/>
     <use x="739.306641" xlink:href="#Helvetica-110"/>
     <use x="794.921875" xlink:href="#Helvetica-100"/>
     <use x="850.537109" xlink:href="#Helvetica-32"/>
     <use x="878.320312" xlink:href="#Helvetica-950"/>
     <use x="922.705078" xlink:href="#Helvetica-32"/>
     <use x="950.488281" xlink:href="#Helvetica-118"/>
     <use x="1000.488281" xlink:href="#Helvetica-97"/>
     <use x="1056.103516" xlink:href="#Helvetica-108"/>
     <use x="1078.320312" xlink:href="#Helvetica-117"/>
     <use x="1133.935547" xlink:href="#Helvetica-101"/>
     <use x="1189.550781" xlink:href="#Helvetica-115"/>
    </g>
   </g>
  </g>
 </g>
 <defs>
  <clipPath id="pa65e490fdb">
   <rect height="181.710709" width="319.826754" x="37.338601" y="19.634646"/>
  </clipPath>
 </defs>
</svg>
