<?xml version="1.0" encoding="utf-8"?>
<svg xmlns="http://www.w3.org/2000/svg" xmlns:xlink="http://www.w3.org/1999/xlink" width="120" height="75" viewBox="0 0 480 300">
<defs>
  <clipPath id="clip390">
    <rect x="0" y="0" width="480" height="300"/>
  </clipPath>
</defs>
<path clip-path="url(#clip390)" d="
M0 300 L480 300 L480 0 L0 0  Z
  " fill="#ffffff" fill-rule="evenodd" fill-opacity="1"/>
<defs>
  <clipPath id="clip391">
    <rect x="96" y="0" width="337" height="300"/>
  </clipPath>
</defs>
<path clip-path="url(#clip390)" d="
M181.81 258.408 L349.043 258.408 L349.043 27.537 L181.81 27.537  Z
  " fill="#ffffff" fill-rule="evenodd" fill-opacity="1"/>
<defs>
  <clipPath id="clip392">
    <rect x="181" y="27" width="168" height="232"/>
  </clipPath>
</defs>
<polyline clip-path="url(#clip392)" style="stroke:#000000; stroke-width:0.5; stroke-opacity:0.1; fill:none" points="
  186.543,258.408 186.543,27.537 
  "/>
<polyline clip-path="url(#clip392)" style="stroke:#000000; stroke-width:0.5; stroke-opacity:0.1; fill:none" points="
  225.985,258.408 225.985,27.537 
  "/>
<polyline clip-path="url(#clip392)" style="stroke:#000000; stroke-width:0.5; stroke-opacity:0.1; fill:none" points="
  265.427,258.408 265.427,27.537 
  "/>
<polyline clip-path="url(#clip392)" style="stroke:#000000; stroke-width:0.5; stroke-opacity:0.1; fill:none" points="
  304.868,258.408 304.868,27.537 
  "/>
<polyline clip-path="url(#clip392)" style="stroke:#000000; stroke-width:0.5; stroke-opacity:0.1; fill:none" points="
  344.31,258.408 344.31,27.537 
  "/>
<polyline clip-path="url(#clip390)" style="stroke:#000000; stroke-width:1; stroke-opacity:1; fill:none" points="
  181.81,258.408 349.043,258.408 
  "/>
<polyline clip-path="url(#clip390)" style="stroke:#000000; stroke-width:1; stroke-opacity:1; fill:none" points="
  186.543,258.408 186.543,255.638 
  "/>
<polyline clip-path="url(#clip390)" style="stroke:#000000; stroke-width:1; stroke-opacity:1; fill:none" points="
  225.985,258.408 225.985,255.638 
  "/>
<polyline clip-path="url(#clip390)" style="stroke:#000000; stroke-width:1; stroke-opacity:1; fill:none" points="
  265.427,258.408 265.427,255.638 
  "/>
<polyline clip-path="url(#clip390)" style="stroke:#000000; stroke-width:1; stroke-opacity:1; fill:none" points="
  304.868,258.408 304.868,255.638 
  "/>
<polyline clip-path="url(#clip390)" style="stroke:#000000; stroke-width:1; stroke-opacity:1; fill:none" points="
  344.31,258.408 344.31,255.638 
  "/>
<path clip-path="url(#clip390)" d="M 0 0 M172.785 268.409 L180.204 268.409 L180.204 269.393 L172.785 269.393 L172.785 268.409 Z" fill="#000000" fill-rule="evenodd" fill-opacity="1" /><path clip-path="url(#clip390)" d="M 0 0 M185.013 267.958 Q185.852 268.137 186.321 268.704 Q186.795 269.271 186.795 270.105 Q186.795 271.384 185.916 272.084 Q185.036 272.784 183.416 272.784 Q182.872 272.784 182.293 272.674 Q181.72 272.57 181.107 272.356 L181.107 271.227 Q181.593 271.511 182.171 271.656 Q182.75 271.8 183.381 271.8 Q184.48 271.8 185.053 271.366 Q185.632 270.932 185.632 270.105 Q185.632 269.341 185.094 268.913 Q184.561 268.479 183.607 268.479 L182.6 268.479 L182.6 267.518 L183.653 267.518 Q184.515 267.518 184.972 267.177 Q185.429 266.829 185.429 266.181 Q185.429 265.516 184.955 265.163 Q184.486 264.804 183.607 264.804 Q183.126 264.804 182.576 264.908 Q182.027 265.012 181.367 265.232 L181.367 264.19 Q182.032 264.005 182.611 263.913 Q183.196 263.82 183.711 263.82 Q185.042 263.82 185.817 264.428 Q186.593 265.03 186.593 266.06 Q186.593 266.777 186.182 267.275 Q185.771 267.767 185.013 267.958 Z" fill="#000000" fill-rule="evenodd" fill-opacity="1" /><path clip-path="url(#clip390)" d="M 0 0 M190.562 264.746 Q189.66 264.746 189.203 265.637 Q188.751 266.523 188.751 268.305 Q188.751 270.082 189.203 270.973 Q189.66 271.858 190.562 271.858 Q191.471 271.858 191.922 270.973 Q192.38 270.082 192.38 268.305 Q192.38 266.523 191.922 265.637 Q191.471 264.746 190.562 264.746 M190.562 263.82 Q192.015 263.82 192.779 264.972 Q193.549 266.118 193.549 268.305 Q193.549 270.487 192.779 271.638 Q192.015 272.784 190.562 272.784 Q189.11 272.784 188.34 271.638 Q187.576 270.487 187.576 268.305 Q187.576 266.118 188.34 264.972 Q189.11 263.82 190.562 263.82 Z" fill="#000000" fill-rule="evenodd" fill-opacity="1" /><path clip-path="url(#clip390)" d="M 0 0 M197.316 264.746 Q196.413 264.746 195.956 265.637 Q195.505 266.523 195.505 268.305 Q195.505 270.082 195.956 270.973 Q196.413 271.858 197.316 271.858 Q198.224 271.858 198.676 270.973 Q199.133 270.082 199.133 268.305 Q199.133 266.523 198.676 265.637 Q198.224 264.746 197.316 264.746 M197.316 263.82 Q198.768 263.82 199.532 264.972 Q200.302 266.118 200.302 268.305 Q200.302 270.487 199.532 271.638 Q198.768 272.784 197.316 272.784 Q195.863 272.784 195.094 271.638 Q194.33 270.487 194.33 268.305 Q194.33 266.118 195.094 264.972 Q195.863 263.82 197.316 263.82 Z" fill="#000000" fill-rule="evenodd" fill-opacity="1" /><path clip-path="url(#clip390)" d="M 0 0 M212.345 268.409 L219.764 268.409 L219.764 269.393 L212.345 269.393 L212.345 268.409 Z" fill="#000000" fill-rule="evenodd" fill-opacity="1" /><path clip-path="url(#clip390)" d="M 0 0 M222.038 271.633 L226.118 271.633 L226.118 272.616 L220.632 272.616 L220.632 271.633 Q221.298 270.944 222.443 269.787 Q223.595 268.623 223.89 268.288 Q224.451 267.657 224.671 267.223 Q224.897 266.783 224.897 266.361 Q224.897 265.672 224.411 265.238 Q223.931 264.804 223.155 264.804 Q222.605 264.804 221.992 264.995 Q221.384 265.186 220.69 265.574 L220.69 264.393 Q221.396 264.109 222.009 263.965 Q222.623 263.82 223.132 263.82 Q224.475 263.82 225.273 264.491 Q226.072 265.163 226.072 266.285 Q226.072 266.818 225.869 267.298 Q225.672 267.773 225.146 268.421 Q225.001 268.589 224.226 269.393 Q223.45 270.192 222.038 271.633 Z" fill="#000000" fill-rule="evenodd" fill-opacity="1" /><path clip-path="url(#clip390)" d="M 0 0 M229.885 264.746 Q228.983 264.746 228.525 265.637 Q228.074 266.523 228.074 268.305 Q228.074 270.082 228.525 270.973 Q228.983 271.858 229.885 271.858 Q230.794 271.858 231.245 270.973 Q231.703 270.082 231.703 268.305 Q231.703 266.523 231.245 265.637 Q230.794 264.746 229.885 264.746 M229.885 263.82 Q231.338 263.82 232.102 264.972 Q232.872 266.118 232.872 268.305 Q232.872 270.487 232.102 271.638 Q231.338 272.784 229.885 272.784 Q228.433 272.784 227.663 271.638 Q226.899 270.487 226.899 268.305 Q226.899 266.118 227.663 264.972 Q228.433 263.82 229.885 263.82 Z" fill="#000000" fill-rule="evenodd" fill-opacity="1" /><path clip-path="url(#clip390)" d="M 0 0 M236.639 264.746 Q235.736 264.746 235.279 265.637 Q234.828 266.523 234.828 268.305 Q234.828 270.082 235.279 270.973 Q235.736 271.858 236.639 271.858 Q237.547 271.858 237.999 270.973 Q238.456 270.082 238.456 268.305 Q238.456 266.523 237.999 265.637 Q237.547 264.746 236.639 264.746 M236.639 263.82 Q238.091 263.82 238.855 264.972 Q239.625 266.118 239.625 268.305 Q239.625 270.487 238.855 271.638 Q238.091 272.784 236.639 272.784 Q235.186 272.784 234.417 271.638 Q233.653 270.487 233.653 268.305 Q233.653 266.118 234.417 264.972 Q235.186 263.82 236.639 263.82 Z" fill="#000000" fill-rule="evenodd" fill-opacity="1" /><path clip-path="url(#clip390)" d="M 0 0 M251.74 268.409 L259.159 268.409 L259.159 269.393 L251.74 269.393 L251.74 268.409 Z" fill="#000000" fill-rule="evenodd" fill-opacity="1" /><path clip-path="url(#clip390)" d="M 0 0 M260.629 271.633 L262.539 271.633 L262.539 265.041 L260.461 265.458 L260.461 264.393 L262.527 263.976 L263.696 263.976 L263.696 271.633 L265.606 271.633 L265.606 272.616 L260.629 272.616 L260.629 271.633 Z" fill="#000000" fill-rule="evenodd" fill-opacity="1" /><path clip-path="url(#clip390)" d="M 0 0 M269.373 264.746 Q268.471 264.746 268.013 265.637 Q267.562 266.523 267.562 268.305 Q267.562 270.082 268.013 270.973 Q268.471 271.858 269.373 271.858 Q270.282 271.858 270.733 270.973 Q271.19 270.082 271.19 268.305 Q271.19 266.523 270.733 265.637 Q270.282 264.746 269.373 264.746 M269.373 263.82 Q270.826 263.82 271.59 264.972 Q272.359 266.118 272.359 268.305 Q272.359 270.487 271.59 271.638 Q270.826 272.784 269.373 272.784 Q267.921 272.784 267.151 271.638 Q266.387 270.487 266.387 268.305 Q266.387 266.118 267.151 264.972 Q267.921 263.82 269.373 263.82 Z" fill="#000000" fill-rule="evenodd" fill-opacity="1" /><path clip-path="url(#clip390)" d="M 0 0 M276.127 264.746 Q275.224 264.746 274.767 265.637 Q274.315 266.523 274.315 268.305 Q274.315 270.082 274.767 270.973 Q275.224 271.858 276.127 271.858 Q277.035 271.858 277.487 270.973 Q277.944 270.082 277.944 268.305 Q277.944 266.523 277.487 265.637 Q277.035 264.746 276.127 264.746 M276.127 263.82 Q277.579 263.82 278.343 264.972 Q279.113 266.118 279.113 268.305 Q279.113 270.487 278.343 271.638 Q277.579 272.784 276.127 272.784 Q274.674 272.784 273.905 271.638 Q273.141 270.487 273.141 268.305 Q273.141 266.118 273.905 264.972 Q274.674 263.82 276.127 263.82 Z" fill="#000000" fill-rule="evenodd" fill-opacity="1" /><path clip-path="url(#clip390)" d="M 0 0 M304.868 264.746 Q303.965 264.746 303.508 265.637 Q303.057 266.523 303.057 268.305 Q303.057 270.082 303.508 270.973 Q303.965 271.858 304.868 271.858 Q305.777 271.858 306.228 270.973 Q306.685 270.082 306.685 268.305 Q306.685 266.523 306.228 265.637 Q305.777 264.746 304.868 264.746 M304.868 263.82 Q306.321 263.82 307.085 264.972 Q307.854 266.118 307.854 268.305 Q307.854 270.487 307.085 271.638 Q306.321 272.784 304.868 272.784 Q303.416 272.784 302.646 271.638 Q301.882 270.487 301.882 268.305 Q301.882 266.118 302.646 264.972 Q303.416 263.82 304.868 263.82 Z" fill="#000000" fill-rule="evenodd" fill-opacity="1" /><path clip-path="url(#clip390)" d="M 0 0 M335.152 271.633 L337.061 271.633 L337.061 265.041 L334.984 265.458 L334.984 264.393 L337.05 263.976 L338.219 263.976 L338.219 271.633 L340.129 271.633 L340.129 272.616 L335.152 272.616 L335.152 271.633 Z" fill="#000000" fill-rule="evenodd" fill-opacity="1" /><path clip-path="url(#clip390)" d="M 0 0 M343.896 264.746 Q342.993 264.746 342.536 265.637 Q342.085 266.523 342.085 268.305 Q342.085 270.082 342.536 270.973 Q342.993 271.858 343.896 271.858 Q344.805 271.858 345.256 270.973 Q345.713 270.082 345.713 268.305 Q345.713 266.523 345.256 265.637 Q344.805 264.746 343.896 264.746 M343.896 263.82 Q345.348 263.82 346.112 264.972 Q346.882 266.118 346.882 268.305 Q346.882 270.487 346.112 271.638 Q345.348 272.784 343.896 272.784 Q342.443 272.784 341.674 271.638 Q340.91 270.487 340.91 268.305 Q340.91 266.118 341.674 264.972 Q342.443 263.82 343.896 263.82 Z" fill="#000000" fill-rule="evenodd" fill-opacity="1" /><path clip-path="url(#clip390)" d="M 0 0 M350.649 264.746 Q349.747 264.746 349.289 265.637 Q348.838 266.523 348.838 268.305 Q348.838 270.082 349.289 270.973 Q349.747 271.858 350.649 271.858 Q351.558 271.858 352.009 270.973 Q352.467 270.082 352.467 268.305 Q352.467 266.523 352.009 265.637 Q351.558 264.746 350.649 264.746 M350.649 263.82 Q352.102 263.82 352.866 264.972 Q353.635 266.118 353.635 268.305 Q353.635 270.487 352.866 271.638 Q352.102 272.784 350.649 272.784 Q349.197 272.784 348.427 271.638 Q347.663 270.487 347.663 268.305 Q347.663 266.118 348.427 264.972 Q349.197 263.82 350.649 263.82 Z" fill="#000000" fill-rule="evenodd" fill-opacity="1" /><g clip-path="url(#clip390)">
<text style="fill:#000000; fill-opacity:1; font-family:Arial,Helvetica Neue,Helvetica,sans-serif; font-size:16px; text-anchor:middle;" transform="rotate(0, 265.427, 293.459)" x="265.427" y="293.459">Re λ</text>
</g>
<polyline clip-path="url(#clip392)" style="stroke:#000000; stroke-width:0.5; stroke-opacity:0.1; fill:none" points="
  181.81,221.856 349.043,221.856 
  "/>
<polyline clip-path="url(#clip392)" style="stroke:#000000; stroke-width:0.5; stroke-opacity:0.1; fill:none" points="
  181.81,182.414 349.043,182.414 
  "/>
<polyline clip-path="url(#clip392)" style="stroke:#000000; stroke-width:0.5; stroke-opacity:0.1; fill:none" points="
  181.81,142.973 349.043,142.973 
  "/>
<polyline clip-path="url(#clip392)" style="stroke:#000000; stroke-width:0.5; stroke-opacity:0.1; fill:none" points="
  181.81,103.531 349.043,103.531 
  "/>
<polyline clip-path="url(#clip392)" style="stroke:#000000; stroke-width:0.5; stroke-opacity:0.1; fill:none" points="
  181.81,64.0896 349.043,64.0896 
  "/>
<polyline clip-path="url(#clip390)" style="stroke:#000000; stroke-width:1; stroke-opacity:1; fill:none" points="
  181.81,258.408 181.81,27.537 
  "/>
<polyline clip-path="url(#clip390)" style="stroke:#000000; stroke-width:1; stroke-opacity:1; fill:none" points="
  181.81,221.856 183.817,221.856 
  "/>
<polyline clip-path="url(#clip390)" style="stroke:#000000; stroke-width:1; stroke-opacity:1; fill:none" points="
  181.81,182.414 183.817,182.414 
  "/>
<polyline clip-path="url(#clip390)" style="stroke:#000000; stroke-width:1; stroke-opacity:1; fill:none" points="
  181.81,142.973 183.817,142.973 
  "/>
<polyline clip-path="url(#clip390)" style="stroke:#000000; stroke-width:1; stroke-opacity:1; fill:none" points="
  181.81,103.531 183.817,103.531 
  "/>
<polyline clip-path="url(#clip390)" style="stroke:#000000; stroke-width:1; stroke-opacity:1; fill:none" points="
  181.81,64.0896 183.817,64.0896 
  "/>
<path clip-path="url(#clip390)" d="M 0 0 M147.33 221.969 L154.749 221.969 L154.749 222.952 L147.33 222.952 L147.33 221.969 Z" fill="#000000" fill-rule="evenodd" fill-opacity="1" /><path clip-path="url(#clip390)" d="M 0 0 M157.024 225.192 L161.104 225.192 L161.104 226.176 L155.617 226.176 L155.617 225.192 Q156.283 224.503 157.429 223.346 Q158.58 222.183 158.876 221.847 Q159.437 221.216 159.657 220.782 Q159.882 220.343 159.882 219.92 Q159.882 219.231 159.396 218.797 Q158.916 218.363 158.141 218.363 Q157.591 218.363 156.977 218.554 Q156.37 218.745 155.675 219.133 L155.675 217.953 Q156.381 217.669 156.995 217.524 Q157.608 217.38 158.117 217.38 Q159.46 217.38 160.259 218.051 Q161.057 218.722 161.057 219.845 Q161.057 220.377 160.855 220.858 Q160.658 221.332 160.131 221.98 Q159.987 222.148 159.211 222.952 Q158.436 223.751 157.024 225.192 Z" fill="#000000" fill-rule="evenodd" fill-opacity="1" /><path clip-path="url(#clip390)" d="M 0 0 M164.871 218.306 Q163.968 218.306 163.511 219.197 Q163.06 220.082 163.06 221.865 Q163.06 223.641 163.511 224.532 Q163.968 225.418 164.871 225.418 Q165.779 225.418 166.231 224.532 Q166.688 223.641 166.688 221.865 Q166.688 220.082 166.231 219.197 Q165.779 218.306 164.871 218.306 M164.871 217.38 Q166.323 217.38 167.087 218.531 Q167.857 219.677 167.857 221.865 Q167.857 224.046 167.087 225.198 Q166.323 226.344 164.871 226.344 Q163.418 226.344 162.649 225.198 Q161.885 224.046 161.885 221.865 Q161.885 219.677 162.649 218.531 Q163.418 217.38 164.871 217.38 Z" fill="#000000" fill-rule="evenodd" fill-opacity="1" /><path clip-path="url(#clip390)" d="M 0 0 M171.624 218.306 Q170.722 218.306 170.264 219.197 Q169.813 220.082 169.813 221.865 Q169.813 223.641 170.264 224.532 Q170.722 225.418 171.624 225.418 Q172.533 225.418 172.984 224.532 Q173.441 223.641 173.441 221.865 Q173.441 220.082 172.984 219.197 Q172.533 218.306 171.624 218.306 M171.624 217.38 Q173.077 217.38 173.841 218.531 Q174.61 219.677 174.61 221.865 Q174.61 224.046 173.841 225.198 Q173.077 226.344 171.624 226.344 Q170.172 226.344 169.402 225.198 Q168.638 224.046 168.638 221.865 Q168.638 219.677 169.402 218.531 Q170.172 217.38 171.624 217.38 Z" fill="#000000" fill-rule="evenodd" fill-opacity="1" /><path clip-path="url(#clip390)" d="M 0 0 M147.238 182.527 L154.657 182.527 L154.657 183.511 L147.238 183.511 L147.238 182.527 Z" fill="#000000" fill-rule="evenodd" fill-opacity="1" /><path clip-path="url(#clip390)" d="M 0 0 M156.127 185.75 L158.036 185.75 L158.036 179.159 L155.959 179.576 L155.959 178.511 L158.025 178.094 L159.194 178.094 L159.194 185.75 L161.104 185.75 L161.104 186.734 L156.127 186.734 L156.127 185.75 Z" fill="#000000" fill-rule="evenodd" fill-opacity="1" /><path clip-path="url(#clip390)" d="M 0 0 M164.871 178.864 Q163.968 178.864 163.511 179.755 Q163.06 180.641 163.06 182.423 Q163.06 184.2 163.511 185.091 Q163.968 185.976 164.871 185.976 Q165.779 185.976 166.231 185.091 Q166.688 184.2 166.688 182.423 Q166.688 180.641 166.231 179.755 Q165.779 178.864 164.871 178.864 M164.871 177.938 Q166.323 177.938 167.087 179.09 Q167.857 180.235 167.857 182.423 Q167.857 184.605 167.087 185.756 Q166.323 186.902 164.871 186.902 Q163.418 186.902 162.649 185.756 Q161.885 184.605 161.885 182.423 Q161.885 180.235 162.649 179.09 Q163.418 177.938 164.871 177.938 Z" fill="#000000" fill-rule="evenodd" fill-opacity="1" /><path clip-path="url(#clip390)" d="M 0 0 M171.624 178.864 Q170.722 178.864 170.264 179.755 Q169.813 180.641 169.813 182.423 Q169.813 184.2 170.264 185.091 Q170.722 185.976 171.624 185.976 Q172.533 185.976 172.984 185.091 Q173.441 184.2 173.441 182.423 Q173.441 180.641 172.984 179.755 Q172.533 178.864 171.624 178.864 M171.624 177.938 Q173.077 177.938 173.841 179.09 Q174.61 180.235 174.61 182.423 Q174.61 184.605 173.841 185.756 Q173.077 186.902 171.624 186.902 Q170.172 186.902 169.402 185.756 Q168.638 184.605 168.638 182.423 Q168.638 180.235 169.402 179.09 Q170.172 177.938 171.624 177.938 Z" fill="#000000" fill-rule="evenodd" fill-opacity="1" /><path clip-path="url(#clip390)" d="M 0 0 M171.624 139.422 Q170.722 139.422 170.264 140.314 Q169.813 141.199 169.813 142.981 Q169.813 144.758 170.264 145.649 Q170.722 146.535 171.624 146.535 Q172.533 146.535 172.984 145.649 Q173.441 144.758 173.441 142.981 Q173.441 141.199 172.984 140.314 Q172.533 139.422 171.624 139.422 M171.624 138.496 Q173.077 138.496 173.841 139.648 Q174.61 140.794 174.61 142.981 Q174.61 145.163 173.841 146.315 Q173.077 147.461 171.624 147.461 Q170.172 147.461 169.402 146.315 Q168.638 145.163 168.638 142.981 Q168.638 140.794 169.402 139.648 Q170.172 138.496 171.624 138.496 Z" fill="#000000" fill-rule="evenodd" fill-opacity="1" /><path clip-path="url(#clip390)" d="M 0 0 M156.127 106.867 L158.036 106.867 L158.036 100.276 L155.959 100.693 L155.959 99.6278 L158.025 99.2111 L159.194 99.2111 L159.194 106.867 L161.104 106.867 L161.104 107.851 L156.127 107.851 L156.127 106.867 Z" fill="#000000" fill-rule="evenodd" fill-opacity="1" /><path clip-path="url(#clip390)" d="M 0 0 M164.871 99.9808 Q163.968 99.9808 163.511 100.872 Q163.06 101.757 163.06 103.54 Q163.06 105.316 163.511 106.208 Q163.968 107.093 164.871 107.093 Q165.779 107.093 166.231 106.208 Q166.688 105.316 166.688 103.54 Q166.688 101.757 166.231 100.872 Q165.779 99.9808 164.871 99.9808 M164.871 99.0549 Q166.323 99.0549 167.087 100.206 Q167.857 101.352 167.857 103.54 Q167.857 105.722 167.087 106.873 Q166.323 108.019 164.871 108.019 Q163.418 108.019 162.649 106.873 Q161.885 105.722 161.885 103.54 Q161.885 101.352 162.649 100.206 Q163.418 99.0549 164.871 99.0549 Z" fill="#000000" fill-rule="evenodd" fill-opacity="1" /><path clip-path="url(#clip390)" d="M 0 0 M171.624 99.9808 Q170.722 99.9808 170.264 100.872 Q169.813 101.757 169.813 103.54 Q169.813 105.316 170.264 106.208 Q170.722 107.093 171.624 107.093 Q172.533 107.093 172.984 106.208 Q173.441 105.316 173.441 103.54 Q173.441 101.757 172.984 100.872 Q172.533 99.9808 171.624 99.9808 M171.624 99.0549 Q173.077 99.0549 173.841 100.206 Q174.61 101.352 174.61 103.54 Q174.61 105.722 173.841 106.873 Q173.077 108.019 171.624 108.019 Q170.172 108.019 169.402 106.873 Q168.638 105.722 168.638 103.54 Q168.638 101.352 169.402 100.206 Q170.172 99.0549 171.624 99.0549 Z" fill="#000000" fill-rule="evenodd" fill-opacity="1" /><path clip-path="url(#clip390)" d="M 0 0 M157.024 67.4258 L161.104 67.4258 L161.104 68.4096 L155.617 68.4096 L155.617 67.4258 Q156.283 66.7371 157.429 65.5797 Q158.58 64.4165 158.876 64.0809 Q159.437 63.4501 159.657 63.0161 Q159.882 62.5762 159.882 62.1538 Q159.882 61.4651 159.396 61.0311 Q158.916 60.5971 158.141 60.5971 Q157.591 60.5971 156.977 60.7881 Q156.37 60.979 155.675 61.3668 L155.675 60.1862 Q156.381 59.9027 156.995 59.758 Q157.608 59.6133 158.117 59.6133 Q159.46 59.6133 160.259 60.2846 Q161.057 60.9559 161.057 62.0786 Q161.057 62.611 160.855 63.0913 Q160.658 63.5658 160.131 64.214 Q159.987 64.3818 159.211 65.1862 Q158.436 65.9848 157.024 67.4258 Z" fill="#000000" fill-rule="evenodd" fill-opacity="1" /><path clip-path="url(#clip390)" d="M 0 0 M164.871 60.5392 Q163.968 60.5392 163.511 61.4304 Q163.06 62.3158 163.06 64.0982 Q163.06 65.8748 163.511 66.766 Q163.968 67.6515 164.871 67.6515 Q165.779 67.6515 166.231 66.766 Q166.688 65.8748 166.688 64.0982 Q166.688 62.3158 166.231 61.4304 Q165.779 60.5392 164.871 60.5392 M164.871 59.6133 Q166.323 59.6133 167.087 60.7649 Q167.857 61.9107 167.857 64.0982 Q167.857 66.2799 167.087 67.4315 Q166.323 68.5774 164.871 68.5774 Q163.418 68.5774 162.649 67.4315 Q161.885 66.2799 161.885 64.0982 Q161.885 61.9107 162.649 60.7649 Q163.418 59.6133 164.871 59.6133 Z" fill="#000000" fill-rule="evenodd" fill-opacity="1" /><path clip-path="url(#clip390)" d="M 0 0 M171.624 60.5392 Q170.722 60.5392 170.264 61.4304 Q169.813 62.3158 169.813 64.0982 Q169.813 65.8748 170.264 66.766 Q170.722 67.6515 171.624 67.6515 Q172.533 67.6515 172.984 66.766 Q173.441 65.8748 173.441 64.0982 Q173.441 62.3158 172.984 61.4304 Q172.533 60.5392 171.624 60.5392 M171.624 59.6133 Q173.077 59.6133 173.841 60.7649 Q174.61 61.9107 174.61 64.0982 Q174.61 66.2799 173.841 67.4315 Q173.077 68.5774 171.624 68.5774 Q170.172 68.5774 169.402 67.4315 Q168.638 66.2799 168.638 64.0982 Q168.638 61.9107 169.402 60.7649 Q170.172 59.6133 171.624 59.6133 Z" fill="#000000" fill-rule="evenodd" fill-opacity="1" /><g clip-path="url(#clip390)">
<text style="fill:#000000; fill-opacity:1; font-family:Arial,Helvetica Neue,Helvetica,sans-serif; font-size:16px; text-anchor:middle;" transform="rotate(-90, 137.147, 142.973)" x="137.147" y="142.973">Im λ</text>
</g>
<g clip-path="url(#clip390)">
<text style="fill:#000000; fill-opacity:1; font-family:Arial,Helvetica Neue,Helvetica,sans-serif; font-size:18px; font-weight:bold; text-anchor:middle;" transform="rotate(0, 265.427, 15.6)" x="265.427" y="15.6">Eigenvalues of advection with zero inflow</text>
</g>
<circle clip-path="url(#clip392)" cx="276.705" cy="251.874" r="2" fill="#009af9" fill-rule="evenodd" fill-opacity="1" stroke="#000000" stroke-opacity="1" stroke-width="0.6"/>
<circle clip-path="url(#clip392)" cx="276.705" cy="34.0711" r="2" fill="#009af9" fill-rule="evenodd" fill-opacity="1" stroke="#000000" stroke-opacity="1" stroke-width="0.6"/>
<circle clip-path="url(#clip392)" cx="289.141" cy="144.96" r="2" fill="#009af9" fill-rule="evenodd" fill-opacity="1" stroke="#000000" stroke-opacity="1" stroke-width="0.6"/>
<circle clip-path="url(#clip392)" cx="289.141" cy="140.985" r="2" fill="#009af9" fill-rule="evenodd" fill-opacity="1" stroke="#000000" stroke-opacity="1" stroke-width="0.6"/>
<circle clip-path="url(#clip392)" cx="290.465" cy="148.496" r="2" fill="#009af9" fill-rule="evenodd" fill-opacity="1" stroke="#000000" stroke-opacity="1" stroke-width="0.6"/>
<circle clip-path="url(#clip392)" cx="290.465" cy="137.45" r="2" fill="#009af9" fill-rule="evenodd" fill-opacity="1" stroke="#000000" stroke-opacity="1" stroke-width="0.6"/>
<circle clip-path="url(#clip392)" cx="291.25" cy="144.166" r="2" fill="#009af9" fill-rule="evenodd" fill-opacity="1" stroke="#000000" stroke-opacity="1" stroke-width="0.6"/>
<circle clip-path="url(#clip392)" cx="291.25" cy="141.779" r="2" fill="#009af9" fill-rule="evenodd" fill-opacity="1" stroke="#000000" stroke-opacity="1" stroke-width="0.6"/>
<circle clip-path="url(#clip392)" cx="291.282" cy="146.562" r="2" fill="#009af9" fill-rule="evenodd" fill-opacity="1" stroke="#000000" stroke-opacity="1" stroke-width="0.6"/>
<circle clip-path="url(#clip392)" cx="291.282" cy="139.383" r="2" fill="#009af9" fill-rule="evenodd" fill-opacity="1" stroke="#000000" stroke-opacity="1" stroke-width="0.6"/>
<circle clip-path="url(#clip392)" cx="291.331" cy="149.15" r="2" fill="#009af9" fill-rule="evenodd" fill-opacity="1" stroke="#000000" stroke-opacity="1" stroke-width="0.6"/>
<circle clip-path="url(#clip392)" cx="291.331" cy="136.795" r="2" fill="#009af9" fill-rule="evenodd" fill-opacity="1" stroke="#000000" stroke-opacity="1" stroke-width="0.6"/>
<circle clip-path="url(#clip392)" cx="291.686" cy="150.99" r="2" fill="#009af9" fill-rule="evenodd" fill-opacity="1" stroke="#000000" stroke-opacity="1" stroke-width="0.6"/>
<circle clip-path="url(#clip392)" cx="291.686" cy="134.956" r="2" fill="#009af9" fill-rule="evenodd" fill-opacity="1" stroke="#000000" stroke-opacity="1" stroke-width="0.6"/>
<circle clip-path="url(#clip392)" cx="292.118" cy="152.408" r="2" fill="#009af9" fill-rule="evenodd" fill-opacity="1" stroke="#000000" stroke-opacity="1" stroke-width="0.6"/>
<circle clip-path="url(#clip392)" cx="292.118" cy="133.537" r="2" fill="#009af9" fill-rule="evenodd" fill-opacity="1" stroke="#000000" stroke-opacity="1" stroke-width="0.6"/>
<circle clip-path="url(#clip392)" cx="292.771" cy="153.934" r="2" fill="#009af9" fill-rule="evenodd" fill-opacity="1" stroke="#000000" stroke-opacity="1" stroke-width="0.6"/>
<circle clip-path="url(#clip392)" cx="292.771" cy="132.011" r="2" fill="#009af9" fill-rule="evenodd" fill-opacity="1" stroke="#000000" stroke-opacity="1" stroke-width="0.6"/>
<circle clip-path="url(#clip392)" cx="293.492" cy="155.508" r="2" fill="#009af9" fill-rule="evenodd" fill-opacity="1" stroke="#000000" stroke-opacity="1" stroke-width="0.6"/>
<circle clip-path="url(#clip392)" cx="293.492" cy="130.438" r="2" fill="#009af9" fill-rule="evenodd" fill-opacity="1" stroke="#000000" stroke-opacity="1" stroke-width="0.6"/>
<circle clip-path="url(#clip392)" cx="294.332" cy="157.129" r="2" fill="#009af9" fill-rule="evenodd" fill-opacity="1" stroke="#000000" stroke-opacity="1" stroke-width="0.6"/>
<circle clip-path="url(#clip392)" cx="294.332" cy="128.817" r="2" fill="#009af9" fill-rule="evenodd" fill-opacity="1" stroke="#000000" stroke-opacity="1" stroke-width="0.6"/>
<circle clip-path="url(#clip392)" cx="295.294" cy="158.822" r="2" fill="#009af9" fill-rule="evenodd" fill-opacity="1" stroke="#000000" stroke-opacity="1" stroke-width="0.6"/>
<circle clip-path="url(#clip392)" cx="295.294" cy="127.123" r="2" fill="#009af9" fill-rule="evenodd" fill-opacity="1" stroke="#000000" stroke-opacity="1" stroke-width="0.6"/>
<circle clip-path="url(#clip392)" cx="296.389" cy="160.613" r="2" fill="#009af9" fill-rule="evenodd" fill-opacity="1" stroke="#000000" stroke-opacity="1" stroke-width="0.6"/>
<circle clip-path="url(#clip392)" cx="296.389" cy="125.332" r="2" fill="#009af9" fill-rule="evenodd" fill-opacity="1" stroke="#000000" stroke-opacity="1" stroke-width="0.6"/>
<circle clip-path="url(#clip392)" cx="297.112" cy="197.077" r="2" fill="#009af9" fill-rule="evenodd" fill-opacity="1" stroke="#000000" stroke-opacity="1" stroke-width="0.6"/>
<circle clip-path="url(#clip392)" cx="297.112" cy="88.8686" r="2" fill="#009af9" fill-rule="evenodd" fill-opacity="1" stroke="#000000" stroke-opacity="1" stroke-width="0.6"/>
<circle clip-path="url(#clip392)" cx="297.627" cy="162.538" r="2" fill="#009af9" fill-rule="evenodd" fill-opacity="1" stroke="#000000" stroke-opacity="1" stroke-width="0.6"/>
<circle clip-path="url(#clip392)" cx="297.627" cy="123.407" r="2" fill="#009af9" fill-rule="evenodd" fill-opacity="1" stroke="#000000" stroke-opacity="1" stroke-width="0.6"/>
<circle clip-path="url(#clip392)" cx="299.01" cy="164.655" r="2" fill="#009af9" fill-rule="evenodd" fill-opacity="1" stroke="#000000" stroke-opacity="1" stroke-width="0.6"/>
<circle clip-path="url(#clip392)" cx="299.01" cy="121.291" r="2" fill="#009af9" fill-rule="evenodd" fill-opacity="1" stroke="#000000" stroke-opacity="1" stroke-width="0.6"/>
<circle clip-path="url(#clip392)" cx="300.524" cy="167.051" r="2" fill="#009af9" fill-rule="evenodd" fill-opacity="1" stroke="#000000" stroke-opacity="1" stroke-width="0.6"/>
<circle clip-path="url(#clip392)" cx="300.524" cy="118.895" r="2" fill="#009af9" fill-rule="evenodd" fill-opacity="1" stroke="#000000" stroke-opacity="1" stroke-width="0.6"/>
<circle clip-path="url(#clip392)" cx="301.387" cy="180.236" r="2" fill="#009af9" fill-rule="evenodd" fill-opacity="1" stroke="#000000" stroke-opacity="1" stroke-width="0.6"/>
<circle clip-path="url(#clip392)" cx="301.387" cy="105.709" r="2" fill="#009af9" fill-rule="evenodd" fill-opacity="1" stroke="#000000" stroke-opacity="1" stroke-width="0.6"/>
<circle clip-path="url(#clip392)" cx="302.102" cy="169.869" r="2" fill="#009af9" fill-rule="evenodd" fill-opacity="1" stroke="#000000" stroke-opacity="1" stroke-width="0.6"/>
<circle clip-path="url(#clip392)" cx="302.102" cy="116.076" r="2" fill="#009af9" fill-rule="evenodd" fill-opacity="1" stroke="#000000" stroke-opacity="1" stroke-width="0.6"/>
<circle clip-path="url(#clip392)" cx="302.923" cy="173.135" r="2" fill="#009af9" fill-rule="evenodd" fill-opacity="1" stroke="#000000" stroke-opacity="1" stroke-width="0.6"/>
<circle clip-path="url(#clip392)" cx="302.923" cy="112.81" r="2" fill="#009af9" fill-rule="evenodd" fill-opacity="1" stroke="#000000" stroke-opacity="1" stroke-width="0.6"/>
</svg>
