<?xml version="1.0" encoding="utf-8"?>
<svg xmlns="http://www.w3.org/2000/svg" xmlns:xlink="http://www.w3.org/1999/xlink" width="120" height="75" viewBox="0 0 480 300">
<defs>
  <clipPath id="clip350">
    <rect x="0" y="0" width="480" height="300"/>
  </clipPath>
</defs>
<path clip-path="url(#clip350)" d="
M0 300 L480 300 L480 0 L0 0  Z
  " fill="#ffffff" fill-rule="evenodd" fill-opacity="1"/>
<defs>
  <clipPath id="clip351">
    <rect x="96" y="0" width="337" height="300"/>
  </clipPath>
</defs>
<path clip-path="url(#clip350)" d="
M56.339 258.408 L468.189 258.408 L468.189 27.537 L56.339 27.537  Z
  " fill="#ffffff" fill-rule="evenodd" fill-opacity="1"/>
<defs>
  <clipPath id="clip352">
    <rect x="56" y="27" width="413" height="232"/>
  </clipPath>
</defs>
<polyline clip-path="url(#clip352)" style="stroke:#000000; stroke-width:0.5; stroke-opacity:0.1; fill:none" points="
  92.2787,258.408 92.2787,27.537 
  "/>
<polyline clip-path="url(#clip352)" style="stroke:#000000; stroke-width:0.5; stroke-opacity:0.1; fill:none" points="
  213.697,258.408 213.697,27.537 
  "/>
<polyline clip-path="url(#clip352)" style="stroke:#000000; stroke-width:0.5; stroke-opacity:0.1; fill:none" points="
  335.115,258.408 335.115,27.537 
  "/>
<polyline clip-path="url(#clip352)" style="stroke:#000000; stroke-width:0.5; stroke-opacity:0.1; fill:none" points="
  456.533,258.408 456.533,27.537 
  "/>
<polyline clip-path="url(#clip350)" style="stroke:#000000; stroke-width:1; stroke-opacity:1; fill:none" points="
  56.339,258.408 468.189,258.408 
  "/>
<polyline clip-path="url(#clip350)" style="stroke:#000000; stroke-width:1; stroke-opacity:1; fill:none" points="
  92.2787,258.408 92.2787,255.638 
  "/>
<polyline clip-path="url(#clip350)" style="stroke:#000000; stroke-width:1; stroke-opacity:1; fill:none" points="
  213.697,258.408 213.697,255.638 
  "/>
<polyline clip-path="url(#clip350)" style="stroke:#000000; stroke-width:1; stroke-opacity:1; fill:none" points="
  335.115,258.408 335.115,255.638 
  "/>
<polyline clip-path="url(#clip350)" style="stroke:#000000; stroke-width:1; stroke-opacity:1; fill:none" points="
  456.533,258.408 456.533,255.638 
  "/>
<path clip-path="url(#clip350)" d="M 0 0 M78.5201 268.409 L85.939 268.409 L85.939 269.393 L78.5201 269.393 L78.5201 268.409 Z" fill="#000000" fill-rule="evenodd" fill-opacity="1" /><path clip-path="url(#clip350)" d="M 0 0 M90.748 267.958 Q91.5872 268.137 92.0559 268.704 Q92.5304 269.271 92.5304 270.105 Q92.5304 271.384 91.6508 272.084 Q90.7712 272.784 89.1508 272.784 Q88.6068 272.784 88.0281 272.674 Q87.4552 272.57 86.8418 272.356 L86.8418 271.227 Q87.3279 271.511 87.9066 271.656 Q88.4853 271.8 89.1161 271.8 Q90.2156 271.8 90.7885 271.366 Q91.3672 270.932 91.3672 270.105 Q91.3672 269.341 90.8291 268.913 Q90.2967 268.479 89.3418 268.479 L88.3349 268.479 L88.3349 267.518 L89.3881 267.518 Q90.2504 267.518 90.7075 267.177 Q91.1647 266.829 91.1647 266.181 Q91.1647 265.516 90.6902 265.163 Q90.2214 264.804 89.3418 264.804 Q88.8615 264.804 88.3117 264.908 Q87.7619 265.012 87.1022 265.232 L87.1022 264.19 Q87.7677 264.005 88.3464 263.913 Q88.9309 263.82 89.446 263.82 Q90.777 263.82 91.5524 264.428 Q92.3279 265.03 92.3279 266.06 Q92.3279 266.777 91.917 267.275 Q91.5061 267.767 90.748 267.958 Z" fill="#000000" fill-rule="evenodd" fill-opacity="1" /><path clip-path="url(#clip350)" d="M 0 0 M96.2978 264.746 Q95.395 264.746 94.9378 265.637 Q94.4864 266.523 94.4864 268.305 Q94.4864 270.082 94.9378 270.973 Q95.395 271.858 96.2978 271.858 Q97.2063 271.858 97.6577 270.973 Q98.1149 270.082 98.1149 268.305 Q98.1149 266.523 97.6577 265.637 Q97.2063 264.746 96.2978 264.746 M96.2978 263.82 Q97.7503 263.82 98.5142 264.972 Q99.2839 266.118 99.2839 268.305 Q99.2839 270.487 98.5142 271.638 Q97.7503 272.784 96.2978 272.784 Q94.8452 272.784 94.0756 271.638 Q93.3117 270.487 93.3117 268.305 Q93.3117 266.118 94.0756 264.972 Q94.8452 263.82 96.2978 263.82 Z" fill="#000000" fill-rule="evenodd" fill-opacity="1" /><path clip-path="url(#clip350)" d="M 0 0 M103.051 264.746 Q102.148 264.746 101.691 265.637 Q101.24 266.523 101.24 268.305 Q101.24 270.082 101.691 270.973 Q102.148 271.858 103.051 271.858 Q103.96 271.858 104.411 270.973 Q104.868 270.082 104.868 268.305 Q104.868 266.523 104.411 265.637 Q103.96 264.746 103.051 264.746 M103.051 263.82 Q104.504 263.82 105.268 264.972 Q106.037 266.118 106.037 268.305 Q106.037 270.487 105.268 271.638 Q104.504 272.784 103.051 272.784 Q101.599 272.784 100.829 271.638 Q100.065 270.487 100.065 268.305 Q100.065 266.118 100.829 264.972 Q101.599 263.82 103.051 263.82 Z" fill="#000000" fill-rule="evenodd" fill-opacity="1" /><path clip-path="url(#clip350)" d="M 0 0 M200.057 268.409 L207.476 268.409 L207.476 269.393 L200.057 269.393 L200.057 268.409 Z" fill="#000000" fill-rule="evenodd" fill-opacity="1" /><path clip-path="url(#clip350)" d="M 0 0 M209.75 271.633 L213.83 271.633 L213.83 272.616 L208.344 272.616 L208.344 271.633 Q209.009 270.944 210.155 269.787 Q211.307 268.623 211.602 268.288 Q212.163 267.657 212.383 267.223 Q212.609 266.783 212.609 266.361 Q212.609 265.672 212.123 265.238 Q211.642 264.804 210.867 264.804 Q210.317 264.804 209.704 264.995 Q209.096 265.186 208.402 265.574 L208.402 264.393 Q209.108 264.109 209.721 263.965 Q210.334 263.82 210.844 263.82 Q212.186 263.82 212.985 264.491 Q213.784 265.163 213.784 266.285 Q213.784 266.818 213.581 267.298 Q213.384 267.773 212.858 268.421 Q212.713 268.589 211.938 269.393 Q211.162 270.192 209.75 271.633 Z" fill="#000000" fill-rule="evenodd" fill-opacity="1" /><path clip-path="url(#clip350)" d="M 0 0 M217.597 264.746 Q216.694 264.746 216.237 265.637 Q215.786 266.523 215.786 268.305 Q215.786 270.082 216.237 270.973 Q216.694 271.858 217.597 271.858 Q218.506 271.858 218.957 270.973 Q219.414 270.082 219.414 268.305 Q219.414 266.523 218.957 265.637 Q218.506 264.746 217.597 264.746 M217.597 263.82 Q219.05 263.82 219.814 264.972 Q220.583 266.118 220.583 268.305 Q220.583 270.487 219.814 271.638 Q219.05 272.784 217.597 272.784 Q216.145 272.784 215.375 271.638 Q214.611 270.487 214.611 268.305 Q214.611 266.118 215.375 264.972 Q216.145 263.82 217.597 263.82 Z" fill="#000000" fill-rule="evenodd" fill-opacity="1" /><path clip-path="url(#clip350)" d="M 0 0 M224.351 264.746 Q223.448 264.746 222.991 265.637 Q222.539 266.523 222.539 268.305 Q222.539 270.082 222.991 270.973 Q223.448 271.858 224.351 271.858 Q225.259 271.858 225.711 270.973 Q226.168 270.082 226.168 268.305 Q226.168 266.523 225.711 265.637 Q225.259 264.746 224.351 264.746 M224.351 263.82 Q225.803 263.82 226.567 264.972 Q227.337 266.118 227.337 268.305 Q227.337 270.487 226.567 271.638 Q225.803 272.784 224.351 272.784 Q222.898 272.784 222.128 271.638 Q221.365 270.487 221.365 268.305 Q221.365 266.118 222.128 264.972 Q222.898 263.82 224.351 263.82 Z" fill="#000000" fill-rule="evenodd" fill-opacity="1" /><path clip-path="url(#clip350)" d="M 0 0 M321.429 268.409 L328.847 268.409 L328.847 269.393 L321.429 269.393 L321.429 268.409 Z" fill="#000000" fill-rule="evenodd" fill-opacity="1" /><path clip-path="url(#clip350)" d="M 0 0 M330.317 271.633 L332.227 271.633 L332.227 265.041 L330.15 265.458 L330.15 264.393 L332.216 263.976 L333.384 263.976 L333.384 271.633 L335.294 271.633 L335.294 272.616 L330.317 272.616 L330.317 271.633 Z" fill="#000000" fill-rule="evenodd" fill-opacity="1" /><path clip-path="url(#clip350)" d="M 0 0 M339.062 264.746 Q338.159 264.746 337.702 265.637 Q337.25 266.523 337.25 268.305 Q337.25 270.082 337.702 270.973 Q338.159 271.858 339.062 271.858 Q339.97 271.858 340.421 270.973 Q340.879 270.082 340.879 268.305 Q340.879 266.523 340.421 265.637 Q339.97 264.746 339.062 264.746 M339.062 263.82 Q340.514 263.82 341.278 264.972 Q342.048 266.118 342.048 268.305 Q342.048 270.487 341.278 271.638 Q340.514 272.784 339.062 272.784 Q337.609 272.784 336.839 271.638 Q336.075 270.487 336.075 268.305 Q336.075 266.118 336.839 264.972 Q337.609 263.82 339.062 263.82 Z" fill="#000000" fill-rule="evenodd" fill-opacity="1" /><path clip-path="url(#clip350)" d="M 0 0 M345.815 264.746 Q344.912 264.746 344.455 265.637 Q344.004 266.523 344.004 268.305 Q344.004 270.082 344.455 270.973 Q344.912 271.858 345.815 271.858 Q346.724 271.858 347.175 270.973 Q347.632 270.082 347.632 268.305 Q347.632 266.523 347.175 265.637 Q346.724 264.746 345.815 264.746 M345.815 263.82 Q347.268 263.82 348.031 264.972 Q348.801 266.118 348.801 268.305 Q348.801 270.487 348.031 271.638 Q347.268 272.784 345.815 272.784 Q344.362 272.784 343.593 271.638 Q342.829 270.487 342.829 268.305 Q342.829 266.118 343.593 264.972 Q344.362 263.82 345.815 263.82 Z" fill="#000000" fill-rule="evenodd" fill-opacity="1" /><path clip-path="url(#clip350)" d="M 0 0 M456.533 264.746 Q455.63 264.746 455.173 265.637 Q454.722 266.523 454.722 268.305 Q454.722 270.082 455.173 270.973 Q455.63 271.858 456.533 271.858 Q457.441 271.858 457.893 270.973 Q458.35 270.082 458.35 268.305 Q458.35 266.523 457.893 265.637 Q457.441 264.746 456.533 264.746 M456.533 263.82 Q457.985 263.82 458.749 264.972 Q459.519 266.118 459.519 268.305 Q459.519 270.487 458.749 271.638 Q457.985 272.784 456.533 272.784 Q455.08 272.784 454.311 271.638 Q453.547 270.487 453.547 268.305 Q453.547 266.118 454.311 264.972 Q455.08 263.82 456.533 263.82 Z" fill="#000000" fill-rule="evenodd" fill-opacity="1" /><g clip-path="url(#clip350)">
<text style="fill:#000000; fill-opacity:1; font-family:Arial,Helvetica Neue,Helvetica,sans-serif; font-size:16px; text-anchor:middle;" transform="rotate(0, 262.264, 293.459)" x="262.264" y="293.459">Re ζ</text>
</g>
<polyline clip-path="url(#clip352)" style="stroke:#000000; stroke-width:0.5; stroke-opacity:0.1; fill:none" points="
  56.339,234.036 468.189,234.036 
  "/>
<polyline clip-path="url(#clip352)" style="stroke:#000000; stroke-width:0.5; stroke-opacity:0.1; fill:none" points="
  56.339,203.682 468.189,203.682 
  "/>
<polyline clip-path="url(#clip352)" style="stroke:#000000; stroke-width:0.5; stroke-opacity:0.1; fill:none" points="
  56.339,173.327 468.189,173.327 
  "/>
<polyline clip-path="url(#clip352)" style="stroke:#000000; stroke-width:0.5; stroke-opacity:0.1; fill:none" points="
  56.339,142.973 468.189,142.973 
  "/>
<polyline clip-path="url(#clip352)" style="stroke:#000000; stroke-width:0.5; stroke-opacity:0.1; fill:none" points="
  56.339,112.618 468.189,112.618 
  "/>
<polyline clip-path="url(#clip352)" style="stroke:#000000; stroke-width:0.5; stroke-opacity:0.1; fill:none" points="
  56.339,82.2637 468.189,82.2637 
  "/>
<polyline clip-path="url(#clip352)" style="stroke:#000000; stroke-width:0.5; stroke-opacity:0.1; fill:none" points="
  56.339,51.9092 468.189,51.9092 
  "/>
<polyline clip-path="url(#clip350)" style="stroke:#000000; stroke-width:1; stroke-opacity:1; fill:none" points="
  56.339,258.408 56.339,27.537 
  "/>
<polyline clip-path="url(#clip350)" style="stroke:#000000; stroke-width:1; stroke-opacity:1; fill:none" points="
  56.339,234.036 61.2812,234.036 
  "/>
<polyline clip-path="url(#clip350)" style="stroke:#000000; stroke-width:1; stroke-opacity:1; fill:none" points="
  56.339,203.682 61.2812,203.682 
  "/>
<polyline clip-path="url(#clip350)" style="stroke:#000000; stroke-width:1; stroke-opacity:1; fill:none" points="
  56.339,173.327 61.2812,173.327 
  "/>
<polyline clip-path="url(#clip350)" style="stroke:#000000; stroke-width:1; stroke-opacity:1; fill:none" points="
  56.339,142.973 61.2812,142.973 
  "/>
<polyline clip-path="url(#clip350)" style="stroke:#000000; stroke-width:1; stroke-opacity:1; fill:none" points="
  56.339,112.618 61.2812,112.618 
  "/>
<polyline clip-path="url(#clip350)" style="stroke:#000000; stroke-width:1; stroke-opacity:1; fill:none" points="
  56.339,82.2637 61.2812,82.2637 
  "/>
<polyline clip-path="url(#clip350)" style="stroke:#000000; stroke-width:1; stroke-opacity:1; fill:none" points="
  56.339,51.9092 61.2812,51.9092 
  "/>
<path clip-path="url(#clip350)" d="M 0 0 M28.6877 234.149 L36.1066 234.149 L36.1066 235.133 L28.6877 235.133 L28.6877 234.149 Z" fill="#000000" fill-rule="evenodd" fill-opacity="1" /><path clip-path="url(#clip350)" d="M 0 0 M37.0788 229.716 L42.6344 229.716 L42.6344 230.214 L39.4978 238.356 L38.2768 238.356 L41.2281 230.7 L37.0788 230.7 L37.0788 229.716 Z" fill="#000000" fill-rule="evenodd" fill-opacity="1" /><path clip-path="url(#clip350)" d="M 0 0 M43.9133 229.716 L48.5024 229.716 L48.5024 230.7 L44.9839 230.7 L44.9839 232.818 Q45.2385 232.731 45.4931 232.691 Q45.7478 232.644 46.0024 232.644 Q47.4492 232.644 48.2941 233.437 Q49.139 234.23 49.139 235.584 Q49.139 236.979 48.2709 237.754 Q47.4029 238.524 45.823 238.524 Q45.279 238.524 44.7119 238.431 Q44.1506 238.339 43.5487 238.154 L43.5487 236.979 Q44.0695 237.262 44.6251 237.401 Q45.1806 237.54 45.7999 237.54 Q46.801 237.54 47.3855 237.014 Q47.97 236.487 47.97 235.584 Q47.97 234.681 47.3855 234.155 Q46.801 233.628 45.7999 233.628 Q45.3311 233.628 44.8624 233.732 Q44.3994 233.837 43.9133 234.056 L43.9133 229.716 Z" fill="#000000" fill-rule="evenodd" fill-opacity="1" /><path clip-path="url(#clip350)" d="M 0 0 M28.462 203.795 L35.8809 203.795 L35.8809 204.778 L28.462 204.778 L28.462 203.795 Z" fill="#000000" fill-rule="evenodd" fill-opacity="1" /><path clip-path="url(#clip350)" d="M 0 0 M37.1599 199.362 L41.749 199.362 L41.749 200.346 L38.2305 200.346 L38.2305 202.464 Q38.4851 202.377 38.7397 202.336 Q38.9943 202.29 39.249 202.29 Q40.6957 202.29 41.5406 203.083 Q42.3855 203.876 42.3855 205.23 Q42.3855 206.624 41.5175 207.4 Q40.6494 208.17 39.0696 208.17 Q38.5256 208.17 37.9585 208.077 Q37.3971 207.984 36.7953 207.799 L36.7953 206.624 Q37.3161 206.908 37.8717 207.047 Q38.4272 207.186 39.0464 207.186 Q40.0476 207.186 40.6321 206.659 Q41.2165 206.133 41.2165 205.23 Q41.2165 204.327 40.6321 203.8 Q40.0476 203.274 39.0464 203.274 Q38.5777 203.274 38.1089 203.378 Q37.646 203.482 37.1599 203.702 L37.1599 199.362 Z" fill="#000000" fill-rule="evenodd" fill-opacity="1" /><path clip-path="url(#clip350)" d="M 0 0 M46.1529 200.131 Q45.2501 200.131 44.7929 201.023 Q44.3415 201.908 44.3415 203.69 Q44.3415 205.467 44.7929 206.358 Q45.2501 207.244 46.1529 207.244 Q47.0614 207.244 47.5128 206.358 Q47.97 205.467 47.97 203.69 Q47.97 201.908 47.5128 201.023 Q47.0614 200.131 46.1529 200.131 M46.1529 199.205 Q47.6054 199.205 48.3693 200.357 Q49.139 201.503 49.139 203.69 Q49.139 205.872 48.3693 207.024 Q47.6054 208.17 46.1529 208.17 Q44.7003 208.17 43.9307 207.024 Q43.1668 205.872 43.1668 203.69 Q43.1668 201.503 43.9307 200.357 Q44.7003 199.205 46.1529 199.205 Z" fill="#000000" fill-rule="evenodd" fill-opacity="1" /><path clip-path="url(#clip350)" d="M 0 0 M28.8613 173.44 L36.2802 173.44 L36.2802 174.424 L28.8613 174.424 L28.8613 173.44 Z" fill="#000000" fill-rule="evenodd" fill-opacity="1" /><path clip-path="url(#clip350)" d="M 0 0 M38.5545 176.663 L42.6344 176.663 L42.6344 177.647 L37.1483 177.647 L37.1483 176.663 Q37.8138 175.975 38.9596 174.817 Q40.1112 173.654 40.4064 173.319 Q40.9677 172.688 41.1876 172.254 Q41.4133 171.814 41.4133 171.391 Q41.4133 170.703 40.9272 170.269 Q40.4469 169.835 39.6714 169.835 Q39.1217 169.835 38.5082 170.026 Q37.9006 170.217 37.2062 170.604 L37.2062 169.424 Q37.9122 169.14 38.5256 168.996 Q39.139 168.851 39.6483 168.851 Q40.9909 168.851 41.7895 169.522 Q42.5881 170.194 42.5881 171.316 Q42.5881 171.849 42.3855 172.329 Q42.1888 172.803 41.6621 173.452 Q41.5175 173.619 40.742 174.424 Q39.9666 175.222 38.5545 176.663 Z" fill="#000000" fill-rule="evenodd" fill-opacity="1" /><path clip-path="url(#clip350)" d="M 0 0 M43.9133 169.007 L48.5024 169.007 L48.5024 169.991 L44.9839 169.991 L44.9839 172.109 Q45.2385 172.022 45.4931 171.982 Q45.7478 171.935 46.0024 171.935 Q47.4492 171.935 48.2941 172.728 Q49.139 173.521 49.139 174.875 Q49.139 176.27 48.2709 177.045 Q47.4029 177.815 45.823 177.815 Q45.279 177.815 44.7119 177.722 Q44.1506 177.63 43.5487 177.445 L43.5487 176.27 Q44.0695 176.553 44.6251 176.692 Q45.1806 176.831 45.7999 176.831 Q46.801 176.831 47.3855 176.305 Q47.97 175.778 47.97 174.875 Q47.97 173.972 47.3855 173.446 Q46.801 172.919 45.7999 172.919 Q45.3311 172.919 44.8624 173.023 Q44.3994 173.128 43.9133 173.347 L43.9133 169.007 Z" fill="#000000" fill-rule="evenodd" fill-opacity="1" /><path clip-path="url(#clip350)" d="M 0 0 M46.1529 139.422 Q45.2501 139.422 44.7929 140.314 Q44.3415 141.199 44.3415 142.981 Q44.3415 144.758 44.7929 145.649 Q45.2501 146.535 46.1529 146.535 Q47.0614 146.535 47.5128 145.649 Q47.97 144.758 47.97 142.981 Q47.97 141.199 47.5128 140.314 Q47.0614 139.422 46.1529 139.422 M46.1529 138.496 Q47.6054 138.496 48.3693 139.648 Q49.139 140.794 49.139 142.981 Q49.139 145.163 48.3693 146.315 Q47.6054 147.461 46.1529 147.461 Q44.7003 147.461 43.9307 146.315 Q43.1668 145.163 43.1668 142.981 Q43.1668 140.794 43.9307 139.648 Q44.7003 138.496 46.1529 138.496 Z" fill="#000000" fill-rule="evenodd" fill-opacity="1" /><path clip-path="url(#clip350)" d="M 0 0 M38.5545 115.954 L42.6344 115.954 L42.6344 116.938 L37.1483 116.938 L37.1483 115.954 Q37.8138 115.266 38.9596 114.108 Q40.1112 112.945 40.4064 112.61 Q40.9677 111.979 41.1876 111.545 Q41.4133 111.105 41.4133 110.682 Q41.4133 109.994 40.9272 109.56 Q40.4469 109.126 39.6714 109.126 Q39.1217 109.126 38.5082 109.317 Q37.9006 109.508 37.2062 109.895 L37.2062 108.715 Q37.9122 108.431 38.5256 108.287 Q39.139 108.142 39.6483 108.142 Q40.9909 108.142 41.7895 108.813 Q42.5881 109.485 42.5881 110.607 Q42.5881 111.14 42.3855 111.62 Q42.1888 112.094 41.6621 112.743 Q41.5175 112.91 40.742 113.715 Q39.9666 114.513 38.5545 115.954 Z" fill="#000000" fill-rule="evenodd" fill-opacity="1" /><path clip-path="url(#clip350)" d="M 0 0 M43.9133 108.298 L48.5024 108.298 L48.5024 109.282 L44.9839 109.282 L44.9839 111.4 Q45.2385 111.313 45.4931 111.273 Q45.7478 111.226 46.0024 111.226 Q47.4492 111.226 48.2941 112.019 Q49.139 112.812 49.139 114.166 Q49.139 115.561 48.2709 116.336 Q47.4029 117.106 45.823 117.106 Q45.279 117.106 44.7119 117.013 Q44.1506 116.921 43.5487 116.736 L43.5487 115.561 Q44.0695 115.844 44.6251 115.983 Q45.1806 116.122 45.7999 116.122 Q46.801 116.122 47.3855 115.596 Q47.97 115.069 47.97 114.166 Q47.97 113.263 47.3855 112.737 Q46.801 112.21 45.7999 112.21 Q45.3311 112.21 44.8624 112.314 Q44.3994 112.419 43.9133 112.638 L43.9133 108.298 Z" fill="#000000" fill-rule="evenodd" fill-opacity="1" /><path clip-path="url(#clip350)" d="M 0 0 M37.1599 77.9437 L41.749 77.9437 L41.749 78.9275 L38.2305 78.9275 L38.2305 81.0455 Q38.4851 80.9587 38.7397 80.9182 Q38.9943 80.8719 39.249 80.8719 Q40.6957 80.8719 41.5406 81.6647 Q42.3855 82.4575 42.3855 83.8117 Q42.3855 85.2064 41.5175 85.9818 Q40.6494 86.7515 39.0696 86.7515 Q38.5256 86.7515 37.9585 86.6589 Q37.3971 86.5663 36.7953 86.3811 L36.7953 85.2064 Q37.3161 85.4899 37.8717 85.6288 Q38.4272 85.7677 39.0464 85.7677 Q40.0476 85.7677 40.6321 85.2411 Q41.2165 84.7145 41.2165 83.8117 Q41.2165 82.9089 40.6321 82.3823 Q40.0476 81.8557 39.0464 81.8557 Q38.5777 81.8557 38.1089 81.9599 Q37.646 82.064 37.1599 82.2839 L37.1599 77.9437 Z" fill="#000000" fill-rule="evenodd" fill-opacity="1" /><path clip-path="url(#clip350)" d="M 0 0 M46.1529 78.7134 Q45.2501 78.7134 44.7929 79.6046 Q44.3415 80.49 44.3415 82.2724 Q44.3415 84.049 44.7929 84.9402 Q45.2501 85.8256 46.1529 85.8256 Q47.0614 85.8256 47.5128 84.9402 Q47.97 84.049 47.97 82.2724 Q47.97 80.49 47.5128 79.6046 Q47.0614 78.7134 46.1529 78.7134 M46.1529 77.7874 Q47.6054 77.7874 48.3693 78.939 Q49.139 80.0849 49.139 82.2724 Q49.139 84.4541 48.3693 85.6057 Q47.6054 86.7515 46.1529 86.7515 Q44.7003 86.7515 43.9307 85.6057 Q43.1668 84.4541 43.1668 82.2724 Q43.1668 80.0849 43.9307 78.939 Q44.7003 77.7874 46.1529 77.7874 Z" fill="#000000" fill-rule="evenodd" fill-opacity="1" /><path clip-path="url(#clip350)" d="M 0 0 M37.0788 47.5892 L42.6344 47.5892 L42.6344 48.0869 L39.4978 56.2292 L38.2768 56.2292 L41.2281 48.573 L37.0788 48.573 L37.0788 47.5892 Z" fill="#000000" fill-rule="evenodd" fill-opacity="1" /><path clip-path="url(#clip350)" d="M 0 0 M43.9133 47.5892 L48.5024 47.5892 L48.5024 48.573 L44.9839 48.573 L44.9839 50.691 Q45.2385 50.6042 45.4931 50.5637 Q45.7478 50.5174 46.0024 50.5174 Q47.4492 50.5174 48.2941 51.3102 Q49.139 52.103 49.139 53.4572 Q49.139 54.8519 48.2709 55.6273 Q47.4029 56.397 45.823 56.397 Q45.279 56.397 44.7119 56.3044 Q44.1506 56.2118 43.5487 56.0266 L43.5487 54.8519 Q44.0695 55.1354 44.6251 55.2743 Q45.1806 55.4132 45.7999 55.4132 Q46.801 55.4132 47.3855 54.8866 Q47.97 54.36 47.97 53.4572 Q47.97 52.5544 47.3855 52.0278 Q46.801 51.5012 45.7999 51.5012 Q45.3311 51.5012 44.8624 51.6054 Q44.3994 51.7095 43.9133 51.9294 L43.9133 47.5892 Z" fill="#000000" fill-rule="evenodd" fill-opacity="1" /><g clip-path="url(#clip350)">
<text style="fill:#000000; fill-opacity:1; font-family:Arial,Helvetica Neue,Helvetica,sans-serif; font-size:16px; text-anchor:middle;" transform="rotate(-90, 18.3715, 142.973)" x="18.3715" y="142.973">Im ζ</text>
</g>
<g clip-path="url(#clip350)">
<text style="fill:#000000; fill-opacity:1; font-family:Arial,Helvetica Neue,Helvetica,sans-serif; font-size:18px; font-weight:bold; text-anchor:middle;" transform="rotate(0, 262.264, 15.6)" x="262.264" y="15.6">Eigenvalues for advection-diffusion</text>
</g>
<path clip-path="url(#clip352)" d="M448.762 146.973 L445.934 145.801 L444.762 142.973 L445.934 140.145 L448.762 138.973 L451.59 140.145 L452.762 142.973 L451.59 145.801 Z" fill="#009af9" fill-rule="evenodd" fill-opacity="1" stroke="#000000" stroke-opacity="1" stroke-width="0.6"/>
<path clip-path="url(#clip352)" d="M448.81 154.57 L445.982 153.398 L444.81 150.57 L445.982 147.742 L448.81 146.57 L451.638 147.742 L452.81 150.57 L451.638 153.398 Z" fill="#009af9" fill-rule="evenodd" fill-opacity="1" stroke="#000000" stroke-opacity="1" stroke-width="0.6"/>
<path clip-path="url(#clip352)" d="M448.81 139.375 L445.982 138.203 L444.81 135.375 L445.982 132.547 L448.81 131.375 L451.638 132.547 L452.81 135.375 L451.638 138.203 Z" fill="#009af9" fill-rule="evenodd" fill-opacity="1" stroke="#000000" stroke-opacity="1" stroke-width="0.6"/>
<path clip-path="url(#clip352)" d="M448.952 161.981 L446.124 160.809 L444.952 157.981 L446.124 155.153 L448.952 153.981 L451.78 155.153 L452.952 157.981 L451.78 160.809 Z" fill="#009af9" fill-rule="evenodd" fill-opacity="1" stroke="#000000" stroke-opacity="1" stroke-width="0.6"/>
<path clip-path="url(#clip352)" d="M448.952 131.965 L446.124 130.793 L444.952 127.965 L446.124 125.137 L448.952 123.965 L451.78 125.137 L452.952 127.965 L451.78 130.793 Z" fill="#009af9" fill-rule="evenodd" fill-opacity="1" stroke="#000000" stroke-opacity="1" stroke-width="0.6"/>
<path clip-path="url(#clip352)" d="M449.186 169.022 L446.358 167.85 L445.186 165.022 L446.358 162.194 L449.186 161.022 L452.014 162.194 L453.186 165.022 L452.014 167.85 Z" fill="#009af9" fill-rule="evenodd" fill-opacity="1" stroke="#000000" stroke-opacity="1" stroke-width="0.6"/>
<path clip-path="url(#clip352)" d="M449.186 124.924 L446.358 123.752 L445.186 120.924 L446.358 118.096 L449.186 116.924 L452.014 118.096 L453.186 120.924 L452.014 123.752 Z" fill="#009af9" fill-rule="evenodd" fill-opacity="1" stroke="#000000" stroke-opacity="1" stroke-width="0.6"/>
<path clip-path="url(#clip352)" d="M449.504 175.52 L446.676 174.348 L445.504 171.52 L446.676 168.692 L449.504 167.52 L452.332 168.692 L453.504 171.52 L452.332 174.348 Z" fill="#009af9" fill-rule="evenodd" fill-opacity="1" stroke="#000000" stroke-opacity="1" stroke-width="0.6"/>
<path clip-path="url(#clip352)" d="M449.504 118.426 L446.676 117.254 L445.504 114.426 L446.676 111.598 L449.504 110.426 L452.332 111.598 L453.504 114.426 L452.332 117.254 Z" fill="#009af9" fill-rule="evenodd" fill-opacity="1" stroke="#000000" stroke-opacity="1" stroke-width="0.6"/>
<path clip-path="url(#clip352)" d="M449.9 181.315 L447.072 180.143 L445.9 177.315 L447.072 174.487 L449.9 173.315 L452.728 174.487 L453.9 177.315 L452.728 180.143 Z" fill="#009af9" fill-rule="evenodd" fill-opacity="1" stroke="#000000" stroke-opacity="1" stroke-width="0.6"/>
<path clip-path="url(#clip352)" d="M449.9 112.63 L447.072 111.458 L445.9 108.63 L447.072 105.802 L449.9 104.63 L452.728 105.802 L453.9 108.63 L452.728 111.458 Z" fill="#009af9" fill-rule="evenodd" fill-opacity="1" stroke="#000000" stroke-opacity="1" stroke-width="0.6"/>
<path clip-path="url(#clip352)" d="M450.364 186.264 L447.536 185.092 L446.364 182.264 L447.536 179.436 L450.364 178.264 L453.192 179.436 L454.364 182.264 L453.192 185.092 Z" fill="#009af9" fill-rule="evenodd" fill-opacity="1" stroke="#000000" stroke-opacity="1" stroke-width="0.6"/>
<path clip-path="url(#clip352)" d="M450.364 107.681 L447.536 106.509 L446.364 103.681 L447.536 100.853 L450.364 99.681 L453.192 100.853 L454.364 103.681 L453.192 106.509 Z" fill="#009af9" fill-rule="evenodd" fill-opacity="1" stroke="#000000" stroke-opacity="1" stroke-width="0.6"/>
<path clip-path="url(#clip352)" d="M450.884 190.246 L448.056 189.074 L446.884 186.246 L448.056 183.418 L450.884 182.246 L453.712 183.418 L454.884 186.246 L453.712 189.074 Z" fill="#009af9" fill-rule="evenodd" fill-opacity="1" stroke="#000000" stroke-opacity="1" stroke-width="0.6"/>
<path clip-path="url(#clip352)" d="M450.884 103.699 L448.056 102.527 L446.884 99.699 L448.056 96.871 L450.884 95.699 L453.712 96.871 L454.884 99.699 L453.712 102.527 Z" fill="#009af9" fill-rule="evenodd" fill-opacity="1" stroke="#000000" stroke-opacity="1" stroke-width="0.6"/>
<path clip-path="url(#clip352)" d="M451.447 193.163 L448.619 191.991 L447.447 189.163 L448.619 186.335 L451.447 185.163 L454.275 186.335 L455.447 189.163 L454.275 191.991 Z" fill="#009af9" fill-rule="evenodd" fill-opacity="1" stroke="#000000" stroke-opacity="1" stroke-width="0.6"/>
<path clip-path="url(#clip352)" d="M451.447 100.783 L448.619 99.6105 L447.447 96.7825 L448.619 93.9545 L451.447 92.7825 L454.275 93.9545 L455.447 96.7825 L454.275 99.6105 Z" fill="#009af9" fill-rule="evenodd" fill-opacity="1" stroke="#000000" stroke-opacity="1" stroke-width="0.6"/>
<path clip-path="url(#clip352)" d="M452.04 194.942 L449.212 193.77 L448.04 190.942 L449.212 188.114 L452.04 186.942 L454.868 188.114 L456.04 190.942 L454.868 193.77 Z" fill="#009af9" fill-rule="evenodd" fill-opacity="1" stroke="#000000" stroke-opacity="1" stroke-width="0.6"/>
<path clip-path="url(#clip352)" d="M452.04 99.0034 L449.212 97.8314 L448.04 95.0034 L449.212 92.1754 L452.04 91.0034 L454.868 92.1754 L456.04 95.0034 L454.868 97.8314 Z" fill="#009af9" fill-rule="evenodd" fill-opacity="1" stroke="#000000" stroke-opacity="1" stroke-width="0.6"/>
<path clip-path="url(#clip352)" d="M452.647 195.54 L449.819 194.368 L448.647 191.54 L449.819 188.712 L452.647 187.54 L455.475 188.712 L456.647 191.54 L455.475 194.368 Z" fill="#009af9" fill-rule="evenodd" fill-opacity="1" stroke="#000000" stroke-opacity="1" stroke-width="0.6"/>
<path clip-path="url(#clip352)" d="M452.647 98.4055 L449.819 97.2335 L448.647 94.4055 L449.819 91.5775 L452.647 90.4055 L455.475 91.5775 L456.647 94.4055 L455.475 97.2335 Z" fill="#009af9" fill-rule="evenodd" fill-opacity="1" stroke="#000000" stroke-opacity="1" stroke-width="0.6"/>
<path clip-path="url(#clip352)" d="M453.255 194.942 L450.427 193.77 L449.255 190.942 L450.427 188.114 L453.255 186.942 L456.083 188.114 L457.255 190.942 L456.083 193.77 Z" fill="#009af9" fill-rule="evenodd" fill-opacity="1" stroke="#000000" stroke-opacity="1" stroke-width="0.6"/>
<path clip-path="url(#clip352)" d="M453.255 99.0034 L450.427 97.8314 L449.255 95.0034 L450.427 92.1754 L453.255 91.0034 L456.083 92.1754 L457.255 95.0034 L456.083 97.8314 Z" fill="#009af9" fill-rule="evenodd" fill-opacity="1" stroke="#000000" stroke-opacity="1" stroke-width="0.6"/>
<path clip-path="url(#clip352)" d="M453.848 193.163 L451.02 191.991 L449.848 189.163 L451.02 186.335 L453.848 185.163 L456.676 186.335 L457.848 189.163 L456.676 191.991 Z" fill="#009af9" fill-rule="evenodd" fill-opacity="1" stroke="#000000" stroke-opacity="1" stroke-width="0.6"/>
<path clip-path="url(#clip352)" d="M453.848 100.783 L451.02 99.6105 L449.848 96.7825 L451.02 93.9545 L453.848 92.7825 L456.676 93.9545 L457.848 96.7825 L456.676 99.6105 Z" fill="#009af9" fill-rule="evenodd" fill-opacity="1" stroke="#000000" stroke-opacity="1" stroke-width="0.6"/>
<path clip-path="url(#clip352)" d="M454.411 190.246 L451.583 189.074 L450.411 186.246 L451.583 183.418 L454.411 182.246 L457.239 183.418 L458.411 186.246 L457.239 189.074 Z" fill="#009af9" fill-rule="evenodd" fill-opacity="1" stroke="#000000" stroke-opacity="1" stroke-width="0.6"/>
<path clip-path="url(#clip352)" d="M454.411 103.699 L451.583 102.527 L450.411 99.699 L451.583 96.871 L454.411 95.699 L457.239 96.871 L458.411 99.699 L457.239 102.527 Z" fill="#009af9" fill-rule="evenodd" fill-opacity="1" stroke="#000000" stroke-opacity="1" stroke-width="0.6"/>
<path clip-path="url(#clip352)" d="M454.931 186.264 L452.103 185.092 L450.931 182.264 L452.103 179.436 L454.931 178.264 L457.759 179.436 L458.931 182.264 L457.759 185.092 Z" fill="#009af9" fill-rule="evenodd" fill-opacity="1" stroke="#000000" stroke-opacity="1" stroke-width="0.6"/>
<path clip-path="url(#clip352)" d="M454.931 107.681 L452.103 106.509 L450.931 103.681 L452.103 100.853 L454.931 99.681 L457.759 100.853 L458.931 103.681 L457.759 106.509 Z" fill="#009af9" fill-rule="evenodd" fill-opacity="1" stroke="#000000" stroke-opacity="1" stroke-width="0.6"/>
<path clip-path="url(#clip352)" d="M455.395 181.315 L452.567 180.143 L451.395 177.315 L452.567 174.487 L455.395 173.315 L458.223 174.487 L459.395 177.315 L458.223 180.143 Z" fill="#009af9" fill-rule="evenodd" fill-opacity="1" stroke="#000000" stroke-opacity="1" stroke-width="0.6"/>
<path clip-path="url(#clip352)" d="M455.395 112.63 L452.567 111.458 L451.395 108.63 L452.567 105.802 L455.395 104.63 L458.223 105.802 L459.395 108.63 L458.223 111.458 Z" fill="#009af9" fill-rule="evenodd" fill-opacity="1" stroke="#000000" stroke-opacity="1" stroke-width="0.6"/>
<path clip-path="url(#clip352)" d="M455.791 175.52 L452.963 174.348 L451.791 171.52 L452.963 168.692 L455.791 167.52 L458.619 168.692 L459.791 171.52 L458.619 174.348 Z" fill="#009af9" fill-rule="evenodd" fill-opacity="1" stroke="#000000" stroke-opacity="1" stroke-width="0.6"/>
<path clip-path="url(#clip352)" d="M455.791 118.426 L452.963 117.254 L451.791 114.426 L452.963 111.598 L455.791 110.426 L458.619 111.598 L459.791 114.426 L458.619 117.254 Z" fill="#009af9" fill-rule="evenodd" fill-opacity="1" stroke="#000000" stroke-opacity="1" stroke-width="0.6"/>
<path clip-path="url(#clip352)" d="M456.109 169.022 L453.281 167.85 L452.109 165.022 L453.281 162.194 L456.109 161.022 L458.937 162.194 L460.109 165.022 L458.937 167.85 Z" fill="#009af9" fill-rule="evenodd" fill-opacity="1" stroke="#000000" stroke-opacity="1" stroke-width="0.6"/>
<path clip-path="url(#clip352)" d="M456.109 124.924 L453.281 123.752 L452.109 120.924 L453.281 118.096 L456.109 116.924 L458.937 118.096 L460.109 120.924 L458.937 123.752 Z" fill="#009af9" fill-rule="evenodd" fill-opacity="1" stroke="#000000" stroke-opacity="1" stroke-width="0.6"/>
<path clip-path="url(#clip352)" d="M456.343 161.981 L453.515 160.809 L452.343 157.981 L453.515 155.153 L456.343 153.981 L459.171 155.153 L460.343 157.981 L459.171 160.809 Z" fill="#009af9" fill-rule="evenodd" fill-opacity="1" stroke="#000000" stroke-opacity="1" stroke-width="0.6"/>
<path clip-path="url(#clip352)" d="M456.343 131.965 L453.515 130.793 L452.343 127.965 L453.515 125.137 L456.343 123.965 L459.171 125.137 L460.343 127.965 L459.171 130.793 Z" fill="#009af9" fill-rule="evenodd" fill-opacity="1" stroke="#000000" stroke-opacity="1" stroke-width="0.6"/>
<path clip-path="url(#clip352)" d="M456.485 154.57 L453.657 153.398 L452.485 150.57 L453.657 147.742 L456.485 146.57 L459.313 147.742 L460.485 150.57 L459.313 153.398 Z" fill="#009af9" fill-rule="evenodd" fill-opacity="1" stroke="#000000" stroke-opacity="1" stroke-width="0.6"/>
<path clip-path="url(#clip352)" d="M456.485 139.375 L453.657 138.203 L452.485 135.375 L453.657 132.547 L456.485 131.375 L459.313 132.547 L460.485 135.375 L459.313 138.203 Z" fill="#009af9" fill-rule="evenodd" fill-opacity="1" stroke="#000000" stroke-opacity="1" stroke-width="0.6"/>
<path clip-path="url(#clip352)" d="M456.533 146.973 L453.705 145.801 L452.533 142.973 L453.705 140.145 L456.533 138.973 L459.361 140.145 L460.533 142.973 L459.361 145.801 Z" fill="#009af9" fill-rule="evenodd" fill-opacity="1" stroke="#000000" stroke-opacity="1" stroke-width="0.6"/>
<path clip-path="url(#clip352)" d="M378.825 146.973 L375.997 145.801 L374.825 142.973 L375.997 140.145 L378.825 138.973 L381.653 140.145 L382.825 142.973 L381.653 145.801 Z" fill="#e26f46" fill-rule="evenodd" fill-opacity="1" stroke="#000000" stroke-opacity="1" stroke-width="0.6"/>
<path clip-path="url(#clip352)" d="M379.304 154.57 L376.476 153.398 L375.304 150.57 L376.476 147.742 L379.304 146.57 L382.132 147.742 L383.304 150.57 L382.132 153.398 Z" fill="#e26f46" fill-rule="evenodd" fill-opacity="1" stroke="#000000" stroke-opacity="1" stroke-width="0.6"/>
<path clip-path="url(#clip352)" d="M379.304 139.375 L376.476 138.203 L375.304 135.375 L376.476 132.547 L379.304 131.375 L382.132 132.547 L383.304 135.375 L382.132 138.203 Z" fill="#e26f46" fill-rule="evenodd" fill-opacity="1" stroke="#000000" stroke-opacity="1" stroke-width="0.6"/>
<path clip-path="url(#clip352)" d="M380.727 161.981 L377.899 160.809 L376.727 157.981 L377.899 155.153 L380.727 153.981 L383.555 155.153 L384.727 157.981 L383.555 160.809 Z" fill="#e26f46" fill-rule="evenodd" fill-opacity="1" stroke="#000000" stroke-opacity="1" stroke-width="0.6"/>
<path clip-path="url(#clip352)" d="M380.727 131.965 L377.899 130.793 L376.727 127.965 L377.899 125.137 L380.727 123.965 L383.555 125.137 L384.727 127.965 L383.555 130.793 Z" fill="#e26f46" fill-rule="evenodd" fill-opacity="1" stroke="#000000" stroke-opacity="1" stroke-width="0.6"/>
<path clip-path="url(#clip352)" d="M383.06 169.022 L380.232 167.85 L379.06 165.022 L380.232 162.194 L383.06 161.022 L385.888 162.194 L387.06 165.022 L385.888 167.85 Z" fill="#e26f46" fill-rule="evenodd" fill-opacity="1" stroke="#000000" stroke-opacity="1" stroke-width="0.6"/>
<path clip-path="url(#clip352)" d="M383.06 124.924 L380.232 123.752 L379.06 120.924 L380.232 118.096 L383.06 116.924 L385.888 118.096 L387.06 120.924 L385.888 123.752 Z" fill="#e26f46" fill-rule="evenodd" fill-opacity="1" stroke="#000000" stroke-opacity="1" stroke-width="0.6"/>
<path clip-path="url(#clip352)" d="M386.246 175.52 L383.418 174.348 L382.246 171.52 L383.418 168.692 L386.246 167.52 L389.074 168.692 L390.246 171.52 L389.074 174.348 Z" fill="#e26f46" fill-rule="evenodd" fill-opacity="1" stroke="#000000" stroke-opacity="1" stroke-width="0.6"/>
<path clip-path="url(#clip352)" d="M386.246 118.426 L383.418 117.254 L382.246 114.426 L383.418 111.598 L386.246 110.426 L389.074 111.598 L390.246 114.426 L389.074 117.254 Z" fill="#e26f46" fill-rule="evenodd" fill-opacity="1" stroke="#000000" stroke-opacity="1" stroke-width="0.6"/>
<path clip-path="url(#clip352)" d="M390.205 181.315 L387.377 180.143 L386.205 177.315 L387.377 174.487 L390.205 173.315 L393.033 174.487 L394.205 177.315 L393.033 180.143 Z" fill="#e26f46" fill-rule="evenodd" fill-opacity="1" stroke="#000000" stroke-opacity="1" stroke-width="0.6"/>
<path clip-path="url(#clip352)" d="M390.205 112.63 L387.377 111.458 L386.205 108.63 L387.377 105.802 L390.205 104.63 L393.033 105.802 L394.205 108.63 L393.033 111.458 Z" fill="#e26f46" fill-rule="evenodd" fill-opacity="1" stroke="#000000" stroke-opacity="1" stroke-width="0.6"/>
<path clip-path="url(#clip352)" d="M394.841 186.264 L392.013 185.092 L390.841 182.264 L392.013 179.436 L394.841 178.264 L397.669 179.436 L398.841 182.264 L397.669 185.092 Z" fill="#e26f46" fill-rule="evenodd" fill-opacity="1" stroke="#000000" stroke-opacity="1" stroke-width="0.6"/>
<path clip-path="url(#clip352)" d="M394.841 107.681 L392.013 106.509 L390.841 103.681 L392.013 100.853 L394.841 99.681 L397.669 100.853 L398.841 103.681 L397.669 106.509 Z" fill="#e26f46" fill-rule="evenodd" fill-opacity="1" stroke="#000000" stroke-opacity="1" stroke-width="0.6"/>
<path clip-path="url(#clip352)" d="M400.04 190.246 L397.212 189.074 L396.04 186.246 L397.212 183.418 L400.04 182.246 L402.868 183.418 L404.04 186.246 L402.868 189.074 Z" fill="#e26f46" fill-rule="evenodd" fill-opacity="1" stroke="#000000" stroke-opacity="1" stroke-width="0.6"/>
<path clip-path="url(#clip352)" d="M400.04 103.699 L397.212 102.527 L396.04 99.699 L397.212 96.871 L400.04 95.699 L402.868 96.871 L404.04 99.699 L402.868 102.527 Z" fill="#e26f46" fill-rule="evenodd" fill-opacity="1" stroke="#000000" stroke-opacity="1" stroke-width="0.6"/>
<path clip-path="url(#clip352)" d="M405.673 193.163 L402.845 191.991 L401.673 189.163 L402.845 186.335 L405.673 185.163 L408.501 186.335 L409.673 189.163 L408.501 191.991 Z" fill="#e26f46" fill-rule="evenodd" fill-opacity="1" stroke="#000000" stroke-opacity="1" stroke-width="0.6"/>
<path clip-path="url(#clip352)" d="M405.673 100.783 L402.845 99.6105 L401.673 96.7825 L402.845 93.9545 L405.673 92.7825 L408.501 93.9545 L409.673 96.7825 L408.501 99.6105 Z" fill="#e26f46" fill-rule="evenodd" fill-opacity="1" stroke="#000000" stroke-opacity="1" stroke-width="0.6"/>
<path clip-path="url(#clip352)" d="M411.601 194.942 L408.773 193.77 L407.601 190.942 L408.773 188.114 L411.601 186.942 L414.429 188.114 L415.601 190.942 L414.429 193.77 Z" fill="#e26f46" fill-rule="evenodd" fill-opacity="1" stroke="#000000" stroke-opacity="1" stroke-width="0.6"/>
<path clip-path="url(#clip352)" d="M411.601 99.0034 L408.773 97.8314 L407.601 95.0034 L408.773 92.1754 L411.601 91.0034 L414.429 92.1754 L415.601 95.0034 L414.429 97.8314 Z" fill="#e26f46" fill-rule="evenodd" fill-opacity="1" stroke="#000000" stroke-opacity="1" stroke-width="0.6"/>
<path clip-path="url(#clip352)" d="M417.679 195.54 L414.851 194.368 L413.679 191.54 L414.851 188.712 L417.679 187.54 L420.507 188.712 L421.679 191.54 L420.507 194.368 Z" fill="#e26f46" fill-rule="evenodd" fill-opacity="1" stroke="#000000" stroke-opacity="1" stroke-width="0.6"/>
<path clip-path="url(#clip352)" d="M417.679 98.4055 L414.851 97.2335 L413.679 94.4055 L414.851 91.5775 L417.679 90.4055 L420.507 91.5775 L421.679 94.4055 L420.507 97.2335 Z" fill="#e26f46" fill-rule="evenodd" fill-opacity="1" stroke="#000000" stroke-opacity="1" stroke-width="0.6"/>
<path clip-path="url(#clip352)" d="M423.757 194.942 L420.929 193.77 L419.757 190.942 L420.929 188.114 L423.757 186.942 L426.585 188.114 L427.757 190.942 L426.585 193.77 Z" fill="#e26f46" fill-rule="evenodd" fill-opacity="1" stroke="#000000" stroke-opacity="1" stroke-width="0.6"/>
<path clip-path="url(#clip352)" d="M423.757 99.0034 L420.929 97.8314 L419.757 95.0034 L420.929 92.1754 L423.757 91.0034 L426.585 92.1754 L427.757 95.0034 L426.585 97.8314 Z" fill="#e26f46" fill-rule="evenodd" fill-opacity="1" stroke="#000000" stroke-opacity="1" stroke-width="0.6"/>
<path clip-path="url(#clip352)" d="M429.686 193.163 L426.858 191.991 L425.686 189.163 L426.858 186.335 L429.686 185.163 L432.514 186.335 L433.686 189.163 L432.514 191.991 Z" fill="#e26f46" fill-rule="evenodd" fill-opacity="1" stroke="#000000" stroke-opacity="1" stroke-width="0.6"/>
<path clip-path="url(#clip352)" d="M429.686 100.783 L426.858 99.6105 L425.686 96.7825 L426.858 93.9545 L429.686 92.7825 L432.514 93.9545 L433.686 96.7825 L432.514 99.6105 Z" fill="#e26f46" fill-rule="evenodd" fill-opacity="1" stroke="#000000" stroke-opacity="1" stroke-width="0.6"/>
<path clip-path="url(#clip352)" d="M435.318 190.246 L432.49 189.074 L431.318 186.246 L432.49 183.418 L435.318 182.246 L438.146 183.418 L439.318 186.246 L438.146 189.074 Z" fill="#e26f46" fill-rule="evenodd" fill-opacity="1" stroke="#000000" stroke-opacity="1" stroke-width="0.6"/>
<path clip-path="url(#clip352)" d="M435.318 103.699 L432.49 102.527 L431.318 99.699 L432.49 96.871 L435.318 95.699 L438.146 96.871 L439.318 99.699 L438.146 102.527 Z" fill="#e26f46" fill-rule="evenodd" fill-opacity="1" stroke="#000000" stroke-opacity="1" stroke-width="0.6"/>
<path clip-path="url(#clip352)" d="M440.517 186.264 L437.689 185.092 L436.517 182.264 L437.689 179.436 L440.517 178.264 L443.345 179.436 L444.517 182.264 L443.345 185.092 Z" fill="#e26f46" fill-rule="evenodd" fill-opacity="1" stroke="#000000" stroke-opacity="1" stroke-width="0.6"/>
<path clip-path="url(#clip352)" d="M440.517 107.681 L437.689 106.509 L436.517 103.681 L437.689 100.853 L440.517 99.681 L443.345 100.853 L444.517 103.681 L443.345 106.509 Z" fill="#e26f46" fill-rule="evenodd" fill-opacity="1" stroke="#000000" stroke-opacity="1" stroke-width="0.6"/>
<path clip-path="url(#clip352)" d="M445.153 181.315 L442.325 180.143 L441.153 177.315 L442.325 174.487 L445.153 173.315 L447.981 174.487 L449.153 177.315 L447.981 180.143 Z" fill="#e26f46" fill-rule="evenodd" fill-opacity="1" stroke="#000000" stroke-opacity="1" stroke-width="0.6"/>
<path clip-path="url(#clip352)" d="M445.153 112.63 L442.325 111.458 L441.153 108.63 L442.325 105.802 L445.153 104.63 L447.981 105.802 L449.153 108.63 L447.981 111.458 Z" fill="#e26f46" fill-rule="evenodd" fill-opacity="1" stroke="#000000" stroke-opacity="1" stroke-width="0.6"/>
<path clip-path="url(#clip352)" d="M449.112 175.52 L446.284 174.348 L445.112 171.52 L446.284 168.692 L449.112 167.52 L451.94 168.692 L453.112 171.52 L451.94 174.348 Z" fill="#e26f46" fill-rule="evenodd" fill-opacity="1" stroke="#000000" stroke-opacity="1" stroke-width="0.6"/>
<path clip-path="url(#clip352)" d="M449.112 118.426 L446.284 117.254 L445.112 114.426 L446.284 111.598 L449.112 110.426 L451.94 111.598 L453.112 114.426 L451.94 117.254 Z" fill="#e26f46" fill-rule="evenodd" fill-opacity="1" stroke="#000000" stroke-opacity="1" stroke-width="0.6"/>
<path clip-path="url(#clip352)" d="M452.298 169.022 L449.47 167.85 L448.298 165.022 L449.47 162.194 L452.298 161.022 L455.126 162.194 L456.298 165.022 L455.126 167.85 Z" fill="#e26f46" fill-rule="evenodd" fill-opacity="1" stroke="#000000" stroke-opacity="1" stroke-width="0.6"/>
<path clip-path="url(#clip352)" d="M452.298 124.924 L449.47 123.752 L448.298 120.924 L449.47 118.096 L452.298 116.924 L455.126 118.096 L456.298 120.924 L455.126 123.752 Z" fill="#e26f46" fill-rule="evenodd" fill-opacity="1" stroke="#000000" stroke-opacity="1" stroke-width="0.6"/>
<path clip-path="url(#clip352)" d="M454.631 161.981 L451.803 160.809 L450.631 157.981 L451.803 155.153 L454.631 153.981 L457.459 155.153 L458.631 157.981 L457.459 160.809 Z" fill="#e26f46" fill-rule="evenodd" fill-opacity="1" stroke="#000000" stroke-opacity="1" stroke-width="0.6"/>
<path clip-path="url(#clip352)" d="M454.631 131.965 L451.803 130.793 L450.631 127.965 L451.803 125.137 L454.631 123.965 L457.459 125.137 L458.631 127.965 L457.459 130.793 Z" fill="#e26f46" fill-rule="evenodd" fill-opacity="1" stroke="#000000" stroke-opacity="1" stroke-width="0.6"/>
<path clip-path="url(#clip352)" d="M456.054 154.57 L453.226 153.398 L452.054 150.57 L453.226 147.742 L456.054 146.57 L458.882 147.742 L460.054 150.57 L458.882 153.398 Z" fill="#e26f46" fill-rule="evenodd" fill-opacity="1" stroke="#000000" stroke-opacity="1" stroke-width="0.6"/>
<path clip-path="url(#clip352)" d="M456.054 139.375 L453.226 138.203 L452.054 135.375 L453.226 132.547 L456.054 131.375 L458.882 132.547 L460.054 135.375 L458.882 138.203 Z" fill="#e26f46" fill-rule="evenodd" fill-opacity="1" stroke="#000000" stroke-opacity="1" stroke-width="0.6"/>
<path clip-path="url(#clip352)" d="M456.533 146.973 L453.705 145.801 L452.533 142.973 L453.705 140.145 L456.533 138.973 L459.361 140.145 L460.533 142.973 L459.361 145.801 Z" fill="#e26f46" fill-rule="evenodd" fill-opacity="1" stroke="#000000" stroke-opacity="1" stroke-width="0.6"/>
<path clip-path="url(#clip352)" d="M67.9951 146.973 L65.1671 145.801 L63.9951 142.973 L65.1671 140.145 L67.9951 138.973 L70.8231 140.145 L71.9951 142.973 L70.8231 145.801 Z" fill="#3da44d" fill-rule="evenodd" fill-opacity="1" stroke="#000000" stroke-opacity="1" stroke-width="0.6"/>
<path clip-path="url(#clip352)" d="M70.3869 154.57 L67.5589 153.398 L66.3869 150.57 L67.5589 147.742 L70.3869 146.57 L73.2149 147.742 L74.3869 150.57 L73.2149 153.398 Z" fill="#3da44d" fill-rule="evenodd" fill-opacity="1" stroke="#000000" stroke-opacity="1" stroke-width="0.6"/>
<path clip-path="url(#clip352)" d="M70.3869 139.375 L67.5589 138.203 L66.3869 135.375 L67.5589 132.547 L70.3869 131.375 L73.2149 132.547 L74.3869 135.375 L73.2149 138.203 Z" fill="#3da44d" fill-rule="evenodd" fill-opacity="1" stroke="#000000" stroke-opacity="1" stroke-width="0.6"/>
<path clip-path="url(#clip352)" d="M77.5033 161.981 L74.6753 160.809 L73.5033 157.981 L74.6753 155.153 L77.5033 153.981 L80.3313 155.153 L81.5033 157.981 L80.3313 160.809 Z" fill="#3da44d" fill-rule="evenodd" fill-opacity="1" stroke="#000000" stroke-opacity="1" stroke-width="0.6"/>
<path clip-path="url(#clip352)" d="M77.5033 131.965 L74.6753 130.793 L73.5033 127.965 L74.6753 125.137 L77.5033 123.965 L80.3313 125.137 L81.5033 127.965 L80.3313 130.793 Z" fill="#3da44d" fill-rule="evenodd" fill-opacity="1" stroke="#000000" stroke-opacity="1" stroke-width="0.6"/>
<path clip-path="url(#clip352)" d="M89.1691 169.022 L86.3411 167.85 L85.1691 165.022 L86.3411 162.194 L89.1691 161.022 L91.9971 162.194 L93.1691 165.022 L91.9971 167.85 Z" fill="#3da44d" fill-rule="evenodd" fill-opacity="1" stroke="#000000" stroke-opacity="1" stroke-width="0.6"/>
<path clip-path="url(#clip352)" d="M89.1691 124.924 L86.3411 123.752 L85.1691 120.924 L86.3411 118.096 L89.1691 116.924 L91.9971 118.096 L93.1691 120.924 L91.9971 123.752 Z" fill="#3da44d" fill-rule="evenodd" fill-opacity="1" stroke="#000000" stroke-opacity="1" stroke-width="0.6"/>
<path clip-path="url(#clip352)" d="M105.097 175.52 L102.269 174.348 L101.097 171.52 L102.269 168.692 L105.097 167.52 L107.925 168.692 L109.097 171.52 L107.925 174.348 Z" fill="#3da44d" fill-rule="evenodd" fill-opacity="1" stroke="#000000" stroke-opacity="1" stroke-width="0.6"/>
<path clip-path="url(#clip352)" d="M105.097 118.426 L102.269 117.254 L101.097 114.426 L102.269 111.598 L105.097 110.426 L107.925 111.598 L109.097 114.426 L107.925 117.254 Z" fill="#3da44d" fill-rule="evenodd" fill-opacity="1" stroke="#000000" stroke-opacity="1" stroke-width="0.6"/>
<path clip-path="url(#clip352)" d="M124.895 181.315 L122.067 180.143 L120.895 177.315 L122.067 174.487 L124.895 173.315 L127.723 174.487 L128.895 177.315 L127.723 180.143 Z" fill="#3da44d" fill-rule="evenodd" fill-opacity="1" stroke="#000000" stroke-opacity="1" stroke-width="0.6"/>
<path clip-path="url(#clip352)" d="M124.895 112.63 L122.067 111.458 L120.895 108.63 L122.067 105.802 L124.895 104.63 L127.723 105.802 L128.895 108.63 L127.723 111.458 Z" fill="#3da44d" fill-rule="evenodd" fill-opacity="1" stroke="#000000" stroke-opacity="1" stroke-width="0.6"/>
<path clip-path="url(#clip352)" d="M148.076 186.264 L145.248 185.092 L144.076 182.264 L145.248 179.436 L148.076 178.264 L150.904 179.436 L152.076 182.264 L150.904 185.092 Z" fill="#3da44d" fill-rule="evenodd" fill-opacity="1" stroke="#000000" stroke-opacity="1" stroke-width="0.6"/>
<path clip-path="url(#clip352)" d="M148.076 107.681 L145.248 106.509 L144.076 103.681 L145.248 100.853 L148.076 99.681 L150.904 100.853 L152.076 103.681 L150.904 106.509 Z" fill="#3da44d" fill-rule="evenodd" fill-opacity="1" stroke="#000000" stroke-opacity="1" stroke-width="0.6"/>
<path clip-path="url(#clip352)" d="M174.068 190.246 L171.24 189.074 L170.068 186.246 L171.24 183.418 L174.068 182.246 L176.896 183.418 L178.068 186.246 L176.896 189.074 Z" fill="#3da44d" fill-rule="evenodd" fill-opacity="1" stroke="#000000" stroke-opacity="1" stroke-width="0.6"/>
<path clip-path="url(#clip352)" d="M174.068 103.699 L171.24 102.527 L170.068 99.699 L171.24 96.871 L174.068 95.699 L176.896 96.871 L178.068 99.699 L176.896 102.527 Z" fill="#3da44d" fill-rule="evenodd" fill-opacity="1" stroke="#000000" stroke-opacity="1" stroke-width="0.6"/>
<path clip-path="url(#clip352)" d="M202.232 193.163 L199.404 191.991 L198.232 189.163 L199.404 186.335 L202.232 185.163 L205.06 186.335 L206.232 189.163 L205.06 191.991 Z" fill="#3da44d" fill-rule="evenodd" fill-opacity="1" stroke="#000000" stroke-opacity="1" stroke-width="0.6"/>
<path clip-path="url(#clip352)" d="M202.232 100.783 L199.404 99.6105 L198.232 96.7825 L199.404 93.9545 L202.232 92.7825 L205.06 93.9545 L206.232 96.7825 L205.06 99.6105 Z" fill="#3da44d" fill-rule="evenodd" fill-opacity="1" stroke="#000000" stroke-opacity="1" stroke-width="0.6"/>
<path clip-path="url(#clip352)" d="M231.874 194.942 L229.046 193.77 L227.874 190.942 L229.046 188.114 L231.874 186.942 L234.702 188.114 L235.874 190.942 L234.702 193.77 Z" fill="#3da44d" fill-rule="evenodd" fill-opacity="1" stroke="#000000" stroke-opacity="1" stroke-width="0.6"/>
<path clip-path="url(#clip352)" d="M231.874 99.0034 L229.046 97.8314 L227.874 95.0034 L229.046 92.1754 L231.874 91.0034 L234.702 92.1754 L235.874 95.0034 L234.702 97.8314 Z" fill="#3da44d" fill-rule="evenodd" fill-opacity="1" stroke="#000000" stroke-opacity="1" stroke-width="0.6"/>
<path clip-path="url(#clip352)" d="M262.264 195.54 L259.436 194.368 L258.264 191.54 L259.436 188.712 L262.264 187.54 L265.092 188.712 L266.264 191.54 L265.092 194.368 Z" fill="#3da44d" fill-rule="evenodd" fill-opacity="1" stroke="#000000" stroke-opacity="1" stroke-width="0.6"/>
<path clip-path="url(#clip352)" d="M262.264 98.4055 L259.436 97.2335 L258.264 94.4055 L259.436 91.5775 L262.264 90.4055 L265.092 91.5775 L266.264 94.4055 L265.092 97.2335 Z" fill="#3da44d" fill-rule="evenodd" fill-opacity="1" stroke="#000000" stroke-opacity="1" stroke-width="0.6"/>
<path clip-path="url(#clip352)" d="M292.654 194.942 L289.826 193.77 L288.654 190.942 L289.826 188.114 L292.654 186.942 L295.482 188.114 L296.654 190.942 L295.482 193.77 Z" fill="#3da44d" fill-rule="evenodd" fill-opacity="1" stroke="#000000" stroke-opacity="1" stroke-width="0.6"/>
<path clip-path="url(#clip352)" d="M292.654 99.0034 L289.826 97.8314 L288.654 95.0034 L289.826 92.1754 L292.654 91.0034 L295.482 92.1754 L296.654 95.0034 L295.482 97.8314 Z" fill="#3da44d" fill-rule="evenodd" fill-opacity="1" stroke="#000000" stroke-opacity="1" stroke-width="0.6"/>
<path clip-path="url(#clip352)" d="M322.296 193.163 L319.468 191.991 L318.296 189.163 L319.468 186.335 L322.296 185.163 L325.124 186.335 L326.296 189.163 L325.124 191.991 Z" fill="#3da44d" fill-rule="evenodd" fill-opacity="1" stroke="#000000" stroke-opacity="1" stroke-width="0.6"/>
<path clip-path="url(#clip352)" d="M322.296 100.783 L319.468 99.6105 L318.296 96.7825 L319.468 93.9545 L322.296 92.7825 L325.124 93.9545 L326.296 96.7825 L325.124 99.6105 Z" fill="#3da44d" fill-rule="evenodd" fill-opacity="1" stroke="#000000" stroke-opacity="1" stroke-width="0.6"/>
<path clip-path="url(#clip352)" d="M350.46 190.246 L347.632 189.074 L346.46 186.246 L347.632 183.418 L350.46 182.246 L353.288 183.418 L354.46 186.246 L353.288 189.074 Z" fill="#3da44d" fill-rule="evenodd" fill-opacity="1" stroke="#000000" stroke-opacity="1" stroke-width="0.6"/>
<path clip-path="url(#clip352)" d="M350.46 103.699 L347.632 102.527 L346.46 99.699 L347.632 96.871 L350.46 95.699 L353.288 96.871 L354.46 99.699 L353.288 102.527 Z" fill="#3da44d" fill-rule="evenodd" fill-opacity="1" stroke="#000000" stroke-opacity="1" stroke-width="0.6"/>
<path clip-path="url(#clip352)" d="M376.452 186.264 L373.624 185.092 L372.452 182.264 L373.624 179.436 L376.452 178.264 L379.28 179.436 L380.452 182.264 L379.28 185.092 Z" fill="#3da44d" fill-rule="evenodd" fill-opacity="1" stroke="#000000" stroke-opacity="1" stroke-width="0.6"/>
<path clip-path="url(#clip352)" d="M376.452 107.681 L373.624 106.509 L372.452 103.681 L373.624 100.853 L376.452 99.681 L379.28 100.853 L380.452 103.681 L379.28 106.509 Z" fill="#3da44d" fill-rule="evenodd" fill-opacity="1" stroke="#000000" stroke-opacity="1" stroke-width="0.6"/>
<path clip-path="url(#clip352)" d="M399.633 181.315 L396.805 180.143 L395.633 177.315 L396.805 174.487 L399.633 173.315 L402.461 174.487 L403.633 177.315 L402.461 180.143 Z" fill="#3da44d" fill-rule="evenodd" fill-opacity="1" stroke="#000000" stroke-opacity="1" stroke-width="0.6"/>
<path clip-path="url(#clip352)" d="M399.633 112.63 L396.805 111.458 L395.633 108.63 L396.805 105.802 L399.633 104.63 L402.461 105.802 L403.633 108.63 L402.461 111.458 Z" fill="#3da44d" fill-rule="evenodd" fill-opacity="1" stroke="#000000" stroke-opacity="1" stroke-width="0.6"/>
<path clip-path="url(#clip352)" d="M419.431 175.52 L416.603 174.348 L415.431 171.52 L416.603 168.692 L419.431 167.52 L422.259 168.692 L423.431 171.52 L422.259 174.348 Z" fill="#3da44d" fill-rule="evenodd" fill-opacity="1" stroke="#000000" stroke-opacity="1" stroke-width="0.6"/>
<path clip-path="url(#clip352)" d="M419.431 118.426 L416.603 117.254 L415.431 114.426 L416.603 111.598 L419.431 110.426 L422.259 111.598 L423.431 114.426 L422.259 117.254 Z" fill="#3da44d" fill-rule="evenodd" fill-opacity="1" stroke="#000000" stroke-opacity="1" stroke-width="0.6"/>
<path clip-path="url(#clip352)" d="M435.359 169.022 L432.531 167.85 L431.359 165.022 L432.531 162.194 L435.359 161.022 L438.187 162.194 L439.359 165.022 L438.187 167.85 Z" fill="#3da44d" fill-rule="evenodd" fill-opacity="1" stroke="#000000" stroke-opacity="1" stroke-width="0.6"/>
<path clip-path="url(#clip352)" d="M435.359 124.924 L432.531 123.752 L431.359 120.924 L432.531 118.096 L435.359 116.924 L438.187 118.096 L439.359 120.924 L438.187 123.752 Z" fill="#3da44d" fill-rule="evenodd" fill-opacity="1" stroke="#000000" stroke-opacity="1" stroke-width="0.6"/>
<path clip-path="url(#clip352)" d="M447.025 161.981 L444.197 160.809 L443.025 157.981 L444.197 155.153 L447.025 153.981 L449.853 155.153 L451.025 157.981 L449.853 160.809 Z" fill="#3da44d" fill-rule="evenodd" fill-opacity="1" stroke="#000000" stroke-opacity="1" stroke-width="0.6"/>
<path clip-path="url(#clip352)" d="M447.025 131.965 L444.197 130.793 L443.025 127.965 L444.197 125.137 L447.025 123.965 L449.853 125.137 L451.025 127.965 L449.853 130.793 Z" fill="#3da44d" fill-rule="evenodd" fill-opacity="1" stroke="#000000" stroke-opacity="1" stroke-width="0.6"/>
<path clip-path="url(#clip352)" d="M454.141 154.57 L451.313 153.398 L450.141 150.57 L451.313 147.742 L454.141 146.57 L456.969 147.742 L458.141 150.57 L456.969 153.398 Z" fill="#3da44d" fill-rule="evenodd" fill-opacity="1" stroke="#000000" stroke-opacity="1" stroke-width="0.6"/>
<path clip-path="url(#clip352)" d="M454.141 139.375 L451.313 138.203 L450.141 135.375 L451.313 132.547 L454.141 131.375 L456.969 132.547 L458.141 135.375 L456.969 138.203 Z" fill="#3da44d" fill-rule="evenodd" fill-opacity="1" stroke="#000000" stroke-opacity="1" stroke-width="0.6"/>
<path clip-path="url(#clip352)" d="M456.533 146.973 L453.705 145.801 L452.533 142.973 L453.705 140.145 L456.533 138.973 L459.361 140.145 L460.533 142.973 L459.361 145.801 Z" fill="#3da44d" fill-rule="evenodd" fill-opacity="1" stroke="#000000" stroke-opacity="1" stroke-width="0.6"/>
</svg>
