<?xml version="1.0" encoding="utf-8"?>
<svg xmlns="http://www.w3.org/2000/svg" xmlns:xlink="http://www.w3.org/1999/xlink" width="120" height="75" viewBox="0 0 480 300">
<defs>
  <clipPath id="clip280">
    <rect x="0" y="0" width="480" height="300"/>
  </clipPath>
</defs>
<path clip-path="url(#clip280)" d="
M0 300 L480 300 L480 0 L0 0  Z
  " fill="#ffffff" fill-rule="evenodd" fill-opacity="1"/>
<defs>
  <clipPath id="clip281">
    <rect x="96" y="0" width="337" height="300"/>
  </clipPath>
</defs>
<defs>
  <clipPath id="clip282">
    <rect x="55" y="27" width="414" height="238"/>
  </clipPath>
</defs>
<path clip-path="url(#clip280)" d="
M71.4517 255.53 L468.189 255.53 L468.189 27.537 L71.4517 27.537  Z
  " fill="#ffffff" fill-rule="evenodd" fill-opacity="1"/>
<defs>
  <clipPath id="clip283">
    <rect x="71" y="27" width="398" height="229"/>
  </clipPath>
</defs>
<polyline clip-path="url(#clip283)" style="stroke:#000000; stroke-width:0.5; stroke-opacity:0.1; fill:none" points="
  72.978,255.53 72.978,27.537 
  "/>
<polyline clip-path="url(#clip283)" style="stroke:#000000; stroke-width:0.5; stroke-opacity:0.1; fill:none" points="
  164.373,255.53 164.373,27.537 
  "/>
<polyline clip-path="url(#clip283)" style="stroke:#000000; stroke-width:0.5; stroke-opacity:0.1; fill:none" points="
  255.768,255.53 255.768,27.537 
  "/>
<polyline clip-path="url(#clip283)" style="stroke:#000000; stroke-width:0.5; stroke-opacity:0.1; fill:none" points="
  347.162,255.53 347.162,27.537 
  "/>
<polyline clip-path="url(#clip283)" style="stroke:#000000; stroke-width:0.5; stroke-opacity:0.1; fill:none" points="
  438.557,255.53 438.557,27.537 
  "/>
<polyline clip-path="url(#clip280)" style="stroke:#000000; stroke-width:1; stroke-opacity:1; fill:none" points="
  71.4517,255.53 468.189,255.53 
  "/>
<polyline clip-path="url(#clip280)" style="stroke:#000000; stroke-width:1; stroke-opacity:1; fill:none" points="
  72.978,255.53 72.978,252.794 
  "/>
<polyline clip-path="url(#clip280)" style="stroke:#000000; stroke-width:1; stroke-opacity:1; fill:none" points="
  164.373,255.53 164.373,252.794 
  "/>
<polyline clip-path="url(#clip280)" style="stroke:#000000; stroke-width:1; stroke-opacity:1; fill:none" points="
  255.768,255.53 255.768,252.794 
  "/>
<polyline clip-path="url(#clip280)" style="stroke:#000000; stroke-width:1; stroke-opacity:1; fill:none" points="
  347.162,255.53 347.162,252.794 
  "/>
<polyline clip-path="url(#clip280)" style="stroke:#000000; stroke-width:1; stroke-opacity:1; fill:none" points="
  438.557,255.53 438.557,252.794 
  "/>
<path clip-path="url(#clip280)" d="M 0 0 M61.2135 274.138 L63.1232 274.138 L63.1232 267.546 L61.0457 267.963 L61.0457 266.898 L63.1116 266.481 L64.2806 266.481 L64.2806 274.138 L66.1903 274.138 L66.1903 275.121 L61.2135 275.121 L61.2135 274.138 Z" fill="#000000" fill-rule="evenodd" fill-opacity="1" /><path clip-path="url(#clip280)" d="M 0 0 M69.9577 267.251 Q69.0549 267.251 68.5977 268.142 Q68.1463 269.028 68.1463 270.81 Q68.1463 272.587 68.5977 273.478 Q69.0549 274.363 69.9577 274.363 Q70.8662 274.363 71.3176 273.478 Q71.7748 272.587 71.7748 270.81 Q71.7748 269.028 71.3176 268.142 Q70.8662 267.251 69.9577 267.251 M69.9577 266.325 Q71.4102 266.325 72.1741 267.477 Q72.9438 268.622 72.9438 270.81 Q72.9438 272.992 72.1741 274.143 Q71.4102 275.289 69.9577 275.289 Q68.5051 275.289 67.7355 274.143 Q66.9716 272.992 66.9716 270.81 Q66.9716 268.622 67.7355 267.477 Q68.5051 266.325 69.9577 266.325 Z" fill="#000000" fill-rule="evenodd" fill-opacity="1" /><path clip-path="url(#clip280)" d="M 0 0 M74.0863 267.469 L77.4012 267.469 L77.4012 268.269 L72.9438 268.269 L72.9438 267.469 Q73.4845 266.91 74.4155 265.969 Q75.3512 265.024 75.591 264.752 Q76.0471 264.239 76.2257 263.886 Q76.4091 263.529 76.4091 263.186 Q76.4091 262.626 76.0141 262.274 Q75.6239 261.921 74.9938 261.921 Q74.5471 261.921 74.0487 262.076 Q73.555 262.231 72.9908 262.546 L72.9908 261.587 Q73.5644 261.357 74.0628 261.239 Q74.5612 261.122 74.975 261.122 Q76.0659 261.122 76.7147 261.667 Q77.3636 262.213 77.3636 263.125 Q77.3636 263.557 77.199 263.948 Q77.0392 264.333 76.6113 264.86 Q76.4937 264.996 75.8637 265.65 Q75.2336 266.299 74.0863 267.469 Z" fill="#000000" fill-rule="evenodd" fill-opacity="1" /><path clip-path="url(#clip280)" d="M 0 0 M78.4309 267.074 L79.423 267.074 L79.423 268.269 L78.4309 268.269 L78.4309 267.074 Z" fill="#000000" fill-rule="evenodd" fill-opacity="1" /><path clip-path="url(#clip280)" d="M 0 0 M82.484 261.874 Q81.7505 261.874 81.3791 262.598 Q81.0123 263.318 81.0123 264.766 Q81.0123 266.209 81.3791 266.933 Q81.7505 267.653 82.484 267.653 Q83.2222 267.653 83.589 266.933 Q83.9604 266.209 83.9604 264.766 Q83.9604 263.318 83.589 262.598 Q83.2222 261.874 82.484 261.874 M82.484 261.122 Q83.6642 261.122 84.2849 262.057 Q84.9102 262.988 84.9102 264.766 Q84.9102 266.538 84.2849 267.474 Q83.6642 268.405 82.484 268.405 Q81.3038 268.405 80.6785 267.474 Q80.0578 266.538 80.0578 264.766 Q80.0578 262.988 80.6785 262.057 Q81.3038 261.122 82.484 261.122 Z" fill="#000000" fill-rule="evenodd" fill-opacity="1" /><path clip-path="url(#clip280)" d="M 0 0 M152.709 274.138 L154.619 274.138 L154.619 267.546 L152.542 267.963 L152.542 266.898 L154.608 266.481 L155.777 266.481 L155.777 274.138 L157.686 274.138 L157.686 275.121 L152.709 275.121 L152.709 274.138 Z" fill="#000000" fill-rule="evenodd" fill-opacity="1" /><path clip-path="url(#clip280)" d="M 0 0 M161.454 267.251 Q160.551 267.251 160.094 268.142 Q159.642 269.028 159.642 270.81 Q159.642 272.587 160.094 273.478 Q160.551 274.363 161.454 274.363 Q162.362 274.363 162.814 273.478 Q163.271 272.587 163.271 270.81 Q163.271 269.028 162.814 268.142 Q162.362 267.251 161.454 267.251 M161.454 266.325 Q162.906 266.325 163.67 267.477 Q164.44 268.622 164.44 270.81 Q164.44 272.992 163.67 274.143 Q162.906 275.289 161.454 275.289 Q160.001 275.289 159.231 274.143 Q158.467 272.992 158.467 270.81 Q158.467 268.622 159.231 267.477 Q160.001 266.325 161.454 266.325 Z" fill="#000000" fill-rule="evenodd" fill-opacity="1" /><path clip-path="url(#clip280)" d="M 0 0 M165.582 267.469 L168.897 267.469 L168.897 268.269 L164.44 268.269 L164.44 267.469 Q164.98 266.91 165.911 265.969 Q166.847 265.024 167.087 264.752 Q167.543 264.239 167.722 263.886 Q167.905 263.529 167.905 263.186 Q167.905 262.626 167.51 262.274 Q167.12 261.921 166.49 261.921 Q166.043 261.921 165.545 262.076 Q165.051 262.231 164.487 262.546 L164.487 261.587 Q165.06 261.357 165.559 261.239 Q166.057 261.122 166.471 261.122 Q167.562 261.122 168.211 261.667 Q168.859 262.213 168.859 263.125 Q168.859 263.557 168.695 263.948 Q168.535 264.333 168.107 264.86 Q167.99 264.996 167.36 265.65 Q166.73 266.299 165.582 267.469 Z" fill="#000000" fill-rule="evenodd" fill-opacity="1" /><path clip-path="url(#clip280)" d="M 0 0 M169.927 267.074 L170.919 267.074 L170.919 268.269 L169.927 268.269 L169.927 267.074 Z" fill="#000000" fill-rule="evenodd" fill-opacity="1" /><path clip-path="url(#clip280)" d="M 0 0 M171.958 261.249 L175.687 261.249 L175.687 262.048 L172.828 262.048 L172.828 263.769 Q173.035 263.698 173.242 263.666 Q173.449 263.628 173.655 263.628 Q174.831 263.628 175.517 264.272 Q176.204 264.916 176.204 266.016 Q176.204 267.15 175.499 267.78 Q174.793 268.405 173.51 268.405 Q173.068 268.405 172.607 268.33 Q172.151 268.255 171.662 268.104 L171.662 267.15 Q172.085 267.38 172.536 267.493 Q172.988 267.606 173.491 267.606 Q174.304 267.606 174.779 267.178 Q175.254 266.75 175.254 266.016 Q175.254 265.283 174.779 264.855 Q174.304 264.427 173.491 264.427 Q173.11 264.427 172.729 264.512 Q172.353 264.596 171.958 264.775 L171.958 261.249 Z" fill="#000000" fill-rule="evenodd" fill-opacity="1" /><path clip-path="url(#clip280)" d="M 0 0 M243.921 274.138 L245.831 274.138 L245.831 267.546 L243.753 267.963 L243.753 266.898 L245.819 266.481 L246.988 266.481 L246.988 274.138 L248.898 274.138 L248.898 275.121 L243.921 275.121 L243.921 274.138 Z" fill="#000000" fill-rule="evenodd" fill-opacity="1" /><path clip-path="url(#clip280)" d="M 0 0 M252.665 267.251 Q251.762 267.251 251.305 268.142 Q250.854 269.028 250.854 270.81 Q250.854 272.587 251.305 273.478 Q251.762 274.363 252.665 274.363 Q253.574 274.363 254.025 273.478 Q254.482 272.587 254.482 270.81 Q254.482 269.028 254.025 268.142 Q253.574 267.251 252.665 267.251 M252.665 266.325 Q254.118 266.325 254.881 267.477 Q255.651 268.622 255.651 270.81 Q255.651 272.992 254.881 274.143 Q254.118 275.289 252.665 275.289 Q251.212 275.289 250.443 274.143 Q249.679 272.992 249.679 270.81 Q249.679 268.622 250.443 267.477 Q251.212 266.325 252.665 266.325 Z" fill="#000000" fill-rule="evenodd" fill-opacity="1" /><path clip-path="url(#clip280)" d="M 0 0 M258.825 264.484 Q259.507 264.629 259.888 265.09 Q260.273 265.551 260.273 266.228 Q260.273 267.267 259.558 267.836 Q258.844 268.405 257.527 268.405 Q257.085 268.405 256.615 268.316 Q256.15 268.231 255.651 268.057 L255.651 267.14 Q256.046 267.371 256.516 267.488 Q256.986 267.606 257.499 267.606 Q258.392 267.606 258.858 267.253 Q259.328 266.9 259.328 266.228 Q259.328 265.607 258.891 265.259 Q258.458 264.907 257.682 264.907 L256.864 264.907 L256.864 264.126 L257.72 264.126 Q258.421 264.126 258.792 263.849 Q259.163 263.567 259.163 263.04 Q259.163 262.499 258.778 262.213 Q258.397 261.921 257.682 261.921 Q257.292 261.921 256.845 262.006 Q256.399 262.09 255.863 262.269 L255.863 261.423 Q256.403 261.272 256.874 261.197 Q257.349 261.122 257.767 261.122 Q258.848 261.122 259.478 261.615 Q260.109 262.104 260.109 262.941 Q260.109 263.524 259.775 263.929 Q259.441 264.328 258.825 264.484 Z" fill="#000000" fill-rule="evenodd" fill-opacity="1" /><path clip-path="url(#clip280)" d="M 0 0 M261.303 267.074 L262.295 267.074 L262.295 268.269 L261.303 268.269 L261.303 267.074 Z" fill="#000000" fill-rule="evenodd" fill-opacity="1" /><path clip-path="url(#clip280)" d="M 0 0 M265.356 261.874 Q264.622 261.874 264.251 262.598 Q263.884 263.318 263.884 264.766 Q263.884 266.209 264.251 266.933 Q264.622 267.653 265.356 267.653 Q266.094 267.653 266.461 266.933 Q266.832 266.209 266.832 264.766 Q266.832 263.318 266.461 262.598 Q266.094 261.874 265.356 261.874 M265.356 261.122 Q266.536 261.122 267.157 262.057 Q267.782 262.988 267.782 264.766 Q267.782 266.538 267.157 267.474 Q266.536 268.405 265.356 268.405 Q264.176 268.405 263.55 267.474 Q262.93 266.538 262.93 264.766 Q262.93 262.988 263.55 262.057 Q264.176 261.122 265.356 261.122 Z" fill="#000000" fill-rule="evenodd" fill-opacity="1" /><path clip-path="url(#clip280)" d="M 0 0 M335.417 274.138 L337.326 274.138 L337.326 267.546 L335.249 267.963 L335.249 266.898 L337.315 266.481 L338.484 266.481 L338.484 274.138 L340.394 274.138 L340.394 275.121 L335.417 275.121 L335.417 274.138 Z" fill="#000000" fill-rule="evenodd" fill-opacity="1" /><path clip-path="url(#clip280)" d="M 0 0 M344.161 267.251 Q343.258 267.251 342.801 268.142 Q342.35 269.028 342.35 270.81 Q342.35 272.587 342.801 273.478 Q343.258 274.363 344.161 274.363 Q345.069 274.363 345.521 273.478 Q345.978 272.587 345.978 270.81 Q345.978 269.028 345.521 268.142 Q345.069 267.251 344.161 267.251 M344.161 266.325 Q345.613 266.325 346.377 267.477 Q347.147 268.622 347.147 270.81 Q347.147 272.992 346.377 274.143 Q345.613 275.289 344.161 275.289 Q342.708 275.289 341.939 274.143 Q341.175 272.992 341.175 270.81 Q341.175 268.622 341.939 267.477 Q342.708 266.325 344.161 266.325 Z" fill="#000000" fill-rule="evenodd" fill-opacity="1" /><path clip-path="url(#clip280)" d="M 0 0 M350.321 264.484 Q351.003 264.629 351.383 265.09 Q351.769 265.551 351.769 266.228 Q351.769 267.267 351.054 267.836 Q350.34 268.405 349.023 268.405 Q348.581 268.405 348.111 268.316 Q347.645 268.231 347.147 268.057 L347.147 267.14 Q347.542 267.371 348.012 267.488 Q348.482 267.606 348.995 267.606 Q349.888 267.606 350.354 267.253 Q350.824 266.9 350.824 266.228 Q350.824 265.607 350.387 265.259 Q349.954 264.907 349.178 264.907 L348.36 264.907 L348.36 264.126 L349.216 264.126 Q349.916 264.126 350.288 263.849 Q350.659 263.567 350.659 263.04 Q350.659 262.499 350.274 262.213 Q349.893 261.921 349.178 261.921 Q348.788 261.921 348.341 262.006 Q347.895 262.09 347.359 262.269 L347.359 261.423 Q347.899 261.272 348.37 261.197 Q348.844 261.122 349.263 261.122 Q350.344 261.122 350.974 261.615 Q351.604 262.104 351.604 262.941 Q351.604 263.524 351.271 263.929 Q350.937 264.328 350.321 264.484 Z" fill="#000000" fill-rule="evenodd" fill-opacity="1" /><path clip-path="url(#clip280)" d="M 0 0 M352.799 267.074 L353.791 267.074 L353.791 268.269 L352.799 268.269 L352.799 267.074 Z" fill="#000000" fill-rule="evenodd" fill-opacity="1" /><path clip-path="url(#clip280)" d="M 0 0 M354.83 261.249 L358.559 261.249 L358.559 262.048 L355.7 262.048 L355.7 263.769 Q355.907 263.698 356.114 263.666 Q356.32 263.628 356.527 263.628 Q357.703 263.628 358.389 264.272 Q359.076 264.916 359.076 266.016 Q359.076 267.15 358.371 267.78 Q357.665 268.405 356.382 268.405 Q355.94 268.405 355.479 268.33 Q355.023 268.255 354.534 268.104 L354.534 267.15 Q354.957 267.38 355.408 267.493 Q355.86 267.606 356.363 267.606 Q357.176 267.606 357.651 267.178 Q358.126 266.75 358.126 266.016 Q358.126 265.283 357.651 264.855 Q357.176 264.427 356.363 264.427 Q355.982 264.427 355.601 264.512 Q355.225 264.596 354.83 264.775 L354.83 261.249 Z" fill="#000000" fill-rule="evenodd" fill-opacity="1" /><path clip-path="url(#clip280)" d="M 0 0 M426.464 274.138 L428.373 274.138 L428.373 267.546 L426.296 267.963 L426.296 266.898 L428.362 266.481 L429.531 266.481 L429.531 274.138 L431.44 274.138 L431.44 275.121 L426.464 275.121 L426.464 274.138 Z" fill="#000000" fill-rule="evenodd" fill-opacity="1" /><path clip-path="url(#clip280)" d="M 0 0 M435.208 267.251 Q434.305 267.251 433.848 268.142 Q433.396 269.028 433.396 270.81 Q433.396 272.587 433.848 273.478 Q434.305 274.363 435.208 274.363 Q436.116 274.363 436.568 273.478 Q437.025 272.587 437.025 270.81 Q437.025 269.028 436.568 268.142 Q436.116 267.251 435.208 267.251 M435.208 266.325 Q436.66 266.325 437.424 267.477 Q438.194 268.622 438.194 270.81 Q438.194 272.992 437.424 274.143 Q436.66 275.289 435.208 275.289 Q433.755 275.289 432.986 274.143 Q432.222 272.992 432.222 270.81 Q432.222 268.622 432.986 267.477 Q433.755 266.325 435.208 266.325 Z" fill="#000000" fill-rule="evenodd" fill-opacity="1" /><path clip-path="url(#clip280)" d="M 0 0 M441.363 262.076 L438.965 265.824 L441.363 265.824 L441.363 262.076 M441.114 261.249 L442.308 261.249 L442.308 265.824 L443.31 265.824 L443.31 266.614 L442.308 266.614 L442.308 268.269 L441.363 268.269 L441.363 266.614 L438.194 266.614 L438.194 265.697 L441.114 261.249 Z" fill="#000000" fill-rule="evenodd" fill-opacity="1" /><path clip-path="url(#clip280)" d="M 0 0 M444.339 267.074 L445.331 267.074 L445.331 268.269 L444.339 268.269 L444.339 267.074 Z" fill="#000000" fill-rule="evenodd" fill-opacity="1" /><path clip-path="url(#clip280)" d="M 0 0 M448.392 261.874 Q447.659 261.874 447.287 262.598 Q446.921 263.318 446.921 264.766 Q446.921 266.209 447.287 266.933 Q447.659 267.653 448.392 267.653 Q449.131 267.653 449.497 266.933 Q449.869 266.209 449.869 264.766 Q449.869 263.318 449.497 262.598 Q449.131 261.874 448.392 261.874 M448.392 261.122 Q449.573 261.122 450.193 262.057 Q450.819 262.988 450.819 264.766 Q450.819 266.538 450.193 267.474 Q449.573 268.405 448.392 268.405 Q447.212 268.405 446.587 267.474 Q445.966 266.538 445.966 264.766 Q445.966 262.988 446.587 262.057 Q447.212 261.122 448.392 261.122 Z" fill="#000000" fill-rule="evenodd" fill-opacity="1" /><g clip-path="url(#clip280)">
<text style="fill:#000000; fill-opacity:1; font-family:Arial,Helvetica Neue,Helvetica,sans-serif; font-size:16px; text-anchor:middle;" transform="rotate(0, 269.82, 295.186)" x="269.82" y="295.186">number of nodes</text>
</g>
<polyline clip-path="url(#clip283)" style="stroke:#000000; stroke-width:0.5; stroke-opacity:0.1; fill:none" points="
  71.4517,243.337 468.189,243.337 
  "/>
<polyline clip-path="url(#clip283)" style="stroke:#000000; stroke-width:0.5; stroke-opacity:0.1; fill:none" points="
  71.4517,193.493 468.189,193.493 
  "/>
<polyline clip-path="url(#clip283)" style="stroke:#000000; stroke-width:0.5; stroke-opacity:0.1; fill:none" points="
  71.4517,143.648 468.189,143.648 
  "/>
<polyline clip-path="url(#clip283)" style="stroke:#000000; stroke-width:0.5; stroke-opacity:0.1; fill:none" points="
  71.4517,93.8033 468.189,93.8033 
  "/>
<polyline clip-path="url(#clip283)" style="stroke:#000000; stroke-width:0.5; stroke-opacity:0.1; fill:none" points="
  71.4517,43.9586 468.189,43.9586 
  "/>
<polyline clip-path="url(#clip280)" style="stroke:#000000; stroke-width:1; stroke-opacity:1; fill:none" points="
  71.4517,255.53 71.4517,27.537 
  "/>
<polyline clip-path="url(#clip280)" style="stroke:#000000; stroke-width:1; stroke-opacity:1; fill:none" points="
  71.4517,243.337 76.2126,243.337 
  "/>
<polyline clip-path="url(#clip280)" style="stroke:#000000; stroke-width:1; stroke-opacity:1; fill:none" points="
  71.4517,193.493 76.2126,193.493 
  "/>
<polyline clip-path="url(#clip280)" style="stroke:#000000; stroke-width:1; stroke-opacity:1; fill:none" points="
  71.4517,143.648 76.2126,143.648 
  "/>
<polyline clip-path="url(#clip280)" style="stroke:#000000; stroke-width:1; stroke-opacity:1; fill:none" points="
  71.4517,93.8033 76.2126,93.8033 
  "/>
<polyline clip-path="url(#clip280)" style="stroke:#000000; stroke-width:1; stroke-opacity:1; fill:none" points="
  71.4517,43.9586 76.2126,43.9586 
  "/>
<path clip-path="url(#clip280)" d="M 0 0 M28.7861 248.286 L30.6958 248.286 L30.6958 241.694 L28.6182 242.111 L28.6182 241.046 L30.6842 240.629 L31.8532 240.629 L31.8532 248.286 L33.7629 248.286 L33.7629 249.269 L28.7861 249.269 L28.7861 248.286 Z" fill="#000000" fill-rule="evenodd" fill-opacity="1" /><path clip-path="url(#clip280)" d="M 0 0 M37.5302 241.399 Q36.6275 241.399 36.1703 242.29 Q35.7189 243.176 35.7189 244.958 Q35.7189 246.735 36.1703 247.626 Q36.6275 248.511 37.5302 248.511 Q38.4388 248.511 38.8902 247.626 Q39.3473 246.735 39.3473 244.958 Q39.3473 243.176 38.8902 242.29 Q38.4388 241.399 37.5302 241.399 M37.5302 240.473 Q38.9828 240.473 39.7467 241.625 Q40.5163 242.771 40.5163 244.958 Q40.5163 247.14 39.7467 248.291 Q38.9828 249.437 37.5302 249.437 Q36.0777 249.437 35.308 248.291 Q34.5441 247.14 34.5441 244.958 Q34.5441 242.771 35.308 241.625 Q36.0777 240.473 37.5302 240.473 Z" fill="#000000" fill-rule="evenodd" fill-opacity="1" /><path clip-path="url(#clip280)" d="M 0 0 M40.5163 238.998 L46.5442 238.998 L46.5442 239.798 L40.5163 239.798 L40.5163 238.998 Z" fill="#000000" fill-rule="evenodd" fill-opacity="1" /><path clip-path="url(#clip280)" d="M 0 0 M47.7385 241.617 L49.2901 241.617 L49.2901 236.262 L47.6021 236.6 L47.6021 235.735 L49.2807 235.397 L50.2305 235.397 L50.2305 241.617 L51.7822 241.617 L51.7822 242.417 L47.7385 242.417 L47.7385 241.617 Z" fill="#000000" fill-rule="evenodd" fill-opacity="1" /><path clip-path="url(#clip280)" d="M 0 0 M53.63 241.617 L56.9449 241.617 L56.9449 242.417 L52.4875 242.417 L52.4875 241.617 Q53.0282 241.058 53.9592 240.118 Q54.8949 239.172 55.1347 238.9 Q55.5907 238.387 55.7694 238.035 Q55.9528 237.677 55.9528 237.334 Q55.9528 236.774 55.5578 236.422 Q55.1676 236.069 54.5375 236.069 Q54.0908 236.069 53.5924 236.224 Q53.0987 236.379 52.5345 236.695 L52.5345 235.735 Q53.1081 235.505 53.6065 235.387 Q54.1049 235.27 54.5187 235.27 Q55.6096 235.27 56.2584 235.815 Q56.9073 236.361 56.9073 237.273 Q56.9073 237.705 56.7427 238.096 Q56.5829 238.481 56.155 239.008 Q56.0374 239.144 55.4074 239.798 Q54.7773 240.447 53.63 241.617 Z" fill="#000000" fill-rule="evenodd" fill-opacity="1" /><path clip-path="url(#clip280)" d="M 0 0 M57.9746 241.222 L58.9667 241.222 L58.9667 242.417 L57.9746 242.417 L57.9746 241.222 Z" fill="#000000" fill-rule="evenodd" fill-opacity="1" /><path clip-path="url(#clip280)" d="M 0 0 M60.0059 235.397 L63.7345 235.397 L63.7345 236.196 L60.8757 236.196 L60.8757 237.917 Q61.0826 237.847 61.2895 237.814 Q61.4964 237.776 61.7033 237.776 Q62.8788 237.776 63.5652 238.42 Q64.2517 239.064 64.2517 240.165 Q64.2517 241.298 63.5464 241.928 Q62.8411 242.553 61.5575 242.553 Q61.1155 242.553 60.6547 242.478 Q60.1987 242.403 59.7097 242.252 L59.7097 241.298 Q60.1328 241.528 60.5842 241.641 Q61.0356 241.754 61.5387 241.754 Q62.3521 241.754 62.827 241.326 Q63.3019 240.898 63.3019 240.165 Q63.3019 239.431 62.827 239.003 Q62.3521 238.575 61.5387 238.575 Q61.1578 238.575 60.777 238.66 Q60.4008 238.745 60.0059 238.923 L60.0059 235.397 Z" fill="#000000" fill-rule="evenodd" fill-opacity="1" /><path clip-path="url(#clip280)" d="M 0 0 M28.2594 198.441 L30.1692 198.441 L30.1692 191.849 L28.0916 192.266 L28.0916 191.201 L30.1576 190.785 L31.3266 190.785 L31.3266 198.441 L33.2363 198.441 L33.2363 199.425 L28.2594 199.425 L28.2594 198.441 Z" fill="#000000" fill-rule="evenodd" fill-opacity="1" /><path clip-path="url(#clip280)" d="M 0 0 M37.0036 191.554 Q36.1008 191.554 35.6437 192.446 Q35.1923 193.331 35.1923 195.113 Q35.1923 196.89 35.6437 197.781 Q36.1008 198.667 37.0036 198.667 Q37.9122 198.667 38.3636 197.781 Q38.8207 196.89 38.8207 195.113 Q38.8207 193.331 38.3636 192.446 Q37.9122 191.554 37.0036 191.554 M37.0036 190.628 Q38.4561 190.628 39.22 191.78 Q39.9897 192.926 39.9897 195.113 Q39.9897 197.295 39.22 198.447 Q38.4561 199.592 37.0036 199.592 Q35.5511 199.592 34.7814 198.447 Q34.0175 197.295 34.0175 195.113 Q34.0175 192.926 34.7814 191.78 Q35.5511 190.628 37.0036 190.628 Z" fill="#000000" fill-rule="evenodd" fill-opacity="1" /><path clip-path="url(#clip280)" d="M 0 0 M39.9897 189.154 L46.0176 189.154 L46.0176 189.953 L39.9897 189.953 L39.9897 189.154 Z" fill="#000000" fill-rule="evenodd" fill-opacity="1" /><path clip-path="url(#clip280)" d="M 0 0 M47.2119 191.773 L48.7635 191.773 L48.7635 186.417 L47.0755 186.756 L47.0755 185.891 L48.7541 185.552 L49.7039 185.552 L49.7039 191.773 L51.2556 191.773 L51.2556 192.572 L47.2119 192.572 L47.2119 191.773 Z" fill="#000000" fill-rule="evenodd" fill-opacity="1" /><path clip-path="url(#clip280)" d="M 0 0 M54.3165 186.177 Q53.583 186.177 53.2116 186.902 Q52.8448 187.621 52.8448 189.069 Q52.8448 190.513 53.2116 191.237 Q53.583 191.956 54.3165 191.956 Q55.0547 191.956 55.4215 191.237 Q55.7929 190.513 55.7929 189.069 Q55.7929 187.621 55.4215 186.902 Q55.0547 186.177 54.3165 186.177 M54.3165 185.425 Q55.4967 185.425 56.1174 186.361 Q56.7427 187.292 56.7427 189.069 Q56.7427 190.842 56.1174 191.777 Q55.4967 192.708 54.3165 192.708 Q53.1363 192.708 52.511 191.777 Q51.8903 190.842 51.8903 189.069 Q51.8903 187.292 52.511 186.361 Q53.1363 185.425 54.3165 185.425 Z" fill="#000000" fill-rule="evenodd" fill-opacity="1" /><path clip-path="url(#clip280)" d="M 0 0 M57.7725 191.378 L58.7646 191.378 L58.7646 192.572 L57.7725 192.572 L57.7725 191.378 Z" fill="#000000" fill-rule="evenodd" fill-opacity="1" /><path clip-path="url(#clip280)" d="M 0 0 M61.8255 186.177 Q61.092 186.177 60.7206 186.902 Q60.3538 187.621 60.3538 189.069 Q60.3538 190.513 60.7206 191.237 Q61.092 191.956 61.8255 191.956 Q62.5637 191.956 62.9305 191.237 Q63.3019 190.513 63.3019 189.069 Q63.3019 187.621 62.9305 186.902 Q62.5637 186.177 61.8255 186.177 M61.8255 185.425 Q63.0057 185.425 63.6264 186.361 Q64.2517 187.292 64.2517 189.069 Q64.2517 190.842 63.6264 191.777 Q63.0057 192.708 61.8255 192.708 Q60.6453 192.708 60.02 191.777 Q59.3993 190.842 59.3993 189.069 Q59.3993 187.292 60.02 186.361 Q60.6453 185.425 61.8255 185.425 Z" fill="#000000" fill-rule="evenodd" fill-opacity="1" /><path clip-path="url(#clip280)" d="M 0 0 M33.883 148.596 L35.7927 148.596 L35.7927 142.005 L33.7151 142.421 L33.7151 141.357 L35.7811 140.94 L36.9501 140.94 L36.9501 148.596 L38.8598 148.596 L38.8598 149.58 L33.883 149.58 L33.883 148.596 Z" fill="#000000" fill-rule="evenodd" fill-opacity="1" /><path clip-path="url(#clip280)" d="M 0 0 M42.6271 141.71 Q41.7244 141.71 41.2672 142.601 Q40.8158 143.486 40.8158 145.269 Q40.8158 147.045 41.2672 147.936 Q41.7244 148.822 42.6271 148.822 Q43.5357 148.822 43.9871 147.936 Q44.4443 147.045 44.4443 145.269 Q44.4443 143.486 43.9871 142.601 Q43.5357 141.71 42.6271 141.71 M42.6271 140.784 Q44.0797 140.784 44.8436 141.935 Q45.6132 143.081 45.6132 145.269 Q45.6132 147.45 44.8436 148.602 Q44.0797 149.748 42.6271 149.748 Q41.1746 149.748 40.4049 148.602 Q39.641 147.45 39.641 145.269 Q39.641 143.081 40.4049 141.935 Q41.1746 140.784 42.6271 140.784 Z" fill="#000000" fill-rule="evenodd" fill-opacity="1" /><path clip-path="url(#clip280)" d="M 0 0 M45.6132 139.309 L51.6411 139.309 L51.6411 140.108 L45.6132 140.108 L45.6132 139.309 Z" fill="#000000" fill-rule="evenodd" fill-opacity="1" /><path clip-path="url(#clip280)" d="M 0 0 M52.431 135.707 L56.9449 135.707 L56.9449 136.112 L54.3965 142.727 L53.4043 142.727 L55.8023 136.507 L52.431 136.507 L52.431 135.707 Z" fill="#000000" fill-rule="evenodd" fill-opacity="1" /><path clip-path="url(#clip280)" d="M 0 0 M57.9746 141.533 L58.9667 141.533 L58.9667 142.727 L57.9746 142.727 L57.9746 141.533 Z" fill="#000000" fill-rule="evenodd" fill-opacity="1" /><path clip-path="url(#clip280)" d="M 0 0 M60.0059 135.707 L63.7345 135.707 L63.7345 136.507 L60.8757 136.507 L60.8757 138.228 Q61.0826 138.157 61.2895 138.124 Q61.4964 138.087 61.7033 138.087 Q62.8788 138.087 63.5652 138.731 Q64.2517 139.375 64.2517 140.475 Q64.2517 141.608 63.5464 142.238 Q62.8411 142.864 61.5575 142.864 Q61.1155 142.864 60.6547 142.788 Q60.1987 142.713 59.7097 142.563 L59.7097 141.608 Q60.1328 141.839 60.5842 141.952 Q61.0356 142.064 61.5387 142.064 Q62.3521 142.064 62.827 141.636 Q63.3019 141.209 63.3019 140.475 Q63.3019 139.742 62.827 139.314 Q62.3521 138.886 61.5387 138.886 Q61.1578 138.886 60.777 138.97 Q60.4008 139.055 60.0059 139.234 L60.0059 135.707 Z" fill="#000000" fill-rule="evenodd" fill-opacity="1" /><path clip-path="url(#clip280)" d="M 0 0 M33.6996 98.7514 L35.6093 98.7514 L35.6093 92.16 L33.5318 92.5767 L33.5318 91.5119 L35.5977 91.0952 L36.7667 91.0952 L36.7667 98.7514 L38.6764 98.7514 L38.6764 99.7352 L33.6996 99.7352 L33.6996 98.7514 Z" fill="#000000" fill-rule="evenodd" fill-opacity="1" /><path clip-path="url(#clip280)" d="M 0 0 M42.4438 91.8649 Q41.541 91.8649 41.0838 92.7561 Q40.6324 93.6415 40.6324 95.4239 Q40.6324 97.2005 41.0838 98.0917 Q41.541 98.9771 42.4438 98.9771 Q43.3523 98.9771 43.8037 98.0917 Q44.2609 97.2005 44.2609 95.4239 Q44.2609 93.6415 43.8037 92.7561 Q43.3523 91.8649 42.4438 91.8649 M42.4438 90.939 Q43.8963 90.939 44.6602 92.0906 Q45.4299 93.2364 45.4299 95.4239 Q45.4299 97.6056 44.6602 98.7572 Q43.8963 99.903 42.4438 99.903 Q40.9912 99.903 40.2215 98.7572 Q39.4577 97.6056 39.4577 95.4239 Q39.4577 93.2364 40.2215 92.0906 Q40.9912 90.939 42.4438 90.939 Z" fill="#000000" fill-rule="evenodd" fill-opacity="1" /><path clip-path="url(#clip280)" d="M 0 0 M45.4299 89.4643 L51.4577 89.4643 L51.4577 90.2636 L45.4299 90.2636 L45.4299 89.4643 Z" fill="#000000" fill-rule="evenodd" fill-opacity="1" /><path clip-path="url(#clip280)" d="M 0 0 M52.4969 85.8626 L56.2255 85.8626 L56.2255 86.6619 L53.3667 86.6619 L53.3667 88.3829 Q53.5736 88.3123 53.7805 88.2794 Q53.9874 88.2418 54.1943 88.2418 Q55.3698 88.2418 56.0562 88.886 Q56.7427 89.5301 56.7427 90.6304 Q56.7427 91.7636 56.0374 92.3936 Q55.3321 93.019 54.0485 93.019 Q53.6065 93.019 53.1457 92.9437 Q52.6897 92.8685 52.2006 92.718 L52.2006 91.7636 Q52.6238 91.9939 53.0752 92.1068 Q53.5266 92.2196 54.0297 92.2196 Q54.8431 92.2196 55.318 91.7918 Q55.7929 91.3639 55.7929 90.6304 Q55.7929 89.8969 55.318 89.469 Q54.8431 89.0411 54.0297 89.0411 Q53.6488 89.0411 53.268 89.1258 Q52.8918 89.2104 52.4969 89.3891 L52.4969 85.8626 Z" fill="#000000" fill-rule="evenodd" fill-opacity="1" /><path clip-path="url(#clip280)" d="M 0 0 M57.7725 91.6883 L58.7646 91.6883 L58.7646 92.8826 L57.7725 92.8826 L57.7725 91.6883 Z" fill="#000000" fill-rule="evenodd" fill-opacity="1" /><path clip-path="url(#clip280)" d="M 0 0 M61.8255 86.488 Q61.092 86.488 60.7206 87.2121 Q60.3538 87.9315 60.3538 89.3797 Q60.3538 90.8232 60.7206 91.5473 Q61.092 92.2667 61.8255 92.2667 Q62.5637 92.2667 62.9305 91.5473 Q63.3019 90.8232 63.3019 89.3797 Q63.3019 87.9315 62.9305 87.2121 Q62.5637 86.488 61.8255 86.488 M61.8255 85.7357 Q63.0057 85.7357 63.6264 86.6714 Q64.2517 87.6023 64.2517 89.3797 Q64.2517 91.1523 63.6264 92.088 Q63.0057 93.019 61.8255 93.019 Q60.6453 93.019 60.02 92.088 Q59.3993 91.1523 59.3993 89.3797 Q59.3993 87.6023 60.02 86.6714 Q60.6453 85.7357 61.8255 85.7357 Z" fill="#000000" fill-rule="evenodd" fill-opacity="1" /><path clip-path="url(#clip280)" d="M 0 0 M34.024 48.9067 L35.9337 48.9067 L35.9337 42.3153 L33.8562 42.732 L33.8562 41.6672 L35.9222 41.2505 L37.0911 41.2505 L37.0911 48.9067 L39.0008 48.9067 L39.0008 49.8905 L34.024 49.8905 L34.024 48.9067 Z" fill="#000000" fill-rule="evenodd" fill-opacity="1" /><path clip-path="url(#clip280)" d="M 0 0 M42.7682 42.0202 Q41.8654 42.0202 41.4082 42.9114 Q40.9569 43.7968 40.9569 45.5792 Q40.9569 47.3558 41.4082 48.247 Q41.8654 49.1324 42.7682 49.1324 Q43.6768 49.1324 44.1281 48.247 Q44.5853 47.3558 44.5853 45.5792 Q44.5853 43.7968 44.1281 42.9114 Q43.6768 42.0202 42.7682 42.0202 M42.7682 41.0942 Q44.2207 41.0942 44.9846 42.2459 Q45.7543 43.3917 45.7543 45.5792 Q45.7543 47.7609 44.9846 48.9125 Q44.2207 50.0583 42.7682 50.0583 Q41.3157 50.0583 40.546 48.9125 Q39.7821 47.7609 39.7821 45.5792 Q39.7821 43.3917 40.546 42.2459 Q41.3157 41.0942 42.7682 41.0942 Z" fill="#000000" fill-rule="evenodd" fill-opacity="1" /><path clip-path="url(#clip280)" d="M 0 0 M45.7543 39.6196 L51.7822 39.6196 L51.7822 40.4189 L45.7543 40.4189 L45.7543 39.6196 Z" fill="#000000" fill-rule="evenodd" fill-opacity="1" /><path clip-path="url(#clip280)" d="M 0 0 M53.63 42.2386 L56.9449 42.2386 L56.9449 43.0379 L52.4875 43.0379 L52.4875 42.2386 Q53.0282 41.679 53.9592 40.7386 Q54.8949 39.7936 55.1347 39.5208 Q55.5907 39.0083 55.7694 38.6557 Q55.9528 38.2983 55.9528 37.9551 Q55.9528 37.3956 55.5578 37.0429 Q55.1676 36.6903 54.5375 36.6903 Q54.0908 36.6903 53.5924 36.8454 Q53.0987 37.0006 52.5345 37.3156 L52.5345 36.3564 Q53.1081 36.126 53.6065 36.0085 Q54.1049 35.8909 54.5187 35.8909 Q55.6096 35.8909 56.2584 36.4364 Q56.9073 36.9818 56.9073 37.894 Q56.9073 38.3265 56.7427 38.7168 Q56.5829 39.1024 56.155 39.629 Q56.0374 39.7653 55.4074 40.4189 Q54.7773 41.0678 53.63 42.2386 Z" fill="#000000" fill-rule="evenodd" fill-opacity="1" /><path clip-path="url(#clip280)" d="M 0 0 M57.9746 41.8436 L58.9667 41.8436 L58.9667 43.0379 L57.9746 43.0379 L57.9746 41.8436 Z" fill="#000000" fill-rule="evenodd" fill-opacity="1" /><path clip-path="url(#clip280)" d="M 0 0 M60.0059 36.0179 L63.7345 36.0179 L63.7345 36.8172 L60.8757 36.8172 L60.8757 38.5381 Q61.0826 38.4676 61.2895 38.4347 Q61.4964 38.3971 61.7033 38.3971 Q62.8788 38.3971 63.5652 39.0412 Q64.2517 39.6854 64.2517 40.7857 Q64.2517 41.9188 63.5464 42.5489 Q62.8411 43.1742 61.5575 43.1742 Q61.1155 43.1742 60.6547 43.099 Q60.1987 43.0238 59.7097 42.8733 L59.7097 41.9188 Q60.1328 42.1492 60.5842 42.2621 Q61.0356 42.3749 61.5387 42.3749 Q62.3521 42.3749 62.827 41.947 Q63.3019 41.5192 63.3019 40.7857 Q63.3019 40.0522 62.827 39.6243 Q62.3521 39.1964 61.5387 39.1964 Q61.1578 39.1964 60.777 39.281 Q60.4008 39.3657 60.0059 39.5443 L60.0059 36.0179 Z" fill="#000000" fill-rule="evenodd" fill-opacity="1" /><g clip-path="url(#clip280)">
<text style="fill:#000000; fill-opacity:1; font-family:Arial,Helvetica Neue,Helvetica,sans-serif; font-size:16px; text-anchor:middle;" transform="rotate(-90, 18.0011, 141.533)" x="18.0011" y="141.533">error</text>
</g>
<g clip-path="url(#clip280)">
<text style="fill:#000000; fill-opacity:1; font-family:Arial,Helvetica Neue,Helvetica,sans-serif; font-size:18px; font-weight:bold; text-anchor:middle;" transform="rotate(0, 269.82, 15.6)" x="269.82" y="15.6">Convergence of adaptive quadrature</text>
</g>
<polyline clip-path="url(#clip283)" style="stroke:#009af9; stroke-width:2; stroke-opacity:1; fill:none" points="
  82.6801,61.4501 120.079,80.2393 159.393,97.7843 198.976,117.288 233.668,136.547 269.777,151.58 311.149,175.022 347.03,205.115 380.242,201.331 420.813,227.643 
  456.961,249.077 
  "/>
<path clip-path="url(#clip283)" d="M82.6801 65.4501 L79.8521 64.2781 L78.6801 61.4501 L79.8521 58.6221 L82.6801 57.4501 L85.5081 58.6221 L86.6801 61.4501 L85.5081 64.2781 Z" fill="#009af9" fill-rule="evenodd" fill-opacity="1" stroke="#000000" stroke-opacity="1" stroke-width="0.6"/>
<path clip-path="url(#clip283)" d="M120.079 84.2393 L117.251 83.0673 L116.079 80.2393 L117.251 77.4113 L120.079 76.2393 L122.907 77.4113 L124.079 80.2393 L122.907 83.0673 Z" fill="#009af9" fill-rule="evenodd" fill-opacity="1" stroke="#000000" stroke-opacity="1" stroke-width="0.6"/>
<path clip-path="url(#clip283)" d="M159.393 101.784 L156.565 100.612 L155.393 97.7843 L156.565 94.9563 L159.393 93.7843 L162.221 94.9563 L163.393 97.7843 L162.221 100.612 Z" fill="#009af9" fill-rule="evenodd" fill-opacity="1" stroke="#000000" stroke-opacity="1" stroke-width="0.6"/>
<path clip-path="url(#clip283)" d="M198.976 121.288 L196.148 120.116 L194.976 117.288 L196.148 114.46 L198.976 113.288 L201.804 114.46 L202.976 117.288 L201.804 120.116 Z" fill="#009af9" fill-rule="evenodd" fill-opacity="1" stroke="#000000" stroke-opacity="1" stroke-width="0.6"/>
<path clip-path="url(#clip283)" d="M233.668 140.547 L230.84 139.375 L229.668 136.547 L230.84 133.719 L233.668 132.547 L236.496 133.719 L237.668 136.547 L236.496 139.375 Z" fill="#009af9" fill-rule="evenodd" fill-opacity="1" stroke="#000000" stroke-opacity="1" stroke-width="0.6"/>
<path clip-path="url(#clip283)" d="M269.777 155.58 L266.949 154.408 L265.777 151.58 L266.949 148.752 L269.777 147.58 L272.605 148.752 L273.777 151.58 L272.605 154.408 Z" fill="#009af9" fill-rule="evenodd" fill-opacity="1" stroke="#000000" stroke-opacity="1" stroke-width="0.6"/>
<path clip-path="url(#clip283)" d="M311.149 179.022 L308.321 177.85 L307.149 175.022 L308.321 172.194 L311.149 171.022 L313.977 172.194 L315.149 175.022 L313.977 177.85 Z" fill="#009af9" fill-rule="evenodd" fill-opacity="1" stroke="#000000" stroke-opacity="1" stroke-width="0.6"/>
<path clip-path="url(#clip283)" d="M347.03 209.115 L344.202 207.943 L343.03 205.115 L344.202 202.287 L347.03 201.115 L349.858 202.287 L351.03 205.115 L349.858 207.943 Z" fill="#009af9" fill-rule="evenodd" fill-opacity="1" stroke="#000000" stroke-opacity="1" stroke-width="0.6"/>
<path clip-path="url(#clip283)" d="M380.242 205.331 L377.414 204.159 L376.242 201.331 L377.414 198.503 L380.242 197.331 L383.07 198.503 L384.242 201.331 L383.07 204.159 Z" fill="#009af9" fill-rule="evenodd" fill-opacity="1" stroke="#000000" stroke-opacity="1" stroke-width="0.6"/>
<path clip-path="url(#clip283)" d="M420.813 231.643 L417.985 230.471 L416.813 227.643 L417.985 224.815 L420.813 223.643 L423.641 224.815 L424.813 227.643 L423.641 230.471 Z" fill="#009af9" fill-rule="evenodd" fill-opacity="1" stroke="#000000" stroke-opacity="1" stroke-width="0.6"/>
<path clip-path="url(#clip283)" d="M456.961 253.077 L454.133 251.905 L452.961 249.077 L454.133 246.249 L456.961 245.077 L459.789 246.249 L460.961 249.077 L459.789 251.905 Z" fill="#009af9" fill-rule="evenodd" fill-opacity="1" stroke="#000000" stroke-opacity="1" stroke-width="0.6"/>
<polyline clip-path="url(#clip283)" style="stroke:#e26f46; stroke-width:2; stroke-opacity:1; fill:none" stroke-dasharray="8, 5" points="
  82.6801,33.9896 120.079,50.3068 159.393,67.4596 198.976,84.73 233.668,99.8658 269.777,115.62 311.149,133.671 347.03,149.326 380.242,163.817 420.813,181.518 
  456.961,197.289 
  "/>
<path clip-path="url(#clip280)" d="
M373.001 80.4968 L454.964 80.4968 L454.964 35.1368 L373.001 35.1368  Z
  " fill="#ffffff" fill-rule="evenodd" fill-opacity="1"/>
<polyline clip-path="url(#clip280)" style="stroke:#000000; stroke-width:1; stroke-opacity:1; fill:none" points="
  373.001,80.4968 454.964,80.4968 454.964,35.1368 373.001,35.1368 373.001,80.4968 
  "/>
<polyline clip-path="url(#clip280)" style="stroke:#009af9; stroke-width:1; stroke-opacity:1; fill:none" points="
  377.41,50.2568 403.859,50.2568 
  "/>
<path clip-path="url(#clip280)" d="M390.634 56.6568 L386.109 54.7816 L384.234 50.2568 L386.109 45.732 L390.634 43.8568 L395.159 45.732 L397.034 50.2568 L395.159 54.7816 Z" fill="#009af9" fill-rule="evenodd" fill-opacity="1" stroke="#000000" stroke-opacity="1" stroke-width="0.96"/>
<path clip-path="url(#clip280)" d="M 0 0 M412.063 49.0907 Q411.884 48.9865 411.67 48.9402 Q411.461 48.8882 411.207 48.8882 Q410.304 48.8882 409.818 49.4784 Q409.337 50.0629 409.337 51.1624 L409.337 54.5768 L408.267 54.5768 L408.267 48.0953 L409.337 48.0953 L409.337 49.1023 Q409.673 48.512 410.211 48.2284 Q410.75 47.9391 411.519 47.9391 Q411.629 47.9391 411.762 47.9564 Q411.895 47.968 412.057 47.997 L412.063 49.0907 Z" fill="#000000" fill-rule="evenodd" fill-opacity="1" /><path clip-path="url(#clip280)" d="M 0 0 M418.464 51.0699 L418.464 51.5907 L413.568 51.5907 Q413.637 52.6902 414.228 53.2689 Q414.824 53.8418 415.883 53.8418 Q416.496 53.8418 417.069 53.6914 Q417.648 53.5409 418.215 53.24 L418.215 54.2469 Q417.642 54.49 417.04 54.6173 Q416.438 54.7446 415.819 54.7446 Q414.268 54.7446 413.359 53.8418 Q412.457 52.9391 412.457 51.3997 Q412.457 49.8083 413.313 48.8766 Q414.175 47.9391 415.634 47.9391 Q416.942 47.9391 417.7 48.784 Q418.464 49.6231 418.464 51.0699 M417.399 50.7574 Q417.387 49.8835 416.907 49.3627 Q416.432 48.8419 415.645 48.8419 Q414.754 48.8419 414.216 49.3453 Q413.684 49.8488 413.603 50.7631 L417.399 50.7574 Z" fill="#000000" fill-rule="evenodd" fill-opacity="1" /><path clip-path="url(#clip280)" d="M 0 0 M423.712 48.2863 L423.712 49.2932 Q423.261 49.0618 422.775 48.946 Q422.289 48.8303 421.768 48.8303 Q420.975 48.8303 420.576 49.0733 Q420.182 49.3164 420.182 49.8025 Q420.182 50.1729 420.466 50.387 Q420.749 50.5953 421.606 50.7863 L421.971 50.8673 Q423.105 51.1104 423.579 51.556 Q424.06 51.9958 424.06 52.7886 Q424.06 53.6914 423.342 54.218 Q422.63 54.7446 421.38 54.7446 Q420.859 54.7446 420.292 54.6404 Q419.731 54.5421 419.106 54.3395 L419.106 53.24 Q419.696 53.5467 420.269 53.7029 Q420.842 53.8534 421.403 53.8534 Q422.156 53.8534 422.561 53.5988 Q422.966 53.3384 422.966 52.8696 Q422.966 52.4356 422.671 52.2041 Q422.381 51.9726 421.392 51.7585 L421.021 51.6717 Q420.032 51.4634 419.592 51.0351 Q419.152 50.6011 419.152 49.8488 Q419.152 48.9344 419.8 48.4368 Q420.449 47.9391 421.641 47.9391 Q422.231 47.9391 422.752 48.0259 Q423.273 48.1127 423.712 48.2863 Z" fill="#000000" fill-rule="evenodd" fill-opacity="1" /><path clip-path="url(#clip280)" d="M 0 0 M425.067 52.0189 L425.067 48.0953 L426.131 48.0953 L426.131 51.9784 Q426.131 52.8985 426.49 53.3615 Q426.849 53.8187 427.567 53.8187 Q428.429 53.8187 428.927 53.2689 Q429.43 52.7191 429.43 51.7701 L429.43 48.0953 L430.495 48.0953 L430.495 54.5768 L429.43 54.5768 L429.43 53.5814 Q429.042 54.1717 428.527 54.461 Q428.018 54.7446 427.341 54.7446 Q426.224 54.7446 425.645 54.0502 Q425.067 53.3557 425.067 52.0189 M427.746 47.9391 L427.746 47.9391 Z" fill="#000000" fill-rule="evenodd" fill-opacity="1" /><path clip-path="url(#clip280)" d="M 0 0 M431.612 45.5722 L432.676 45.5722 L432.676 54.5768 L431.612 54.5768 L431.612 45.5722 Z" fill="#000000" fill-rule="evenodd" fill-opacity="1" /><path clip-path="url(#clip280)" d="M 0 0 M434.847 46.2551 L434.847 48.0953 L437.04 48.0953 L437.04 48.9229 L434.847 48.9229 L434.847 52.4414 Q434.847 53.2342 435.061 53.4599 Q435.281 53.6856 435.946 53.6856 L437.04 53.6856 L437.04 54.5768 L435.946 54.5768 Q434.714 54.5768 434.245 54.1196 Q433.776 53.6566 433.776 52.4414 L433.776 48.9229 L432.995 48.9229 L432.995 48.0953 L433.776 48.0953 L433.776 46.2551 L434.847 46.2551 Z" fill="#000000" fill-rule="evenodd" fill-opacity="1" /><path clip-path="url(#clip280)" d="M 0 0 M442.289 48.2863 L442.289 49.2932 Q441.837 49.0618 441.351 48.946 Q440.865 48.8303 440.344 48.8303 Q439.551 48.8303 439.152 49.0733 Q438.759 49.3164 438.759 49.8025 Q438.759 50.1729 439.042 50.387 Q439.326 50.5953 440.182 50.7863 L440.547 50.8673 Q441.681 51.1104 442.156 51.556 Q442.636 51.9958 442.636 52.7886 Q442.636 53.6914 441.918 54.218 Q441.207 54.7446 439.957 54.7446 Q439.436 54.7446 438.869 54.6404 Q438.307 54.5421 437.682 54.3395 L437.682 53.24 Q438.273 53.5467 438.845 53.7029 Q439.418 53.8534 439.98 53.8534 Q440.732 53.8534 441.137 53.5988 Q441.542 53.3384 441.542 52.8696 Q441.542 52.4356 441.247 52.2041 Q440.958 51.9726 439.968 51.7585 L439.598 51.6717 Q438.608 51.4634 438.168 51.0351 Q437.729 50.6011 437.729 49.8488 Q437.729 48.9344 438.377 48.4368 Q439.025 47.9391 440.217 47.9391 Q440.807 47.9391 441.328 48.0259 Q441.849 48.1127 442.289 48.2863 Z" fill="#000000" fill-rule="evenodd" fill-opacity="1" /><polyline clip-path="url(#clip280)" style="stroke:#e26f46; stroke-width:1; stroke-opacity:1; fill:none" stroke-dasharray="8, 5" points="
  377.41,65.3768 403.859,65.3768 
  "/>
<path clip-path="url(#clip280)" d="M 0 0 M416.558 63.2382 Q416.558 64.0756 416.26 64.9071 Q415.967 65.7327 415.452 66.412 Q414.936 67.0912 414.281 67.6182 Q413.625 68.1452 412.858 68.438 Q412.091 68.7308 411.341 68.7308 Q410.012 68.7308 409.139 67.8583 Q408.267 66.9858 408.267 65.5278 Q408.267 64.5089 408.724 63.4959 Q409.18 62.477 409.906 61.7216 Q410.633 60.9604 411.587 60.4861 Q412.547 60.0118 413.496 60.0118 Q414.843 60.0118 415.698 60.9077 Q416.558 61.7978 416.558 63.2382 M415.487 62.7698 Q415.487 62.1257 415.305 61.6397 Q415.124 61.1478 414.819 60.8667 Q414.521 60.5856 414.163 60.451 Q413.812 60.3104 413.426 60.3104 Q412.676 60.3104 411.874 60.7964 Q411.072 61.2825 410.474 62.1842 Q410.152 62.6761 409.918 63.2675 Q409.684 63.8531 409.579 64.3742 Q409.473 64.8895 409.426 65.2526 Q409.385 65.6156 409.385 65.8674 Q409.385 67.0385 409.947 67.7295 Q410.51 68.4204 411.411 68.4204 Q412.12 68.4204 412.811 68.0047 Q413.502 67.5831 413.976 66.98 Q414.398 66.4588 414.708 65.8323 Q415.024 65.2057 415.182 64.6319 Q415.34 64.058 415.411 63.5954 Q415.487 63.1328 415.487 62.7698 Z" fill="#000000" fill-rule="evenodd" fill-opacity="1" /><path clip-path="url(#clip280)" d="M 0 0 M417.324 65.4692 Q417.324 63.4432 418.079 61.8095 Q418.401 61.1244 418.852 60.5505 Q419.303 59.9767 419.602 59.7249 Q419.9 59.4731 419.982 59.4731 Q420.099 59.4731 420.105 59.5902 Q420.105 59.6487 419.947 59.7951 Q418.015 61.7626 418.021 65.4692 Q418.021 69.1875 419.9 71.0789 Q420.105 71.2838 420.105 71.3483 Q420.105 71.4654 419.982 71.4654 Q419.9 71.4654 419.613 71.2253 Q419.327 70.9852 418.881 70.4348 Q418.436 69.8844 418.114 69.211 Q417.324 67.5772 417.324 65.4692 Z" fill="#000000" fill-rule="evenodd" fill-opacity="1" /><path clip-path="url(#clip280)" d="M 0 0 M428.428 66.7516 Q428.428 66.7984 428.375 66.98 Q428.322 67.1615 428.193 67.4426 Q428.07 67.7236 427.901 67.9813 Q427.731 68.2331 427.45 68.4204 Q427.174 68.602 426.858 68.602 Q426.437 68.602 426.156 68.3209 Q425.874 68.0398 425.874 67.6182 Q425.874 67.384 425.997 67.0619 Q426.776 64.9832 426.776 64.2688 Q426.776 63.4315 426.126 63.4315 Q425.804 63.4315 425.5 63.5544 Q425.201 63.6715 424.996 63.8355 Q424.791 63.9995 424.604 64.2278 Q424.422 64.4503 424.329 64.6026 Q424.241 64.749 424.17 64.8954 L424.018 65.4926 Q423.983 65.6566 423.813 66.2949 L423.55 67.3781 Q423.362 68.1862 423.321 68.2623 Q423.263 68.4263 423.134 68.5141 Q423.005 68.602 422.876 68.602 Q422.73 68.602 422.63 68.5141 Q422.531 68.4263 422.531 68.2741 Q422.531 68.2506 422.548 68.1628 Q422.566 68.075 422.595 67.952 Q422.625 67.829 422.636 67.7588 L423.333 64.9891 Q423.462 64.4855 423.491 64.3274 Q423.526 64.1634 423.526 63.9819 Q423.526 63.4315 423.152 63.4315 Q422.847 63.4315 422.648 63.7945 Q422.449 64.1576 422.279 64.8602 Q422.226 65.0535 422.191 65.0945 Q422.162 65.1355 422.074 65.1355 Q421.928 65.1296 421.928 65.0125 Q421.928 64.9832 421.975 64.79 Q422.021 64.5967 422.109 64.3215 Q422.203 64.0405 422.291 63.8531 Q422.367 63.7125 422.408 63.6481 Q422.455 63.5779 422.566 63.4432 Q422.683 63.3026 422.835 63.2382 Q422.994 63.168 423.187 63.168 Q423.62 63.168 423.936 63.449 Q424.252 63.7242 424.293 64.2103 Q425.072 63.168 426.161 63.168 Q426.806 63.168 427.174 63.5076 Q427.543 63.8472 427.543 64.4503 Q427.543 64.5909 427.514 64.7724 Q427.491 64.9481 427.432 65.1706 Q427.379 65.3931 427.333 65.5629 Q427.286 65.7327 427.192 66.0079 Q427.098 66.2773 427.057 66.3944 Q427.016 66.5115 426.917 66.7867 Q426.823 67.0561 426.811 67.0854 Q426.595 67.6299 426.595 67.9403 Q426.595 68.1452 426.659 68.2389 Q426.729 68.3326 426.882 68.3326 Q427.292 68.3326 427.596 67.9286 Q427.906 67.5187 428.105 66.8511 Q428.152 66.7048 428.176 66.6696 Q428.205 66.6345 428.287 66.6345 Q428.428 66.6345 428.428 66.7516 Z" fill="#000000" fill-rule="evenodd" fill-opacity="1" /><path clip-path="url(#clip280)" d="M 0 0 M435.184 62.7122 Q435.233 62.7614 435.233 62.831 Q435.233 62.9007 435.184 62.9499 Q435.135 62.9991 435.065 62.9991 L429.81 62.9991 Q429.741 62.9991 429.691 62.9499 Q429.642 62.9007 429.642 62.831 Q429.642 62.7614 429.691 62.7122 Q429.741 62.663 429.81 62.663 L435.065 62.663 Q435.135 62.663 435.184 62.7122 Z" fill="#000000" fill-rule="evenodd" fill-opacity="1" /><path clip-path="url(#clip280)" d="M 0 0 M436.108 63.5443 L436.108 63.286 L438.686 59.347 Q438.752 59.2445 438.854 59.2486 Q438.948 59.2486 438.969 59.2855 Q438.989 59.3224 438.989 59.4658 L438.989 63.286 L439.83 63.286 L439.83 63.5443 L438.989 63.5443 L438.989 64.2739 Q438.989 64.5157 439.088 64.5936 Q439.19 64.6715 439.625 64.6715 L439.801 64.6715 L439.801 64.9297 Q439.457 64.9051 438.662 64.9051 Q437.87 64.9051 437.526 64.9297 L437.526 64.6715 L437.702 64.6715 Q438.137 64.6715 438.239 64.5977 Q438.342 64.5198 438.342 64.2739 L438.342 63.5443 L436.108 63.5443 M436.346 63.286 L438.391 63.286 L438.391 60.1544 L436.346 63.286 Z" fill="#000000" fill-rule="evenodd" fill-opacity="1" /><path clip-path="url(#clip280)" d="M 0 0 M441.544 71.3483 Q441.544 71.2897 441.696 71.1433 Q443.629 69.1758 443.629 65.4692 Q443.629 61.7509 441.773 59.8713 Q441.544 59.6546 441.544 59.5902 Q441.544 59.4731 441.661 59.4731 Q441.743 59.4731 442.03 59.7132 Q442.323 59.9532 442.762 60.5037 Q443.207 61.0541 443.535 61.7275 Q444.326 63.3612 444.326 65.4692 Q444.326 67.4953 443.57 69.129 Q443.248 69.8141 442.797 70.3879 Q442.346 70.9618 442.048 71.2136 Q441.749 71.4654 441.661 71.4654 Q441.544 71.4654 441.544 71.3483 Z" fill="#000000" fill-rule="evenodd" fill-opacity="1" /></svg>
