<?xml version="1.0" encoding="utf-8"?>
<svg xmlns="http://www.w3.org/2000/svg" xmlns:xlink="http://www.w3.org/1999/xlink" width="120" height="75" viewBox="0 0 480 300">
<defs>
  <clipPath id="clip470">
    <rect x="0" y="0" width="480" height="300"/>
  </clipPath>
</defs>
<path clip-path="url(#clip470)" d="
M0 300 L480 300 L480 0 L0 0  Z
  " fill="#ffffff" fill-rule="evenodd" fill-opacity="1"/>
<defs>
  <clipPath id="clip471">
    <rect x="96" y="0" width="337" height="300"/>
  </clipPath>
</defs>
<path clip-path="url(#clip470)" d="
M43.7134 273.152 L468.189 273.152 L468.189 27.537 L43.7134 27.537  Z
  " fill="#ffffff" fill-rule="evenodd" fill-opacity="1"/>
<defs>
  <clipPath id="clip472">
    <rect x="43" y="27" width="425" height="247"/>
  </clipPath>
</defs>
<polyline clip-path="url(#clip472)" style="stroke:#000000; stroke-width:0.5; stroke-opacity:0.1; fill:none" points="
  55.7269,273.152 55.7269,27.537 
  "/>
<polyline clip-path="url(#clip472)" style="stroke:#000000; stroke-width:0.5; stroke-opacity:0.1; fill:none" points="
  155.839,273.152 155.839,27.537 
  "/>
<polyline clip-path="url(#clip472)" style="stroke:#000000; stroke-width:0.5; stroke-opacity:0.1; fill:none" points="
  255.951,273.152 255.951,27.537 
  "/>
<polyline clip-path="url(#clip472)" style="stroke:#000000; stroke-width:0.5; stroke-opacity:0.1; fill:none" points="
  356.063,273.152 356.063,27.537 
  "/>
<polyline clip-path="url(#clip472)" style="stroke:#000000; stroke-width:0.5; stroke-opacity:0.1; fill:none" points="
  456.176,273.152 456.176,27.537 
  "/>
<polyline clip-path="url(#clip470)" style="stroke:#000000; stroke-width:1; stroke-opacity:1; fill:none" points="
  43.7134,273.152 468.189,273.152 
  "/>
<polyline clip-path="url(#clip470)" style="stroke:#000000; stroke-width:1; stroke-opacity:1; fill:none" points="
  55.7269,273.152 55.7269,270.205 
  "/>
<polyline clip-path="url(#clip470)" style="stroke:#000000; stroke-width:1; stroke-opacity:1; fill:none" points="
  155.839,273.152 155.839,270.205 
  "/>
<polyline clip-path="url(#clip470)" style="stroke:#000000; stroke-width:1; stroke-opacity:1; fill:none" points="
  255.951,273.152 255.951,270.205 
  "/>
<polyline clip-path="url(#clip470)" style="stroke:#000000; stroke-width:1; stroke-opacity:1; fill:none" points="
  356.063,273.152 356.063,270.205 
  "/>
<polyline clip-path="url(#clip470)" style="stroke:#000000; stroke-width:1; stroke-opacity:1; fill:none" points="
  456.176,273.152 456.176,270.205 
  "/>
<path clip-path="url(#clip470)" d="M 0 0 M47.7292 279.49 Q46.8265 279.49 46.3693 280.381 Q45.9179 281.266 45.9179 283.049 Q45.9179 284.825 46.3693 285.716 Q46.8265 286.602 47.7292 286.602 Q48.6378 286.602 49.0892 285.716 Q49.5464 284.825 49.5464 283.049 Q49.5464 281.266 49.0892 280.381 Q48.6378 279.49 47.7292 279.49 M47.7292 278.564 Q49.1818 278.564 49.9457 279.715 Q50.7153 280.861 50.7153 283.049 Q50.7153 285.23 49.9457 286.382 Q49.1818 287.528 47.7292 287.528 Q46.2767 287.528 45.507 286.382 Q44.7431 285.23 44.7431 283.049 Q44.7431 280.861 45.507 279.715 Q46.2767 278.564 47.7292 278.564 Z" fill="#000000" fill-rule="evenodd" fill-opacity="1" /><path clip-path="url(#clip470)" d="M 0 0 M51.9827 285.89 L53.2037 285.89 L53.2037 287.36 L51.9827 287.36 L51.9827 285.89 Z" fill="#000000" fill-rule="evenodd" fill-opacity="1" /><path clip-path="url(#clip470)" d="M 0 0 M56.9711 279.49 Q56.0683 279.49 55.6111 280.381 Q55.1597 281.266 55.1597 283.049 Q55.1597 284.825 55.6111 285.716 Q56.0683 286.602 56.9711 286.602 Q57.8796 286.602 58.331 285.716 Q58.7882 284.825 58.7882 283.049 Q58.7882 281.266 58.331 280.381 Q57.8796 279.49 56.9711 279.49 M56.9711 278.564 Q58.4236 278.564 59.1875 279.715 Q59.9572 280.861 59.9572 283.049 Q59.9572 285.23 59.1875 286.382 Q58.4236 287.528 56.9711 287.528 Q55.5185 287.528 54.7489 286.382 Q53.985 285.23 53.985 283.049 Q53.985 280.861 54.7489 279.715 Q55.5185 278.564 56.9711 278.564 Z" fill="#000000" fill-rule="evenodd" fill-opacity="1" /><path clip-path="url(#clip470)" d="M 0 0 M63.7245 279.49 Q62.8217 279.49 62.3646 280.381 Q61.9132 281.266 61.9132 283.049 Q61.9132 284.825 62.3646 285.716 Q62.8217 286.602 63.7245 286.602 Q64.6331 286.602 65.0845 285.716 Q65.5416 284.825 65.5416 283.049 Q65.5416 281.266 65.0845 280.381 Q64.6331 279.49 63.7245 279.49 M63.7245 278.564 Q65.1771 278.564 65.9409 279.715 Q66.7106 280.861 66.7106 283.049 Q66.7106 285.23 65.9409 286.382 Q65.1771 287.528 63.7245 287.528 Q62.272 287.528 61.5023 286.382 Q60.7384 285.23 60.7384 283.049 Q60.7384 280.861 61.5023 279.715 Q62.272 278.564 63.7245 278.564 Z" fill="#000000" fill-rule="evenodd" fill-opacity="1" /><path clip-path="url(#clip470)" d="M 0 0 M148.165 279.49 Q147.263 279.49 146.806 280.381 Q146.354 281.266 146.354 283.049 Q146.354 284.825 146.806 285.716 Q147.263 286.602 148.165 286.602 Q149.074 286.602 149.525 285.716 Q149.983 284.825 149.983 283.049 Q149.983 281.266 149.525 280.381 Q149.074 279.49 148.165 279.49 M148.165 278.564 Q149.618 278.564 150.382 279.715 Q151.152 280.861 151.152 283.049 Q151.152 285.23 150.382 286.382 Q149.618 287.528 148.165 287.528 Q146.713 287.528 145.943 286.382 Q145.179 285.23 145.179 283.049 Q145.179 280.861 145.943 279.715 Q146.713 278.564 148.165 278.564 Z" fill="#000000" fill-rule="evenodd" fill-opacity="1" /><path clip-path="url(#clip470)" d="M 0 0 M152.419 285.89 L153.64 285.89 L153.64 287.36 L152.419 287.36 L152.419 285.89 Z" fill="#000000" fill-rule="evenodd" fill-opacity="1" /><path clip-path="url(#clip470)" d="M 0 0 M155.914 286.376 L159.994 286.376 L159.994 287.36 L154.508 287.36 L154.508 286.376 Q155.174 285.688 156.319 284.53 Q157.471 283.367 157.766 283.031 Q158.327 282.401 158.547 281.966 Q158.773 281.527 158.773 281.104 Q158.773 280.416 158.287 279.982 Q157.807 279.548 157.031 279.548 Q156.481 279.548 155.868 279.738 Q155.26 279.929 154.566 280.317 L154.566 279.137 Q155.272 278.853 155.885 278.708 Q156.499 278.564 157.008 278.564 Q158.351 278.564 159.149 279.235 Q159.948 279.906 159.948 281.029 Q159.948 281.561 159.745 282.042 Q159.549 282.516 159.022 283.164 Q158.877 283.332 158.102 284.137 Q157.326 284.935 155.914 286.376 Z" fill="#000000" fill-rule="evenodd" fill-opacity="1" /><path clip-path="url(#clip470)" d="M 0 0 M161.273 278.72 L165.862 278.72 L165.862 279.704 L162.344 279.704 L162.344 281.822 Q162.598 281.735 162.853 281.694 Q163.108 281.648 163.362 281.648 Q164.809 281.648 165.654 282.441 Q166.499 283.234 166.499 284.588 Q166.499 285.983 165.631 286.758 Q164.763 287.528 163.183 287.528 Q162.639 287.528 162.072 287.435 Q161.51 287.343 160.908 287.157 L160.908 285.983 Q161.429 286.266 161.985 286.405 Q162.54 286.544 163.16 286.544 Q164.161 286.544 164.745 286.017 Q165.33 285.491 165.33 284.588 Q165.33 283.685 164.745 283.159 Q164.161 282.632 163.16 282.632 Q162.691 282.632 162.222 282.736 Q161.759 282.84 161.273 283.06 L161.273 278.72 Z" fill="#000000" fill-rule="evenodd" fill-opacity="1" /><path clip-path="url(#clip470)" d="M 0 0 M248.078 279.49 Q247.175 279.49 246.718 280.381 Q246.267 281.266 246.267 283.049 Q246.267 284.825 246.718 285.716 Q247.175 286.602 248.078 286.602 Q248.987 286.602 249.438 285.716 Q249.895 284.825 249.895 283.049 Q249.895 281.266 249.438 280.381 Q248.987 279.49 248.078 279.49 M248.078 278.564 Q249.531 278.564 250.294 279.715 Q251.064 280.861 251.064 283.049 Q251.064 285.23 250.294 286.382 Q249.531 287.528 248.078 287.528 Q246.625 287.528 245.856 286.382 Q245.092 285.23 245.092 283.049 Q245.092 280.861 245.856 279.715 Q246.625 278.564 248.078 278.564 Z" fill="#000000" fill-rule="evenodd" fill-opacity="1" /><path clip-path="url(#clip470)" d="M 0 0 M252.331 285.89 L253.552 285.89 L253.552 287.36 L252.331 287.36 L252.331 285.89 Z" fill="#000000" fill-rule="evenodd" fill-opacity="1" /><path clip-path="url(#clip470)" d="M 0 0 M254.831 278.72 L259.421 278.72 L259.421 279.704 L255.902 279.704 L255.902 281.822 Q256.157 281.735 256.411 281.694 Q256.666 281.648 256.921 281.648 Q258.367 281.648 259.212 282.441 Q260.057 283.234 260.057 284.588 Q260.057 285.983 259.189 286.758 Q258.321 287.528 256.741 287.528 Q256.197 287.528 255.63 287.435 Q255.069 287.343 254.467 287.157 L254.467 285.983 Q254.988 286.266 255.543 286.405 Q256.099 286.544 256.718 286.544 Q257.719 286.544 258.304 286.017 Q258.888 285.491 258.888 284.588 Q258.888 283.685 258.304 283.159 Q257.719 282.632 256.718 282.632 Q256.249 282.632 255.78 282.736 Q255.318 282.84 254.831 283.06 L254.831 278.72 Z" fill="#000000" fill-rule="evenodd" fill-opacity="1" /><path clip-path="url(#clip470)" d="M 0 0 M263.824 279.49 Q262.922 279.49 262.464 280.381 Q262.013 281.266 262.013 283.049 Q262.013 284.825 262.464 285.716 Q262.922 286.602 263.824 286.602 Q264.733 286.602 265.184 285.716 Q265.642 284.825 265.642 283.049 Q265.642 281.266 265.184 280.381 Q264.733 279.49 263.824 279.49 M263.824 278.564 Q265.277 278.564 266.041 279.715 Q266.811 280.861 266.811 283.049 Q266.811 285.23 266.041 286.382 Q265.277 287.528 263.824 287.528 Q262.372 287.528 261.602 286.382 Q260.838 285.23 260.838 283.049 Q260.838 280.861 261.602 279.715 Q262.372 278.564 263.824 278.564 Z" fill="#000000" fill-rule="evenodd" fill-opacity="1" /><path clip-path="url(#clip470)" d="M 0 0 M348.303 279.49 Q347.4 279.49 346.943 280.381 Q346.492 281.266 346.492 283.049 Q346.492 284.825 346.943 285.716 Q347.4 286.602 348.303 286.602 Q349.212 286.602 349.663 285.716 Q350.12 284.825 350.12 283.049 Q350.12 281.266 349.663 280.381 Q349.212 279.49 348.303 279.49 M348.303 278.564 Q349.756 278.564 350.519 279.715 Q351.289 280.861 351.289 283.049 Q351.289 285.23 350.519 286.382 Q349.756 287.528 348.303 287.528 Q346.85 287.528 346.081 286.382 Q345.317 285.23 345.317 283.049 Q345.317 280.861 346.081 279.715 Q346.85 278.564 348.303 278.564 Z" fill="#000000" fill-rule="evenodd" fill-opacity="1" /><path clip-path="url(#clip470)" d="M 0 0 M352.556 285.89 L353.777 285.89 L353.777 287.36 L352.556 287.36 L352.556 285.89 Z" fill="#000000" fill-rule="evenodd" fill-opacity="1" /><path clip-path="url(#clip470)" d="M 0 0 M354.75 278.72 L360.305 278.72 L360.305 279.218 L357.169 287.36 L355.948 287.36 L358.899 279.704 L354.75 279.704 L354.75 278.72 Z" fill="#000000" fill-rule="evenodd" fill-opacity="1" /><path clip-path="url(#clip470)" d="M 0 0 M361.584 278.72 L366.173 278.72 L366.173 279.704 L362.655 279.704 L362.655 281.822 Q362.909 281.735 363.164 281.694 Q363.419 281.648 363.673 281.648 Q365.12 281.648 365.965 282.441 Q366.81 283.234 366.81 284.588 Q366.81 285.983 365.942 286.758 Q365.074 287.528 363.494 287.528 Q362.95 287.528 362.383 287.435 Q361.821 287.343 361.22 287.157 L361.22 285.983 Q361.74 286.266 362.296 286.405 Q362.852 286.544 363.471 286.544 Q364.472 286.544 365.056 286.017 Q365.641 285.491 365.641 284.588 Q365.641 283.685 365.056 283.159 Q364.472 282.632 363.471 282.632 Q363.002 282.632 362.533 282.736 Q362.07 282.84 361.584 283.06 L361.584 278.72 Z" fill="#000000" fill-rule="evenodd" fill-opacity="1" /><path clip-path="url(#clip470)" d="M 0 0 M445.773 286.376 L447.683 286.376 L447.683 279.785 L445.606 280.201 L445.606 279.137 L447.672 278.72 L448.84 278.72 L448.84 286.376 L450.75 286.376 L450.75 287.36 L445.773 287.36 L445.773 286.376 Z" fill="#000000" fill-rule="evenodd" fill-opacity="1" /><path clip-path="url(#clip470)" d="M 0 0 M452.018 285.89 L453.239 285.89 L453.239 287.36 L452.018 287.36 L452.018 285.89 Z" fill="#000000" fill-rule="evenodd" fill-opacity="1" /><path clip-path="url(#clip470)" d="M 0 0 M457.006 279.49 Q456.103 279.49 455.646 280.381 Q455.195 281.266 455.195 283.049 Q455.195 284.825 455.646 285.716 Q456.103 286.602 457.006 286.602 Q457.915 286.602 458.366 285.716 Q458.823 284.825 458.823 283.049 Q458.823 281.266 458.366 280.381 Q457.915 279.49 457.006 279.49 M457.006 278.564 Q458.458 278.564 459.222 279.715 Q459.992 280.861 459.992 283.049 Q459.992 285.23 459.222 286.382 Q458.458 287.528 457.006 287.528 Q455.553 287.528 454.784 286.382 Q454.02 285.23 454.02 283.049 Q454.02 280.861 454.784 279.715 Q455.553 278.564 457.006 278.564 Z" fill="#000000" fill-rule="evenodd" fill-opacity="1" /><path clip-path="url(#clip470)" d="M 0 0 M463.759 279.49 Q462.857 279.49 462.399 280.381 Q461.948 281.266 461.948 283.049 Q461.948 284.825 462.399 285.716 Q462.857 286.602 463.759 286.602 Q464.668 286.602 465.119 285.716 Q465.577 284.825 465.577 283.049 Q465.577 281.266 465.119 280.381 Q464.668 279.49 463.759 279.49 M463.759 278.564 Q465.212 278.564 465.976 279.715 Q466.745 280.861 466.745 283.049 Q466.745 285.23 465.976 286.382 Q465.212 287.528 463.759 287.528 Q462.307 287.528 461.537 286.382 Q460.773 285.23 460.773 283.049 Q460.773 280.861 461.537 279.715 Q462.307 278.564 463.759 278.564 Z" fill="#000000" fill-rule="evenodd" fill-opacity="1" /><polyline clip-path="url(#clip472)" style="stroke:#000000; stroke-width:0.5; stroke-opacity:0.1; fill:none" points="
  43.7134,266.203 468.189,266.203 
  "/>
<polyline clip-path="url(#clip472)" style="stroke:#000000; stroke-width:0.5; stroke-opacity:0.1; fill:none" points="
  43.7134,217.551 468.189,217.551 
  "/>
<polyline clip-path="url(#clip472)" style="stroke:#000000; stroke-width:0.5; stroke-opacity:0.1; fill:none" points="
  43.7134,168.898 468.189,168.898 
  "/>
<polyline clip-path="url(#clip472)" style="stroke:#000000; stroke-width:0.5; stroke-opacity:0.1; fill:none" points="
  43.7134,120.245 468.189,120.245 
  "/>
<polyline clip-path="url(#clip472)" style="stroke:#000000; stroke-width:0.5; stroke-opacity:0.1; fill:none" points="
  43.7134,71.5927 468.189,71.5927 
  "/>
<polyline clip-path="url(#clip470)" style="stroke:#000000; stroke-width:1; stroke-opacity:1; fill:none" points="
  43.7134,273.152 43.7134,27.537 
  "/>
<polyline clip-path="url(#clip470)" style="stroke:#000000; stroke-width:1; stroke-opacity:1; fill:none" points="
  43.7134,266.203 48.8071,266.203 
  "/>
<polyline clip-path="url(#clip470)" style="stroke:#000000; stroke-width:1; stroke-opacity:1; fill:none" points="
  43.7134,217.551 48.8071,217.551 
  "/>
<polyline clip-path="url(#clip470)" style="stroke:#000000; stroke-width:1; stroke-opacity:1; fill:none" points="
  43.7134,168.898 48.8071,168.898 
  "/>
<polyline clip-path="url(#clip470)" style="stroke:#000000; stroke-width:1; stroke-opacity:1; fill:none" points="
  43.7134,120.245 48.8071,120.245 
  "/>
<polyline clip-path="url(#clip470)" style="stroke:#000000; stroke-width:1; stroke-opacity:1; fill:none" points="
  43.7134,71.5927 48.8071,71.5927 
  "/>
<path clip-path="url(#clip470)" d="M 0 0 M13.4059 266.316 L20.8248 266.316 L20.8248 267.3 L13.4059 267.3 L13.4059 266.316 Z" fill="#000000" fill-rule="evenodd" fill-opacity="1" /><path clip-path="url(#clip470)" d="M 0 0 M22.2947 269.539 L24.2045 269.539 L24.2045 262.948 L22.1269 263.365 L22.1269 262.3 L24.1929 261.883 L25.3619 261.883 L25.3619 269.539 L27.2716 269.539 L27.2716 270.523 L22.2947 270.523 L22.2947 269.539 Z" fill="#000000" fill-rule="evenodd" fill-opacity="1" /><path clip-path="url(#clip470)" d="M 0 0 M28.5389 269.053 L29.76 269.053 L29.76 270.523 L28.5389 270.523 L28.5389 269.053 Z" fill="#000000" fill-rule="evenodd" fill-opacity="1" /><path clip-path="url(#clip470)" d="M 0 0 M33.5273 262.653 Q32.6245 262.653 32.1674 263.544 Q31.716 264.429 31.716 266.212 Q31.716 267.988 32.1674 268.88 Q32.6245 269.765 33.5273 269.765 Q34.4359 269.765 34.8873 268.88 Q35.3444 267.988 35.3444 266.212 Q35.3444 264.429 34.8873 263.544 Q34.4359 262.653 33.5273 262.653 M33.5273 261.727 Q34.9799 261.727 35.7437 262.879 Q36.5134 264.024 36.5134 266.212 Q36.5134 268.394 35.7437 269.545 Q34.9799 270.691 33.5273 270.691 Q32.0748 270.691 31.3051 269.545 Q30.5412 268.394 30.5412 266.212 Q30.5412 264.024 31.3051 262.879 Q32.0748 261.727 33.5273 261.727 Z" fill="#000000" fill-rule="evenodd" fill-opacity="1" /><path clip-path="url(#clip470)" d="M 0 0 M13.348 217.663 L20.767 217.663 L20.767 218.647 L13.348 218.647 L13.348 217.663 Z" fill="#000000" fill-rule="evenodd" fill-opacity="1" /><path clip-path="url(#clip470)" d="M 0 0 M24.5343 214 Q23.6315 214 23.1744 214.891 Q22.723 215.777 22.723 217.559 Q22.723 219.336 23.1744 220.227 Q23.6315 221.112 24.5343 221.112 Q25.4429 221.112 25.8943 220.227 Q26.3514 219.336 26.3514 217.559 Q26.3514 215.777 25.8943 214.891 Q25.4429 214 24.5343 214 M24.5343 213.074 Q25.9869 213.074 26.7507 214.226 Q27.5204 215.372 27.5204 217.559 Q27.5204 219.741 26.7507 220.893 Q25.9869 222.038 24.5343 222.038 Q23.0818 222.038 22.3121 220.893 Q21.5482 219.741 21.5482 217.559 Q21.5482 215.372 22.3121 214.226 Q23.0818 213.074 24.5343 213.074 Z" fill="#000000" fill-rule="evenodd" fill-opacity="1" /><path clip-path="url(#clip470)" d="M 0 0 M28.7878 220.401 L30.0088 220.401 L30.0088 221.871 L28.7878 221.871 L28.7878 220.401 Z" fill="#000000" fill-rule="evenodd" fill-opacity="1" /><path clip-path="url(#clip470)" d="M 0 0 M31.2878 213.231 L35.8768 213.231 L35.8768 214.214 L32.3583 214.214 L32.3583 216.332 Q32.613 216.246 32.8676 216.205 Q33.1222 216.159 33.3769 216.159 Q34.8236 216.159 35.6685 216.952 Q36.5134 217.744 36.5134 219.099 Q36.5134 220.493 35.6454 221.269 Q34.7773 222.038 33.1975 222.038 Q32.6535 222.038 32.0864 221.946 Q31.525 221.853 30.9232 221.668 L30.9232 220.493 Q31.444 220.777 31.9996 220.916 Q32.5551 221.055 33.1743 221.055 Q34.1755 221.055 34.76 220.528 Q35.3444 220.001 35.3444 219.099 Q35.3444 218.196 34.76 217.669 Q34.1755 217.143 33.1743 217.143 Q32.7056 217.143 32.2368 217.247 Q31.7739 217.351 31.2878 217.571 L31.2878 213.231 Z" fill="#000000" fill-rule="evenodd" fill-opacity="1" /><path clip-path="url(#clip470)" d="M 0 0 M24.2855 165.348 Q23.3827 165.348 22.9255 166.239 Q22.4741 167.124 22.4741 168.907 Q22.4741 170.683 22.9255 171.574 Q23.3827 172.46 24.2855 172.46 Q25.194 172.46 25.6454 171.574 Q26.1026 170.683 26.1026 168.907 Q26.1026 167.124 25.6454 166.239 Q25.194 165.348 24.2855 165.348 M24.2855 164.422 Q25.738 164.422 26.5019 165.573 Q27.2716 166.719 27.2716 168.907 Q27.2716 171.088 26.5019 172.24 Q25.738 173.386 24.2855 173.386 Q22.8329 173.386 22.0633 172.24 Q21.2994 171.088 21.2994 168.907 Q21.2994 166.719 22.0633 165.573 Q22.8329 164.422 24.2855 164.422 Z" fill="#000000" fill-rule="evenodd" fill-opacity="1" /><path clip-path="url(#clip470)" d="M 0 0 M28.5389 171.748 L29.76 171.748 L29.76 173.218 L28.5389 173.218 L28.5389 171.748 Z" fill="#000000" fill-rule="evenodd" fill-opacity="1" /><path clip-path="url(#clip470)" d="M 0 0 M33.5273 165.348 Q32.6245 165.348 32.1674 166.239 Q31.716 167.124 31.716 168.907 Q31.716 170.683 32.1674 171.574 Q32.6245 172.46 33.5273 172.46 Q34.4359 172.46 34.8873 171.574 Q35.3444 170.683 35.3444 168.907 Q35.3444 167.124 34.8873 166.239 Q34.4359 165.348 33.5273 165.348 M33.5273 164.422 Q34.9799 164.422 35.7437 165.573 Q36.5134 166.719 36.5134 168.907 Q36.5134 171.088 35.7437 172.24 Q34.9799 173.386 33.5273 173.386 Q32.0748 173.386 31.3051 172.24 Q30.5412 171.088 30.5412 168.907 Q30.5412 166.719 31.3051 165.573 Q32.0748 164.422 33.5273 164.422 Z" fill="#000000" fill-rule="evenodd" fill-opacity="1" /><path clip-path="url(#clip470)" d="M 0 0 M24.5343 116.695 Q23.6315 116.695 23.1744 117.586 Q22.723 118.472 22.723 120.254 Q22.723 122.031 23.1744 122.922 Q23.6315 123.807 24.5343 123.807 Q25.4429 123.807 25.8943 122.922 Q26.3514 122.031 26.3514 120.254 Q26.3514 118.472 25.8943 117.586 Q25.4429 116.695 24.5343 116.695 M24.5343 115.769 Q25.9869 115.769 26.7507 116.921 Q27.5204 118.066 27.5204 120.254 Q27.5204 122.436 26.7507 123.587 Q25.9869 124.733 24.5343 124.733 Q23.0818 124.733 22.3121 123.587 Q21.5482 122.436 21.5482 120.254 Q21.5482 118.066 22.3121 116.921 Q23.0818 115.769 24.5343 115.769 Z" fill="#000000" fill-rule="evenodd" fill-opacity="1" /><path clip-path="url(#clip470)" d="M 0 0 M28.7878 123.095 L30.0088 123.095 L30.0088 124.565 L28.7878 124.565 L28.7878 123.095 Z" fill="#000000" fill-rule="evenodd" fill-opacity="1" /><path clip-path="url(#clip470)" d="M 0 0 M31.2878 115.925 L35.8768 115.925 L35.8768 116.909 L32.3583 116.909 L32.3583 119.027 Q32.613 118.94 32.8676 118.9 Q33.1222 118.854 33.3769 118.854 Q34.8236 118.854 35.6685 119.646 Q36.5134 120.439 36.5134 121.793 Q36.5134 123.188 35.6454 123.963 Q34.7773 124.733 33.1975 124.733 Q32.6535 124.733 32.0864 124.641 Q31.525 124.548 30.9232 124.363 L30.9232 123.188 Q31.444 123.472 31.9996 123.61 Q32.5551 123.749 33.1743 123.749 Q34.1755 123.749 34.76 123.223 Q35.3444 122.696 35.3444 121.793 Q35.3444 120.891 34.76 120.364 Q34.1755 119.837 33.1743 119.837 Q32.7056 119.837 32.2368 119.941 Q31.7739 120.046 31.2878 120.266 L31.2878 115.925 Z" fill="#000000" fill-rule="evenodd" fill-opacity="1" /><path clip-path="url(#clip470)" d="M 0 0 M22.2947 74.9289 L24.2045 74.9289 L24.2045 68.3375 L22.1269 68.7541 L22.1269 67.6893 L24.1929 67.2727 L25.3619 67.2727 L25.3619 74.9289 L27.2716 74.9289 L27.2716 75.9127 L22.2947 75.9127 L22.2947 74.9289 Z" fill="#000000" fill-rule="evenodd" fill-opacity="1" /><path clip-path="url(#clip470)" d="M 0 0 M28.5389 74.4428 L29.76 74.4428 L29.76 75.9127 L28.5389 75.9127 L28.5389 74.4428 Z" fill="#000000" fill-rule="evenodd" fill-opacity="1" /><path clip-path="url(#clip470)" d="M 0 0 M33.5273 68.0423 Q32.6245 68.0423 32.1674 68.9335 Q31.716 69.8189 31.716 71.6013 Q31.716 73.3779 32.1674 74.2691 Q32.6245 75.1546 33.5273 75.1546 Q34.4359 75.1546 34.8873 74.2691 Q35.3444 73.3779 35.3444 71.6013 Q35.3444 69.8189 34.8873 68.9335 Q34.4359 68.0423 33.5273 68.0423 M33.5273 67.1164 Q34.9799 67.1164 35.7437 68.268 Q36.5134 69.4138 36.5134 71.6013 Q36.5134 73.783 35.7437 74.9347 Q34.9799 76.0805 33.5273 76.0805 Q32.0748 76.0805 31.3051 74.9347 Q30.5412 73.783 30.5412 71.6013 Q30.5412 69.4138 31.3051 68.268 Q32.0748 67.1164 33.5273 67.1164 Z" fill="#000000" fill-rule="evenodd" fill-opacity="1" /><g clip-path="url(#clip470)">
<text style="fill:#000000; fill-opacity:1; font-family:Arial,Helvetica Neue,Helvetica,sans-serif; font-size:18px; font-weight:bold; text-anchor:middle;" transform="rotate(0, 255.951, 15.6)" x="255.951" y="15.6">Interpolation on 4 nodes</text>
</g>
<polyline clip-path="url(#clip472)" style="stroke:#009af9; stroke-width:2; stroke-opacity:1; fill:none" points="
  55.7269,87.0184 59.6376,85.9974 95.7977,77.4665 117.528,73.7141 135.902,71.8911 155.86,71.8892 174.26,74.3082 184.123,76.7826 193.986,80.2074 205.414,85.4944 
  216.841,92.3364 226.997,99.8247 237.152,108.708 246.058,117.676 254.963,127.743 264.672,139.929 274.382,153.278 284.149,167.708 293.916,182.881 304.714,200.087 
  315.513,217.116 325.788,232.411 336.062,245.961 341.404,252 346.746,257.162 352.087,261.3 357.429,264.263 361.925,265.741 366.422,266.201 370.918,265.567 
  375.415,263.771 380.905,259.921 386.394,254.182 391.884,246.521 397.374,236.951 402.534,226.28 407.695,214.101 412.855,200.585 418.016,185.965 426.284,161.012 
  434.551,135.584 438.685,123.294 442.819,111.647 446.952,100.936 451.086,91.4569 452.358,88.8339 453.631,86.3647 454.903,84.0576 456.176,81.9211 
  "/>
<circle clip-path="url(#clip472)" cx="55.7269" cy="87.0184" r="3" fill="#000000" fill-rule="evenodd" fill-opacity="1" stroke="none"/>
<circle clip-path="url(#clip472)" cx="189.21" cy="78.4239" r="3" fill="#000000" fill-rule="evenodd" fill-opacity="1" stroke="none"/>
<circle clip-path="url(#clip472)" cx="322.693" cy="227.946" r="3" fill="#000000" fill-rule="evenodd" fill-opacity="1" stroke="none"/>
<circle clip-path="url(#clip472)" cx="456.176" cy="81.9211" r="3" fill="#000000" fill-rule="evenodd" fill-opacity="1" stroke="none"/>
<polyline clip-path="url(#clip472)" style="stroke:#3da44d; stroke-width:2; stroke-opacity:1; fill:none" points="
  55.7269,87.0184 56.7046,85.2851 57.6822,83.5846 58.6599,81.9164 59.6376,80.2806 68.6776,66.6527 77.7177,55.6289 86.7577,47.0683 95.7977,40.8299 101.23,38.1393 
  106.663,36.2059 112.096,34.9991 117.528,34.4884 126.715,35.1228 135.902,37.5121 145.881,41.9237 155.86,48.0421 165.06,55.0313 174.26,63.1614 184.123,72.9761 
  193.986,83.7486 205.414,97.1862 216.841,111.379 237.152,137.584 254.963,160.526 274.382,184.176 293.916,205.158 304.714,215.031 315.513,223.37 325.788,229.66 
  336.062,234.136 346.746,236.645 357.429,236.738 366.422,234.771 375.415,230.789 380.905,227.308 386.394,222.992 391.884,217.809 397.374,211.73 402.534,205.168 
  407.695,197.759 412.855,189.476 418.016,180.294 426.284,163.642 434.551,144.505 442.819,122.777 451.086,98.3482 452.358,94.3422 453.631,90.2693 454.903,86.129 
  456.176,81.9211 
  "/>
<path clip-path="url(#clip470)" d="
M57.8626 264.965 L161.207 264.965 L161.207 204.485 L57.8626 204.485  Z
  " fill="#ffffff" fill-rule="evenodd" fill-opacity="1"/>
<polyline clip-path="url(#clip470)" style="stroke:#000000; stroke-width:1; stroke-opacity:1; fill:none" points="
  57.8626,264.965 161.207,264.965 161.207,204.485 57.8626,204.485 57.8626,264.965 
  "/>
<polyline clip-path="url(#clip470)" style="stroke:#009af9; stroke-width:1; stroke-opacity:1; fill:none" points="
  62.579,219.605 90.8774,219.605 
  "/>
<path clip-path="url(#clip470)" d="M 0 0 M99.7199 214.92 L99.7199 215.806 L98.7014 215.806 Q98.1285 215.806 97.9028 216.037 Q97.6829 216.269 97.6829 216.87 L97.6829 217.443 L99.4363 217.443 L99.4363 218.271 L97.6829 218.271 L97.6829 223.925 L96.6123 223.925 L96.6123 218.271 L95.5938 218.271 L95.5938 217.443 L96.6123 217.443 L96.6123 216.992 Q96.6123 215.91 97.1157 215.418 Q97.6192 214.92 98.713 214.92 L99.7199 214.92 Z" fill="#000000" fill-rule="evenodd" fill-opacity="1" /><path clip-path="url(#clip470)" d="M 0 0 M100.727 221.367 L100.727 217.443 L101.792 217.443 L101.792 221.326 Q101.792 222.247 102.15 222.71 Q102.509 223.167 103.227 223.167 Q104.089 223.167 104.587 222.617 Q105.09 222.067 105.09 221.118 L105.09 217.443 L106.155 217.443 L106.155 223.925 L105.09 223.925 L105.09 222.929 Q104.703 223.52 104.187 223.809 Q103.678 224.093 103.001 224.093 Q101.884 224.093 101.306 223.398 Q100.727 222.704 100.727 221.367 M103.406 217.287 L103.406 217.287 Z" fill="#000000" fill-rule="evenodd" fill-opacity="1" /><path clip-path="url(#clip470)" d="M 0 0 M112.66 220.013 L112.66 223.925 L111.595 223.925 L111.595 220.048 Q111.595 219.127 111.236 218.67 Q110.877 218.213 110.16 218.213 Q109.297 218.213 108.8 218.763 Q108.302 219.313 108.302 220.262 L108.302 223.925 L107.231 223.925 L107.231 217.443 L108.302 217.443 L108.302 218.45 Q108.684 217.866 109.199 217.576 Q109.72 217.287 110.397 217.287 Q111.514 217.287 112.087 217.982 Q112.66 218.67 112.66 220.013 Z" fill="#000000" fill-rule="evenodd" fill-opacity="1" /><path clip-path="url(#clip470)" d="M 0 0 M118.441 217.692 L118.441 218.688 Q117.989 218.439 117.532 218.317 Q117.081 218.19 116.618 218.19 Q115.582 218.19 115.009 218.85 Q114.436 219.504 114.436 220.69 Q114.436 221.876 115.009 222.536 Q115.582 223.19 116.618 223.19 Q117.081 223.19 117.532 223.068 Q117.989 222.941 118.441 222.692 L118.441 223.676 Q117.995 223.884 117.515 223.988 Q117.04 224.093 116.502 224.093 Q115.038 224.093 114.176 223.172 Q113.314 222.252 113.314 220.69 Q113.314 219.104 114.182 218.196 Q115.055 217.287 116.572 217.287 Q117.064 217.287 117.532 217.391 Q118.001 217.49 118.441 217.692 Z" fill="#000000" fill-rule="evenodd" fill-opacity="1" /><path clip-path="url(#clip470)" d="M 0 0 M120.611 215.603 L120.611 217.443 L122.804 217.443 L122.804 218.271 L120.611 218.271 L120.611 221.789 Q120.611 222.582 120.825 222.808 Q121.045 223.034 121.711 223.034 L122.804 223.034 L122.804 223.925 L121.711 223.925 Q120.478 223.925 120.009 223.468 Q119.54 223.005 119.54 221.789 L119.54 218.271 L118.759 218.271 L118.759 217.443 L119.54 217.443 L119.54 215.603 L120.611 215.603 Z" fill="#000000" fill-rule="evenodd" fill-opacity="1" /><path clip-path="url(#clip470)" d="M 0 0 M123.921 217.443 L124.986 217.443 L124.986 223.925 L123.921 223.925 L123.921 217.443 M123.921 214.92 L124.986 214.92 L124.986 216.269 L123.921 216.269 L123.921 214.92 Z" fill="#000000" fill-rule="evenodd" fill-opacity="1" /><path clip-path="url(#clip470)" d="M 0 0 M128.614 218.19 Q127.758 218.19 127.26 218.861 Q126.763 219.527 126.763 220.69 Q126.763 221.853 127.254 222.524 Q127.752 223.19 128.614 223.19 Q129.465 223.19 129.963 222.519 Q130.46 221.847 130.46 220.69 Q130.46 219.538 129.963 218.867 Q129.465 218.19 128.614 218.19 M128.614 217.287 Q130.003 217.287 130.796 218.19 Q131.589 219.093 131.589 220.69 Q131.589 222.281 130.796 223.19 Q130.003 224.093 128.614 224.093 Q127.22 224.093 126.427 223.19 Q125.64 222.281 125.64 220.69 Q125.64 219.093 126.427 218.19 Q127.22 217.287 128.614 217.287 Z" fill="#000000" fill-rule="evenodd" fill-opacity="1" /><path clip-path="url(#clip470)" d="M 0 0 M138.094 220.013 L138.094 223.925 L137.029 223.925 L137.029 220.048 Q137.029 219.127 136.67 218.67 Q136.311 218.213 135.594 218.213 Q134.731 218.213 134.234 218.763 Q133.736 219.313 133.736 220.262 L133.736 223.925 L132.665 223.925 L132.665 217.443 L133.736 217.443 L133.736 218.45 Q134.118 217.866 134.633 217.576 Q135.154 217.287 135.831 217.287 Q136.948 217.287 137.521 217.982 Q138.094 218.67 138.094 220.013 Z" fill="#000000" fill-rule="evenodd" fill-opacity="1" /><circle clip-path="url(#clip470)" cx="76.7282" cy="234.725" r="5" fill="#000000" fill-rule="evenodd" fill-opacity="1" stroke="none"/>
<path clip-path="url(#clip470)" d="M 0 0 M101.022 235.133 L101.022 239.045 L99.9572 239.045 L99.9572 235.168 Q99.9572 234.247 99.5984 233.79 Q99.2396 233.333 98.522 233.333 Q97.6597 233.333 97.162 233.883 Q96.6644 234.433 96.6644 235.382 L96.6644 239.045 L95.5938 239.045 L95.5938 232.563 L96.6644 232.563 L96.6644 233.57 Q97.0463 232.986 97.5613 232.696 Q98.0822 232.407 98.7593 232.407 Q99.8761 232.407 100.449 233.102 Q101.022 233.79 101.022 235.133 Z" fill="#000000" fill-rule="evenodd" fill-opacity="1" /><path clip-path="url(#clip470)" d="M 0 0 M104.65 233.31 Q103.794 233.31 103.296 233.981 Q102.799 234.647 102.799 235.81 Q102.799 236.973 103.29 237.644 Q103.788 238.31 104.65 238.31 Q105.501 238.31 105.999 237.639 Q106.496 236.967 106.496 235.81 Q106.496 234.658 105.999 233.987 Q105.501 233.31 104.65 233.31 M104.65 232.407 Q106.039 232.407 106.832 233.31 Q107.625 234.213 107.625 235.81 Q107.625 237.401 106.832 238.31 Q106.039 239.213 104.65 239.213 Q103.256 239.213 102.463 238.31 Q101.676 237.401 101.676 235.81 Q101.676 234.213 102.463 233.31 Q103.256 232.407 104.65 232.407 Z" fill="#000000" fill-rule="evenodd" fill-opacity="1" /><path clip-path="url(#clip470)" d="M 0 0 M113.007 233.547 L113.007 230.04 L114.072 230.04 L114.072 239.045 L113.007 239.045 L113.007 238.073 Q112.671 238.651 112.156 238.935 Q111.647 239.213 110.929 239.213 Q109.755 239.213 109.014 238.275 Q108.279 237.338 108.279 235.81 Q108.279 234.282 109.014 233.345 Q109.755 232.407 110.929 232.407 Q111.647 232.407 112.156 232.691 Q112.671 232.968 113.007 233.547 M109.378 235.81 Q109.378 236.985 109.859 237.656 Q110.345 238.321 111.19 238.321 Q112.035 238.321 112.521 237.656 Q113.007 236.985 113.007 235.81 Q113.007 234.635 112.521 233.97 Q112.035 233.298 111.19 233.298 Q110.345 233.298 109.859 233.97 Q109.378 234.635 109.378 235.81 Z" fill="#000000" fill-rule="evenodd" fill-opacity="1" /><path clip-path="url(#clip470)" d="M 0 0 M120.733 235.538 L120.733 236.059 L115.837 236.059 Q115.906 237.158 116.496 237.737 Q117.092 238.31 118.152 238.31 Q118.765 238.31 119.338 238.159 Q119.917 238.009 120.484 237.708 L120.484 238.715 Q119.911 238.958 119.309 239.085 Q118.707 239.213 118.088 239.213 Q116.537 239.213 115.628 238.31 Q114.726 237.407 114.726 235.868 Q114.726 234.276 115.582 233.345 Q116.444 232.407 117.903 232.407 Q119.211 232.407 119.969 233.252 Q120.733 234.091 120.733 235.538 M119.668 235.225 Q119.656 234.352 119.176 233.831 Q118.701 233.31 117.914 233.31 Q117.023 233.31 116.485 233.813 Q115.952 234.317 115.871 235.231 L119.668 235.225 Z" fill="#000000" fill-rule="evenodd" fill-opacity="1" /><path clip-path="url(#clip470)" d="M 0 0 M125.981 232.754 L125.981 233.761 Q125.53 233.53 125.044 233.414 Q124.558 233.298 124.037 233.298 Q123.244 233.298 122.845 233.541 Q122.451 233.784 122.451 234.271 Q122.451 234.641 122.735 234.855 Q123.018 235.063 123.875 235.254 L124.239 235.335 Q125.374 235.578 125.848 236.024 Q126.329 236.464 126.329 237.257 Q126.329 238.159 125.611 238.686 Q124.899 239.213 123.649 239.213 Q123.128 239.213 122.561 239.108 Q122 239.01 121.375 238.808 L121.375 237.708 Q121.965 238.015 122.538 238.171 Q123.111 238.321 123.672 238.321 Q124.425 238.321 124.83 238.067 Q125.235 237.806 125.235 237.338 Q125.235 236.904 124.94 236.672 Q124.65 236.441 123.661 236.227 L123.29 236.14 Q122.301 235.931 121.861 235.503 Q121.421 235.069 121.421 234.317 Q121.421 233.402 122.069 232.905 Q122.717 232.407 123.91 232.407 Q124.5 232.407 125.021 232.494 Q125.542 232.581 125.981 232.754 Z" fill="#000000" fill-rule="evenodd" fill-opacity="1" /><polyline clip-path="url(#clip470)" style="stroke:#3da44d; stroke-width:1; stroke-opacity:1; fill:none" points="
  62.579,249.845 90.8774,249.845 
  "/>
<path clip-path="url(#clip470)" d="M 0 0 M95.5938 247.683 L96.6586 247.683 L96.6586 254.165 L95.5938 254.165 L95.5938 247.683 M95.5938 245.16 L96.6586 245.16 L96.6586 246.509 L95.5938 246.509 L95.5938 245.16 Z" fill="#000000" fill-rule="evenodd" fill-opacity="1" /><path clip-path="url(#clip470)" d="M 0 0 M103.163 250.253 L103.163 254.165 L102.098 254.165 L102.098 250.288 Q102.098 249.367 101.74 248.91 Q101.381 248.453 100.663 248.453 Q99.8009 248.453 99.3032 249.003 Q98.8056 249.553 98.8056 250.502 L98.8056 254.165 L97.735 254.165 L97.735 247.683 L98.8056 247.683 L98.8056 248.69 Q99.1875 248.106 99.7025 247.816 Q100.223 247.527 100.9 247.527 Q102.017 247.527 102.59 248.222 Q103.163 248.91 103.163 250.253 Z" fill="#000000" fill-rule="evenodd" fill-opacity="1" /><path clip-path="url(#clip470)" d="M 0 0 M105.333 245.843 L105.333 247.683 L107.527 247.683 L107.527 248.511 L105.333 248.511 L105.333 252.029 Q105.333 252.822 105.547 253.048 Q105.767 253.274 106.433 253.274 L107.527 253.274 L107.527 254.165 L106.433 254.165 Q105.2 254.165 104.731 253.708 Q104.263 253.245 104.263 252.029 L104.263 248.511 L103.481 248.511 L103.481 247.683 L104.263 247.683 L104.263 245.843 L105.333 245.843 Z" fill="#000000" fill-rule="evenodd" fill-opacity="1" /><path clip-path="url(#clip470)" d="M 0 0 M114.187 250.658 L114.187 251.179 L109.292 251.179 Q109.361 252.278 109.951 252.857 Q110.547 253.43 111.606 253.43 Q112.22 253.43 112.793 253.279 Q113.371 253.129 113.939 252.828 L113.939 253.835 Q113.366 254.078 112.764 254.205 Q112.162 254.333 111.543 254.333 Q109.992 254.333 109.083 253.43 Q108.181 252.527 108.181 250.988 Q108.181 249.396 109.037 248.465 Q109.899 247.527 111.358 247.527 Q112.665 247.527 113.424 248.372 Q114.187 249.211 114.187 250.658 M113.123 250.345 Q113.111 249.472 112.631 248.951 Q112.156 248.43 111.369 248.43 Q110.478 248.43 109.94 248.933 Q109.407 249.437 109.326 250.351 L113.123 250.345 Z" fill="#000000" fill-rule="evenodd" fill-opacity="1" /><path clip-path="url(#clip470)" d="M 0 0 M119.06 248.679 Q118.881 248.575 118.667 248.528 Q118.458 248.476 118.204 248.476 Q117.301 248.476 116.815 249.066 Q116.334 249.651 116.334 250.75 L116.334 254.165 L115.264 254.165 L115.264 247.683 L116.334 247.683 L116.334 248.69 Q116.67 248.1 117.208 247.816 Q117.746 247.527 118.516 247.527 Q118.626 247.527 118.759 247.544 Q118.892 247.556 119.054 247.585 L119.06 248.679 Z" fill="#000000" fill-rule="evenodd" fill-opacity="1" /><path clip-path="url(#clip470)" d="M 0 0 M121.207 253.193 L121.207 256.63 L120.136 256.63 L120.136 247.683 L121.207 247.683 L121.207 248.667 Q121.543 248.088 122.052 247.811 Q122.567 247.527 123.279 247.527 Q124.459 247.527 125.194 248.465 Q125.935 249.402 125.935 250.93 Q125.935 252.458 125.194 253.395 Q124.459 254.333 123.279 254.333 Q122.567 254.333 122.052 254.055 Q121.543 253.771 121.207 253.193 M124.83 250.93 Q124.83 249.755 124.344 249.09 Q123.863 248.418 123.018 248.418 Q122.173 248.418 121.687 249.09 Q121.207 249.755 121.207 250.93 Q121.207 252.105 121.687 252.776 Q122.173 253.441 123.018 253.441 Q123.863 253.441 124.344 252.776 Q124.83 252.105 124.83 250.93 Z" fill="#000000" fill-rule="evenodd" fill-opacity="1" /><path clip-path="url(#clip470)" d="M 0 0 M129.563 248.43 Q128.707 248.43 128.209 249.101 Q127.712 249.767 127.712 250.93 Q127.712 252.093 128.204 252.764 Q128.701 253.43 129.563 253.43 Q130.414 253.43 130.912 252.759 Q131.41 252.087 131.41 250.93 Q131.41 249.778 130.912 249.107 Q130.414 248.43 129.563 248.43 M129.563 247.527 Q130.952 247.527 131.745 248.43 Q132.538 249.333 132.538 250.93 Q132.538 252.521 131.745 253.43 Q130.952 254.333 129.563 254.333 Q128.169 254.333 127.376 253.43 Q126.589 252.521 126.589 250.93 Q126.589 249.333 127.376 248.43 Q128.169 247.527 129.563 247.527 Z" fill="#000000" fill-rule="evenodd" fill-opacity="1" /><path clip-path="url(#clip470)" d="M 0 0 M133.655 245.16 L134.72 245.16 L134.72 254.165 L133.655 254.165 L133.655 245.16 Z" fill="#000000" fill-rule="evenodd" fill-opacity="1" /><path clip-path="url(#clip470)" d="M 0 0 M138.782 250.907 Q137.492 250.907 136.994 251.202 Q136.496 251.497 136.496 252.209 Q136.496 252.776 136.867 253.112 Q137.243 253.441 137.885 253.441 Q138.771 253.441 139.303 252.816 Q139.841 252.186 139.841 251.144 L139.841 250.907 L138.782 250.907 M140.906 250.467 L140.906 254.165 L139.841 254.165 L139.841 253.181 Q139.477 253.771 138.933 254.055 Q138.389 254.333 137.602 254.333 Q136.606 254.333 136.016 253.777 Q135.432 253.216 135.432 252.278 Q135.432 251.184 136.161 250.629 Q136.896 250.073 138.348 250.073 L139.841 250.073 L139.841 249.969 Q139.841 249.234 139.355 248.835 Q138.875 248.43 138.001 248.43 Q137.445 248.43 136.919 248.563 Q136.392 248.696 135.906 248.962 L135.906 247.978 Q136.491 247.753 137.04 247.643 Q137.59 247.527 138.111 247.527 Q139.517 247.527 140.212 248.256 Q140.906 248.985 140.906 250.467 Z" fill="#000000" fill-rule="evenodd" fill-opacity="1" /><path clip-path="url(#clip470)" d="M 0 0 M147.411 250.253 L147.411 254.165 L146.346 254.165 L146.346 250.288 Q146.346 249.367 145.987 248.91 Q145.628 248.453 144.911 248.453 Q144.048 248.453 143.551 249.003 Q143.053 249.553 143.053 250.502 L143.053 254.165 L141.982 254.165 L141.982 247.683 L143.053 247.683 L143.053 248.69 Q143.435 248.106 143.95 247.816 Q144.471 247.527 145.148 247.527 Q146.265 247.527 146.838 248.222 Q147.411 248.91 147.411 250.253 Z" fill="#000000" fill-rule="evenodd" fill-opacity="1" /><path clip-path="url(#clip470)" d="M 0 0 M149.581 245.843 L149.581 247.683 L151.774 247.683 L151.774 248.511 L149.581 248.511 L149.581 252.029 Q149.581 252.822 149.795 253.048 Q150.015 253.274 150.68 253.274 L151.774 253.274 L151.774 254.165 L150.68 254.165 Q149.448 254.165 148.979 253.708 Q148.51 253.245 148.51 252.029 L148.51 248.511 L147.729 248.511 L147.729 247.683 L148.51 247.683 L148.51 245.843 L149.581 245.843 Z" fill="#000000" fill-rule="evenodd" fill-opacity="1" /></svg>
