<?xml version="1.0" encoding="utf-8"?>
<svg xmlns="http://www.w3.org/2000/svg" xmlns:xlink="http://www.w3.org/1999/xlink" width="120" height="75" viewBox="0 0 480 300">
<defs>
  <clipPath id="clip430">
    <rect x="0" y="0" width="480" height="300"/>
  </clipPath>
</defs>
<path clip-path="url(#clip430)" d="
M0 300 L480 300 L480 0 L0 0  Z
  " fill="#ffffff" fill-rule="evenodd" fill-opacity="1"/>
<defs>
  <clipPath id="clip431">
    <rect x="96" y="0" width="337" height="300"/>
  </clipPath>
</defs>
<path clip-path="url(#clip430)" d="
M43.7134 273.152 L468.189 273.152 L468.189 11.811 L43.7134 11.811  Z
  " fill="#ffffff" fill-rule="evenodd" fill-opacity="1"/>
<defs>
  <clipPath id="clip432">
    <rect x="43" y="11" width="425" height="262"/>
  </clipPath>
</defs>
<polyline clip-path="url(#clip432)" style="stroke:#000000; stroke-width:0.5; stroke-opacity:0.1; fill:none" points="
  55.7269,273.152 55.7269,11.811 
  "/>
<polyline clip-path="url(#clip432)" style="stroke:#000000; stroke-width:0.5; stroke-opacity:0.1; fill:none" points="
  155.839,273.152 155.839,11.811 
  "/>
<polyline clip-path="url(#clip432)" style="stroke:#000000; stroke-width:0.5; stroke-opacity:0.1; fill:none" points="
  255.951,273.152 255.951,11.811 
  "/>
<polyline clip-path="url(#clip432)" style="stroke:#000000; stroke-width:0.5; stroke-opacity:0.1; fill:none" points="
  356.063,273.152 356.063,11.811 
  "/>
<polyline clip-path="url(#clip432)" style="stroke:#000000; stroke-width:0.5; stroke-opacity:0.1; fill:none" points="
  456.176,273.152 456.176,11.811 
  "/>
<polyline clip-path="url(#clip430)" style="stroke:#000000; stroke-width:1; stroke-opacity:1; fill:none" points="
  43.7134,273.152 468.189,273.152 
  "/>
<polyline clip-path="url(#clip430)" style="stroke:#000000; stroke-width:1; stroke-opacity:1; fill:none" points="
  55.7269,273.152 55.7269,270.016 
  "/>
<polyline clip-path="url(#clip430)" style="stroke:#000000; stroke-width:1; stroke-opacity:1; fill:none" points="
  155.839,273.152 155.839,270.016 
  "/>
<polyline clip-path="url(#clip430)" style="stroke:#000000; stroke-width:1; stroke-opacity:1; fill:none" points="
  255.951,273.152 255.951,270.016 
  "/>
<polyline clip-path="url(#clip430)" style="stroke:#000000; stroke-width:1; stroke-opacity:1; fill:none" points="
  356.063,273.152 356.063,270.016 
  "/>
<polyline clip-path="url(#clip430)" style="stroke:#000000; stroke-width:1; stroke-opacity:1; fill:none" points="
  456.176,273.152 456.176,270.016 
  "/>
<path clip-path="url(#clip430)" d="M 0 0 M47.7292 279.49 Q46.8265 279.49 46.3693 280.381 Q45.9179 281.266 45.9179 283.049 Q45.9179 284.825 46.3693 285.716 Q46.8265 286.602 47.7292 286.602 Q48.6378 286.602 49.0892 285.716 Q49.5464 284.825 49.5464 283.049 Q49.5464 281.266 49.0892 280.381 Q48.6378 279.49 47.7292 279.49 M47.7292 278.564 Q49.1818 278.564 49.9457 279.715 Q50.7153 280.861 50.7153 283.049 Q50.7153 285.23 49.9457 286.382 Q49.1818 287.528 47.7292 287.528 Q46.2767 287.528 45.507 286.382 Q44.7431 285.23 44.7431 283.049 Q44.7431 280.861 45.507 279.715 Q46.2767 278.564 47.7292 278.564 Z" fill="#000000" fill-rule="evenodd" fill-opacity="1" /><path clip-path="url(#clip430)" d="M 0 0 M51.9827 285.89 L53.2037 285.89 L53.2037 287.36 L51.9827 287.36 L51.9827 285.89 Z" fill="#000000" fill-rule="evenodd" fill-opacity="1" /><path clip-path="url(#clip430)" d="M 0 0 M56.9711 279.49 Q56.0683 279.49 55.6111 280.381 Q55.1597 281.266 55.1597 283.049 Q55.1597 284.825 55.6111 285.716 Q56.0683 286.602 56.9711 286.602 Q57.8796 286.602 58.331 285.716 Q58.7882 284.825 58.7882 283.049 Q58.7882 281.266 58.331 280.381 Q57.8796 279.49 56.9711 279.49 M56.9711 278.564 Q58.4236 278.564 59.1875 279.715 Q59.9572 280.861 59.9572 283.049 Q59.9572 285.23 59.1875 286.382 Q58.4236 287.528 56.9711 287.528 Q55.5185 287.528 54.7489 286.382 Q53.985 285.23 53.985 283.049 Q53.985 280.861 54.7489 279.715 Q55.5185 278.564 56.9711 278.564 Z" fill="#000000" fill-rule="evenodd" fill-opacity="1" /><path clip-path="url(#clip430)" d="M 0 0 M63.7245 279.49 Q62.8217 279.49 62.3646 280.381 Q61.9132 281.266 61.9132 283.049 Q61.9132 284.825 62.3646 285.716 Q62.8217 286.602 63.7245 286.602 Q64.6331 286.602 65.0845 285.716 Q65.5416 284.825 65.5416 283.049 Q65.5416 281.266 65.0845 280.381 Q64.6331 279.49 63.7245 279.49 M63.7245 278.564 Q65.1771 278.564 65.9409 279.715 Q66.7106 280.861 66.7106 283.049 Q66.7106 285.23 65.9409 286.382 Q65.1771 287.528 63.7245 287.528 Q62.272 287.528 61.5023 286.382 Q60.7384 285.23 60.7384 283.049 Q60.7384 280.861 61.5023 279.715 Q62.272 278.564 63.7245 278.564 Z" fill="#000000" fill-rule="evenodd" fill-opacity="1" /><path clip-path="url(#clip430)" d="M 0 0 M148.165 279.49 Q147.263 279.49 146.806 280.381 Q146.354 281.266 146.354 283.049 Q146.354 284.825 146.806 285.716 Q147.263 286.602 148.165 286.602 Q149.074 286.602 149.525 285.716 Q149.983 284.825 149.983 283.049 Q149.983 281.266 149.525 280.381 Q149.074 279.49 148.165 279.49 M148.165 278.564 Q149.618 278.564 150.382 279.715 Q151.152 280.861 151.152 283.049 Q151.152 285.23 150.382 286.382 Q149.618 287.528 148.165 287.528 Q146.713 287.528 145.943 286.382 Q145.179 285.23 145.179 283.049 Q145.179 280.861 145.943 279.715 Q146.713 278.564 148.165 278.564 Z" fill="#000000" fill-rule="evenodd" fill-opacity="1" /><path clip-path="url(#clip430)" d="M 0 0 M152.419 285.89 L153.64 285.89 L153.64 287.36 L152.419 287.36 L152.419 285.89 Z" fill="#000000" fill-rule="evenodd" fill-opacity="1" /><path clip-path="url(#clip430)" d="M 0 0 M155.914 286.376 L159.994 286.376 L159.994 287.36 L154.508 287.36 L154.508 286.376 Q155.174 285.688 156.319 284.53 Q157.471 283.367 157.766 283.031 Q158.327 282.401 158.547 281.966 Q158.773 281.527 158.773 281.104 Q158.773 280.416 158.287 279.982 Q157.807 279.548 157.031 279.548 Q156.481 279.548 155.868 279.738 Q155.26 279.929 154.566 280.317 L154.566 279.137 Q155.272 278.853 155.885 278.708 Q156.499 278.564 157.008 278.564 Q158.351 278.564 159.149 279.235 Q159.948 279.906 159.948 281.029 Q159.948 281.561 159.745 282.042 Q159.549 282.516 159.022 283.164 Q158.877 283.332 158.102 284.137 Q157.326 284.935 155.914 286.376 Z" fill="#000000" fill-rule="evenodd" fill-opacity="1" /><path clip-path="url(#clip430)" d="M 0 0 M161.273 278.72 L165.862 278.72 L165.862 279.704 L162.344 279.704 L162.344 281.822 Q162.598 281.735 162.853 281.694 Q163.108 281.648 163.362 281.648 Q164.809 281.648 165.654 282.441 Q166.499 283.234 166.499 284.588 Q166.499 285.983 165.631 286.758 Q164.763 287.528 163.183 287.528 Q162.639 287.528 162.072 287.435 Q161.51 287.343 160.908 287.157 L160.908 285.983 Q161.429 286.266 161.985 286.405 Q162.54 286.544 163.16 286.544 Q164.161 286.544 164.745 286.017 Q165.33 285.491 165.33 284.588 Q165.33 283.685 164.745 283.159 Q164.161 282.632 163.16 282.632 Q162.691 282.632 162.222 282.736 Q161.759 282.84 161.273 283.06 L161.273 278.72 Z" fill="#000000" fill-rule="evenodd" fill-opacity="1" /><path clip-path="url(#clip430)" d="M 0 0 M248.078 279.49 Q247.175 279.49 246.718 280.381 Q246.267 281.266 246.267 283.049 Q246.267 284.825 246.718 285.716 Q247.175 286.602 248.078 286.602 Q248.987 286.602 249.438 285.716 Q249.895 284.825 249.895 283.049 Q249.895 281.266 249.438 280.381 Q248.987 279.49 248.078 279.49 M248.078 278.564 Q249.531 278.564 250.294 279.715 Q251.064 280.861 251.064 283.049 Q251.064 285.23 250.294 286.382 Q249.531 287.528 248.078 287.528 Q246.625 287.528 245.856 286.382 Q245.092 285.23 245.092 283.049 Q245.092 280.861 245.856 279.715 Q246.625 278.564 248.078 278.564 Z" fill="#000000" fill-rule="evenodd" fill-opacity="1" /><path clip-path="url(#clip430)" d="M 0 0 M252.331 285.89 L253.552 285.89 L253.552 287.36 L252.331 287.36 L252.331 285.89 Z" fill="#000000" fill-rule="evenodd" fill-opacity="1" /><path clip-path="url(#clip430)" d="M 0 0 M254.831 278.72 L259.421 278.72 L259.421 279.704 L255.902 279.704 L255.902 281.822 Q256.157 281.735 256.411 281.694 Q256.666 281.648 256.921 281.648 Q258.367 281.648 259.212 282.441 Q260.057 283.234 260.057 284.588 Q260.057 285.983 259.189 286.758 Q258.321 287.528 256.741 287.528 Q256.197 287.528 255.63 287.435 Q255.069 287.343 254.467 287.157 L254.467 285.983 Q254.988 286.266 255.543 286.405 Q256.099 286.544 256.718 286.544 Q257.719 286.544 258.304 286.017 Q258.888 285.491 258.888 284.588 Q258.888 283.685 258.304 283.159 Q257.719 282.632 256.718 282.632 Q256.249 282.632 255.78 282.736 Q255.318 282.84 254.831 283.06 L254.831 278.72 Z" fill="#000000" fill-rule="evenodd" fill-opacity="1" /><path clip-path="url(#clip430)" d="M 0 0 M263.824 279.49 Q262.922 279.49 262.464 280.381 Q262.013 281.266 262.013 283.049 Q262.013 284.825 262.464 285.716 Q262.922 286.602 263.824 286.602 Q264.733 286.602 265.184 285.716 Q265.642 284.825 265.642 283.049 Q265.642 281.266 265.184 280.381 Q264.733 279.49 263.824 279.49 M263.824 278.564 Q265.277 278.564 266.041 279.715 Q266.811 280.861 266.811 283.049 Q266.811 285.23 266.041 286.382 Q265.277 287.528 263.824 287.528 Q262.372 287.528 261.602 286.382 Q260.838 285.23 260.838 283.049 Q260.838 280.861 261.602 279.715 Q262.372 278.564 263.824 278.564 Z" fill="#000000" fill-rule="evenodd" fill-opacity="1" /><path clip-path="url(#clip430)" d="M 0 0 M348.303 279.49 Q347.4 279.49 346.943 280.381 Q346.492 281.266 346.492 283.049 Q346.492 284.825 346.943 285.716 Q347.4 286.602 348.303 286.602 Q349.212 286.602 349.663 285.716 Q350.12 284.825 350.12 283.049 Q350.12 281.266 349.663 280.381 Q349.212 279.49 348.303 279.49 M348.303 278.564 Q349.756 278.564 350.519 279.715 Q351.289 280.861 351.289 283.049 Q351.289 285.23 350.519 286.382 Q349.756 287.528 348.303 287.528 Q346.85 287.528 346.081 286.382 Q345.317 285.23 345.317 283.049 Q345.317 280.861 346.081 279.715 Q346.85 278.564 348.303 278.564 Z" fill="#000000" fill-rule="evenodd" fill-opacity="1" /><path clip-path="url(#clip430)" d="M 0 0 M352.556 285.89 L353.777 285.89 L353.777 287.36 L352.556 287.36 L352.556 285.89 Z" fill="#000000" fill-rule="evenodd" fill-opacity="1" /><path clip-path="url(#clip430)" d="M 0 0 M354.75 278.72 L360.305 278.72 L360.305 279.218 L357.169 287.36 L355.948 287.36 L358.899 279.704 L354.75 279.704 L354.75 278.72 Z" fill="#000000" fill-rule="evenodd" fill-opacity="1" /><path clip-path="url(#clip430)" d="M 0 0 M361.584 278.72 L366.173 278.72 L366.173 279.704 L362.655 279.704 L362.655 281.822 Q362.909 281.735 363.164 281.694 Q363.419 281.648 363.673 281.648 Q365.12 281.648 365.965 282.441 Q366.81 283.234 366.81 284.588 Q366.81 285.983 365.942 286.758 Q365.074 287.528 363.494 287.528 Q362.95 287.528 362.383 287.435 Q361.821 287.343 361.22 287.157 L361.22 285.983 Q361.74 286.266 362.296 286.405 Q362.852 286.544 363.471 286.544 Q364.472 286.544 365.056 286.017 Q365.641 285.491 365.641 284.588 Q365.641 283.685 365.056 283.159 Q364.472 282.632 363.471 282.632 Q363.002 282.632 362.533 282.736 Q362.07 282.84 361.584 283.06 L361.584 278.72 Z" fill="#000000" fill-rule="evenodd" fill-opacity="1" /><path clip-path="url(#clip430)" d="M 0 0 M445.773 286.376 L447.683 286.376 L447.683 279.785 L445.606 280.201 L445.606 279.137 L447.672 278.72 L448.84 278.72 L448.84 286.376 L450.75 286.376 L450.75 287.36 L445.773 287.36 L445.773 286.376 Z" fill="#000000" fill-rule="evenodd" fill-opacity="1" /><path clip-path="url(#clip430)" d="M 0 0 M452.018 285.89 L453.239 285.89 L453.239 287.36 L452.018 287.36 L452.018 285.89 Z" fill="#000000" fill-rule="evenodd" fill-opacity="1" /><path clip-path="url(#clip430)" d="M 0 0 M457.006 279.49 Q456.103 279.49 455.646 280.381 Q455.195 281.266 455.195 283.049 Q455.195 284.825 455.646 285.716 Q456.103 286.602 457.006 286.602 Q457.915 286.602 458.366 285.716 Q458.823 284.825 458.823 283.049 Q458.823 281.266 458.366 280.381 Q457.915 279.49 457.006 279.49 M457.006 278.564 Q458.458 278.564 459.222 279.715 Q459.992 280.861 459.992 283.049 Q459.992 285.23 459.222 286.382 Q458.458 287.528 457.006 287.528 Q455.553 287.528 454.784 286.382 Q454.02 285.23 454.02 283.049 Q454.02 280.861 454.784 279.715 Q455.553 278.564 457.006 278.564 Z" fill="#000000" fill-rule="evenodd" fill-opacity="1" /><path clip-path="url(#clip430)" d="M 0 0 M463.759 279.49 Q462.857 279.49 462.399 280.381 Q461.948 281.266 461.948 283.049 Q461.948 284.825 462.399 285.716 Q462.857 286.602 463.759 286.602 Q464.668 286.602 465.119 285.716 Q465.577 284.825 465.577 283.049 Q465.577 281.266 465.119 280.381 Q464.668 279.49 463.759 279.49 M463.759 278.564 Q465.212 278.564 465.976 279.715 Q466.745 280.861 466.745 283.049 Q466.745 285.23 465.976 286.382 Q465.212 287.528 463.759 287.528 Q462.307 287.528 461.537 286.382 Q460.773 285.23 460.773 283.049 Q460.773 280.861 461.537 279.715 Q462.307 278.564 463.759 278.564 Z" fill="#000000" fill-rule="evenodd" fill-opacity="1" /><polyline clip-path="url(#clip432)" style="stroke:#000000; stroke-width:0.5; stroke-opacity:0.1; fill:none" points="
  43.7134,265.759 468.189,265.759 
  "/>
<polyline clip-path="url(#clip432)" style="stroke:#000000; stroke-width:0.5; stroke-opacity:0.1; fill:none" points="
  43.7134,204.027 468.189,204.027 
  "/>
<polyline clip-path="url(#clip432)" style="stroke:#000000; stroke-width:0.5; stroke-opacity:0.1; fill:none" points="
  43.7134,142.295 468.189,142.295 
  "/>
<polyline clip-path="url(#clip432)" style="stroke:#000000; stroke-width:0.5; stroke-opacity:0.1; fill:none" points="
  43.7134,80.5631 468.189,80.5631 
  "/>
<polyline clip-path="url(#clip432)" style="stroke:#000000; stroke-width:0.5; stroke-opacity:0.1; fill:none" points="
  43.7134,18.8312 468.189,18.8312 
  "/>
<polyline clip-path="url(#clip430)" style="stroke:#000000; stroke-width:1; stroke-opacity:1; fill:none" points="
  43.7134,273.152 43.7134,11.811 
  "/>
<polyline clip-path="url(#clip430)" style="stroke:#000000; stroke-width:1; stroke-opacity:1; fill:none" points="
  43.7134,265.759 48.8071,265.759 
  "/>
<polyline clip-path="url(#clip430)" style="stroke:#000000; stroke-width:1; stroke-opacity:1; fill:none" points="
  43.7134,204.027 48.8071,204.027 
  "/>
<polyline clip-path="url(#clip430)" style="stroke:#000000; stroke-width:1; stroke-opacity:1; fill:none" points="
  43.7134,142.295 48.8071,142.295 
  "/>
<polyline clip-path="url(#clip430)" style="stroke:#000000; stroke-width:1; stroke-opacity:1; fill:none" points="
  43.7134,80.5631 48.8071,80.5631 
  "/>
<polyline clip-path="url(#clip430)" style="stroke:#000000; stroke-width:1; stroke-opacity:1; fill:none" points="
  43.7134,18.8312 48.8071,18.8312 
  "/>
<path clip-path="url(#clip430)" d="M 0 0 M13.4059 265.872 L20.8248 265.872 L20.8248 266.855 L13.4059 266.855 L13.4059 265.872 Z" fill="#000000" fill-rule="evenodd" fill-opacity="1" /><path clip-path="url(#clip430)" d="M 0 0 M22.2947 269.095 L24.2045 269.095 L24.2045 262.504 L22.1269 262.92 L22.1269 261.855 L24.1929 261.439 L25.3619 261.439 L25.3619 269.095 L27.2716 269.095 L27.2716 270.079 L22.2947 270.079 L22.2947 269.095 Z" fill="#000000" fill-rule="evenodd" fill-opacity="1" /><path clip-path="url(#clip430)" d="M 0 0 M28.5389 268.609 L29.76 268.609 L29.76 270.079 L28.5389 270.079 L28.5389 268.609 Z" fill="#000000" fill-rule="evenodd" fill-opacity="1" /><path clip-path="url(#clip430)" d="M 0 0 M33.5273 262.208 Q32.6245 262.208 32.1674 263.1 Q31.716 263.985 31.716 265.767 Q31.716 267.544 32.1674 268.435 Q32.6245 269.321 33.5273 269.321 Q34.4359 269.321 34.8873 268.435 Q35.3444 267.544 35.3444 265.767 Q35.3444 263.985 34.8873 263.1 Q34.4359 262.208 33.5273 262.208 M33.5273 261.283 Q34.9799 261.283 35.7437 262.434 Q36.5134 263.58 36.5134 265.767 Q36.5134 267.949 35.7437 269.101 Q34.9799 270.247 33.5273 270.247 Q32.0748 270.247 31.3051 269.101 Q30.5412 267.949 30.5412 265.767 Q30.5412 263.58 31.3051 262.434 Q32.0748 261.283 33.5273 261.283 Z" fill="#000000" fill-rule="evenodd" fill-opacity="1" /><path clip-path="url(#clip430)" d="M 0 0 M13.348 204.14 L20.767 204.14 L20.767 205.124 L13.348 205.124 L13.348 204.14 Z" fill="#000000" fill-rule="evenodd" fill-opacity="1" /><path clip-path="url(#clip430)" d="M 0 0 M24.5343 200.477 Q23.6315 200.477 23.1744 201.368 Q22.723 202.253 22.723 204.036 Q22.723 205.812 23.1744 206.703 Q23.6315 207.589 24.5343 207.589 Q25.4429 207.589 25.8943 206.703 Q26.3514 205.812 26.3514 204.036 Q26.3514 202.253 25.8943 201.368 Q25.4429 200.477 24.5343 200.477 M24.5343 199.551 Q25.9869 199.551 26.7507 200.702 Q27.5204 201.848 27.5204 204.036 Q27.5204 206.217 26.7507 207.369 Q25.9869 208.515 24.5343 208.515 Q23.0818 208.515 22.3121 207.369 Q21.5482 206.217 21.5482 204.036 Q21.5482 201.848 22.3121 200.702 Q23.0818 199.551 24.5343 199.551 Z" fill="#000000" fill-rule="evenodd" fill-opacity="1" /><path clip-path="url(#clip430)" d="M 0 0 M28.7878 206.877 L30.0088 206.877 L30.0088 208.347 L28.7878 208.347 L28.7878 206.877 Z" fill="#000000" fill-rule="evenodd" fill-opacity="1" /><path clip-path="url(#clip430)" d="M 0 0 M31.2878 199.707 L35.8768 199.707 L35.8768 200.691 L32.3583 200.691 L32.3583 202.809 Q32.613 202.722 32.8676 202.681 Q33.1222 202.635 33.3769 202.635 Q34.8236 202.635 35.6685 203.428 Q36.5134 204.221 36.5134 205.575 Q36.5134 206.97 35.6454 207.745 Q34.7773 208.515 33.1975 208.515 Q32.6535 208.515 32.0864 208.422 Q31.525 208.33 30.9232 208.144 L30.9232 206.97 Q31.444 207.253 31.9996 207.392 Q32.5551 207.531 33.1743 207.531 Q34.1755 207.531 34.76 207.004 Q35.3444 206.478 35.3444 205.575 Q35.3444 204.672 34.76 204.146 Q34.1755 203.619 33.1743 203.619 Q32.7056 203.619 32.2368 203.723 Q31.7739 203.827 31.2878 204.047 L31.2878 199.707 Z" fill="#000000" fill-rule="evenodd" fill-opacity="1" /><path clip-path="url(#clip430)" d="M 0 0 M24.2855 138.745 Q23.3827 138.745 22.9255 139.636 Q22.4741 140.521 22.4741 142.304 Q22.4741 144.08 22.9255 144.971 Q23.3827 145.857 24.2855 145.857 Q25.194 145.857 25.6454 144.971 Q26.1026 144.08 26.1026 142.304 Q26.1026 140.521 25.6454 139.636 Q25.194 138.745 24.2855 138.745 M24.2855 137.819 Q25.738 137.819 26.5019 138.97 Q27.2716 140.116 27.2716 142.304 Q27.2716 144.485 26.5019 145.637 Q25.738 146.783 24.2855 146.783 Q22.8329 146.783 22.0633 145.637 Q21.2994 144.485 21.2994 142.304 Q21.2994 140.116 22.0633 138.97 Q22.8329 137.819 24.2855 137.819 Z" fill="#000000" fill-rule="evenodd" fill-opacity="1" /><path clip-path="url(#clip430)" d="M 0 0 M28.5389 145.145 L29.76 145.145 L29.76 146.615 L28.5389 146.615 L28.5389 145.145 Z" fill="#000000" fill-rule="evenodd" fill-opacity="1" /><path clip-path="url(#clip430)" d="M 0 0 M33.5273 138.745 Q32.6245 138.745 32.1674 139.636 Q31.716 140.521 31.716 142.304 Q31.716 144.08 32.1674 144.971 Q32.6245 145.857 33.5273 145.857 Q34.4359 145.857 34.8873 144.971 Q35.3444 144.08 35.3444 142.304 Q35.3444 140.521 34.8873 139.636 Q34.4359 138.745 33.5273 138.745 M33.5273 137.819 Q34.9799 137.819 35.7437 138.97 Q36.5134 140.116 36.5134 142.304 Q36.5134 144.485 35.7437 145.637 Q34.9799 146.783 33.5273 146.783 Q32.0748 146.783 31.3051 145.637 Q30.5412 144.485 30.5412 142.304 Q30.5412 140.116 31.3051 138.97 Q32.0748 137.819 33.5273 137.819 Z" fill="#000000" fill-rule="evenodd" fill-opacity="1" /><path clip-path="url(#clip430)" d="M 0 0 M24.5343 77.0127 Q23.6315 77.0127 23.1744 77.9039 Q22.723 78.7893 22.723 80.5717 Q22.723 82.3484 23.1744 83.2395 Q23.6315 84.125 24.5343 84.125 Q25.4429 84.125 25.8943 83.2395 Q26.3514 82.3484 26.3514 80.5717 Q26.3514 78.7893 25.8943 77.9039 Q25.4429 77.0127 24.5343 77.0127 M24.5343 76.0868 Q25.9869 76.0868 26.7507 77.2384 Q27.5204 78.3843 27.5204 80.5717 Q27.5204 82.7534 26.7507 83.9051 Q25.9869 85.0509 24.5343 85.0509 Q23.0818 85.0509 22.3121 83.9051 Q21.5482 82.7534 21.5482 80.5717 Q21.5482 78.3843 22.3121 77.2384 Q23.0818 76.0868 24.5343 76.0868 Z" fill="#000000" fill-rule="evenodd" fill-opacity="1" /><path clip-path="url(#clip430)" d="M 0 0 M28.7878 83.4132 L30.0088 83.4132 L30.0088 84.8831 L28.7878 84.8831 L28.7878 83.4132 Z" fill="#000000" fill-rule="evenodd" fill-opacity="1" /><path clip-path="url(#clip430)" d="M 0 0 M31.2878 76.2431 L35.8768 76.2431 L35.8768 77.2269 L32.3583 77.2269 L32.3583 79.3449 Q32.613 79.2581 32.8676 79.2176 Q33.1222 79.1713 33.3769 79.1713 Q34.8236 79.1713 35.6685 79.9641 Q36.5134 80.7569 36.5134 82.1111 Q36.5134 83.5058 35.6454 84.2812 Q34.7773 85.0509 33.1975 85.0509 Q32.6535 85.0509 32.0864 84.9583 Q31.525 84.8657 30.9232 84.6805 L30.9232 83.5058 Q31.444 83.7893 31.9996 83.9282 Q32.5551 84.0671 33.1743 84.0671 Q34.1755 84.0671 34.76 83.5405 Q35.3444 83.0139 35.3444 82.1111 Q35.3444 81.2083 34.76 80.6817 Q34.1755 80.1551 33.1743 80.1551 Q32.7056 80.1551 32.2368 80.2592 Q31.7739 80.3634 31.2878 80.5833 L31.2878 76.2431 Z" fill="#000000" fill-rule="evenodd" fill-opacity="1" /><path clip-path="url(#clip430)" d="M 0 0 M22.2947 22.1674 L24.2045 22.1674 L24.2045 15.576 L22.1269 15.9926 L22.1269 14.9278 L24.1929 14.5112 L25.3619 14.5112 L25.3619 22.1674 L27.2716 22.1674 L27.2716 23.1512 L22.2947 23.1512 L22.2947 22.1674 Z" fill="#000000" fill-rule="evenodd" fill-opacity="1" /><path clip-path="url(#clip430)" d="M 0 0 M28.5389 21.6813 L29.76 21.6813 L29.76 23.1512 L28.5389 23.1512 L28.5389 21.6813 Z" fill="#000000" fill-rule="evenodd" fill-opacity="1" /><path clip-path="url(#clip430)" d="M 0 0 M33.5273 15.2808 Q32.6245 15.2808 32.1674 16.172 Q31.716 17.0574 31.716 18.8398 Q31.716 20.6164 32.1674 21.5076 Q32.6245 22.3931 33.5273 22.3931 Q34.4359 22.3931 34.8873 21.5076 Q35.3444 20.6164 35.3444 18.8398 Q35.3444 17.0574 34.8873 16.172 Q34.4359 15.2808 33.5273 15.2808 M33.5273 14.3549 Q34.9799 14.3549 35.7437 15.5065 Q36.5134 16.6523 36.5134 18.8398 Q36.5134 21.0215 35.7437 22.1731 Q34.9799 23.319 33.5273 23.319 Q32.0748 23.319 31.3051 22.1731 Q30.5412 21.0215 30.5412 18.8398 Q30.5412 16.6523 31.3051 15.5065 Q32.0748 14.3549 33.5273 14.3549 Z" fill="#000000" fill-rule="evenodd" fill-opacity="1" /><polyline clip-path="url(#clip432)" style="stroke:#009af9; stroke-width:2; stroke-opacity:1; fill:none" points="
  55.7269,38.4037 59.6376,37.1083 95.7977,26.2841 117.528,21.5228 135.902,19.2098 155.86,19.2075 174.26,22.2767 184.123,25.4163 193.986,29.7618 205.414,36.4701 
  216.841,45.1515 226.997,54.6528 237.152,65.9246 246.058,77.3033 254.963,90.0765 264.672,105.538 274.382,122.476 284.149,140.785 293.916,160.037 304.714,181.868 
  315.513,203.476 325.788,222.883 336.062,240.076 341.404,247.737 346.746,254.287 352.087,259.537 357.429,263.297 361.925,265.172 366.422,265.756 370.918,264.951 
  375.415,262.672 380.905,257.788 386.394,250.506 391.884,240.785 397.374,228.643 402.534,215.103 407.695,199.65 412.855,182.5 418.016,163.95 426.284,132.289 
  434.551,100.026 438.685,84.431 442.819,69.6536 446.952,56.0623 451.086,44.0355 452.358,40.7074 453.631,37.5743 454.903,34.6471 456.176,31.9362 
  "/>
<circle clip-path="url(#clip432)" cx="55.7269" cy="38.4037" r="3" fill="#000000" fill-rule="evenodd" fill-opacity="1" stroke="none"/>
<circle clip-path="url(#clip432)" cx="189.21" cy="27.4988" r="3" fill="#000000" fill-rule="evenodd" fill-opacity="1" stroke="none"/>
<circle clip-path="url(#clip432)" cx="322.693" cy="217.217" r="3" fill="#000000" fill-rule="evenodd" fill-opacity="1" stroke="none"/>
<circle clip-path="url(#clip432)" cx="456.176" cy="31.9362" r="3" fill="#000000" fill-rule="evenodd" fill-opacity="1" stroke="none"/>
<path clip-path="url(#clip430)" d="
M57.8626 264.441 L147.526 264.441 L147.526 219.081 L57.8626 219.081  Z
  " fill="#ffffff" fill-rule="evenodd" fill-opacity="1"/>
<polyline clip-path="url(#clip430)" style="stroke:#000000; stroke-width:1; stroke-opacity:1; fill:none" points="
  57.8626,264.441 147.526,264.441 147.526,219.081 57.8626,219.081 57.8626,264.441 
  "/>
<polyline clip-path="url(#clip430)" style="stroke:#009af9; stroke-width:1; stroke-opacity:1; fill:none" points="
  62.579,234.201 90.8774,234.201 
  "/>
<path clip-path="url(#clip430)" d="M 0 0 M99.7199 229.516 L99.7199 230.401 L98.7014 230.401 Q98.1285 230.401 97.9028 230.633 Q97.6829 230.864 97.6829 231.466 L97.6829 232.039 L99.4363 232.039 L99.4363 232.867 L97.6829 232.867 L97.6829 238.521 L96.6123 238.521 L96.6123 232.867 L95.5938 232.867 L95.5938 232.039 L96.6123 232.039 L96.6123 231.588 Q96.6123 230.506 97.1157 230.014 Q97.6192 229.516 98.713 229.516 L99.7199 229.516 Z" fill="#000000" fill-rule="evenodd" fill-opacity="1" /><path clip-path="url(#clip430)" d="M 0 0 M100.727 235.963 L100.727 232.039 L101.792 232.039 L101.792 235.922 Q101.792 236.842 102.15 237.305 Q102.509 237.763 103.227 237.763 Q104.089 237.763 104.587 237.213 Q105.09 236.663 105.09 235.714 L105.09 232.039 L106.155 232.039 L106.155 238.521 L105.09 238.521 L105.09 237.525 Q104.703 238.116 104.187 238.405 Q103.678 238.688 103.001 238.688 Q101.884 238.688 101.306 237.994 Q100.727 237.3 100.727 235.963 M103.406 231.883 L103.406 231.883 Z" fill="#000000" fill-rule="evenodd" fill-opacity="1" /><path clip-path="url(#clip430)" d="M 0 0 M112.66 234.609 L112.66 238.521 L111.595 238.521 L111.595 234.643 Q111.595 233.723 111.236 233.266 Q110.877 232.809 110.16 232.809 Q109.297 232.809 108.8 233.359 Q108.302 233.908 108.302 234.857 L108.302 238.521 L107.231 238.521 L107.231 232.039 L108.302 232.039 L108.302 233.046 Q108.684 232.462 109.199 232.172 Q109.72 231.883 110.397 231.883 Q111.514 231.883 112.087 232.577 Q112.66 233.266 112.66 234.609 Z" fill="#000000" fill-rule="evenodd" fill-opacity="1" /><path clip-path="url(#clip430)" d="M 0 0 M118.441 232.288 L118.441 233.283 Q117.989 233.035 117.532 232.913 Q117.081 232.786 116.618 232.786 Q115.582 232.786 115.009 233.445 Q114.436 234.099 114.436 235.286 Q114.436 236.472 115.009 237.132 Q115.582 237.786 116.618 237.786 Q117.081 237.786 117.532 237.664 Q117.989 237.537 118.441 237.288 L118.441 238.272 Q117.995 238.48 117.515 238.584 Q117.04 238.688 116.502 238.688 Q115.038 238.688 114.176 237.768 Q113.314 236.848 113.314 235.286 Q113.314 233.7 114.182 232.791 Q115.055 231.883 116.572 231.883 Q117.064 231.883 117.532 231.987 Q118.001 232.085 118.441 232.288 Z" fill="#000000" fill-rule="evenodd" fill-opacity="1" /><path clip-path="url(#clip430)" d="M 0 0 M120.611 230.199 L120.611 232.039 L122.804 232.039 L122.804 232.867 L120.611 232.867 L120.611 236.385 Q120.611 237.178 120.825 237.404 Q121.045 237.629 121.711 237.629 L122.804 237.629 L122.804 238.521 L121.711 238.521 Q120.478 238.521 120.009 238.063 Q119.54 237.6 119.54 236.385 L119.54 232.867 L118.759 232.867 L118.759 232.039 L119.54 232.039 L119.54 230.199 L120.611 230.199 Z" fill="#000000" fill-rule="evenodd" fill-opacity="1" /><path clip-path="url(#clip430)" d="M 0 0 M123.921 232.039 L124.986 232.039 L124.986 238.521 L123.921 238.521 L123.921 232.039 M123.921 229.516 L124.986 229.516 L124.986 230.864 L123.921 230.864 L123.921 229.516 Z" fill="#000000" fill-rule="evenodd" fill-opacity="1" /><path clip-path="url(#clip430)" d="M 0 0 M128.614 232.786 Q127.758 232.786 127.26 233.457 Q126.763 234.122 126.763 235.286 Q126.763 236.449 127.254 237.12 Q127.752 237.786 128.614 237.786 Q129.465 237.786 129.963 237.114 Q130.46 236.443 130.46 235.286 Q130.46 234.134 129.963 233.463 Q129.465 232.786 128.614 232.786 M128.614 231.883 Q130.003 231.883 130.796 232.786 Q131.589 233.688 131.589 235.286 Q131.589 236.877 130.796 237.786 Q130.003 238.688 128.614 238.688 Q127.22 238.688 126.427 237.786 Q125.64 236.877 125.64 235.286 Q125.64 233.688 126.427 232.786 Q127.22 231.883 128.614 231.883 Z" fill="#000000" fill-rule="evenodd" fill-opacity="1" /><path clip-path="url(#clip430)" d="M 0 0 M138.094 234.609 L138.094 238.521 L137.029 238.521 L137.029 234.643 Q137.029 233.723 136.67 233.266 Q136.311 232.809 135.594 232.809 Q134.731 232.809 134.234 233.359 Q133.736 233.908 133.736 234.857 L133.736 238.521 L132.665 238.521 L132.665 232.039 L133.736 232.039 L133.736 233.046 Q134.118 232.462 134.633 232.172 Q135.154 231.883 135.831 231.883 Q136.948 231.883 137.521 232.577 Q138.094 233.266 138.094 234.609 Z" fill="#000000" fill-rule="evenodd" fill-opacity="1" /><circle clip-path="url(#clip430)" cx="76.7282" cy="249.321" r="5" fill="#000000" fill-rule="evenodd" fill-opacity="1" stroke="none"/>
<path clip-path="url(#clip430)" d="M 0 0 M101.022 249.729 L101.022 253.641 L99.9572 253.641 L99.9572 249.763 Q99.9572 248.843 99.5984 248.386 Q99.2396 247.929 98.522 247.929 Q97.6597 247.929 97.162 248.479 Q96.6644 249.028 96.6644 249.977 L96.6644 253.641 L95.5938 253.641 L95.5938 247.159 L96.6644 247.159 L96.6644 248.166 Q97.0463 247.582 97.5613 247.292 Q98.0822 247.003 98.7593 247.003 Q99.8761 247.003 100.449 247.697 Q101.022 248.386 101.022 249.729 Z" fill="#000000" fill-rule="evenodd" fill-opacity="1" /><path clip-path="url(#clip430)" d="M 0 0 M104.65 247.906 Q103.794 247.906 103.296 248.577 Q102.799 249.242 102.799 250.406 Q102.799 251.569 103.29 252.24 Q103.788 252.906 104.65 252.906 Q105.501 252.906 105.999 252.234 Q106.496 251.563 106.496 250.406 Q106.496 249.254 105.999 248.583 Q105.501 247.906 104.65 247.906 M104.65 247.003 Q106.039 247.003 106.832 247.906 Q107.625 248.808 107.625 250.406 Q107.625 251.997 106.832 252.906 Q106.039 253.808 104.65 253.808 Q103.256 253.808 102.463 252.906 Q101.676 251.997 101.676 250.406 Q101.676 248.808 102.463 247.906 Q103.256 247.003 104.65 247.003 Z" fill="#000000" fill-rule="evenodd" fill-opacity="1" /><path clip-path="url(#clip430)" d="M 0 0 M113.007 248.143 L113.007 244.636 L114.072 244.636 L114.072 253.641 L113.007 253.641 L113.007 252.668 Q112.671 253.247 112.156 253.531 Q111.647 253.808 110.929 253.808 Q109.755 253.808 109.014 252.871 Q108.279 251.933 108.279 250.406 Q108.279 248.878 109.014 247.94 Q109.755 247.003 110.929 247.003 Q111.647 247.003 112.156 247.286 Q112.671 247.564 113.007 248.143 M109.378 250.406 Q109.378 251.58 109.859 252.252 Q110.345 252.917 111.19 252.917 Q112.035 252.917 112.521 252.252 Q113.007 251.58 113.007 250.406 Q113.007 249.231 112.521 248.565 Q112.035 247.894 111.19 247.894 Q110.345 247.894 109.859 248.565 Q109.378 249.231 109.378 250.406 Z" fill="#000000" fill-rule="evenodd" fill-opacity="1" /><path clip-path="url(#clip430)" d="M 0 0 M120.733 250.134 L120.733 250.655 L115.837 250.655 Q115.906 251.754 116.496 252.333 Q117.092 252.906 118.152 252.906 Q118.765 252.906 119.338 252.755 Q119.917 252.605 120.484 252.304 L120.484 253.311 Q119.911 253.554 119.309 253.681 Q118.707 253.808 118.088 253.808 Q116.537 253.808 115.628 252.906 Q114.726 252.003 114.726 250.464 Q114.726 248.872 115.582 247.94 Q116.444 247.003 117.903 247.003 Q119.211 247.003 119.969 247.848 Q120.733 248.687 120.733 250.134 M119.668 249.821 Q119.656 248.947 119.176 248.427 Q118.701 247.906 117.914 247.906 Q117.023 247.906 116.485 248.409 Q115.952 248.913 115.871 249.827 L119.668 249.821 Z" fill="#000000" fill-rule="evenodd" fill-opacity="1" /><path clip-path="url(#clip430)" d="M 0 0 M125.981 247.35 L125.981 248.357 Q125.53 248.126 125.044 248.01 Q124.558 247.894 124.037 247.894 Q123.244 247.894 122.845 248.137 Q122.451 248.38 122.451 248.866 Q122.451 249.237 122.735 249.451 Q123.018 249.659 123.875 249.85 L124.239 249.931 Q125.374 250.174 125.848 250.62 Q126.329 251.06 126.329 251.852 Q126.329 252.755 125.611 253.282 Q124.899 253.808 123.649 253.808 Q123.128 253.808 122.561 253.704 Q122 253.606 121.375 253.403 L121.375 252.304 Q121.965 252.611 122.538 252.767 Q123.111 252.917 123.672 252.917 Q124.425 252.917 124.83 252.663 Q125.235 252.402 125.235 251.933 Q125.235 251.499 124.94 251.268 Q124.65 251.036 123.661 250.822 L123.29 250.736 Q122.301 250.527 121.861 250.099 Q121.421 249.665 121.421 248.913 Q121.421 247.998 122.069 247.501 Q122.717 247.003 123.91 247.003 Q124.5 247.003 125.021 247.09 Q125.542 247.177 125.981 247.35 Z" fill="#000000" fill-rule="evenodd" fill-opacity="1" /></svg>
