<?xml version="1.0" encoding="utf-8"?>
<svg xmlns="http://www.w3.org/2000/svg" xmlns:xlink="http://www.w3.org/1999/xlink" width="120" height="75" viewBox="0 0 480 300">
<defs>
  <clipPath id="clip330">
    <rect x="0" y="0" width="480" height="300"/>
  </clipPath>
</defs>
<path clip-path="url(#clip330)" d="
M0 300 L480 300 L480 0 L0 0  Z
  " fill="#ffffff" fill-rule="evenodd" fill-opacity="1"/>
<defs>
  <clipPath id="clip331">
    <rect x="96" y="0" width="337" height="300"/>
  </clipPath>
</defs>
<path clip-path="url(#clip330)" d="
M41.5879 258.408 L468.189 258.408 L468.189 27.537 L41.5879 27.537  Z
  " fill="#ffffff" fill-rule="evenodd" fill-opacity="1"/>
<defs>
  <clipPath id="clip332">
    <rect x="41" y="27" width="428" height="232"/>
  </clipPath>
</defs>
<polyline clip-path="url(#clip332)" style="stroke:#000000; stroke-width:0.5; stroke-opacity:0.1; fill:none" points="
  53.6615,258.408 53.6615,27.537 
  "/>
<polyline clip-path="url(#clip332)" style="stroke:#000000; stroke-width:0.5; stroke-opacity:0.1; fill:none" points="
  154.275,258.408 154.275,27.537 
  "/>
<polyline clip-path="url(#clip332)" style="stroke:#000000; stroke-width:0.5; stroke-opacity:0.1; fill:none" points="
  254.888,258.408 254.888,27.537 
  "/>
<polyline clip-path="url(#clip332)" style="stroke:#000000; stroke-width:0.5; stroke-opacity:0.1; fill:none" points="
  355.502,258.408 355.502,27.537 
  "/>
<polyline clip-path="url(#clip332)" style="stroke:#000000; stroke-width:0.5; stroke-opacity:0.1; fill:none" points="
  456.115,258.408 456.115,27.537 
  "/>
<polyline clip-path="url(#clip330)" style="stroke:#000000; stroke-width:1; stroke-opacity:1; fill:none" points="
  41.5879,258.408 468.189,258.408 
  "/>
<polyline clip-path="url(#clip330)" style="stroke:#000000; stroke-width:1; stroke-opacity:1; fill:none" points="
  53.6615,258.408 53.6615,255.638 
  "/>
<polyline clip-path="url(#clip330)" style="stroke:#000000; stroke-width:1; stroke-opacity:1; fill:none" points="
  154.275,258.408 154.275,255.638 
  "/>
<polyline clip-path="url(#clip330)" style="stroke:#000000; stroke-width:1; stroke-opacity:1; fill:none" points="
  254.888,258.408 254.888,255.638 
  "/>
<polyline clip-path="url(#clip330)" style="stroke:#000000; stroke-width:1; stroke-opacity:1; fill:none" points="
  355.502,258.408 355.502,255.638 
  "/>
<polyline clip-path="url(#clip330)" style="stroke:#000000; stroke-width:1; stroke-opacity:1; fill:none" points="
  456.115,258.408 456.115,255.638 
  "/>
<path clip-path="url(#clip330)" d="M 0 0 M53.6615 264.746 Q52.7587 264.746 52.3016 265.637 Q51.8502 266.523 51.8502 268.305 Q51.8502 270.082 52.3016 270.973 Q52.7587 271.858 53.6615 271.858 Q54.5701 271.858 55.0214 270.973 Q55.4786 270.082 55.4786 268.305 Q55.4786 266.523 55.0214 265.637 Q54.5701 264.746 53.6615 264.746 M53.6615 263.82 Q55.114 263.82 55.8779 264.972 Q56.6476 266.118 56.6476 268.305 Q56.6476 270.487 55.8779 271.638 Q55.114 272.784 53.6615 272.784 Q52.209 272.784 51.4393 271.638 Q50.6754 270.487 50.6754 268.305 Q50.6754 266.118 51.4393 264.972 Q52.209 263.82 53.6615 263.82 Z" fill="#000000" fill-rule="evenodd" fill-opacity="1" /><path clip-path="url(#clip330)" d="M 0 0 M152.938 271.633 L157.018 271.633 L157.018 272.616 L151.532 272.616 L151.532 271.633 Q152.197 270.944 153.343 269.787 Q154.495 268.623 154.79 268.288 Q155.351 267.657 155.571 267.223 Q155.797 266.783 155.797 266.361 Q155.797 265.672 155.311 265.238 Q154.831 264.804 154.055 264.804 Q153.505 264.804 152.892 264.995 Q152.284 265.186 151.59 265.574 L151.59 264.393 Q152.296 264.109 152.909 263.965 Q153.523 263.82 154.032 263.82 Q155.374 263.82 156.173 264.491 Q156.972 265.163 156.972 266.285 Q156.972 266.818 156.769 267.298 Q156.572 267.773 156.046 268.421 Q155.901 268.589 155.126 269.393 Q154.35 270.192 152.938 271.633 Z" fill="#000000" fill-rule="evenodd" fill-opacity="1" /><path clip-path="url(#clip330)" d="M 0 0 M255.641 264.995 L252.689 269.607 L255.641 269.607 L255.641 264.995 M255.334 263.976 L256.804 263.976 L256.804 269.607 L258.037 269.607 L258.037 270.579 L256.804 270.579 L256.804 272.616 L255.641 272.616 L255.641 270.579 L251.74 270.579 L251.74 269.451 L255.334 263.976 Z" fill="#000000" fill-rule="evenodd" fill-opacity="1" /><path clip-path="url(#clip330)" d="M 0 0 M355.603 267.831 Q354.816 267.831 354.353 268.369 Q353.896 268.907 353.896 269.844 Q353.896 270.776 354.353 271.32 Q354.816 271.858 355.603 271.858 Q356.39 271.858 356.847 271.32 Q357.31 270.776 357.31 269.844 Q357.31 268.907 356.847 268.369 Q356.39 267.831 355.603 267.831 M357.924 264.167 L357.924 265.232 Q357.484 265.024 357.033 264.914 Q356.587 264.804 356.147 264.804 Q354.99 264.804 354.376 265.585 Q353.769 266.366 353.682 267.946 Q354.023 267.443 354.538 267.177 Q355.053 266.905 355.673 266.905 Q356.975 266.905 357.727 267.697 Q358.485 268.484 358.485 269.844 Q358.485 271.175 357.698 271.98 Q356.911 272.784 355.603 272.784 Q354.104 272.784 353.312 271.638 Q352.519 270.487 352.519 268.305 Q352.519 266.256 353.491 265.041 Q354.463 263.82 356.101 263.82 Q356.541 263.82 356.986 263.907 Q357.438 263.994 357.924 264.167 Z" fill="#000000" fill-rule="evenodd" fill-opacity="1" /><path clip-path="url(#clip330)" d="M 0 0 M456.115 268.513 Q455.282 268.513 454.802 268.959 Q454.327 269.405 454.327 270.186 Q454.327 270.967 454.802 271.413 Q455.282 271.858 456.115 271.858 Q456.949 271.858 457.429 271.413 Q457.909 270.961 457.909 270.186 Q457.909 269.405 457.429 268.959 Q456.954 268.513 456.115 268.513 M454.946 268.016 Q454.194 267.831 453.772 267.315 Q453.355 266.8 453.355 266.06 Q453.355 265.024 454.09 264.422 Q454.831 263.82 456.115 263.82 Q457.406 263.82 458.141 264.422 Q458.876 265.024 458.876 266.06 Q458.876 266.8 458.453 267.315 Q458.037 267.831 457.29 268.016 Q458.135 268.212 458.604 268.785 Q459.078 269.358 459.078 270.186 Q459.078 271.442 458.309 272.113 Q457.545 272.784 456.115 272.784 Q454.686 272.784 453.916 272.113 Q453.152 271.442 453.152 270.186 Q453.152 269.358 453.627 268.785 Q454.101 268.212 454.946 268.016 M454.518 266.17 Q454.518 266.841 454.935 267.217 Q455.357 267.593 456.115 267.593 Q456.868 267.593 457.29 267.217 Q457.718 266.841 457.718 266.17 Q457.718 265.498 457.29 265.122 Q456.868 264.746 456.115 264.746 Q455.357 264.746 454.935 265.122 Q454.518 265.498 454.518 266.17 Z" fill="#000000" fill-rule="evenodd" fill-opacity="1" /><g clip-path="url(#clip330)">
<text style="fill:#000000; fill-opacity:1; font-family:Arial,Helvetica Neue,Helvetica,sans-serif; font-size:16px; text-anchor:middle;" transform="rotate(0, 254.888, 293.459)" x="254.888" y="293.459">stock price</text>
</g>
<polyline clip-path="url(#clip332)" style="stroke:#000000; stroke-width:0.5; stroke-opacity:0.1; fill:none" points="
  41.5879,251.874 468.189,251.874 
  "/>
<polyline clip-path="url(#clip332)" style="stroke:#000000; stroke-width:0.5; stroke-opacity:0.1; fill:none" points="
  41.5879,216.424 468.189,216.424 
  "/>
<polyline clip-path="url(#clip332)" style="stroke:#000000; stroke-width:0.5; stroke-opacity:0.1; fill:none" points="
  41.5879,180.973 468.189,180.973 
  "/>
<polyline clip-path="url(#clip332)" style="stroke:#000000; stroke-width:0.5; stroke-opacity:0.1; fill:none" points="
  41.5879,145.523 468.189,145.523 
  "/>
<polyline clip-path="url(#clip332)" style="stroke:#000000; stroke-width:0.5; stroke-opacity:0.1; fill:none" points="
  41.5879,110.072 468.189,110.072 
  "/>
<polyline clip-path="url(#clip332)" style="stroke:#000000; stroke-width:0.5; stroke-opacity:0.1; fill:none" points="
  41.5879,74.6217 468.189,74.6217 
  "/>
<polyline clip-path="url(#clip332)" style="stroke:#000000; stroke-width:0.5; stroke-opacity:0.1; fill:none" points="
  41.5879,39.1712 468.189,39.1712 
  "/>
<polyline clip-path="url(#clip330)" style="stroke:#000000; stroke-width:1; stroke-opacity:1; fill:none" points="
  41.5879,258.408 41.5879,27.537 
  "/>
<polyline clip-path="url(#clip330)" style="stroke:#000000; stroke-width:1; stroke-opacity:1; fill:none" points="
  41.5879,251.874 46.7071,251.874 
  "/>
<polyline clip-path="url(#clip330)" style="stroke:#000000; stroke-width:1; stroke-opacity:1; fill:none" points="
  41.5879,216.424 46.7071,216.424 
  "/>
<polyline clip-path="url(#clip330)" style="stroke:#000000; stroke-width:1; stroke-opacity:1; fill:none" points="
  41.5879,180.973 46.7071,180.973 
  "/>
<polyline clip-path="url(#clip330)" style="stroke:#000000; stroke-width:1; stroke-opacity:1; fill:none" points="
  41.5879,145.523 46.7071,145.523 
  "/>
<polyline clip-path="url(#clip330)" style="stroke:#000000; stroke-width:1; stroke-opacity:1; fill:none" points="
  41.5879,110.072 46.7071,110.072 
  "/>
<polyline clip-path="url(#clip330)" style="stroke:#000000; stroke-width:1; stroke-opacity:1; fill:none" points="
  41.5879,74.6217 46.7071,74.6217 
  "/>
<polyline clip-path="url(#clip330)" style="stroke:#000000; stroke-width:1; stroke-opacity:1; fill:none" points="
  41.5879,39.1712 46.7071,39.1712 
  "/>
<path clip-path="url(#clip330)" d="M 0 0 M31.4018 248.324 Q30.499 248.324 30.0418 249.215 Q29.5905 250.101 29.5905 251.883 Q29.5905 253.66 30.0418 254.551 Q30.499 255.436 31.4018 255.436 Q32.3103 255.436 32.7617 254.551 Q33.2189 253.66 33.2189 251.883 Q33.2189 250.101 32.7617 249.215 Q32.3103 248.324 31.4018 248.324 M31.4018 247.398 Q32.8543 247.398 33.6182 248.55 Q34.3879 249.695 34.3879 251.883 Q34.3879 254.065 33.6182 255.216 Q32.8543 256.362 31.4018 256.362 Q29.9492 256.362 29.1796 255.216 Q28.4157 254.065 28.4157 251.883 Q28.4157 249.695 29.1796 248.55 Q29.9492 247.398 31.4018 247.398 Z" fill="#000000" fill-rule="evenodd" fill-opacity="1" /><path clip-path="url(#clip330)" d="M 0 0 M29.4111 219.76 L31.3208 219.76 L31.3208 213.169 L29.2432 213.585 L29.2432 212.52 L31.3092 212.104 L32.4782 212.104 L32.4782 219.76 L34.3879 219.76 L34.3879 220.744 L29.4111 220.744 L29.4111 219.76 Z" fill="#000000" fill-rule="evenodd" fill-opacity="1" /><path clip-path="url(#clip330)" d="M 0 0 M30.308 184.309 L34.3879 184.309 L34.3879 185.293 L28.9018 185.293 L28.9018 184.309 Q29.5673 183.621 30.7131 182.463 Q31.8647 181.3 32.1599 180.965 Q32.7212 180.334 32.9411 179.9 Q33.1668 179.46 33.1668 179.037 Q33.1668 178.349 32.6807 177.915 Q32.2004 177.481 31.4249 177.481 Q30.8752 177.481 30.2617 177.672 Q29.6541 177.863 28.9597 178.25 L28.9597 177.07 Q29.6657 176.786 30.2791 176.642 Q30.8925 176.497 31.4018 176.497 Q32.7444 176.497 33.543 177.168 Q34.3416 177.84 34.3416 178.962 Q34.3416 179.495 34.139 179.975 Q33.9423 180.45 33.4157 181.098 Q33.271 181.265 32.4955 182.07 Q31.7201 182.868 30.308 184.309 Z" fill="#000000" fill-rule="evenodd" fill-opacity="1" /><path clip-path="url(#clip330)" d="M 0 0 M32.6055 145.184 Q33.4446 145.364 33.9133 145.931 Q34.3879 146.498 34.3879 147.331 Q34.3879 148.61 33.5083 149.31 Q32.6286 150.011 31.0083 150.011 Q30.4643 150.011 29.8856 149.901 Q29.3127 149.796 28.6993 149.582 L28.6993 148.454 Q29.1854 148.737 29.7641 148.882 Q30.3428 149.027 30.9735 149.027 Q32.0731 149.027 32.646 148.593 Q33.2247 148.159 33.2247 147.331 Q33.2247 146.567 32.6865 146.139 Q32.1541 145.705 31.1992 145.705 L30.1923 145.705 L30.1923 144.744 L31.2455 144.744 Q32.1078 144.744 32.565 144.403 Q33.0221 144.056 33.0221 143.408 Q33.0221 142.742 32.5476 142.389 Q32.0789 142.03 31.1992 142.03 Q30.7189 142.03 30.1692 142.134 Q29.6194 142.239 28.9597 142.459 L28.9597 141.417 Q29.6252 141.232 30.2039 141.139 Q30.7884 141.046 31.3034 141.046 Q32.6344 141.046 33.4099 141.654 Q34.1853 142.256 34.1853 143.286 Q34.1853 144.004 33.7745 144.501 Q33.3636 144.993 32.6055 145.184 Z" fill="#000000" fill-rule="evenodd" fill-opacity="1" /><path clip-path="url(#clip330)" d="M 0 0 M31.9921 106.771 L29.0407 111.383 L31.9921 111.383 L31.9921 106.771 M31.6854 105.752 L33.1553 105.752 L33.1553 111.383 L34.3879 111.383 L34.3879 112.355 L33.1553 112.355 L33.1553 114.392 L31.9921 114.392 L31.9921 112.355 L28.0916 112.355 L28.0916 111.227 L31.6854 105.752 Z" fill="#000000" fill-rule="evenodd" fill-opacity="1" /><path clip-path="url(#clip330)" d="M 0 0 M29.1622 70.3017 L33.7513 70.3017 L33.7513 71.2855 L30.2328 71.2855 L30.2328 73.4035 Q30.4874 73.3167 30.7421 73.2762 Q30.9967 73.2299 31.2513 73.2299 Q32.6981 73.2299 33.543 74.0227 Q34.3879 74.8156 34.3879 76.1697 Q34.3879 77.5644 33.5198 78.3398 Q32.6518 79.1095 31.0719 79.1095 Q30.5279 79.1095 29.9608 79.0169 Q29.3995 78.9243 28.7976 78.7391 L28.7976 77.5644 Q29.3185 77.8479 29.874 77.9868 Q30.4296 78.1257 31.0488 78.1257 Q32.0499 78.1257 32.6344 77.5991 Q33.2189 77.0725 33.2189 76.1697 Q33.2189 75.2669 32.6344 74.7403 Q32.0499 74.2137 31.0488 74.2137 Q30.58 74.2137 30.1113 74.3179 Q29.6483 74.422 29.1622 74.6419 L29.1622 70.3017 Z" fill="#000000" fill-rule="evenodd" fill-opacity="1" /><path clip-path="url(#clip330)" d="M 0 0 M31.506 38.7053 Q30.7189 38.7053 30.256 39.2435 Q29.7988 39.7817 29.7988 40.7192 Q29.7988 41.6509 30.256 42.1949 Q30.7189 42.7331 31.506 42.7331 Q32.293 42.7331 32.7502 42.1949 Q33.2131 41.6509 33.2131 40.7192 Q33.2131 39.7817 32.7502 39.2435 Q32.293 38.7053 31.506 38.7053 M33.8265 35.0421 L33.8265 36.1069 Q33.3867 35.8986 32.9353 35.7887 Q32.4897 35.6787 32.0499 35.6787 Q30.8925 35.6787 30.2791 36.46 Q29.6715 37.2412 29.5847 38.8211 Q29.9261 38.3176 30.4411 38.0514 Q30.9562 37.7794 31.5754 37.7794 Q32.8775 37.7794 33.6298 38.5722 Q34.3879 39.3592 34.3879 40.7192 Q34.3879 42.0502 33.6008 42.8546 Q32.8138 43.659 31.506 43.659 Q30.0071 43.659 29.2143 42.5132 Q28.4215 41.3615 28.4215 39.1798 Q28.4215 37.1312 29.3937 35.916 Q30.3659 34.6949 32.0036 34.6949 Q32.4434 34.6949 32.889 34.7817 Q33.3404 34.8685 33.8265 35.0421 Z" fill="#000000" fill-rule="evenodd" fill-opacity="1" /><g clip-path="url(#clip330)">
<text style="fill:#000000; fill-opacity:1; font-family:Arial,Helvetica Neue,Helvetica,sans-serif; font-size:16px; text-anchor:middle;" transform="rotate(-90, 18.0011, 142.973)" x="18.0011" y="142.973">option value</text>
</g>
<g clip-path="url(#clip330)">
<text style="fill:#000000; fill-opacity:1; font-family:Arial,Helvetica Neue,Helvetica,sans-serif; font-size:18px; font-weight:bold; text-anchor:middle;" transform="rotate(0, 254.888, 15.6)" x="254.888" y="15.6">Black–Scholes solution</text>
</g>
<polyline clip-path="url(#clip332)" style="stroke:#009af9; stroke-width:2; stroke-opacity:1; fill:none" points="
  53.6615,251.874 55.6738,251.874 57.686,251.874 59.6983,251.874 61.7106,251.874 63.7228,251.874 65.7351,251.874 67.7474,251.874 69.7597,251.874 71.7719,251.874 
  73.7842,251.874 75.7965,251.874 77.8087,251.874 79.821,251.874 81.8333,251.874 83.8455,251.874 85.8578,251.874 87.8701,251.874 89.8823,251.874 91.8946,251.874 
  93.9069,251.874 95.9192,251.874 97.9314,251.874 99.9437,251.874 101.956,251.874 103.968,251.874 105.981,251.874 107.993,251.874 110.005,251.874 112.017,251.874 
  114.03,251.874 116.042,251.874 118.054,251.874 120.066,251.874 122.079,251.874 124.091,251.874 126.103,251.874 128.115,251.874 130.128,251.874 132.14,251.874 
  134.152,251.874 136.165,251.874 138.177,251.874 140.189,251.874 142.201,251.874 144.214,251.874 146.226,251.874 148.238,251.874 150.25,251.874 152.263,251.874 
  154.275,251.874 156.287,251.874 158.3,251.874 160.312,251.874 162.324,251.874 164.336,251.874 166.349,251.874 168.361,251.874 170.373,251.874 172.385,251.874 
  174.398,251.874 176.41,251.874 178.422,251.874 180.434,251.874 182.447,251.874 184.459,251.874 186.471,251.874 188.484,251.874 190.496,251.874 192.508,251.874 
  194.52,251.874 196.533,251.874 198.545,251.874 200.557,251.874 202.569,251.874 204.582,251.874 206.594,250.456 208.606,249.038 210.619,247.62 212.631,246.202 
  214.643,244.784 216.655,243.366 218.668,241.948 220.68,240.53 222.692,239.112 224.704,237.694 226.717,236.276 228.729,234.858 230.741,233.44 232.753,232.022 
  234.766,230.604 236.778,229.186 238.79,227.768 240.803,226.35 242.815,224.932 244.827,223.514 246.839,222.096 248.852,220.678 250.864,219.26 252.876,217.842 
  254.888,216.424 256.901,215.006 258.913,213.588 260.925,212.17 262.938,210.752 264.95,209.334 266.962,207.916 268.974,206.498 270.987,205.08 272.999,203.662 
  275.011,202.244 277.023,200.826 279.036,199.408 281.048,197.989 283.06,196.571 285.072,195.153 287.085,193.735 289.097,192.317 291.109,190.899 293.122,189.481 
  295.134,188.063 297.146,186.645 299.158,185.227 301.171,183.809 303.183,182.391 305.195,180.973 307.207,179.555 309.22,178.137 311.232,176.719 313.244,175.301 
  315.257,173.883 317.269,172.465 319.281,171.047 321.293,169.629 323.306,168.211 325.318,166.793 327.33,165.375 329.342,163.957 331.355,162.539 333.367,161.121 
  335.379,159.703 337.391,158.285 339.404,156.867 341.416,155.449 343.428,154.031 345.441,152.613 347.453,151.195 349.465,149.777 351.477,148.359 353.49,146.941 
  355.502,145.523 357.514,144.105 359.526,142.687 361.539,141.269 363.551,139.851 365.563,138.433 367.576,137.015 369.588,135.597 371.6,134.179 373.612,132.761 
  375.625,131.343 377.637,129.924 379.649,128.506 381.661,127.088 383.674,125.67 385.686,124.252 387.698,122.834 389.71,121.416 391.723,119.998 393.735,118.58 
  395.747,117.162 397.76,115.744 399.772,114.326 401.784,112.908 403.796,111.49 405.809,110.072 407.821,108.654 409.833,107.236 411.845,105.818 413.858,104.4 
  415.87,102.982 417.882,101.564 419.895,100.146 421.907,98.728 423.919,97.31 425.931,95.892 427.944,94.474 429.956,93.056 431.968,91.6379 433.98,90.2199 
  435.993,88.8019 438.005,87.3839 440.017,85.9659 442.029,84.5478 444.042,83.1298 446.054,81.7118 448.066,80.2938 450.079,78.8757 452.091,77.4577 454.103,76.0397 
  456.115,74.6217 
  "/>
<polyline clip-path="url(#clip332)" style="stroke:#e26f46; stroke-width:2; stroke-opacity:1; fill:none" points="
  53.6615,251.874 55.6738,251.874 57.686,251.874 59.6983,251.874 61.7106,251.874 63.7228,251.874 65.7351,251.874 67.7474,251.874 69.7597,251.874 71.7719,251.874 
  73.7842,251.874 75.7965,251.874 77.8087,251.874 79.821,251.874 81.8333,251.874 83.8455,251.874 85.8578,251.874 87.8701,251.874 89.8823,251.874 91.8946,251.874 
  93.9069,251.874 95.9192,251.874 97.9314,251.874 99.9437,251.874 101.956,251.874 103.968,251.874 105.981,251.874 107.993,251.874 110.005,251.874 112.017,251.874 
  114.03,251.874 116.042,251.874 118.054,251.874 120.066,251.874 122.079,251.874 124.091,251.874 126.103,251.874 128.115,251.874 130.128,251.874 132.14,251.874 
  134.152,251.874 136.165,251.874 138.177,251.874 140.189,251.874 142.201,251.874 144.214,251.874 146.226,251.874 148.238,251.874 150.25,251.874 152.263,251.874 
  154.275,251.874 156.287,251.874 158.3,251.873 160.312,251.872 162.324,251.869 164.336,251.863 166.349,251.851 168.361,251.829 170.373,251.792 172.385,251.729 
  174.398,251.631 176.41,251.484 178.422,251.272 180.434,250.98 182.447,250.594 184.459,250.102 186.471,249.495 188.484,248.772 190.496,247.933 192.508,246.985 
  194.52,245.94 196.533,244.809 198.545,243.606 200.557,242.346 202.569,241.04 204.582,239.7 206.594,238.334 208.606,236.951 210.619,235.556 212.631,234.152 
  214.643,232.743 216.655,231.33 218.668,229.915 220.68,228.499 222.692,227.082 224.704,225.664 226.717,224.247 228.729,222.829 230.741,221.411 232.753,219.993 
  234.766,218.575 236.778,217.157 238.79,215.739 240.803,214.321 242.815,212.903 244.827,211.485 246.839,210.067 248.852,208.649 250.864,207.231 252.876,205.813 
  254.888,204.395 256.901,202.977 258.913,201.559 260.925,200.141 262.938,198.723 264.95,197.305 266.962,195.887 268.974,194.469 270.987,193.051 272.999,191.633 
  275.011,190.215 277.023,188.797 279.036,187.379 281.048,185.961 283.06,184.543 285.072,183.125 287.085,181.707 289.097,180.289 291.109,178.87 293.122,177.452 
  295.134,176.034 297.146,174.616 299.158,173.198 301.171,171.78 303.183,170.362 305.195,168.944 307.207,167.526 309.22,166.108 311.232,164.69 313.244,163.272 
  315.257,161.854 317.269,160.436 319.281,159.018 321.293,157.6 323.306,156.182 325.318,154.764 327.33,153.346 329.342,151.928 331.355,150.51 333.367,149.092 
  335.379,147.674 337.391,146.256 339.404,144.838 341.416,143.42 343.428,142.002 345.441,140.584 347.453,139.166 349.465,137.748 351.477,136.33 353.49,134.912 
  355.502,133.494 357.514,132.076 359.526,130.658 361.539,129.24 363.551,127.822 365.563,126.404 367.576,124.986 369.588,123.568 371.6,122.15 373.612,120.732 
  375.625,119.314 377.637,117.896 379.649,116.478 381.661,115.06 383.674,113.642 385.686,112.224 387.698,110.805 389.71,109.387 391.723,107.969 393.735,106.551 
  395.747,105.133 397.76,103.715 399.772,102.297 401.784,100.879 403.796,99.4613 405.809,98.0433 407.821,96.6253 409.833,95.2073 411.845,93.7892 413.858,92.3712 
  415.87,90.9532 417.882,89.5352 419.895,88.1172 421.907,86.6991 423.919,85.2811 425.931,83.8631 427.944,82.4451 429.956,81.0271 431.968,79.609 433.98,78.191 
  435.993,76.773 438.005,75.355 440.017,73.9369 442.029,72.5189 444.042,71.1009 446.054,69.6829 448.066,68.2649 450.079,66.8468 452.091,65.4288 454.103,64.0108 
  456.115,62.5928 
  "/>
<polyline clip-path="url(#clip332)" style="stroke:#3da44d; stroke-width:2; stroke-opacity:1; fill:none" points="
  53.6615,251.874 55.6738,251.874 57.686,251.874 59.6983,251.874 61.7106,251.874 63.7228,251.874 65.7351,251.874 67.7474,251.874 69.7597,251.874 71.7719,251.874 
  73.7842,251.874 75.7965,251.874 77.8087,251.874 79.821,251.874 81.8333,251.874 83.8455,251.874 85.8578,251.874 87.8701,251.874 89.8823,251.874 91.8946,251.874 
  93.9069,251.874 95.9192,251.874 97.9314,251.874 99.9437,251.874 101.956,251.874 103.968,251.874 105.981,251.874 107.993,251.874 110.005,251.874 112.017,251.874 
  114.03,251.874 116.042,251.874 118.054,251.874 120.066,251.874 122.079,251.874 124.091,251.874 126.103,251.874 128.115,251.874 130.128,251.874 132.14,251.874 
  134.152,251.874 136.165,251.874 138.177,251.873 140.189,251.871 142.201,251.868 144.214,251.861 146.226,251.85 148.238,251.831 150.25,251.8 152.263,251.752 
  154.275,251.68 156.287,251.575 158.3,251.428 160.312,251.228 162.324,250.966 164.336,250.632 166.349,250.216 168.361,249.713 170.373,249.118 172.385,248.429 
  174.398,247.648 176.41,246.777 178.422,245.821 180.434,244.788 182.447,243.686 184.459,242.523 186.471,241.308 188.484,240.049 190.496,238.754 192.508,237.43 
  194.52,236.083 196.533,234.717 198.545,233.338 200.557,231.948 202.569,230.55 204.582,229.146 206.594,227.738 208.606,226.327 210.619,224.913 212.631,223.499 
  214.643,222.083 216.655,220.666 218.668,219.249 220.68,217.832 222.692,216.414 224.704,214.996 226.717,213.578 228.729,212.161 230.741,210.743 232.753,209.325 
  234.766,207.907 236.778,206.489 238.79,205.071 240.803,203.653 242.815,202.235 244.827,200.817 246.839,199.399 248.852,197.981 250.864,196.563 252.876,195.145 
  254.888,193.726 256.901,192.308 258.913,190.89 260.925,189.472 262.938,188.054 264.95,186.636 266.962,185.218 268.974,183.8 270.987,182.382 272.999,180.964 
  275.011,179.546 277.023,178.128 279.036,176.71 281.048,175.292 283.06,173.874 285.072,172.456 287.085,171.038 289.097,169.62 291.109,168.202 293.122,166.784 
  295.134,165.366 297.146,163.948 299.158,162.53 301.171,161.112 303.183,159.694 305.195,158.276 307.207,156.858 309.22,155.44 311.232,154.022 313.244,152.604 
  315.257,151.186 317.269,149.768 319.281,148.35 321.293,146.932 323.306,145.514 325.318,144.096 327.33,142.678 329.342,141.26 331.355,139.842 333.367,138.424 
  335.379,137.006 337.391,135.588 339.404,134.17 341.416,132.752 343.428,131.334 345.441,129.916 347.453,128.498 349.465,127.08 351.477,125.661 353.49,124.243 
  355.502,122.825 357.514,121.407 359.526,119.989 361.539,118.571 363.551,117.153 365.563,115.735 367.576,114.317 369.588,112.899 371.6,111.481 373.612,110.063 
  375.625,108.645 377.637,107.227 379.649,105.809 381.661,104.391 383.674,102.973 385.686,101.555 387.698,100.137 389.71,98.7191 391.723,97.3011 393.735,95.8831 
  395.747,94.465 397.76,93.047 399.772,91.629 401.784,90.211 403.796,88.7929 405.809,87.3749 407.821,85.9569 409.833,84.5389 411.845,83.1209 413.858,81.7028 
  415.87,80.2848 417.882,78.8668 419.895,77.4488 421.907,76.0308 423.919,74.6127 425.931,73.1947 427.944,71.7767 429.956,70.3587 431.968,68.9407 433.98,67.5226 
  435.993,66.1046 438.005,64.6866 440.017,63.2686 442.029,61.8506 444.042,60.4325 446.054,59.0145 448.066,57.5965 450.079,56.1785 452.091,54.7604 454.103,53.3424 
  456.115,51.9244 
  "/>
<polyline clip-path="url(#clip332)" style="stroke:#c271d2; stroke-width:2; stroke-opacity:1; fill:none" points="
  53.6615,251.874 55.6738,251.874 57.686,251.874 59.6983,251.874 61.7106,251.874 63.7228,251.874 65.7351,251.874 67.7474,251.874 69.7597,251.874 71.7719,251.874 
  73.7842,251.874 75.7965,251.874 77.8087,251.874 79.821,251.874 81.8333,251.874 83.8455,251.874 85.8578,251.874 87.8701,251.874 89.8823,251.874 91.8946,251.874 
  93.9069,251.874 95.9192,251.874 97.9314,251.874 99.9437,251.874 101.956,251.874 103.968,251.874 105.981,251.874 107.993,251.874 110.005,251.874 112.017,251.874 
  114.03,251.874 116.042,251.874 118.054,251.874 120.066,251.874 122.079,251.873 124.091,251.872 126.103,251.869 128.115,251.865 130.128,251.856 132.14,251.842 
  134.152,251.818 136.165,251.78 138.177,251.724 140.189,251.641 142.201,251.524 144.214,251.365 146.226,251.154 148.238,250.882 150.25,250.541 152.263,250.124 
  154.275,249.625 156.287,249.041 158.3,248.37 160.312,247.614 162.324,246.773 164.336,245.854 166.349,244.86 168.361,243.799 170.373,242.678 172.385,241.505 
  174.398,240.285 176.41,239.026 178.422,237.735 180.434,236.417 182.447,235.076 184.459,233.718 186.471,232.346 188.484,230.962 190.496,229.57 192.508,228.172 
  194.52,226.768 196.533,225.361 198.545,223.95 200.557,222.538 202.569,221.124 204.582,219.709 206.594,218.293 208.606,216.876 210.619,215.459 212.631,214.042 
  214.643,212.624 216.655,211.206 218.668,209.789 220.68,208.371 222.692,206.953 224.704,205.535 226.717,204.117 228.729,202.699 230.741,201.281 232.753,199.863 
  234.766,198.445 236.778,197.027 238.79,195.609 240.803,194.191 242.815,192.773 244.827,191.355 246.839,189.937 248.852,188.519 250.864,187.101 252.876,185.683 
  254.888,184.265 256.901,182.847 258.913,181.429 260.925,180.011 262.938,178.593 264.95,177.175 266.962,175.757 268.974,174.339 270.987,172.921 272.999,171.503 
  275.011,170.085 277.023,168.667 279.036,167.249 281.048,165.83 283.06,164.412 285.072,162.994 287.085,161.576 289.097,160.158 291.109,158.74 293.122,157.322 
  295.134,155.904 297.146,154.486 299.158,153.068 301.171,151.65 303.183,150.232 305.195,148.814 307.207,147.396 309.22,145.978 311.232,144.56 313.244,143.142 
  315.257,141.724 317.269,140.306 319.281,138.888 321.293,137.47 323.306,136.052 325.318,134.634 327.33,133.216 329.342,131.798 331.355,130.38 333.367,128.962 
  335.379,127.544 337.391,126.126 339.404,124.708 341.416,123.29 343.428,121.872 345.441,120.454 347.453,119.036 349.465,117.618 351.477,116.2 353.49,114.782 
  355.502,113.364 357.514,111.946 359.526,110.528 361.539,109.11 363.551,107.692 365.563,106.274 367.576,104.856 369.588,103.438 371.6,102.02 373.612,100.602 
  375.625,99.1835 377.637,97.7655 379.649,96.3475 381.661,94.9294 383.674,93.5114 385.686,92.0934 387.698,90.6754 389.71,89.2574 391.723,87.8393 393.735,86.4213 
  395.747,85.0033 397.76,83.5853 399.772,82.1673 401.784,80.7492 403.796,79.3312 405.809,77.9132 407.821,76.4952 409.833,75.0772 411.845,73.6591 413.858,72.2411 
  415.87,70.8231 417.882,69.4051 419.895,67.9871 421.907,66.569 423.919,65.151 425.931,63.733 427.944,62.315 429.956,60.897 431.968,59.4789 433.98,58.0609 
  435.993,56.6429 438.005,55.2249 440.017,53.8068 442.029,52.3888 444.042,50.9708 446.054,49.5528 448.066,48.1348 450.079,46.7167 452.091,45.2987 454.103,43.8807 
  456.115,42.4627 
  "/>
<polyline clip-path="url(#clip332)" style="stroke:#ac8d18; stroke-width:2; stroke-opacity:1; fill:none" points="
  53.6615,251.874 55.6738,251.874 57.686,251.874 59.6983,251.874 61.7106,251.874 63.7228,251.874 65.7351,251.874 67.7474,251.874 69.7597,251.874 71.7719,251.874 
  73.7842,251.874 75.7965,251.874 77.8087,251.874 79.821,251.874 81.8333,251.874 83.8455,251.874 85.8578,251.874 87.8701,251.874 89.8823,251.874 91.8946,251.874 
  93.9069,251.874 95.9192,251.874 97.9314,251.874 99.9437,251.874 101.956,251.874 103.968,251.874 105.981,251.874 107.993,251.874 110.005,251.873 112.017,251.872 
  114.03,251.87 116.042,251.865 118.054,251.857 120.066,251.842 122.079,251.818 124.091,251.78 126.103,251.722 128.115,251.638 130.128,251.519 132.14,251.356 
  134.152,251.141 136.165,250.865 138.177,250.52 140.189,250.099 142.201,249.598 144.214,249.012 146.226,248.341 148.238,247.586 150.25,246.75 152.263,245.835 
  154.275,244.849 156.287,243.797 158.3,242.686 160.312,241.522 162.324,240.313 164.336,239.065 166.349,237.784 168.361,236.475 170.373,235.143 172.385,233.793 
  174.398,232.428 176.41,231.051 178.422,229.664 180.434,228.27 182.447,226.87 184.459,225.466 186.471,224.058 188.484,222.647 190.496,221.235 192.508,219.821 
  194.52,218.406 196.533,216.99 198.545,215.574 200.557,214.157 202.569,212.74 204.582,211.322 206.594,209.905 208.606,208.487 210.619,207.069 212.631,205.651 
  214.643,204.233 216.655,202.815 218.668,201.397 220.68,199.979 222.692,198.561 224.704,197.143 226.717,195.725 228.729,194.307 230.741,192.889 232.753,191.471 
  234.766,190.053 236.778,188.635 238.79,187.217 240.803,185.799 242.815,184.381 244.827,182.963 246.839,181.545 248.852,180.127 250.864,178.709 252.876,177.291 
  254.888,175.873 256.901,174.455 258.913,173.037 260.925,171.619 262.938,170.201 264.95,168.783 266.962,167.365 268.974,165.947 270.987,164.529 272.999,163.111 
  275.011,161.693 277.023,160.275 279.036,158.857 281.048,157.439 283.06,156.021 285.072,154.603 287.085,153.185 289.097,151.767 291.109,150.349 293.122,148.931 
  295.134,147.513 297.146,146.095 299.158,144.677 301.171,143.259 303.183,141.841 305.195,140.423 307.207,139.005 309.22,137.587 311.232,136.169 313.244,134.751 
  315.257,133.333 317.269,131.915 319.281,130.497 321.293,129.079 323.306,127.66 325.318,126.242 327.33,124.824 329.342,123.406 331.355,121.988 333.367,120.57 
  335.379,119.152 337.391,117.734 339.404,116.316 341.416,114.898 343.428,113.48 345.441,112.062 347.453,110.644 349.465,109.226 351.477,107.808 353.49,106.39 
  355.502,104.972 357.514,103.554 359.526,102.136 361.539,100.718 363.551,99.3001 365.563,97.8821 367.576,96.464 369.588,95.046 371.6,93.628 373.612,92.21 
  375.625,90.792 377.637,89.3739 379.649,87.9559 381.661,86.5379 383.674,85.1199 385.686,83.7019 387.698,82.2838 389.71,80.8658 391.723,79.4478 393.735,78.0298 
  395.747,76.6117 397.76,75.1937 399.772,73.7757 401.784,72.3577 403.796,70.9397 405.809,69.5216 407.821,68.1036 409.833,66.6856 411.845,65.2676 413.858,63.8496 
  415.87,62.4315 417.882,61.0135 419.895,59.5955 421.907,58.1775 423.919,56.7595 425.931,55.3414 427.944,53.9234 429.956,52.5054 431.968,51.0874 433.98,49.6694 
  435.993,48.2513 438.005,46.8333 440.017,45.4153 442.029,43.9973 444.042,42.5792 446.054,41.1612 448.066,39.7432 450.079,38.3252 452.091,36.9072 454.103,35.4891 
  456.115,34.0711 
  "/>
<path clip-path="url(#clip330)" d="
M55.8079 125.953 L139.498 125.953 L139.498 35.2327 L55.8079 35.2327  Z
  " fill="#ffffff" fill-rule="evenodd" fill-opacity="1"/>
<polyline clip-path="url(#clip330)" style="stroke:#000000; stroke-width:1; stroke-opacity:1; fill:none" points="
  55.8079,125.953 139.498,125.953 139.498,35.2327 55.8079,35.2327 55.8079,125.953 
  "/>
<polyline clip-path="url(#clip330)" style="stroke:#009af9; stroke-width:1; stroke-opacity:1; fill:none" points="
  60.5479,50.3527 88.988,50.3527 
  "/>
<path clip-path="url(#clip330)" d="M 0 0 M95.5799 46.351 L95.5799 48.1913 L97.7731 48.1913 L97.7731 49.0188 L95.5799 49.0188 L95.5799 52.5373 Q95.5799 53.3302 95.794 53.5558 Q96.0139 53.7815 96.6794 53.7815 L97.7731 53.7815 L97.7731 54.6727 L96.6794 54.6727 Q95.4468 54.6727 94.978 54.2156 Q94.5093 53.7526 94.5093 52.5373 L94.5093 49.0188 L93.728 49.0188 L93.728 48.1913 L94.5093 48.1913 L94.5093 46.351 L95.5799 46.351 Z" fill="#000000" fill-rule="evenodd" fill-opacity="1" /><path clip-path="url(#clip330)" d="M 0 0 M102.796 49.2908 L110.215 49.2908 L110.215 50.263 L102.796 50.263 L102.796 49.2908 M102.796 51.6519 L110.215 51.6519 L110.215 52.6357 L102.796 52.6357 L102.796 51.6519 Z" fill="#000000" fill-rule="evenodd" fill-opacity="1" /><path clip-path="url(#clip330)" d="M 0 0 M117.75 46.8024 Q116.847 46.8024 116.39 47.6936 Q115.939 48.579 115.939 50.3614 Q115.939 52.138 116.39 53.0292 Q116.847 53.9146 117.75 53.9146 Q118.658 53.9146 119.11 53.0292 Q119.567 52.138 119.567 50.3614 Q119.567 48.579 119.11 47.6936 Q118.658 46.8024 117.75 46.8024 M117.75 45.8765 Q119.202 45.8765 119.966 47.0281 Q120.736 48.1739 120.736 50.3614 Q120.736 52.5431 119.966 53.6947 Q119.202 54.8406 117.75 54.8406 Q116.297 54.8406 115.528 53.6947 Q114.764 52.5431 114.764 50.3614 Q114.764 48.1739 115.528 47.0281 Q116.297 45.8765 117.75 45.8765 Z" fill="#000000" fill-rule="evenodd" fill-opacity="1" /><path clip-path="url(#clip330)" d="M 0 0 M122.003 53.2028 L123.224 53.2028 L123.224 54.6727 L122.003 54.6727 L122.003 53.2028 Z" fill="#000000" fill-rule="evenodd" fill-opacity="1" /><path clip-path="url(#clip330)" d="M 0 0 M126.992 46.8024 Q126.089 46.8024 125.632 47.6936 Q125.18 48.579 125.18 50.3614 Q125.18 52.138 125.632 53.0292 Q126.089 53.9146 126.992 53.9146 Q127.9 53.9146 128.352 53.0292 Q128.809 52.138 128.809 50.3614 Q128.809 48.579 128.352 47.6936 Q127.9 46.8024 126.992 46.8024 M126.992 45.8765 Q128.444 45.8765 129.208 47.0281 Q129.978 48.1739 129.978 50.3614 Q129.978 52.5431 129.208 53.6947 Q128.444 54.8406 126.992 54.8406 Q125.539 54.8406 124.77 53.6947 Q124.006 52.5431 124.006 50.3614 Q124.006 48.1739 124.77 47.0281 Q125.539 45.8765 126.992 45.8765 Z" fill="#000000" fill-rule="evenodd" fill-opacity="1" /><polyline clip-path="url(#clip330)" style="stroke:#e26f46; stroke-width:1; stroke-opacity:1; fill:none" points="
  60.5479,65.4727 88.988,65.4727 
  "/>
<path clip-path="url(#clip330)" d="M 0 0 M95.5799 61.471 L95.5799 63.3113 L97.7731 63.3113 L97.7731 64.1388 L95.5799 64.1388 L95.5799 67.6573 Q95.5799 68.4502 95.794 68.6758 Q96.0139 68.9015 96.6794 68.9015 L97.7731 68.9015 L97.7731 69.7927 L96.6794 69.7927 Q95.4468 69.7927 94.978 69.3356 Q94.5093 68.8726 94.5093 67.6573 L94.5093 64.1388 L93.728 64.1388 L93.728 63.3113 L94.5093 63.3113 L94.5093 61.471 L95.5799 61.471 Z" fill="#000000" fill-rule="evenodd" fill-opacity="1" /><path clip-path="url(#clip330)" d="M 0 0 M102.796 64.4108 L110.215 64.4108 L110.215 65.383 L102.796 65.383 L102.796 64.4108 M102.796 66.7719 L110.215 66.7719 L110.215 67.7557 L102.796 67.7557 L102.796 66.7719 Z" fill="#000000" fill-rule="evenodd" fill-opacity="1" /><path clip-path="url(#clip330)" d="M 0 0 M115.452 68.8089 L117.362 68.8089 L117.362 62.2175 L115.285 62.6342 L115.285 61.5694 L117.351 61.1527 L118.52 61.1527 L118.52 68.8089 L120.429 68.8089 L120.429 69.7927 L115.452 69.7927 L115.452 68.8089 Z" fill="#000000" fill-rule="evenodd" fill-opacity="1" /><path clip-path="url(#clip330)" d="M 0 0 M121.697 68.3228 L122.918 68.3228 L122.918 69.7927 L121.697 69.7927 L121.697 68.3228 Z" fill="#000000" fill-rule="evenodd" fill-opacity="1" /><path clip-path="url(#clip330)" d="M 0 0 M124.197 61.1527 L128.786 61.1527 L128.786 62.1365 L125.267 62.1365 L125.267 64.2546 Q125.522 64.1678 125.776 64.1273 Q126.031 64.081 126.286 64.081 Q127.732 64.081 128.577 64.8738 Q129.422 65.6666 129.422 67.0208 Q129.422 68.4154 128.554 69.1909 Q127.686 69.9606 126.106 69.9606 Q125.562 69.9606 124.995 69.868 Q124.434 69.7754 123.832 69.5902 L123.832 68.4154 Q124.353 68.699 124.908 68.8379 Q125.464 68.9768 126.083 68.9768 Q127.084 68.9768 127.669 68.4502 Q128.253 67.9235 128.253 67.0208 Q128.253 66.118 127.669 65.5914 Q127.084 65.0648 126.083 65.0648 Q125.614 65.0648 125.146 65.1689 Q124.683 65.2731 124.197 65.493 L124.197 61.1527 Z" fill="#000000" fill-rule="evenodd" fill-opacity="1" /><polyline clip-path="url(#clip330)" style="stroke:#3da44d; stroke-width:1; stroke-opacity:1; fill:none" points="
  60.5479,80.5927 88.988,80.5927 
  "/>
<path clip-path="url(#clip330)" d="M 0 0 M95.5799 76.591 L95.5799 78.4313 L97.7731 78.4313 L97.7731 79.2588 L95.5799 79.2588 L95.5799 82.7773 Q95.5799 83.5702 95.794 83.7958 Q96.0139 84.0215 96.6794 84.0215 L97.7731 84.0215 L97.7731 84.9127 L96.6794 84.9127 Q95.4468 84.9127 94.978 84.4556 Q94.5093 83.9926 94.5093 82.7773 L94.5093 79.2588 L93.728 79.2588 L93.728 78.4313 L94.5093 78.4313 L94.5093 76.591 L95.5799 76.591 Z" fill="#000000" fill-rule="evenodd" fill-opacity="1" /><path clip-path="url(#clip330)" d="M 0 0 M102.796 79.5308 L110.215 79.5308 L110.215 80.503 L102.796 80.503 L102.796 79.5308 M102.796 81.8919 L110.215 81.8919 L110.215 82.8757 L102.796 82.8757 L102.796 81.8919 Z" fill="#000000" fill-rule="evenodd" fill-opacity="1" /><path clip-path="url(#clip330)" d="M 0 0 M118.792 80.2542 Q119.631 80.4336 120.099 81.0007 Q120.574 81.5679 120.574 82.4012 Q120.574 83.6801 119.694 84.3803 Q118.815 85.0806 117.194 85.0806 Q116.65 85.0806 116.072 84.9706 Q115.499 84.8664 114.885 84.6523 L114.885 83.5239 Q115.371 83.8074 115.95 83.9521 Q116.529 84.0968 117.16 84.0968 Q118.259 84.0968 118.832 83.6627 Q119.411 83.2287 119.411 82.4012 Q119.411 81.6373 118.873 81.2091 Q118.34 80.775 117.385 80.775 L116.378 80.775 L116.378 79.8144 L117.432 79.8144 Q118.294 79.8144 118.751 79.473 Q119.208 79.1257 119.208 78.4776 Q119.208 77.8121 118.734 77.4591 Q118.265 77.1003 117.385 77.1003 Q116.905 77.1003 116.355 77.2044 Q115.805 77.3086 115.146 77.5285 L115.146 76.4869 Q115.811 76.3017 116.39 76.2091 Q116.974 76.1165 117.489 76.1165 Q118.82 76.1165 119.596 76.7241 Q120.371 77.326 120.371 78.3561 Q120.371 79.0737 119.961 79.5713 Q119.55 80.0632 118.792 80.2542 Z" fill="#000000" fill-rule="evenodd" fill-opacity="1" /><path clip-path="url(#clip330)" d="M 0 0 M121.841 83.4428 L123.062 83.4428 L123.062 84.9127 L121.841 84.9127 L121.841 83.4428 Z" fill="#000000" fill-rule="evenodd" fill-opacity="1" /><path clip-path="url(#clip330)" d="M 0 0 M126.83 77.0424 Q125.927 77.0424 125.47 77.9336 Q125.018 78.819 125.018 80.6014 Q125.018 82.378 125.47 83.2692 Q125.927 84.1546 126.83 84.1546 Q127.738 84.1546 128.19 83.2692 Q128.647 82.378 128.647 80.6014 Q128.647 78.819 128.19 77.9336 Q127.738 77.0424 126.83 77.0424 M126.83 76.1165 Q128.282 76.1165 129.046 77.2681 Q129.816 78.4139 129.816 80.6014 Q129.816 82.7831 129.046 83.9347 Q128.282 85.0806 126.83 85.0806 Q125.377 85.0806 124.607 83.9347 Q123.844 82.7831 123.844 80.6014 Q123.844 78.4139 124.607 77.2681 Q125.377 76.1165 126.83 76.1165 Z" fill="#000000" fill-rule="evenodd" fill-opacity="1" /><polyline clip-path="url(#clip330)" style="stroke:#c271d2; stroke-width:1; stroke-opacity:1; fill:none" points="
  60.5479,95.7127 88.988,95.7127 
  "/>
<path clip-path="url(#clip330)" d="M 0 0 M95.5799 91.711 L95.5799 93.5513 L97.7731 93.5513 L97.7731 94.3788 L95.5799 94.3788 L95.5799 97.8973 Q95.5799 98.6902 95.794 98.9158 Q96.0139 99.1415 96.6794 99.1415 L97.7731 99.1415 L97.7731 100.033 L96.6794 100.033 Q95.4468 100.033 94.978 99.5756 Q94.5093 99.1126 94.5093 97.8973 L94.5093 94.3788 L93.728 94.3788 L93.728 93.5513 L94.5093 93.5513 L94.5093 91.711 L95.5799 91.711 Z" fill="#000000" fill-rule="evenodd" fill-opacity="1" /><path clip-path="url(#clip330)" d="M 0 0 M102.796 94.6508 L110.215 94.6508 L110.215 95.623 L102.796 95.623 L102.796 94.6508 M102.796 97.0119 L110.215 97.0119 L110.215 97.9957 L102.796 97.9957 L102.796 97.0119 Z" fill="#000000" fill-rule="evenodd" fill-opacity="1" /><path clip-path="url(#clip330)" d="M 0 0 M118.462 92.4113 L115.51 97.0235 L118.462 97.0235 L118.462 92.4113 M118.155 91.3927 L119.625 91.3927 L119.625 97.0235 L120.858 97.0235 L120.858 97.9957 L119.625 97.9957 L119.625 100.033 L118.462 100.033 L118.462 97.9957 L114.561 97.9957 L114.561 96.8672 L118.155 91.3927 Z" fill="#000000" fill-rule="evenodd" fill-opacity="1" /><path clip-path="url(#clip330)" d="M 0 0 M122.125 98.5628 L123.346 98.5628 L123.346 100.033 L122.125 100.033 L122.125 98.5628 Z" fill="#000000" fill-rule="evenodd" fill-opacity="1" /><path clip-path="url(#clip330)" d="M 0 0 M124.625 91.3927 L129.214 91.3927 L129.214 92.3765 L125.695 92.3765 L125.695 94.4946 Q125.95 94.4078 126.205 94.3673 Q126.459 94.321 126.714 94.321 Q128.161 94.321 129.006 95.1138 Q129.851 95.9066 129.851 97.2608 Q129.851 98.6554 128.982 99.4309 Q128.114 100.201 126.535 100.201 Q125.991 100.201 125.423 100.108 Q124.862 100.015 124.26 99.8302 L124.26 98.6554 Q124.781 98.939 125.337 99.0779 Q125.892 99.2168 126.511 99.2168 Q127.513 99.2168 128.097 98.6902 Q128.682 98.1635 128.682 97.2608 Q128.682 96.358 128.097 95.8314 Q127.513 95.3048 126.511 95.3048 Q126.043 95.3048 125.574 95.4089 Q125.111 95.5131 124.625 95.733 L124.625 91.3927 Z" fill="#000000" fill-rule="evenodd" fill-opacity="1" /><polyline clip-path="url(#clip330)" style="stroke:#ac8d18; stroke-width:1; stroke-opacity:1; fill:none" points="
  60.5479,110.833 88.988,110.833 
  "/>
<path clip-path="url(#clip330)" d="M 0 0 M95.5799 106.831 L95.5799 108.671 L97.7731 108.671 L97.7731 109.499 L95.5799 109.499 L95.5799 113.017 Q95.5799 113.81 95.794 114.036 Q96.0139 114.262 96.6794 114.262 L97.7731 114.262 L97.7731 115.153 L96.6794 115.153 Q95.4468 115.153 94.978 114.696 Q94.5093 114.233 94.5093 113.017 L94.5093 109.499 L93.728 109.499 L93.728 108.671 L94.5093 108.671 L94.5093 106.831 L95.5799 106.831 Z" fill="#000000" fill-rule="evenodd" fill-opacity="1" /><path clip-path="url(#clip330)" d="M 0 0 M102.796 109.771 L110.215 109.771 L110.215 110.743 L102.796 110.743 L102.796 109.771 M102.796 112.132 L110.215 112.132 L110.215 113.116 L102.796 113.116 L102.796 112.132 Z" fill="#000000" fill-rule="evenodd" fill-opacity="1" /><path clip-path="url(#clip330)" d="M 0 0 M117.895 110.367 Q117.108 110.367 116.645 110.905 Q116.187 111.443 116.187 112.381 Q116.187 113.312 116.645 113.856 Q117.108 114.395 117.895 114.395 Q118.682 114.395 119.139 113.856 Q119.602 113.312 119.602 112.381 Q119.602 111.443 119.139 110.905 Q118.682 110.367 117.895 110.367 M120.215 106.704 L120.215 107.769 Q119.775 107.56 119.324 107.45 Q118.878 107.34 118.439 107.34 Q117.281 107.34 116.668 108.122 Q116.06 108.903 115.973 110.483 Q116.315 109.979 116.83 109.713 Q117.345 109.441 117.964 109.441 Q119.266 109.441 120.018 110.234 Q120.776 111.021 120.776 112.381 Q120.776 113.712 119.989 114.516 Q119.202 115.321 117.895 115.321 Q116.396 115.321 115.603 114.175 Q114.81 113.023 114.81 110.841 Q114.81 108.793 115.782 107.578 Q116.755 106.356 118.392 106.356 Q118.832 106.356 119.278 106.443 Q119.729 106.53 120.215 106.704 Z" fill="#000000" fill-rule="evenodd" fill-opacity="1" /><path clip-path="url(#clip330)" d="M 0 0 M122.044 113.683 L123.265 113.683 L123.265 115.153 L122.044 115.153 L122.044 113.683 Z" fill="#000000" fill-rule="evenodd" fill-opacity="1" /><path clip-path="url(#clip330)" d="M 0 0 M127.032 107.282 Q126.129 107.282 125.672 108.174 Q125.221 109.059 125.221 110.841 Q125.221 112.618 125.672 113.509 Q126.129 114.395 127.032 114.395 Q127.941 114.395 128.392 113.509 Q128.849 112.618 128.849 110.841 Q128.849 109.059 128.392 108.174 Q127.941 107.282 127.032 107.282 M127.032 106.356 Q128.485 106.356 129.249 107.508 Q130.018 108.654 130.018 110.841 Q130.018 113.023 129.249 114.175 Q128.485 115.321 127.032 115.321 Q125.58 115.321 124.81 114.175 Q124.046 113.023 124.046 110.841 Q124.046 108.654 124.81 107.508 Q125.58 106.356 127.032 106.356 Z" fill="#000000" fill-rule="evenodd" fill-opacity="1" /></svg>
