<?xml version="1.0" encoding="utf-8"?>
<svg xmlns="http://www.w3.org/2000/svg" xmlns:xlink="http://www.w3.org/1999/xlink" width="120" height="75" viewBox="0 0 480 300">
<defs>
  <clipPath id="clip880">
    <rect x="0" y="0" width="480" height="300"/>
  </clipPath>
</defs>
<path clip-path="url(#clip880)" d="
M0 300 L480 300 L480 0 L0 0  Z
  " fill="#ffffff" fill-rule="evenodd" fill-opacity="1"/>
<defs>
  <clipPath id="clip881">
    <rect x="96" y="0" width="337" height="300"/>
  </clipPath>
</defs>
<defs>
  <clipPath id="clip882">
    <rect x="297" y="11" width="172" height="254"/>
  </clipPath>
</defs>
<path clip-path="url(#clip880)" d="
M58.8035 255.53 L468.189 255.53 L468.189 27.537 L58.8035 27.537  Z
  " fill="#ffffff" fill-rule="evenodd" fill-opacity="1"/>
<defs>
  <clipPath id="clip883">
    <rect x="58" y="27" width="410" height="229"/>
  </clipPath>
</defs>
<polyline clip-path="url(#clip883)" style="stroke:#000000; stroke-width:0.5; stroke-opacity:0.1; fill:none" points="
  124.619,255.53 124.619,27.537 
  "/>
<polyline clip-path="url(#clip883)" style="stroke:#000000; stroke-width:0.5; stroke-opacity:0.1; fill:none" points="
  216.26,255.53 216.26,27.537 
  "/>
<polyline clip-path="url(#clip883)" style="stroke:#000000; stroke-width:0.5; stroke-opacity:0.1; fill:none" points="
  307.901,255.53 307.901,27.537 
  "/>
<polyline clip-path="url(#clip883)" style="stroke:#000000; stroke-width:0.5; stroke-opacity:0.1; fill:none" points="
  399.542,255.53 399.542,27.537 
  "/>
<polyline clip-path="url(#clip880)" style="stroke:#000000; stroke-width:1; stroke-opacity:1; fill:none" points="
  58.8035,255.53 468.189,255.53 
  "/>
<polyline clip-path="url(#clip880)" style="stroke:#000000; stroke-width:1; stroke-opacity:1; fill:none" points="
  124.619,255.53 124.619,252.794 
  "/>
<polyline clip-path="url(#clip880)" style="stroke:#000000; stroke-width:1; stroke-opacity:1; fill:none" points="
  216.26,255.53 216.26,252.794 
  "/>
<polyline clip-path="url(#clip880)" style="stroke:#000000; stroke-width:1; stroke-opacity:1; fill:none" points="
  307.901,255.53 307.901,252.794 
  "/>
<polyline clip-path="url(#clip880)" style="stroke:#000000; stroke-width:1; stroke-opacity:1; fill:none" points="
  399.542,255.53 399.542,252.794 
  "/>
<path clip-path="url(#clip880)" d="M 0 0 M113.095 274.138 L115.004 274.138 L115.004 267.546 L112.927 267.963 L112.927 266.898 L114.993 266.481 L116.162 266.481 L116.162 274.138 L118.071 274.138 L118.071 275.121 L113.095 275.121 L113.095 274.138 Z" fill="#000000" fill-rule="evenodd" fill-opacity="1" /><path clip-path="url(#clip880)" d="M 0 0 M121.839 267.251 Q120.936 267.251 120.479 268.142 Q120.027 269.028 120.027 270.81 Q120.027 272.587 120.479 273.478 Q120.936 274.363 121.839 274.363 Q122.747 274.363 123.199 273.478 Q123.656 272.587 123.656 270.81 Q123.656 269.028 123.199 268.142 Q122.747 267.251 121.839 267.251 M121.839 266.325 Q123.291 266.325 124.055 267.477 Q124.825 268.622 124.825 270.81 Q124.825 272.992 124.055 274.143 Q123.291 275.289 121.839 275.289 Q120.386 275.289 119.617 274.143 Q118.853 272.992 118.853 270.81 Q118.853 268.622 119.617 267.477 Q120.386 266.325 121.839 266.325 Z" fill="#000000" fill-rule="evenodd" fill-opacity="1" /><path clip-path="url(#clip880)" d="M 0 0 M124.961 267.469 L126.513 267.469 L126.513 262.114 L124.825 262.452 L124.825 261.587 L126.503 261.249 L127.453 261.249 L127.453 267.469 L129.005 267.469 L129.005 268.269 L124.961 268.269 L124.961 267.469 Z" fill="#000000" fill-rule="evenodd" fill-opacity="1" /><path clip-path="url(#clip880)" d="M 0 0 M130.035 267.074 L131.027 267.074 L131.027 268.269 L130.035 268.269 L130.035 267.074 Z" fill="#000000" fill-rule="evenodd" fill-opacity="1" /><path clip-path="url(#clip880)" d="M 0 0 M132.066 261.249 L135.794 261.249 L135.794 262.048 L132.936 262.048 L132.936 263.769 Q133.143 263.698 133.349 263.666 Q133.556 263.628 133.763 263.628 Q134.939 263.628 135.625 264.272 Q136.312 264.916 136.312 266.016 Q136.312 267.15 135.606 267.78 Q134.901 268.405 133.617 268.405 Q133.176 268.405 132.715 268.33 Q132.259 268.255 131.77 268.104 L131.77 267.15 Q132.193 267.38 132.644 267.493 Q133.096 267.606 133.599 267.606 Q134.412 267.606 134.887 267.178 Q135.362 266.75 135.362 266.016 Q135.362 265.283 134.887 264.855 Q134.412 264.427 133.599 264.427 Q133.218 264.427 132.837 264.512 Q132.461 264.596 132.066 264.775 L132.066 261.249 Z" fill="#000000" fill-rule="evenodd" fill-opacity="1" /><path clip-path="url(#clip880)" d="M 0 0 M204.496 274.138 L206.405 274.138 L206.405 267.546 L204.328 267.963 L204.328 266.898 L206.394 266.481 L207.563 266.481 L207.563 274.138 L209.472 274.138 L209.472 275.121 L204.496 275.121 L204.496 274.138 Z" fill="#000000" fill-rule="evenodd" fill-opacity="1" /><path clip-path="url(#clip880)" d="M 0 0 M213.24 267.251 Q212.337 267.251 211.88 268.142 Q211.428 269.028 211.428 270.81 Q211.428 272.587 211.88 273.478 Q212.337 274.363 213.24 274.363 Q214.148 274.363 214.6 273.478 Q215.057 272.587 215.057 270.81 Q215.057 269.028 214.6 268.142 Q214.148 267.251 213.24 267.251 M213.24 266.325 Q214.692 266.325 215.456 267.477 Q216.226 268.622 216.226 270.81 Q216.226 272.992 215.456 274.143 Q214.692 275.289 213.24 275.289 Q211.787 275.289 211.018 274.143 Q210.254 272.992 210.254 270.81 Q210.254 268.622 211.018 267.477 Q211.787 266.325 213.24 266.325 Z" fill="#000000" fill-rule="evenodd" fill-opacity="1" /><path clip-path="url(#clip880)" d="M 0 0 M217.368 267.469 L220.683 267.469 L220.683 268.269 L216.226 268.269 L216.226 267.469 Q216.767 266.91 217.698 265.969 Q218.633 265.024 218.873 264.752 Q219.329 264.239 219.508 263.886 Q219.691 263.529 219.691 263.186 Q219.691 262.626 219.296 262.274 Q218.906 261.921 218.276 261.921 Q217.829 261.921 217.331 262.076 Q216.837 262.231 216.273 262.546 L216.273 261.587 Q216.846 261.357 217.345 261.239 Q217.843 261.122 218.257 261.122 Q219.348 261.122 219.997 261.667 Q220.646 262.213 220.646 263.125 Q220.646 263.557 220.481 263.948 Q220.321 264.333 219.893 264.86 Q219.776 264.996 219.146 265.65 Q218.516 266.299 217.368 267.469 Z" fill="#000000" fill-rule="evenodd" fill-opacity="1" /><path clip-path="url(#clip880)" d="M 0 0 M221.713 267.074 L222.705 267.074 L222.705 268.269 L221.713 268.269 L221.713 267.074 Z" fill="#000000" fill-rule="evenodd" fill-opacity="1" /><path clip-path="url(#clip880)" d="M 0 0 M225.766 261.874 Q225.033 261.874 224.661 262.598 Q224.294 263.318 224.294 264.766 Q224.294 266.209 224.661 266.933 Q225.033 267.653 225.766 267.653 Q226.504 267.653 226.871 266.933 Q227.242 266.209 227.242 264.766 Q227.242 263.318 226.871 262.598 Q226.504 261.874 225.766 261.874 M225.766 261.122 Q226.946 261.122 227.567 262.057 Q228.192 262.988 228.192 264.766 Q228.192 266.538 227.567 267.474 Q226.946 268.405 225.766 268.405 Q224.586 268.405 223.961 267.474 Q223.34 266.538 223.34 264.766 Q223.34 262.988 223.961 262.057 Q224.586 261.122 225.766 261.122 Z" fill="#000000" fill-rule="evenodd" fill-opacity="1" /><path clip-path="url(#clip880)" d="M 0 0 M296.237 274.138 L298.147 274.138 L298.147 267.546 L296.07 267.963 L296.07 266.898 L298.136 266.481 L299.305 266.481 L299.305 274.138 L301.214 274.138 L301.214 275.121 L296.237 275.121 L296.237 274.138 Z" fill="#000000" fill-rule="evenodd" fill-opacity="1" /><path clip-path="url(#clip880)" d="M 0 0 M304.982 267.251 Q304.079 267.251 303.622 268.142 Q303.17 269.028 303.17 270.81 Q303.17 272.587 303.622 273.478 Q304.079 274.363 304.982 274.363 Q305.89 274.363 306.342 273.478 Q306.799 272.587 306.799 270.81 Q306.799 269.028 306.342 268.142 Q305.89 267.251 304.982 267.251 M304.982 266.325 Q306.434 266.325 307.198 267.477 Q307.968 268.622 307.968 270.81 Q307.968 272.992 307.198 274.143 Q306.434 275.289 304.982 275.289 Q303.529 275.289 302.759 274.143 Q301.996 272.992 301.996 270.81 Q301.996 268.622 302.759 267.477 Q303.529 266.325 304.982 266.325 Z" fill="#000000" fill-rule="evenodd" fill-opacity="1" /><path clip-path="url(#clip880)" d="M 0 0 M309.11 267.469 L312.425 267.469 L312.425 268.269 L307.968 268.269 L307.968 267.469 Q308.508 266.91 309.439 265.969 Q310.375 265.024 310.615 264.752 Q311.071 264.239 311.25 263.886 Q311.433 263.529 311.433 263.186 Q311.433 262.626 311.038 262.274 Q310.648 261.921 310.018 261.921 Q309.571 261.921 309.073 262.076 Q308.579 262.231 308.015 262.546 L308.015 261.587 Q308.588 261.357 309.087 261.239 Q309.585 261.122 309.999 261.122 Q311.09 261.122 311.739 261.667 Q312.388 262.213 312.388 263.125 Q312.388 263.557 312.223 263.948 Q312.063 264.333 311.635 264.86 Q311.518 264.996 310.888 265.65 Q310.258 266.299 309.11 267.469 Z" fill="#000000" fill-rule="evenodd" fill-opacity="1" /><path clip-path="url(#clip880)" d="M 0 0 M313.455 267.074 L314.447 267.074 L314.447 268.269 L313.455 268.269 L313.455 267.074 Z" fill="#000000" fill-rule="evenodd" fill-opacity="1" /><path clip-path="url(#clip880)" d="M 0 0 M315.486 261.249 L319.215 261.249 L319.215 262.048 L316.356 262.048 L316.356 263.769 Q316.563 263.698 316.77 263.666 Q316.977 263.628 317.184 263.628 Q318.359 263.628 319.045 264.272 Q319.732 264.916 319.732 266.016 Q319.732 267.15 319.027 267.78 Q318.321 268.405 317.038 268.405 Q316.596 268.405 316.135 268.33 Q315.679 268.255 315.19 268.104 L315.19 267.15 Q315.613 267.38 316.064 267.493 Q316.516 267.606 317.019 267.606 Q317.832 267.606 318.307 267.178 Q318.782 266.75 318.782 266.016 Q318.782 265.283 318.307 264.855 Q317.832 264.427 317.019 264.427 Q316.638 264.427 316.257 264.512 Q315.881 264.596 315.486 264.775 L315.486 261.249 Z" fill="#000000" fill-rule="evenodd" fill-opacity="1" /><path clip-path="url(#clip880)" d="M 0 0 M387.695 274.138 L389.605 274.138 L389.605 267.546 L387.527 267.963 L387.527 266.898 L389.593 266.481 L390.762 266.481 L390.762 274.138 L392.672 274.138 L392.672 275.121 L387.695 275.121 L387.695 274.138 Z" fill="#000000" fill-rule="evenodd" fill-opacity="1" /><path clip-path="url(#clip880)" d="M 0 0 M396.439 267.251 Q395.536 267.251 395.079 268.142 Q394.628 269.028 394.628 270.81 Q394.628 272.587 395.079 273.478 Q395.536 274.363 396.439 274.363 Q397.348 274.363 397.799 273.478 Q398.256 272.587 398.256 270.81 Q398.256 269.028 397.799 268.142 Q397.348 267.251 396.439 267.251 M396.439 266.325 Q397.892 266.325 398.655 267.477 Q399.425 268.622 399.425 270.81 Q399.425 272.992 398.655 274.143 Q397.892 275.289 396.439 275.289 Q394.986 275.289 394.217 274.143 Q393.453 272.992 393.453 270.81 Q393.453 268.622 394.217 267.477 Q394.986 266.325 396.439 266.325 Z" fill="#000000" fill-rule="evenodd" fill-opacity="1" /><path clip-path="url(#clip880)" d="M 0 0 M402.599 264.484 Q403.281 264.629 403.662 265.09 Q404.047 265.551 404.047 266.228 Q404.047 267.267 403.332 267.836 Q402.618 268.405 401.301 268.405 Q400.859 268.405 400.389 268.316 Q399.924 268.231 399.425 268.057 L399.425 267.14 Q399.82 267.371 400.29 267.488 Q400.76 267.606 401.273 267.606 Q402.166 267.606 402.632 267.253 Q403.102 266.9 403.102 266.228 Q403.102 265.607 402.665 265.259 Q402.232 264.907 401.456 264.907 L400.638 264.907 L400.638 264.126 L401.494 264.126 Q402.195 264.126 402.566 263.849 Q402.937 263.567 402.937 263.04 Q402.937 262.499 402.552 262.213 Q402.171 261.921 401.456 261.921 Q401.066 261.921 400.619 262.006 Q400.173 262.09 399.637 262.269 L399.637 261.423 Q400.177 261.272 400.648 261.197 Q401.122 261.122 401.541 261.122 Q402.622 261.122 403.252 261.615 Q403.883 262.104 403.883 262.941 Q403.883 263.524 403.549 263.929 Q403.215 264.328 402.599 264.484 Z" fill="#000000" fill-rule="evenodd" fill-opacity="1" /><path clip-path="url(#clip880)" d="M 0 0 M405.077 267.074 L406.069 267.074 L406.069 268.269 L405.077 268.269 L405.077 267.074 Z" fill="#000000" fill-rule="evenodd" fill-opacity="1" /><path clip-path="url(#clip880)" d="M 0 0 M409.13 261.874 Q408.396 261.874 408.025 262.598 Q407.658 263.318 407.658 264.766 Q407.658 266.209 408.025 266.933 Q408.396 267.653 409.13 267.653 Q409.868 267.653 410.235 266.933 Q410.606 266.209 410.606 264.766 Q410.606 263.318 410.235 262.598 Q409.868 261.874 409.13 261.874 M409.13 261.122 Q410.31 261.122 410.931 262.057 Q411.556 262.988 411.556 264.766 Q411.556 266.538 410.931 267.474 Q410.31 268.405 409.13 268.405 Q407.95 268.405 407.324 267.474 Q406.704 266.538 406.704 264.766 Q406.704 262.988 407.324 262.057 Q407.95 261.122 409.13 261.122 Z" fill="#000000" fill-rule="evenodd" fill-opacity="1" /><g clip-path="url(#clip880)">
<text style="fill:#000000; fill-opacity:1; font-family:Arial,Helvetica Neue,Helvetica,sans-serif; font-size:16px; text-anchor:middle;" transform="rotate(0, 263.496, 295.186)" x="263.496" y="295.186">n</text>
</g>
<polyline clip-path="url(#clip883)" style="stroke:#000000; stroke-width:0.5; stroke-opacity:0.1; fill:none" points="
  58.8035,226.169 468.189,226.169 
  "/>
<polyline clip-path="url(#clip883)" style="stroke:#000000; stroke-width:0.5; stroke-opacity:0.1; fill:none" points="
  58.8035,189.379 468.189,189.379 
  "/>
<polyline clip-path="url(#clip883)" style="stroke:#000000; stroke-width:0.5; stroke-opacity:0.1; fill:none" points="
  58.8035,152.589 468.189,152.589 
  "/>
<polyline clip-path="url(#clip883)" style="stroke:#000000; stroke-width:0.5; stroke-opacity:0.1; fill:none" points="
  58.8035,115.798 468.189,115.798 
  "/>
<polyline clip-path="url(#clip883)" style="stroke:#000000; stroke-width:0.5; stroke-opacity:0.1; fill:none" points="
  58.8035,79.008 468.189,79.008 
  "/>
<polyline clip-path="url(#clip883)" style="stroke:#000000; stroke-width:0.5; stroke-opacity:0.1; fill:none" points="
  58.8035,42.2178 468.189,42.2178 
  "/>
<polyline clip-path="url(#clip880)" style="stroke:#000000; stroke-width:1; stroke-opacity:1; fill:none" points="
  58.8035,255.53 58.8035,27.537 
  "/>
<polyline clip-path="url(#clip880)" style="stroke:#000000; stroke-width:1; stroke-opacity:1; fill:none" points="
  58.8035,226.169 63.7161,226.169 
  "/>
<polyline clip-path="url(#clip880)" style="stroke:#000000; stroke-width:1; stroke-opacity:1; fill:none" points="
  58.8035,189.379 63.7161,189.379 
  "/>
<polyline clip-path="url(#clip880)" style="stroke:#000000; stroke-width:1; stroke-opacity:1; fill:none" points="
  58.8035,152.589 63.7161,152.589 
  "/>
<polyline clip-path="url(#clip880)" style="stroke:#000000; stroke-width:1; stroke-opacity:1; fill:none" points="
  58.8035,115.798 63.7161,115.798 
  "/>
<polyline clip-path="url(#clip880)" style="stroke:#000000; stroke-width:1; stroke-opacity:1; fill:none" points="
  58.8035,79.008 63.7161,79.008 
  "/>
<polyline clip-path="url(#clip880)" style="stroke:#000000; stroke-width:1; stroke-opacity:1; fill:none" points="
  58.8035,42.2178 63.7161,42.2178 
  "/>
<path clip-path="url(#clip880)" d="M 0 0 M28.2594 231.117 L30.1692 231.117 L30.1692 224.526 L28.0916 224.942 L28.0916 223.878 L30.1576 223.461 L31.3266 223.461 L31.3266 231.117 L33.2363 231.117 L33.2363 232.101 L28.2594 232.101 L28.2594 231.117 Z" fill="#000000" fill-rule="evenodd" fill-opacity="1" /><path clip-path="url(#clip880)" d="M 0 0 M37.0036 224.231 Q36.1008 224.231 35.6437 225.122 Q35.1923 226.007 35.1923 227.79 Q35.1923 229.566 35.6437 230.457 Q36.1008 231.343 37.0036 231.343 Q37.9122 231.343 38.3636 230.457 Q38.8207 229.566 38.8207 227.79 Q38.8207 226.007 38.3636 225.122 Q37.9122 224.231 37.0036 224.231 M37.0036 223.305 Q38.4561 223.305 39.22 224.456 Q39.9897 225.602 39.9897 227.79 Q39.9897 229.971 39.22 231.123 Q38.4561 232.269 37.0036 232.269 Q35.5511 232.269 34.7814 231.123 Q34.0175 229.971 34.0175 227.79 Q34.0175 225.602 34.7814 224.456 Q35.5511 223.305 37.0036 223.305 Z" fill="#000000" fill-rule="evenodd" fill-opacity="1" /><path clip-path="url(#clip880)" d="M 0 0 M39.9897 221.83 L46.0176 221.83 L46.0176 222.629 L39.9897 222.629 L39.9897 221.83 Z" fill="#000000" fill-rule="evenodd" fill-opacity="1" /><path clip-path="url(#clip880)" d="M 0 0 M49.6569 219.056 L47.2589 222.803 L49.6569 222.803 L49.6569 219.056 M49.4077 218.228 L50.602 218.228 L50.602 222.803 L51.6035 222.803 L51.6035 223.593 L50.602 223.593 L50.602 225.248 L49.6569 225.248 L49.6569 223.593 L46.4878 223.593 L46.4878 222.676 L49.4077 218.228 Z" fill="#000000" fill-rule="evenodd" fill-opacity="1" /><path clip-path="url(#clip880)" d="M 0 0 M28.4898 194.327 L30.3996 194.327 L30.3996 187.736 L28.322 188.152 L28.322 187.087 L30.388 186.671 L31.557 186.671 L31.557 194.327 L33.4667 194.327 L33.4667 195.311 L28.4898 195.311 L28.4898 194.327 Z" fill="#000000" fill-rule="evenodd" fill-opacity="1" /><path clip-path="url(#clip880)" d="M 0 0 M37.234 187.44 Q36.3312 187.44 35.8741 188.332 Q35.4227 189.217 35.4227 190.999 Q35.4227 192.776 35.8741 193.667 Q36.3312 194.553 37.234 194.553 Q38.1426 194.553 38.594 193.667 Q39.0511 192.776 39.0511 190.999 Q39.0511 189.217 38.594 188.332 Q38.1426 187.44 37.234 187.44 M37.234 186.514 Q38.6865 186.514 39.4504 187.666 Q40.2201 188.812 40.2201 190.999 Q40.2201 193.181 39.4504 194.333 Q38.6865 195.479 37.234 195.479 Q35.7815 195.479 35.0118 194.333 Q34.2479 193.181 34.2479 190.999 Q34.2479 188.812 35.0118 187.666 Q35.7815 186.514 37.234 186.514 Z" fill="#000000" fill-rule="evenodd" fill-opacity="1" /><path clip-path="url(#clip880)" d="M 0 0 M40.2201 185.04 L46.248 185.04 L46.248 185.839 L40.2201 185.839 L40.2201 185.04 Z" fill="#000000" fill-rule="evenodd" fill-opacity="1" /><path clip-path="url(#clip880)" d="M 0 0 M50.1553 184.673 Q50.8371 184.819 51.2179 185.28 Q51.6035 185.74 51.6035 186.417 Q51.6035 187.457 50.8888 188.026 Q50.1741 188.594 48.8576 188.594 Q48.4156 188.594 47.9454 188.505 Q47.4799 188.42 46.9815 188.247 L46.9815 187.33 Q47.3765 187.56 47.8467 187.678 Q48.3168 187.795 48.8294 187.795 Q49.7227 187.795 50.1882 187.442 Q50.6584 187.09 50.6584 186.417 Q50.6584 185.797 50.2211 185.449 Q49.7886 185.096 49.0127 185.096 L48.1946 185.096 L48.1946 184.316 L49.0503 184.316 Q49.7509 184.316 50.1224 184.038 Q50.4938 183.756 50.4938 183.23 Q50.4938 182.689 50.1083 182.402 Q49.7274 182.11 49.0127 182.11 Q48.6225 182.11 48.1758 182.195 Q47.7291 182.28 47.1931 182.458 L47.1931 181.612 Q47.7338 181.462 48.204 181.386 Q48.6789 181.311 49.0974 181.311 Q50.1788 181.311 50.8089 181.805 Q51.4389 182.294 51.4389 183.131 Q51.4389 183.714 51.1051 184.118 Q50.7713 184.518 50.1553 184.673 Z" fill="#000000" fill-rule="evenodd" fill-opacity="1" /><path clip-path="url(#clip880)" d="M 0 0 M28.6826 157.537 L30.5923 157.537 L30.5923 150.945 L28.5148 151.362 L28.5148 150.297 L30.5808 149.88 L31.7497 149.88 L31.7497 157.537 L33.6594 157.537 L33.6594 158.52 L28.6826 158.52 L28.6826 157.537 Z" fill="#000000" fill-rule="evenodd" fill-opacity="1" /><path clip-path="url(#clip880)" d="M 0 0 M37.4268 150.65 Q36.524 150.65 36.0668 151.541 Q35.6155 152.427 35.6155 154.209 Q35.6155 155.986 36.0668 156.877 Q36.524 157.762 37.4268 157.762 Q38.3353 157.762 38.7867 156.877 Q39.2439 155.986 39.2439 154.209 Q39.2439 152.427 38.7867 151.541 Q38.3353 150.65 37.4268 150.65 M37.4268 149.724 Q38.8793 149.724 39.6432 150.876 Q40.4129 152.022 40.4129 154.209 Q40.4129 156.391 39.6432 157.542 Q38.8793 158.688 37.4268 158.688 Q35.9742 158.688 35.2046 157.542 Q34.4407 156.391 34.4407 154.209 Q34.4407 152.022 35.2046 150.876 Q35.9742 149.724 37.4268 149.724 Z" fill="#000000" fill-rule="evenodd" fill-opacity="1" /><path clip-path="url(#clip880)" d="M 0 0 M40.4129 148.25 L46.4408 148.25 L46.4408 149.049 L40.4129 149.049 L40.4129 148.25 Z" fill="#000000" fill-rule="evenodd" fill-opacity="1" /><path clip-path="url(#clip880)" d="M 0 0 M48.2886 150.869 L51.6035 150.869 L51.6035 151.668 L47.1461 151.668 L47.1461 150.869 Q47.6868 150.309 48.6178 149.369 Q49.5535 148.424 49.7933 148.151 Q50.2493 147.638 50.428 147.286 Q50.6114 146.928 50.6114 146.585 Q50.6114 146.026 50.2164 145.673 Q49.8262 145.32 49.1961 145.32 Q48.7494 145.32 48.251 145.475 Q47.7573 145.631 47.1931 145.946 L47.1931 144.986 Q47.7667 144.756 48.2651 144.638 Q48.7635 144.521 49.1773 144.521 Q50.2682 144.521 50.917 145.066 Q51.5659 145.612 51.5659 146.524 Q51.5659 146.956 51.4013 147.347 Q51.2415 147.732 50.8136 148.259 Q50.696 148.395 50.066 149.049 Q49.4359 149.698 48.2886 150.869 Z" fill="#000000" fill-rule="evenodd" fill-opacity="1" /><path clip-path="url(#clip880)" d="M 0 0 M28.6074 120.746 L30.5171 120.746 L30.5171 114.155 L28.4396 114.572 L28.4396 113.507 L30.5055 113.09 L31.6745 113.09 L31.6745 120.746 L33.5842 120.746 L33.5842 121.73 L28.6074 121.73 L28.6074 120.746 Z" fill="#000000" fill-rule="evenodd" fill-opacity="1" /><path clip-path="url(#clip880)" d="M 0 0 M37.3516 113.86 Q36.4488 113.86 35.9916 114.751 Q35.5402 115.636 35.5402 117.419 Q35.5402 119.195 35.9916 120.087 Q36.4488 120.972 37.3516 120.972 Q38.2601 120.972 38.7115 120.087 Q39.1687 119.195 39.1687 117.419 Q39.1687 115.636 38.7115 114.751 Q38.2601 113.86 37.3516 113.86 M37.3516 112.934 Q38.8041 112.934 39.568 114.086 Q40.3376 115.231 40.3376 117.419 Q40.3376 119.601 39.568 120.752 Q38.8041 121.898 37.3516 121.898 Q35.899 121.898 35.1293 120.752 Q34.3655 119.601 34.3655 117.419 Q34.3655 115.231 35.1293 114.086 Q35.899 112.934 37.3516 112.934 Z" fill="#000000" fill-rule="evenodd" fill-opacity="1" /><path clip-path="url(#clip880)" d="M 0 0 M40.3376 111.459 L46.3655 111.459 L46.3655 112.259 L40.3376 112.259 L40.3376 111.459 Z" fill="#000000" fill-rule="evenodd" fill-opacity="1" /><path clip-path="url(#clip880)" d="M 0 0 M47.5598 114.078 L49.1115 114.078 L49.1115 108.723 L47.4235 109.061 L47.4235 108.196 L49.1021 107.858 L50.0519 107.858 L50.0519 114.078 L51.6035 114.078 L51.6035 114.878 L47.5598 114.878 L47.5598 114.078 Z" fill="#000000" fill-rule="evenodd" fill-opacity="1" /><path clip-path="url(#clip880)" d="M 0 0 M35.0208 83.9561 L36.9305 83.9561 L36.9305 77.3647 L34.853 77.7814 L34.853 76.7166 L36.919 76.2999 L38.0879 76.2999 L38.0879 83.9561 L39.9977 83.9561 L39.9977 84.9399 L35.0208 84.9399 L35.0208 83.9561 Z" fill="#000000" fill-rule="evenodd" fill-opacity="1" /><path clip-path="url(#clip880)" d="M 0 0 M43.765 77.0696 Q42.8622 77.0696 42.4051 77.9608 Q41.9537 78.8462 41.9537 80.6286 Q41.9537 82.4052 42.4051 83.2964 Q42.8622 84.1818 43.765 84.1818 Q44.6736 84.1818 45.1249 83.2964 Q45.5821 82.4052 45.5821 80.6286 Q45.5821 78.8462 45.1249 77.9608 Q44.6736 77.0696 43.765 77.0696 M43.765 76.1437 Q45.2175 76.1437 45.9814 77.2953 Q46.7511 78.4411 46.7511 80.6286 Q46.7511 82.8103 45.9814 83.9619 Q45.2175 85.1077 43.765 85.1077 Q42.3125 85.1077 41.5428 83.9619 Q40.7789 82.8103 40.7789 80.6286 Q40.7789 78.4411 41.5428 77.2953 Q42.3125 76.1437 43.765 76.1437 Z" fill="#000000" fill-rule="evenodd" fill-opacity="1" /><path clip-path="url(#clip880)" d="M 0 0 M49.1773 71.6927 Q48.4438 71.6927 48.0723 72.4168 Q47.7056 73.1362 47.7056 74.5844 Q47.7056 76.0279 48.0723 76.752 Q48.4438 77.4714 49.1773 77.4714 Q49.9155 77.4714 50.2823 76.752 Q50.6537 76.0279 50.6537 74.5844 Q50.6537 73.1362 50.2823 72.4168 Q49.9155 71.6927 49.1773 71.6927 M49.1773 70.9404 Q50.3575 70.9404 50.9781 71.8761 Q51.6035 72.807 51.6035 74.5844 Q51.6035 76.357 50.9781 77.2927 Q50.3575 78.2237 49.1773 78.2237 Q47.9971 78.2237 47.3718 77.2927 Q46.7511 76.357 46.7511 74.5844 Q46.7511 72.807 47.3718 71.8761 Q47.9971 70.9404 49.1773 70.9404 Z" fill="#000000" fill-rule="evenodd" fill-opacity="1" /><path clip-path="url(#clip880)" d="M 0 0 M35.6932 47.1659 L37.6029 47.1659 L37.6029 40.5745 L35.5254 40.9911 L35.5254 39.9263 L37.5914 39.5097 L38.7603 39.5097 L38.7603 47.1659 L40.67 47.1659 L40.67 48.1497 L35.6932 48.1497 L35.6932 47.1659 Z" fill="#000000" fill-rule="evenodd" fill-opacity="1" /><path clip-path="url(#clip880)" d="M 0 0 M44.4374 40.2793 Q43.5346 40.2793 43.0774 41.1705 Q42.626 42.0559 42.626 43.8383 Q42.626 45.615 43.0774 46.5062 Q43.5346 47.3916 44.4374 47.3916 Q45.3459 47.3916 45.7973 46.5062 Q46.2545 45.615 46.2545 43.8383 Q46.2545 42.0559 45.7973 41.1705 Q45.3459 40.2793 44.4374 40.2793 M44.4374 39.3534 Q45.8899 39.3534 46.6538 40.505 Q47.4235 41.6509 47.4235 43.8383 Q47.4235 46.02 46.6538 47.1717 Q45.8899 48.3175 44.4374 48.3175 Q42.9848 48.3175 42.2152 47.1717 Q41.4513 46.02 41.4513 43.8383 Q41.4513 41.6509 42.2152 40.505 Q42.9848 39.3534 44.4374 39.3534 Z" fill="#000000" fill-rule="evenodd" fill-opacity="1" /><path clip-path="url(#clip880)" d="M 0 0 M47.5598 40.4977 L49.1115 40.4977 L49.1115 35.1422 L47.4235 35.4808 L47.4235 34.6156 L49.1021 34.2771 L50.0519 34.2771 L50.0519 40.4977 L51.6035 40.4977 L51.6035 41.2971 L47.5598 41.2971 L47.5598 40.4977 Z" fill="#000000" fill-rule="evenodd" fill-opacity="1" /><g clip-path="url(#clip880)">
<text style="fill:#000000; fill-opacity:1; font-family:Arial,Helvetica Neue,Helvetica,sans-serif; font-size:16px; text-anchor:middle;" transform="rotate(-90, 18.0011, 141.533)" x="18.0011" y="141.533">max error</text>
</g>
<g clip-path="url(#clip880)">
<text style="fill:#000000; fill-opacity:1; font-family:Arial,Helvetica Neue,Helvetica,sans-serif; font-size:18px; font-weight:bold; text-anchor:middle;" transform="rotate(0, 263.496, 15.6)" x="263.496" y="15.6">Convergence of finite differences</text>
</g>
<polyline clip-path="url(#clip883)" style="stroke:#009af9; stroke-width:2; stroke-opacity:1; fill:none" points="
  70.3899,83.4934 99.2765,91.3386 125.563,99.9023 152.7,109.575 180.736,120.084 208.753,130.887 235.91,141.524 263.488,152.425 291.083,163.394 318.661,174.394 
  346.256,185.424 373.834,196.463 401.429,207.519 429.007,218.575 456.603,229.643 
  "/>
<path clip-path="url(#clip883)" d="M70.3899 87.4934 L67.5619 86.3214 L66.3899 83.4934 L67.5619 80.6654 L70.3899 79.4934 L73.2179 80.6654 L74.3899 83.4934 L73.2179 86.3214 Z" fill="#009af9" fill-rule="evenodd" fill-opacity="1" stroke="#000000" stroke-opacity="1" stroke-width="0.6"/>
<path clip-path="url(#clip883)" d="M99.2765 95.3386 L96.4485 94.1666 L95.2765 91.3386 L96.4485 88.5106 L99.2765 87.3386 L102.104 88.5106 L103.276 91.3386 L102.104 94.1666 Z" fill="#009af9" fill-rule="evenodd" fill-opacity="1" stroke="#000000" stroke-opacity="1" stroke-width="0.6"/>
<path clip-path="url(#clip883)" d="M125.563 103.902 L122.735 102.73 L121.563 99.9023 L122.735 97.0743 L125.563 95.9023 L128.391 97.0743 L129.563 99.9023 L128.391 102.73 Z" fill="#009af9" fill-rule="evenodd" fill-opacity="1" stroke="#000000" stroke-opacity="1" stroke-width="0.6"/>
<path clip-path="url(#clip883)" d="M152.7 113.575 L149.872 112.403 L148.7 109.575 L149.872 106.747 L152.7 105.575 L155.528 106.747 L156.7 109.575 L155.528 112.403 Z" fill="#009af9" fill-rule="evenodd" fill-opacity="1" stroke="#000000" stroke-opacity="1" stroke-width="0.6"/>
<path clip-path="url(#clip883)" d="M180.736 124.084 L177.908 122.912 L176.736 120.084 L177.908 117.256 L180.736 116.084 L183.564 117.256 L184.736 120.084 L183.564 122.912 Z" fill="#009af9" fill-rule="evenodd" fill-opacity="1" stroke="#000000" stroke-opacity="1" stroke-width="0.6"/>
<path clip-path="url(#clip883)" d="M208.753 134.887 L205.925 133.715 L204.753 130.887 L205.925 128.059 L208.753 126.887 L211.581 128.059 L212.753 130.887 L211.581 133.715 Z" fill="#009af9" fill-rule="evenodd" fill-opacity="1" stroke="#000000" stroke-opacity="1" stroke-width="0.6"/>
<path clip-path="url(#clip883)" d="M235.91 145.524 L233.082 144.352 L231.91 141.524 L233.082 138.696 L235.91 137.524 L238.738 138.696 L239.91 141.524 L238.738 144.352 Z" fill="#009af9" fill-rule="evenodd" fill-opacity="1" stroke="#000000" stroke-opacity="1" stroke-width="0.6"/>
<path clip-path="url(#clip883)" d="M263.488 156.425 L260.66 155.253 L259.488 152.425 L260.66 149.597 L263.488 148.425 L266.316 149.597 L267.488 152.425 L266.316 155.253 Z" fill="#009af9" fill-rule="evenodd" fill-opacity="1" stroke="#000000" stroke-opacity="1" stroke-width="0.6"/>
<path clip-path="url(#clip883)" d="M291.083 167.394 L288.255 166.222 L287.083 163.394 L288.255 160.566 L291.083 159.394 L293.911 160.566 L295.083 163.394 L293.911 166.222 Z" fill="#009af9" fill-rule="evenodd" fill-opacity="1" stroke="#000000" stroke-opacity="1" stroke-width="0.6"/>
<path clip-path="url(#clip883)" d="M318.661 178.394 L315.833 177.222 L314.661 174.394 L315.833 171.566 L318.661 170.394 L321.489 171.566 L322.661 174.394 L321.489 177.222 Z" fill="#009af9" fill-rule="evenodd" fill-opacity="1" stroke="#000000" stroke-opacity="1" stroke-width="0.6"/>
<path clip-path="url(#clip883)" d="M346.256 189.424 L343.428 188.252 L342.256 185.424 L343.428 182.596 L346.256 181.424 L349.084 182.596 L350.256 185.424 L349.084 188.252 Z" fill="#009af9" fill-rule="evenodd" fill-opacity="1" stroke="#000000" stroke-opacity="1" stroke-width="0.6"/>
<path clip-path="url(#clip883)" d="M373.834 200.463 L371.006 199.291 L369.834 196.463 L371.006 193.635 L373.834 192.463 L376.662 193.635 L377.834 196.463 L376.662 199.291 Z" fill="#009af9" fill-rule="evenodd" fill-opacity="1" stroke="#000000" stroke-opacity="1" stroke-width="0.6"/>
<path clip-path="url(#clip883)" d="M401.429 211.519 L398.601 210.347 L397.429 207.519 L398.601 204.691 L401.429 203.519 L404.257 204.691 L405.429 207.519 L404.257 210.347 Z" fill="#009af9" fill-rule="evenodd" fill-opacity="1" stroke="#000000" stroke-opacity="1" stroke-width="0.6"/>
<path clip-path="url(#clip883)" d="M429.007 222.575 L426.179 221.403 L425.007 218.575 L426.179 215.747 L429.007 214.575 L431.835 215.747 L433.007 218.575 L431.835 221.403 Z" fill="#009af9" fill-rule="evenodd" fill-opacity="1" stroke="#000000" stroke-opacity="1" stroke-width="0.6"/>
<path clip-path="url(#clip883)" d="M456.603 233.643 L453.775 232.471 L452.603 229.643 L453.775 226.815 L456.603 225.643 L459.431 226.815 L460.603 229.643 L459.431 232.471 Z" fill="#009af9" fill-rule="evenodd" fill-opacity="1" stroke="#000000" stroke-opacity="1" stroke-width="0.6"/>
<polyline clip-path="url(#clip883)" style="stroke:#e26f46; stroke-width:2; stroke-opacity:1; fill:none" points="
  70.3899,33.9896 99.2765,43.744 125.563,54.5052 152.7,66.6903 180.736,79.8084 208.753,93.0387 235.91,105.746 263.488,118.415 291.083,130.814 318.661,142.933 
  346.256,154.819 373.834,166.499 401.429,178.028 429.007,189.429 456.603,200.746 
  "/>
<path clip-path="url(#clip883)" d="M70.3899 37.9896 L67.5619 36.8176 L66.3899 33.9896 L67.5619 31.1616 L70.3899 29.9896 L73.2179 31.1616 L74.3899 33.9896 L73.2179 36.8176 Z" fill="#e26f46" fill-rule="evenodd" fill-opacity="1" stroke="#000000" stroke-opacity="1" stroke-width="0.6"/>
<path clip-path="url(#clip883)" d="M99.2765 47.744 L96.4485 46.572 L95.2765 43.744 L96.4485 40.916 L99.2765 39.744 L102.104 40.916 L103.276 43.744 L102.104 46.572 Z" fill="#e26f46" fill-rule="evenodd" fill-opacity="1" stroke="#000000" stroke-opacity="1" stroke-width="0.6"/>
<path clip-path="url(#clip883)" d="M125.563 58.5052 L122.735 57.3332 L121.563 54.5052 L122.735 51.6772 L125.563 50.5052 L128.391 51.6772 L129.563 54.5052 L128.391 57.3332 Z" fill="#e26f46" fill-rule="evenodd" fill-opacity="1" stroke="#000000" stroke-opacity="1" stroke-width="0.6"/>
<path clip-path="url(#clip883)" d="M152.7 70.6903 L149.872 69.5183 L148.7 66.6903 L149.872 63.8623 L152.7 62.6903 L155.528 63.8623 L156.7 66.6903 L155.528 69.5183 Z" fill="#e26f46" fill-rule="evenodd" fill-opacity="1" stroke="#000000" stroke-opacity="1" stroke-width="0.6"/>
<path clip-path="url(#clip883)" d="M180.736 83.8084 L177.908 82.6364 L176.736 79.8084 L177.908 76.9804 L180.736 75.8084 L183.564 76.9804 L184.736 79.8084 L183.564 82.6364 Z" fill="#e26f46" fill-rule="evenodd" fill-opacity="1" stroke="#000000" stroke-opacity="1" stroke-width="0.6"/>
<path clip-path="url(#clip883)" d="M208.753 97.0387 L205.925 95.8667 L204.753 93.0387 L205.925 90.2107 L208.753 89.0387 L211.581 90.2107 L212.753 93.0387 L211.581 95.8667 Z" fill="#e26f46" fill-rule="evenodd" fill-opacity="1" stroke="#000000" stroke-opacity="1" stroke-width="0.6"/>
<path clip-path="url(#clip883)" d="M235.91 109.746 L233.082 108.574 L231.91 105.746 L233.082 102.918 L235.91 101.746 L238.738 102.918 L239.91 105.746 L238.738 108.574 Z" fill="#e26f46" fill-rule="evenodd" fill-opacity="1" stroke="#000000" stroke-opacity="1" stroke-width="0.6"/>
<path clip-path="url(#clip883)" d="M263.488 122.415 L260.66 121.243 L259.488 118.415 L260.66 115.587 L263.488 114.415 L266.316 115.587 L267.488 118.415 L266.316 121.243 Z" fill="#e26f46" fill-rule="evenodd" fill-opacity="1" stroke="#000000" stroke-opacity="1" stroke-width="0.6"/>
<path clip-path="url(#clip883)" d="M291.083 134.814 L288.255 133.642 L287.083 130.814 L288.255 127.986 L291.083 126.814 L293.911 127.986 L295.083 130.814 L293.911 133.642 Z" fill="#e26f46" fill-rule="evenodd" fill-opacity="1" stroke="#000000" stroke-opacity="1" stroke-width="0.6"/>
<path clip-path="url(#clip883)" d="M318.661 146.933 L315.833 145.761 L314.661 142.933 L315.833 140.105 L318.661 138.933 L321.489 140.105 L322.661 142.933 L321.489 145.761 Z" fill="#e26f46" fill-rule="evenodd" fill-opacity="1" stroke="#000000" stroke-opacity="1" stroke-width="0.6"/>
<path clip-path="url(#clip883)" d="M346.256 158.819 L343.428 157.647 L342.256 154.819 L343.428 151.991 L346.256 150.819 L349.084 151.991 L350.256 154.819 L349.084 157.647 Z" fill="#e26f46" fill-rule="evenodd" fill-opacity="1" stroke="#000000" stroke-opacity="1" stroke-width="0.6"/>
<path clip-path="url(#clip883)" d="M373.834 170.499 L371.006 169.327 L369.834 166.499 L371.006 163.671 L373.834 162.499 L376.662 163.671 L377.834 166.499 L376.662 169.327 Z" fill="#e26f46" fill-rule="evenodd" fill-opacity="1" stroke="#000000" stroke-opacity="1" stroke-width="0.6"/>
<path clip-path="url(#clip883)" d="M401.429 182.028 L398.601 180.856 L397.429 178.028 L398.601 175.2 L401.429 174.028 L404.257 175.2 L405.429 178.028 L404.257 180.856 Z" fill="#e26f46" fill-rule="evenodd" fill-opacity="1" stroke="#000000" stroke-opacity="1" stroke-width="0.6"/>
<path clip-path="url(#clip883)" d="M429.007 193.429 L426.179 192.257 L425.007 189.429 L426.179 186.601 L429.007 185.429 L431.835 186.601 L433.007 189.429 L431.835 192.257 Z" fill="#e26f46" fill-rule="evenodd" fill-opacity="1" stroke="#000000" stroke-opacity="1" stroke-width="0.6"/>
<path clip-path="url(#clip883)" d="M456.603 204.746 L453.775 203.574 L452.603 200.746 L453.775 197.918 L456.603 196.746 L459.431 197.918 L460.603 200.746 L459.431 203.574 Z" fill="#e26f46" fill-rule="evenodd" fill-opacity="1" stroke="#000000" stroke-opacity="1" stroke-width="0.6"/>
<polyline clip-path="url(#clip883)" style="stroke:#808080; stroke-width:2; stroke-opacity:1; fill:none" stroke-dasharray="8, 5" points="
  70.3899,94.0273 99.2765,105.624 125.563,116.177 152.7,127.072 180.736,138.327 208.753,149.575 235.91,160.477 263.488,171.549 291.083,182.627 318.661,193.699 
  346.256,204.777 373.834,215.849 401.429,226.927 429.007,237.999 456.603,249.077 
  "/>
<path clip-path="url(#clip880)" d="
M357.603 95.6168 L454.543 95.6168 L454.543 35.1368 L357.603 35.1368  Z
  " fill="#ffffff" fill-rule="evenodd" fill-opacity="1"/>
<polyline clip-path="url(#clip880)" style="stroke:#000000; stroke-width:1; stroke-opacity:1; fill:none" points="
  357.603,95.6168 454.543,95.6168 454.543,35.1368 357.603,35.1368 357.603,95.6168 
  "/>
<polyline clip-path="url(#clip880)" style="stroke:#009af9; stroke-width:1; stroke-opacity:1; fill:none" points="
  362.152,50.2568 389.444,50.2568 
  "/>
<path clip-path="url(#clip880)" d="M375.798 56.6568 L371.273 54.7816 L369.398 50.2568 L371.273 45.732 L375.798 43.8568 L380.323 45.732 L382.198 50.2568 L380.323 54.7816 Z" fill="#009af9" fill-rule="evenodd" fill-opacity="1" stroke="#000000" stroke-opacity="1" stroke-width="0.96"/>
<path clip-path="url(#clip880)" d="M 0 0 M399.972 45.6066 Q399.972 45.9287 399.767 46.1278 Q399.568 46.3268 399.316 46.3268 Q399.134 46.3268 399 46.2156 Q398.871 46.1043 398.871 45.9111 Q398.871 45.712 399.023 45.5012 Q399.175 45.2904 399.521 45.2611 Q399.292 45.0445 398.929 45.0445 Q398.748 45.0445 398.596 45.1616 Q398.449 45.2728 398.367 45.4544 Q398.279 45.6417 398.08 46.7016 Q398.016 47.0471 397.957 47.3809 Q397.899 47.7146 397.828 48.066 L398.824 48.066 Q398.953 48.066 399.005 48.0718 Q399.058 48.0777 399.099 48.107 Q399.146 48.1362 399.146 48.2006 Q399.146 48.3646 399.07 48.4056 Q399 48.4407 398.789 48.4407 L397.758 48.4407 L397.038 52.241 Q397.02 52.3523 396.944 52.7036 Q396.874 53.0491 396.704 53.6171 Q396.534 54.1909 396.365 54.5306 Q396.271 54.7238 396.148 54.9053 Q396.031 55.0927 395.861 55.2801 Q395.691 55.4675 395.469 55.5787 Q395.246 55.6958 395.012 55.6958 Q394.614 55.6958 394.303 55.4733 Q393.993 55.2508 393.993 54.8702 Q393.993 54.5481 394.192 54.349 Q394.397 54.1499 394.649 54.1499 Q394.83 54.1499 394.959 54.2612 Q395.094 54.3725 395.094 54.5657 Q395.094 54.6477 395.065 54.7414 Q395.035 54.835 394.971 54.9404 Q394.907 55.0517 394.766 55.1278 Q394.625 55.204 394.432 55.2157 Q394.661 55.4323 395.012 55.4323 Q395.123 55.4323 395.223 55.3855 Q395.322 55.3445 395.404 55.2391 Q395.492 55.1337 395.557 55.0283 Q395.621 54.9287 395.685 54.7355 Q395.75 54.5481 395.791 54.4076 Q395.832 54.2671 395.884 54.0153 Q395.943 53.7635 395.972 53.6112 Q396.002 53.4648 396.054 53.1779 L396.95 48.4407 L396.16 48.4407 Q396.019 48.4407 395.961 48.4349 Q395.908 48.429 395.867 48.3997 Q395.826 48.3646 395.826 48.2943 Q395.826 48.1831 395.873 48.1362 Q395.925 48.0835 395.984 48.0777 Q396.043 48.066 396.183 48.066 L397.015 48.066 Q397.296 46.5845 397.407 46.1863 Q397.536 45.7647 397.735 45.4719 Q397.934 45.1733 398.156 45.0328 Q398.379 44.8922 398.56 44.8395 Q398.748 44.781 398.929 44.781 Q399.339 44.781 399.655 45.0035 Q399.972 45.2201 399.972 45.6066 Z" fill="#000000" fill-rule="evenodd" fill-opacity="1" /><path clip-path="url(#clip880)" d="M 0 0 M400.759 45.2728 Q400.759 44.9742 400.941 44.8512 Q401.122 44.7224 401.316 44.7224 Q401.556 44.7224 401.708 44.8688 Q401.866 45.0093 401.866 45.2728 Q401.866 45.3899 401.854 45.4544 L401.456 49.0731 L401.181 49.0731 L400.771 45.4544 Q400.759 45.3899 400.759 45.2728 Z" fill="#000000" fill-rule="evenodd" fill-opacity="1" /><polyline clip-path="url(#clip880)" style="stroke:#e26f46; stroke-width:1; stroke-opacity:1; fill:none" points="
  362.152,65.3768 389.444,65.3768 
  "/>
<path clip-path="url(#clip880)" d="M375.798 71.7768 L371.273 69.9016 L369.398 65.3768 L371.273 60.852 L375.798 58.9768 L380.323 60.852 L382.198 65.3768 L380.323 69.9016 Z" fill="#e26f46" fill-rule="evenodd" fill-opacity="1" stroke="#000000" stroke-opacity="1" stroke-width="0.96"/>
<path clip-path="url(#clip880)" d="M 0 0 M399.972 60.7266 Q399.972 61.0487 399.767 61.2478 Q399.568 61.4468 399.316 61.4468 Q399.134 61.4468 399 61.3356 Q398.871 61.2243 398.871 61.0311 Q398.871 60.832 399.023 60.6212 Q399.175 60.4104 399.521 60.3811 Q399.292 60.1645 398.929 60.1645 Q398.748 60.1645 398.596 60.2816 Q398.449 60.3928 398.367 60.5744 Q398.279 60.7617 398.08 61.8216 Q398.016 62.1671 397.957 62.5009 Q397.899 62.8346 397.828 63.186 L398.824 63.186 Q398.953 63.186 399.005 63.1918 Q399.058 63.1977 399.099 63.227 Q399.146 63.2562 399.146 63.3206 Q399.146 63.4846 399.07 63.5256 Q399 63.5607 398.789 63.5607 L397.758 63.5607 L397.038 67.361 Q397.02 67.4723 396.944 67.8236 Q396.874 68.1691 396.704 68.7371 Q396.534 69.3109 396.365 69.6506 Q396.271 69.8438 396.148 70.0253 Q396.031 70.2127 395.861 70.4001 Q395.691 70.5875 395.469 70.6987 Q395.246 70.8158 395.012 70.8158 Q394.614 70.8158 394.303 70.5933 Q393.993 70.3708 393.993 69.9902 Q393.993 69.6681 394.192 69.469 Q394.397 69.2699 394.649 69.2699 Q394.83 69.2699 394.959 69.3812 Q395.094 69.4925 395.094 69.6857 Q395.094 69.7677 395.065 69.8614 Q395.035 69.955 394.971 70.0604 Q394.907 70.1717 394.766 70.2478 Q394.625 70.324 394.432 70.3357 Q394.661 70.5523 395.012 70.5523 Q395.123 70.5523 395.223 70.5055 Q395.322 70.4645 395.404 70.3591 Q395.492 70.2537 395.557 70.1483 Q395.621 70.0487 395.685 69.8555 Q395.75 69.6681 395.791 69.5276 Q395.832 69.3871 395.884 69.1353 Q395.943 68.8835 395.972 68.7312 Q396.002 68.5848 396.054 68.2979 L396.95 63.5607 L396.16 63.5607 Q396.019 63.5607 395.961 63.5549 Q395.908 63.549 395.867 63.5197 Q395.826 63.4846 395.826 63.4143 Q395.826 63.3031 395.873 63.2562 Q395.925 63.2035 395.984 63.1977 Q396.043 63.186 396.183 63.186 L397.015 63.186 Q397.296 61.7045 397.407 61.3063 Q397.536 60.8847 397.735 60.5919 Q397.934 60.2933 398.156 60.1528 Q398.379 60.0122 398.56 59.9595 Q398.748 59.901 398.929 59.901 Q399.339 59.901 399.655 60.1235 Q399.972 60.3401 399.972 60.7266 Z" fill="#000000" fill-rule="evenodd" fill-opacity="1" /><path clip-path="url(#clip880)" d="M 0 0 M400.759 60.3928 Q400.759 60.0942 400.941 59.9712 Q401.122 59.8424 401.316 59.8424 Q401.556 59.8424 401.708 59.9888 Q401.866 60.1293 401.866 60.3928 Q401.866 60.5099 401.854 60.5744 L401.456 64.1931 L401.181 64.1931 L400.771 60.5744 Q400.759 60.5099 400.759 60.3928 Z" fill="#000000" fill-rule="evenodd" fill-opacity="1" /><path clip-path="url(#clip880)" d="M 0 0 M404.059 60.3928 Q404.059 60.0942 404.24 59.9712 Q404.422 59.8424 404.615 59.8424 Q404.855 59.8424 405.007 59.9888 Q405.165 60.1293 405.165 60.3928 Q405.165 60.5099 405.154 60.5744 L404.755 64.1931 L404.48 64.1931 L404.07 60.5744 Q404.059 60.5099 404.059 60.3928 Z" fill="#000000" fill-rule="evenodd" fill-opacity="1" /><polyline clip-path="url(#clip880)" style="stroke:#808080; stroke-width:1; stroke-opacity:1; fill:none" stroke-dasharray="8, 5" points="
  362.152,80.4968 389.444,80.4968 
  "/>
<path clip-path="url(#clip880)" d="M 0 0 M395.399 83.833 L399.479 83.833 L399.479 84.8168 L393.993 84.8168 L393.993 83.833 Q394.659 83.1443 395.804 81.9869 Q396.956 80.8237 397.251 80.4881 Q397.812 79.8573 398.032 79.4233 Q398.258 78.9835 398.258 78.561 Q398.258 77.8724 397.772 77.4383 Q397.292 77.0043 396.516 77.0043 Q395.966 77.0043 395.353 77.1953 Q394.745 77.3863 394.051 77.774 L394.051 76.5934 Q394.757 76.3099 395.37 76.1652 Q395.984 76.0205 396.493 76.0205 Q397.836 76.0205 398.634 76.6918 Q399.433 77.3631 399.433 78.4858 Q399.433 79.0182 399.23 79.4985 Q399.034 79.9731 398.507 80.6212 Q398.362 80.789 397.587 81.5934 Q396.811 82.392 395.399 83.833 Z" fill="#000000" fill-rule="evenodd" fill-opacity="1" /><path clip-path="url(#clip880)" d="M 0 0 M405.984 80.9048 L405.984 84.8168 L404.919 84.8168 L404.919 80.9395 Q404.919 80.0193 404.56 79.5622 Q404.201 79.105 403.484 79.105 Q402.621 79.105 402.124 79.6548 Q401.626 80.2045 401.626 81.1536 L401.626 84.8168 L400.556 84.8168 L400.556 78.3353 L401.626 78.3353 L401.626 79.3423 Q402.008 78.7578 402.523 78.4684 Q403.044 78.1791 403.721 78.1791 Q404.838 78.1791 405.411 78.8735 Q405.984 79.5622 405.984 80.9048 Z" fill="#000000" fill-rule="evenodd" fill-opacity="1" /><path clip-path="url(#clip880)" d="M 0 0 M411.366 79.3191 L411.366 75.8122 L412.43 75.8122 L412.43 84.8168 L411.366 84.8168 L411.366 83.8446 Q411.03 84.4233 410.515 84.7068 Q410.006 84.9846 409.288 84.9846 Q408.113 84.9846 407.373 84.0471 Q406.638 83.1096 406.638 81.5818 Q406.638 80.0541 407.373 79.1166 Q408.113 78.1791 409.288 78.1791 Q410.006 78.1791 410.515 78.4626 Q411.03 78.7404 411.366 79.3191 M407.737 81.5818 Q407.737 82.7566 408.218 83.4279 Q408.704 84.0934 409.549 84.0934 Q410.393 84.0934 410.88 83.4279 Q411.366 82.7566 411.366 81.5818 Q411.366 80.4071 410.88 79.7416 Q410.393 79.0703 409.549 79.0703 Q408.704 79.0703 408.218 79.7416 Q407.737 80.4071 407.737 81.5818 Z" fill="#000000" fill-rule="evenodd" fill-opacity="1" /><path clip-path="url(#clip880)" d="M 0 0 M419.826 79.0819 Q418.97 79.0819 418.472 79.7531 Q417.974 80.4187 417.974 81.5818 Q417.974 82.745 418.466 83.4163 Q418.964 84.0818 419.826 84.0818 Q420.677 84.0818 421.175 83.4105 Q421.672 82.7392 421.672 81.5818 Q421.672 80.4302 421.175 79.7589 Q420.677 79.0819 419.826 79.0819 M419.826 78.1791 Q421.215 78.1791 422.008 79.0819 Q422.801 79.9846 422.801 81.5818 Q422.801 83.1733 422.008 84.0818 Q421.215 84.9846 419.826 84.9846 Q418.432 84.9846 417.639 84.0818 Q416.852 83.1733 416.852 81.5818 Q416.852 79.9846 417.639 79.0819 Q418.432 78.1791 419.826 78.1791 Z" fill="#000000" fill-rule="evenodd" fill-opacity="1" /><path clip-path="url(#clip880)" d="M 0 0 M427.673 79.3307 Q427.494 79.2265 427.28 79.1802 Q427.072 79.1282 426.817 79.1282 Q425.914 79.1282 425.428 79.7184 Q424.948 80.3029 424.948 81.4024 L424.948 84.8168 L423.877 84.8168 L423.877 78.3353 L424.948 78.3353 L424.948 79.3423 Q425.283 78.752 425.822 78.4684 Q426.36 78.1791 427.129 78.1791 Q427.239 78.1791 427.373 78.1964 Q427.506 78.208 427.668 78.237 L427.673 79.3307 Z" fill="#000000" fill-rule="evenodd" fill-opacity="1" /><path clip-path="url(#clip880)" d="M 0 0 M432.847 79.3191 L432.847 75.8122 L433.912 75.8122 L433.912 84.8168 L432.847 84.8168 L432.847 83.8446 Q432.511 84.4233 431.996 84.7068 Q431.487 84.9846 430.769 84.9846 Q429.595 84.9846 428.854 84.0471 Q428.119 83.1096 428.119 81.5818 Q428.119 80.0541 428.854 79.1166 Q429.595 78.1791 430.769 78.1791 Q431.487 78.1791 431.996 78.4626 Q432.511 78.7404 432.847 79.3191 M429.219 81.5818 Q429.219 82.7566 429.699 83.4279 Q430.185 84.0934 431.03 84.0934 Q431.875 84.0934 432.361 83.4279 Q432.847 82.7566 432.847 81.5818 Q432.847 80.4071 432.361 79.7416 Q431.875 79.0703 431.03 79.0703 Q430.185 79.0703 429.699 79.7416 Q429.219 80.4071 429.219 81.5818 Z" fill="#000000" fill-rule="evenodd" fill-opacity="1" /><path clip-path="url(#clip880)" d="M 0 0 M440.573 81.3099 L440.573 81.8307 L435.677 81.8307 Q435.746 82.9302 436.337 83.5089 Q436.933 84.0818 437.992 84.0818 Q438.605 84.0818 439.178 83.9314 Q439.757 83.7809 440.324 83.48 L440.324 84.4869 Q439.751 84.73 439.149 84.8573 Q438.547 84.9846 437.928 84.9846 Q436.377 84.9846 435.469 84.0818 Q434.566 83.1791 434.566 81.6397 Q434.566 80.0483 435.422 79.1166 Q436.285 78.1791 437.743 78.1791 Q439.051 78.1791 439.809 79.024 Q440.573 79.8631 440.573 81.3099 M439.508 80.9974 Q439.496 80.1235 439.016 79.6027 Q438.541 79.0819 437.754 79.0819 Q436.863 79.0819 436.325 79.5853 Q435.793 80.0888 435.712 81.0031 L439.508 80.9974 Z" fill="#000000" fill-rule="evenodd" fill-opacity="1" /><path clip-path="url(#clip880)" d="M 0 0 M445.445 79.3307 Q445.266 79.2265 445.052 79.1802 Q444.843 79.1282 444.589 79.1282 Q443.686 79.1282 443.2 79.7184 Q442.72 80.3029 442.72 81.4024 L442.72 84.8168 L441.649 84.8168 L441.649 78.3353 L442.72 78.3353 L442.72 79.3423 Q443.055 78.752 443.593 78.4684 Q444.132 78.1791 444.901 78.1791 Q445.011 78.1791 445.144 78.1964 Q445.278 78.208 445.44 78.237 L445.445 79.3307 Z" fill="#000000" fill-rule="evenodd" fill-opacity="1" /></svg>
