<?xml version="1.0" encoding="utf-8"?>
<svg xmlns="http://www.w3.org/2000/svg" xmlns:xlink="http://www.w3.org/1999/xlink" width="120" height="75" viewBox="0 0 480 300">
<defs>
  <clipPath id="clip830">
    <rect x="0" y="0" width="480" height="300"/>
  </clipPath>
</defs>
<path clip-path="url(#clip830)" d="
M0 300 L480 300 L480 0 L0 0  Z
  " fill="#ffffff" fill-rule="evenodd" fill-opacity="1"/>
<defs>
  <clipPath id="clip831">
    <rect x="96" y="0" width="337" height="300"/>
  </clipPath>
</defs>
<path clip-path="url(#clip830)" d="
M58.457 244.885 L420.189 244.885 L420.189 41.0603 L58.457 41.0603  Z
  " fill="#ffffff" fill-rule="evenodd" fill-opacity="1"/>
<defs>
  <clipPath id="clip832">
    <rect x="58" y="41" width="363" height="205"/>
  </clipPath>
</defs>
<polyline clip-path="url(#clip832)" style="stroke:#000000; stroke-width:0.5; stroke-opacity:0.1; fill:none" points="
  86.4544,244.885 86.4544,41.0603 
  "/>
<polyline clip-path="url(#clip832)" style="stroke:#000000; stroke-width:0.5; stroke-opacity:0.1; fill:none" points="
  137.411,244.885 137.411,41.0603 
  "/>
<polyline clip-path="url(#clip832)" style="stroke:#000000; stroke-width:0.5; stroke-opacity:0.1; fill:none" points="
  188.367,244.885 188.367,41.0603 
  "/>
<polyline clip-path="url(#clip832)" style="stroke:#000000; stroke-width:0.5; stroke-opacity:0.1; fill:none" points="
  239.323,244.885 239.323,41.0603 
  "/>
<polyline clip-path="url(#clip832)" style="stroke:#000000; stroke-width:0.5; stroke-opacity:0.1; fill:none" points="
  290.279,244.885 290.279,41.0603 
  "/>
<polyline clip-path="url(#clip832)" style="stroke:#000000; stroke-width:0.5; stroke-opacity:0.1; fill:none" points="
  341.235,244.885 341.235,41.0603 
  "/>
<polyline clip-path="url(#clip832)" style="stroke:#000000; stroke-width:0.5; stroke-opacity:0.1; fill:none" points="
  392.192,244.885 392.192,41.0603 
  "/>
<polyline clip-path="url(#clip830)" style="stroke:#000000; stroke-width:1; stroke-opacity:1; fill:none" points="
  58.457,244.885 420.189,244.885 
  "/>
<polyline clip-path="url(#clip830)" style="stroke:#000000; stroke-width:1; stroke-opacity:1; fill:none" points="
  86.4544,244.885 86.4544,242.439 
  "/>
<polyline clip-path="url(#clip830)" style="stroke:#000000; stroke-width:1; stroke-opacity:1; fill:none" points="
  137.411,244.885 137.411,242.439 
  "/>
<polyline clip-path="url(#clip830)" style="stroke:#000000; stroke-width:1; stroke-opacity:1; fill:none" points="
  188.367,244.885 188.367,242.439 
  "/>
<polyline clip-path="url(#clip830)" style="stroke:#000000; stroke-width:1; stroke-opacity:1; fill:none" points="
  239.323,244.885 239.323,242.439 
  "/>
<polyline clip-path="url(#clip830)" style="stroke:#000000; stroke-width:1; stroke-opacity:1; fill:none" points="
  290.279,244.885 290.279,242.439 
  "/>
<polyline clip-path="url(#clip830)" style="stroke:#000000; stroke-width:1; stroke-opacity:1; fill:none" points="
  341.235,244.885 341.235,242.439 
  "/>
<polyline clip-path="url(#clip830)" style="stroke:#000000; stroke-width:1; stroke-opacity:1; fill:none" points="
  392.192,244.885 392.192,242.439 
  "/>
<path clip-path="url(#clip830)" d="M 0 0 M75.025 254.886 L82.444 254.886 L82.444 255.87 L75.025 255.87 L75.025 254.886 Z" fill="#000000" fill-rule="evenodd" fill-opacity="1" /><path clip-path="url(#clip830)" d="M 0 0 M83.9139 258.109 L85.8236 258.109 L85.8236 251.518 L83.7461 251.935 L83.7461 250.87 L85.812 250.453 L86.981 250.453 L86.981 258.109 L88.8907 258.109 L88.8907 259.093 L83.9139 259.093 L83.9139 258.109 Z" fill="#000000" fill-rule="evenodd" fill-opacity="1" /><path clip-path="url(#clip830)" d="M 0 0 M90.1581 257.623 L91.3791 257.623 L91.3791 259.093 L90.1581 259.093 L90.1581 257.623 Z" fill="#000000" fill-rule="evenodd" fill-opacity="1" /><path clip-path="url(#clip830)" d="M 0 0 M92.658 250.453 L97.2471 250.453 L97.2471 251.437 L93.7286 251.437 L93.7286 253.555 Q93.9833 253.468 94.2379 253.428 Q94.4925 253.381 94.7471 253.381 Q96.1939 253.381 97.0388 254.174 Q97.8837 254.967 97.8837 256.321 Q97.8837 257.716 97.0157 258.491 Q96.1476 259.261 94.5678 259.261 Q94.0238 259.261 93.4566 259.168 Q92.8953 259.076 92.2935 258.891 L92.2935 257.716 Q92.8143 257.999 93.3698 258.138 Q93.9254 258.277 94.5446 258.277 Q95.5458 258.277 96.1302 257.751 Q96.7147 257.224 96.7147 256.321 Q96.7147 255.418 96.1302 254.892 Q95.5458 254.365 94.5446 254.365 Q94.0759 254.365 93.6071 254.469 Q93.1441 254.573 92.658 254.793 L92.658 250.453 Z" fill="#000000" fill-rule="evenodd" fill-opacity="1" /><path clip-path="url(#clip830)" d="M 0 0 M125.857 254.886 L133.276 254.886 L133.276 255.87 L125.857 255.87 L125.857 254.886 Z" fill="#000000" fill-rule="evenodd" fill-opacity="1" /><path clip-path="url(#clip830)" d="M 0 0 M134.746 258.109 L136.655 258.109 L136.655 251.518 L134.578 251.935 L134.578 250.87 L136.644 250.453 L137.813 250.453 L137.813 258.109 L139.722 258.109 L139.722 259.093 L134.746 259.093 L134.746 258.109 Z" fill="#000000" fill-rule="evenodd" fill-opacity="1" /><path clip-path="url(#clip830)" d="M 0 0 M140.99 257.623 L142.211 257.623 L142.211 259.093 L140.99 259.093 L140.99 257.623 Z" fill="#000000" fill-rule="evenodd" fill-opacity="1" /><path clip-path="url(#clip830)" d="M 0 0 M145.978 251.223 Q145.075 251.223 144.618 252.114 Q144.167 252.999 144.167 254.782 Q144.167 256.558 144.618 257.45 Q145.075 258.335 145.978 258.335 Q146.887 258.335 147.338 257.45 Q147.795 256.558 147.795 254.782 Q147.795 252.999 147.338 252.114 Q146.887 251.223 145.978 251.223 M145.978 250.297 Q147.431 250.297 148.195 251.448 Q148.964 252.594 148.964 254.782 Q148.964 256.964 148.195 258.115 Q147.431 259.261 145.978 259.261 Q144.526 259.261 143.756 258.115 Q142.992 256.964 142.992 254.782 Q142.992 252.594 143.756 251.448 Q144.526 250.297 145.978 250.297 Z" fill="#000000" fill-rule="evenodd" fill-opacity="1" /><path clip-path="url(#clip830)" d="M 0 0 M176.784 254.886 L184.203 254.886 L184.203 255.87 L176.784 255.87 L176.784 254.886 Z" fill="#000000" fill-rule="evenodd" fill-opacity="1" /><path clip-path="url(#clip830)" d="M 0 0 M187.97 251.223 Q187.068 251.223 186.61 252.114 Q186.159 252.999 186.159 254.782 Q186.159 256.558 186.61 257.45 Q187.068 258.335 187.97 258.335 Q188.879 258.335 189.33 257.45 Q189.787 256.558 189.787 254.782 Q189.787 252.999 189.33 252.114 Q188.879 251.223 187.97 251.223 M187.97 250.297 Q189.423 250.297 190.187 251.448 Q190.956 252.594 190.956 254.782 Q190.956 256.964 190.187 258.115 Q189.423 259.261 187.97 259.261 Q186.518 259.261 185.748 258.115 Q184.984 256.964 184.984 254.782 Q184.984 252.594 185.748 251.448 Q186.518 250.297 187.97 250.297 Z" fill="#000000" fill-rule="evenodd" fill-opacity="1" /><path clip-path="url(#clip830)" d="M 0 0 M192.224 257.623 L193.445 257.623 L193.445 259.093 L192.224 259.093 L192.224 257.623 Z" fill="#000000" fill-rule="evenodd" fill-opacity="1" /><path clip-path="url(#clip830)" d="M 0 0 M194.724 250.453 L199.313 250.453 L199.313 251.437 L195.794 251.437 L195.794 253.555 Q196.049 253.468 196.304 253.428 Q196.558 253.381 196.813 253.381 Q198.26 253.381 199.105 254.174 Q199.949 254.967 199.949 256.321 Q199.949 257.716 199.081 258.491 Q198.213 259.261 196.634 259.261 Q196.09 259.261 195.522 259.168 Q194.961 259.076 194.359 258.891 L194.359 257.716 Q194.88 257.999 195.436 258.138 Q195.991 258.277 196.61 258.277 Q197.612 258.277 198.196 257.751 Q198.781 257.224 198.781 256.321 Q198.781 255.418 198.196 254.892 Q197.612 254.365 196.61 254.365 Q196.142 254.365 195.673 254.469 Q195.21 254.573 194.724 254.793 L194.724 250.453 Z" fill="#000000" fill-rule="evenodd" fill-opacity="1" /><path clip-path="url(#clip830)" d="M 0 0 M234.702 251.223 Q233.799 251.223 233.342 252.114 Q232.891 252.999 232.891 254.782 Q232.891 256.558 233.342 257.45 Q233.799 258.335 234.702 258.335 Q235.611 258.335 236.062 257.45 Q236.519 256.558 236.519 254.782 Q236.519 252.999 236.062 252.114 Q235.611 251.223 234.702 251.223 M234.702 250.297 Q236.155 250.297 236.918 251.448 Q237.688 252.594 237.688 254.782 Q237.688 256.964 236.918 258.115 Q236.155 259.261 234.702 259.261 Q233.25 259.261 232.48 258.115 Q231.716 256.964 231.716 254.782 Q231.716 252.594 232.48 251.448 Q233.25 250.297 234.702 250.297 Z" fill="#000000" fill-rule="evenodd" fill-opacity="1" /><path clip-path="url(#clip830)" d="M 0 0 M238.956 257.623 L240.177 257.623 L240.177 259.093 L238.956 259.093 L238.956 257.623 Z" fill="#000000" fill-rule="evenodd" fill-opacity="1" /><path clip-path="url(#clip830)" d="M 0 0 M243.944 251.223 Q243.041 251.223 242.584 252.114 Q242.133 252.999 242.133 254.782 Q242.133 256.558 242.584 257.45 Q243.041 258.335 243.944 258.335 Q244.852 258.335 245.304 257.45 Q245.761 256.558 245.761 254.782 Q245.761 252.999 245.304 252.114 Q244.852 251.223 243.944 251.223 M243.944 250.297 Q245.396 250.297 246.16 251.448 Q246.93 252.594 246.93 254.782 Q246.93 256.964 246.16 258.115 Q245.396 259.261 243.944 259.261 Q242.491 259.261 241.722 258.115 Q240.958 256.964 240.958 254.782 Q240.958 252.594 241.722 251.448 Q242.491 250.297 243.944 250.297 Z" fill="#000000" fill-rule="evenodd" fill-opacity="1" /><path clip-path="url(#clip830)" d="M 0 0 M285.783 251.223 Q284.88 251.223 284.423 252.114 Q283.971 252.999 283.971 254.782 Q283.971 256.558 284.423 257.45 Q284.88 258.335 285.783 258.335 Q286.691 258.335 287.143 257.45 Q287.6 256.558 287.6 254.782 Q287.6 252.999 287.143 252.114 Q286.691 251.223 285.783 251.223 M285.783 250.297 Q287.235 250.297 287.999 251.448 Q288.769 252.594 288.769 254.782 Q288.769 256.964 287.999 258.115 Q287.235 259.261 285.783 259.261 Q284.33 259.261 283.56 258.115 Q282.797 256.964 282.797 254.782 Q282.797 252.594 283.56 251.448 Q284.33 250.297 285.783 250.297 Z" fill="#000000" fill-rule="evenodd" fill-opacity="1" /><path clip-path="url(#clip830)" d="M 0 0 M290.036 257.623 L291.257 257.623 L291.257 259.093 L290.036 259.093 L290.036 257.623 Z" fill="#000000" fill-rule="evenodd" fill-opacity="1" /><path clip-path="url(#clip830)" d="M 0 0 M292.536 250.453 L297.125 250.453 L297.125 251.437 L293.607 251.437 L293.607 253.555 Q293.861 253.468 294.116 253.428 Q294.371 253.381 294.625 253.381 Q296.072 253.381 296.917 254.174 Q297.762 254.967 297.762 256.321 Q297.762 257.716 296.894 258.491 Q296.026 259.261 294.446 259.261 Q293.902 259.261 293.335 259.168 Q292.773 259.076 292.172 258.891 L292.172 257.716 Q292.692 257.999 293.248 258.138 Q293.803 258.277 294.423 258.277 Q295.424 258.277 296.008 257.751 Q296.593 257.224 296.593 256.321 Q296.593 255.418 296.008 254.892 Q295.424 254.365 294.423 254.365 Q293.954 254.365 293.485 254.469 Q293.022 254.573 292.536 254.793 L292.536 250.453 Z" fill="#000000" fill-rule="evenodd" fill-opacity="1" /><path clip-path="url(#clip830)" d="M 0 0 M334.21 258.109 L336.12 258.109 L336.12 251.518 L334.042 251.935 L334.042 250.87 L336.108 250.453 L337.277 250.453 L337.277 258.109 L339.187 258.109 L339.187 259.093 L334.21 259.093 L334.21 258.109 Z" fill="#000000" fill-rule="evenodd" fill-opacity="1" /><path clip-path="url(#clip830)" d="M 0 0 M340.454 257.623 L341.675 257.623 L341.675 259.093 L340.454 259.093 L340.454 257.623 Z" fill="#000000" fill-rule="evenodd" fill-opacity="1" /><path clip-path="url(#clip830)" d="M 0 0 M345.443 251.223 Q344.54 251.223 344.083 252.114 Q343.631 252.999 343.631 254.782 Q343.631 256.558 344.083 257.45 Q344.54 258.335 345.443 258.335 Q346.351 258.335 346.803 257.45 Q347.26 256.558 347.26 254.782 Q347.26 252.999 346.803 252.114 Q346.351 251.223 345.443 251.223 M345.443 250.297 Q346.895 250.297 347.659 251.448 Q348.429 252.594 348.429 254.782 Q348.429 256.964 347.659 258.115 Q346.895 259.261 345.443 259.261 Q343.99 259.261 343.22 258.115 Q342.456 256.964 342.456 254.782 Q342.456 252.594 343.22 251.448 Q343.99 250.297 345.443 250.297 Z" fill="#000000" fill-rule="evenodd" fill-opacity="1" /><path clip-path="url(#clip830)" d="M 0 0 M385.291 258.109 L387.2 258.109 L387.2 251.518 L385.123 251.935 L385.123 250.87 L387.189 250.453 L388.358 250.453 L388.358 258.109 L390.267 258.109 L390.267 259.093 L385.291 259.093 L385.291 258.109 Z" fill="#000000" fill-rule="evenodd" fill-opacity="1" /><path clip-path="url(#clip830)" d="M 0 0 M391.535 257.623 L392.756 257.623 L392.756 259.093 L391.535 259.093 L391.535 257.623 Z" fill="#000000" fill-rule="evenodd" fill-opacity="1" /><path clip-path="url(#clip830)" d="M 0 0 M394.035 250.453 L398.624 250.453 L398.624 251.437 L395.105 251.437 L395.105 253.555 Q395.36 253.468 395.615 253.428 Q395.869 253.381 396.124 253.381 Q397.571 253.381 398.416 254.174 Q399.26 254.967 399.26 256.321 Q399.26 257.716 398.392 258.491 Q397.524 259.261 395.944 259.261 Q395.401 259.261 394.833 259.168 Q394.272 259.076 393.67 258.891 L393.67 257.716 Q394.191 257.999 394.747 258.138 Q395.302 258.277 395.921 258.277 Q396.922 258.277 397.507 257.751 Q398.091 257.224 398.091 256.321 Q398.091 255.418 397.507 254.892 Q396.922 254.365 395.921 254.365 Q395.453 254.365 394.984 254.469 Q394.521 254.573 394.035 254.793 L394.035 250.453 Z" fill="#000000" fill-rule="evenodd" fill-opacity="1" /><g clip-path="url(#clip830)">
<text style="fill:#000000; fill-opacity:1; font-family:Arial,Helvetica Neue,Helvetica,sans-serif; font-size:16px; text-anchor:middle;" transform="rotate(0, 239.323, 279.936)" x="239.323" y="279.936">x</text>
</g>
<polyline clip-path="url(#clip832)" style="stroke:#000000; stroke-width:0.5; stroke-opacity:0.1; fill:none" points="
  58.457,244.885 420.189,244.885 
  "/>
<polyline clip-path="url(#clip832)" style="stroke:#000000; stroke-width:0.5; stroke-opacity:0.1; fill:none" points="
  58.457,193.929 420.189,193.929 
  "/>
<polyline clip-path="url(#clip832)" style="stroke:#000000; stroke-width:0.5; stroke-opacity:0.1; fill:none" points="
  58.457,142.973 420.189,142.973 
  "/>
<polyline clip-path="url(#clip832)" style="stroke:#000000; stroke-width:0.5; stroke-opacity:0.1; fill:none" points="
  58.457,92.0165 420.189,92.0165 
  "/>
<polyline clip-path="url(#clip832)" style="stroke:#000000; stroke-width:0.5; stroke-opacity:0.1; fill:none" points="
  58.457,41.0603 420.189,41.0603 
  "/>
<polyline clip-path="url(#clip830)" style="stroke:#000000; stroke-width:1; stroke-opacity:1; fill:none" points="
  58.457,244.885 58.457,41.0603 
  "/>
<polyline clip-path="url(#clip830)" style="stroke:#000000; stroke-width:1; stroke-opacity:1; fill:none" points="
  58.457,244.885 62.7978,244.885 
  "/>
<polyline clip-path="url(#clip830)" style="stroke:#000000; stroke-width:1; stroke-opacity:1; fill:none" points="
  58.457,193.929 62.7978,193.929 
  "/>
<polyline clip-path="url(#clip830)" style="stroke:#000000; stroke-width:1; stroke-opacity:1; fill:none" points="
  58.457,142.973 62.7978,142.973 
  "/>
<polyline clip-path="url(#clip830)" style="stroke:#000000; stroke-width:1; stroke-opacity:1; fill:none" points="
  58.457,92.0165 62.7978,92.0165 
  "/>
<polyline clip-path="url(#clip830)" style="stroke:#000000; stroke-width:1; stroke-opacity:1; fill:none" points="
  58.457,41.0603 62.7978,41.0603 
  "/>
<path clip-path="url(#clip830)" d="M 0 0 M28.1495 244.998 L35.5684 244.998 L35.5684 245.982 L28.1495 245.982 L28.1495 244.998 Z" fill="#000000" fill-rule="evenodd" fill-opacity="1" /><path clip-path="url(#clip830)" d="M 0 0 M37.0383 248.221 L38.948 248.221 L38.948 241.63 L36.8705 242.047 L36.8705 240.982 L38.9365 240.565 L40.1054 240.565 L40.1054 248.221 L42.0152 248.221 L42.0152 249.205 L37.0383 249.205 L37.0383 248.221 Z" fill="#000000" fill-rule="evenodd" fill-opacity="1" /><path clip-path="url(#clip830)" d="M 0 0 M43.2825 247.735 L44.5036 247.735 L44.5036 249.205 L43.2825 249.205 L43.2825 247.735 Z" fill="#000000" fill-rule="evenodd" fill-opacity="1" /><path clip-path="url(#clip830)" d="M 0 0 M48.2709 241.335 Q47.3681 241.335 46.911 242.226 Q46.4596 243.111 46.4596 244.894 Q46.4596 246.67 46.911 247.562 Q47.3681 248.447 48.2709 248.447 Q49.1795 248.447 49.6309 247.562 Q50.088 246.67 50.088 244.894 Q50.088 243.111 49.6309 242.226 Q49.1795 241.335 48.2709 241.335 M48.2709 240.409 Q49.7234 240.409 50.4873 241.56 Q51.257 242.706 51.257 244.894 Q51.257 247.076 50.4873 248.227 Q49.7234 249.373 48.2709 249.373 Q46.8184 249.373 46.0487 248.227 Q45.2848 247.076 45.2848 244.894 Q45.2848 242.706 46.0487 241.56 Q46.8184 240.409 48.2709 240.409 Z" fill="#000000" fill-rule="evenodd" fill-opacity="1" /><path clip-path="url(#clip830)" d="M 0 0 M28.0916 194.042 L35.5106 194.042 L35.5106 195.026 L28.0916 195.026 L28.0916 194.042 Z" fill="#000000" fill-rule="evenodd" fill-opacity="1" /><path clip-path="url(#clip830)" d="M 0 0 M39.2779 190.379 Q38.3751 190.379 37.918 191.27 Q37.4666 192.155 37.4666 193.938 Q37.4666 195.714 37.918 196.605 Q38.3751 197.491 39.2779 197.491 Q40.1865 197.491 40.6378 196.605 Q41.095 195.714 41.095 193.938 Q41.095 192.155 40.6378 191.27 Q40.1865 190.379 39.2779 190.379 M39.2779 189.453 Q40.7304 189.453 41.4943 190.604 Q42.264 191.75 42.264 193.938 Q42.264 196.119 41.4943 197.271 Q40.7304 198.417 39.2779 198.417 Q37.8254 198.417 37.0557 197.271 Q36.2918 196.119 36.2918 193.938 Q36.2918 191.75 37.0557 190.604 Q37.8254 189.453 39.2779 189.453 Z" fill="#000000" fill-rule="evenodd" fill-opacity="1" /><path clip-path="url(#clip830)" d="M 0 0 M43.5314 196.779 L44.7524 196.779 L44.7524 198.249 L43.5314 198.249 L43.5314 196.779 Z" fill="#000000" fill-rule="evenodd" fill-opacity="1" /><path clip-path="url(#clip830)" d="M 0 0 M46.0313 189.609 L50.6204 189.609 L50.6204 190.593 L47.1019 190.593 L47.1019 192.711 Q47.3566 192.624 47.6112 192.583 Q47.8658 192.537 48.1204 192.537 Q49.5672 192.537 50.4121 193.33 Q51.257 194.123 51.257 195.477 Q51.257 196.872 50.389 197.647 Q49.5209 198.417 47.9411 198.417 Q47.3971 198.417 46.8299 198.324 Q46.2686 198.232 45.6668 198.046 L45.6668 196.872 Q46.1876 197.155 46.7431 197.294 Q47.2987 197.433 47.9179 197.433 Q48.9191 197.433 49.5035 196.906 Q50.088 196.38 50.088 195.477 Q50.088 194.574 49.5035 194.048 Q48.9191 193.521 47.9179 193.521 Q47.4492 193.521 46.9804 193.625 Q46.5174 193.729 46.0313 193.949 L46.0313 189.609 Z" fill="#000000" fill-rule="evenodd" fill-opacity="1" /><path clip-path="url(#clip830)" d="M 0 0 M39.0291 139.422 Q38.1263 139.422 37.6691 140.314 Q37.2177 141.199 37.2177 142.981 Q37.2177 144.758 37.6691 145.649 Q38.1263 146.535 39.0291 146.535 Q39.9376 146.535 40.389 145.649 Q40.8462 144.758 40.8462 142.981 Q40.8462 141.199 40.389 140.314 Q39.9376 139.422 39.0291 139.422 M39.0291 138.496 Q40.4816 138.496 41.2455 139.648 Q42.0152 140.794 42.0152 142.981 Q42.0152 145.163 41.2455 146.315 Q40.4816 147.461 39.0291 147.461 Q37.5765 147.461 36.8069 146.315 Q36.043 145.163 36.043 142.981 Q36.043 140.794 36.8069 139.648 Q37.5765 138.496 39.0291 138.496 Z" fill="#000000" fill-rule="evenodd" fill-opacity="1" /><path clip-path="url(#clip830)" d="M 0 0 M43.2825 145.823 L44.5036 145.823 L44.5036 147.293 L43.2825 147.293 L43.2825 145.823 Z" fill="#000000" fill-rule="evenodd" fill-opacity="1" /><path clip-path="url(#clip830)" d="M 0 0 M48.2709 139.422 Q47.3681 139.422 46.911 140.314 Q46.4596 141.199 46.4596 142.981 Q46.4596 144.758 46.911 145.649 Q47.3681 146.535 48.2709 146.535 Q49.1795 146.535 49.6309 145.649 Q50.088 144.758 50.088 142.981 Q50.088 141.199 49.6309 140.314 Q49.1795 139.422 48.2709 139.422 M48.2709 138.496 Q49.7234 138.496 50.4873 139.648 Q51.257 140.794 51.257 142.981 Q51.257 145.163 50.4873 146.315 Q49.7234 147.461 48.2709 147.461 Q46.8184 147.461 46.0487 146.315 Q45.2848 145.163 45.2848 142.981 Q45.2848 140.794 46.0487 139.648 Q46.8184 138.496 48.2709 138.496 Z" fill="#000000" fill-rule="evenodd" fill-opacity="1" /><path clip-path="url(#clip830)" d="M 0 0 M39.2779 88.4662 Q38.3751 88.4662 37.918 89.3574 Q37.4666 90.2428 37.4666 92.0252 Q37.4666 93.8018 37.918 94.693 Q38.3751 95.5784 39.2779 95.5784 Q40.1865 95.5784 40.6378 94.693 Q41.095 93.8018 41.095 92.0252 Q41.095 90.2428 40.6378 89.3574 Q40.1865 88.4662 39.2779 88.4662 M39.2779 87.5402 Q40.7304 87.5402 41.4943 88.6919 Q42.264 89.8377 42.264 92.0252 Q42.264 94.2069 41.4943 95.3585 Q40.7304 96.5043 39.2779 96.5043 Q37.8254 96.5043 37.0557 95.3585 Q36.2918 94.2069 36.2918 92.0252 Q36.2918 89.8377 37.0557 88.6919 Q37.8254 87.5402 39.2779 87.5402 Z" fill="#000000" fill-rule="evenodd" fill-opacity="1" /><path clip-path="url(#clip830)" d="M 0 0 M43.5314 94.8666 L44.7524 94.8666 L44.7524 96.3365 L43.5314 96.3365 L43.5314 94.8666 Z" fill="#000000" fill-rule="evenodd" fill-opacity="1" /><path clip-path="url(#clip830)" d="M 0 0 M46.0313 87.6965 L50.6204 87.6965 L50.6204 88.6803 L47.1019 88.6803 L47.1019 90.7983 Q47.3566 90.7115 47.6112 90.671 Q47.8658 90.6247 48.1204 90.6247 Q49.5672 90.6247 50.4121 91.4175 Q51.257 92.2104 51.257 93.5645 Q51.257 94.9592 50.389 95.7346 Q49.5209 96.5043 47.9411 96.5043 Q47.3971 96.5043 46.8299 96.4117 Q46.2686 96.3191 45.6668 96.134 L45.6668 94.9592 Q46.1876 95.2428 46.7431 95.3816 Q47.2987 95.5205 47.9179 95.5205 Q48.9191 95.5205 49.5035 94.9939 Q50.088 94.4673 50.088 93.5645 Q50.088 92.6617 49.5035 92.1351 Q48.9191 91.6085 47.9179 91.6085 Q47.4492 91.6085 46.9804 91.7127 Q46.5174 91.8168 46.0313 92.0368 L46.0313 87.6965 Z" fill="#000000" fill-rule="evenodd" fill-opacity="1" /><path clip-path="url(#clip830)" d="M 0 0 M37.0383 44.3965 L38.948 44.3965 L38.948 37.8051 L36.8705 38.2218 L36.8705 37.157 L38.9365 36.7403 L40.1054 36.7403 L40.1054 44.3965 L42.0152 44.3965 L42.0152 45.3803 L37.0383 45.3803 L37.0383 44.3965 Z" fill="#000000" fill-rule="evenodd" fill-opacity="1" /><path clip-path="url(#clip830)" d="M 0 0 M43.2825 43.9104 L44.5036 43.9104 L44.5036 45.3803 L43.2825 45.3803 L43.2825 43.9104 Z" fill="#000000" fill-rule="evenodd" fill-opacity="1" /><path clip-path="url(#clip830)" d="M 0 0 M48.2709 37.51 Q47.3681 37.51 46.911 38.4012 Q46.4596 39.2866 46.4596 41.069 Q46.4596 42.8456 46.911 43.7368 Q47.3681 44.6222 48.2709 44.6222 Q49.1795 44.6222 49.6309 43.7368 Q50.088 42.8456 50.088 41.069 Q50.088 39.2866 49.6309 38.4012 Q49.1795 37.51 48.2709 37.51 M48.2709 36.584 Q49.7234 36.584 50.4873 37.7357 Q51.257 38.8815 51.257 41.069 Q51.257 43.2507 50.4873 44.4023 Q49.7234 45.5481 48.2709 45.5481 Q46.8184 45.5481 46.0487 44.4023 Q45.2848 43.2507 45.2848 41.069 Q45.2848 38.8815 46.0487 37.7357 Q46.8184 36.584 48.2709 36.584 Z" fill="#000000" fill-rule="evenodd" fill-opacity="1" /><g clip-path="url(#clip830)">
<text style="fill:#000000; fill-opacity:1; font-family:Arial,Helvetica Neue,Helvetica,sans-serif; font-size:16px; text-anchor:middle;" transform="rotate(-90, 18.0011, 142.973)" x="18.0011" y="142.973">y</text>
</g>
<g clip-path="url(#clip830)">
<text style="fill:#000000; fill-opacity:1; font-family:Arial,Helvetica Neue,Helvetica,sans-serif; font-size:18px; font-weight:bold; text-anchor:middle;" transform="rotate(0, 239.323, 15.6)" x="239.323" y="15.6">Initial condition</text>
</g>
<polyline clip-path="url(#clip832)" style="stroke:#471669; stroke-width:2; stroke-opacity:1; fill:none" points="
  147.378,239.789 147.602,239.893 152.697,241.293 157.793,241.977 162.889,242.374 167.984,242.626 173.08,242.795 178.176,242.913 183.271,242.995 188.367,243.054 
  193.462,243.095 198.558,243.123 203.654,243.142 208.749,243.154 213.845,243.161 218.941,243.165 224.036,243.167 229.132,243.168 234.227,243.168 239.323,243.168 
  244.419,243.168 249.514,243.168 254.61,243.167 259.705,243.165 264.801,243.161 269.897,243.154 274.992,243.142 280.088,243.123 285.184,243.095 290.279,243.054 
  295.375,242.995 300.47,242.913 305.566,242.795 310.662,242.626 315.757,242.374 320.853,241.977 325.949,241.293 331.044,239.893 331.268,239.789 336.14,234.918 
  336.243,234.694 337.643,229.598 338.327,224.503 338.724,219.407 338.976,214.311 339.145,209.216 339.263,204.12 339.346,199.025 339.404,193.929 339.445,188.833 
  339.473,183.738 339.492,178.642 339.504,173.546 339.512,168.451 339.516,163.355 339.518,158.26 339.518,153.164 339.518,148.068 339.518,142.973 339.518,137.877 
  339.518,132.781 339.518,127.686 339.516,122.59 339.512,117.495 339.504,112.399 339.492,107.303 339.473,102.208 339.445,97.1121 339.404,92.0165 339.346,86.9209 
  339.263,81.8253 339.145,76.7296 338.976,71.634 338.724,66.5384 338.327,61.4428 337.643,56.3472 336.243,51.2515 336.14,51.0276 331.268,46.1559 331.044,46.0528 
  325.949,44.6522 320.853,43.9683 315.757,43.5719 310.662,43.3197 305.566,43.1503 300.47,43.0328 295.375,42.9501 290.279,42.8917 285.184,42.8506 280.088,42.8223 
  274.992,42.8034 269.897,42.7912 264.801,42.7839 259.705,42.78 254.61,42.7781 249.514,42.7774 244.419,42.7772 239.323,42.7772 234.227,42.7772 229.132,42.7774 
  224.036,42.7781 218.941,42.78 213.845,42.7839 208.749,42.7912 203.654,42.8034 198.558,42.8223 193.462,42.8506 188.367,42.8917 183.271,42.9501 178.176,43.0328 
  173.08,43.1503 167.984,43.3197 162.889,43.5719 157.793,43.9683 152.697,44.6522 147.602,46.0528 147.378,46.1559 142.506,51.0276 142.403,51.2515 141.002,56.3472 
  140.319,61.4428 139.922,66.5384 139.67,71.634 139.501,76.7296 139.383,81.8253 139.3,86.9209 139.242,92.0165 139.201,97.1121 139.173,102.208 139.154,107.303 
  139.142,112.399 139.134,117.495 139.13,122.59 139.128,127.686 139.128,132.781 139.127,137.877 139.127,142.973 139.127,148.068 139.128,153.164 139.128,158.26 
  139.13,163.355 139.134,168.451 139.142,173.546 139.154,178.642 139.173,183.738 139.201,188.833 139.242,193.929 139.3,199.025 139.383,204.12 139.501,209.216 
  139.67,214.311 139.922,219.407 140.319,224.503 141.002,229.598 142.403,234.694 142.506,234.918 147.378,239.789 
  "/>
<polyline clip-path="url(#clip832)" style="stroke:#472b7a; stroke-width:2; stroke-opacity:1; fill:none" points="
  148.346,234.694 152.697,237.344 157.793,238.946 162.357,239.789 162.889,239.862 167.984,240.366 173.08,240.705 178.176,240.94 183.271,241.105 188.367,241.222 
  193.462,241.304 198.558,241.361 203.654,241.399 208.749,241.423 213.845,241.438 218.941,241.446 224.036,241.45 229.132,241.451 234.227,241.451 239.323,241.451 
  244.419,241.451 249.514,241.451 254.61,241.45 259.705,241.446 264.801,241.438 269.897,241.423 274.992,241.399 280.088,241.361 285.184,241.304 290.279,241.222 
  295.375,241.105 300.47,240.94 305.566,240.705 310.662,240.366 315.757,239.862 316.289,239.789 320.853,238.946 325.949,237.344 330.3,234.694 331.044,233.95 
  333.694,229.598 335.296,224.503 336.14,219.938 336.212,219.407 336.717,214.311 337.055,209.216 337.29,204.12 337.456,199.025 337.573,193.929 337.655,188.833 
  337.711,183.738 337.749,178.642 337.774,173.546 337.788,168.451 337.796,163.355 337.8,158.26 337.801,153.164 337.802,148.068 337.802,142.973 337.802,137.877 
  337.801,132.781 337.8,127.686 337.796,122.59 337.788,117.495 337.774,112.399 337.749,107.303 337.711,102.208 337.655,97.1121 337.573,92.0165 337.456,86.9209 
  337.29,81.8253 337.055,76.7296 336.717,71.634 336.212,66.5384 336.14,66.0071 335.296,61.4428 333.694,56.3472 331.044,51.9955 330.3,51.2515 325.949,48.6012 
  320.853,46.9996 316.289,46.1559 315.757,46.0835 310.662,45.5791 305.566,45.2403 300.47,45.0054 295.375,44.84 290.279,44.723 285.184,44.6409 280.088,44.5843 
  274.992,44.5464 269.897,44.5222 264.801,44.5076 259.705,44.4996 254.61,44.4959 249.514,44.4945 244.419,44.4941 239.323,44.4941 234.227,44.4941 229.132,44.4945 
  224.036,44.4959 218.941,44.4996 213.845,44.5076 208.749,44.5222 203.654,44.5464 198.558,44.5843 193.462,44.6409 188.367,44.723 183.271,44.84 178.176,45.0054 
  173.08,45.2403 167.984,45.5791 162.889,46.0835 162.357,46.1559 157.793,46.9996 152.697,48.6012 148.346,51.2515 147.602,51.9955 144.951,56.3472 143.35,61.4428 
  142.506,66.0071 142.434,66.5384 141.929,71.634 141.591,76.7296 141.356,81.8253 141.19,86.9209 141.073,92.0165 140.991,97.1121 140.935,102.208 140.897,107.303 
  140.872,112.399 140.858,117.495 140.85,122.59 140.846,127.686 140.845,132.781 140.844,137.877 140.844,142.973 140.844,148.068 140.845,153.164 140.846,158.26 
  140.85,163.355 140.858,168.451 140.872,173.546 140.897,178.642 140.935,183.738 140.991,188.833 141.073,193.929 141.19,199.025 141.356,204.12 141.591,209.216 
  141.929,214.311 142.434,219.407 142.506,219.938 143.35,224.503 144.951,229.598 147.602,233.95 148.346,234.694 
  "/>
<polyline clip-path="url(#clip832)" style="stroke:#423e85; stroke-width:2; stroke-opacity:1; fill:none" points="
  155.745,234.694 157.793,235.54 162.889,236.933 167.984,237.819 173.08,238.414 178.176,238.827 183.271,239.117 188.367,239.323 193.462,239.467 198.558,239.566 
  203.654,239.633 208.749,239.676 213.845,239.701 218.941,239.715 224.036,239.722 229.132,239.724 234.227,239.725 239.323,239.725 244.419,239.725 249.514,239.724 
  254.61,239.722 259.705,239.715 264.801,239.701 269.897,239.676 274.992,239.633 280.088,239.566 285.184,239.467 290.279,239.323 295.375,239.117 300.47,238.827 
  305.566,238.414 310.662,237.819 315.757,236.933 320.853,235.54 322.901,234.694 325.949,232.856 329.206,229.598 331.044,226.551 331.891,224.503 333.284,219.407 
  334.17,214.311 334.765,209.216 335.177,204.12 335.468,199.025 335.673,193.929 335.817,188.833 335.917,183.738 335.983,178.642 336.026,173.546 336.052,168.451 
  336.066,163.355 336.072,158.26 336.075,153.164 336.075,148.068 336.075,142.973 336.075,137.877 336.075,132.781 336.072,127.686 336.066,122.59 336.052,117.495 
  336.026,112.399 335.983,107.303 335.917,102.208 335.817,97.1121 335.673,92.0165 335.468,86.9209 335.177,81.8253 334.765,76.7296 334.17,71.634 333.284,66.5384 
  331.891,61.4428 331.044,59.3945 329.206,56.3472 325.949,53.0894 322.901,51.2515 320.853,50.4049 315.757,49.0122 310.662,48.1262 305.566,47.5311 300.47,47.1185 
  295.375,46.828 290.279,46.6225 285.184,46.4784 280.088,46.3789 274.992,46.3123 269.897,46.2697 264.801,46.2441 259.705,46.2301 254.61,46.2235 249.514,46.2211 
  244.419,46.2205 239.323,46.2204 234.227,46.2205 229.132,46.2211 224.036,46.2235 218.941,46.2301 213.845,46.2441 208.749,46.2697 203.654,46.3123 198.558,46.3789 
  193.462,46.4784 188.367,46.6225 183.271,46.828 178.176,47.1185 173.08,47.5311 167.984,48.1262 162.889,49.0122 157.793,50.4049 155.745,51.2515 152.697,53.0894 
  149.44,56.3472 147.602,59.3945 146.755,61.4428 145.362,66.5384 144.476,71.634 143.881,76.7296 143.469,81.8253 143.178,86.9209 142.973,92.0165 142.829,97.1121 
  142.729,102.208 142.663,107.303 142.62,112.399 142.594,117.495 142.58,122.59 142.574,127.686 142.571,132.781 142.571,137.877 142.571,142.973 142.571,148.068 
  142.571,153.164 142.574,158.26 142.58,163.355 142.594,168.451 142.62,173.546 142.663,178.642 142.729,183.738 142.829,188.833 142.973,193.929 143.178,199.025 
  143.469,204.12 143.881,209.216 144.476,214.311 145.362,219.407 146.755,224.503 147.602,226.551 149.44,229.598 152.697,232.856 155.745,234.694 
  "/>
<polyline clip-path="url(#clip832)" style="stroke:#3b518a; stroke-width:2; stroke-opacity:1; fill:none" points="
  157.793,231.671 154.739,229.598 152.697,227.557 150.624,224.503 148.431,219.407 147.602,216.511 147.122,214.311 146.329,209.216 145.779,204.12 145.391,199.025 
  145.117,193.929 144.925,188.833 144.793,183.738 144.704,178.642 144.647,173.546 144.613,168.451 144.594,163.355 144.585,158.26 144.582,153.164 144.581,148.068 
  144.581,142.973 144.581,137.877 144.582,132.781 144.585,127.686 144.594,122.59 144.613,117.495 144.647,112.399 144.704,107.303 144.793,102.208 144.925,97.1121 
  145.117,92.0165 145.391,86.9209 145.779,81.8253 146.329,76.7296 147.122,71.634 147.602,69.434 148.431,66.5384 150.624,61.4428 152.697,58.3883 154.739,56.3472 
  157.793,54.2742 162.889,52.0805 165.784,51.2515 167.984,50.7719 173.08,49.9784 178.176,49.4284 183.271,49.041 188.367,48.7671 193.462,48.5748 198.558,48.4422 
  203.654,48.3535 208.749,48.2966 213.845,48.2625 218.941,48.2438 224.036,48.235 229.132,48.2318 234.227,48.231 239.323,48.231 244.419,48.231 249.514,48.2318 
  254.61,48.235 259.705,48.2438 264.801,48.2625 269.897,48.2966 274.992,48.3535 280.088,48.4422 285.184,48.5748 290.279,48.7671 295.375,49.041 300.47,49.4284 
  305.566,49.9784 310.662,50.7719 312.862,51.2515 315.757,52.0805 320.853,54.2742 323.907,56.3472 325.949,58.3883 328.022,61.4428 330.215,66.5384 331.044,69.434 
  331.524,71.634 332.317,76.7296 332.867,81.8253 333.255,86.9209 333.529,92.0165 333.721,97.1121 333.853,102.208 333.942,107.303 333.999,112.399 334.033,117.495 
  334.052,122.59 334.061,127.686 334.064,132.781 334.065,137.877 334.065,142.973 334.065,148.068 334.064,153.164 334.061,158.26 334.052,163.355 334.033,168.451 
  333.999,173.546 333.942,178.642 333.853,183.738 333.721,188.833 333.529,193.929 333.255,199.025 332.867,204.12 332.317,209.216 331.524,214.311 331.044,216.511 
  330.215,219.407 328.022,224.503 325.949,227.557 323.907,229.598 320.853,231.671 315.757,233.865 312.862,234.694 310.662,235.173 305.566,235.967 300.47,236.517 
  295.375,236.904 290.279,237.178 285.184,237.371 280.088,237.503 274.992,237.592 269.897,237.649 264.801,237.683 259.705,237.702 254.61,237.71 249.514,237.714 
  244.419,237.714 239.323,237.714 234.227,237.714 229.132,237.714 224.036,237.71 218.941,237.702 213.845,237.683 208.749,237.649 203.654,237.592 198.558,237.503 
  193.462,237.371 188.367,237.178 183.271,236.904 178.176,236.517 173.08,235.967 167.984,235.173 165.784,234.694 162.889,233.865 157.793,231.671 
  "/>
<polyline clip-path="url(#clip832)" style="stroke:#33618d; stroke-width:2; stroke-opacity:1; fill:none" points="
  162.889,230.391 161.258,229.598 157.793,227.272 155.023,224.503 152.697,221.037 151.905,219.407 150.161,214.311 148.989,209.216 148.177,204.12 147.605,199.025 
  147.602,198.989 147.262,193.929 147.022,188.833 146.856,183.738 146.745,178.642 146.674,173.546 146.631,168.451 146.608,163.355 146.597,158.26 146.593,153.164 
  146.592,148.068 146.592,142.973 146.592,137.877 146.593,132.781 146.597,127.686 146.608,122.59 146.631,117.495 146.674,112.399 146.745,107.303 146.856,102.208 
  147.022,97.1121 147.262,92.0165 147.602,86.9561 147.605,86.9209 148.177,81.8253 148.989,76.7296 150.161,71.634 151.905,66.5384 152.697,64.9079 155.023,61.4428 
  157.793,58.6731 161.258,56.3472 162.889,55.5548 167.984,53.8104 173.08,52.6387 178.176,51.8265 183.271,51.2544 183.306,51.2515 188.367,50.9116 193.462,50.6713 
  198.558,50.5056 203.654,50.3946 208.749,50.3235 213.845,50.2809 218.941,50.2576 224.036,50.2465 229.132,50.2425 234.227,50.2415 239.323,50.2415 244.419,50.2415 
  249.514,50.2425 254.61,50.2465 259.705,50.2576 264.801,50.2809 269.897,50.3235 274.992,50.3946 280.088,50.5056 285.184,50.6713 290.279,50.9116 295.34,51.2515 
  295.375,51.2544 300.47,51.8265 305.566,52.6387 310.662,53.8104 315.757,55.5548 317.388,56.3472 320.853,58.6731 323.623,61.4428 325.949,64.9079 326.741,66.5384 
  328.485,71.634 329.657,76.7296 330.469,81.8253 331.041,86.9209 331.044,86.9561 331.384,92.0165 331.624,97.1121 331.79,102.208 331.901,107.303 331.972,112.399 
  332.015,117.495 332.038,122.59 332.049,127.686 332.053,132.781 332.054,137.877 332.054,142.973 332.054,148.068 332.053,153.164 332.049,158.26 332.038,163.355 
  332.015,168.451 331.972,173.546 331.901,178.642 331.79,183.738 331.624,188.833 331.384,193.929 331.044,198.989 331.041,199.025 330.469,204.12 329.657,209.216 
  328.485,214.311 326.741,219.407 325.949,221.037 323.623,224.503 320.853,227.272 317.388,229.598 315.757,230.391 310.662,232.135 305.566,233.307 300.47,234.119 
  295.375,234.691 295.34,234.694 290.279,235.034 285.184,235.274 280.088,235.44 274.992,235.551 269.897,235.622 264.801,235.665 259.705,235.688 254.61,235.699 
  249.514,235.703 244.419,235.704 239.323,235.704 234.227,235.704 229.132,235.703 224.036,235.699 218.941,235.688 213.845,235.665 208.749,235.622 203.654,235.551 
  198.558,235.44 193.462,235.274 188.367,235.034 183.306,234.694 183.271,234.691 178.176,234.119 173.08,233.307 167.984,232.135 162.889,230.391 
  "/>
<polyline clip-path="url(#clip832)" style="stroke:#2c718e; stroke-width:2; stroke-opacity:1; fill:none" points="
  170.022,229.598 173.08,230.416 178.176,231.39 183.271,232.077 188.367,232.562 193.462,232.903 198.558,233.138 203.654,233.295 208.749,233.396 213.845,233.456 
  218.941,233.489 224.036,233.505 229.132,233.511 234.227,233.512 239.323,233.512 244.419,233.512 249.514,233.511 254.61,233.505 259.705,233.489 264.801,233.456 
  269.897,233.396 274.992,233.295 280.088,233.138 285.184,232.903 290.279,232.562 295.375,232.077 300.47,231.39 305.566,230.416 308.624,229.598 310.662,228.896 
  315.757,226.399 318.405,224.503 320.853,222.055 322.749,219.407 325.246,214.311 325.949,212.274 326.766,209.216 327.741,204.12 328.427,199.025 328.912,193.929 
  329.253,188.833 329.488,183.738 329.645,178.642 329.746,173.546 329.806,168.451 329.84,163.355 329.855,158.26 329.861,153.164 329.862,148.068 329.862,142.973 
  329.862,137.877 329.861,132.781 329.855,127.686 329.84,122.59 329.806,117.495 329.746,112.399 329.645,107.303 329.488,102.208 329.253,97.1121 328.912,92.0165 
  328.427,86.9209 327.741,81.8253 326.766,76.7296 325.949,73.6716 325.246,71.634 322.749,66.5384 320.853,63.8903 318.405,61.4428 315.757,59.5466 310.662,57.0494 
  308.624,56.3472 305.566,55.5298 300.47,54.5552 295.375,53.8687 290.279,53.3834 285.184,53.0427 280.088,52.8077 274.992,52.6504 269.897,52.5497 264.801,52.4892 
  259.705,52.4562 254.61,52.4406 249.514,52.4348 244.419,52.4334 239.323,52.4333 234.227,52.4334 229.132,52.4348 224.036,52.4406 218.941,52.4562 213.845,52.4892 
  208.749,52.5497 203.654,52.6504 198.558,52.8077 193.462,53.0427 188.367,53.3834 183.271,53.8687 178.176,54.5552 173.08,55.5298 170.022,56.3472 167.984,57.0494 
  162.889,59.5466 160.241,61.4428 157.793,63.8903 155.897,66.5384 153.4,71.634 152.697,73.6716 151.88,76.7296 150.905,81.8253 150.219,86.9209 149.734,92.0165 
  149.393,97.1121 149.158,102.208 149.001,107.303 148.9,112.399 148.84,117.495 148.806,122.59 148.791,127.686 148.785,132.781 148.784,137.877 148.784,142.973 
  148.784,148.068 148.785,153.164 148.791,158.26 148.806,163.355 148.84,168.451 148.9,173.546 149.001,178.642 149.158,183.738 149.393,188.833 149.734,193.929 
  150.219,199.025 150.905,204.12 151.88,209.216 152.697,212.274 153.4,214.311 155.897,219.407 157.793,222.055 160.241,224.503 162.889,226.399 167.984,228.896 
  170.022,229.598 
  "/>
<polyline clip-path="url(#clip832)" style="stroke:#26808e; stroke-width:2; stroke-opacity:1; fill:none" points="
  167.984,225.167 166.724,224.503 162.889,221.791 160.505,219.407 157.793,215.572 157.128,214.311 155.171,209.216 153.815,204.12 152.859,199.025 152.697,197.832 
  152.267,193.929 151.87,188.833 151.595,183.738 151.412,178.642 151.294,173.546 151.224,168.451 151.185,163.355 151.167,158.26 151.16,153.164 151.159,148.068 
  151.159,142.973 151.159,137.877 151.16,132.781 151.167,127.686 151.185,122.59 151.224,117.495 151.294,112.399 151.412,107.303 151.595,102.208 151.87,97.1121 
  152.267,92.0165 152.697,88.1137 152.859,86.9209 153.815,81.8253 155.171,76.7296 157.128,71.634 157.793,70.3734 160.505,66.5384 162.889,64.1548 166.724,61.4428 
  167.984,60.7779 173.08,58.8211 178.176,57.4645 183.271,56.5091 184.464,56.3472 188.367,55.9167 193.462,55.5193 198.558,55.2452 203.654,55.0617 208.749,54.9441 
  213.845,54.8736 218.941,54.835 224.036,54.8168 229.132,54.81 234.227,54.8085 239.323,54.8084 244.419,54.8085 249.514,54.81 254.61,54.8168 259.705,54.835 
  264.801,54.8736 269.897,54.9441 274.992,55.0617 280.088,55.2452 285.184,55.5193 290.279,55.9167 294.182,56.3472 295.375,56.5091 300.47,57.4645 305.566,58.8211 
  310.662,60.7779 311.922,61.4428 315.757,64.1548 318.141,66.5384 320.853,70.3734 321.518,71.634 323.475,76.7296 324.831,81.8253 325.787,86.9209 325.949,88.1137 
  326.379,92.0165 326.776,97.1121 327.051,102.208 327.234,107.303 327.352,112.399 327.422,117.495 327.461,122.59 327.479,127.686 327.486,132.781 327.487,137.877 
  327.487,142.973 327.487,148.068 327.486,153.164 327.479,158.26 327.461,163.355 327.422,168.451 327.352,173.546 327.234,178.642 327.051,183.738 326.776,188.833 
  326.379,193.929 325.949,197.832 325.787,199.025 324.831,204.12 323.475,209.216 321.518,214.311 320.853,215.572 318.141,219.407 315.757,221.791 311.922,224.503 
  310.662,225.167 305.566,227.124 300.47,228.481 295.375,229.436 294.182,229.598 290.279,230.029 285.184,230.426 280.088,230.7 274.992,230.884 269.897,231.001 
  264.801,231.072 259.705,231.11 254.61,231.129 249.514,231.135 244.419,231.137 239.323,231.137 234.227,231.137 229.132,231.135 224.036,231.129 218.941,231.11 
  213.845,231.072 208.749,231.001 203.654,230.884 198.558,230.7 193.462,230.426 188.367,230.029 184.464,229.598 183.271,229.436 178.176,228.481 173.08,227.124 
  167.984,225.167 
  "/>
<polyline clip-path="url(#clip832)" style="stroke:#208f8c; stroke-width:2; stroke-opacity:1; fill:none" points="
  175.725,224.503 178.176,225.226 183.271,226.318 188.367,227.09 193.462,227.631 198.558,228.005 203.654,228.255 208.749,228.416 213.845,228.512 218.941,228.564 
  224.036,228.589 229.132,228.598 234.227,228.601 239.323,228.601 244.419,228.601 249.514,228.598 254.61,228.589 259.705,228.564 264.801,228.512 269.897,228.416 
  274.992,228.255 280.088,228.005 285.184,227.631 290.279,227.09 295.375,226.318 300.47,225.226 302.921,224.503 305.566,223.505 310.662,220.807 312.563,219.407 
  315.757,216.213 317.158,214.311 319.855,209.216 320.853,206.57 321.576,204.12 322.668,199.025 323.44,193.929 323.982,188.833 324.355,183.738 324.606,178.642 
  324.766,173.546 324.862,168.451 324.915,163.355 324.939,158.26 324.949,153.164 324.951,148.068 324.951,142.973 324.951,137.877 324.949,132.781 324.939,127.686 
  324.915,122.59 324.862,117.495 324.766,112.399 324.606,107.303 324.355,102.208 323.982,97.1121 323.44,92.0165 322.668,86.9209 321.576,81.8253 320.853,79.375 
  319.855,76.7296 317.158,71.634 315.757,69.7327 312.563,66.5384 310.662,65.138 305.566,62.4405 302.921,61.4428 300.47,60.7197 295.375,59.6277 290.279,58.8558 
  285.184,58.3139 280.088,57.9402 274.992,57.6901 269.897,57.5298 264.801,57.4336 259.705,57.3811 254.61,57.3562 249.514,57.347 244.419,57.3449 239.323,57.3447 
  234.227,57.3449 229.132,57.347 224.036,57.3562 218.941,57.3811 213.845,57.4336 208.749,57.5298 203.654,57.6901 198.558,57.9402 193.462,58.3139 188.367,58.8558 
  183.271,59.6277 178.176,60.7197 175.725,61.4428 173.08,62.4405 167.984,65.138 166.083,66.5384 162.889,69.7327 161.488,71.634 158.791,76.7296 157.793,79.375 
  157.07,81.8253 155.978,86.9209 155.206,92.0165 154.664,97.1121 154.291,102.208 154.04,107.303 153.88,112.399 153.784,117.495 153.731,122.59 153.707,127.686 
  153.697,132.781 153.695,137.877 153.695,142.973 153.695,148.068 153.697,153.164 153.707,158.26 153.731,163.355 153.784,168.451 153.88,173.546 154.04,178.642 
  154.291,183.738 154.664,188.833 155.206,193.929 155.978,199.025 157.07,204.12 157.793,206.57 158.791,209.216 161.488,214.311 162.889,216.213 166.083,219.407 
  167.984,220.807 173.08,223.505 175.725,224.503 
  "/>
<polyline clip-path="url(#clip832)" style="stroke:#1e9e88; stroke-width:2; stroke-opacity:1; fill:none" points="
  178.176,221.449 173.222,219.407 173.08,219.331 167.984,215.625 166.671,214.311 162.964,209.216 162.889,209.074 160.847,204.12 159.365,199.025 158.318,193.929 
  157.793,190.315 157.619,188.833 157.198,183.738 156.917,178.642 156.737,173.546 156.628,168.451 156.569,163.355 156.541,158.26 156.531,153.164 156.528,148.068 
  156.528,142.973 156.528,137.877 156.531,132.781 156.541,127.686 156.569,122.59 156.628,117.495 156.737,112.399 156.917,107.303 157.198,102.208 157.619,97.1121 
  157.793,95.6304 158.318,92.0165 159.365,86.9209 160.847,81.8253 162.889,76.8717 162.964,76.7296 166.671,71.634 167.984,70.3204 173.08,66.6142 173.222,66.5384 
  178.176,64.4968 183.271,63.0151 188.367,61.9677 191.981,61.4428 193.462,61.2683 198.558,60.8479 203.654,60.5665 208.749,60.3862 213.845,60.278 218.941,60.2189 
  224.036,60.1909 229.132,60.1806 234.227,60.1782 239.323,60.178 244.419,60.1782 249.514,60.1806 254.61,60.1909 259.705,60.2189 264.801,60.278 269.897,60.3862 
  274.992,60.5665 280.088,60.8479 285.184,61.2683 286.665,61.4428 290.279,61.9677 295.375,63.0151 300.47,64.4968 305.424,66.5384 305.566,66.6142 310.662,70.3204 
  311.975,71.634 315.682,76.7296 315.757,76.8717 317.799,81.8253 319.281,86.9209 320.328,92.0165 320.853,95.6304 321.027,97.1121 321.448,102.208 321.729,107.303 
  321.909,112.399 322.018,117.495 322.077,122.59 322.105,127.686 322.115,132.781 322.118,137.877 322.118,142.973 322.118,148.068 322.115,153.164 322.105,158.26 
  322.077,163.355 322.018,168.451 321.909,173.546 321.729,178.642 321.448,183.738 321.027,188.833 320.853,190.315 320.328,193.929 319.281,199.025 317.799,204.12 
  315.757,209.074 315.682,209.216 311.975,214.311 310.662,215.625 305.566,219.331 305.424,219.407 300.47,221.449 295.375,222.93 290.279,223.978 286.665,224.503 
  285.184,224.677 280.088,225.097 274.992,225.379 269.897,225.559 264.801,225.667 259.705,225.727 254.61,225.754 249.514,225.765 244.419,225.767 239.323,225.767 
  234.227,225.767 229.132,225.765 224.036,225.754 218.941,225.727 213.845,225.667 208.749,225.559 203.654,225.379 198.558,225.097 193.462,224.677 191.981,224.503 
  188.367,223.978 183.271,222.93 178.176,221.449 
  "/>
<polyline clip-path="url(#clip832)" style="stroke:#27ad80; stroke-width:2; stroke-opacity:1; fill:none" points="
  184.289,219.407 188.367,220.333 193.462,221.15 198.558,221.713 203.654,222.09 208.749,222.332 213.845,222.477 218.941,222.556 224.036,222.593 229.132,222.607 
  234.227,222.611 239.323,222.611 244.419,222.611 249.514,222.607 254.61,222.593 259.705,222.556 264.801,222.477 269.897,222.332 274.992,222.09 280.088,221.713 
  285.184,221.15 290.279,220.333 294.357,219.407 295.375,219.116 300.47,217.105 305.464,214.311 305.566,214.236 310.586,209.216 310.662,209.113 313.456,204.12 
  315.466,199.025 315.757,198.007 316.683,193.929 317.5,188.833 318.063,183.738 318.44,178.642 318.682,173.546 318.827,168.451 318.906,163.355 318.944,158.26 
  318.958,153.164 318.961,148.068 318.961,142.973 318.961,137.877 318.958,132.781 318.944,127.686 318.906,122.59 318.827,117.495 318.682,112.399 318.44,107.303 
  318.063,102.208 317.5,97.1121 316.683,92.0165 315.757,87.9384 315.466,86.9209 313.456,81.8253 310.662,76.832 310.586,76.7296 305.566,71.7092 305.464,71.634 
  300.47,68.84 295.375,66.8294 294.357,66.5384 290.279,65.6129 285.184,64.7959 280.088,64.2324 274.992,63.8553 269.897,63.6137 264.801,63.4686 259.705,63.3894 
  254.61,63.3519 249.514,63.338 244.419,63.3348 239.323,63.3346 234.227,63.3348 229.132,63.338 224.036,63.3519 218.941,63.3894 213.845,63.4686 208.749,63.6137 
  203.654,63.8553 198.558,64.2324 193.462,64.7959 188.367,65.6129 184.289,66.5384 183.271,66.8294 178.176,68.84 173.182,71.634 173.08,71.7092 168.06,76.7296 
  167.984,76.832 165.19,81.8253 163.18,86.9209 162.889,87.9384 161.963,92.0165 161.146,97.1121 160.583,102.208 160.206,107.303 159.964,112.399 159.819,117.495 
  159.74,122.59 159.702,127.686 159.688,132.781 159.685,137.877 159.685,142.973 159.685,148.068 159.688,153.164 159.702,158.26 159.74,163.355 159.819,168.451 
  159.964,173.546 160.206,178.642 160.583,183.738 161.146,188.833 161.963,193.929 162.889,198.007 163.18,199.025 165.19,204.12 167.984,209.113 168.06,209.216 
  173.08,214.236 173.182,214.311 178.176,217.105 183.271,219.116 184.289,219.407 
  "/>
<polyline clip-path="url(#clip832)" style="stroke:#3dbb74; stroke-width:2; stroke-opacity:1; fill:none" points="
  183.271,214.522 182.767,214.311 178.176,211.832 174.684,209.216 173.08,207.612 170.463,204.12 167.984,199.529 167.774,199.025 166.21,193.929 165.113,188.833 
  164.356,183.738 163.849,178.642 163.524,173.546 163.33,168.451 163.223,163.355 163.173,158.26 163.154,153.164 163.15,148.068 163.15,142.973 163.15,137.877 
  163.154,132.781 163.173,127.686 163.223,122.59 163.33,117.495 163.524,112.399 163.849,107.303 164.356,102.208 165.113,97.1121 166.21,92.0165 167.774,86.9209 
  167.984,86.4167 170.463,81.8253 173.08,78.3338 174.684,76.7296 178.176,74.1131 182.767,71.634 183.271,71.4235 188.367,69.8599 193.462,68.7624 198.558,68.0054 
  203.654,67.4987 208.749,67.1742 213.845,66.9793 218.941,66.8728 224.036,66.8225 229.132,66.8038 234.227,66.7995 239.323,66.7992 244.419,66.7995 249.514,66.8038 
  254.61,66.8225 259.705,66.8728 264.801,66.9793 269.897,67.1742 274.992,67.4987 280.088,68.0054 285.184,68.7624 290.279,69.8599 295.375,71.4235 295.879,71.634 
  300.47,74.1131 303.962,76.7296 305.566,78.3338 308.183,81.8253 310.662,86.4167 310.872,86.9209 312.436,92.0165 313.533,97.1121 314.29,102.208 314.797,107.303 
  315.122,112.399 315.316,117.495 315.423,122.59 315.473,127.686 315.492,132.781 315.496,137.877 315.496,142.973 315.496,148.068 315.492,153.164 315.473,158.26 
  315.423,163.355 315.316,168.451 315.122,173.546 314.797,178.642 314.29,183.738 313.533,188.833 312.436,193.929 310.872,199.025 310.662,199.529 308.183,204.12 
  305.566,207.612 303.962,209.216 300.47,211.832 295.879,214.311 295.375,214.522 290.279,216.085 285.184,217.183 280.088,217.94 274.992,218.447 269.897,218.771 
  264.801,218.966 259.705,219.073 254.61,219.123 249.514,219.142 244.419,219.146 239.323,219.146 234.227,219.146 229.132,219.142 224.036,219.123 218.941,219.073 
  213.845,218.966 208.749,218.771 203.654,218.447 198.558,217.94 193.462,217.183 188.367,216.085 183.271,214.522 
  "/>
<polyline clip-path="url(#clip832)" style="stroke:#5bc862; stroke-width:2; stroke-opacity:1; fill:none" points="
  188.367,210.994 184.058,209.216 183.271,208.794 178.176,205.029 177.266,204.12 173.502,199.025 173.08,198.238 171.302,193.929 169.818,188.833 168.795,183.738 
  168.111,178.642 167.984,177.182 167.732,173.546 167.52,168.451 167.403,163.355 167.349,158.26 167.328,153.164 167.324,148.068 167.323,142.973 167.324,137.877 
  167.328,132.781 167.349,127.686 167.403,122.59 167.52,117.495 167.732,112.399 167.984,108.763 168.111,107.303 168.795,102.208 169.818,97.1121 171.302,92.0165 
  173.08,87.7074 173.502,86.9209 177.266,81.8253 178.176,80.916 183.271,77.1515 184.058,76.7296 188.367,74.9515 193.462,73.4681 198.558,72.4451 203.654,71.7603 
  205.113,71.634 208.749,71.3819 213.845,71.1693 218.941,71.0532 224.036,70.9983 229.132,70.9779 234.227,70.9732 239.323,70.9729 244.419,70.9732 249.514,70.9779 
  254.61,70.9983 259.705,71.0532 264.801,71.1693 269.897,71.3819 273.533,71.634 274.992,71.7603 280.088,72.4451 285.184,73.4681 290.279,74.9515 294.588,76.7296 
  295.375,77.1515 300.47,80.916 301.38,81.8253 305.144,86.9209 305.566,87.7074 307.344,92.0165 308.828,97.1121 309.851,102.208 310.535,107.303 310.662,108.763 
  310.914,112.399 311.126,117.495 311.243,122.59 311.297,127.686 311.318,132.781 311.322,137.877 311.323,142.973 311.322,148.068 311.318,153.164 311.297,158.26 
  311.243,163.355 311.126,168.451 310.914,173.546 310.662,177.182 310.535,178.642 309.851,183.738 308.828,188.833 307.344,193.929 305.566,198.238 305.144,199.025 
  301.38,204.12 300.47,205.029 295.375,208.794 294.588,209.216 290.279,210.994 285.184,212.477 280.088,213.5 274.992,214.185 273.533,214.311 269.897,214.564 
  264.801,214.776 259.705,214.892 254.61,214.947 249.514,214.967 244.419,214.972 239.323,214.973 234.227,214.972 229.132,214.967 224.036,214.947 218.941,214.892 
  213.845,214.776 208.749,214.564 205.113,214.311 203.654,214.185 198.558,213.5 193.462,212.477 188.367,210.994 
  "/>
<polyline clip-path="url(#clip832)" style="stroke:#81d34c; stroke-width:2; stroke-opacity:1; fill:none" points="
  193.462,206.533 188.367,204.509 187.66,204.12 183.271,200.918 181.378,199.025 178.176,194.635 177.787,193.929 175.763,188.833 174.367,183.738 173.433,178.642 
  173.08,175.648 172.885,173.546 172.599,168.451 172.444,163.355 172.37,158.26 172.343,153.164 172.336,148.068 172.336,142.973 172.336,137.877 172.343,132.781 
  172.37,127.686 172.444,122.59 172.599,117.495 172.885,112.399 173.08,110.298 173.433,107.303 174.367,102.208 175.763,97.1121 177.787,92.0165 178.176,91.3101 
  181.378,86.9209 183.271,85.0273 187.66,81.8253 188.367,81.4363 193.462,79.4124 198.558,78.0167 203.654,77.0823 206.648,76.7296 208.749,76.5345 213.845,76.2492 
  218.941,76.0933 224.036,76.0196 229.132,75.9923 234.227,75.986 239.323,75.9856 244.419,75.986 249.514,75.9923 254.61,76.0196 259.705,76.0933 264.801,76.2492 
  269.897,76.5345 271.998,76.7296 274.992,77.0823 280.088,78.0167 285.184,79.4124 290.279,81.4363 290.986,81.8253 295.375,85.0273 297.268,86.9209 300.47,91.3101 
  300.859,92.0165 302.883,97.1121 304.279,102.208 305.213,107.303 305.566,110.298 305.761,112.399 306.047,117.495 306.202,122.59 306.276,127.686 306.303,132.781 
  306.31,137.877 306.31,142.973 306.31,148.068 306.303,153.164 306.276,158.26 306.202,163.355 306.047,168.451 305.761,173.546 305.566,175.648 305.213,178.642 
  304.279,183.738 302.883,188.833 300.859,193.929 300.47,194.635 297.268,199.025 295.375,200.918 290.986,204.12 290.279,204.509 285.184,206.533 280.088,207.929 
  274.992,208.863 271.998,209.216 269.897,209.411 264.801,209.696 259.705,209.852 254.61,209.926 249.514,209.953 244.419,209.959 239.323,209.96 234.227,209.959 
  229.132,209.953 224.036,209.926 218.941,209.852 213.845,209.696 208.749,209.411 206.648,209.216 203.654,208.863 198.558,207.929 193.462,206.533 
  "/>
<polyline clip-path="url(#clip832)" style="stroke:#aadb32; stroke-width:2; stroke-opacity:1; fill:none" points="
  198.558,200.43 194.831,199.025 193.462,198.336 188.367,194.661 187.635,193.929 183.96,188.833 183.271,187.464 181.866,183.738 180.574,178.642 179.747,173.546 
  179.25,168.451 178.978,163.355 178.85,158.26 178.803,153.164 178.792,148.068 178.791,142.973 178.792,137.877 178.803,132.781 178.85,127.686 178.978,122.59 
  179.25,117.495 179.747,112.399 180.574,107.303 181.866,102.208 183.271,98.4811 183.96,97.1121 187.635,92.0165 188.367,91.2845 193.462,87.6097 194.831,86.9209 
  198.558,85.5156 203.654,84.2237 208.749,83.3964 213.845,82.8996 218.941,82.6281 224.036,82.4999 229.132,82.4523 234.227,82.4413 239.323,82.4406 244.419,82.4413 
  249.514,82.4523 254.61,82.4999 259.705,82.6281 264.801,82.8996 269.897,83.3964 274.992,84.2237 280.088,85.5156 283.815,86.9209 285.184,87.6097 290.279,91.2845 
  291.011,92.0165 294.686,97.1121 295.375,98.4811 296.78,102.208 298.072,107.303 298.899,112.399 299.396,117.495 299.668,122.59 299.796,127.686 299.843,132.781 
  299.854,137.877 299.855,142.973 299.854,148.068 299.843,153.164 299.796,158.26 299.668,163.355 299.396,168.451 298.899,173.546 298.072,178.642 296.78,183.738 
  295.375,187.464 294.686,188.833 291.011,193.929 290.279,194.661 285.184,198.336 283.815,199.025 280.088,200.43 274.992,201.722 269.897,202.549 264.801,203.046 
  259.705,203.317 254.61,203.446 249.514,203.493 244.419,203.504 239.323,203.505 234.227,203.504 229.132,203.493 224.036,203.446 218.941,203.317 213.845,203.046 
  208.749,202.549 203.654,201.722 198.558,200.43 
  "/>
<polyline clip-path="url(#clip832)" style="stroke:#d4e11a; stroke-width:2; stroke-opacity:1; fill:none" points="
  208.749,192.114 203.654,190.543 200.091,188.833 198.558,187.796 194.5,183.738 193.462,182.205 191.753,178.642 190.182,173.546 189.238,168.451 188.723,163.355 
  188.479,158.26 188.389,153.164 188.368,148.068 188.367,142.973 188.368,137.877 188.389,132.781 188.479,127.686 188.723,122.59 
  189.238,117.495 190.182,112.399 191.753,107.303 193.462,103.741 194.5,102.208 198.558,98.1496 200.091,97.1121 203.654,95.4026 208.749,93.8315 213.845,92.8881 
  218.941,92.3727 224.036,92.1291 229.132,92.0387 234.227,92.0179 239.323,92.0165 244.419,92.0179 249.514,92.0387 254.61,92.1291 
  259.705,92.3727 264.801,92.8881 269.897,93.8315 274.992,95.4026 278.555,97.1121 280.088,98.1496 284.146,102.208 285.184,103.741 286.893,107.303 288.464,112.399 
  289.408,117.495 289.923,122.59 290.167,127.686 290.257,132.781 290.278,137.877 290.279,142.973 290.278,148.068 290.257,153.164 
  290.167,158.26 289.923,163.355 289.408,168.451 288.464,173.546 286.893,178.642 285.184,182.205 284.146,183.738 280.088,187.796 278.555,188.833 274.992,190.543 
  269.897,192.114 264.801,193.057 259.705,193.573 254.61,193.816 249.514,193.907 244.419,193.928 239.323,193.929 234.227,193.928 
  229.132,193.907 224.036,193.816 218.941,193.573 213.845,193.057 208.749,192.114 
  "/>
<defs>
  <clipPath id="clip833">
    <rect x="429" y="41" width="15" height="205"/>
  </clipPath>
</defs>
<polyline clip-path="url(#clip833)" style="stroke:#47186a; stroke-width:2; stroke-opacity:1; fill:none" points="
  429.789,232.146 444.189,232.146 
  "/>
<polyline clip-path="url(#clip833)" style="stroke:#472c7b; stroke-width:2; stroke-opacity:1; fill:none" points="
  429.789,219.407 444.189,219.407 
  "/>
<polyline clip-path="url(#clip833)" style="stroke:#424085; stroke-width:2; stroke-opacity:1; fill:none" points="
  429.789,206.668 444.189,206.668 
  "/>
<polyline clip-path="url(#clip833)" style="stroke:#3a528b; stroke-width:2; stroke-opacity:1; fill:none" points="
  429.789,193.929 444.189,193.929 
  "/>
<polyline clip-path="url(#clip833)" style="stroke:#32628d; stroke-width:2; stroke-opacity:1; fill:none" points="
  429.789,181.19 444.189,181.19 
  "/>
<polyline clip-path="url(#clip833)" style="stroke:#2c728e; stroke-width:2; stroke-opacity:1; fill:none" points="
  429.789,168.451 444.189,168.451 
  "/>
<polyline clip-path="url(#clip833)" style="stroke:#26818e; stroke-width:2; stroke-opacity:1; fill:none" points="
  429.789,155.712 444.189,155.712 
  "/>
<polyline clip-path="url(#clip833)" style="stroke:#20908c; stroke-width:2; stroke-opacity:1; fill:none" points="
  429.789,142.973 444.189,142.973 
  "/>
<polyline clip-path="url(#clip833)" style="stroke:#1e9e88; stroke-width:2; stroke-opacity:1; fill:none" points="
  429.789,130.234 444.189,130.234 
  "/>
<polyline clip-path="url(#clip833)" style="stroke:#27ad80; stroke-width:2; stroke-opacity:1; fill:none" points="
  429.789,117.495 444.189,117.495 
  "/>
<polyline clip-path="url(#clip833)" style="stroke:#3dbb74; stroke-width:2; stroke-opacity:1; fill:none" points="
  429.789,104.756 444.189,104.756 
  "/>
<polyline clip-path="url(#clip833)" style="stroke:#5bc862; stroke-width:2; stroke-opacity:1; fill:none" points="
  429.789,92.0165 444.189,92.0165 
  "/>
<polyline clip-path="url(#clip833)" style="stroke:#81d34c; stroke-width:2; stroke-opacity:1; fill:none" points="
  429.789,79.2774 444.189,79.2774 
  "/>
<polyline clip-path="url(#clip833)" style="stroke:#aadb32; stroke-width:2; stroke-opacity:1; fill:none" points="
  429.789,66.5384 444.189,66.5384 
  "/>
<polyline clip-path="url(#clip833)" style="stroke:#d4e11a; stroke-width:2; stroke-opacity:1; fill:none" points="
  429.789,53.7993 444.189,53.7993 
  "/>
<path clip-path="url(#clip830)" d="M 0 0 M454.375 240.428 Q453.472 240.428 453.015 241.319 Q452.564 242.204 452.564 243.987 Q452.564 245.763 453.015 246.654 Q453.472 247.54 454.375 247.54 Q455.284 247.54 455.735 246.654 Q456.192 245.763 456.192 243.987 Q456.192 242.204 455.735 241.319 Q455.284 240.428 454.375 240.428 M454.375 239.502 Q455.828 239.502 456.591 240.653 Q457.361 241.799 457.361 243.987 Q457.361 246.168 456.591 247.32 Q455.828 248.466 454.375 248.466 Q452.923 248.466 452.153 247.32 Q451.389 246.168 451.389 243.987 Q451.389 241.799 452.153 240.653 Q452.923 239.502 454.375 239.502 Z" fill="#000000" fill-rule="evenodd" fill-opacity="1" /><path clip-path="url(#clip830)" d="M 0 0 M454.375 220.045 Q453.472 220.045 453.015 220.936 Q452.564 221.822 452.564 223.604 Q452.564 225.381 453.015 226.272 Q453.472 227.157 454.375 227.157 Q455.284 227.157 455.735 226.272 Q456.192 225.381 456.192 223.604 Q456.192 221.822 455.735 220.936 Q455.284 220.045 454.375 220.045 M454.375 219.119 Q455.828 219.119 456.591 220.271 Q457.361 221.417 457.361 223.604 Q457.361 225.786 456.591 226.937 Q455.828 228.083 454.375 228.083 Q452.923 228.083 452.153 226.937 Q451.389 225.786 451.389 223.604 Q451.389 221.417 452.153 220.271 Q452.923 219.119 454.375 219.119 Z" fill="#000000" fill-rule="evenodd" fill-opacity="1" /><path clip-path="url(#clip830)" d="M 0 0 M458.629 226.446 L459.85 226.446 L459.85 227.915 L458.629 227.915 L458.629 226.446 Z" fill="#000000" fill-rule="evenodd" fill-opacity="1" /><path clip-path="url(#clip830)" d="M 0 0 M461.319 226.932 L463.229 226.932 L463.229 220.34 L461.152 220.757 L461.152 219.692 L463.218 219.275 L464.387 219.275 L464.387 226.932 L466.296 226.932 L466.296 227.915 L461.319 227.915 L461.319 226.932 Z" fill="#000000" fill-rule="evenodd" fill-opacity="1" /><path clip-path="url(#clip830)" d="M 0 0 M454.375 199.663 Q453.472 199.663 453.015 200.554 Q452.564 201.439 452.564 203.222 Q452.564 204.998 453.015 205.889 Q453.472 206.775 454.375 206.775 Q455.284 206.775 455.735 205.889 Q456.192 204.998 456.192 203.222 Q456.192 201.439 455.735 200.554 Q455.284 199.663 454.375 199.663 M454.375 198.737 Q455.828 198.737 456.591 199.888 Q457.361 201.034 457.361 203.222 Q457.361 205.403 456.591 206.555 Q455.828 207.701 454.375 207.701 Q452.923 207.701 452.153 206.555 Q451.389 205.403 451.389 203.222 Q451.389 201.034 452.153 199.888 Q452.923 198.737 454.375 198.737 Z" fill="#000000" fill-rule="evenodd" fill-opacity="1" /><path clip-path="url(#clip830)" d="M 0 0 M458.629 206.063 L459.85 206.063 L459.85 207.533 L458.629 207.533 L458.629 206.063 Z" fill="#000000" fill-rule="evenodd" fill-opacity="1" /><path clip-path="url(#clip830)" d="M 0 0 M462.124 206.549 L466.204 206.549 L466.204 207.533 L460.718 207.533 L460.718 206.549 Q461.383 205.861 462.529 204.703 Q463.681 203.54 463.976 203.204 Q464.537 202.573 464.757 202.139 Q464.983 201.7 464.983 201.277 Q464.983 200.589 464.497 200.155 Q464.016 199.72 463.241 199.72 Q462.691 199.72 462.078 199.911 Q461.47 200.102 460.776 200.49 L460.776 199.31 Q461.482 199.026 462.095 198.881 Q462.708 198.737 463.218 198.737 Q464.56 198.737 465.359 199.408 Q466.157 200.079 466.157 201.202 Q466.157 201.734 465.955 202.215 Q465.758 202.689 465.231 203.337 Q465.087 203.505 464.311 204.31 Q463.536 205.108 462.124 206.549 Z" fill="#000000" fill-rule="evenodd" fill-opacity="1" /><path clip-path="url(#clip830)" d="M 0 0 M454.375 179.28 Q453.472 179.28 453.015 180.171 Q452.564 181.057 452.564 182.839 Q452.564 184.616 453.015 185.507 Q453.472 186.392 454.375 186.392 Q455.284 186.392 455.735 185.507 Q456.192 184.616 456.192 182.839 Q456.192 181.057 455.735 180.171 Q455.284 179.28 454.375 179.28 M454.375 178.354 Q455.828 178.354 456.591 179.506 Q457.361 180.652 457.361 182.839 Q457.361 185.021 456.591 186.172 Q455.828 187.318 454.375 187.318 Q452.923 187.318 452.153 186.172 Q451.389 185.021 451.389 182.839 Q451.389 180.652 452.153 179.506 Q452.923 178.354 454.375 178.354 Z" fill="#000000" fill-rule="evenodd" fill-opacity="1" /><path clip-path="url(#clip830)" d="M 0 0 M458.629 185.681 L459.85 185.681 L459.85 187.15 L458.629 187.15 L458.629 185.681 Z" fill="#000000" fill-rule="evenodd" fill-opacity="1" /><path clip-path="url(#clip830)" d="M 0 0 M464.659 182.492 Q465.498 182.671 465.966 183.238 Q466.441 183.806 466.441 184.639 Q466.441 185.918 465.561 186.618 Q464.682 187.318 463.061 187.318 Q462.517 187.318 461.939 187.208 Q461.366 187.104 460.752 186.89 L460.752 185.762 Q461.238 186.045 461.817 186.19 Q462.396 186.335 463.027 186.335 Q464.126 186.335 464.699 185.9 Q465.278 185.466 465.278 184.639 Q465.278 183.875 464.74 183.447 Q464.207 183.013 463.252 183.013 L462.245 183.013 L462.245 182.052 L463.299 182.052 Q464.161 182.052 464.618 181.711 Q465.075 181.363 465.075 180.715 Q465.075 180.05 464.601 179.697 Q464.132 179.338 463.252 179.338 Q462.772 179.338 462.222 179.442 Q461.672 179.546 461.013 179.766 L461.013 178.725 Q461.678 178.539 462.257 178.447 Q462.841 178.354 463.357 178.354 Q464.688 178.354 465.463 178.962 Q466.238 179.564 466.238 180.594 Q466.238 181.311 465.828 181.809 Q465.417 182.301 464.659 182.492 Z" fill="#000000" fill-rule="evenodd" fill-opacity="1" /><path clip-path="url(#clip830)" d="M 0 0 M454.375 158.898 Q453.472 158.898 453.015 159.789 Q452.564 160.674 452.564 162.457 Q452.564 164.233 453.015 165.124 Q453.472 166.01 454.375 166.01 Q455.284 166.01 455.735 165.124 Q456.192 164.233 456.192 162.457 Q456.192 160.674 455.735 159.789 Q455.284 158.898 454.375 158.898 M454.375 157.972 Q455.828 157.972 456.591 159.123 Q457.361 160.269 457.361 162.457 Q457.361 164.638 456.591 165.79 Q455.828 166.936 454.375 166.936 Q452.923 166.936 452.153 165.79 Q451.389 164.638 451.389 162.457 Q451.389 160.269 452.153 159.123 Q452.923 157.972 454.375 157.972 Z" fill="#000000" fill-rule="evenodd" fill-opacity="1" /><path clip-path="url(#clip830)" d="M 0 0 M458.629 165.298 L459.85 165.298 L459.85 166.768 L458.629 166.768 L458.629 165.298 Z" fill="#000000" fill-rule="evenodd" fill-opacity="1" /><path clip-path="url(#clip830)" d="M 0 0 M464.329 159.147 L461.377 163.759 L464.329 163.759 L464.329 159.147 M464.022 158.128 L465.492 158.128 L465.492 163.759 L466.725 163.759 L466.725 164.731 L465.492 164.731 L465.492 166.768 L464.329 166.768 L464.329 164.731 L460.428 164.731 L460.428 163.602 L464.022 158.128 Z" fill="#000000" fill-rule="evenodd" fill-opacity="1" /><path clip-path="url(#clip830)" d="M 0 0 M454.375 138.515 Q453.472 138.515 453.015 139.406 Q452.564 140.292 452.564 142.074 Q452.564 143.851 453.015 144.742 Q453.472 145.627 454.375 145.627 Q455.284 145.627 455.735 144.742 Q456.192 143.851 456.192 142.074 Q456.192 140.292 455.735 139.406 Q455.284 138.515 454.375 138.515 M454.375 137.589 Q455.828 137.589 456.591 138.741 Q457.361 139.887 457.361 142.074 Q457.361 144.256 456.591 145.408 Q455.828 146.553 454.375 146.553 Q452.923 146.553 452.153 145.408 Q451.389 144.256 451.389 142.074 Q451.389 139.887 452.153 138.741 Q452.923 137.589 454.375 137.589 Z" fill="#000000" fill-rule="evenodd" fill-opacity="1" /><path clip-path="url(#clip830)" d="M 0 0 M458.629 144.916 L459.85 144.916 L459.85 146.386 L458.629 146.386 L458.629 144.916 Z" fill="#000000" fill-rule="evenodd" fill-opacity="1" /><path clip-path="url(#clip830)" d="M 0 0 M461.129 137.746 L465.718 137.746 L465.718 138.729 L462.199 138.729 L462.199 140.847 Q462.454 140.761 462.708 140.72 Q462.963 140.674 463.218 140.674 Q464.664 140.674 465.509 141.467 Q466.354 142.259 466.354 143.614 Q466.354 145.008 465.486 145.784 Q464.618 146.553 463.038 146.553 Q462.494 146.553 461.927 146.461 Q461.366 146.368 460.764 146.183 L460.764 145.008 Q461.285 145.292 461.84 145.431 Q462.396 145.57 463.015 145.57 Q464.016 145.57 464.601 145.043 Q465.185 144.516 465.185 143.614 Q465.185 142.711 464.601 142.184 Q464.016 141.658 463.015 141.658 Q462.546 141.658 462.078 141.762 Q461.615 141.866 461.129 142.086 L461.129 137.746 Z" fill="#000000" fill-rule="evenodd" fill-opacity="1" /><path clip-path="url(#clip830)" d="M 0 0 M454.375 118.133 Q453.472 118.133 453.015 119.024 Q452.564 119.909 452.564 121.692 Q452.564 123.468 453.015 124.36 Q453.472 125.245 454.375 125.245 Q455.284 125.245 455.735 124.36 Q456.192 123.468 456.192 121.692 Q456.192 119.909 455.735 119.024 Q455.284 118.133 454.375 118.133 M454.375 117.207 Q455.828 117.207 456.591 118.358 Q457.361 119.504 457.361 121.692 Q457.361 123.873 456.591 125.025 Q455.828 126.171 454.375 126.171 Q452.923 126.171 452.153 125.025 Q451.389 123.873 451.389 121.692 Q451.389 119.504 452.153 118.358 Q452.923 117.207 454.375 117.207 Z" fill="#000000" fill-rule="evenodd" fill-opacity="1" /><path clip-path="url(#clip830)" d="M 0 0 M458.629 124.533 L459.85 124.533 L459.85 126.003 L458.629 126.003 L458.629 124.533 Z" fill="#000000" fill-rule="evenodd" fill-opacity="1" /><path clip-path="url(#clip830)" d="M 0 0 M463.762 121.217 Q462.975 121.217 462.512 121.755 Q462.054 122.294 462.054 123.231 Q462.054 124.163 462.512 124.707 Q462.975 125.245 463.762 125.245 Q464.549 125.245 465.006 124.707 Q465.469 124.163 465.469 123.231 Q465.469 122.294 465.006 121.755 Q464.549 121.217 463.762 121.217 M466.082 117.554 L466.082 118.619 Q465.642 118.41 465.191 118.301 Q464.745 118.191 464.306 118.191 Q463.148 118.191 462.535 118.972 Q461.927 119.753 461.84 121.333 Q462.182 120.829 462.697 120.563 Q463.212 120.291 463.831 120.291 Q465.133 120.291 465.885 121.084 Q466.644 121.871 466.644 123.231 Q466.644 124.562 465.856 125.366 Q465.069 126.171 463.762 126.171 Q462.263 126.171 461.47 125.025 Q460.677 123.873 460.677 121.692 Q460.677 119.643 461.649 118.428 Q462.622 117.207 464.259 117.207 Q464.699 117.207 465.145 117.294 Q465.596 117.38 466.082 117.554 Z" fill="#000000" fill-rule="evenodd" fill-opacity="1" /><path clip-path="url(#clip830)" d="M 0 0 M454.375 97.7502 Q453.472 97.7502 453.015 98.6414 Q452.564 99.5268 452.564 101.309 Q452.564 103.086 453.015 103.977 Q453.472 104.862 454.375 104.862 Q455.284 104.862 455.735 103.977 Q456.192 103.086 456.192 101.309 Q456.192 99.5268 455.735 98.6414 Q455.284 97.7502 454.375 97.7502 M454.375 96.8243 Q455.828 96.8243 456.591 97.9759 Q457.361 99.1217 457.361 101.309 Q457.361 103.491 456.591 104.643 Q455.828 105.788 454.375 105.788 Q452.923 105.788 452.153 104.643 Q451.389 103.491 451.389 101.309 Q451.389 99.1217 452.153 97.9759 Q452.923 96.8243 454.375 96.8243 Z" fill="#000000" fill-rule="evenodd" fill-opacity="1" /><path clip-path="url(#clip830)" d="M 0 0 M458.629 104.151 L459.85 104.151 L459.85 105.621 L458.629 105.621 L458.629 104.151 Z" fill="#000000" fill-rule="evenodd" fill-opacity="1" /><path clip-path="url(#clip830)" d="M 0 0 M460.822 96.9805 L466.377 96.9805 L466.377 97.4782 L463.241 105.621 L462.02 105.621 L464.971 97.9643 L460.822 97.9643 L460.822 96.9805 Z" fill="#000000" fill-rule="evenodd" fill-opacity="1" /><path clip-path="url(#clip830)" d="M 0 0 M454.375 77.3677 Q453.472 77.3677 453.015 78.2589 Q452.564 79.1443 452.564 80.9267 Q452.564 82.7033 453.015 83.5945 Q453.472 84.48 454.375 84.48 Q455.284 84.48 455.735 83.5945 Q456.192 82.7033 456.192 80.9267 Q456.192 79.1443 455.735 78.2589 Q455.284 77.3677 454.375 77.3677 M454.375 76.4418 Q455.828 76.4418 456.591 77.5934 Q457.361 78.7392 457.361 80.9267 Q457.361 83.1084 456.591 84.2601 Q455.828 85.4059 454.375 85.4059 Q452.923 85.4059 452.153 84.2601 Q451.389 83.1084 451.389 80.9267 Q451.389 78.7392 452.153 77.5934 Q452.923 76.4418 454.375 76.4418 Z" fill="#000000" fill-rule="evenodd" fill-opacity="1" /><path clip-path="url(#clip830)" d="M 0 0 M458.629 83.7682 L459.85 83.7682 L459.85 85.2381 L458.629 85.2381 L458.629 83.7682 Z" fill="#000000" fill-rule="evenodd" fill-opacity="1" /><path clip-path="url(#clip830)" d="M 0 0 M463.617 81.1351 Q462.784 81.1351 462.303 81.5807 Q461.829 82.0263 461.829 82.8075 Q461.829 83.5888 462.303 84.0344 Q462.784 84.48 463.617 84.48 Q464.45 84.48 464.931 84.0344 Q465.411 83.583 465.411 82.8075 Q465.411 82.0263 464.931 81.5807 Q464.456 81.1351 463.617 81.1351 M462.448 80.6374 Q461.696 80.4522 461.273 79.9372 Q460.857 79.4221 460.857 78.6814 Q460.857 77.6455 461.591 77.0437 Q462.332 76.4418 463.617 76.4418 Q464.907 76.4418 465.642 77.0437 Q466.377 77.6455 466.377 78.6814 Q466.377 79.4221 465.955 79.9372 Q465.538 80.4522 464.792 80.6374 Q465.637 80.8341 466.105 81.4071 Q466.58 81.98 466.58 82.8075 Q466.58 84.0633 465.81 84.7346 Q465.046 85.4059 463.617 85.4059 Q462.188 85.4059 461.418 84.7346 Q460.654 84.0633 460.654 82.8075 Q460.654 81.98 461.129 81.4071 Q461.603 80.8341 462.448 80.6374 M462.02 78.7913 Q462.02 79.4626 462.436 79.8388 Q462.859 80.2149 463.617 80.2149 Q464.369 80.2149 464.792 79.8388 Q465.22 79.4626 465.22 78.7913 Q465.22 78.12 464.792 77.7439 Q464.369 77.3677 463.617 77.3677 Q462.859 77.3677 462.436 77.7439 Q462.02 78.12 462.02 78.7913 Z" fill="#000000" fill-rule="evenodd" fill-opacity="1" /><path clip-path="url(#clip830)" d="M 0 0 M454.375 56.9852 Q453.472 56.9852 453.015 57.8764 Q452.564 58.7619 452.564 60.5443 Q452.564 62.3209 453.015 63.2121 Q453.472 64.0975 454.375 64.0975 Q455.284 64.0975 455.735 63.2121 Q456.192 62.3209 456.192 60.5443 Q456.192 58.7619 455.735 57.8764 Q455.284 56.9852 454.375 56.9852 M454.375 56.0593 Q455.828 56.0593 456.591 57.2109 Q457.361 58.3568 457.361 60.5443 Q457.361 62.726 456.591 63.8776 Q455.828 65.0234 454.375 65.0234 Q452.923 65.0234 452.153 63.8776 Q451.389 62.726 451.389 60.5443 Q451.389 58.3568 452.153 57.2109 Q452.923 56.0593 454.375 56.0593 Z" fill="#000000" fill-rule="evenodd" fill-opacity="1" /><path clip-path="url(#clip830)" d="M 0 0 M458.629 63.3857 L459.85 63.3857 L459.85 64.8556 L458.629 64.8556 L458.629 63.3857 Z" fill="#000000" fill-rule="evenodd" fill-opacity="1" /><path clip-path="url(#clip830)" d="M 0 0 M461.152 64.6762 L461.152 63.6114 Q461.591 63.8197 462.043 63.9297 Q462.494 64.0396 462.928 64.0396 Q464.086 64.0396 464.693 63.2641 Q465.307 62.4829 465.394 60.8973 Q465.058 61.3949 464.543 61.6611 Q464.028 61.9273 463.403 61.9273 Q462.107 61.9273 461.348 61.1461 Q460.596 60.3591 460.596 58.9991 Q460.596 57.6681 461.383 56.8637 Q462.17 56.0593 463.478 56.0593 Q464.977 56.0593 465.764 57.2109 Q466.557 58.3568 466.557 60.5443 Q466.557 62.5871 465.585 63.8081 Q464.618 65.0234 462.98 65.0234 Q462.541 65.0234 462.089 64.9366 Q461.638 64.8498 461.152 64.6762 M463.478 61.013 Q464.265 61.013 464.722 60.4748 Q465.185 59.9366 465.185 58.9991 Q465.185 58.0674 464.722 57.5292 Q464.265 56.9852 463.478 56.9852 Q462.691 56.9852 462.228 57.5292 Q461.771 58.0674 461.771 58.9991 Q461.771 59.9366 462.228 60.4748 Q462.691 61.013 463.478 61.013 Z" fill="#000000" fill-rule="evenodd" fill-opacity="1" /><path clip-path="url(#clip830)" d="M 0 0 M451.557 43.4893 L453.467 43.4893 L453.467 36.8979 L451.389 37.3146 L451.389 36.2498 L453.455 35.8331 L454.624 35.8331 L454.624 43.4893 L456.534 43.4893 L456.534 44.4731 L451.557 44.4731 L451.557 43.4893 Z" fill="#000000" fill-rule="evenodd" fill-opacity="1" /><path clip-path="url(#clip830)" d="M 0 0 M457.801 43.0032 L459.022 43.0032 L459.022 44.4731 L457.801 44.4731 L457.801 43.0032 Z" fill="#000000" fill-rule="evenodd" fill-opacity="1" /><path clip-path="url(#clip830)" d="M 0 0 M462.789 36.6028 Q461.887 36.6028 461.429 37.494 Q460.978 38.3794 460.978 40.1618 Q460.978 41.9384 461.429 42.8296 Q461.887 43.715 462.789 43.715 Q463.698 43.715 464.149 42.8296 Q464.606 41.9384 464.606 40.1618 Q464.606 38.3794 464.149 37.494 Q463.698 36.6028 462.789 36.6028 M462.789 35.6768 Q464.242 35.6768 465.006 36.8285 Q465.775 37.9743 465.775 40.1618 Q465.775 42.3435 465.006 43.4951 Q464.242 44.6409 462.789 44.6409 Q461.337 44.6409 460.567 43.4951 Q459.803 42.3435 459.803 40.1618 Q459.803 37.9743 460.567 36.8285 Q461.337 35.6768 462.789 35.6768 Z" fill="#000000" fill-rule="evenodd" fill-opacity="1" /><polyline clip-path="url(#clip830)" style="stroke:#000000; stroke-width:1; stroke-opacity:1; fill:none" points="
  444.189,244.885 444.189,244.885 448.989,244.885 444.189,244.885 444.189,224.503 448.989,224.503 444.189,224.503 444.189,204.12 448.989,204.12 444.189,204.12 
  444.189,183.738 448.989,183.738 444.189,183.738 444.189,163.355 448.989,163.355 444.189,163.355 444.189,142.973 448.989,142.973 444.189,142.973 444.189,122.59 
  448.989,122.59 444.189,122.59 444.189,102.208 448.989,102.208 444.189,102.208 444.189,81.8253 448.989,81.8253 444.189,81.8253 444.189,61.4428 448.989,61.4428 
  444.189,61.4428 444.189,41.0603 448.989,41.0603 444.189,41.0603 
  "/>
</svg>
