<?xml version="1.0" encoding="utf-8"?>
<svg xmlns="http://www.w3.org/2000/svg" xmlns:xlink="http://www.w3.org/1999/xlink" width="120" height="75" viewBox="0 0 480 300">
<defs>
  <clipPath id="clip070">
    <rect x="0" y="0" width="480" height="300"/>
  </clipPath>
</defs>
<path clip-path="url(#clip070)" d="
M0 300 L480 300 L480 0 L0 0  Z
  " fill="#ffffff" fill-rule="evenodd" fill-opacity="1"/>
<defs>
  <clipPath id="clip071">
    <rect x="96" y="0" width="337" height="300"/>
  </clipPath>
</defs>
<path clip-path="url(#clip070)" d="
M50.6272 258.408 L468.189 258.408 L468.189 11.811 L50.6272 11.811  Z
  " fill="#ffffff" fill-rule="evenodd" fill-opacity="1"/>
<defs>
  <clipPath id="clip072">
    <rect x="50" y="11" width="419" height="248"/>
  </clipPath>
</defs>
<polyline clip-path="url(#clip072)" style="stroke:#000000; stroke-width:0.5; stroke-opacity:0.1; fill:none" points="
  106.215,258.408 106.215,11.811 
  "/>
<polyline clip-path="url(#clip072)" style="stroke:#000000; stroke-width:0.5; stroke-opacity:0.1; fill:none" points="
  193.754,258.408 193.754,11.811 
  "/>
<polyline clip-path="url(#clip072)" style="stroke:#000000; stroke-width:0.5; stroke-opacity:0.1; fill:none" points="
  281.293,258.408 281.293,11.811 
  "/>
<polyline clip-path="url(#clip072)" style="stroke:#000000; stroke-width:0.5; stroke-opacity:0.1; fill:none" points="
  368.832,258.408 368.832,11.811 
  "/>
<polyline clip-path="url(#clip072)" style="stroke:#000000; stroke-width:0.5; stroke-opacity:0.1; fill:none" points="
  456.371,258.408 456.371,11.811 
  "/>
<polyline clip-path="url(#clip070)" style="stroke:#000000; stroke-width:1; stroke-opacity:1; fill:none" points="
  50.6272,258.408 468.189,258.408 
  "/>
<polyline clip-path="url(#clip070)" style="stroke:#000000; stroke-width:1; stroke-opacity:1; fill:none" points="
  106.215,258.408 106.215,255.449 
  "/>
<polyline clip-path="url(#clip070)" style="stroke:#000000; stroke-width:1; stroke-opacity:1; fill:none" points="
  193.754,258.408 193.754,255.449 
  "/>
<polyline clip-path="url(#clip070)" style="stroke:#000000; stroke-width:1; stroke-opacity:1; fill:none" points="
  281.293,258.408 281.293,255.449 
  "/>
<polyline clip-path="url(#clip070)" style="stroke:#000000; stroke-width:1; stroke-opacity:1; fill:none" points="
  368.832,258.408 368.832,255.449 
  "/>
<polyline clip-path="url(#clip070)" style="stroke:#000000; stroke-width:1; stroke-opacity:1; fill:none" points="
  456.371,258.408 456.371,255.449 
  "/>
<path clip-path="url(#clip070)" d="M 0 0 M93.6828 271.633 L95.5925 271.633 L95.5925 265.041 L93.515 265.458 L93.515 264.393 L95.5809 263.976 L96.7499 263.976 L96.7499 271.633 L98.6596 271.633 L98.6596 272.616 L93.6828 272.616 L93.6828 271.633 Z" fill="#000000" fill-rule="evenodd" fill-opacity="1" /><path clip-path="url(#clip070)" d="M 0 0 M99.9617 272.437 L99.9617 271.372 Q100.402 271.581 100.853 271.69 Q101.304 271.8 101.738 271.8 Q102.896 271.8 103.503 271.025 Q104.117 270.244 104.204 268.658 Q103.868 269.156 103.353 269.422 Q102.838 269.688 102.213 269.688 Q100.917 269.688 100.158 268.907 Q99.4061 268.12 99.4061 266.76 Q99.4061 265.429 100.193 264.625 Q100.98 263.82 102.288 263.82 Q103.787 263.82 104.574 264.972 Q105.367 266.118 105.367 268.305 Q105.367 270.348 104.395 271.569 Q103.428 272.784 101.79 272.784 Q101.351 272.784 100.899 272.697 Q100.448 272.611 99.9617 272.437 M102.288 268.774 Q103.075 268.774 103.532 268.236 Q103.995 267.697 103.995 266.76 Q103.995 265.828 103.532 265.29 Q103.075 264.746 102.288 264.746 Q101.501 264.746 101.038 265.29 Q100.581 265.828 100.581 266.76 Q100.581 267.697 101.038 268.236 Q101.501 268.774 102.288 268.774 Z" fill="#000000" fill-rule="evenodd" fill-opacity="1" /><path clip-path="url(#clip070)" d="M 0 0 M109.279 267.831 Q108.492 267.831 108.029 268.369 Q107.572 268.907 107.572 269.844 Q107.572 270.776 108.029 271.32 Q108.492 271.858 109.279 271.858 Q110.066 271.858 110.523 271.32 Q110.986 270.776 110.986 269.844 Q110.986 268.907 110.523 268.369 Q110.066 267.831 109.279 267.831 M111.599 264.167 L111.599 265.232 Q111.16 265.024 110.708 264.914 Q110.263 264.804 109.823 264.804 Q108.665 264.804 108.052 265.585 Q107.444 266.366 107.357 267.946 Q107.699 267.443 108.214 267.177 Q108.729 266.905 109.348 266.905 Q110.65 266.905 111.403 267.697 Q112.161 268.484 112.161 269.844 Q112.161 271.175 111.374 271.98 Q110.587 272.784 109.279 272.784 Q107.78 272.784 106.987 271.638 Q106.194 270.487 106.194 268.305 Q106.194 266.256 107.167 265.041 Q108.139 263.82 109.776 263.82 Q110.216 263.82 110.662 263.907 Q111.113 263.994 111.599 264.167 Z" fill="#000000" fill-rule="evenodd" fill-opacity="1" /><path clip-path="url(#clip070)" d="M 0 0 M115.928 264.746 Q115.025 264.746 114.568 265.637 Q114.117 266.523 114.117 268.305 Q114.117 270.082 114.568 270.973 Q115.025 271.858 115.928 271.858 Q116.837 271.858 117.288 270.973 Q117.745 270.082 117.745 268.305 Q117.745 266.523 117.288 265.637 Q116.837 264.746 115.928 264.746 M115.928 263.82 Q117.381 263.82 118.144 264.972 Q118.914 266.118 118.914 268.305 Q118.914 270.487 118.144 271.638 Q117.381 272.784 115.928 272.784 Q114.476 272.784 113.706 271.638 Q112.942 270.487 112.942 268.305 Q112.942 266.118 113.706 264.972 Q114.476 263.82 115.928 263.82 Z" fill="#000000" fill-rule="evenodd" fill-opacity="1" /><path clip-path="url(#clip070)" d="M 0 0 M181.355 271.633 L183.265 271.633 L183.265 265.041 L181.187 265.458 L181.187 264.393 L183.253 263.976 L184.422 263.976 L184.422 271.633 L186.332 271.633 L186.332 272.616 L181.355 272.616 L181.355 271.633 Z" fill="#000000" fill-rule="evenodd" fill-opacity="1" /><path clip-path="url(#clip070)" d="M 0 0 M187.634 272.437 L187.634 271.372 Q188.074 271.581 188.525 271.69 Q188.977 271.8 189.411 271.8 Q190.568 271.8 191.176 271.025 Q191.789 270.244 191.876 268.658 Q191.54 269.156 191.025 269.422 Q190.51 269.688 189.885 269.688 Q188.589 269.688 187.831 268.907 Q187.078 268.12 187.078 266.76 Q187.078 265.429 187.865 264.625 Q188.652 263.82 189.96 263.82 Q191.459 263.82 192.246 264.972 Q193.039 266.118 193.039 268.305 Q193.039 270.348 192.067 271.569 Q191.1 272.784 189.463 272.784 Q189.023 272.784 188.571 272.697 Q188.12 272.611 187.634 272.437 M189.96 268.774 Q190.747 268.774 191.205 268.236 Q191.667 267.697 191.667 266.76 Q191.667 265.828 191.205 265.29 Q190.747 264.746 189.96 264.746 Q189.173 264.746 188.71 265.29 Q188.253 265.828 188.253 266.76 Q188.253 267.697 188.71 268.236 Q189.173 268.774 189.96 268.774 Z" fill="#000000" fill-rule="evenodd" fill-opacity="1" /><path clip-path="url(#clip070)" d="M 0 0 M194.011 263.976 L199.567 263.976 L199.567 264.474 L196.43 272.616 L195.209 272.616 L198.161 264.96 L194.011 264.96 L194.011 263.976 Z" fill="#000000" fill-rule="evenodd" fill-opacity="1" /><path clip-path="url(#clip070)" d="M 0 0 M203.334 264.746 Q202.431 264.746 201.974 265.637 Q201.523 266.523 201.523 268.305 Q201.523 270.082 201.974 270.973 Q202.431 271.858 203.334 271.858 Q204.243 271.858 204.694 270.973 Q205.151 270.082 205.151 268.305 Q205.151 266.523 204.694 265.637 Q204.243 264.746 203.334 264.746 M203.334 263.82 Q204.787 263.82 205.551 264.972 Q206.32 266.118 206.32 268.305 Q206.32 270.487 205.551 271.638 Q204.787 272.784 203.334 272.784 Q201.882 272.784 201.112 271.638 Q200.348 270.487 200.348 268.305 Q200.348 266.118 201.112 264.972 Q201.882 263.82 203.334 263.82 Z" fill="#000000" fill-rule="evenodd" fill-opacity="1" /><path clip-path="url(#clip070)" d="M 0 0 M268.793 271.633 L270.703 271.633 L270.703 265.041 L268.625 265.458 L268.625 264.393 L270.691 263.976 L271.86 263.976 L271.86 271.633 L273.77 271.633 L273.77 272.616 L268.793 272.616 L268.793 271.633 Z" fill="#000000" fill-rule="evenodd" fill-opacity="1" /><path clip-path="url(#clip070)" d="M 0 0 M275.072 272.437 L275.072 271.372 Q275.512 271.581 275.963 271.69 Q276.414 271.8 276.848 271.8 Q278.006 271.8 278.613 271.025 Q279.227 270.244 279.314 268.658 Q278.978 269.156 278.463 269.422 Q277.948 269.688 277.323 269.688 Q276.027 269.688 275.269 268.907 Q274.516 268.12 274.516 266.76 Q274.516 265.429 275.303 264.625 Q276.09 263.82 277.398 263.82 Q278.897 263.82 279.684 264.972 Q280.477 266.118 280.477 268.305 Q280.477 270.348 279.505 271.569 Q278.538 272.784 276.901 272.784 Q276.461 272.784 276.009 272.697 Q275.558 272.611 275.072 272.437 M277.398 268.774 Q278.185 268.774 278.642 268.236 Q279.105 267.697 279.105 266.76 Q279.105 265.828 278.642 265.29 Q278.185 264.746 277.398 264.746 Q276.611 264.746 276.148 265.29 Q275.691 265.828 275.691 266.76 Q275.691 267.697 276.148 268.236 Q276.611 268.774 277.398 268.774 Z" fill="#000000" fill-rule="evenodd" fill-opacity="1" /><path clip-path="url(#clip070)" d="M 0 0 M284.244 268.513 Q283.411 268.513 282.931 268.959 Q282.456 269.405 282.456 270.186 Q282.456 270.967 282.931 271.413 Q283.411 271.858 284.244 271.858 Q285.078 271.858 285.558 271.413 Q286.038 270.961 286.038 270.186 Q286.038 269.405 285.558 268.959 Q285.083 268.513 284.244 268.513 M283.075 268.016 Q282.323 267.831 281.901 267.315 Q281.484 266.8 281.484 266.06 Q281.484 265.024 282.219 264.422 Q282.96 263.82 284.244 263.82 Q285.535 263.82 286.27 264.422 Q287.005 265.024 287.005 266.06 Q287.005 266.8 286.582 267.315 Q286.166 267.831 285.419 268.016 Q286.264 268.212 286.733 268.785 Q287.207 269.358 287.207 270.186 Q287.207 271.442 286.438 272.113 Q285.674 272.784 284.244 272.784 Q282.815 272.784 282.045 272.113 Q281.281 271.442 281.281 270.186 Q281.281 269.358 281.756 268.785 Q282.23 268.212 283.075 268.016 M282.647 266.17 Q282.647 266.841 283.064 267.217 Q283.486 267.593 284.244 267.593 Q284.997 267.593 285.419 267.217 Q285.847 266.841 285.847 266.17 Q285.847 265.498 285.419 265.122 Q284.997 264.746 284.244 264.746 Q283.486 264.746 283.064 265.122 Q282.647 265.498 282.647 266.17 Z" fill="#000000" fill-rule="evenodd" fill-opacity="1" /><path clip-path="url(#clip070)" d="M 0 0 M290.975 264.746 Q290.072 264.746 289.615 265.637 Q289.163 266.523 289.163 268.305 Q289.163 270.082 289.615 270.973 Q290.072 271.858 290.975 271.858 Q291.883 271.858 292.334 270.973 Q292.792 270.082 292.792 268.305 Q292.792 266.523 292.334 265.637 Q291.883 264.746 290.975 264.746 M290.975 263.82 Q292.427 263.82 293.191 264.972 Q293.961 266.118 293.961 268.305 Q293.961 270.487 293.191 271.638 Q292.427 272.784 290.975 272.784 Q289.522 272.784 288.752 271.638 Q287.988 270.487 287.988 268.305 Q287.988 266.118 288.752 264.972 Q289.522 263.82 290.975 263.82 Z" fill="#000000" fill-rule="evenodd" fill-opacity="1" /><path clip-path="url(#clip070)" d="M 0 0 M356.344 271.633 L358.253 271.633 L358.253 265.041 L356.176 265.458 L356.176 264.393 L358.242 263.976 L359.411 263.976 L359.411 271.633 L361.32 271.633 L361.32 272.616 L356.344 272.616 L356.344 271.633 Z" fill="#000000" fill-rule="evenodd" fill-opacity="1" /><path clip-path="url(#clip070)" d="M 0 0 M362.623 272.437 L362.623 271.372 Q363.062 271.581 363.514 271.69 Q363.965 271.8 364.399 271.8 Q365.557 271.8 366.164 271.025 Q366.778 270.244 366.864 268.658 Q366.529 269.156 366.014 269.422 Q365.499 269.688 364.874 269.688 Q363.577 269.688 362.819 268.907 Q362.067 268.12 362.067 266.76 Q362.067 265.429 362.854 264.625 Q363.641 263.82 364.949 263.82 Q366.448 263.82 367.235 264.972 Q368.028 266.118 368.028 268.305 Q368.028 270.348 367.055 271.569 Q366.089 272.784 364.451 272.784 Q364.011 272.784 363.56 272.697 Q363.109 272.611 362.623 272.437 M364.949 268.774 Q365.736 268.774 366.193 268.236 Q366.656 267.697 366.656 266.76 Q366.656 265.828 366.193 265.29 Q365.736 264.746 364.949 264.746 Q364.162 264.746 363.699 265.29 Q363.242 265.828 363.242 266.76 Q363.242 267.697 363.699 268.236 Q364.162 268.774 364.949 268.774 Z" fill="#000000" fill-rule="evenodd" fill-opacity="1" /><path clip-path="url(#clip070)" d="M 0 0 M369.33 272.437 L369.33 271.372 Q369.77 271.581 370.221 271.69 Q370.672 271.8 371.106 271.8 Q372.264 271.8 372.871 271.025 Q373.485 270.244 373.572 268.658 Q373.236 269.156 372.721 269.422 Q372.206 269.688 371.581 269.688 Q370.285 269.688 369.526 268.907 Q368.774 268.12 368.774 266.76 Q368.774 265.429 369.561 264.625 Q370.348 263.82 371.656 263.82 Q373.155 263.82 373.942 264.972 Q374.735 266.118 374.735 268.305 Q374.735 270.348 373.763 271.569 Q372.796 272.784 371.158 272.784 Q370.719 272.784 370.267 272.697 Q369.816 272.611 369.33 272.437 M371.656 268.774 Q372.443 268.774 372.9 268.236 Q373.363 267.697 373.363 266.76 Q373.363 265.828 372.9 265.29 Q372.443 264.746 371.656 264.746 Q370.869 264.746 370.406 265.29 Q369.949 265.828 369.949 266.76 Q369.949 267.697 370.406 268.236 Q370.869 268.774 371.656 268.774 Z" fill="#000000" fill-rule="evenodd" fill-opacity="1" /><path clip-path="url(#clip070)" d="M 0 0 M378.502 264.746 Q377.599 264.746 377.142 265.637 Q376.691 266.523 376.691 268.305 Q376.691 270.082 377.142 270.973 Q377.599 271.858 378.502 271.858 Q379.411 271.858 379.862 270.973 Q380.319 270.082 380.319 268.305 Q380.319 266.523 379.862 265.637 Q379.411 264.746 378.502 264.746 M378.502 263.82 Q379.955 263.82 380.719 264.972 Q381.488 266.118 381.488 268.305 Q381.488 270.487 380.719 271.638 Q379.955 272.784 378.502 272.784 Q377.05 272.784 376.28 271.638 Q375.516 270.487 375.516 268.305 Q375.516 266.118 376.28 264.972 Q377.05 263.82 378.502 263.82 Z" fill="#000000" fill-rule="evenodd" fill-opacity="1" /><path clip-path="url(#clip070)" d="M 0 0 M444.904 271.633 L448.984 271.633 L448.984 272.616 L443.498 272.616 L443.498 271.633 Q444.164 270.944 445.309 269.787 Q446.461 268.623 446.756 268.288 Q447.317 267.657 447.537 267.223 Q447.763 266.783 447.763 266.361 Q447.763 265.672 447.277 265.238 Q446.797 264.804 446.021 264.804 Q445.471 264.804 444.858 264.995 Q444.25 265.186 443.556 265.574 L443.556 264.393 Q444.262 264.109 444.875 263.965 Q445.489 263.82 445.998 263.82 Q447.341 263.82 448.139 264.491 Q448.938 265.163 448.938 266.285 Q448.938 266.818 448.735 267.298 Q448.538 267.773 448.012 268.421 Q447.867 268.589 447.092 269.393 Q446.316 270.192 444.904 271.633 Z" fill="#000000" fill-rule="evenodd" fill-opacity="1" /><path clip-path="url(#clip070)" d="M 0 0 M452.751 264.746 Q451.849 264.746 451.391 265.637 Q450.94 266.523 450.94 268.305 Q450.94 270.082 451.391 270.973 Q451.849 271.858 452.751 271.858 Q453.66 271.858 454.111 270.973 Q454.569 270.082 454.569 268.305 Q454.569 266.523 454.111 265.637 Q453.66 264.746 452.751 264.746 M452.751 263.82 Q454.204 263.82 454.968 264.972 Q455.738 266.118 455.738 268.305 Q455.738 270.487 454.968 271.638 Q454.204 272.784 452.751 272.784 Q451.299 272.784 450.529 271.638 Q449.765 270.487 449.765 268.305 Q449.765 266.118 450.529 264.972 Q451.299 263.82 452.751 263.82 Z" fill="#000000" fill-rule="evenodd" fill-opacity="1" /><path clip-path="url(#clip070)" d="M 0 0 M459.505 264.746 Q458.602 264.746 458.145 265.637 Q457.694 266.523 457.694 268.305 Q457.694 270.082 458.145 270.973 Q458.602 271.858 459.505 271.858 Q460.413 271.858 460.865 270.973 Q461.322 270.082 461.322 268.305 Q461.322 266.523 460.865 265.637 Q460.413 264.746 459.505 264.746 M459.505 263.82 Q460.957 263.82 461.721 264.972 Q462.491 266.118 462.491 268.305 Q462.491 270.487 461.721 271.638 Q460.957 272.784 459.505 272.784 Q458.052 272.784 457.283 271.638 Q456.519 270.487 456.519 268.305 Q456.519 266.118 457.283 264.972 Q458.052 263.82 459.505 263.82 Z" fill="#000000" fill-rule="evenodd" fill-opacity="1" /><path clip-path="url(#clip070)" d="M 0 0 M466.258 264.746 Q465.356 264.746 464.898 265.637 Q464.447 266.523 464.447 268.305 Q464.447 270.082 464.898 270.973 Q465.356 271.858 466.258 271.858 Q467.167 271.858 467.618 270.973 Q468.075 270.082 468.075 268.305 Q468.075 266.523 467.618 265.637 Q467.167 264.746 466.258 264.746 M466.258 263.82 Q467.711 263.82 468.475 264.972 Q469.244 266.118 469.244 268.305 Q469.244 270.487 468.475 271.638 Q467.711 272.784 466.258 272.784 Q464.806 272.784 464.036 271.638 Q463.272 270.487 463.272 268.305 Q463.272 266.118 464.036 264.972 Q464.806 263.82 466.258 263.82 Z" fill="#000000" fill-rule="evenodd" fill-opacity="1" /><g clip-path="url(#clip070)">
<text style="fill:#000000; fill-opacity:1; font-family:Arial,Helvetica Neue,Helvetica,sans-serif; font-size:16px; text-anchor:middle;" transform="rotate(0, 259.408, 293.459)" x="259.408" y="293.459">year</text>
</g>
<polyline clip-path="url(#clip072)" style="stroke:#000000; stroke-width:0.5; stroke-opacity:0.1; fill:none" points="
  50.6272,229.273 468.189,229.273 
  "/>
<polyline clip-path="url(#clip072)" style="stroke:#000000; stroke-width:0.5; stroke-opacity:0.1; fill:none" points="
  50.6272,183.115 468.189,183.115 
  "/>
<polyline clip-path="url(#clip072)" style="stroke:#000000; stroke-width:0.5; stroke-opacity:0.1; fill:none" points="
  50.6272,136.956 468.189,136.956 
  "/>
<polyline clip-path="url(#clip072)" style="stroke:#000000; stroke-width:0.5; stroke-opacity:0.1; fill:none" points="
  50.6272,90.7975 468.189,90.7975 
  "/>
<polyline clip-path="url(#clip072)" style="stroke:#000000; stroke-width:0.5; stroke-opacity:0.1; fill:none" points="
  50.6272,44.639 468.189,44.639 
  "/>
<polyline clip-path="url(#clip070)" style="stroke:#000000; stroke-width:1; stroke-opacity:1; fill:none" points="
  50.6272,258.408 50.6272,11.811 
  "/>
<polyline clip-path="url(#clip070)" style="stroke:#000000; stroke-width:1; stroke-opacity:1; fill:none" points="
  50.6272,229.273 55.6379,229.273 
  "/>
<polyline clip-path="url(#clip070)" style="stroke:#000000; stroke-width:1; stroke-opacity:1; fill:none" points="
  50.6272,183.115 55.6379,183.115 
  "/>
<polyline clip-path="url(#clip070)" style="stroke:#000000; stroke-width:1; stroke-opacity:1; fill:none" points="
  50.6272,136.956 55.6379,136.956 
  "/>
<polyline clip-path="url(#clip070)" style="stroke:#000000; stroke-width:1; stroke-opacity:1; fill:none" points="
  50.6272,90.7975 55.6379,90.7975 
  "/>
<polyline clip-path="url(#clip070)" style="stroke:#000000; stroke-width:1; stroke-opacity:1; fill:none" points="
  50.6272,44.639 55.6379,44.639 
  "/>
<path clip-path="url(#clip070)" d="M 0 0 M31.1992 225.723 Q30.2965 225.723 29.8393 226.614 Q29.3879 227.499 29.3879 229.282 Q29.3879 231.058 29.8393 231.95 Q30.2965 232.835 31.1992 232.835 Q32.1078 232.835 32.5592 231.95 Q33.0164 231.058 33.0164 229.282 Q33.0164 227.499 32.5592 226.614 Q32.1078 225.723 31.1992 225.723 M31.1992 224.797 Q32.6518 224.797 33.4157 225.948 Q34.1853 227.094 34.1853 229.282 Q34.1853 231.463 33.4157 232.615 Q32.6518 233.761 31.1992 233.761 Q29.7467 233.761 28.977 232.615 Q28.2131 231.463 28.2131 229.282 Q28.2131 227.094 28.977 225.948 Q29.7467 224.797 31.1992 224.797 Z" fill="#000000" fill-rule="evenodd" fill-opacity="1" /><path clip-path="url(#clip070)" d="M 0 0 M35.4527 232.123 L36.6738 232.123 L36.6738 233.593 L35.4527 233.593 L35.4527 232.123 Z" fill="#000000" fill-rule="evenodd" fill-opacity="1" /><path clip-path="url(#clip070)" d="M 0 0 M40.4411 225.723 Q39.5383 225.723 39.0811 226.614 Q38.6298 227.499 38.6298 229.282 Q38.6298 231.058 39.0811 231.95 Q39.5383 232.835 40.4411 232.835 Q41.3497 232.835 41.801 231.95 Q42.2582 231.058 42.2582 229.282 Q42.2582 227.499 41.801 226.614 Q41.3497 225.723 40.4411 225.723 M40.4411 224.797 Q41.8936 224.797 42.6575 225.948 Q43.4272 227.094 43.4272 229.282 Q43.4272 231.463 42.6575 232.615 Q41.8936 233.761 40.4411 233.761 Q38.9886 233.761 38.2189 232.615 Q37.455 231.463 37.455 229.282 Q37.455 227.094 38.2189 225.948 Q38.9886 224.797 40.4411 224.797 Z" fill="#000000" fill-rule="evenodd" fill-opacity="1" /><path clip-path="url(#clip070)" d="M 0 0 M31.506 179.564 Q30.6032 179.564 30.146 180.455 Q29.6946 181.341 29.6946 183.123 Q29.6946 184.9 30.146 185.791 Q30.6032 186.676 31.506 186.676 Q32.4145 186.676 32.8659 185.791 Q33.3231 184.9 33.3231 183.123 Q33.3231 181.341 32.8659 180.455 Q32.4145 179.564 31.506 179.564 M31.506 178.638 Q32.9585 178.638 33.7224 179.79 Q34.492 180.936 34.492 183.123 Q34.492 185.305 33.7224 186.457 Q32.9585 187.602 31.506 187.602 Q30.0534 187.602 29.2837 186.457 Q28.5199 185.305 28.5199 183.123 Q28.5199 180.936 29.2837 179.79 Q30.0534 178.638 31.506 178.638 Z" fill="#000000" fill-rule="evenodd" fill-opacity="1" /><path clip-path="url(#clip070)" d="M 0 0 M35.7594 185.965 L36.9805 185.965 L36.9805 187.435 L35.7594 187.435 L35.7594 185.965 Z" fill="#000000" fill-rule="evenodd" fill-opacity="1" /><path clip-path="url(#clip070)" d="M 0 0 M38.4504 186.451 L40.3601 186.451 L40.3601 179.859 L38.2825 180.276 L38.2825 179.211 L40.3485 178.795 L41.5175 178.795 L41.5175 186.451 L43.4272 186.451 L43.4272 187.435 L38.4504 187.435 L38.4504 186.451 Z" fill="#000000" fill-rule="evenodd" fill-opacity="1" /><path clip-path="url(#clip070)" d="M 0 0 M31.5985 133.406 Q30.6958 133.406 30.2386 134.297 Q29.7872 135.182 29.7872 136.965 Q29.7872 138.741 30.2386 139.633 Q30.6958 140.518 31.5985 140.518 Q32.5071 140.518 32.9585 139.633 Q33.4157 138.741 33.4157 136.965 Q33.4157 135.182 32.9585 134.297 Q32.5071 133.406 31.5985 133.406 M31.5985 132.48 Q33.0511 132.48 33.815 133.631 Q34.5846 134.777 34.5846 136.965 Q34.5846 139.146 33.815 140.298 Q33.0511 141.444 31.5985 141.444 Q30.146 141.444 29.3763 140.298 Q28.6125 139.146 28.6125 136.965 Q28.6125 134.777 29.3763 133.631 Q30.146 132.48 31.5985 132.48 Z" fill="#000000" fill-rule="evenodd" fill-opacity="1" /><path clip-path="url(#clip070)" d="M 0 0 M35.852 139.806 L37.0731 139.806 L37.0731 141.276 L35.852 141.276 L35.852 139.806 Z" fill="#000000" fill-rule="evenodd" fill-opacity="1" /><path clip-path="url(#clip070)" d="M 0 0 M39.3473 140.292 L43.4272 140.292 L43.4272 141.276 L37.9411 141.276 L37.9411 140.292 Q38.6066 139.604 39.7524 138.446 Q40.9041 137.283 41.1992 136.947 Q41.7605 136.317 41.9804 135.883 Q42.2061 135.443 42.2061 135.02 Q42.2061 134.332 41.72 133.898 Q41.2397 133.464 40.4642 133.464 Q39.9145 133.464 39.3011 133.655 Q38.6934 133.846 37.999 134.233 L37.999 133.053 Q38.705 132.769 39.3184 132.624 Q39.9318 132.48 40.4411 132.48 Q41.7837 132.48 42.5823 133.151 Q43.3809 133.822 43.3809 134.945 Q43.3809 135.477 43.1783 135.958 Q42.9816 136.432 42.455 137.08 Q42.3103 137.248 41.5348 138.053 Q40.7594 138.851 39.3473 140.292 Z" fill="#000000" fill-rule="evenodd" fill-opacity="1" /><path clip-path="url(#clip070)" d="M 0 0 M31.3613 87.2472 Q30.4585 87.2472 30.0013 88.1384 Q29.5499 89.0238 29.5499 90.8062 Q29.5499 92.5828 30.0013 93.474 Q30.4585 94.3594 31.3613 94.3594 Q32.2698 94.3594 32.7212 93.474 Q33.1784 92.5828 33.1784 90.8062 Q33.1784 89.0238 32.7212 88.1384 Q32.2698 87.2472 31.3613 87.2472 M31.3613 86.3213 Q32.8138 86.3213 33.5777 87.4729 Q34.3474 88.6187 34.3474 90.8062 Q34.3474 92.9879 33.5777 94.1395 Q32.8138 95.2853 31.3613 95.2853 Q29.9087 95.2853 29.1391 94.1395 Q28.3752 92.9879 28.3752 90.8062 Q28.3752 88.6187 29.1391 87.4729 Q29.9087 86.3213 31.3613 86.3213 Z" fill="#000000" fill-rule="evenodd" fill-opacity="1" /><path clip-path="url(#clip070)" d="M 0 0 M35.6147 93.6476 L36.8358 93.6476 L36.8358 95.1175 L35.6147 95.1175 L35.6147 93.6476 Z" fill="#000000" fill-rule="evenodd" fill-opacity="1" /><path clip-path="url(#clip070)" d="M 0 0 M41.6448 90.459 Q42.4839 90.6384 42.9527 91.2055 Q43.4272 91.7726 43.4272 92.6059 Q43.4272 93.8849 42.5476 94.5851 Q41.6679 95.2853 40.0476 95.2853 Q39.5036 95.2853 38.9249 95.1754 Q38.352 95.0712 37.7386 94.8571 L37.7386 93.7286 Q38.2247 94.0122 38.8034 94.1569 Q39.3821 94.3015 40.0129 94.3015 Q41.1124 94.3015 41.6853 93.8675 Q42.264 93.4335 42.264 92.6059 Q42.264 91.8421 41.7258 91.4138 Q41.1934 90.9798 40.2385 90.9798 L39.2316 90.9798 L39.2316 90.0192 L40.2848 90.0192 Q41.1471 90.0192 41.6043 89.6777 Q42.0615 89.3305 42.0615 88.6824 Q42.0615 88.0169 41.5869 87.6638 Q41.1182 87.3051 40.2385 87.3051 Q39.7582 87.3051 39.2085 87.4092 Q38.6587 87.5134 37.999 87.7333 L37.999 86.6916 Q38.6645 86.5064 39.2432 86.4139 Q39.8277 86.3213 40.3427 86.3213 Q41.6737 86.3213 42.4492 86.9289 Q43.2246 87.5307 43.2246 88.5608 Q43.2246 89.2784 42.8138 89.7761 Q42.4029 90.268 41.6448 90.459 Z" fill="#000000" fill-rule="evenodd" fill-opacity="1" /><path clip-path="url(#clip070)" d="M 0 0 M31.0777 41.0886 Q30.1749 41.0886 29.7178 41.9798 Q29.2664 42.8653 29.2664 44.6477 Q29.2664 46.4243 29.7178 47.3155 Q30.1749 48.2009 31.0777 48.2009 Q31.9863 48.2009 32.4377 47.3155 Q32.8948 46.4243 32.8948 44.6477 Q32.8948 42.8653 32.4377 41.9798 Q31.9863 41.0886 31.0777 41.0886 M31.0777 40.1627 Q32.5303 40.1627 33.2941 41.3143 Q34.0638 42.4602 34.0638 44.6477 Q34.0638 46.8294 33.2941 47.981 Q32.5303 49.1268 31.0777 49.1268 Q29.6252 49.1268 28.8555 47.981 Q28.0916 46.8294 28.0916 44.6477 Q28.0916 42.4602 28.8555 41.3143 Q29.6252 40.1627 31.0777 40.1627 Z" fill="#000000" fill-rule="evenodd" fill-opacity="1" /><path clip-path="url(#clip070)" d="M 0 0 M35.3312 47.4891 L36.5522 47.4891 L36.5522 48.959 L35.3312 48.959 L35.3312 47.4891 Z" fill="#000000" fill-rule="evenodd" fill-opacity="1" /><path clip-path="url(#clip070)" d="M 0 0 M41.0314 41.3375 L38.08 45.9497 L41.0314 45.9497 L41.0314 41.3375 M40.7247 40.319 L42.1946 40.319 L42.1946 45.9497 L43.4272 45.9497 L43.4272 46.9219 L42.1946 46.9219 L42.1946 48.959 L41.0314 48.959 L41.0314 46.9219 L37.1309 46.9219 L37.1309 45.7935 L40.7247 40.319 Z" fill="#000000" fill-rule="evenodd" fill-opacity="1" /><g clip-path="url(#clip070)">
<text style="fill:#000000; fill-opacity:1; font-family:Arial,Helvetica Neue,Helvetica,sans-serif; font-size:16px; text-anchor:middle;" transform="rotate(-90, 18.0011, 135.11)" x="18.0011" y="135.11">anomaly (degrees C)</text>
</g>
<circle clip-path="url(#clip072)" cx="62.445" cy="251.429" r="3" fill="#009af9" fill-rule="evenodd" fill-opacity="1" stroke="#000000" stroke-opacity="1" stroke-width="0.6"/>
<circle clip-path="url(#clip072)" cx="106.215" cy="237.582" r="3" fill="#009af9" fill-rule="evenodd" fill-opacity="1" stroke="#000000" stroke-opacity="1" stroke-width="0.6"/>
<circle clip-path="url(#clip072)" cx="149.984" cy="245.89" r="3" fill="#009af9" fill-rule="evenodd" fill-opacity="1" stroke="#000000" stroke-opacity="1" stroke-width="0.6"/>
<circle clip-path="url(#clip072)" cx="193.754" cy="234.812" r="3" fill="#009af9" fill-rule="evenodd" fill-opacity="1" stroke="#000000" stroke-opacity="1" stroke-width="0.6"/>
<circle clip-path="url(#clip072)" cx="237.523" cy="231.119" r="3" fill="#009af9" fill-rule="evenodd" fill-opacity="1" stroke="#000000" stroke-opacity="1" stroke-width="0.6"/>
<circle clip-path="url(#clip072)" cx="281.293" cy="174.806" r="3" fill="#009af9" fill-rule="evenodd" fill-opacity="1" stroke="#000000" stroke-opacity="1" stroke-width="0.6"/>
<circle clip-path="url(#clip072)" cx="325.062" cy="132.34" r="3" fill="#009af9" fill-rule="evenodd" fill-opacity="1" stroke="#000000" stroke-opacity="1" stroke-width="0.6"/>
<circle clip-path="url(#clip072)" cx="368.832" cy="76.0268" r="3" fill="#009af9" fill-rule="evenodd" fill-opacity="1" stroke="#000000" stroke-opacity="1" stroke-width="0.6"/>
<circle clip-path="url(#clip072)" cx="412.602" cy="75.1036" r="3" fill="#009af9" fill-rule="evenodd" fill-opacity="1" stroke="#000000" stroke-opacity="1" stroke-width="0.6"/>
<circle clip-path="url(#clip072)" cx="456.371" cy="18.7902" r="3" fill="#009af9" fill-rule="evenodd" fill-opacity="1" stroke="#000000" stroke-opacity="1" stroke-width="0.6"/>
<path clip-path="url(#clip070)" d="
M385.346 250.188 L454.27 250.188 L454.27 219.948 L385.346 219.948  Z
  " fill="#ffffff" fill-rule="evenodd" fill-opacity="1"/>
<polyline clip-path="url(#clip070)" style="stroke:#000000; stroke-width:1; stroke-opacity:1; fill:none" points="
  385.346,250.188 454.27,250.188 454.27,219.948 385.346,219.948 385.346,250.188 
  "/>
<circle clip-path="url(#clip070)" cx="403.904" cy="235.068" r="5" fill="#009af9" fill-rule="evenodd" fill-opacity="1" stroke="#000000" stroke-opacity="1" stroke-width="0.96"/>
<path clip-path="url(#clip070)" d="M 0 0 M427.19 233.891 L427.19 230.384 L428.255 230.384 L428.255 239.388 L427.19 239.388 L427.19 238.416 Q426.855 238.995 426.34 239.279 Q425.83 239.556 425.113 239.556 Q423.938 239.556 423.197 238.619 Q422.462 237.681 422.462 236.154 Q422.462 234.626 423.197 233.688 Q423.938 232.751 425.113 232.751 Q425.83 232.751 426.34 233.034 Q426.855 233.312 427.19 233.891 M423.562 236.154 Q423.562 237.328 424.042 238 Q424.528 238.665 425.373 238.665 Q426.218 238.665 426.704 238 Q427.19 237.328 427.19 236.154 Q427.19 234.979 426.704 234.313 Q426.218 233.642 425.373 233.642 Q424.528 233.642 424.042 234.313 Q423.562 234.979 423.562 236.154 Z" fill="#000000" fill-rule="evenodd" fill-opacity="1" /><path clip-path="url(#clip070)" d="M 0 0 M432.318 236.13 Q431.027 236.13 430.529 236.426 Q430.032 236.721 430.032 237.432 Q430.032 238 430.402 238.335 Q430.778 238.665 431.421 238.665 Q432.306 238.665 432.838 238.04 Q433.377 237.409 433.377 236.368 L433.377 236.13 L432.318 236.13 M434.441 235.691 L434.441 239.388 L433.377 239.388 L433.377 238.405 Q433.012 238.995 432.468 239.279 Q431.924 239.556 431.137 239.556 Q430.142 239.556 429.551 239.001 Q428.967 238.439 428.967 237.502 Q428.967 236.408 429.696 235.853 Q430.431 235.297 431.884 235.297 L433.377 235.297 L433.377 235.193 Q433.377 234.458 432.89 234.059 Q432.41 233.654 431.536 233.654 Q430.981 233.654 430.454 233.787 Q429.928 233.92 429.441 234.186 L429.441 233.202 Q430.026 232.976 430.576 232.867 Q431.125 232.751 431.646 232.751 Q433.053 232.751 433.747 233.48 Q434.441 234.209 434.441 235.691 Z" fill="#000000" fill-rule="evenodd" fill-opacity="1" /><path clip-path="url(#clip070)" d="M 0 0 M436.612 231.067 L436.612 232.907 L438.805 232.907 L438.805 233.735 L436.612 233.735 L436.612 237.253 Q436.612 238.046 436.826 238.272 Q437.046 238.497 437.711 238.497 L438.805 238.497 L438.805 239.388 L437.711 239.388 Q436.478 239.388 436.01 238.931 Q435.541 238.468 435.541 237.253 L435.541 233.735 L434.76 233.735 L434.76 232.907 L435.541 232.907 L435.541 231.067 L436.612 231.067 Z" fill="#000000" fill-rule="evenodd" fill-opacity="1" /><path clip-path="url(#clip070)" d="M 0 0 M442.867 236.13 Q441.577 236.13 441.079 236.426 Q440.581 236.721 440.581 237.432 Q440.581 238 440.952 238.335 Q441.328 238.665 441.97 238.665 Q442.856 238.665 443.388 238.04 Q443.926 237.409 443.926 236.368 L443.926 236.13 L442.867 236.13 M444.991 235.691 L444.991 239.388 L443.926 239.388 L443.926 238.405 Q443.562 238.995 443.018 239.279 Q442.474 239.556 441.687 239.556 Q440.691 239.556 440.101 239.001 Q439.517 238.439 439.517 237.502 Q439.517 236.408 440.246 235.853 Q440.981 235.297 442.433 235.297 L443.926 235.297 L443.926 235.193 Q443.926 234.458 443.44 234.059 Q442.96 233.654 442.086 233.654 Q441.53 233.654 441.004 233.787 Q440.477 233.92 439.991 234.186 L439.991 233.202 Q440.576 232.976 441.125 232.867 Q441.675 232.751 442.196 232.751 Q443.602 232.751 444.297 233.48 Q444.991 234.209 444.991 235.691 Z" fill="#000000" fill-rule="evenodd" fill-opacity="1" /></svg>
