<?xml version="1.0" encoding="utf-8"?>
<svg xmlns="http://www.w3.org/2000/svg" xmlns:xlink="http://www.w3.org/1999/xlink" width="120" height="75" viewBox="0 0 480 300">
<defs>
  <clipPath id="clip110">
    <rect x="0" y="0" width="480" height="300"/>
  </clipPath>
</defs>
<path clip-path="url(#clip110)" d="
M0 300 L480 300 L480 0 L0 0  Z
  " fill="#ffffff" fill-rule="evenodd" fill-opacity="1"/>
<defs>
  <clipPath id="clip111">
    <rect x="96" y="0" width="337" height="300"/>
  </clipPath>
</defs>
<path clip-path="url(#clip110)" d="
M50.6272 258.408 L468.189 258.408 L468.189 11.811 L50.6272 11.811  Z
  " fill="#ffffff" fill-rule="evenodd" fill-opacity="1"/>
<defs>
  <clipPath id="clip112">
    <rect x="50" y="11" width="419" height="248"/>
  </clipPath>
</defs>
<polyline clip-path="url(#clip112)" style="stroke:#000000; stroke-width:0.5; stroke-opacity:0.1; fill:none" points="
  106.215,258.408 106.215,11.811 
  "/>
<polyline clip-path="url(#clip112)" style="stroke:#000000; stroke-width:0.5; stroke-opacity:0.1; fill:none" points="
  193.754,258.408 193.754,11.811 
  "/>
<polyline clip-path="url(#clip112)" style="stroke:#000000; stroke-width:0.5; stroke-opacity:0.1; fill:none" points="
  281.293,258.408 281.293,11.811 
  "/>
<polyline clip-path="url(#clip112)" style="stroke:#000000; stroke-width:0.5; stroke-opacity:0.1; fill:none" points="
  368.832,258.408 368.832,11.811 
  "/>
<polyline clip-path="url(#clip112)" style="stroke:#000000; stroke-width:0.5; stroke-opacity:0.1; fill:none" points="
  456.371,258.408 456.371,11.811 
  "/>
<polyline clip-path="url(#clip110)" style="stroke:#000000; stroke-width:1; stroke-opacity:1; fill:none" points="
  50.6272,258.408 468.189,258.408 
  "/>
<polyline clip-path="url(#clip110)" style="stroke:#000000; stroke-width:1; stroke-opacity:1; fill:none" points="
  106.215,258.408 106.215,255.449 
  "/>
<polyline clip-path="url(#clip110)" style="stroke:#000000; stroke-width:1; stroke-opacity:1; fill:none" points="
  193.754,258.408 193.754,255.449 
  "/>
<polyline clip-path="url(#clip110)" style="stroke:#000000; stroke-width:1; stroke-opacity:1; fill:none" points="
  281.293,258.408 281.293,255.449 
  "/>
<polyline clip-path="url(#clip110)" style="stroke:#000000; stroke-width:1; stroke-opacity:1; fill:none" points="
  368.832,258.408 368.832,255.449 
  "/>
<polyline clip-path="url(#clip110)" style="stroke:#000000; stroke-width:1; stroke-opacity:1; fill:none" points="
  456.371,258.408 456.371,255.449 
  "/>
<path clip-path="url(#clip110)" d="M 0 0 M93.6828 271.633 L95.5925 271.633 L95.5925 265.041 L93.515 265.458 L93.515 264.393 L95.5809 263.976 L96.7499 263.976 L96.7499 271.633 L98.6596 271.633 L98.6596 272.616 L93.6828 272.616 L93.6828 271.633 Z" fill="#000000" fill-rule="evenodd" fill-opacity="1" /><path clip-path="url(#clip110)" d="M 0 0 M99.9617 272.437 L99.9617 271.372 Q100.402 271.581 100.853 271.69 Q101.304 271.8 101.738 271.8 Q102.896 271.8 103.503 271.025 Q104.117 270.244 104.204 268.658 Q103.868 269.156 103.353 269.422 Q102.838 269.688 102.213 269.688 Q100.917 269.688 100.158 268.907 Q99.4061 268.12 99.4061 266.76 Q99.4061 265.429 100.193 264.625 Q100.98 263.82 102.288 263.82 Q103.787 263.82 104.574 264.972 Q105.367 266.118 105.367 268.305 Q105.367 270.348 104.395 271.569 Q103.428 272.784 101.79 272.784 Q101.351 272.784 100.899 272.697 Q100.448 272.611 99.9617 272.437 M102.288 268.774 Q103.075 268.774 103.532 268.236 Q103.995 267.697 103.995 266.76 Q103.995 265.828 103.532 265.29 Q103.075 264.746 102.288 264.746 Q101.501 264.746 101.038 265.29 Q100.581 265.828 100.581 266.76 Q100.581 267.697 101.038 268.236 Q101.501 268.774 102.288 268.774 Z" fill="#000000" fill-rule="evenodd" fill-opacity="1" /><path clip-path="url(#clip110)" d="M 0 0 M109.279 267.831 Q108.492 267.831 108.029 268.369 Q107.572 268.907 107.572 269.844 Q107.572 270.776 108.029 271.32 Q108.492 271.858 109.279 271.858 Q110.066 271.858 110.523 271.32 Q110.986 270.776 110.986 269.844 Q110.986 268.907 110.523 268.369 Q110.066 267.831 109.279 267.831 M111.599 264.167 L111.599 265.232 Q111.16 265.024 110.708 264.914 Q110.263 264.804 109.823 264.804 Q108.665 264.804 108.052 265.585 Q107.444 266.366 107.357 267.946 Q107.699 267.443 108.214 267.177 Q108.729 266.905 109.348 266.905 Q110.65 266.905 111.403 267.697 Q112.161 268.484 112.161 269.844 Q112.161 271.175 111.374 271.98 Q110.587 272.784 109.279 272.784 Q107.78 272.784 106.987 271.638 Q106.194 270.487 106.194 268.305 Q106.194 266.256 107.167 265.041 Q108.139 263.82 109.776 263.82 Q110.216 263.82 110.662 263.907 Q111.113 263.994 111.599 264.167 Z" fill="#000000" fill-rule="evenodd" fill-opacity="1" /><path clip-path="url(#clip110)" d="M 0 0 M115.928 264.746 Q115.025 264.746 114.568 265.637 Q114.117 266.523 114.117 268.305 Q114.117 270.082 114.568 270.973 Q115.025 271.858 115.928 271.858 Q116.837 271.858 117.288 270.973 Q117.745 270.082 117.745 268.305 Q117.745 266.523 117.288 265.637 Q116.837 264.746 115.928 264.746 M115.928 263.82 Q117.381 263.82 118.144 264.972 Q118.914 266.118 118.914 268.305 Q118.914 270.487 118.144 271.638 Q117.381 272.784 115.928 272.784 Q114.476 272.784 113.706 271.638 Q112.942 270.487 112.942 268.305 Q112.942 266.118 113.706 264.972 Q114.476 263.82 115.928 263.82 Z" fill="#000000" fill-rule="evenodd" fill-opacity="1" /><path clip-path="url(#clip110)" d="M 0 0 M181.355 271.633 L183.265 271.633 L183.265 265.041 L181.187 265.458 L181.187 264.393 L183.253 263.976 L184.422 263.976 L184.422 271.633 L186.332 271.633 L186.332 272.616 L181.355 272.616 L181.355 271.633 Z" fill="#000000" fill-rule="evenodd" fill-opacity="1" /><path clip-path="url(#clip110)" d="M 0 0 M187.634 272.437 L187.634 271.372 Q188.074 271.581 188.525 271.69 Q188.977 271.8 189.411 271.8 Q190.568 271.8 191.176 271.025 Q191.789 270.244 191.876 268.658 Q191.54 269.156 191.025 269.422 Q190.51 269.688 189.885 269.688 Q188.589 269.688 187.831 268.907 Q187.078 268.12 187.078 266.76 Q187.078 265.429 187.865 264.625 Q188.652 263.82 189.96 263.82 Q191.459 263.82 192.246 264.972 Q193.039 266.118 193.039 268.305 Q193.039 270.348 192.067 271.569 Q191.1 272.784 189.463 272.784 Q189.023 272.784 188.571 272.697 Q188.12 272.611 187.634 272.437 M189.96 268.774 Q190.747 268.774 191.205 268.236 Q191.667 267.697 191.667 266.76 Q191.667 265.828 191.205 265.29 Q190.747 264.746 189.96 264.746 Q189.173 264.746 188.71 265.29 Q188.253 265.828 188.253 266.76 Q188.253 267.697 188.71 268.236 Q189.173 268.774 189.96 268.774 Z" fill="#000000" fill-rule="evenodd" fill-opacity="1" /><path clip-path="url(#clip110)" d="M 0 0 M194.011 263.976 L199.567 263.976 L199.567 264.474 L196.43 272.616 L195.209 272.616 L198.161 264.96 L194.011 264.96 L194.011 263.976 Z" fill="#000000" fill-rule="evenodd" fill-opacity="1" /><path clip-path="url(#clip110)" d="M 0 0 M203.334 264.746 Q202.431 264.746 201.974 265.637 Q201.523 266.523 201.523 268.305 Q201.523 270.082 201.974 270.973 Q202.431 271.858 203.334 271.858 Q204.243 271.858 204.694 270.973 Q205.151 270.082 205.151 268.305 Q205.151 266.523 204.694 265.637 Q204.243 264.746 203.334 264.746 M203.334 263.82 Q204.787 263.82 205.551 264.972 Q206.32 266.118 206.32 268.305 Q206.32 270.487 205.551 271.638 Q204.787 272.784 203.334 272.784 Q201.882 272.784 201.112 271.638 Q200.348 270.487 200.348 268.305 Q200.348 266.118 201.112 264.972 Q201.882 263.82 203.334 263.82 Z" fill="#000000" fill-rule="evenodd" fill-opacity="1" /><path clip-path="url(#clip110)" d="M 0 0 M268.793 271.633 L270.703 271.633 L270.703 265.041 L268.625 265.458 L268.625 264.393 L270.691 263.976 L271.86 263.976 L271.86 271.633 L273.77 271.633 L273.77 272.616 L268.793 272.616 L268.793 271.633 Z" fill="#000000" fill-rule="evenodd" fill-opacity="1" /><path clip-path="url(#clip110)" d="M 0 0 M275.072 272.437 L275.072 271.372 Q275.512 271.581 275.963 271.69 Q276.414 271.8 276.848 271.8 Q278.006 271.8 278.613 271.025 Q279.227 270.244 279.314 268.658 Q278.978 269.156 278.463 269.422 Q277.948 269.688 277.323 269.688 Q276.027 269.688 275.269 268.907 Q274.516 268.12 274.516 266.76 Q274.516 265.429 275.303 264.625 Q276.09 263.82 277.398 263.82 Q278.897 263.82 279.684 264.972 Q280.477 266.118 280.477 268.305 Q280.477 270.348 279.505 271.569 Q278.538 272.784 276.901 272.784 Q276.461 272.784 276.009 272.697 Q275.558 272.611 275.072 272.437 M277.398 268.774 Q278.185 268.774 278.642 268.236 Q279.105 267.697 279.105 266.76 Q279.105 265.828 278.642 265.29 Q278.185 264.746 277.398 264.746 Q276.611 264.746 276.148 265.29 Q275.691 265.828 275.691 266.76 Q275.691 267.697 276.148 268.236 Q276.611 268.774 277.398 268.774 Z" fill="#000000" fill-rule="evenodd" fill-opacity="1" /><path clip-path="url(#clip110)" d="M 0 0 M284.244 268.513 Q283.411 268.513 282.931 268.959 Q282.456 269.405 282.456 270.186 Q282.456 270.967 282.931 271.413 Q283.411 271.858 284.244 271.858 Q285.078 271.858 285.558 271.413 Q286.038 270.961 286.038 270.186 Q286.038 269.405 285.558 268.959 Q285.083 268.513 284.244 268.513 M283.075 268.016 Q282.323 267.831 281.901 267.315 Q281.484 266.8 281.484 266.06 Q281.484 265.024 282.219 264.422 Q282.96 263.82 284.244 263.82 Q285.535 263.82 286.27 264.422 Q287.005 265.024 287.005 266.06 Q287.005 266.8 286.582 267.315 Q286.166 267.831 285.419 268.016 Q286.264 268.212 286.733 268.785 Q287.207 269.358 287.207 270.186 Q287.207 271.442 286.438 272.113 Q285.674 272.784 284.244 272.784 Q282.815 272.784 282.045 272.113 Q281.281 271.442 281.281 270.186 Q281.281 269.358 281.756 268.785 Q282.23 268.212 283.075 268.016 M282.647 266.17 Q282.647 266.841 283.064 267.217 Q283.486 267.593 284.244 267.593 Q284.997 267.593 285.419 267.217 Q285.847 266.841 285.847 266.17 Q285.847 265.498 285.419 265.122 Q284.997 264.746 284.244 264.746 Q283.486 264.746 283.064 265.122 Q282.647 265.498 282.647 266.17 Z" fill="#000000" fill-rule="evenodd" fill-opacity="1" /><path clip-path="url(#clip110)" d="M 0 0 M290.975 264.746 Q290.072 264.746 289.615 265.637 Q289.163 266.523 289.163 268.305 Q289.163 270.082 289.615 270.973 Q290.072 271.858 290.975 271.858 Q291.883 271.858 292.334 270.973 Q292.792 270.082 292.792 268.305 Q292.792 266.523 292.334 265.637 Q291.883 264.746 290.975 264.746 M290.975 263.82 Q292.427 263.82 293.191 264.972 Q293.961 266.118 293.961 268.305 Q293.961 270.487 293.191 271.638 Q292.427 272.784 290.975 272.784 Q289.522 272.784 288.752 271.638 Q287.988 270.487 287.988 268.305 Q287.988 266.118 288.752 264.972 Q289.522 263.82 290.975 263.82 Z" fill="#000000" fill-rule="evenodd" fill-opacity="1" /><path clip-path="url(#clip110)" d="M 0 0 M356.344 271.633 L358.253 271.633 L358.253 265.041 L356.176 265.458 L356.176 264.393 L358.242 263.976 L359.411 263.976 L359.411 271.633 L361.32 271.633 L361.32 272.616 L356.344 272.616 L356.344 271.633 Z" fill="#000000" fill-rule="evenodd" fill-opacity="1" /><path clip-path="url(#clip110)" d="M 0 0 M362.623 272.437 L362.623 271.372 Q363.062 271.581 363.514 271.69 Q363.965 271.8 364.399 271.8 Q365.557 271.8 366.164 271.025 Q366.778 270.244 366.864 268.658 Q366.529 269.156 366.014 269.422 Q365.499 269.688 364.874 269.688 Q363.577 269.688 362.819 268.907 Q362.067 268.12 362.067 266.76 Q362.067 265.429 362.854 264.625 Q363.641 263.82 364.949 263.82 Q366.448 263.82 367.235 264.972 Q368.028 266.118 368.028 268.305 Q368.028 270.348 367.055 271.569 Q366.089 272.784 364.451 272.784 Q364.011 272.784 363.56 272.697 Q363.109 272.611 362.623 272.437 M364.949 268.774 Q365.736 268.774 366.193 268.236 Q366.656 267.697 366.656 266.76 Q366.656 265.828 366.193 265.29 Q365.736 264.746 364.949 264.746 Q364.162 264.746 363.699 265.29 Q363.242 265.828 363.242 266.76 Q363.242 267.697 363.699 268.236 Q364.162 268.774 364.949 268.774 Z" fill="#000000" fill-rule="evenodd" fill-opacity="1" /><path clip-path="url(#clip110)" d="M 0 0 M369.33 272.437 L369.33 271.372 Q369.77 271.581 370.221 271.69 Q370.672 271.8 371.106 271.8 Q372.264 271.8 372.871 271.025 Q373.485 270.244 373.572 268.658 Q373.236 269.156 372.721 269.422 Q372.206 269.688 371.581 269.688 Q370.285 269.688 369.526 268.907 Q368.774 268.12 368.774 266.76 Q368.774 265.429 369.561 264.625 Q370.348 263.82 371.656 263.82 Q373.155 263.82 373.942 264.972 Q374.735 266.118 374.735 268.305 Q374.735 270.348 373.763 271.569 Q372.796 272.784 371.158 272.784 Q370.719 272.784 370.267 272.697 Q369.816 272.611 369.33 272.437 M371.656 268.774 Q372.443 268.774 372.9 268.236 Q373.363 267.697 373.363 266.76 Q373.363 265.828 372.9 265.29 Q372.443 264.746 371.656 264.746 Q370.869 264.746 370.406 265.29 Q369.949 265.828 369.949 266.76 Q369.949 267.697 370.406 268.236 Q370.869 268.774 371.656 268.774 Z" fill="#000000" fill-rule="evenodd" fill-opacity="1" /><path clip-path="url(#clip110)" d="M 0 0 M378.502 264.746 Q377.599 264.746 377.142 265.637 Q376.691 266.523 376.691 268.305 Q376.691 270.082 377.142 270.973 Q377.599 271.858 378.502 271.858 Q379.411 271.858 379.862 270.973 Q380.319 270.082 380.319 268.305 Q380.319 266.523 379.862 265.637 Q379.411 264.746 378.502 264.746 M378.502 263.82 Q379.955 263.82 380.719 264.972 Q381.488 266.118 381.488 268.305 Q381.488 270.487 380.719 271.638 Q379.955 272.784 378.502 272.784 Q377.05 272.784 376.28 271.638 Q375.516 270.487 375.516 268.305 Q375.516 266.118 376.28 264.972 Q377.05 263.82 378.502 263.82 Z" fill="#000000" fill-rule="evenodd" fill-opacity="1" /><path clip-path="url(#clip110)" d="M 0 0 M444.904 271.633 L448.984 271.633 L448.984 272.616 L443.498 272.616 L443.498 271.633 Q444.164 270.944 445.309 269.787 Q446.461 268.623 446.756 268.288 Q447.317 267.657 447.537 267.223 Q447.763 266.783 447.763 266.361 Q447.763 265.672 447.277 265.238 Q446.797 264.804 446.021 264.804 Q445.471 264.804 444.858 264.995 Q444.25 265.186 443.556 265.574 L443.556 264.393 Q444.262 264.109 444.875 263.965 Q445.489 263.82 445.998 263.82 Q447.341 263.82 448.139 264.491 Q448.938 265.163 448.938 266.285 Q448.938 266.818 448.735 267.298 Q448.538 267.773 448.012 268.421 Q447.867 268.589 447.092 269.393 Q446.316 270.192 444.904 271.633 Z" fill="#000000" fill-rule="evenodd" fill-opacity="1" /><path clip-path="url(#clip110)" d="M 0 0 M452.751 264.746 Q451.849 264.746 451.391 265.637 Q450.94 266.523 450.94 268.305 Q450.94 270.082 451.391 270.973 Q451.849 271.858 452.751 271.858 Q453.66 271.858 454.111 270.973 Q454.569 270.082 454.569 268.305 Q454.569 266.523 454.111 265.637 Q453.66 264.746 452.751 264.746 M452.751 263.82 Q454.204 263.82 454.968 264.972 Q455.738 266.118 455.738 268.305 Q455.738 270.487 454.968 271.638 Q454.204 272.784 452.751 272.784 Q451.299 272.784 450.529 271.638 Q449.765 270.487 449.765 268.305 Q449.765 266.118 450.529 264.972 Q451.299 263.82 452.751 263.82 Z" fill="#000000" fill-rule="evenodd" fill-opacity="1" /><path clip-path="url(#clip110)" d="M 0 0 M459.505 264.746 Q458.602 264.746 458.145 265.637 Q457.694 266.523 457.694 268.305 Q457.694 270.082 458.145 270.973 Q458.602 271.858 459.505 271.858 Q460.413 271.858 460.865 270.973 Q461.322 270.082 461.322 268.305 Q461.322 266.523 460.865 265.637 Q460.413 264.746 459.505 264.746 M459.505 263.82 Q460.957 263.82 461.721 264.972 Q462.491 266.118 462.491 268.305 Q462.491 270.487 461.721 271.638 Q460.957 272.784 459.505 272.784 Q458.052 272.784 457.283 271.638 Q456.519 270.487 456.519 268.305 Q456.519 266.118 457.283 264.972 Q458.052 263.82 459.505 263.82 Z" fill="#000000" fill-rule="evenodd" fill-opacity="1" /><path clip-path="url(#clip110)" d="M 0 0 M466.258 264.746 Q465.356 264.746 464.898 265.637 Q464.447 266.523 464.447 268.305 Q464.447 270.082 464.898 270.973 Q465.356 271.858 466.258 271.858 Q467.167 271.858 467.618 270.973 Q468.075 270.082 468.075 268.305 Q468.075 266.523 467.618 265.637 Q467.167 264.746 466.258 264.746 M466.258 263.82 Q467.711 263.82 468.475 264.972 Q469.244 266.118 469.244 268.305 Q469.244 270.487 468.475 271.638 Q467.711 272.784 466.258 272.784 Q464.806 272.784 464.036 271.638 Q463.272 270.487 463.272 268.305 Q463.272 266.118 464.036 264.972 Q464.806 263.82 466.258 263.82 Z" fill="#000000" fill-rule="evenodd" fill-opacity="1" /><g clip-path="url(#clip110)">
<text style="fill:#000000; fill-opacity:1; font-family:Arial,Helvetica Neue,Helvetica,sans-serif; font-size:16px; text-anchor:middle;" transform="rotate(0, 259.408, 293.459)" x="259.408" y="293.459">year</text>
</g>
<polyline clip-path="url(#clip112)" style="stroke:#000000; stroke-width:0.5; stroke-opacity:0.1; fill:none" points="
  50.6272,218.941 468.189,218.941 
  "/>
<polyline clip-path="url(#clip112)" style="stroke:#000000; stroke-width:0.5; stroke-opacity:0.1; fill:none" points="
  50.6272,175.049 468.189,175.049 
  "/>
<polyline clip-path="url(#clip112)" style="stroke:#000000; stroke-width:0.5; stroke-opacity:0.1; fill:none" points="
  50.6272,131.156 468.189,131.156 
  "/>
<polyline clip-path="url(#clip112)" style="stroke:#000000; stroke-width:0.5; stroke-opacity:0.1; fill:none" points="
  50.6272,87.263 468.189,87.263 
  "/>
<polyline clip-path="url(#clip112)" style="stroke:#000000; stroke-width:0.5; stroke-opacity:0.1; fill:none" points="
  50.6272,43.3702 468.189,43.3702 
  "/>
<polyline clip-path="url(#clip110)" style="stroke:#000000; stroke-width:1; stroke-opacity:1; fill:none" points="
  50.6272,258.408 50.6272,11.811 
  "/>
<polyline clip-path="url(#clip110)" style="stroke:#000000; stroke-width:1; stroke-opacity:1; fill:none" points="
  50.6272,218.941 55.6379,218.941 
  "/>
<polyline clip-path="url(#clip110)" style="stroke:#000000; stroke-width:1; stroke-opacity:1; fill:none" points="
  50.6272,175.049 55.6379,175.049 
  "/>
<polyline clip-path="url(#clip110)" style="stroke:#000000; stroke-width:1; stroke-opacity:1; fill:none" points="
  50.6272,131.156 55.6379,131.156 
  "/>
<polyline clip-path="url(#clip110)" style="stroke:#000000; stroke-width:1; stroke-opacity:1; fill:none" points="
  50.6272,87.263 55.6379,87.263 
  "/>
<polyline clip-path="url(#clip110)" style="stroke:#000000; stroke-width:1; stroke-opacity:1; fill:none" points="
  50.6272,43.3702 55.6379,43.3702 
  "/>
<path clip-path="url(#clip110)" d="M 0 0 M31.1992 215.391 Q30.2965 215.391 29.8393 216.282 Q29.3879 217.168 29.3879 218.95 Q29.3879 220.727 29.8393 221.618 Q30.2965 222.503 31.1992 222.503 Q32.1078 222.503 32.5592 221.618 Q33.0164 220.727 33.0164 218.95 Q33.0164 217.168 32.5592 216.282 Q32.1078 215.391 31.1992 215.391 M31.1992 214.465 Q32.6518 214.465 33.4157 215.617 Q34.1853 216.763 34.1853 218.95 Q34.1853 221.132 33.4157 222.283 Q32.6518 223.429 31.1992 223.429 Q29.7467 223.429 28.977 222.283 Q28.2131 221.132 28.2131 218.95 Q28.2131 216.763 28.977 215.617 Q29.7467 214.465 31.1992 214.465 Z" fill="#000000" fill-rule="evenodd" fill-opacity="1" /><path clip-path="url(#clip110)" d="M 0 0 M35.4527 221.791 L36.6738 221.791 L36.6738 223.261 L35.4527 223.261 L35.4527 221.791 Z" fill="#000000" fill-rule="evenodd" fill-opacity="1" /><path clip-path="url(#clip110)" d="M 0 0 M40.4411 215.391 Q39.5383 215.391 39.0811 216.282 Q38.6298 217.168 38.6298 218.95 Q38.6298 220.727 39.0811 221.618 Q39.5383 222.503 40.4411 222.503 Q41.3497 222.503 41.801 221.618 Q42.2582 220.727 42.2582 218.95 Q42.2582 217.168 41.801 216.282 Q41.3497 215.391 40.4411 215.391 M40.4411 214.465 Q41.8936 214.465 42.6575 215.617 Q43.4272 216.763 43.4272 218.95 Q43.4272 221.132 42.6575 222.283 Q41.8936 223.429 40.4411 223.429 Q38.9886 223.429 38.2189 222.283 Q37.455 221.132 37.455 218.95 Q37.455 216.763 38.2189 215.617 Q38.9886 214.465 40.4411 214.465 Z" fill="#000000" fill-rule="evenodd" fill-opacity="1" /><path clip-path="url(#clip110)" d="M 0 0 M31.506 171.498 Q30.6032 171.498 30.146 172.389 Q29.6946 173.275 29.6946 175.057 Q29.6946 176.834 30.146 177.725 Q30.6032 178.61 31.506 178.61 Q32.4145 178.61 32.8659 177.725 Q33.3231 176.834 33.3231 175.057 Q33.3231 173.275 32.8659 172.389 Q32.4145 171.498 31.506 171.498 M31.506 170.572 Q32.9585 170.572 33.7224 171.724 Q34.492 172.87 34.492 175.057 Q34.492 177.239 33.7224 178.391 Q32.9585 179.536 31.506 179.536 Q30.0534 179.536 29.2837 178.391 Q28.5199 177.239 28.5199 175.057 Q28.5199 172.87 29.2837 171.724 Q30.0534 170.572 31.506 170.572 Z" fill="#000000" fill-rule="evenodd" fill-opacity="1" /><path clip-path="url(#clip110)" d="M 0 0 M35.7594 177.899 L36.9805 177.899 L36.9805 179.369 L35.7594 179.369 L35.7594 177.899 Z" fill="#000000" fill-rule="evenodd" fill-opacity="1" /><path clip-path="url(#clip110)" d="M 0 0 M38.4504 178.385 L40.3601 178.385 L40.3601 171.793 L38.2825 172.21 L38.2825 171.145 L40.3485 170.729 L41.5175 170.729 L41.5175 178.385 L43.4272 178.385 L43.4272 179.369 L38.4504 179.369 L38.4504 178.385 Z" fill="#000000" fill-rule="evenodd" fill-opacity="1" /><path clip-path="url(#clip110)" d="M 0 0 M31.5985 127.605 Q30.6958 127.605 30.2386 128.497 Q29.7872 129.382 29.7872 131.164 Q29.7872 132.941 30.2386 133.832 Q30.6958 134.718 31.5985 134.718 Q32.5071 134.718 32.9585 133.832 Q33.4157 132.941 33.4157 131.164 Q33.4157 129.382 32.9585 128.497 Q32.5071 127.605 31.5985 127.605 M31.5985 126.68 Q33.0511 126.68 33.815 127.831 Q34.5846 128.977 34.5846 131.164 Q34.5846 133.346 33.815 134.498 Q33.0511 135.644 31.5985 135.644 Q30.146 135.644 29.3763 134.498 Q28.6125 133.346 28.6125 131.164 Q28.6125 128.977 29.3763 127.831 Q30.146 126.68 31.5985 126.68 Z" fill="#000000" fill-rule="evenodd" fill-opacity="1" /><path clip-path="url(#clip110)" d="M 0 0 M35.852 134.006 L37.0731 134.006 L37.0731 135.476 L35.852 135.476 L35.852 134.006 Z" fill="#000000" fill-rule="evenodd" fill-opacity="1" /><path clip-path="url(#clip110)" d="M 0 0 M39.3473 134.492 L43.4272 134.492 L43.4272 135.476 L37.9411 135.476 L37.9411 134.492 Q38.6066 133.803 39.7524 132.646 Q40.9041 131.483 41.1992 131.147 Q41.7605 130.516 41.9804 130.082 Q42.2061 129.642 42.2061 129.22 Q42.2061 128.531 41.72 128.097 Q41.2397 127.663 40.4642 127.663 Q39.9145 127.663 39.3011 127.854 Q38.6934 128.045 37.999 128.433 L37.999 127.252 Q38.705 126.969 39.3184 126.824 Q39.9318 126.68 40.4411 126.68 Q41.7837 126.68 42.5823 127.351 Q43.3809 128.022 43.3809 129.145 Q43.3809 129.677 43.1783 130.158 Q42.9816 130.632 42.455 131.28 Q42.3103 131.448 41.5348 132.252 Q40.7594 133.051 39.3473 134.492 Z" fill="#000000" fill-rule="evenodd" fill-opacity="1" /><path clip-path="url(#clip110)" d="M 0 0 M31.3613 83.7126 Q30.4585 83.7126 30.0013 84.6038 Q29.5499 85.4893 29.5499 87.2717 Q29.5499 89.0483 30.0013 89.9395 Q30.4585 90.8249 31.3613 90.8249 Q32.2698 90.8249 32.7212 89.9395 Q33.1784 89.0483 33.1784 87.2717 Q33.1784 85.4893 32.7212 84.6038 Q32.2698 83.7126 31.3613 83.7126 M31.3613 82.7867 Q32.8138 82.7867 33.5777 83.9383 Q34.3474 85.0842 34.3474 87.2717 Q34.3474 89.4534 33.5777 90.605 Q32.8138 91.7508 31.3613 91.7508 Q29.9087 91.7508 29.1391 90.605 Q28.3752 89.4534 28.3752 87.2717 Q28.3752 85.0842 29.1391 83.9383 Q29.9087 82.7867 31.3613 82.7867 Z" fill="#000000" fill-rule="evenodd" fill-opacity="1" /><path clip-path="url(#clip110)" d="M 0 0 M35.6147 90.1131 L36.8358 90.1131 L36.8358 91.583 L35.6147 91.583 L35.6147 90.1131 Z" fill="#000000" fill-rule="evenodd" fill-opacity="1" /><path clip-path="url(#clip110)" d="M 0 0 M41.6448 86.9244 Q42.4839 87.1038 42.9527 87.671 Q43.4272 88.2381 43.4272 89.0714 Q43.4272 90.3503 42.5476 91.0506 Q41.6679 91.7508 40.0476 91.7508 Q39.5036 91.7508 38.9249 91.6408 Q38.352 91.5367 37.7386 91.3226 L37.7386 90.1941 Q38.2247 90.4777 38.8034 90.6223 Q39.3821 90.767 40.0129 90.767 Q41.1124 90.767 41.6853 90.333 Q42.264 89.899 42.264 89.0714 Q42.264 88.3075 41.7258 87.8793 Q41.1934 87.4453 40.2385 87.4453 L39.2316 87.4453 L39.2316 86.4846 L40.2848 86.4846 Q41.1471 86.4846 41.6043 86.1432 Q42.0615 85.796 42.0615 85.1478 Q42.0615 84.4823 41.5869 84.1293 Q41.1182 83.7705 40.2385 83.7705 Q39.7582 83.7705 39.2085 83.8747 Q38.6587 83.9788 37.999 84.1988 L37.999 83.1571 Q38.6645 82.9719 39.2432 82.8793 Q39.8277 82.7867 40.3427 82.7867 Q41.6737 82.7867 42.4492 83.3944 Q43.2246 83.9962 43.2246 85.0263 Q43.2246 85.7439 42.8138 86.2416 Q42.4029 86.7335 41.6448 86.9244 Z" fill="#000000" fill-rule="evenodd" fill-opacity="1" /><path clip-path="url(#clip110)" d="M 0 0 M31.0777 39.8198 Q30.1749 39.8198 29.7178 40.711 Q29.2664 41.5964 29.2664 43.3788 Q29.2664 45.1555 29.7178 46.0467 Q30.1749 46.9321 31.0777 46.9321 Q31.9863 46.9321 32.4377 46.0467 Q32.8948 45.1555 32.8948 43.3788 Q32.8948 41.5964 32.4377 40.711 Q31.9863 39.8198 31.0777 39.8198 M31.0777 38.8939 Q32.5303 38.8939 33.2941 40.0455 Q34.0638 41.1914 34.0638 43.3788 Q34.0638 45.5605 33.2941 46.7122 Q32.5303 47.858 31.0777 47.858 Q29.6252 47.858 28.8555 46.7122 Q28.0916 45.5605 28.0916 43.3788 Q28.0916 41.1914 28.8555 40.0455 Q29.6252 38.8939 31.0777 38.8939 Z" fill="#000000" fill-rule="evenodd" fill-opacity="1" /><path clip-path="url(#clip110)" d="M 0 0 M35.3312 46.2203 L36.5522 46.2203 L36.5522 47.6902 L35.3312 47.6902 L35.3312 46.2203 Z" fill="#000000" fill-rule="evenodd" fill-opacity="1" /><path clip-path="url(#clip110)" d="M 0 0 M41.0314 40.0687 L38.08 44.6809 L41.0314 44.6809 L41.0314 40.0687 M40.7247 39.0502 L42.1946 39.0502 L42.1946 44.6809 L43.4272 44.6809 L43.4272 45.6531 L42.1946 45.6531 L42.1946 47.6902 L41.0314 47.6902 L41.0314 45.6531 L37.1309 45.6531 L37.1309 44.5247 L40.7247 39.0502 Z" fill="#000000" fill-rule="evenodd" fill-opacity="1" /><g clip-path="url(#clip110)">
<text style="fill:#000000; fill-opacity:1; font-family:Arial,Helvetica Neue,Helvetica,sans-serif; font-size:16px; text-anchor:middle;" transform="rotate(-90, 18.0011, 135.11)" x="18.0011" y="135.11">anomaly (degrees C)</text>
</g>
<circle clip-path="url(#clip112)" cx="62.445" cy="240.01" r="3" fill="#009af9" fill-rule="evenodd" fill-opacity="1" stroke="#000000" stroke-opacity="1" stroke-width="0.6"/>
<circle clip-path="url(#clip112)" cx="106.215" cy="226.842" r="3" fill="#009af9" fill-rule="evenodd" fill-opacity="1" stroke="#000000" stroke-opacity="1" stroke-width="0.6"/>
<circle clip-path="url(#clip112)" cx="149.984" cy="234.743" r="3" fill="#009af9" fill-rule="evenodd" fill-opacity="1" stroke="#000000" stroke-opacity="1" stroke-width="0.6"/>
<circle clip-path="url(#clip112)" cx="193.754" cy="224.209" r="3" fill="#009af9" fill-rule="evenodd" fill-opacity="1" stroke="#000000" stroke-opacity="1" stroke-width="0.6"/>
<circle clip-path="url(#clip112)" cx="237.523" cy="220.697" r="3" fill="#009af9" fill-rule="evenodd" fill-opacity="1" stroke="#000000" stroke-opacity="1" stroke-width="0.6"/>
<circle clip-path="url(#clip112)" cx="281.293" cy="167.148" r="3" fill="#009af9" fill-rule="evenodd" fill-opacity="1" stroke="#000000" stroke-opacity="1" stroke-width="0.6"/>
<circle clip-path="url(#clip112)" cx="325.062" cy="126.766" r="3" fill="#009af9" fill-rule="evenodd" fill-opacity="1" stroke="#000000" stroke-opacity="1" stroke-width="0.6"/>
<circle clip-path="url(#clip112)" cx="368.832" cy="73.2173" r="3" fill="#009af9" fill-rule="evenodd" fill-opacity="1" stroke="#000000" stroke-opacity="1" stroke-width="0.6"/>
<circle clip-path="url(#clip112)" cx="412.602" cy="72.3394" r="3" fill="#009af9" fill-rule="evenodd" fill-opacity="1" stroke="#000000" stroke-opacity="1" stroke-width="0.6"/>
<circle clip-path="url(#clip112)" cx="456.371" cy="18.7902" r="3" fill="#009af9" fill-rule="evenodd" fill-opacity="1" stroke="#000000" stroke-opacity="1" stroke-width="0.6"/>
<polyline clip-path="url(#clip112)" style="stroke:#e26f46; stroke-width:2; stroke-opacity:1; fill:none" points="
  62.445,240.01 62.9258,231.435 63.4067,223.326 63.8876,215.67 64.3685,208.45 64.8494,201.652 65.3302,195.263 65.8111,189.268 66.292,183.654 67.4036,172.063 
  68.5152,162.28 69.6268,154.157 70.7384,147.556 71.85,142.343 72.9616,138.395 74.0732,135.594 75.1848,133.832 76.2964,133.003 77.408,133.013 78.5196,133.768 
  79.6312,135.186 81.8544,139.695 84.0776,145.967 88.524,161.897 92.9704,179.833 97.4168,197.561 101.863,213.61 104.535,222.06 107.207,229.468 109.879,235.777 
  112.552,240.969 115.224,245.063 117.896,248.101 120.568,250.151 123.24,251.294 127.758,251.429 132.277,249.735 136.795,246.721 141.314,242.875 151.13,233.7 
  160.947,226.077 165.472,223.646 169.997,222.01 174.522,221.164 179.047,221.047 188.75,222.716 198.452,225.725 209.694,228.626 220.935,228.667 225.93,227.343 
  230.925,225.094 235.92,221.911 240.915,217.833 249.676,208.774 258.436,197.884 267.987,184.937 277.538,172.003 287.146,160.001 296.754,149.622 307.377,140.119 
  318,132.018 328.107,124.394 338.214,115.448 343.469,109.871 348.724,103.523 353.978,96.3929 359.233,88.5659 368.079,74.4325 376.926,60.7251 382.326,53.715 
  387.727,48.6589 390.427,47.1239 393.127,46.3911 395.827,46.5613 398.527,47.7281 401.066,49.8073 403.604,52.8953 406.142,57.0313 408.68,62.2334 411.218,68.4943 
  413.757,75.7757 416.295,84.002 418.833,93.0542 422.9,108.83 426.966,125.238 428.999,133.228 431.033,140.765 433.066,147.564 435.099,153.299 437.132,157.592 
  439.165,160.012 440.182,160.37 441.199,160.071 442.215,159.045 443.232,157.216 444.248,154.505 445.265,150.826 446.282,146.09 447.298,140.204 448.315,133.067 
  449.332,124.574 450.348,114.615 451.365,103.072 451.991,95.1268 452.616,86.5052 453.242,77.1768 453.868,67.11 454.494,56.272 455.12,44.6293 455.745,32.1473 
  456.371,18.7902 
  "/>
<path clip-path="url(#clip110)" d="
M351.694 250.188 L454.27 250.188 L454.27 204.828 L351.694 204.828  Z
  " fill="#ffffff" fill-rule="evenodd" fill-opacity="1"/>
<polyline clip-path="url(#clip110)" style="stroke:#000000; stroke-width:1; stroke-opacity:1; fill:none" points="
  351.694,250.188 454.27,250.188 454.27,204.828 351.694,204.828 351.694,250.188 
  "/>
<circle clip-path="url(#clip110)" cx="370.253" cy="219.948" r="5" fill="#009af9" fill-rule="evenodd" fill-opacity="1" stroke="#000000" stroke-opacity="1" stroke-width="0.96"/>
<path clip-path="url(#clip110)" d="M 0 0 M393.539 218.771 L393.539 215.264 L394.604 215.264 L394.604 224.268 L393.539 224.268 L393.539 223.296 Q393.203 223.875 392.688 224.159 Q392.179 224.436 391.461 224.436 Q390.287 224.436 389.546 223.499 Q388.811 222.561 388.811 221.034 Q388.811 219.506 389.546 218.568 Q390.287 217.631 391.461 217.631 Q392.179 217.631 392.688 217.914 Q393.203 218.192 393.539 218.771 M389.91 221.034 Q389.91 222.208 390.391 222.88 Q390.877 223.545 391.722 223.545 Q392.567 223.545 393.053 222.88 Q393.539 222.208 393.539 221.034 Q393.539 219.859 393.053 219.193 Q392.567 218.522 391.722 218.522 Q390.877 218.522 390.391 219.193 Q389.91 219.859 389.91 221.034 Z" fill="#000000" fill-rule="evenodd" fill-opacity="1" /><path clip-path="url(#clip110)" d="M 0 0 M398.666 221.01 Q397.376 221.01 396.878 221.306 Q396.38 221.601 396.38 222.312 Q396.38 222.88 396.751 223.215 Q397.127 223.545 397.769 223.545 Q398.655 223.545 399.187 222.92 Q399.725 222.289 399.725 221.248 L399.725 221.01 L398.666 221.01 M400.79 220.571 L400.79 224.268 L399.725 224.268 L399.725 223.285 Q399.361 223.875 398.817 224.159 Q398.273 224.436 397.486 224.436 Q396.49 224.436 395.9 223.881 Q395.315 223.319 395.315 222.382 Q395.315 221.288 396.045 220.733 Q396.78 220.177 398.232 220.177 L399.725 220.177 L399.725 220.073 Q399.725 219.338 399.239 218.939 Q398.759 218.534 397.885 218.534 Q397.329 218.534 396.803 218.667 Q396.276 218.8 395.79 219.066 L395.79 218.082 Q396.374 217.856 396.924 217.747 Q397.474 217.631 397.995 217.631 Q399.401 217.631 400.096 218.36 Q400.79 219.089 400.79 220.571 Z" fill="#000000" fill-rule="evenodd" fill-opacity="1" /><path clip-path="url(#clip110)" d="M 0 0 M402.96 215.947 L402.96 217.787 L405.153 217.787 L405.153 218.615 L402.96 218.615 L402.96 222.133 Q402.96 222.926 403.174 223.152 Q403.394 223.377 404.06 223.377 L405.153 223.377 L405.153 224.268 L404.06 224.268 Q402.827 224.268 402.358 223.811 Q401.889 223.348 401.889 222.133 L401.889 218.615 L401.108 218.615 L401.108 217.787 L401.889 217.787 L401.889 215.947 L402.96 215.947 Z" fill="#000000" fill-rule="evenodd" fill-opacity="1" /><path clip-path="url(#clip110)" d="M 0 0 M409.216 221.01 Q407.925 221.01 407.428 221.306 Q406.93 221.601 406.93 222.312 Q406.93 222.88 407.3 223.215 Q407.676 223.545 408.319 223.545 Q409.204 223.545 409.737 222.92 Q410.275 222.289 410.275 221.248 L410.275 221.01 L409.216 221.01 M411.34 220.571 L411.34 224.268 L410.275 224.268 L410.275 223.285 Q409.91 223.875 409.366 224.159 Q408.822 224.436 408.035 224.436 Q407.04 224.436 406.45 223.881 Q405.865 223.319 405.865 222.382 Q405.865 221.288 406.594 220.733 Q407.329 220.177 408.782 220.177 L410.275 220.177 L410.275 220.073 Q410.275 219.338 409.789 218.939 Q409.308 218.534 408.435 218.534 Q407.879 218.534 407.352 218.667 Q406.826 218.8 406.34 219.066 L406.34 218.082 Q406.924 217.856 407.474 217.747 Q408.024 217.631 408.545 217.631 Q409.951 217.631 410.645 218.36 Q411.34 219.089 411.34 220.571 Z" fill="#000000" fill-rule="evenodd" fill-opacity="1" /><polyline clip-path="url(#clip110)" style="stroke:#e26f46; stroke-width:1; stroke-opacity:1; fill:none" points="
  356.334,235.068 384.171,235.068 
  "/>
<path clip-path="url(#clip110)" d="M 0 0 M388.811 232.907 L389.876 232.907 L389.876 239.388 L388.811 239.388 L388.811 232.907 M388.811 230.384 L389.876 230.384 L389.876 231.732 L388.811 231.732 L388.811 230.384 Z" fill="#000000" fill-rule="evenodd" fill-opacity="1" /><path clip-path="url(#clip110)" d="M 0 0 M396.38 235.476 L396.38 239.388 L395.315 239.388 L395.315 235.511 Q395.315 234.591 394.957 234.134 Q394.598 233.677 393.88 233.677 Q393.018 233.677 392.52 234.226 Q392.023 234.776 392.023 235.725 L392.023 239.388 L390.952 239.388 L390.952 232.907 L392.023 232.907 L392.023 233.914 Q392.405 233.329 392.92 233.04 Q393.44 232.751 394.118 232.751 Q395.234 232.751 395.807 233.445 Q396.38 234.134 396.38 235.476 Z" fill="#000000" fill-rule="evenodd" fill-opacity="1" /><path clip-path="url(#clip110)" d="M 0 0 M398.55 231.067 L398.55 232.907 L400.744 232.907 L400.744 233.735 L398.55 233.735 L398.55 237.253 Q398.55 238.046 398.764 238.272 Q398.984 238.497 399.65 238.497 L400.744 238.497 L400.744 239.388 L399.65 239.388 Q398.417 239.388 397.949 238.931 Q397.48 238.468 397.48 237.253 L397.48 233.735 L396.699 233.735 L396.699 232.907 L397.48 232.907 L397.48 231.067 L398.55 231.067 Z" fill="#000000" fill-rule="evenodd" fill-opacity="1" /><path clip-path="url(#clip110)" d="M 0 0 M407.404 235.882 L407.404 236.402 L402.509 236.402 Q402.578 237.502 403.168 238.081 Q403.764 238.654 404.823 238.654 Q405.437 238.654 406.01 238.503 Q406.589 238.353 407.156 238.052 L407.156 239.059 Q406.583 239.302 405.981 239.429 Q405.379 239.556 404.76 239.556 Q403.209 239.556 402.3 238.654 Q401.398 237.751 401.398 236.211 Q401.398 234.62 402.254 233.688 Q403.116 232.751 404.575 232.751 Q405.883 232.751 406.641 233.596 Q407.404 234.435 407.404 235.882 M406.34 235.569 Q406.328 234.695 405.848 234.174 Q405.373 233.654 404.586 233.654 Q403.695 233.654 403.157 234.157 Q402.624 234.66 402.543 235.575 L406.34 235.569 Z" fill="#000000" fill-rule="evenodd" fill-opacity="1" /><path clip-path="url(#clip110)" d="M 0 0 M412.277 233.902 Q412.098 233.798 411.884 233.752 Q411.675 233.7 411.421 233.7 Q410.518 233.7 410.032 234.29 Q409.551 234.875 409.551 235.974 L409.551 239.388 L408.481 239.388 L408.481 232.907 L409.551 232.907 L409.551 233.914 Q409.887 233.324 410.425 233.04 Q410.964 232.751 411.733 232.751 Q411.843 232.751 411.976 232.768 Q412.109 232.78 412.271 232.809 L412.277 233.902 Z" fill="#000000" fill-rule="evenodd" fill-opacity="1" /><path clip-path="url(#clip110)" d="M 0 0 M414.424 238.416 L414.424 241.854 L413.354 241.854 L413.354 232.907 L414.424 232.907 L414.424 233.891 Q414.76 233.312 415.269 233.034 Q415.784 232.751 416.496 232.751 Q417.676 232.751 418.411 233.688 Q419.152 234.626 419.152 236.154 Q419.152 237.681 418.411 238.619 Q417.676 239.556 416.496 239.556 Q415.784 239.556 415.269 239.279 Q414.76 238.995 414.424 238.416 M418.047 236.154 Q418.047 234.979 417.561 234.313 Q417.08 233.642 416.235 233.642 Q415.391 233.642 414.904 234.313 Q414.424 234.979 414.424 236.154 Q414.424 237.328 414.904 238 Q415.391 238.665 416.235 238.665 Q417.08 238.665 417.561 238 Q418.047 237.328 418.047 236.154 Z" fill="#000000" fill-rule="evenodd" fill-opacity="1" /><path clip-path="url(#clip110)" d="M 0 0 M422.781 233.654 Q421.924 233.654 421.426 234.325 Q420.929 234.99 420.929 236.154 Q420.929 237.317 421.421 237.988 Q421.918 238.654 422.781 238.654 Q423.631 238.654 424.129 237.982 Q424.627 237.311 424.627 236.154 Q424.627 235.002 424.129 234.331 Q423.631 233.654 422.781 233.654 M422.781 232.751 Q424.169 232.751 424.962 233.654 Q425.755 234.556 425.755 236.154 Q425.755 237.745 424.962 238.654 Q424.169 239.556 422.781 239.556 Q421.386 239.556 420.593 238.654 Q419.806 237.745 419.806 236.154 Q419.806 234.556 420.593 233.654 Q421.386 232.751 422.781 232.751 Z" fill="#000000" fill-rule="evenodd" fill-opacity="1" /><path clip-path="url(#clip110)" d="M 0 0 M426.872 230.384 L427.937 230.384 L427.937 239.388 L426.872 239.388 L426.872 230.384 Z" fill="#000000" fill-rule="evenodd" fill-opacity="1" /><path clip-path="url(#clip110)" d="M 0 0 M431.999 236.13 Q430.709 236.13 430.211 236.426 Q429.713 236.721 429.713 237.432 Q429.713 238 430.084 238.335 Q430.46 238.665 431.102 238.665 Q431.988 238.665 432.52 238.04 Q433.058 237.409 433.058 236.368 L433.058 236.13 L431.999 236.13 M434.123 235.691 L434.123 239.388 L433.058 239.388 L433.058 238.405 Q432.694 238.995 432.15 239.279 Q431.606 239.556 430.819 239.556 Q429.823 239.556 429.233 239.001 Q428.649 238.439 428.649 237.502 Q428.649 236.408 429.378 235.853 Q430.113 235.297 431.565 235.297 L433.058 235.297 L433.058 235.193 Q433.058 234.458 432.572 234.059 Q432.092 233.654 431.218 233.654 Q430.662 233.654 430.136 233.787 Q429.609 233.92 429.123 234.186 L429.123 233.202 Q429.708 232.976 430.257 232.867 Q430.807 232.751 431.328 232.751 Q432.734 232.751 433.429 233.48 Q434.123 234.209 434.123 235.691 Z" fill="#000000" fill-rule="evenodd" fill-opacity="1" /><path clip-path="url(#clip110)" d="M 0 0 M440.628 235.476 L440.628 239.388 L439.563 239.388 L439.563 235.511 Q439.563 234.591 439.204 234.134 Q438.845 233.677 438.128 233.677 Q437.265 233.677 436.768 234.226 Q436.27 234.776 436.27 235.725 L436.27 239.388 L435.199 239.388 L435.199 232.907 L436.27 232.907 L436.27 233.914 Q436.652 233.329 437.167 233.04 Q437.688 232.751 438.365 232.751 Q439.482 232.751 440.055 233.445 Q440.628 234.134 440.628 235.476 Z" fill="#000000" fill-rule="evenodd" fill-opacity="1" /><path clip-path="url(#clip110)" d="M 0 0 M442.798 231.067 L442.798 232.907 L444.991 232.907 L444.991 233.735 L442.798 233.735 L442.798 237.253 Q442.798 238.046 443.012 238.272 Q443.232 238.497 443.897 238.497 L444.991 238.497 L444.991 239.388 L443.897 239.388 Q442.665 239.388 442.196 238.931 Q441.727 238.468 441.727 237.253 L441.727 233.735 L440.946 233.735 L440.946 232.907 L441.727 232.907 L441.727 231.067 L442.798 231.067 Z" fill="#000000" fill-rule="evenodd" fill-opacity="1" /></svg>
