<?xml version="1.0" encoding="utf-8"?>
<svg xmlns="http://www.w3.org/2000/svg" xmlns:xlink="http://www.w3.org/1999/xlink" width="120" height="75" viewBox="0 0 480 300">
<defs>
  <clipPath id="clip190">
    <rect x="0" y="0" width="480" height="300"/>
  </clipPath>
</defs>
<path clip-path="url(#clip190)" d="
M0 300 L480 300 L480 0 L0 0  Z
  " fill="#ffffff" fill-rule="evenodd" fill-opacity="1"/>
<defs>
  <clipPath id="clip191">
    <rect x="96" y="0" width="337" height="300"/>
  </clipPath>
</defs>
<path clip-path="url(#clip190)" d="
M58.3991 258.408 L468.189 258.408 L468.189 11.811 L58.3991 11.811  Z
  " fill="#ffffff" fill-rule="evenodd" fill-opacity="1"/>
<defs>
  <clipPath id="clip192">
    <rect x="58" y="11" width="411" height="248"/>
  </clipPath>
</defs>
<polyline clip-path="url(#clip192)" style="stroke:#000000; stroke-width:0.5; stroke-opacity:0.1; fill:none" points="
  112.952,258.408 112.952,11.811 
  "/>
<polyline clip-path="url(#clip192)" style="stroke:#000000; stroke-width:0.5; stroke-opacity:0.1; fill:none" points="
  198.862,258.408 198.862,11.811 
  "/>
<polyline clip-path="url(#clip192)" style="stroke:#000000; stroke-width:0.5; stroke-opacity:0.1; fill:none" points="
  284.772,258.408 284.772,11.811 
  "/>
<polyline clip-path="url(#clip192)" style="stroke:#000000; stroke-width:0.5; stroke-opacity:0.1; fill:none" points="
  370.681,258.408 370.681,11.811 
  "/>
<polyline clip-path="url(#clip192)" style="stroke:#000000; stroke-width:0.5; stroke-opacity:0.1; fill:none" points="
  456.591,258.408 456.591,11.811 
  "/>
<polyline clip-path="url(#clip190)" style="stroke:#000000; stroke-width:1; stroke-opacity:1; fill:none" points="
  58.3991,258.408 468.189,258.408 
  "/>
<polyline clip-path="url(#clip190)" style="stroke:#000000; stroke-width:1; stroke-opacity:1; fill:none" points="
  112.952,258.408 112.952,255.449 
  "/>
<polyline clip-path="url(#clip190)" style="stroke:#000000; stroke-width:1; stroke-opacity:1; fill:none" points="
  198.862,258.408 198.862,255.449 
  "/>
<polyline clip-path="url(#clip190)" style="stroke:#000000; stroke-width:1; stroke-opacity:1; fill:none" points="
  284.772,258.408 284.772,255.449 
  "/>
<polyline clip-path="url(#clip190)" style="stroke:#000000; stroke-width:1; stroke-opacity:1; fill:none" points="
  370.681,258.408 370.681,255.449 
  "/>
<polyline clip-path="url(#clip190)" style="stroke:#000000; stroke-width:1; stroke-opacity:1; fill:none" points="
  456.591,258.408 456.591,255.449 
  "/>
<path clip-path="url(#clip190)" d="M 0 0 M100.42 271.633 L102.33 271.633 L102.33 265.041 L100.252 265.458 L100.252 264.393 L102.318 263.976 L103.487 263.976 L103.487 271.633 L105.397 271.633 L105.397 272.616 L100.42 272.616 L100.42 271.633 Z" fill="#000000" fill-rule="evenodd" fill-opacity="1" /><path clip-path="url(#clip190)" d="M 0 0 M106.699 272.437 L106.699 271.372 Q107.139 271.581 107.59 271.69 Q108.042 271.8 108.476 271.8 Q109.633 271.8 110.241 271.025 Q110.854 270.244 110.941 268.658 Q110.605 269.156 110.09 269.422 Q109.575 269.688 108.95 269.688 Q107.654 269.688 106.896 268.907 Q106.143 268.12 106.143 266.76 Q106.143 265.429 106.93 264.625 Q107.718 263.82 109.025 263.82 Q110.524 263.82 111.311 264.972 Q112.104 266.118 112.104 268.305 Q112.104 270.348 111.132 271.569 Q110.165 272.784 108.528 272.784 Q108.088 272.784 107.637 272.697 Q107.185 272.611 106.699 272.437 M109.025 268.774 Q109.812 268.774 110.27 268.236 Q110.733 267.697 110.733 266.76 Q110.733 265.828 110.27 265.29 Q109.812 264.746 109.025 264.746 Q108.238 264.746 107.775 265.29 Q107.318 265.828 107.318 266.76 Q107.318 267.697 107.775 268.236 Q108.238 268.774 109.025 268.774 Z" fill="#000000" fill-rule="evenodd" fill-opacity="1" /><path clip-path="url(#clip190)" d="M 0 0 M116.016 267.831 Q115.229 267.831 114.766 268.369 Q114.309 268.907 114.309 269.844 Q114.309 270.776 114.766 271.32 Q115.229 271.858 116.016 271.858 Q116.803 271.858 117.26 271.32 Q117.723 270.776 117.723 269.844 Q117.723 268.907 117.26 268.369 Q116.803 267.831 116.016 267.831 M118.337 264.167 L118.337 265.232 Q117.897 265.024 117.445 264.914 Q117 264.804 116.56 264.804 Q115.403 264.804 114.789 265.585 Q114.182 266.366 114.095 267.946 Q114.436 267.443 114.951 267.177 Q115.466 266.905 116.086 266.905 Q117.388 266.905 118.14 267.697 Q118.898 268.484 118.898 269.844 Q118.898 271.175 118.111 271.98 Q117.324 272.784 116.016 272.784 Q114.517 272.784 113.724 271.638 Q112.932 270.487 112.932 268.305 Q112.932 266.256 113.904 265.041 Q114.876 263.82 116.514 263.82 Q116.954 263.82 117.399 263.907 Q117.851 263.994 118.337 264.167 Z" fill="#000000" fill-rule="evenodd" fill-opacity="1" /><path clip-path="url(#clip190)" d="M 0 0 M122.665 264.746 Q121.763 264.746 121.305 265.637 Q120.854 266.523 120.854 268.305 Q120.854 270.082 121.305 270.973 Q121.763 271.858 122.665 271.858 Q123.574 271.858 124.025 270.973 Q124.482 270.082 124.482 268.305 Q124.482 266.523 124.025 265.637 Q123.574 264.746 122.665 264.746 M122.665 263.82 Q124.118 263.82 124.882 264.972 Q125.651 266.118 125.651 268.305 Q125.651 270.487 124.882 271.638 Q124.118 272.784 122.665 272.784 Q121.213 272.784 120.443 271.638 Q119.679 270.487 119.679 268.305 Q119.679 266.118 120.443 264.972 Q121.213 263.82 122.665 263.82 Z" fill="#000000" fill-rule="evenodd" fill-opacity="1" /><path clip-path="url(#clip190)" d="M 0 0 M186.463 271.633 L188.373 271.633 L188.373 265.041 L186.295 265.458 L186.295 264.393 L188.361 263.976 L189.53 263.976 L189.53 271.633 L191.44 271.633 L191.44 272.616 L186.463 272.616 L186.463 271.633 Z" fill="#000000" fill-rule="evenodd" fill-opacity="1" /><path clip-path="url(#clip190)" d="M 0 0 M192.742 272.437 L192.742 271.372 Q193.182 271.581 193.633 271.69 Q194.085 271.8 194.519 271.8 Q195.676 271.8 196.284 271.025 Q196.897 270.244 196.984 268.658 Q196.648 269.156 196.133 269.422 Q195.618 269.688 194.993 269.688 Q193.697 269.688 192.939 268.907 Q192.186 268.12 192.186 266.76 Q192.186 265.429 192.973 264.625 Q193.76 263.82 195.068 263.82 Q196.567 263.82 197.354 264.972 Q198.147 266.118 198.147 268.305 Q198.147 270.348 197.175 271.569 Q196.208 272.784 194.571 272.784 Q194.131 272.784 193.679 272.697 Q193.228 272.611 192.742 272.437 M195.068 268.774 Q195.855 268.774 196.313 268.236 Q196.775 267.697 196.775 266.76 Q196.775 265.828 196.313 265.29 Q195.855 264.746 195.068 264.746 Q194.281 264.746 193.818 265.29 Q193.361 265.828 193.361 266.76 Q193.361 267.697 193.818 268.236 Q194.281 268.774 195.068 268.774 Z" fill="#000000" fill-rule="evenodd" fill-opacity="1" /><path clip-path="url(#clip190)" d="M 0 0 M199.119 263.976 L204.675 263.976 L204.675 264.474 L201.538 272.616 L200.317 272.616 L203.268 264.96 L199.119 264.96 L199.119 263.976 Z" fill="#000000" fill-rule="evenodd" fill-opacity="1" /><path clip-path="url(#clip190)" d="M 0 0 M208.442 264.746 Q207.539 264.746 207.082 265.637 Q206.631 266.523 206.631 268.305 Q206.631 270.082 207.082 270.973 Q207.539 271.858 208.442 271.858 Q209.351 271.858 209.802 270.973 Q210.259 270.082 210.259 268.305 Q210.259 266.523 209.802 265.637 Q209.351 264.746 208.442 264.746 M208.442 263.82 Q209.895 263.82 210.659 264.972 Q211.428 266.118 211.428 268.305 Q211.428 270.487 210.659 271.638 Q209.895 272.784 208.442 272.784 Q206.99 272.784 206.22 271.638 Q205.456 270.487 205.456 268.305 Q205.456 266.118 206.22 264.972 Q206.99 263.82 208.442 263.82 Z" fill="#000000" fill-rule="evenodd" fill-opacity="1" /><path clip-path="url(#clip190)" d="M 0 0 M272.272 271.633 L274.181 271.633 L274.181 265.041 L272.104 265.458 L272.104 264.393 L274.17 263.976 L275.339 263.976 L275.339 271.633 L277.248 271.633 L277.248 272.616 L272.272 272.616 L272.272 271.633 Z" fill="#000000" fill-rule="evenodd" fill-opacity="1" /><path clip-path="url(#clip190)" d="M 0 0 M278.55 272.437 L278.55 271.372 Q278.99 271.581 279.442 271.69 Q279.893 271.8 280.327 271.8 Q281.484 271.8 282.092 271.025 Q282.706 270.244 282.792 268.658 Q282.457 269.156 281.942 269.422 Q281.427 269.688 280.802 269.688 Q279.505 269.688 278.747 268.907 Q277.995 268.12 277.995 266.76 Q277.995 265.429 278.782 264.625 Q279.569 263.82 280.877 263.82 Q282.376 263.82 283.163 264.972 Q283.956 266.118 283.956 268.305 Q283.956 270.348 282.983 271.569 Q282.017 272.784 280.379 272.784 Q279.939 272.784 279.488 272.697 Q279.037 272.611 278.55 272.437 M280.877 268.774 Q281.664 268.774 282.121 268.236 Q282.584 267.697 282.584 266.76 Q282.584 265.828 282.121 265.29 Q281.664 264.746 280.877 264.746 Q280.09 264.746 279.627 265.29 Q279.17 265.828 279.17 266.76 Q279.17 267.697 279.627 268.236 Q280.09 268.774 280.877 268.774 Z" fill="#000000" fill-rule="evenodd" fill-opacity="1" /><path clip-path="url(#clip190)" d="M 0 0 M287.723 268.513 Q286.89 268.513 286.409 268.959 Q285.935 269.405 285.935 270.186 Q285.935 270.967 286.409 271.413 Q286.89 271.858 287.723 271.858 Q288.556 271.858 289.037 271.413 Q289.517 270.961 289.517 270.186 Q289.517 269.405 289.037 268.959 Q288.562 268.513 287.723 268.513 M286.554 268.016 Q285.802 267.831 285.379 267.315 Q284.962 266.8 284.962 266.06 Q284.962 265.024 285.697 264.422 Q286.438 263.82 287.723 263.82 Q289.013 263.82 289.748 264.422 Q290.483 265.024 290.483 266.06 Q290.483 266.8 290.061 267.315 Q289.644 267.831 288.898 268.016 Q289.743 268.212 290.211 268.785 Q290.686 269.358 290.686 270.186 Q290.686 271.442 289.916 272.113 Q289.152 272.784 287.723 272.784 Q286.293 272.784 285.524 272.113 Q284.76 271.442 284.76 270.186 Q284.76 269.358 285.234 268.785 Q285.709 268.212 286.554 268.016 M286.126 266.17 Q286.126 266.841 286.542 267.217 Q286.965 267.593 287.723 267.593 Q288.475 267.593 288.898 267.217 Q289.326 266.841 289.326 266.17 Q289.326 265.498 288.898 265.122 Q288.475 264.746 287.723 264.746 Q286.965 264.746 286.542 265.122 Q286.126 265.498 286.126 266.17 Z" fill="#000000" fill-rule="evenodd" fill-opacity="1" /><path clip-path="url(#clip190)" d="M 0 0 M294.453 264.746 Q293.55 264.746 293.093 265.637 Q292.642 266.523 292.642 268.305 Q292.642 270.082 293.093 270.973 Q293.55 271.858 294.453 271.858 Q295.362 271.858 295.813 270.973 Q296.27 270.082 296.27 268.305 Q296.27 266.523 295.813 265.637 Q295.362 264.746 294.453 264.746 M294.453 263.82 Q295.906 263.82 296.67 264.972 Q297.439 266.118 297.439 268.305 Q297.439 270.487 296.67 271.638 Q295.906 272.784 294.453 272.784 Q293.001 272.784 292.231 271.638 Q291.467 270.487 291.467 268.305 Q291.467 266.118 292.231 264.972 Q293.001 263.82 294.453 263.82 Z" fill="#000000" fill-rule="evenodd" fill-opacity="1" /><path clip-path="url(#clip190)" d="M 0 0 M358.193 271.633 L360.103 271.633 L360.103 265.041 L358.025 265.458 L358.025 264.393 L360.091 263.976 L361.26 263.976 L361.26 271.633 L363.17 271.633 L363.17 272.616 L358.193 272.616 L358.193 271.633 Z" fill="#000000" fill-rule="evenodd" fill-opacity="1" /><path clip-path="url(#clip190)" d="M 0 0 M364.472 272.437 L364.472 271.372 Q364.912 271.581 365.363 271.69 Q365.814 271.8 366.248 271.8 Q367.406 271.8 368.014 271.025 Q368.627 270.244 368.714 268.658 Q368.378 269.156 367.863 269.422 Q367.348 269.688 366.723 269.688 Q365.427 269.688 364.669 268.907 Q363.916 268.12 363.916 266.76 Q363.916 265.429 364.703 264.625 Q365.49 263.82 366.798 263.82 Q368.297 263.82 369.084 264.972 Q369.877 266.118 369.877 268.305 Q369.877 270.348 368.905 271.569 Q367.938 272.784 366.301 272.784 Q365.861 272.784 365.409 272.697 Q364.958 272.611 364.472 272.437 M366.798 268.774 Q367.585 268.774 368.042 268.236 Q368.505 267.697 368.505 266.76 Q368.505 265.828 368.042 265.29 Q367.585 264.746 366.798 264.746 Q366.011 264.746 365.548 265.29 Q365.091 265.828 365.091 266.76 Q365.091 267.697 365.548 268.236 Q366.011 268.774 366.798 268.774 Z" fill="#000000" fill-rule="evenodd" fill-opacity="1" /><path clip-path="url(#clip190)" d="M 0 0 M371.179 272.437 L371.179 271.372 Q371.619 271.581 372.07 271.69 Q372.522 271.8 372.956 271.8 Q374.113 271.8 374.721 271.025 Q375.334 270.244 375.421 268.658 Q375.085 269.156 374.57 269.422 Q374.055 269.688 373.43 269.688 Q372.134 269.688 371.376 268.907 Q370.623 268.12 370.623 266.76 Q370.623 265.429 371.41 264.625 Q372.198 263.82 373.505 263.82 Q375.004 263.82 375.791 264.972 Q376.584 266.118 376.584 268.305 Q376.584 270.348 375.612 271.569 Q374.645 272.784 373.008 272.784 Q372.568 272.784 372.117 272.697 Q371.665 272.611 371.179 272.437 M373.505 268.774 Q374.292 268.774 374.75 268.236 Q375.213 267.697 375.213 266.76 Q375.213 265.828 374.75 265.29 Q374.292 264.746 373.505 264.746 Q372.718 264.746 372.255 265.29 Q371.798 265.828 371.798 266.76 Q371.798 267.697 372.255 268.236 Q372.718 268.774 373.505 268.774 Z" fill="#000000" fill-rule="evenodd" fill-opacity="1" /><path clip-path="url(#clip190)" d="M 0 0 M380.351 264.746 Q379.449 264.746 378.991 265.637 Q378.54 266.523 378.54 268.305 Q378.54 270.082 378.991 270.973 Q379.449 271.858 380.351 271.858 Q381.26 271.858 381.711 270.973 Q382.169 270.082 382.169 268.305 Q382.169 266.523 381.711 265.637 Q381.26 264.746 380.351 264.746 M380.351 263.82 Q381.804 263.82 382.568 264.972 Q383.338 266.118 383.338 268.305 Q383.338 270.487 382.568 271.638 Q381.804 272.784 380.351 272.784 Q378.899 272.784 378.129 271.638 Q377.365 270.487 377.365 268.305 Q377.365 266.118 378.129 264.972 Q378.899 263.82 380.351 263.82 Z" fill="#000000" fill-rule="evenodd" fill-opacity="1" /><path clip-path="url(#clip190)" d="M 0 0 M445.124 271.633 L449.204 271.633 L449.204 272.616 L443.718 272.616 L443.718 271.633 Q444.383 270.944 445.529 269.787 Q446.681 268.623 446.976 268.288 Q447.537 267.657 447.757 267.223 Q447.983 266.783 447.983 266.361 Q447.983 265.672 447.497 265.238 Q447.017 264.804 446.241 264.804 Q445.691 264.804 445.078 264.995 Q444.47 265.186 443.776 265.574 L443.776 264.393 Q444.482 264.109 445.095 263.965 Q445.709 263.82 446.218 263.82 Q447.561 263.82 448.359 264.491 Q449.158 265.163 449.158 266.285 Q449.158 266.818 448.955 267.298 Q448.758 267.773 448.232 268.421 Q448.087 268.589 447.312 269.393 Q446.536 270.192 445.124 271.633 Z" fill="#000000" fill-rule="evenodd" fill-opacity="1" /><path clip-path="url(#clip190)" d="M 0 0 M452.971 264.746 Q452.069 264.746 451.611 265.637 Q451.16 266.523 451.16 268.305 Q451.16 270.082 451.611 270.973 Q452.069 271.858 452.971 271.858 Q453.88 271.858 454.331 270.973 Q454.788 270.082 454.788 268.305 Q454.788 266.523 454.331 265.637 Q453.88 264.746 452.971 264.746 M452.971 263.82 Q454.424 263.82 455.188 264.972 Q455.957 266.118 455.957 268.305 Q455.957 270.487 455.188 271.638 Q454.424 272.784 452.971 272.784 Q451.519 272.784 450.749 271.638 Q449.985 270.487 449.985 268.305 Q449.985 266.118 450.749 264.972 Q451.519 263.82 452.971 263.82 Z" fill="#000000" fill-rule="evenodd" fill-opacity="1" /><path clip-path="url(#clip190)" d="M 0 0 M459.725 264.746 Q458.822 264.746 458.365 265.637 Q457.913 266.523 457.913 268.305 Q457.913 270.082 458.365 270.973 Q458.822 271.858 459.725 271.858 Q460.633 271.858 461.085 270.973 Q461.542 270.082 461.542 268.305 Q461.542 266.523 461.085 265.637 Q460.633 264.746 459.725 264.746 M459.725 263.82 Q461.177 263.82 461.941 264.972 Q462.711 266.118 462.711 268.305 Q462.711 270.487 461.941 271.638 Q461.177 272.784 459.725 272.784 Q458.272 272.784 457.503 271.638 Q456.739 270.487 456.739 268.305 Q456.739 266.118 457.503 264.972 Q458.272 263.82 459.725 263.82 Z" fill="#000000" fill-rule="evenodd" fill-opacity="1" /><path clip-path="url(#clip190)" d="M 0 0 M466.478 264.746 Q465.575 264.746 465.118 265.637 Q464.667 266.523 464.667 268.305 Q464.667 270.082 465.118 270.973 Q465.575 271.858 466.478 271.858 Q467.387 271.858 467.838 270.973 Q468.295 270.082 468.295 268.305 Q468.295 266.523 467.838 265.637 Q467.387 264.746 466.478 264.746 M466.478 263.82 Q467.931 263.82 468.695 264.972 Q469.464 266.118 469.464 268.305 Q469.464 270.487 468.695 271.638 Q467.931 272.784 466.478 272.784 Q465.026 272.784 464.256 271.638 Q463.492 270.487 463.492 268.305 Q463.492 266.118 464.256 264.972 Q465.026 263.82 466.478 263.82 Z" fill="#000000" fill-rule="evenodd" fill-opacity="1" /><g clip-path="url(#clip190)">
<text style="fill:#000000; fill-opacity:1; font-family:Arial,Helvetica Neue,Helvetica,sans-serif; font-size:16px; text-anchor:middle;" transform="rotate(0, 263.294, 293.459)" x="263.294" y="293.459">year</text>
</g>
<polyline clip-path="url(#clip192)" style="stroke:#000000; stroke-width:0.5; stroke-opacity:0.1; fill:none" points="
  58.3991,255.862 468.189,255.862 
  "/>
<polyline clip-path="url(#clip192)" style="stroke:#000000; stroke-width:0.5; stroke-opacity:0.1; fill:none" points="
  58.3991,219.723 468.189,219.723 
  "/>
<polyline clip-path="url(#clip192)" style="stroke:#000000; stroke-width:0.5; stroke-opacity:0.1; fill:none" points="
  58.3991,183.584 468.189,183.584 
  "/>
<polyline clip-path="url(#clip192)" style="stroke:#000000; stroke-width:0.5; stroke-opacity:0.1; fill:none" points="
  58.3991,147.445 468.189,147.445 
  "/>
<polyline clip-path="url(#clip192)" style="stroke:#000000; stroke-width:0.5; stroke-opacity:0.1; fill:none" points="
  58.3991,111.306 468.189,111.306 
  "/>
<polyline clip-path="url(#clip192)" style="stroke:#000000; stroke-width:0.5; stroke-opacity:0.1; fill:none" points="
  58.3991,75.1671 468.189,75.1671 
  "/>
<polyline clip-path="url(#clip192)" style="stroke:#000000; stroke-width:0.5; stroke-opacity:0.1; fill:none" points="
  58.3991,39.0281 468.189,39.0281 
  "/>
<polyline clip-path="url(#clip190)" style="stroke:#000000; stroke-width:1; stroke-opacity:1; fill:none" points="
  58.3991,258.408 58.3991,11.811 
  "/>
<polyline clip-path="url(#clip190)" style="stroke:#000000; stroke-width:1; stroke-opacity:1; fill:none" points="
  58.3991,255.862 63.3166,255.862 
  "/>
<polyline clip-path="url(#clip190)" style="stroke:#000000; stroke-width:1; stroke-opacity:1; fill:none" points="
  58.3991,219.723 63.3166,219.723 
  "/>
<polyline clip-path="url(#clip190)" style="stroke:#000000; stroke-width:1; stroke-opacity:1; fill:none" points="
  58.3991,183.584 63.3166,183.584 
  "/>
<polyline clip-path="url(#clip190)" style="stroke:#000000; stroke-width:1; stroke-opacity:1; fill:none" points="
  58.3991,147.445 63.3166,147.445 
  "/>
<polyline clip-path="url(#clip190)" style="stroke:#000000; stroke-width:1; stroke-opacity:1; fill:none" points="
  58.3991,111.306 63.3166,111.306 
  "/>
<polyline clip-path="url(#clip190)" style="stroke:#000000; stroke-width:1; stroke-opacity:1; fill:none" points="
  58.3991,75.1671 63.3166,75.1671 
  "/>
<polyline clip-path="url(#clip190)" style="stroke:#000000; stroke-width:1; stroke-opacity:1; fill:none" points="
  58.3991,39.0281 63.3166,39.0281 
  "/>
<path clip-path="url(#clip190)" d="M 0 0 M28.1842 255.975 L35.6032 255.975 L35.6032 256.959 L28.1842 256.959 L28.1842 255.975 Z" fill="#000000" fill-rule="evenodd" fill-opacity="1" /><path clip-path="url(#clip190)" d="M 0 0 M39.3705 252.312 Q38.4677 252.312 38.0105 253.203 Q37.5592 254.089 37.5592 255.871 Q37.5592 257.648 38.0105 258.539 Q38.4677 259.424 39.3705 259.424 Q40.2791 259.424 40.7304 258.539 Q41.1876 257.648 41.1876 255.871 Q41.1876 254.089 40.7304 253.203 Q40.2791 252.312 39.3705 252.312 M39.3705 251.386 Q40.823 251.386 41.5869 252.538 Q42.3566 253.683 42.3566 255.871 Q42.3566 258.053 41.5869 259.204 Q40.823 260.35 39.3705 260.35 Q37.918 260.35 37.1483 259.204 Q36.3844 258.053 36.3844 255.871 Q36.3844 253.683 37.1483 252.538 Q37.918 251.386 39.3705 251.386 Z" fill="#000000" fill-rule="evenodd" fill-opacity="1" /><path clip-path="url(#clip190)" d="M 0 0 M43.6239 258.712 L44.845 258.712 L44.845 260.182 L43.6239 260.182 L43.6239 258.712 Z" fill="#000000" fill-rule="evenodd" fill-opacity="1" /><path clip-path="url(#clip190)" d="M 0 0 M47.1193 259.198 L51.1991 259.198 L51.1991 260.182 L45.7131 260.182 L45.7131 259.198 Q46.3786 258.51 47.5244 257.352 Q48.676 256.189 48.9711 255.854 Q49.5325 255.223 49.7524 254.789 Q49.9781 254.349 49.9781 253.927 Q49.9781 253.238 49.492 252.804 Q49.0116 252.37 48.2362 252.37 Q47.6864 252.37 47.073 252.561 Q46.4654 252.752 45.7709 253.139 L45.7709 251.959 Q46.4769 251.675 47.0904 251.531 Q47.7038 251.386 48.213 251.386 Q49.5556 251.386 50.3542 252.057 Q51.1528 252.729 51.1528 253.851 Q51.1528 254.384 50.9503 254.864 Q50.7535 255.339 50.2269 255.987 Q50.0822 256.155 49.3068 256.959 Q48.5313 257.758 47.1193 259.198 Z" fill="#000000" fill-rule="evenodd" fill-opacity="1" /><path clip-path="url(#clip190)" d="M 0 0 M28.0916 219.836 L35.5106 219.836 L35.5106 220.82 L28.0916 220.82 L28.0916 219.836 Z" fill="#000000" fill-rule="evenodd" fill-opacity="1" /><path clip-path="url(#clip190)" d="M 0 0 M39.2779 216.173 Q38.3751 216.173 37.918 217.064 Q37.4666 217.95 37.4666 219.732 Q37.4666 221.509 37.918 222.4 Q38.3751 223.285 39.2779 223.285 Q40.1865 223.285 40.6378 222.4 Q41.095 221.509 41.095 219.732 Q41.095 217.95 40.6378 217.064 Q40.1865 216.173 39.2779 216.173 M39.2779 215.247 Q40.7304 215.247 41.4943 216.399 Q42.264 217.544 42.264 219.732 Q42.264 221.914 41.4943 223.065 Q40.7304 224.211 39.2779 224.211 Q37.8254 224.211 37.0557 223.065 Q36.2918 221.914 36.2918 219.732 Q36.2918 217.544 37.0557 216.399 Q37.8254 215.247 39.2779 215.247 Z" fill="#000000" fill-rule="evenodd" fill-opacity="1" /><path clip-path="url(#clip190)" d="M 0 0 M43.5314 222.573 L44.7524 222.573 L44.7524 224.043 L43.5314 224.043 L43.5314 222.573 Z" fill="#000000" fill-rule="evenodd" fill-opacity="1" /><path clip-path="url(#clip190)" d="M 0 0 M46.2223 223.059 L48.132 223.059 L48.132 216.468 L46.0545 216.885 L46.0545 215.82 L48.1204 215.403 L49.2894 215.403 L49.2894 223.059 L51.1991 223.059 L51.1991 224.043 L46.2223 224.043 L46.2223 223.059 Z" fill="#000000" fill-rule="evenodd" fill-opacity="1" /><path clip-path="url(#clip190)" d="M 0 0 M38.9712 180.034 Q38.0684 180.034 37.6112 180.925 Q37.1599 181.81 37.1599 183.593 Q37.1599 185.369 37.6112 186.261 Q38.0684 187.146 38.9712 187.146 Q39.8798 187.146 40.3311 186.261 Q40.7883 185.369 40.7883 183.593 Q40.7883 181.81 40.3311 180.925 Q39.8798 180.034 38.9712 180.034 M38.9712 179.108 Q40.4237 179.108 41.1876 180.26 Q41.9573 181.405 41.9573 183.593 Q41.9573 185.775 41.1876 186.926 Q40.4237 188.072 38.9712 188.072 Q37.5187 188.072 36.749 186.926 Q35.9851 185.775 35.9851 183.593 Q35.9851 181.405 36.749 180.26 Q37.5187 179.108 38.9712 179.108 Z" fill="#000000" fill-rule="evenodd" fill-opacity="1" /><path clip-path="url(#clip190)" d="M 0 0 M43.2246 186.434 L44.4457 186.434 L44.4457 187.904 L43.2246 187.904 L43.2246 186.434 Z" fill="#000000" fill-rule="evenodd" fill-opacity="1" /><path clip-path="url(#clip190)" d="M 0 0 M48.213 180.034 Q47.3103 180.034 46.8531 180.925 Q46.4017 181.81 46.4017 183.593 Q46.4017 185.369 46.8531 186.261 Q47.3103 187.146 48.213 187.146 Q49.1216 187.146 49.573 186.261 Q50.0302 185.369 50.0302 183.593 Q50.0302 181.81 49.573 180.925 Q49.1216 180.034 48.213 180.034 M48.213 179.108 Q49.6656 179.108 50.4295 180.26 Q51.1991 181.405 51.1991 183.593 Q51.1991 185.775 50.4295 186.926 Q49.6656 188.072 48.213 188.072 Q46.7605 188.072 45.9908 186.926 Q45.2269 185.775 45.2269 183.593 Q45.2269 181.405 45.9908 180.26 Q46.7605 179.108 48.213 179.108 Z" fill="#000000" fill-rule="evenodd" fill-opacity="1" /><path clip-path="url(#clip190)" d="M 0 0 M39.2779 143.895 Q38.3751 143.895 37.918 144.786 Q37.4666 145.671 37.4666 147.454 Q37.4666 149.23 37.918 150.122 Q38.3751 151.007 39.2779 151.007 Q40.1865 151.007 40.6378 150.122 Q41.095 149.23 41.095 147.454 Q41.095 145.671 40.6378 144.786 Q40.1865 143.895 39.2779 143.895 M39.2779 142.969 Q40.7304 142.969 41.4943 144.121 Q42.264 145.266 42.264 147.454 Q42.264 149.636 41.4943 150.787 Q40.7304 151.933 39.2779 151.933 Q37.8254 151.933 37.0557 150.787 Q36.2918 149.636 36.2918 147.454 Q36.2918 145.266 37.0557 144.121 Q37.8254 142.969 39.2779 142.969 Z" fill="#000000" fill-rule="evenodd" fill-opacity="1" /><path clip-path="url(#clip190)" d="M 0 0 M43.5314 150.295 L44.7524 150.295 L44.7524 151.765 L43.5314 151.765 L43.5314 150.295 Z" fill="#000000" fill-rule="evenodd" fill-opacity="1" /><path clip-path="url(#clip190)" d="M 0 0 M46.2223 150.781 L48.132 150.781 L48.132 144.19 L46.0545 144.607 L46.0545 143.542 L48.1204 143.125 L49.2894 143.125 L49.2894 150.781 L51.1991 150.781 L51.1991 151.765 L46.2223 151.765 L46.2223 150.781 Z" fill="#000000" fill-rule="evenodd" fill-opacity="1" /><path clip-path="url(#clip190)" d="M 0 0 M39.3705 107.756 Q38.4677 107.756 38.0105 108.647 Q37.5592 109.532 37.5592 111.315 Q37.5592 113.091 38.0105 113.983 Q38.4677 114.868 39.3705 114.868 Q40.2791 114.868 40.7304 113.983 Q41.1876 113.091 41.1876 111.315 Q41.1876 109.532 40.7304 108.647 Q40.2791 107.756 39.3705 107.756 M39.3705 106.83 Q40.823 106.83 41.5869 107.981 Q42.3566 109.127 42.3566 111.315 Q42.3566 113.497 41.5869 114.648 Q40.823 115.794 39.3705 115.794 Q37.918 115.794 37.1483 114.648 Q36.3844 113.497 36.3844 111.315 Q36.3844 109.127 37.1483 107.981 Q37.918 106.83 39.3705 106.83 Z" fill="#000000" fill-rule="evenodd" fill-opacity="1" /><path clip-path="url(#clip190)" d="M 0 0 M43.6239 114.156 L44.845 114.156 L44.845 115.626 L43.6239 115.626 L43.6239 114.156 Z" fill="#000000" fill-rule="evenodd" fill-opacity="1" /><path clip-path="url(#clip190)" d="M 0 0 M47.1193 114.642 L51.1991 114.642 L51.1991 115.626 L45.7131 115.626 L45.7131 114.642 Q46.3786 113.954 47.5244 112.796 Q48.676 111.633 48.9711 111.297 Q49.5325 110.667 49.7524 110.233 Q49.9781 109.793 49.9781 109.37 Q49.9781 108.682 49.492 108.248 Q49.0116 107.814 48.2362 107.814 Q47.6864 107.814 47.073 108.005 Q46.4654 108.196 45.7709 108.583 L45.7709 107.403 Q46.4769 107.119 47.0904 106.975 Q47.7038 106.83 48.213 106.83 Q49.5556 106.83 50.3542 107.501 Q51.1528 108.172 51.1528 109.295 Q51.1528 109.828 50.9503 110.308 Q50.7535 110.782 50.2269 111.431 Q50.0822 111.598 49.3068 112.403 Q48.5313 113.201 47.1193 114.642 Z" fill="#000000" fill-rule="evenodd" fill-opacity="1" /><path clip-path="url(#clip190)" d="M 0 0 M39.1332 71.6168 Q38.2305 71.6168 37.7733 72.508 Q37.3219 73.3934 37.3219 75.1758 Q37.3219 76.9524 37.7733 77.8436 Q38.2305 78.729 39.1332 78.729 Q40.0418 78.729 40.4932 77.8436 Q40.9503 76.9524 40.9503 75.1758 Q40.9503 73.3934 40.4932 72.508 Q40.0418 71.6168 39.1332 71.6168 M39.1332 70.6908 Q40.5858 70.6908 41.3497 71.8425 Q42.1193 72.9883 42.1193 75.1758 Q42.1193 77.3575 41.3497 78.5091 Q40.5858 79.6549 39.1332 79.6549 Q37.6807 79.6549 36.911 78.5091 Q36.1471 77.3575 36.1471 75.1758 Q36.1471 72.9883 36.911 71.8425 Q37.6807 70.6908 39.1332 70.6908 Z" fill="#000000" fill-rule="evenodd" fill-opacity="1" /><path clip-path="url(#clip190)" d="M 0 0 M43.3867 78.0172 L44.6077 78.0172 L44.6077 79.4871 L43.3867 79.4871 L43.3867 78.0172 Z" fill="#000000" fill-rule="evenodd" fill-opacity="1" /><path clip-path="url(#clip190)" d="M 0 0 M49.4167 74.8285 Q50.2559 75.0079 50.7246 75.5751 Q51.1991 76.1422 51.1991 76.9755 Q51.1991 78.2545 50.3195 78.9547 Q49.4399 79.6549 47.8195 79.6549 Q47.2755 79.6549 46.6968 79.545 Q46.1239 79.4408 45.5105 79.2267 L45.5105 78.0982 Q45.9966 78.3818 46.5753 78.5264 Q47.154 78.6711 47.7848 78.6711 Q48.8843 78.6711 49.4572 78.2371 Q50.0359 77.8031 50.0359 76.9755 Q50.0359 76.2116 49.4978 75.7834 Q48.9654 75.3494 48.0105 75.3494 L47.0036 75.3494 L47.0036 74.3887 L48.0568 74.3887 Q48.9191 74.3887 49.3762 74.0473 Q49.8334 73.7001 49.8334 73.0519 Q49.8334 72.3864 49.3589 72.0334 Q48.8901 71.6746 48.0105 71.6746 Q47.5302 71.6746 46.9804 71.7788 Q46.4306 71.883 45.7709 72.1029 L45.7709 71.0612 Q46.4364 70.876 47.0151 70.7834 Q47.5996 70.6908 48.1147 70.6908 Q49.4457 70.6908 50.2211 71.2985 Q50.9966 71.9003 50.9966 72.9304 Q50.9966 73.648 50.5857 74.1457 Q50.1748 74.6376 49.4167 74.8285 Z" fill="#000000" fill-rule="evenodd" fill-opacity="1" /><path clip-path="url(#clip190)" d="M 0 0 M38.8497 35.4777 Q37.9469 35.4777 37.4897 36.3689 Q37.0383 37.2543 37.0383 39.0367 Q37.0383 40.8133 37.4897 41.7045 Q37.9469 42.59 38.8497 42.59 Q39.7582 42.59 40.2096 41.7045 Q40.6668 40.8133 40.6668 39.0367 Q40.6668 37.2543 40.2096 36.3689 Q39.7582 35.4777 38.8497 35.4777 M38.8497 34.5518 Q40.3022 34.5518 41.0661 35.7034 Q41.8358 36.8492 41.8358 39.0367 Q41.8358 41.2184 41.0661 42.37 Q40.3022 43.5159 38.8497 43.5159 Q37.3971 43.5159 36.6275 42.37 Q35.8636 41.2184 35.8636 39.0367 Q35.8636 36.8492 36.6275 35.7034 Q37.3971 34.5518 38.8497 34.5518 Z" fill="#000000" fill-rule="evenodd" fill-opacity="1" /><path clip-path="url(#clip190)" d="M 0 0 M43.1031 41.8782 L44.3242 41.8782 L44.3242 43.3481 L43.1031 43.3481 L43.1031 41.8782 Z" fill="#000000" fill-rule="evenodd" fill-opacity="1" /><path clip-path="url(#clip190)" d="M 0 0 M48.8033 35.7266 L45.8519 40.3388 L48.8033 40.3388 L48.8033 35.7266 M48.4966 34.7081 L49.9665 34.7081 L49.9665 40.3388 L51.1991 40.3388 L51.1991 41.311 L49.9665 41.311 L49.9665 43.3481 L48.8033 43.3481 L48.8033 41.311 L44.9029 41.311 L44.9029 40.1826 L48.4966 34.7081 Z" fill="#000000" fill-rule="evenodd" fill-opacity="1" /><g clip-path="url(#clip190)">
<text style="fill:#000000; fill-opacity:1; font-family:Arial,Helvetica Neue,Helvetica,sans-serif; font-size:16px; text-anchor:middle;" transform="rotate(-90, 18.0011, 135.11)" x="18.0011" y="135.11">anomaly (degrees C)</text>
</g>
<circle clip-path="url(#clip192)" cx="69.997" cy="200.931" r="3" fill="#009af9" fill-rule="evenodd" fill-opacity="1" stroke="#000000" stroke-opacity="1" stroke-width="0.6"/>
<circle clip-path="url(#clip192)" cx="112.952" cy="190.089" r="3" fill="#009af9" fill-rule="evenodd" fill-opacity="1" stroke="#000000" stroke-opacity="1" stroke-width="0.6"/>
<circle clip-path="url(#clip192)" cx="155.907" cy="196.594" r="3" fill="#009af9" fill-rule="evenodd" fill-opacity="1" stroke="#000000" stroke-opacity="1" stroke-width="0.6"/>
<circle clip-path="url(#clip192)" cx="198.862" cy="187.921" r="3" fill="#009af9" fill-rule="evenodd" fill-opacity="1" stroke="#000000" stroke-opacity="1" stroke-width="0.6"/>
<circle clip-path="url(#clip192)" cx="241.817" cy="185.03" r="3" fill="#009af9" fill-rule="evenodd" fill-opacity="1" stroke="#000000" stroke-opacity="1" stroke-width="0.6"/>
<circle clip-path="url(#clip192)" cx="284.772" cy="140.94" r="3" fill="#009af9" fill-rule="evenodd" fill-opacity="1" stroke="#000000" stroke-opacity="1" stroke-width="0.6"/>
<circle clip-path="url(#clip192)" cx="327.726" cy="107.692" r="3" fill="#009af9" fill-rule="evenodd" fill-opacity="1" stroke="#000000" stroke-opacity="1" stroke-width="0.6"/>
<circle clip-path="url(#clip192)" cx="370.681" cy="63.6026" r="3" fill="#009af9" fill-rule="evenodd" fill-opacity="1" stroke="#000000" stroke-opacity="1" stroke-width="0.6"/>
<circle clip-path="url(#clip192)" cx="413.636" cy="62.8798" r="3" fill="#009af9" fill-rule="evenodd" fill-opacity="1" stroke="#000000" stroke-opacity="1" stroke-width="0.6"/>
<circle clip-path="url(#clip192)" cx="456.591" cy="18.7902" r="3" fill="#009af9" fill-rule="evenodd" fill-opacity="1" stroke="#000000" stroke-opacity="1" stroke-width="0.6"/>
<polyline clip-path="url(#clip192)" style="stroke:#e26f46; stroke-width:2; stroke-opacity:1; fill:none" points="
  69.997,251.429 73.7724,249.576 108.681,232.438 129.66,222.139 147.398,213.431 166.666,203.972 184.429,195.252 203.473,185.902 225.537,175.07 245.145,165.444 
  262.34,157.003 281.087,147.8 299.945,138.542 320.795,128.306 340.634,118.567 361.261,108.44 378.625,99.9159 399.824,89.5086 419.752,79.7255 451.678,64.0522 
  456.591,61.6401 
  "/>
<polyline clip-path="url(#clip192)" style="stroke:#3da44d; stroke-width:2; stroke-opacity:1; fill:none" points="
  69.997,169.177 71.8847,170.552 73.7724,171.897 91.2269,182.876 108.681,191.335 119.171,195.265 129.66,198.367 138.529,200.366 147.398,201.813 157.032,202.781 
  166.666,203.143 175.547,202.96 184.429,202.302 193.951,201.088 203.473,199.371 214.505,196.783 225.537,193.586 245.145,186.511 262.34,178.973 281.087,169.501 
  299.945,158.825 320.795,145.894 340.634,132.703 361.261,118.298 378.625,105.794 399.824,90.2749 419.752,75.6432 451.678,52.6496 456.591,49.2053 
  "/>
<path clip-path="url(#clip190)" d="
M366.816 250.188 L454.529 250.188 L454.529 189.708 L366.816 189.708  Z
  " fill="#ffffff" fill-rule="evenodd" fill-opacity="1"/>
<polyline clip-path="url(#clip190)" style="stroke:#000000; stroke-width:1; stroke-opacity:1; fill:none" points="
  366.816,250.188 454.529,250.188 454.529,189.708 366.816,189.708 366.816,250.188 
  "/>
<circle clip-path="url(#clip190)" cx="385.029" cy="204.828" r="5" fill="#009af9" fill-rule="evenodd" fill-opacity="1" stroke="#000000" stroke-opacity="1" stroke-width="0.96"/>
<path clip-path="url(#clip190)" d="M 0 0 M407.969 203.651 L407.969 200.144 L409.034 200.144 L409.034 209.148 L407.969 209.148 L407.969 208.176 Q407.634 208.755 407.119 209.039 Q406.609 209.316 405.892 209.316 Q404.717 209.316 403.976 208.379 Q403.241 207.441 403.241 205.914 Q403.241 204.386 403.976 203.448 Q404.717 202.511 405.892 202.511 Q406.609 202.511 407.119 202.794 Q407.634 203.072 407.969 203.651 M404.341 205.914 Q404.341 207.088 404.821 207.76 Q405.307 208.425 406.152 208.425 Q406.997 208.425 407.483 207.76 Q407.969 207.088 407.969 205.914 Q407.969 204.739 407.483 204.073 Q406.997 203.402 406.152 203.402 Q405.307 203.402 404.821 204.073 Q404.341 204.739 404.341 205.914 Z" fill="#000000" fill-rule="evenodd" fill-opacity="1" /><path clip-path="url(#clip190)" d="M 0 0 M413.097 205.89 Q411.806 205.89 411.308 206.186 Q410.811 206.481 410.811 207.192 Q410.811 207.76 411.181 208.095 Q411.557 208.425 412.2 208.425 Q413.085 208.425 413.617 207.8 Q414.156 207.169 414.156 206.128 L414.156 205.89 L413.097 205.89 M415.22 205.451 L415.22 209.148 L414.156 209.148 L414.156 208.165 Q413.791 208.755 413.247 209.039 Q412.703 209.316 411.916 209.316 Q410.921 209.316 410.33 208.761 Q409.746 208.199 409.746 207.262 Q409.746 206.168 410.475 205.613 Q411.21 205.057 412.663 205.057 L414.156 205.057 L414.156 204.953 Q414.156 204.218 413.67 203.819 Q413.189 203.414 412.315 203.414 Q411.76 203.414 411.233 203.547 Q410.707 203.68 410.221 203.946 L410.221 202.962 Q410.805 202.736 411.355 202.627 Q411.905 202.511 412.425 202.511 Q413.832 202.511 414.526 203.24 Q415.22 203.969 415.22 205.451 Z" fill="#000000" fill-rule="evenodd" fill-opacity="1" /><path clip-path="url(#clip190)" d="M 0 0 M417.391 200.827 L417.391 202.667 L419.584 202.667 L419.584 203.495 L417.391 203.495 L417.391 207.013 Q417.391 207.806 417.605 208.032 Q417.825 208.257 418.49 208.257 L419.584 208.257 L419.584 209.148 L418.49 209.148 Q417.258 209.148 416.789 208.691 Q416.32 208.228 416.32 207.013 L416.32 203.495 L415.539 203.495 L415.539 202.667 L416.32 202.667 L416.32 200.827 L417.391 200.827 Z" fill="#000000" fill-rule="evenodd" fill-opacity="1" /><path clip-path="url(#clip190)" d="M 0 0 M423.646 205.89 Q422.356 205.89 421.858 206.186 Q421.361 206.481 421.361 207.192 Q421.361 207.76 421.731 208.095 Q422.107 208.425 422.749 208.425 Q423.635 208.425 424.167 207.8 Q424.705 207.169 424.705 206.128 L424.705 205.89 L423.646 205.89 M425.77 205.451 L425.77 209.148 L424.705 209.148 L424.705 208.165 Q424.341 208.755 423.797 209.039 Q423.253 209.316 422.466 209.316 Q421.47 209.316 420.88 208.761 Q420.296 208.199 420.296 207.262 Q420.296 206.168 421.025 205.613 Q421.76 205.057 423.212 205.057 L424.705 205.057 L424.705 204.953 Q424.705 204.218 424.219 203.819 Q423.739 203.414 422.865 203.414 Q422.31 203.414 421.783 203.547 Q421.256 203.68 420.77 203.946 L420.77 202.962 Q421.355 202.736 421.904 202.627 Q422.454 202.511 422.975 202.511 Q424.381 202.511 425.076 203.24 Q425.77 203.969 425.77 205.451 Z" fill="#000000" fill-rule="evenodd" fill-opacity="1" /><polyline clip-path="url(#clip190)" style="stroke:#e26f46; stroke-width:1; stroke-opacity:1; fill:none" points="
  371.369,219.948 398.688,219.948 
  "/>
<path clip-path="url(#clip190)" d="M 0 0 M403.241 215.264 L404.306 215.264 L404.306 224.268 L403.241 224.268 L403.241 215.264 Z" fill="#000000" fill-rule="evenodd" fill-opacity="1" /><path clip-path="url(#clip190)" d="M 0 0 M405.423 217.787 L406.488 217.787 L406.488 224.268 L405.423 224.268 L405.423 217.787 M405.423 215.264 L406.488 215.264 L406.488 216.612 L405.423 216.612 L405.423 215.264 Z" fill="#000000" fill-rule="evenodd" fill-opacity="1" /><path clip-path="url(#clip190)" d="M 0 0 M412.992 220.356 L412.992 224.268 L411.928 224.268 L411.928 220.391 Q411.928 219.471 411.569 219.014 Q411.21 218.557 410.493 218.557 Q409.63 218.557 409.133 219.106 Q408.635 219.656 408.635 220.605 L408.635 224.268 L407.564 224.268 L407.564 217.787 L408.635 217.787 L408.635 218.794 Q409.017 218.209 409.532 217.92 Q410.053 217.631 410.73 217.631 Q411.847 217.631 412.42 218.325 Q412.992 219.014 412.992 220.356 Z" fill="#000000" fill-rule="evenodd" fill-opacity="1" /><path clip-path="url(#clip190)" d="M 0 0 M419.653 220.762 L419.653 221.282 L414.758 221.282 Q414.827 222.382 415.417 222.961 Q416.013 223.534 417.072 223.534 Q417.686 223.534 418.259 223.383 Q418.837 223.233 419.404 222.932 L419.404 223.939 Q418.832 224.182 418.23 224.309 Q417.628 224.436 417.009 224.436 Q415.458 224.436 414.549 223.534 Q413.646 222.631 413.646 221.091 Q413.646 219.5 414.503 218.568 Q415.365 217.631 416.823 217.631 Q418.131 217.631 418.889 218.476 Q419.653 219.315 419.653 220.762 M418.589 220.449 Q418.577 219.575 418.097 219.054 Q417.622 218.534 416.835 218.534 Q415.944 218.534 415.406 219.037 Q414.873 219.54 414.792 220.455 L418.589 220.449 Z" fill="#000000" fill-rule="evenodd" fill-opacity="1" /><path clip-path="url(#clip190)" d="M 0 0 M423.716 221.01 Q422.425 221.01 421.928 221.306 Q421.43 221.601 421.43 222.312 Q421.43 222.88 421.8 223.215 Q422.176 223.545 422.819 223.545 Q423.704 223.545 424.237 222.92 Q424.775 222.289 424.775 221.248 L424.775 221.01 L423.716 221.01 M425.84 220.571 L425.84 224.268 L424.775 224.268 L424.775 223.285 Q424.41 223.875 423.866 224.159 Q423.322 224.436 422.535 224.436 Q421.54 224.436 420.95 223.881 Q420.365 223.319 420.365 222.382 Q420.365 221.288 421.094 220.733 Q421.829 220.177 423.282 220.177 L424.775 220.177 L424.775 220.073 Q424.775 219.338 424.289 218.939 Q423.808 218.534 422.935 218.534 Q422.379 218.534 421.852 218.667 Q421.326 218.8 420.84 219.066 L420.84 218.082 Q421.424 217.856 421.974 217.747 Q422.524 217.631 423.045 217.631 Q424.451 217.631 425.145 218.36 Q425.84 219.089 425.84 220.571 Z" fill="#000000" fill-rule="evenodd" fill-opacity="1" /><path clip-path="url(#clip190)" d="M 0 0 M430.712 218.782 Q430.533 218.678 430.319 218.632 Q430.11 218.58 429.856 218.58 Q428.953 218.58 428.467 219.17 Q427.987 219.755 427.987 220.854 L427.987 224.268 L426.916 224.268 L426.916 217.787 L427.987 217.787 L427.987 218.794 Q428.322 218.204 428.86 217.92 Q429.399 217.631 430.168 217.631 Q430.278 217.631 430.411 217.648 Q430.544 217.66 430.707 217.689 L430.712 218.782 Z" fill="#000000" fill-rule="evenodd" fill-opacity="1" /><path clip-path="url(#clip190)" d="M 0 0 M438.878 215.264 L438.878 216.149 L437.859 216.149 Q437.286 216.149 437.061 216.381 Q436.841 216.612 436.841 217.214 L436.841 217.787 L438.594 217.787 L438.594 218.615 L436.841 218.615 L436.841 224.268 L435.77 224.268 L435.77 218.615 L434.752 218.615 L434.752 217.787 L435.77 217.787 L435.77 217.336 Q435.77 216.253 436.274 215.762 Q436.777 215.264 437.871 215.264 L438.878 215.264 Z" fill="#000000" fill-rule="evenodd" fill-opacity="1" /><path clip-path="url(#clip190)" d="M 0 0 M439.995 217.787 L441.059 217.787 L441.059 224.268 L439.995 224.268 L439.995 217.787 M439.995 215.264 L441.059 215.264 L441.059 216.612 L439.995 216.612 L439.995 215.264 Z" fill="#000000" fill-rule="evenodd" fill-opacity="1" /><path clip-path="url(#clip190)" d="M 0 0 M443.23 215.947 L443.23 217.787 L445.423 217.787 L445.423 218.615 L443.23 218.615 L443.23 222.133 Q443.23 222.926 443.444 223.152 Q443.664 223.377 444.329 223.377 L445.423 223.377 L445.423 224.268 L444.329 224.268 Q443.096 224.268 442.628 223.811 Q442.159 223.348 442.159 222.133 L442.159 218.615 L441.378 218.615 L441.378 217.787 L442.159 217.787 L442.159 215.947 L443.23 215.947 Z" fill="#000000" fill-rule="evenodd" fill-opacity="1" /><polyline clip-path="url(#clip190)" style="stroke:#3da44d; stroke-width:1; stroke-opacity:1; fill:none" points="
  371.369,235.068 398.688,235.068 
  "/>
<path clip-path="url(#clip190)" d="M 0 0 M408.369 233.156 L408.369 234.151 Q407.917 233.902 407.46 233.781 Q407.009 233.654 406.546 233.654 Q405.51 233.654 404.937 234.313 Q404.364 234.967 404.364 236.154 Q404.364 237.34 404.937 238 Q405.51 238.654 406.546 238.654 Q407.009 238.654 407.46 238.532 Q407.917 238.405 408.369 238.156 L408.369 239.14 Q407.923 239.348 407.443 239.452 Q406.968 239.556 406.43 239.556 Q404.966 239.556 404.104 238.636 Q403.241 237.716 403.241 236.154 Q403.241 234.568 404.109 233.659 Q404.983 232.751 406.499 232.751 Q406.991 232.751 407.46 232.855 Q407.929 232.953 408.369 233.156 Z" fill="#000000" fill-rule="evenodd" fill-opacity="1" /><path clip-path="url(#clip190)" d="M 0 0 M409.376 236.831 L409.376 232.907 L410.44 232.907 L410.44 236.79 Q410.44 237.71 410.799 238.173 Q411.158 238.63 411.876 238.63 Q412.738 238.63 413.236 238.081 Q413.739 237.531 413.739 236.582 L413.739 232.907 L414.804 232.907 L414.804 239.388 L413.739 239.388 L413.739 238.393 Q413.351 238.983 412.836 239.273 Q412.327 239.556 411.65 239.556 Q410.533 239.556 409.954 238.862 Q409.376 238.167 409.376 236.831 M412.055 232.751 L412.055 232.751 Z" fill="#000000" fill-rule="evenodd" fill-opacity="1" /><path clip-path="url(#clip190)" d="M 0 0 M420.573 236.154 Q420.573 234.979 420.087 234.313 Q419.607 233.642 418.762 233.642 Q417.917 233.642 417.431 234.313 Q416.951 234.979 416.951 236.154 Q416.951 237.328 417.431 238 Q417.917 238.665 418.762 238.665 Q419.607 238.665 420.087 238 Q420.573 237.328 420.573 236.154 M416.951 233.891 Q417.286 233.312 417.796 233.034 Q418.311 232.751 419.023 232.751 Q420.203 232.751 420.938 233.688 Q421.679 234.626 421.679 236.154 Q421.679 237.681 420.938 238.619 Q420.203 239.556 419.023 239.556 Q418.311 239.556 417.796 239.279 Q417.286 238.995 416.951 238.416 L416.951 239.388 L415.88 239.388 L415.88 230.384 L416.951 230.384 L416.951 233.891 Z" fill="#000000" fill-rule="evenodd" fill-opacity="1" /><path clip-path="url(#clip190)" d="M 0 0 M422.796 232.907 L423.86 232.907 L423.86 239.388 L422.796 239.388 L422.796 232.907 M422.796 230.384 L423.86 230.384 L423.86 231.732 L422.796 231.732 L422.796 230.384 Z" fill="#000000" fill-rule="evenodd" fill-opacity="1" /><path clip-path="url(#clip190)" d="M 0 0 M429.642 233.156 L429.642 234.151 Q429.19 233.902 428.733 233.781 Q428.282 233.654 427.819 233.654 Q426.783 233.654 426.21 234.313 Q425.637 234.967 425.637 236.154 Q425.637 237.34 426.21 238 Q426.783 238.654 427.819 238.654 Q428.282 238.654 428.733 238.532 Q429.19 238.405 429.642 238.156 L429.642 239.14 Q429.196 239.348 428.716 239.452 Q428.241 239.556 427.703 239.556 Q426.239 239.556 425.377 238.636 Q424.514 237.716 424.514 236.154 Q424.514 234.568 425.382 233.659 Q426.256 232.751 427.773 232.751 Q428.264 232.751 428.733 232.855 Q429.202 232.953 429.642 233.156 Z" fill="#000000" fill-rule="evenodd" fill-opacity="1" /><path clip-path="url(#clip190)" d="M 0 0 M437.807 230.384 L437.807 231.269 L436.789 231.269 Q436.216 231.269 435.99 231.501 Q435.77 231.732 435.77 232.334 L435.77 232.907 L437.524 232.907 L437.524 233.735 L435.77 233.735 L435.77 239.388 L434.7 239.388 L434.7 233.735 L433.681 233.735 L433.681 232.907 L434.7 232.907 L434.7 232.456 Q434.7 231.373 435.203 230.882 Q435.706 230.384 436.8 230.384 L437.807 230.384 Z" fill="#000000" fill-rule="evenodd" fill-opacity="1" /><path clip-path="url(#clip190)" d="M 0 0 M438.924 232.907 L439.989 232.907 L439.989 239.388 L438.924 239.388 L438.924 232.907 M438.924 230.384 L439.989 230.384 L439.989 231.732 L438.924 231.732 L438.924 230.384 Z" fill="#000000" fill-rule="evenodd" fill-opacity="1" /><path clip-path="url(#clip190)" d="M 0 0 M442.159 231.067 L442.159 232.907 L444.352 232.907 L444.352 233.735 L442.159 233.735 L442.159 237.253 Q442.159 238.046 442.373 238.272 Q442.593 238.497 443.259 238.497 L444.352 238.497 L444.352 239.388 L443.259 239.388 Q442.026 239.388 441.557 238.931 Q441.088 238.468 441.088 237.253 L441.088 233.735 L440.307 233.735 L440.307 232.907 L441.088 232.907 L441.088 231.067 L442.159 231.067 Z" fill="#000000" fill-rule="evenodd" fill-opacity="1" /></svg>
