<?xml version="1.0" encoding="utf-8"?>
<svg xmlns="http://www.w3.org/2000/svg" xmlns:xlink="http://www.w3.org/1999/xlink" width="120" height="75" viewBox="0 0 480 300">
<defs>
  <clipPath id="clip150">
    <rect x="0" y="0" width="480" height="300"/>
  </clipPath>
</defs>
<path clip-path="url(#clip150)" d="
M0 300 L480 300 L480 0 L0 0  Z
  " fill="#ffffff" fill-rule="evenodd" fill-opacity="1"/>
<defs>
  <clipPath id="clip151">
    <rect x="96" y="0" width="337" height="300"/>
  </clipPath>
</defs>
<path clip-path="url(#clip150)" d="
M58.3991 258.408 L468.189 258.408 L468.189 11.811 L58.3991 11.811  Z
  " fill="#ffffff" fill-rule="evenodd" fill-opacity="1"/>
<defs>
  <clipPath id="clip152">
    <rect x="58" y="11" width="411" height="248"/>
  </clipPath>
</defs>
<polyline clip-path="url(#clip152)" style="stroke:#000000; stroke-width:0.5; stroke-opacity:0.1; fill:none" points="
  112.952,258.408 112.952,11.811 
  "/>
<polyline clip-path="url(#clip152)" style="stroke:#000000; stroke-width:0.5; stroke-opacity:0.1; fill:none" points="
  198.862,258.408 198.862,11.811 
  "/>
<polyline clip-path="url(#clip152)" style="stroke:#000000; stroke-width:0.5; stroke-opacity:0.1; fill:none" points="
  284.772,258.408 284.772,11.811 
  "/>
<polyline clip-path="url(#clip152)" style="stroke:#000000; stroke-width:0.5; stroke-opacity:0.1; fill:none" points="
  370.681,258.408 370.681,11.811 
  "/>
<polyline clip-path="url(#clip152)" style="stroke:#000000; stroke-width:0.5; stroke-opacity:0.1; fill:none" points="
  456.591,258.408 456.591,11.811 
  "/>
<polyline clip-path="url(#clip150)" style="stroke:#000000; stroke-width:1; stroke-opacity:1; fill:none" points="
  58.3991,258.408 468.189,258.408 
  "/>
<polyline clip-path="url(#clip150)" style="stroke:#000000; stroke-width:1; stroke-opacity:1; fill:none" points="
  112.952,258.408 112.952,255.449 
  "/>
<polyline clip-path="url(#clip150)" style="stroke:#000000; stroke-width:1; stroke-opacity:1; fill:none" points="
  198.862,258.408 198.862,255.449 
  "/>
<polyline clip-path="url(#clip150)" style="stroke:#000000; stroke-width:1; stroke-opacity:1; fill:none" points="
  284.772,258.408 284.772,255.449 
  "/>
<polyline clip-path="url(#clip150)" style="stroke:#000000; stroke-width:1; stroke-opacity:1; fill:none" points="
  370.681,258.408 370.681,255.449 
  "/>
<polyline clip-path="url(#clip150)" style="stroke:#000000; stroke-width:1; stroke-opacity:1; fill:none" points="
  456.591,258.408 456.591,255.449 
  "/>
<path clip-path="url(#clip150)" d="M 0 0 M100.42 271.633 L102.33 271.633 L102.33 265.041 L100.252 265.458 L100.252 264.393 L102.318 263.976 L103.487 263.976 L103.487 271.633 L105.397 271.633 L105.397 272.616 L100.42 272.616 L100.42 271.633 Z" fill="#000000" fill-rule="evenodd" fill-opacity="1" /><path clip-path="url(#clip150)" d="M 0 0 M106.699 272.437 L106.699 271.372 Q107.139 271.581 107.59 271.69 Q108.042 271.8 108.476 271.8 Q109.633 271.8 110.241 271.025 Q110.854 270.244 110.941 268.658 Q110.605 269.156 110.09 269.422 Q109.575 269.688 108.95 269.688 Q107.654 269.688 106.896 268.907 Q106.143 268.12 106.143 266.76 Q106.143 265.429 106.93 264.625 Q107.718 263.82 109.025 263.82 Q110.524 263.82 111.311 264.972 Q112.104 266.118 112.104 268.305 Q112.104 270.348 111.132 271.569 Q110.165 272.784 108.528 272.784 Q108.088 272.784 107.637 272.697 Q107.185 272.611 106.699 272.437 M109.025 268.774 Q109.812 268.774 110.27 268.236 Q110.733 267.697 110.733 266.76 Q110.733 265.828 110.27 265.29 Q109.812 264.746 109.025 264.746 Q108.238 264.746 107.775 265.29 Q107.318 265.828 107.318 266.76 Q107.318 267.697 107.775 268.236 Q108.238 268.774 109.025 268.774 Z" fill="#000000" fill-rule="evenodd" fill-opacity="1" /><path clip-path="url(#clip150)" d="M 0 0 M116.016 267.831 Q115.229 267.831 114.766 268.369 Q114.309 268.907 114.309 269.844 Q114.309 270.776 114.766 271.32 Q115.229 271.858 116.016 271.858 Q116.803 271.858 117.26 271.32 Q117.723 270.776 117.723 269.844 Q117.723 268.907 117.26 268.369 Q116.803 267.831 116.016 267.831 M118.337 264.167 L118.337 265.232 Q117.897 265.024 117.445 264.914 Q117 264.804 116.56 264.804 Q115.403 264.804 114.789 265.585 Q114.182 266.366 114.095 267.946 Q114.436 267.443 114.951 267.177 Q115.466 266.905 116.086 266.905 Q117.388 266.905 118.14 267.697 Q118.898 268.484 118.898 269.844 Q118.898 271.175 118.111 271.98 Q117.324 272.784 116.016 272.784 Q114.517 272.784 113.724 271.638 Q112.932 270.487 112.932 268.305 Q112.932 266.256 113.904 265.041 Q114.876 263.82 116.514 263.82 Q116.954 263.82 117.399 263.907 Q117.851 263.994 118.337 264.167 Z" fill="#000000" fill-rule="evenodd" fill-opacity="1" /><path clip-path="url(#clip150)" d="M 0 0 M122.665 264.746 Q121.763 264.746 121.305 265.637 Q120.854 266.523 120.854 268.305 Q120.854 270.082 121.305 270.973 Q121.763 271.858 122.665 271.858 Q123.574 271.858 124.025 270.973 Q124.482 270.082 124.482 268.305 Q124.482 266.523 124.025 265.637 Q123.574 264.746 122.665 264.746 M122.665 263.82 Q124.118 263.82 124.882 264.972 Q125.651 266.118 125.651 268.305 Q125.651 270.487 124.882 271.638 Q124.118 272.784 122.665 272.784 Q121.213 272.784 120.443 271.638 Q119.679 270.487 119.679 268.305 Q119.679 266.118 120.443 264.972 Q121.213 263.82 122.665 263.82 Z" fill="#000000" fill-rule="evenodd" fill-opacity="1" /><path clip-path="url(#clip150)" d="M 0 0 M186.463 271.633 L188.373 271.633 L188.373 265.041 L186.295 265.458 L186.295 264.393 L188.361 263.976 L189.53 263.976 L189.53 271.633 L191.44 271.633 L191.44 272.616 L186.463 272.616 L186.463 271.633 Z" fill="#000000" fill-rule="evenodd" fill-opacity="1" /><path clip-path="url(#clip150)" d="M 0 0 M192.742 272.437 L192.742 271.372 Q193.182 271.581 193.633 271.69 Q194.085 271.8 194.519 271.8 Q195.676 271.8 196.284 271.025 Q196.897 270.244 196.984 268.658 Q196.648 269.156 196.133 269.422 Q195.618 269.688 194.993 269.688 Q193.697 269.688 192.939 268.907 Q192.186 268.12 192.186 266.76 Q192.186 265.429 192.973 264.625 Q193.76 263.82 195.068 263.82 Q196.567 263.82 197.354 264.972 Q198.147 266.118 198.147 268.305 Q198.147 270.348 197.175 271.569 Q196.208 272.784 194.571 272.784 Q194.131 272.784 193.679 272.697 Q193.228 272.611 192.742 272.437 M195.068 268.774 Q195.855 268.774 196.313 268.236 Q196.775 267.697 196.775 266.76 Q196.775 265.828 196.313 265.29 Q195.855 264.746 195.068 264.746 Q194.281 264.746 193.818 265.29 Q193.361 265.828 193.361 266.76 Q193.361 267.697 193.818 268.236 Q194.281 268.774 195.068 268.774 Z" fill="#000000" fill-rule="evenodd" fill-opacity="1" /><path clip-path="url(#clip150)" d="M 0 0 M199.119 263.976 L204.675 263.976 L204.675 264.474 L201.538 272.616 L200.317 272.616 L203.268 264.96 L199.119 264.96 L199.119 263.976 Z" fill="#000000" fill-rule="evenodd" fill-opacity="1" /><path clip-path="url(#clip150)" d="M 0 0 M208.442 264.746 Q207.539 264.746 207.082 265.637 Q206.631 266.523 206.631 268.305 Q206.631 270.082 207.082 270.973 Q207.539 271.858 208.442 271.858 Q209.351 271.858 209.802 270.973 Q210.259 270.082 210.259 268.305 Q210.259 266.523 209.802 265.637 Q209.351 264.746 208.442 264.746 M208.442 263.82 Q209.895 263.82 210.659 264.972 Q211.428 266.118 211.428 268.305 Q211.428 270.487 210.659 271.638 Q209.895 272.784 208.442 272.784 Q206.99 272.784 206.22 271.638 Q205.456 270.487 205.456 268.305 Q205.456 266.118 206.22 264.972 Q206.99 263.82 208.442 263.82 Z" fill="#000000" fill-rule="evenodd" fill-opacity="1" /><path clip-path="url(#clip150)" d="M 0 0 M272.272 271.633 L274.181 271.633 L274.181 265.041 L272.104 265.458 L272.104 264.393 L274.17 263.976 L275.339 263.976 L275.339 271.633 L277.248 271.633 L277.248 272.616 L272.272 272.616 L272.272 271.633 Z" fill="#000000" fill-rule="evenodd" fill-opacity="1" /><path clip-path="url(#clip150)" d="M 0 0 M278.55 272.437 L278.55 271.372 Q278.99 271.581 279.442 271.69 Q279.893 271.8 280.327 271.8 Q281.484 271.8 282.092 271.025 Q282.706 270.244 282.792 268.658 Q282.457 269.156 281.942 269.422 Q281.427 269.688 280.802 269.688 Q279.505 269.688 278.747 268.907 Q277.995 268.12 277.995 266.76 Q277.995 265.429 278.782 264.625 Q279.569 263.82 280.877 263.82 Q282.376 263.82 283.163 264.972 Q283.956 266.118 283.956 268.305 Q283.956 270.348 282.983 271.569 Q282.017 272.784 280.379 272.784 Q279.939 272.784 279.488 272.697 Q279.037 272.611 278.55 272.437 M280.877 268.774 Q281.664 268.774 282.121 268.236 Q282.584 267.697 282.584 266.76 Q282.584 265.828 282.121 265.29 Q281.664 264.746 280.877 264.746 Q280.09 264.746 279.627 265.29 Q279.17 265.828 279.17 266.76 Q279.17 267.697 279.627 268.236 Q280.09 268.774 280.877 268.774 Z" fill="#000000" fill-rule="evenodd" fill-opacity="1" /><path clip-path="url(#clip150)" d="M 0 0 M287.723 268.513 Q286.89 268.513 286.409 268.959 Q285.935 269.405 285.935 270.186 Q285.935 270.967 286.409 271.413 Q286.89 271.858 287.723 271.858 Q288.556 271.858 289.037 271.413 Q289.517 270.961 289.517 270.186 Q289.517 269.405 289.037 268.959 Q288.562 268.513 287.723 268.513 M286.554 268.016 Q285.802 267.831 285.379 267.315 Q284.962 266.8 284.962 266.06 Q284.962 265.024 285.697 264.422 Q286.438 263.82 287.723 263.82 Q289.013 263.82 289.748 264.422 Q290.483 265.024 290.483 266.06 Q290.483 266.8 290.061 267.315 Q289.644 267.831 288.898 268.016 Q289.743 268.212 290.211 268.785 Q290.686 269.358 290.686 270.186 Q290.686 271.442 289.916 272.113 Q289.152 272.784 287.723 272.784 Q286.293 272.784 285.524 272.113 Q284.76 271.442 284.76 270.186 Q284.76 269.358 285.234 268.785 Q285.709 268.212 286.554 268.016 M286.126 266.17 Q286.126 266.841 286.542 267.217 Q286.965 267.593 287.723 267.593 Q288.475 267.593 288.898 267.217 Q289.326 266.841 289.326 266.17 Q289.326 265.498 288.898 265.122 Q288.475 264.746 287.723 264.746 Q286.965 264.746 286.542 265.122 Q286.126 265.498 286.126 266.17 Z" fill="#000000" fill-rule="evenodd" fill-opacity="1" /><path clip-path="url(#clip150)" d="M 0 0 M294.453 264.746 Q293.55 264.746 293.093 265.637 Q292.642 266.523 292.642 268.305 Q292.642 270.082 293.093 270.973 Q293.55 271.858 294.453 271.858 Q295.362 271.858 295.813 270.973 Q296.27 270.082 296.27 268.305 Q296.27 266.523 295.813 265.637 Q295.362 264.746 294.453 264.746 M294.453 263.82 Q295.906 263.82 296.67 264.972 Q297.439 266.118 297.439 268.305 Q297.439 270.487 296.67 271.638 Q295.906 272.784 294.453 272.784 Q293.001 272.784 292.231 271.638 Q291.467 270.487 291.467 268.305 Q291.467 266.118 292.231 264.972 Q293.001 263.82 294.453 263.82 Z" fill="#000000" fill-rule="evenodd" fill-opacity="1" /><path clip-path="url(#clip150)" d="M 0 0 M358.193 271.633 L360.103 271.633 L360.103 265.041 L358.025 265.458 L358.025 264.393 L360.091 263.976 L361.26 263.976 L361.26 271.633 L363.17 271.633 L363.17 272.616 L358.193 272.616 L358.193 271.633 Z" fill="#000000" fill-rule="evenodd" fill-opacity="1" /><path clip-path="url(#clip150)" d="M 0 0 M364.472 272.437 L364.472 271.372 Q364.912 271.581 365.363 271.69 Q365.814 271.8 366.248 271.8 Q367.406 271.8 368.014 271.025 Q368.627 270.244 368.714 268.658 Q368.378 269.156 367.863 269.422 Q367.348 269.688 366.723 269.688 Q365.427 269.688 364.669 268.907 Q363.916 268.12 363.916 266.76 Q363.916 265.429 364.703 264.625 Q365.49 263.82 366.798 263.82 Q368.297 263.82 369.084 264.972 Q369.877 266.118 369.877 268.305 Q369.877 270.348 368.905 271.569 Q367.938 272.784 366.301 272.784 Q365.861 272.784 365.409 272.697 Q364.958 272.611 364.472 272.437 M366.798 268.774 Q367.585 268.774 368.042 268.236 Q368.505 267.697 368.505 266.76 Q368.505 265.828 368.042 265.29 Q367.585 264.746 366.798 264.746 Q366.011 264.746 365.548 265.29 Q365.091 265.828 365.091 266.76 Q365.091 267.697 365.548 268.236 Q366.011 268.774 366.798 268.774 Z" fill="#000000" fill-rule="evenodd" fill-opacity="1" /><path clip-path="url(#clip150)" d="M 0 0 M371.179 272.437 L371.179 271.372 Q371.619 271.581 372.07 271.69 Q372.522 271.8 372.956 271.8 Q374.113 271.8 374.721 271.025 Q375.334 270.244 375.421 268.658 Q375.085 269.156 374.57 269.422 Q374.055 269.688 373.43 269.688 Q372.134 269.688 371.376 268.907 Q370.623 268.12 370.623 266.76 Q370.623 265.429 371.41 264.625 Q372.198 263.82 373.505 263.82 Q375.004 263.82 375.791 264.972 Q376.584 266.118 376.584 268.305 Q376.584 270.348 375.612 271.569 Q374.645 272.784 373.008 272.784 Q372.568 272.784 372.117 272.697 Q371.665 272.611 371.179 272.437 M373.505 268.774 Q374.292 268.774 374.75 268.236 Q375.213 267.697 375.213 266.76 Q375.213 265.828 374.75 265.29 Q374.292 264.746 373.505 264.746 Q372.718 264.746 372.255 265.29 Q371.798 265.828 371.798 266.76 Q371.798 267.697 372.255 268.236 Q372.718 268.774 373.505 268.774 Z" fill="#000000" fill-rule="evenodd" fill-opacity="1" /><path clip-path="url(#clip150)" d="M 0 0 M380.351 264.746 Q379.449 264.746 378.991 265.637 Q378.54 266.523 378.54 268.305 Q378.54 270.082 378.991 270.973 Q379.449 271.858 380.351 271.858 Q381.26 271.858 381.711 270.973 Q382.169 270.082 382.169 268.305 Q382.169 266.523 381.711 265.637 Q381.26 264.746 380.351 264.746 M380.351 263.82 Q381.804 263.82 382.568 264.972 Q383.338 266.118 383.338 268.305 Q383.338 270.487 382.568 271.638 Q381.804 272.784 380.351 272.784 Q378.899 272.784 378.129 271.638 Q377.365 270.487 377.365 268.305 Q377.365 266.118 378.129 264.972 Q378.899 263.82 380.351 263.82 Z" fill="#000000" fill-rule="evenodd" fill-opacity="1" /><path clip-path="url(#clip150)" d="M 0 0 M445.124 271.633 L449.204 271.633 L449.204 272.616 L443.718 272.616 L443.718 271.633 Q444.383 270.944 445.529 269.787 Q446.681 268.623 446.976 268.288 Q447.537 267.657 447.757 267.223 Q447.983 266.783 447.983 266.361 Q447.983 265.672 447.497 265.238 Q447.017 264.804 446.241 264.804 Q445.691 264.804 445.078 264.995 Q444.47 265.186 443.776 265.574 L443.776 264.393 Q444.482 264.109 445.095 263.965 Q445.709 263.82 446.218 263.82 Q447.561 263.82 448.359 264.491 Q449.158 265.163 449.158 266.285 Q449.158 266.818 448.955 267.298 Q448.758 267.773 448.232 268.421 Q448.087 268.589 447.312 269.393 Q446.536 270.192 445.124 271.633 Z" fill="#000000" fill-rule="evenodd" fill-opacity="1" /><path clip-path="url(#clip150)" d="M 0 0 M452.971 264.746 Q452.069 264.746 451.611 265.637 Q451.16 266.523 451.16 268.305 Q451.16 270.082 451.611 270.973 Q452.069 271.858 452.971 271.858 Q453.88 271.858 454.331 270.973 Q454.788 270.082 454.788 268.305 Q454.788 266.523 454.331 265.637 Q453.88 264.746 452.971 264.746 M452.971 263.82 Q454.424 263.82 455.188 264.972 Q455.957 266.118 455.957 268.305 Q455.957 270.487 455.188 271.638 Q454.424 272.784 452.971 272.784 Q451.519 272.784 450.749 271.638 Q449.985 270.487 449.985 268.305 Q449.985 266.118 450.749 264.972 Q451.519 263.82 452.971 263.82 Z" fill="#000000" fill-rule="evenodd" fill-opacity="1" /><path clip-path="url(#clip150)" d="M 0 0 M459.725 264.746 Q458.822 264.746 458.365 265.637 Q457.913 266.523 457.913 268.305 Q457.913 270.082 458.365 270.973 Q458.822 271.858 459.725 271.858 Q460.633 271.858 461.085 270.973 Q461.542 270.082 461.542 268.305 Q461.542 266.523 461.085 265.637 Q460.633 264.746 459.725 264.746 M459.725 263.82 Q461.177 263.82 461.941 264.972 Q462.711 266.118 462.711 268.305 Q462.711 270.487 461.941 271.638 Q461.177 272.784 459.725 272.784 Q458.272 272.784 457.503 271.638 Q456.739 270.487 456.739 268.305 Q456.739 266.118 457.503 264.972 Q458.272 263.82 459.725 263.82 Z" fill="#000000" fill-rule="evenodd" fill-opacity="1" /><path clip-path="url(#clip150)" d="M 0 0 M466.478 264.746 Q465.575 264.746 465.118 265.637 Q464.667 266.523 464.667 268.305 Q464.667 270.082 465.118 270.973 Q465.575 271.858 466.478 271.858 Q467.387 271.858 467.838 270.973 Q468.295 270.082 468.295 268.305 Q468.295 266.523 467.838 265.637 Q467.387 264.746 466.478 264.746 M466.478 263.82 Q467.931 263.82 468.695 264.972 Q469.464 266.118 469.464 268.305 Q469.464 270.487 468.695 271.638 Q467.931 272.784 466.478 272.784 Q465.026 272.784 464.256 271.638 Q463.492 270.487 463.492 268.305 Q463.492 266.118 464.256 264.972 Q465.026 263.82 466.478 263.82 Z" fill="#000000" fill-rule="evenodd" fill-opacity="1" /><g clip-path="url(#clip150)">
<text style="fill:#000000; fill-opacity:1; font-family:Arial,Helvetica Neue,Helvetica,sans-serif; font-size:16px; text-anchor:middle;" transform="rotate(0, 263.294, 293.459)" x="263.294" y="293.459">year</text>
</g>
<polyline clip-path="url(#clip152)" style="stroke:#000000; stroke-width:0.5; stroke-opacity:0.1; fill:none" points="
  58.3991,255.862 468.189,255.862 
  "/>
<polyline clip-path="url(#clip152)" style="stroke:#000000; stroke-width:0.5; stroke-opacity:0.1; fill:none" points="
  58.3991,219.723 468.189,219.723 
  "/>
<polyline clip-path="url(#clip152)" style="stroke:#000000; stroke-width:0.5; stroke-opacity:0.1; fill:none" points="
  58.3991,183.584 468.189,183.584 
  "/>
<polyline clip-path="url(#clip152)" style="stroke:#000000; stroke-width:0.5; stroke-opacity:0.1; fill:none" points="
  58.3991,147.445 468.189,147.445 
  "/>
<polyline clip-path="url(#clip152)" style="stroke:#000000; stroke-width:0.5; stroke-opacity:0.1; fill:none" points="
  58.3991,111.306 468.189,111.306 
  "/>
<polyline clip-path="url(#clip152)" style="stroke:#000000; stroke-width:0.5; stroke-opacity:0.1; fill:none" points="
  58.3991,75.1671 468.189,75.1671 
  "/>
<polyline clip-path="url(#clip152)" style="stroke:#000000; stroke-width:0.5; stroke-opacity:0.1; fill:none" points="
  58.3991,39.0281 468.189,39.0281 
  "/>
<polyline clip-path="url(#clip150)" style="stroke:#000000; stroke-width:1; stroke-opacity:1; fill:none" points="
  58.3991,258.408 58.3991,11.811 
  "/>
<polyline clip-path="url(#clip150)" style="stroke:#000000; stroke-width:1; stroke-opacity:1; fill:none" points="
  58.3991,255.862 63.3166,255.862 
  "/>
<polyline clip-path="url(#clip150)" style="stroke:#000000; stroke-width:1; stroke-opacity:1; fill:none" points="
  58.3991,219.723 63.3166,219.723 
  "/>
<polyline clip-path="url(#clip150)" style="stroke:#000000; stroke-width:1; stroke-opacity:1; fill:none" points="
  58.3991,183.584 63.3166,183.584 
  "/>
<polyline clip-path="url(#clip150)" style="stroke:#000000; stroke-width:1; stroke-opacity:1; fill:none" points="
  58.3991,147.445 63.3166,147.445 
  "/>
<polyline clip-path="url(#clip150)" style="stroke:#000000; stroke-width:1; stroke-opacity:1; fill:none" points="
  58.3991,111.306 63.3166,111.306 
  "/>
<polyline clip-path="url(#clip150)" style="stroke:#000000; stroke-width:1; stroke-opacity:1; fill:none" points="
  58.3991,75.1671 63.3166,75.1671 
  "/>
<polyline clip-path="url(#clip150)" style="stroke:#000000; stroke-width:1; stroke-opacity:1; fill:none" points="
  58.3991,39.0281 63.3166,39.0281 
  "/>
<path clip-path="url(#clip150)" d="M 0 0 M28.1842 255.975 L35.6032 255.975 L35.6032 256.959 L28.1842 256.959 L28.1842 255.975 Z" fill="#000000" fill-rule="evenodd" fill-opacity="1" /><path clip-path="url(#clip150)" d="M 0 0 M39.3705 252.312 Q38.4677 252.312 38.0105 253.203 Q37.5592 254.089 37.5592 255.871 Q37.5592 257.648 38.0105 258.539 Q38.4677 259.424 39.3705 259.424 Q40.2791 259.424 40.7304 258.539 Q41.1876 257.648 41.1876 255.871 Q41.1876 254.089 40.7304 253.203 Q40.2791 252.312 39.3705 252.312 M39.3705 251.386 Q40.823 251.386 41.5869 252.538 Q42.3566 253.683 42.3566 255.871 Q42.3566 258.053 41.5869 259.204 Q40.823 260.35 39.3705 260.35 Q37.918 260.35 37.1483 259.204 Q36.3844 258.053 36.3844 255.871 Q36.3844 253.683 37.1483 252.538 Q37.918 251.386 39.3705 251.386 Z" fill="#000000" fill-rule="evenodd" fill-opacity="1" /><path clip-path="url(#clip150)" d="M 0 0 M43.6239 258.712 L44.845 258.712 L44.845 260.182 L43.6239 260.182 L43.6239 258.712 Z" fill="#000000" fill-rule="evenodd" fill-opacity="1" /><path clip-path="url(#clip150)" d="M 0 0 M47.1193 259.198 L51.1991 259.198 L51.1991 260.182 L45.7131 260.182 L45.7131 259.198 Q46.3786 258.51 47.5244 257.352 Q48.676 256.189 48.9711 255.854 Q49.5325 255.223 49.7524 254.789 Q49.9781 254.349 49.9781 253.927 Q49.9781 253.238 49.492 252.804 Q49.0116 252.37 48.2362 252.37 Q47.6864 252.37 47.073 252.561 Q46.4654 252.752 45.7709 253.139 L45.7709 251.959 Q46.4769 251.675 47.0904 251.531 Q47.7038 251.386 48.213 251.386 Q49.5556 251.386 50.3542 252.057 Q51.1528 252.729 51.1528 253.851 Q51.1528 254.384 50.9503 254.864 Q50.7535 255.339 50.2269 255.987 Q50.0822 256.155 49.3068 256.959 Q48.5313 257.758 47.1193 259.198 Z" fill="#000000" fill-rule="evenodd" fill-opacity="1" /><path clip-path="url(#clip150)" d="M 0 0 M28.0916 219.836 L35.5106 219.836 L35.5106 220.82 L28.0916 220.82 L28.0916 219.836 Z" fill="#000000" fill-rule="evenodd" fill-opacity="1" /><path clip-path="url(#clip150)" d="M 0 0 M39.2779 216.173 Q38.3751 216.173 37.918 217.064 Q37.4666 217.95 37.4666 219.732 Q37.4666 221.509 37.918 222.4 Q38.3751 223.285 39.2779 223.285 Q40.1865 223.285 40.6378 222.4 Q41.095 221.509 41.095 219.732 Q41.095 217.95 40.6378 217.064 Q40.1865 216.173 39.2779 216.173 M39.2779 215.247 Q40.7304 215.247 41.4943 216.399 Q42.264 217.544 42.264 219.732 Q42.264 221.914 41.4943 223.065 Q40.7304 224.211 39.2779 224.211 Q37.8254 224.211 37.0557 223.065 Q36.2918 221.914 36.2918 219.732 Q36.2918 217.544 37.0557 216.399 Q37.8254 215.247 39.2779 215.247 Z" fill="#000000" fill-rule="evenodd" fill-opacity="1" /><path clip-path="url(#clip150)" d="M 0 0 M43.5314 222.573 L44.7524 222.573 L44.7524 224.043 L43.5314 224.043 L43.5314 222.573 Z" fill="#000000" fill-rule="evenodd" fill-opacity="1" /><path clip-path="url(#clip150)" d="M 0 0 M46.2223 223.059 L48.132 223.059 L48.132 216.468 L46.0545 216.885 L46.0545 215.82 L48.1204 215.403 L49.2894 215.403 L49.2894 223.059 L51.1991 223.059 L51.1991 224.043 L46.2223 224.043 L46.2223 223.059 Z" fill="#000000" fill-rule="evenodd" fill-opacity="1" /><path clip-path="url(#clip150)" d="M 0 0 M38.9712 180.034 Q38.0684 180.034 37.6112 180.925 Q37.1599 181.81 37.1599 183.593 Q37.1599 185.369 37.6112 186.261 Q38.0684 187.146 38.9712 187.146 Q39.8798 187.146 40.3311 186.261 Q40.7883 185.369 40.7883 183.593 Q40.7883 181.81 40.3311 180.925 Q39.8798 180.034 38.9712 180.034 M38.9712 179.108 Q40.4237 179.108 41.1876 180.26 Q41.9573 181.405 41.9573 183.593 Q41.9573 185.775 41.1876 186.926 Q40.4237 188.072 38.9712 188.072 Q37.5187 188.072 36.749 186.926 Q35.9851 185.775 35.9851 183.593 Q35.9851 181.405 36.749 180.26 Q37.5187 179.108 38.9712 179.108 Z" fill="#000000" fill-rule="evenodd" fill-opacity="1" /><path clip-path="url(#clip150)" d="M 0 0 M43.2246 186.434 L44.4457 186.434 L44.4457 187.904 L43.2246 187.904 L43.2246 186.434 Z" fill="#000000" fill-rule="evenodd" fill-opacity="1" /><path clip-path="url(#clip150)" d="M 0 0 M48.213 180.034 Q47.3103 180.034 46.8531 180.925 Q46.4017 181.81 46.4017 183.593 Q46.4017 185.369 46.8531 186.261 Q47.3103 187.146 48.213 187.146 Q49.1216 187.146 49.573 186.261 Q50.0302 185.369 50.0302 183.593 Q50.0302 181.81 49.573 180.925 Q49.1216 180.034 48.213 180.034 M48.213 179.108 Q49.6656 179.108 50.4295 180.26 Q51.1991 181.405 51.1991 183.593 Q51.1991 185.775 50.4295 186.926 Q49.6656 188.072 48.213 188.072 Q46.7605 188.072 45.9908 186.926 Q45.2269 185.775 45.2269 183.593 Q45.2269 181.405 45.9908 180.26 Q46.7605 179.108 48.213 179.108 Z" fill="#000000" fill-rule="evenodd" fill-opacity="1" /><path clip-path="url(#clip150)" d="M 0 0 M39.2779 143.895 Q38.3751 143.895 37.918 144.786 Q37.4666 145.671 37.4666 147.454 Q37.4666 149.23 37.918 150.122 Q38.3751 151.007 39.2779 151.007 Q40.1865 151.007 40.6378 150.122 Q41.095 149.23 41.095 147.454 Q41.095 145.671 40.6378 144.786 Q40.1865 143.895 39.2779 143.895 M39.2779 142.969 Q40.7304 142.969 41.4943 144.121 Q42.264 145.266 42.264 147.454 Q42.264 149.636 41.4943 150.787 Q40.7304 151.933 39.2779 151.933 Q37.8254 151.933 37.0557 150.787 Q36.2918 149.636 36.2918 147.454 Q36.2918 145.266 37.0557 144.121 Q37.8254 142.969 39.2779 142.969 Z" fill="#000000" fill-rule="evenodd" fill-opacity="1" /><path clip-path="url(#clip150)" d="M 0 0 M43.5314 150.295 L44.7524 150.295 L44.7524 151.765 L43.5314 151.765 L43.5314 150.295 Z" fill="#000000" fill-rule="evenodd" fill-opacity="1" /><path clip-path="url(#clip150)" d="M 0 0 M46.2223 150.781 L48.132 150.781 L48.132 144.19 L46.0545 144.607 L46.0545 143.542 L48.1204 143.125 L49.2894 143.125 L49.2894 150.781 L51.1991 150.781 L51.1991 151.765 L46.2223 151.765 L46.2223 150.781 Z" fill="#000000" fill-rule="evenodd" fill-opacity="1" /><path clip-path="url(#clip150)" d="M 0 0 M39.3705 107.756 Q38.4677 107.756 38.0105 108.647 Q37.5592 109.532 37.5592 111.315 Q37.5592 113.091 38.0105 113.983 Q38.4677 114.868 39.3705 114.868 Q40.2791 114.868 40.7304 113.983 Q41.1876 113.091 41.1876 111.315 Q41.1876 109.532 40.7304 108.647 Q40.2791 107.756 39.3705 107.756 M39.3705 106.83 Q40.823 106.83 41.5869 107.981 Q42.3566 109.127 42.3566 111.315 Q42.3566 113.497 41.5869 114.648 Q40.823 115.794 39.3705 115.794 Q37.918 115.794 37.1483 114.648 Q36.3844 113.497 36.3844 111.315 Q36.3844 109.127 37.1483 107.981 Q37.918 106.83 39.3705 106.83 Z" fill="#000000" fill-rule="evenodd" fill-opacity="1" /><path clip-path="url(#clip150)" d="M 0 0 M43.6239 114.156 L44.845 114.156 L44.845 115.626 L43.6239 115.626 L43.6239 114.156 Z" fill="#000000" fill-rule="evenodd" fill-opacity="1" /><path clip-path="url(#clip150)" d="M 0 0 M47.1193 114.642 L51.1991 114.642 L51.1991 115.626 L45.7131 115.626 L45.7131 114.642 Q46.3786 113.954 47.5244 112.796 Q48.676 111.633 48.9711 111.297 Q49.5325 110.667 49.7524 110.233 Q49.9781 109.793 49.9781 109.37 Q49.9781 108.682 49.492 108.248 Q49.0116 107.814 48.2362 107.814 Q47.6864 107.814 47.073 108.005 Q46.4654 108.196 45.7709 108.583 L45.7709 107.403 Q46.4769 107.119 47.0904 106.975 Q47.7038 106.83 48.213 106.83 Q49.5556 106.83 50.3542 107.501 Q51.1528 108.172 51.1528 109.295 Q51.1528 109.828 50.9503 110.308 Q50.7535 110.782 50.2269 111.431 Q50.0822 111.598 49.3068 112.403 Q48.5313 113.201 47.1193 114.642 Z" fill="#000000" fill-rule="evenodd" fill-opacity="1" /><path clip-path="url(#clip150)" d="M 0 0 M39.1332 71.6168 Q38.2305 71.6168 37.7733 72.508 Q37.3219 73.3934 37.3219 75.1758 Q37.3219 76.9524 37.7733 77.8436 Q38.2305 78.729 39.1332 78.729 Q40.0418 78.729 40.4932 77.8436 Q40.9503 76.9524 40.9503 75.1758 Q40.9503 73.3934 40.4932 72.508 Q40.0418 71.6168 39.1332 71.6168 M39.1332 70.6908 Q40.5858 70.6908 41.3497 71.8425 Q42.1193 72.9883 42.1193 75.1758 Q42.1193 77.3575 41.3497 78.5091 Q40.5858 79.6549 39.1332 79.6549 Q37.6807 79.6549 36.911 78.5091 Q36.1471 77.3575 36.1471 75.1758 Q36.1471 72.9883 36.911 71.8425 Q37.6807 70.6908 39.1332 70.6908 Z" fill="#000000" fill-rule="evenodd" fill-opacity="1" /><path clip-path="url(#clip150)" d="M 0 0 M43.3867 78.0172 L44.6077 78.0172 L44.6077 79.4871 L43.3867 79.4871 L43.3867 78.0172 Z" fill="#000000" fill-rule="evenodd" fill-opacity="1" /><path clip-path="url(#clip150)" d="M 0 0 M49.4167 74.8285 Q50.2559 75.0079 50.7246 75.5751 Q51.1991 76.1422 51.1991 76.9755 Q51.1991 78.2545 50.3195 78.9547 Q49.4399 79.6549 47.8195 79.6549 Q47.2755 79.6549 46.6968 79.545 Q46.1239 79.4408 45.5105 79.2267 L45.5105 78.0982 Q45.9966 78.3818 46.5753 78.5264 Q47.154 78.6711 47.7848 78.6711 Q48.8843 78.6711 49.4572 78.2371 Q50.0359 77.8031 50.0359 76.9755 Q50.0359 76.2116 49.4978 75.7834 Q48.9654 75.3494 48.0105 75.3494 L47.0036 75.3494 L47.0036 74.3887 L48.0568 74.3887 Q48.9191 74.3887 49.3762 74.0473 Q49.8334 73.7001 49.8334 73.0519 Q49.8334 72.3864 49.3589 72.0334 Q48.8901 71.6746 48.0105 71.6746 Q47.5302 71.6746 46.9804 71.7788 Q46.4306 71.883 45.7709 72.1029 L45.7709 71.0612 Q46.4364 70.876 47.0151 70.7834 Q47.5996 70.6908 48.1147 70.6908 Q49.4457 70.6908 50.2211 71.2985 Q50.9966 71.9003 50.9966 72.9304 Q50.9966 73.648 50.5857 74.1457 Q50.1748 74.6376 49.4167 74.8285 Z" fill="#000000" fill-rule="evenodd" fill-opacity="1" /><path clip-path="url(#clip150)" d="M 0 0 M38.8497 35.4777 Q37.9469 35.4777 37.4897 36.3689 Q37.0383 37.2543 37.0383 39.0367 Q37.0383 40.8133 37.4897 41.7045 Q37.9469 42.59 38.8497 42.59 Q39.7582 42.59 40.2096 41.7045 Q40.6668 40.8133 40.6668 39.0367 Q40.6668 37.2543 40.2096 36.3689 Q39.7582 35.4777 38.8497 35.4777 M38.8497 34.5518 Q40.3022 34.5518 41.0661 35.7034 Q41.8358 36.8492 41.8358 39.0367 Q41.8358 41.2184 41.0661 42.37 Q40.3022 43.5159 38.8497 43.5159 Q37.3971 43.5159 36.6275 42.37 Q35.8636 41.2184 35.8636 39.0367 Q35.8636 36.8492 36.6275 35.7034 Q37.3971 34.5518 38.8497 34.5518 Z" fill="#000000" fill-rule="evenodd" fill-opacity="1" /><path clip-path="url(#clip150)" d="M 0 0 M43.1031 41.8782 L44.3242 41.8782 L44.3242 43.3481 L43.1031 43.3481 L43.1031 41.8782 Z" fill="#000000" fill-rule="evenodd" fill-opacity="1" /><path clip-path="url(#clip150)" d="M 0 0 M48.8033 35.7266 L45.8519 40.3388 L48.8033 40.3388 L48.8033 35.7266 M48.4966 34.7081 L49.9665 34.7081 L49.9665 40.3388 L51.1991 40.3388 L51.1991 41.311 L49.9665 41.311 L49.9665 43.3481 L48.8033 43.3481 L48.8033 41.311 L44.9029 41.311 L44.9029 40.1826 L48.4966 34.7081 Z" fill="#000000" fill-rule="evenodd" fill-opacity="1" /><g clip-path="url(#clip150)">
<text style="fill:#000000; fill-opacity:1; font-family:Arial,Helvetica Neue,Helvetica,sans-serif; font-size:16px; text-anchor:middle;" transform="rotate(-90, 18.0011, 135.11)" x="18.0011" y="135.11">anomaly (degrees C)</text>
</g>
<circle clip-path="url(#clip152)" cx="69.997" cy="200.931" r="3" fill="#009af9" fill-rule="evenodd" fill-opacity="1" stroke="#000000" stroke-opacity="1" stroke-width="0.6"/>
<circle clip-path="url(#clip152)" cx="112.952" cy="190.089" r="3" fill="#009af9" fill-rule="evenodd" fill-opacity="1" stroke="#000000" stroke-opacity="1" stroke-width="0.6"/>
<circle clip-path="url(#clip152)" cx="155.907" cy="196.594" r="3" fill="#009af9" fill-rule="evenodd" fill-opacity="1" stroke="#000000" stroke-opacity="1" stroke-width="0.6"/>
<circle clip-path="url(#clip152)" cx="198.862" cy="187.921" r="3" fill="#009af9" fill-rule="evenodd" fill-opacity="1" stroke="#000000" stroke-opacity="1" stroke-width="0.6"/>
<circle clip-path="url(#clip152)" cx="241.817" cy="185.03" r="3" fill="#009af9" fill-rule="evenodd" fill-opacity="1" stroke="#000000" stroke-opacity="1" stroke-width="0.6"/>
<circle clip-path="url(#clip152)" cx="284.772" cy="140.94" r="3" fill="#009af9" fill-rule="evenodd" fill-opacity="1" stroke="#000000" stroke-opacity="1" stroke-width="0.6"/>
<circle clip-path="url(#clip152)" cx="327.726" cy="107.692" r="3" fill="#009af9" fill-rule="evenodd" fill-opacity="1" stroke="#000000" stroke-opacity="1" stroke-width="0.6"/>
<circle clip-path="url(#clip152)" cx="370.681" cy="63.6026" r="3" fill="#009af9" fill-rule="evenodd" fill-opacity="1" stroke="#000000" stroke-opacity="1" stroke-width="0.6"/>
<circle clip-path="url(#clip152)" cx="413.636" cy="62.8798" r="3" fill="#009af9" fill-rule="evenodd" fill-opacity="1" stroke="#000000" stroke-opacity="1" stroke-width="0.6"/>
<circle clip-path="url(#clip152)" cx="456.591" cy="18.7902" r="3" fill="#009af9" fill-rule="evenodd" fill-opacity="1" stroke="#000000" stroke-opacity="1" stroke-width="0.6"/>
<polyline clip-path="url(#clip152)" style="stroke:#e26f46; stroke-width:2; stroke-opacity:1; fill:none" points="
  69.997,251.429 73.7724,249.576 108.681,232.438 129.66,222.139 147.398,213.431 166.666,203.972 184.429,195.252 203.473,185.902 225.537,175.07 245.145,165.444 
  262.34,157.003 281.087,147.8 299.945,138.542 320.795,128.306 340.634,118.567 361.261,108.44 378.625,99.9159 399.824,89.5086 419.752,79.7255 451.678,64.0522 
  456.591,61.6401 
  "/>
<path clip-path="url(#clip150)" d="
M366.816 250.188 L454.529 250.188 L454.529 204.828 L366.816 204.828  Z
  " fill="#ffffff" fill-rule="evenodd" fill-opacity="1"/>
<polyline clip-path="url(#clip150)" style="stroke:#000000; stroke-width:1; stroke-opacity:1; fill:none" points="
  366.816,250.188 454.529,250.188 454.529,204.828 366.816,204.828 366.816,250.188 
  "/>
<circle clip-path="url(#clip150)" cx="385.029" cy="219.948" r="5" fill="#009af9" fill-rule="evenodd" fill-opacity="1" stroke="#000000" stroke-opacity="1" stroke-width="0.96"/>
<path clip-path="url(#clip150)" d="M 0 0 M407.969 218.771 L407.969 215.264 L409.034 215.264 L409.034 224.268 L407.969 224.268 L407.969 223.296 Q407.634 223.875 407.119 224.159 Q406.609 224.436 405.892 224.436 Q404.717 224.436 403.976 223.499 Q403.241 222.561 403.241 221.034 Q403.241 219.506 403.976 218.568 Q404.717 217.631 405.892 217.631 Q406.609 217.631 407.119 217.914 Q407.634 218.192 407.969 218.771 M404.341 221.034 Q404.341 222.208 404.821 222.88 Q405.307 223.545 406.152 223.545 Q406.997 223.545 407.483 222.88 Q407.969 222.208 407.969 221.034 Q407.969 219.859 407.483 219.193 Q406.997 218.522 406.152 218.522 Q405.307 218.522 404.821 219.193 Q404.341 219.859 404.341 221.034 Z" fill="#000000" fill-rule="evenodd" fill-opacity="1" /><path clip-path="url(#clip150)" d="M 0 0 M413.097 221.01 Q411.806 221.01 411.308 221.306 Q410.811 221.601 410.811 222.312 Q410.811 222.88 411.181 223.215 Q411.557 223.545 412.2 223.545 Q413.085 223.545 413.617 222.92 Q414.156 222.289 414.156 221.248 L414.156 221.01 L413.097 221.01 M415.22 220.571 L415.22 224.268 L414.156 224.268 L414.156 223.285 Q413.791 223.875 413.247 224.159 Q412.703 224.436 411.916 224.436 Q410.921 224.436 410.33 223.881 Q409.746 223.319 409.746 222.382 Q409.746 221.288 410.475 220.733 Q411.21 220.177 412.663 220.177 L414.156 220.177 L414.156 220.073 Q414.156 219.338 413.67 218.939 Q413.189 218.534 412.315 218.534 Q411.76 218.534 411.233 218.667 Q410.707 218.8 410.221 219.066 L410.221 218.082 Q410.805 217.856 411.355 217.747 Q411.905 217.631 412.425 217.631 Q413.832 217.631 414.526 218.36 Q415.22 219.089 415.22 220.571 Z" fill="#000000" fill-rule="evenodd" fill-opacity="1" /><path clip-path="url(#clip150)" d="M 0 0 M417.391 215.947 L417.391 217.787 L419.584 217.787 L419.584 218.615 L417.391 218.615 L417.391 222.133 Q417.391 222.926 417.605 223.152 Q417.825 223.377 418.49 223.377 L419.584 223.377 L419.584 224.268 L418.49 224.268 Q417.258 224.268 416.789 223.811 Q416.32 223.348 416.32 222.133 L416.32 218.615 L415.539 218.615 L415.539 217.787 L416.32 217.787 L416.32 215.947 L417.391 215.947 Z" fill="#000000" fill-rule="evenodd" fill-opacity="1" /><path clip-path="url(#clip150)" d="M 0 0 M423.646 221.01 Q422.356 221.01 421.858 221.306 Q421.361 221.601 421.361 222.312 Q421.361 222.88 421.731 223.215 Q422.107 223.545 422.749 223.545 Q423.635 223.545 424.167 222.92 Q424.705 222.289 424.705 221.248 L424.705 221.01 L423.646 221.01 M425.77 220.571 L425.77 224.268 L424.705 224.268 L424.705 223.285 Q424.341 223.875 423.797 224.159 Q423.253 224.436 422.466 224.436 Q421.47 224.436 420.88 223.881 Q420.296 223.319 420.296 222.382 Q420.296 221.288 421.025 220.733 Q421.76 220.177 423.212 220.177 L424.705 220.177 L424.705 220.073 Q424.705 219.338 424.219 218.939 Q423.739 218.534 422.865 218.534 Q422.31 218.534 421.783 218.667 Q421.256 218.8 420.77 219.066 L420.77 218.082 Q421.355 217.856 421.904 217.747 Q422.454 217.631 422.975 217.631 Q424.381 217.631 425.076 218.36 Q425.77 219.089 425.77 220.571 Z" fill="#000000" fill-rule="evenodd" fill-opacity="1" /><polyline clip-path="url(#clip150)" style="stroke:#e26f46; stroke-width:1; stroke-opacity:1; fill:none" points="
  371.369,235.068 398.688,235.068 
  "/>
<path clip-path="url(#clip150)" d="M 0 0 M403.241 230.384 L404.306 230.384 L404.306 239.388 L403.241 239.388 L403.241 230.384 Z" fill="#000000" fill-rule="evenodd" fill-opacity="1" /><path clip-path="url(#clip150)" d="M 0 0 M405.423 232.907 L406.488 232.907 L406.488 239.388 L405.423 239.388 L405.423 232.907 M405.423 230.384 L406.488 230.384 L406.488 231.732 L405.423 231.732 L405.423 230.384 Z" fill="#000000" fill-rule="evenodd" fill-opacity="1" /><path clip-path="url(#clip150)" d="M 0 0 M412.992 235.476 L412.992 239.388 L411.928 239.388 L411.928 235.511 Q411.928 234.591 411.569 234.134 Q411.21 233.677 410.493 233.677 Q409.63 233.677 409.133 234.226 Q408.635 234.776 408.635 235.725 L408.635 239.388 L407.564 239.388 L407.564 232.907 L408.635 232.907 L408.635 233.914 Q409.017 233.329 409.532 233.04 Q410.053 232.751 410.73 232.751 Q411.847 232.751 412.42 233.445 Q412.992 234.134 412.992 235.476 Z" fill="#000000" fill-rule="evenodd" fill-opacity="1" /><path clip-path="url(#clip150)" d="M 0 0 M419.653 235.882 L419.653 236.402 L414.758 236.402 Q414.827 237.502 415.417 238.081 Q416.013 238.654 417.072 238.654 Q417.686 238.654 418.259 238.503 Q418.837 238.353 419.404 238.052 L419.404 239.059 Q418.832 239.302 418.23 239.429 Q417.628 239.556 417.009 239.556 Q415.458 239.556 414.549 238.654 Q413.646 237.751 413.646 236.211 Q413.646 234.62 414.503 233.688 Q415.365 232.751 416.823 232.751 Q418.131 232.751 418.889 233.596 Q419.653 234.435 419.653 235.882 M418.589 235.569 Q418.577 234.695 418.097 234.174 Q417.622 233.654 416.835 233.654 Q415.944 233.654 415.406 234.157 Q414.873 234.66 414.792 235.575 L418.589 235.569 Z" fill="#000000" fill-rule="evenodd" fill-opacity="1" /><path clip-path="url(#clip150)" d="M 0 0 M423.716 236.13 Q422.425 236.13 421.928 236.426 Q421.43 236.721 421.43 237.432 Q421.43 238 421.8 238.335 Q422.176 238.665 422.819 238.665 Q423.704 238.665 424.237 238.04 Q424.775 237.409 424.775 236.368 L424.775 236.13 L423.716 236.13 M425.84 235.691 L425.84 239.388 L424.775 239.388 L424.775 238.405 Q424.41 238.995 423.866 239.279 Q423.322 239.556 422.535 239.556 Q421.54 239.556 420.95 239.001 Q420.365 238.439 420.365 237.502 Q420.365 236.408 421.094 235.853 Q421.829 235.297 423.282 235.297 L424.775 235.297 L424.775 235.193 Q424.775 234.458 424.289 234.059 Q423.808 233.654 422.935 233.654 Q422.379 233.654 421.852 233.787 Q421.326 233.92 420.84 234.186 L420.84 233.202 Q421.424 232.976 421.974 232.867 Q422.524 232.751 423.045 232.751 Q424.451 232.751 425.145 233.48 Q425.84 234.209 425.84 235.691 Z" fill="#000000" fill-rule="evenodd" fill-opacity="1" /><path clip-path="url(#clip150)" d="M 0 0 M430.712 233.902 Q430.533 233.798 430.319 233.752 Q430.11 233.7 429.856 233.7 Q428.953 233.7 428.467 234.29 Q427.987 234.875 427.987 235.974 L427.987 239.388 L426.916 239.388 L426.916 232.907 L427.987 232.907 L427.987 233.914 Q428.322 233.324 428.86 233.04 Q429.399 232.751 430.168 232.751 Q430.278 232.751 430.411 232.768 Q430.544 232.78 430.707 232.809 L430.712 233.902 Z" fill="#000000" fill-rule="evenodd" fill-opacity="1" /><path clip-path="url(#clip150)" d="M 0 0 M438.878 230.384 L438.878 231.269 L437.859 231.269 Q437.286 231.269 437.061 231.501 Q436.841 231.732 436.841 232.334 L436.841 232.907 L438.594 232.907 L438.594 233.735 L436.841 233.735 L436.841 239.388 L435.77 239.388 L435.77 233.735 L434.752 233.735 L434.752 232.907 L435.77 232.907 L435.77 232.456 Q435.77 231.373 436.274 230.882 Q436.777 230.384 437.871 230.384 L438.878 230.384 Z" fill="#000000" fill-rule="evenodd" fill-opacity="1" /><path clip-path="url(#clip150)" d="M 0 0 M439.995 232.907 L441.059 232.907 L441.059 239.388 L439.995 239.388 L439.995 232.907 M439.995 230.384 L441.059 230.384 L441.059 231.732 L439.995 231.732 L439.995 230.384 Z" fill="#000000" fill-rule="evenodd" fill-opacity="1" /><path clip-path="url(#clip150)" d="M 0 0 M443.23 231.067 L443.23 232.907 L445.423 232.907 L445.423 233.735 L443.23 233.735 L443.23 237.253 Q443.23 238.046 443.444 238.272 Q443.664 238.497 444.329 238.497 L445.423 238.497 L445.423 239.388 L444.329 239.388 Q443.096 239.388 442.628 238.931 Q442.159 238.468 442.159 237.253 L442.159 233.735 L441.378 233.735 L441.378 232.907 L442.159 232.907 L442.159 231.067 L443.23 231.067 Z" fill="#000000" fill-rule="evenodd" fill-opacity="1" /></svg>
