<?xml version="1.0" encoding="utf-8"?>
<svg xmlns="http://www.w3.org/2000/svg" xmlns:xlink="http://www.w3.org/1999/xlink" width="120" height="75" viewBox="0 0 480 300">
<defs>
  <clipPath id="clip350">
    <rect x="0" y="0" width="480" height="300"/>
  </clipPath>
</defs>
<path clip-path="url(#clip350)" d="
M0 300 L480 300 L480 0 L0 0  Z
  " fill="#ffffff" fill-rule="evenodd" fill-opacity="1"/>
<defs>
  <clipPath id="clip351">
    <rect x="96" y="0" width="337" height="300"/>
  </clipPath>
</defs>
<path clip-path="url(#clip350)" d="
M58.8035 258.408 L468.189 258.408 L468.189 27.537 L58.8035 27.537  Z
  " fill="#ffffff" fill-rule="evenodd" fill-opacity="1"/>
<defs>
  <clipPath id="clip352">
    <rect x="58" y="27" width="410" height="232"/>
  </clipPath>
</defs>
<polyline clip-path="url(#clip352)" style="stroke:#000000; stroke-width:0.5; stroke-opacity:0.1; fill:none" points="
  70.3899,258.408 70.3899,27.537 
  "/>
<polyline clip-path="url(#clip352)" style="stroke:#000000; stroke-width:0.5; stroke-opacity:0.1; fill:none" points="
  150.851,258.408 150.851,27.537 
  "/>
<polyline clip-path="url(#clip352)" style="stroke:#000000; stroke-width:0.5; stroke-opacity:0.1; fill:none" points="
  231.312,258.408 231.312,27.537 
  "/>
<polyline clip-path="url(#clip352)" style="stroke:#000000; stroke-width:0.5; stroke-opacity:0.1; fill:none" points="
  311.773,258.408 311.773,27.537 
  "/>
<polyline clip-path="url(#clip352)" style="stroke:#000000; stroke-width:0.5; stroke-opacity:0.1; fill:none" points="
  392.234,258.408 392.234,27.537 
  "/>
<polyline clip-path="url(#clip350)" style="stroke:#000000; stroke-width:1; stroke-opacity:1; fill:none" points="
  58.8035,258.408 468.189,258.408 
  "/>
<polyline clip-path="url(#clip350)" style="stroke:#000000; stroke-width:1; stroke-opacity:1; fill:none" points="
  70.3899,258.408 70.3899,255.638 
  "/>
<polyline clip-path="url(#clip350)" style="stroke:#000000; stroke-width:1; stroke-opacity:1; fill:none" points="
  150.851,258.408 150.851,255.638 
  "/>
<polyline clip-path="url(#clip350)" style="stroke:#000000; stroke-width:1; stroke-opacity:1; fill:none" points="
  231.312,258.408 231.312,255.638 
  "/>
<polyline clip-path="url(#clip350)" style="stroke:#000000; stroke-width:1; stroke-opacity:1; fill:none" points="
  311.773,258.408 311.773,255.638 
  "/>
<polyline clip-path="url(#clip350)" style="stroke:#000000; stroke-width:1; stroke-opacity:1; fill:none" points="
  392.234,258.408 392.234,255.638 
  "/>
<path clip-path="url(#clip350)" d="M 0 0 M65.769 264.746 Q64.8662 264.746 64.409 265.637 Q63.9576 266.523 63.9576 268.305 Q63.9576 270.082 64.409 270.973 Q64.8662 271.858 65.769 271.858 Q66.6775 271.858 67.1289 270.973 Q67.5861 270.082 67.5861 268.305 Q67.5861 266.523 67.1289 265.637 Q66.6775 264.746 65.769 264.746 M65.769 263.82 Q67.2215 263.82 67.9854 264.972 Q68.7551 266.118 68.7551 268.305 Q68.7551 270.487 67.9854 271.638 Q67.2215 272.784 65.769 272.784 Q64.3164 272.784 63.5467 271.638 Q62.7829 270.487 62.7829 268.305 Q62.7829 266.118 63.5467 264.972 Q64.3164 263.82 65.769 263.82 Z" fill="#000000" fill-rule="evenodd" fill-opacity="1" /><path clip-path="url(#clip350)" d="M 0 0 M70.0224 271.146 L71.2435 271.146 L71.2435 272.616 L70.0224 272.616 L70.0224 271.146 Z" fill="#000000" fill-rule="evenodd" fill-opacity="1" /><path clip-path="url(#clip350)" d="M 0 0 M75.0108 264.746 Q74.108 264.746 73.6509 265.637 Q73.1995 266.523 73.1995 268.305 Q73.1995 270.082 73.6509 270.973 Q74.108 271.858 75.0108 271.858 Q75.9194 271.858 76.3708 270.973 Q76.8279 270.082 76.8279 268.305 Q76.8279 266.523 76.3708 265.637 Q75.9194 264.746 75.0108 264.746 M75.0108 263.82 Q76.4633 263.82 77.2272 264.972 Q77.9969 266.118 77.9969 268.305 Q77.9969 270.487 77.2272 271.638 Q76.4633 272.784 75.0108 272.784 Q73.5583 272.784 72.7886 271.638 Q72.0247 270.487 72.0247 268.305 Q72.0247 266.118 72.7886 264.972 Q73.5583 263.82 75.0108 263.82 Z" fill="#000000" fill-rule="evenodd" fill-opacity="1" /><path clip-path="url(#clip350)" d="M 0 0 M145.018 271.633 L149.097 271.633 L149.097 272.616 L143.611 272.616 L143.611 271.633 Q144.277 270.944 145.423 269.787 Q146.574 268.623 146.869 268.288 Q147.431 267.657 147.651 267.223 Q147.876 266.783 147.876 266.361 Q147.876 265.672 147.39 265.238 Q146.91 264.804 146.134 264.804 Q145.585 264.804 144.971 264.995 Q144.364 265.186 143.669 265.574 L143.669 264.393 Q144.375 264.109 144.989 263.965 Q145.602 263.82 146.111 263.82 Q147.454 263.82 148.252 264.491 Q149.051 265.163 149.051 266.285 Q149.051 266.818 148.849 267.298 Q148.652 267.773 148.125 268.421 Q147.981 268.589 147.205 269.393 Q146.43 270.192 145.018 271.633 Z" fill="#000000" fill-rule="evenodd" fill-opacity="1" /><path clip-path="url(#clip350)" d="M 0 0 M150.365 271.146 L151.586 271.146 L151.586 272.616 L150.365 272.616 L150.365 271.146 Z" fill="#000000" fill-rule="evenodd" fill-opacity="1" /><path clip-path="url(#clip350)" d="M 0 0 M152.865 263.976 L157.454 263.976 L157.454 264.96 L153.935 264.96 L153.935 267.078 Q154.19 266.991 154.445 266.951 Q154.699 266.905 154.954 266.905 Q156.401 266.905 157.246 267.697 Q158.09 268.49 158.09 269.844 Q158.09 271.239 157.222 272.015 Q156.354 272.784 154.774 272.784 Q154.23 272.784 153.663 272.692 Q153.102 272.599 152.5 272.414 L152.5 271.239 Q153.021 271.523 153.577 271.662 Q154.132 271.8 154.751 271.8 Q155.752 271.8 156.337 271.274 Q156.921 270.747 156.921 269.844 Q156.921 268.942 156.337 268.415 Q155.752 267.888 154.751 267.888 Q154.283 267.888 153.814 267.993 Q153.351 268.097 152.865 268.317 L152.865 263.976 Z" fill="#000000" fill-rule="evenodd" fill-opacity="1" /><path clip-path="url(#clip350)" d="M 0 0 M224.26 263.976 L228.849 263.976 L228.849 264.96 L225.331 264.96 L225.331 267.078 Q225.586 266.991 225.84 266.951 Q226.095 266.905 226.349 266.905 Q227.796 266.905 228.641 267.697 Q229.486 268.49 229.486 269.844 Q229.486 271.239 228.618 272.015 Q227.75 272.784 226.17 272.784 Q225.626 272.784 225.059 272.692 Q224.498 272.599 223.896 272.414 L223.896 271.239 Q224.417 271.523 224.972 271.662 Q225.528 271.8 226.147 271.8 Q227.148 271.8 227.733 271.274 Q228.317 270.747 228.317 269.844 Q228.317 268.942 227.733 268.415 Q227.148 267.888 226.147 267.888 Q225.678 267.888 225.209 267.993 Q224.746 268.097 224.26 268.317 L224.26 263.976 Z" fill="#000000" fill-rule="evenodd" fill-opacity="1" /><path clip-path="url(#clip350)" d="M 0 0 M230.753 271.146 L231.974 271.146 L231.974 272.616 L230.753 272.616 L230.753 271.146 Z" fill="#000000" fill-rule="evenodd" fill-opacity="1" /><path clip-path="url(#clip350)" d="M 0 0 M235.742 264.746 Q234.839 264.746 234.382 265.637 Q233.93 266.523 233.93 268.305 Q233.93 270.082 234.382 270.973 Q234.839 271.858 235.742 271.858 Q236.65 271.858 237.102 270.973 Q237.559 270.082 237.559 268.305 Q237.559 266.523 237.102 265.637 Q236.65 264.746 235.742 264.746 M235.742 263.82 Q237.194 263.82 237.958 264.972 Q238.728 266.118 238.728 268.305 Q238.728 270.487 237.958 271.638 Q237.194 272.784 235.742 272.784 Q234.289 272.784 233.52 271.638 Q232.756 270.487 232.756 268.305 Q232.756 266.118 233.52 264.972 Q234.289 263.82 235.742 263.82 Z" fill="#000000" fill-rule="evenodd" fill-opacity="1" /><path clip-path="url(#clip350)" d="M 0 0 M304.499 263.976 L310.054 263.976 L310.054 264.474 L306.918 272.616 L305.696 272.616 L308.648 264.96 L304.499 264.96 L304.499 263.976 Z" fill="#000000" fill-rule="evenodd" fill-opacity="1" /><path clip-path="url(#clip350)" d="M 0 0 M311.321 271.146 L312.543 271.146 L312.543 272.616 L311.321 272.616 L311.321 271.146 Z" fill="#000000" fill-rule="evenodd" fill-opacity="1" /><path clip-path="url(#clip350)" d="M 0 0 M313.821 263.976 L318.411 263.976 L318.411 264.96 L314.892 264.96 L314.892 267.078 Q315.147 266.991 315.401 266.951 Q315.656 266.905 315.911 266.905 Q317.357 266.905 318.202 267.697 Q319.047 268.49 319.047 269.844 Q319.047 271.239 318.179 272.015 Q317.311 272.784 315.731 272.784 Q315.187 272.784 314.62 272.692 Q314.059 272.599 313.457 272.414 L313.457 271.239 Q313.978 271.523 314.533 271.662 Q315.089 271.8 315.708 271.8 Q316.709 271.8 317.294 271.274 Q317.878 270.747 317.878 269.844 Q317.878 268.942 317.294 268.415 Q316.709 267.888 315.708 267.888 Q315.239 267.888 314.77 267.993 Q314.308 268.097 313.821 268.317 L313.821 263.976 Z" fill="#000000" fill-rule="evenodd" fill-opacity="1" /><path clip-path="url(#clip350)" d="M 0 0 M381.832 271.633 L383.741 271.633 L383.741 265.041 L381.664 265.458 L381.664 264.393 L383.73 263.976 L384.899 263.976 L384.899 271.633 L386.808 271.633 L386.808 272.616 L381.832 272.616 L381.832 271.633 Z" fill="#000000" fill-rule="evenodd" fill-opacity="1" /><path clip-path="url(#clip350)" d="M 0 0 M390.576 264.746 Q389.673 264.746 389.216 265.637 Q388.764 266.523 388.764 268.305 Q388.764 270.082 389.216 270.973 Q389.673 271.858 390.576 271.858 Q391.484 271.858 391.936 270.973 Q392.393 270.082 392.393 268.305 Q392.393 266.523 391.936 265.637 Q391.484 264.746 390.576 264.746 M390.576 263.82 Q392.028 263.82 392.792 264.972 Q393.562 266.118 393.562 268.305 Q393.562 270.487 392.792 271.638 Q392.028 272.784 390.576 272.784 Q389.123 272.784 388.354 271.638 Q387.59 270.487 387.59 268.305 Q387.59 266.118 388.354 264.972 Q389.123 263.82 390.576 263.82 Z" fill="#000000" fill-rule="evenodd" fill-opacity="1" /><path clip-path="url(#clip350)" d="M 0 0 M394.829 271.146 L396.05 271.146 L396.05 272.616 L394.829 272.616 L394.829 271.146 Z" fill="#000000" fill-rule="evenodd" fill-opacity="1" /><path clip-path="url(#clip350)" d="M 0 0 M399.818 264.746 Q398.915 264.746 398.458 265.637 Q398.006 266.523 398.006 268.305 Q398.006 270.082 398.458 270.973 Q398.915 271.858 399.818 271.858 Q400.726 271.858 401.178 270.973 Q401.635 270.082 401.635 268.305 Q401.635 266.523 401.178 265.637 Q400.726 264.746 399.818 264.746 M399.818 263.82 Q401.27 263.82 402.034 264.972 Q402.804 266.118 402.804 268.305 Q402.804 270.487 402.034 271.638 Q401.27 272.784 399.818 272.784 Q398.365 272.784 397.595 271.638 Q396.832 270.487 396.832 268.305 Q396.832 266.118 397.595 264.972 Q398.365 263.82 399.818 263.82 Z" fill="#000000" fill-rule="evenodd" fill-opacity="1" /><g clip-path="url(#clip350)">
<text style="fill:#000000; fill-opacity:1; font-family:Arial,Helvetica Neue,Helvetica,sans-serif; font-size:16px; text-anchor:middle;" transform="rotate(0, 263.496, 293.459)" x="263.496" y="293.459">iteration number</text>
</g>
<polyline clip-path="url(#clip352)" style="stroke:#000000; stroke-width:0.5; stroke-opacity:0.1; fill:none" points="
  58.8035,240.506 468.189,240.506 
  "/>
<polyline clip-path="url(#clip352)" style="stroke:#000000; stroke-width:0.5; stroke-opacity:0.1; fill:none" points="
  58.8035,197.348 468.189,197.348 
  "/>
<polyline clip-path="url(#clip352)" style="stroke:#000000; stroke-width:0.5; stroke-opacity:0.1; fill:none" points="
  58.8035,154.191 468.189,154.191 
  "/>
<polyline clip-path="url(#clip352)" style="stroke:#000000; stroke-width:0.5; stroke-opacity:0.1; fill:none" points="
  58.8035,111.033 468.189,111.033 
  "/>
<polyline clip-path="url(#clip352)" style="stroke:#000000; stroke-width:0.5; stroke-opacity:0.1; fill:none" points="
  58.8035,67.8751 468.189,67.8751 
  "/>
<polyline clip-path="url(#clip350)" style="stroke:#000000; stroke-width:1; stroke-opacity:1; fill:none" points="
  58.8035,258.408 58.8035,27.537 
  "/>
<polyline clip-path="url(#clip350)" style="stroke:#000000; stroke-width:1; stroke-opacity:1; fill:none" points="
  58.8035,240.506 63.7161,240.506 
  "/>
<polyline clip-path="url(#clip350)" style="stroke:#000000; stroke-width:1; stroke-opacity:1; fill:none" points="
  58.8035,197.348 63.7161,197.348 
  "/>
<polyline clip-path="url(#clip350)" style="stroke:#000000; stroke-width:1; stroke-opacity:1; fill:none" points="
  58.8035,154.191 63.7161,154.191 
  "/>
<polyline clip-path="url(#clip350)" style="stroke:#000000; stroke-width:1; stroke-opacity:1; fill:none" points="
  58.8035,111.033 63.7161,111.033 
  "/>
<polyline clip-path="url(#clip350)" style="stroke:#000000; stroke-width:1; stroke-opacity:1; fill:none" points="
  58.8035,67.8751 63.7161,67.8751 
  "/>
<path clip-path="url(#clip350)" d="M 0 0 M28.5604 245.454 L30.4701 245.454 L30.4701 238.863 L28.3925 239.279 L28.3925 238.215 L30.4585 237.798 L31.6275 237.798 L31.6275 245.454 L33.5372 245.454 L33.5372 246.438 L28.5604 246.438 L28.5604 245.454 Z" fill="#000000" fill-rule="evenodd" fill-opacity="1" /><path clip-path="url(#clip350)" d="M 0 0 M37.3045 238.568 Q36.4018 238.568 35.9446 239.459 Q35.4932 240.344 35.4932 242.127 Q35.4932 243.903 35.9446 244.794 Q36.4018 245.68 37.3045 245.68 Q38.2131 245.68 38.6645 244.794 Q39.1217 243.903 39.1217 242.127 Q39.1217 240.344 38.6645 239.459 Q38.2131 238.568 37.3045 238.568 M37.3045 237.642 Q38.7571 237.642 39.521 238.793 Q40.2906 239.939 40.2906 242.127 Q40.2906 244.308 39.521 245.46 Q38.7571 246.606 37.3045 246.606 Q35.852 246.606 35.0823 245.46 Q34.3184 244.308 34.3184 242.127 Q34.3184 239.939 35.0823 238.793 Q35.852 237.642 37.3045 237.642 Z" fill="#000000" fill-rule="evenodd" fill-opacity="1" /><path clip-path="url(#clip350)" d="M 0 0 M40.2906 236.167 L46.3185 236.167 L46.3185 236.966 L40.2906 236.966 L40.2906 236.167 Z" fill="#000000" fill-rule="evenodd" fill-opacity="1" /><path clip-path="url(#clip350)" d="M 0 0 M47.3576 232.565 L51.0863 232.565 L51.0863 233.365 L48.2275 233.365 L48.2275 235.086 Q48.4344 235.015 48.6413 234.982 Q48.8482 234.945 49.055 234.945 Q50.2305 234.945 50.917 235.589 Q51.6035 236.233 51.6035 237.333 Q51.6035 238.466 50.8982 239.096 Q50.1929 239.722 48.9093 239.722 Q48.4673 239.722 48.0065 239.646 Q47.5504 239.571 47.0614 239.421 L47.0614 238.466 Q47.4846 238.697 47.936 238.81 Q48.3874 238.922 48.8905 238.922 Q49.7039 238.922 50.1788 238.494 Q50.6537 238.067 50.6537 237.333 Q50.6537 236.6 50.1788 236.172 Q49.7039 235.744 48.8905 235.744 Q48.5096 235.744 48.1288 235.828 Q47.7526 235.913 47.3576 236.092 L47.3576 232.565 Z" fill="#000000" fill-rule="evenodd" fill-opacity="1" /><path clip-path="url(#clip350)" d="M 0 0 M28.2594 202.296 L30.1692 202.296 L30.1692 195.705 L28.0916 196.122 L28.0916 195.057 L30.1576 194.64 L31.3266 194.64 L31.3266 202.296 L33.2363 202.296 L33.2363 203.28 L28.2594 203.28 L28.2594 202.296 Z" fill="#000000" fill-rule="evenodd" fill-opacity="1" /><path clip-path="url(#clip350)" d="M 0 0 M37.0036 195.41 Q36.1008 195.41 35.6437 196.301 Q35.1923 197.186 35.1923 198.969 Q35.1923 200.745 35.6437 201.637 Q36.1008 202.522 37.0036 202.522 Q37.9122 202.522 38.3636 201.637 Q38.8207 200.745 38.8207 198.969 Q38.8207 197.186 38.3636 196.301 Q37.9122 195.41 37.0036 195.41 M37.0036 194.484 Q38.4561 194.484 39.22 195.636 Q39.9897 196.781 39.9897 198.969 Q39.9897 201.151 39.22 202.302 Q38.4561 203.448 37.0036 203.448 Q35.5511 203.448 34.7814 202.302 Q34.0175 201.151 34.0175 198.969 Q34.0175 196.781 34.7814 195.636 Q35.5511 194.484 37.0036 194.484 Z" fill="#000000" fill-rule="evenodd" fill-opacity="1" /><path clip-path="url(#clip350)" d="M 0 0 M39.9897 193.009 L46.0176 193.009 L46.0176 193.809 L39.9897 193.809 L39.9897 193.009 Z" fill="#000000" fill-rule="evenodd" fill-opacity="1" /><path clip-path="url(#clip350)" d="M 0 0 M49.6569 190.235 L47.2589 193.983 L49.6569 193.983 L49.6569 190.235 M49.4077 189.408 L50.602 189.408 L50.602 193.983 L51.6035 193.983 L51.6035 194.773 L50.602 194.773 L50.602 196.428 L49.6569 196.428 L49.6569 194.773 L46.4878 194.773 L46.4878 193.856 L49.4077 189.408 Z" fill="#000000" fill-rule="evenodd" fill-opacity="1" /><path clip-path="url(#clip350)" d="M 0 0 M28.4898 159.139 L30.3996 159.139 L30.3996 152.547 L28.322 152.964 L28.322 151.899 L30.388 151.482 L31.557 151.482 L31.557 159.139 L33.4667 159.139 L33.4667 160.122 L28.4898 160.122 L28.4898 159.139 Z" fill="#000000" fill-rule="evenodd" fill-opacity="1" /><path clip-path="url(#clip350)" d="M 0 0 M37.234 152.252 Q36.3312 152.252 35.8741 153.143 Q35.4227 154.029 35.4227 155.811 Q35.4227 157.588 35.8741 158.479 Q36.3312 159.364 37.234 159.364 Q38.1426 159.364 38.594 158.479 Q39.0511 157.588 39.0511 155.811 Q39.0511 154.029 38.594 153.143 Q38.1426 152.252 37.234 152.252 M37.234 151.326 Q38.6865 151.326 39.4504 152.478 Q40.2201 153.624 40.2201 155.811 Q40.2201 157.993 39.4504 159.144 Q38.6865 160.29 37.234 160.29 Q35.7815 160.29 35.0118 159.144 Q34.2479 157.993 34.2479 155.811 Q34.2479 153.624 35.0118 152.478 Q35.7815 151.326 37.234 151.326 Z" fill="#000000" fill-rule="evenodd" fill-opacity="1" /><path clip-path="url(#clip350)" d="M 0 0 M40.2201 149.852 L46.248 149.852 L46.248 150.651 L40.2201 150.651 L40.2201 149.852 Z" fill="#000000" fill-rule="evenodd" fill-opacity="1" /><path clip-path="url(#clip350)" d="M 0 0 M50.1553 149.485 Q50.8371 149.631 51.2179 150.091 Q51.6035 150.552 51.6035 151.229 Q51.6035 152.268 50.8888 152.837 Q50.1741 153.406 48.8576 153.406 Q48.4156 153.406 47.9454 153.317 Q47.4799 153.232 46.9815 153.058 L46.9815 152.141 Q47.3765 152.372 47.8467 152.489 Q48.3168 152.607 48.8294 152.607 Q49.7227 152.607 50.1882 152.254 Q50.6584 151.902 50.6584 151.229 Q50.6584 150.609 50.2211 150.261 Q49.7886 149.908 49.0127 149.908 L48.1946 149.908 L48.1946 149.127 L49.0503 149.127 Q49.7509 149.127 50.1224 148.85 Q50.4938 148.568 50.4938 148.041 Q50.4938 147.501 50.1083 147.214 Q49.7274 146.922 49.0127 146.922 Q48.6225 146.922 48.1758 147.007 Q47.7291 147.092 47.1931 147.27 L47.1931 146.424 Q47.7338 146.273 48.204 146.198 Q48.6789 146.123 49.0974 146.123 Q50.1788 146.123 50.8089 146.617 Q51.4389 147.106 51.4389 147.943 Q51.4389 148.526 51.1051 148.93 Q50.7713 149.33 50.1553 149.485 Z" fill="#000000" fill-rule="evenodd" fill-opacity="1" /><path clip-path="url(#clip350)" d="M 0 0 M28.6826 115.981 L30.5923 115.981 L30.5923 109.39 L28.5148 109.806 L28.5148 108.741 L30.5808 108.325 L31.7497 108.325 L31.7497 115.981 L33.6594 115.981 L33.6594 116.965 L28.6826 116.965 L28.6826 115.981 Z" fill="#000000" fill-rule="evenodd" fill-opacity="1" /><path clip-path="url(#clip350)" d="M 0 0 M37.4268 109.094 Q36.524 109.094 36.0668 109.986 Q35.6155 110.871 35.6155 112.653 Q35.6155 114.43 36.0668 115.321 Q36.524 116.207 37.4268 116.207 Q38.3353 116.207 38.7867 115.321 Q39.2439 114.43 39.2439 112.653 Q39.2439 110.871 38.7867 109.986 Q38.3353 109.094 37.4268 109.094 M37.4268 108.168 Q38.8793 108.168 39.6432 109.32 Q40.4129 110.466 40.4129 112.653 Q40.4129 114.835 39.6432 115.987 Q38.8793 117.133 37.4268 117.133 Q35.9742 117.133 35.2046 115.987 Q34.4407 114.835 34.4407 112.653 Q34.4407 110.466 35.2046 109.32 Q35.9742 108.168 37.4268 108.168 Z" fill="#000000" fill-rule="evenodd" fill-opacity="1" /><path clip-path="url(#clip350)" d="M 0 0 M40.4129 106.694 L46.4408 106.694 L46.4408 107.493 L40.4129 107.493 L40.4129 106.694 Z" fill="#000000" fill-rule="evenodd" fill-opacity="1" /><path clip-path="url(#clip350)" d="M 0 0 M48.2886 109.313 L51.6035 109.313 L51.6035 110.112 L47.1461 110.112 L47.1461 109.313 Q47.6868 108.753 48.6178 107.813 Q49.5535 106.868 49.7933 106.595 Q50.2493 106.083 50.428 105.73 Q50.6114 105.373 50.6114 105.029 Q50.6114 104.47 50.2164 104.117 Q49.8262 103.764 49.1961 103.764 Q48.7494 103.764 48.251 103.92 Q47.7573 104.075 47.1931 104.39 L47.1931 103.431 Q47.7667 103.2 48.2651 103.083 Q48.7635 102.965 49.1773 102.965 Q50.2682 102.965 50.917 103.511 Q51.5659 104.056 51.5659 104.968 Q51.5659 105.401 51.4013 105.791 Q51.2415 106.177 50.8136 106.703 Q50.696 106.84 50.066 107.493 Q49.4359 108.142 48.2886 109.313 Z" fill="#000000" fill-rule="evenodd" fill-opacity="1" /><path clip-path="url(#clip350)" d="M 0 0 M28.6074 72.8232 L30.5171 72.8232 L30.5171 66.2318 L28.4396 66.6484 L28.4396 65.5836 L30.5055 65.167 L31.6745 65.167 L31.6745 72.8232 L33.5842 72.8232 L33.5842 73.807 L28.6074 73.807 L28.6074 72.8232 Z" fill="#000000" fill-rule="evenodd" fill-opacity="1" /><path clip-path="url(#clip350)" d="M 0 0 M37.3516 65.9366 Q36.4488 65.9366 35.9916 66.8278 Q35.5402 67.7133 35.5402 69.4957 Q35.5402 71.2723 35.9916 72.1635 Q36.4488 73.0489 37.3516 73.0489 Q38.2601 73.0489 38.7115 72.1635 Q39.1687 71.2723 39.1687 69.4957 Q39.1687 67.7133 38.7115 66.8278 Q38.2601 65.9366 37.3516 65.9366 M37.3516 65.0107 Q38.8041 65.0107 39.568 66.1623 Q40.3376 67.3082 40.3376 69.4957 Q40.3376 71.6774 39.568 72.829 Q38.8041 73.9748 37.3516 73.9748 Q35.899 73.9748 35.1293 72.829 Q34.3655 71.6774 34.3655 69.4957 Q34.3655 67.3082 35.1293 66.1623 Q35.899 65.0107 37.3516 65.0107 Z" fill="#000000" fill-rule="evenodd" fill-opacity="1" /><path clip-path="url(#clip350)" d="M 0 0 M40.3376 63.5361 L46.3655 63.5361 L46.3655 64.3354 L40.3376 64.3354 L40.3376 63.5361 Z" fill="#000000" fill-rule="evenodd" fill-opacity="1" /><path clip-path="url(#clip350)" d="M 0 0 M47.5598 66.155 L49.1115 66.155 L49.1115 60.7995 L47.4235 61.1381 L47.4235 60.2729 L49.1021 59.9344 L50.0519 59.9344 L50.0519 66.155 L51.6035 66.155 L51.6035 66.9544 L47.5598 66.9544 L47.5598 66.155 Z" fill="#000000" fill-rule="evenodd" fill-opacity="1" /><g clip-path="url(#clip350)">
<text style="fill:#000000; fill-opacity:1; font-family:Arial,Helvetica Neue,Helvetica,sans-serif; font-size:16px; text-anchor:middle;" transform="rotate(-90, 18.0011, 142.973)" x="18.0011" y="142.973">error</text>
</g>
<g clip-path="url(#clip350)">
<text style="fill:#000000; fill-opacity:1; font-family:Arial,Helvetica Neue,Helvetica,sans-serif; font-size:18px; font-weight:bold; text-anchor:middle;" transform="rotate(0, 263.496, 15.6)" x="263.496" y="15.6">Convergence of fixed point iteration</text>
</g>
<polyline clip-path="url(#clip352)" style="stroke:#009af9; stroke-width:2; stroke-opacity:1; fill:none" points="
  70.3899,34.0711 102.574,64.9152 134.759,87.6631 166.943,102.671 199.127,119.911 231.312,136.151 263.496,152.79 295.681,169.261 327.865,185.801 360.049,202.312 
  392.234,218.836 424.418,235.354 456.603,251.874 
  "/>
<path clip-path="url(#clip352)" d="M70.3899 38.0711 L67.5619 36.8991 L66.3899 34.0711 L67.5619 31.2431 L70.3899 30.0711 L73.2179 31.2431 L74.3899 34.0711 L73.2179 36.8991 Z" fill="#009af9" fill-rule="evenodd" fill-opacity="1" stroke="#000000" stroke-opacity="1" stroke-width="0.6"/>
<path clip-path="url(#clip352)" d="M102.574 68.9152 L99.7463 67.7432 L98.5743 64.9152 L99.7463 62.0872 L102.574 60.9152 L105.402 62.0872 L106.574 64.9152 L105.402 67.7432 Z" fill="#009af9" fill-rule="evenodd" fill-opacity="1" stroke="#000000" stroke-opacity="1" stroke-width="0.6"/>
<path clip-path="url(#clip352)" d="M134.759 91.6631 L131.931 90.4911 L130.759 87.6631 L131.931 84.8351 L134.759 83.6631 L137.587 84.8351 L138.759 87.6631 L137.587 90.4911 Z" fill="#009af9" fill-rule="evenodd" fill-opacity="1" stroke="#000000" stroke-opacity="1" stroke-width="0.6"/>
<path clip-path="url(#clip352)" d="M166.943 106.671 L164.115 105.499 L162.943 102.671 L164.115 99.8431 L166.943 98.6711 L169.771 99.8431 L170.943 102.671 L169.771 105.499 Z" fill="#009af9" fill-rule="evenodd" fill-opacity="1" stroke="#000000" stroke-opacity="1" stroke-width="0.6"/>
<path clip-path="url(#clip352)" d="M199.127 123.911 L196.299 122.739 L195.127 119.911 L196.299 117.083 L199.127 115.911 L201.955 117.083 L203.127 119.911 L201.955 122.739 Z" fill="#009af9" fill-rule="evenodd" fill-opacity="1" stroke="#000000" stroke-opacity="1" stroke-width="0.6"/>
<path clip-path="url(#clip352)" d="M231.312 140.151 L228.484 138.979 L227.312 136.151 L228.484 133.323 L231.312 132.151 L234.14 133.323 L235.312 136.151 L234.14 138.979 Z" fill="#009af9" fill-rule="evenodd" fill-opacity="1" stroke="#000000" stroke-opacity="1" stroke-width="0.6"/>
<path clip-path="url(#clip352)" d="M263.496 156.79 L260.668 155.618 L259.496 152.79 L260.668 149.962 L263.496 148.79 L266.324 149.962 L267.496 152.79 L266.324 155.618 Z" fill="#009af9" fill-rule="evenodd" fill-opacity="1" stroke="#000000" stroke-opacity="1" stroke-width="0.6"/>
<path clip-path="url(#clip352)" d="M295.681 173.261 L292.853 172.089 L291.681 169.261 L292.853 166.433 L295.681 165.261 L298.509 166.433 L299.681 169.261 L298.509 172.089 Z" fill="#009af9" fill-rule="evenodd" fill-opacity="1" stroke="#000000" stroke-opacity="1" stroke-width="0.6"/>
<path clip-path="url(#clip352)" d="M327.865 189.801 L325.037 188.629 L323.865 185.801 L325.037 182.973 L327.865 181.801 L330.693 182.973 L331.865 185.801 L330.693 188.629 Z" fill="#009af9" fill-rule="evenodd" fill-opacity="1" stroke="#000000" stroke-opacity="1" stroke-width="0.6"/>
<path clip-path="url(#clip352)" d="M360.049 206.312 L357.221 205.14 L356.049 202.312 L357.221 199.484 L360.049 198.312 L362.877 199.484 L364.049 202.312 L362.877 205.14 Z" fill="#009af9" fill-rule="evenodd" fill-opacity="1" stroke="#000000" stroke-opacity="1" stroke-width="0.6"/>
<path clip-path="url(#clip352)" d="M392.234 222.836 L389.406 221.664 L388.234 218.836 L389.406 216.008 L392.234 214.836 L395.062 216.008 L396.234 218.836 L395.062 221.664 Z" fill="#009af9" fill-rule="evenodd" fill-opacity="1" stroke="#000000" stroke-opacity="1" stroke-width="0.6"/>
<path clip-path="url(#clip352)" d="M424.418 239.354 L421.59 238.182 L420.418 235.354 L421.59 232.526 L424.418 231.354 L427.246 232.526 L428.418 235.354 L427.246 238.182 Z" fill="#009af9" fill-rule="evenodd" fill-opacity="1" stroke="#000000" stroke-opacity="1" stroke-width="0.6"/>
<path clip-path="url(#clip352)" d="M456.603 255.874 L453.775 254.702 L452.603 251.874 L453.775 249.046 L456.603 247.874 L459.431 249.046 L460.603 251.874 L459.431 254.702 Z" fill="#009af9" fill-rule="evenodd" fill-opacity="1" stroke="#000000" stroke-opacity="1" stroke-width="0.6"/>
</svg>
