<?xml version="1.0" encoding="utf-8"?>
<svg xmlns="http://www.w3.org/2000/svg" xmlns:xlink="http://www.w3.org/1999/xlink" width="120" height="75" viewBox="0 0 480 300">
<defs>
  <clipPath id="clip240">
    <rect x="0" y="0" width="480" height="300"/>
  </clipPath>
</defs>
<path clip-path="url(#clip240)" d="
M0 300 L480 300 L480 0 L0 0  Z
  " fill="#ffffff" fill-rule="evenodd" fill-opacity="1"/>
<defs>
  <clipPath id="clip241">
    <rect x="96" y="0" width="337" height="300"/>
  </clipPath>
</defs>
<path clip-path="url(#clip240)" d="
M63.9427 255.53 L468.189 255.53 L468.189 27.537 L63.9427 27.537  Z
  " fill="#ffffff" fill-rule="evenodd" fill-opacity="1"/>
<defs>
  <clipPath id="clip242">
    <rect x="63" y="27" width="405" height="229"/>
  </clipPath>
</defs>
<polyline clip-path="url(#clip242)" style="stroke:#000000; stroke-width:0.5; stroke-opacity:0.1; fill:none" points="
  118.782,255.53 118.782,27.537 
  "/>
<polyline clip-path="url(#clip242)" style="stroke:#000000; stroke-width:0.5; stroke-opacity:0.1; fill:none" points="
  199.284,255.53 199.284,27.537 
  "/>
<polyline clip-path="url(#clip242)" style="stroke:#000000; stroke-width:0.5; stroke-opacity:0.1; fill:none" points="
  279.786,255.53 279.786,27.537 
  "/>
<polyline clip-path="url(#clip242)" style="stroke:#000000; stroke-width:0.5; stroke-opacity:0.1; fill:none" points="
  360.288,255.53 360.288,27.537 
  "/>
<polyline clip-path="url(#clip242)" style="stroke:#000000; stroke-width:0.5; stroke-opacity:0.1; fill:none" points="
  440.79,255.53 440.79,27.537 
  "/>
<polyline clip-path="url(#clip240)" style="stroke:#000000; stroke-width:1; stroke-opacity:1; fill:none" points="
  63.9427,255.53 468.189,255.53 
  "/>
<polyline clip-path="url(#clip240)" style="stroke:#000000; stroke-width:1; stroke-opacity:1; fill:none" points="
  118.782,255.53 118.782,252.794 
  "/>
<polyline clip-path="url(#clip240)" style="stroke:#000000; stroke-width:1; stroke-opacity:1; fill:none" points="
  199.284,255.53 199.284,252.794 
  "/>
<polyline clip-path="url(#clip240)" style="stroke:#000000; stroke-width:1; stroke-opacity:1; fill:none" points="
  279.786,255.53 279.786,252.794 
  "/>
<polyline clip-path="url(#clip240)" style="stroke:#000000; stroke-width:1; stroke-opacity:1; fill:none" points="
  360.288,255.53 360.288,252.794 
  "/>
<polyline clip-path="url(#clip240)" style="stroke:#000000; stroke-width:1; stroke-opacity:1; fill:none" points="
  440.79,255.53 440.79,252.794 
  "/>
<path clip-path="url(#clip240)" d="M 0 0 M107.258 274.138 L109.167 274.138 L109.167 267.546 L107.09 267.963 L107.09 266.898 L109.156 266.481 L110.325 266.481 L110.325 274.138 L112.235 274.138 L112.235 275.121 L107.258 275.121 L107.258 274.138 Z" fill="#000000" fill-rule="evenodd" fill-opacity="1" /><path clip-path="url(#clip240)" d="M 0 0 M116.002 267.251 Q115.099 267.251 114.642 268.142 Q114.191 269.028 114.191 270.81 Q114.191 272.587 114.642 273.478 Q115.099 274.363 116.002 274.363 Q116.91 274.363 117.362 273.478 Q117.819 272.587 117.819 270.81 Q117.819 269.028 117.362 268.142 Q116.91 267.251 116.002 267.251 M116.002 266.325 Q117.454 266.325 118.218 267.477 Q118.988 268.622 118.988 270.81 Q118.988 272.992 118.218 274.143 Q117.454 275.289 116.002 275.289 Q114.549 275.289 113.78 274.143 Q113.016 272.992 113.016 270.81 Q113.016 268.622 113.78 267.477 Q114.549 266.325 116.002 266.325 Z" fill="#000000" fill-rule="evenodd" fill-opacity="1" /><path clip-path="url(#clip240)" d="M 0 0 M119.124 267.469 L120.676 267.469 L120.676 262.114 L118.988 262.452 L118.988 261.587 L120.667 261.249 L121.616 261.249 L121.616 267.469 L123.168 267.469 L123.168 268.269 L119.124 268.269 L119.124 267.469 Z" fill="#000000" fill-rule="evenodd" fill-opacity="1" /><path clip-path="url(#clip240)" d="M 0 0 M124.198 267.074 L125.19 267.074 L125.19 268.269 L124.198 268.269 L124.198 267.074 Z" fill="#000000" fill-rule="evenodd" fill-opacity="1" /><path clip-path="url(#clip240)" d="M 0 0 M126.229 261.249 L129.958 261.249 L129.958 262.048 L127.099 262.048 L127.099 263.769 Q127.306 263.698 127.513 263.666 Q127.719 263.628 127.926 263.628 Q129.102 263.628 129.788 264.272 Q130.475 264.916 130.475 266.016 Q130.475 267.15 129.77 267.78 Q129.064 268.405 127.781 268.405 Q127.339 268.405 126.878 268.33 Q126.422 268.255 125.933 268.104 L125.933 267.15 Q126.356 267.38 126.807 267.493 Q127.259 267.606 127.762 267.606 Q128.575 267.606 129.05 267.178 Q129.525 266.75 129.525 266.016 Q129.525 265.283 129.05 264.855 Q128.575 264.427 127.762 264.427 Q127.381 264.427 127 264.512 Q126.624 264.596 126.229 264.775 L126.229 261.249 Z" fill="#000000" fill-rule="evenodd" fill-opacity="1" /><path clip-path="url(#clip240)" d="M 0 0 M187.52 274.138 L189.429 274.138 L189.429 267.546 L187.352 267.963 L187.352 266.898 L189.418 266.481 L190.587 266.481 L190.587 274.138 L192.497 274.138 L192.497 275.121 L187.52 275.121 L187.52 274.138 Z" fill="#000000" fill-rule="evenodd" fill-opacity="1" /><path clip-path="url(#clip240)" d="M 0 0 M196.264 267.251 Q195.361 267.251 194.904 268.142 Q194.453 269.028 194.453 270.81 Q194.453 272.587 194.904 273.478 Q195.361 274.363 196.264 274.363 Q197.172 274.363 197.624 273.478 Q198.081 272.587 198.081 270.81 Q198.081 269.028 197.624 268.142 Q197.172 267.251 196.264 267.251 M196.264 266.325 Q197.716 266.325 198.48 267.477 Q199.25 268.622 199.25 270.81 Q199.25 272.992 198.48 274.143 Q197.716 275.289 196.264 275.289 Q194.811 275.289 194.042 274.143 Q193.278 272.992 193.278 270.81 Q193.278 268.622 194.042 267.477 Q194.811 266.325 196.264 266.325 Z" fill="#000000" fill-rule="evenodd" fill-opacity="1" /><path clip-path="url(#clip240)" d="M 0 0 M200.393 267.469 L203.707 267.469 L203.707 268.269 L199.25 268.269 L199.25 267.469 Q199.791 266.91 200.722 265.969 Q201.657 265.024 201.897 264.752 Q202.353 264.239 202.532 263.886 Q202.715 263.529 202.715 263.186 Q202.715 262.626 202.32 262.274 Q201.93 261.921 201.3 261.921 Q200.853 261.921 200.355 262.076 Q199.861 262.231 199.297 262.546 L199.297 261.587 Q199.871 261.357 200.369 261.239 Q200.867 261.122 201.281 261.122 Q202.372 261.122 203.021 261.667 Q203.67 262.213 203.67 263.125 Q203.67 263.557 203.505 263.948 Q203.345 264.333 202.918 264.86 Q202.8 264.996 202.17 265.65 Q201.54 266.299 200.393 267.469 Z" fill="#000000" fill-rule="evenodd" fill-opacity="1" /><path clip-path="url(#clip240)" d="M 0 0 M204.737 267.074 L205.729 267.074 L205.729 268.269 L204.737 268.269 L204.737 267.074 Z" fill="#000000" fill-rule="evenodd" fill-opacity="1" /><path clip-path="url(#clip240)" d="M 0 0 M208.79 261.874 Q208.057 261.874 207.685 262.598 Q207.319 263.318 207.319 264.766 Q207.319 266.209 207.685 266.933 Q208.057 267.653 208.79 267.653 Q209.528 267.653 209.895 266.933 Q210.267 266.209 210.267 264.766 Q210.267 263.318 209.895 262.598 Q209.528 261.874 208.79 261.874 M208.79 261.122 Q209.97 261.122 210.591 262.057 Q211.216 262.988 211.216 264.766 Q211.216 266.538 210.591 267.474 Q209.97 268.405 208.79 268.405 Q207.61 268.405 206.985 267.474 Q206.364 266.538 206.364 264.766 Q206.364 262.988 206.985 262.057 Q207.61 261.122 208.79 261.122 Z" fill="#000000" fill-rule="evenodd" fill-opacity="1" /><path clip-path="url(#clip240)" d="M 0 0 M268.123 274.138 L270.032 274.138 L270.032 267.546 L267.955 267.963 L267.955 266.898 L270.021 266.481 L271.19 266.481 L271.19 274.138 L273.099 274.138 L273.099 275.121 L268.123 275.121 L268.123 274.138 Z" fill="#000000" fill-rule="evenodd" fill-opacity="1" /><path clip-path="url(#clip240)" d="M 0 0 M276.867 267.251 Q275.964 267.251 275.507 268.142 Q275.055 269.028 275.055 270.81 Q275.055 272.587 275.507 273.478 Q275.964 274.363 276.867 274.363 Q277.775 274.363 278.227 273.478 Q278.684 272.587 278.684 270.81 Q278.684 269.028 278.227 268.142 Q277.775 267.251 276.867 267.251 M276.867 266.325 Q278.319 266.325 279.083 267.477 Q279.853 268.622 279.853 270.81 Q279.853 272.992 279.083 274.143 Q278.319 275.289 276.867 275.289 Q275.414 275.289 274.645 274.143 Q273.881 272.992 273.881 270.81 Q273.881 268.622 274.645 267.477 Q275.414 266.325 276.867 266.325 Z" fill="#000000" fill-rule="evenodd" fill-opacity="1" /><path clip-path="url(#clip240)" d="M 0 0 M280.995 267.469 L284.31 267.469 L284.31 268.269 L279.853 268.269 L279.853 267.469 Q280.394 266.91 281.325 265.969 Q282.26 265.024 282.5 264.752 Q282.956 264.239 283.135 263.886 Q283.318 263.529 283.318 263.186 Q283.318 262.626 282.923 262.274 Q282.533 261.921 281.903 261.921 Q281.456 261.921 280.958 262.076 Q280.464 262.231 279.9 262.546 L279.9 261.587 Q280.474 261.357 280.972 261.239 Q281.47 261.122 281.884 261.122 Q282.975 261.122 283.624 261.667 Q284.273 262.213 284.273 263.125 Q284.273 263.557 284.108 263.948 Q283.948 264.333 283.52 264.86 Q283.403 264.996 282.773 265.65 Q282.143 266.299 280.995 267.469 Z" fill="#000000" fill-rule="evenodd" fill-opacity="1" /><path clip-path="url(#clip240)" d="M 0 0 M285.34 267.074 L286.332 267.074 L286.332 268.269 L285.34 268.269 L285.34 267.074 Z" fill="#000000" fill-rule="evenodd" fill-opacity="1" /><path clip-path="url(#clip240)" d="M 0 0 M287.371 261.249 L291.1 261.249 L291.1 262.048 L288.241 262.048 L288.241 263.769 Q288.448 263.698 288.655 263.666 Q288.862 263.628 289.069 263.628 Q290.244 263.628 290.931 264.272 Q291.617 264.916 291.617 266.016 Q291.617 267.15 290.912 267.78 Q290.207 268.405 288.923 268.405 Q288.481 268.405 288.02 268.33 Q287.564 268.255 287.075 268.104 L287.075 267.15 Q287.498 267.38 287.95 267.493 Q288.401 267.606 288.904 267.606 Q289.718 267.606 290.192 267.178 Q290.667 266.75 290.667 266.016 Q290.667 265.283 290.192 264.855 Q289.718 264.427 288.904 264.427 Q288.523 264.427 288.142 264.512 Q287.766 264.596 287.371 264.775 L287.371 261.249 Z" fill="#000000" fill-rule="evenodd" fill-opacity="1" /><path clip-path="url(#clip240)" d="M 0 0 M348.441 274.138 L350.351 274.138 L350.351 267.546 L348.273 267.963 L348.273 266.898 L350.339 266.481 L351.508 266.481 L351.508 274.138 L353.418 274.138 L353.418 275.121 L348.441 275.121 L348.441 274.138 Z" fill="#000000" fill-rule="evenodd" fill-opacity="1" /><path clip-path="url(#clip240)" d="M 0 0 M357.185 267.251 Q356.282 267.251 355.825 268.142 Q355.374 269.028 355.374 270.81 Q355.374 272.587 355.825 273.478 Q356.282 274.363 357.185 274.363 Q358.094 274.363 358.545 273.478 Q359.002 272.587 359.002 270.81 Q359.002 269.028 358.545 268.142 Q358.094 267.251 357.185 267.251 M357.185 266.325 Q358.638 266.325 359.402 267.477 Q360.171 268.622 360.171 270.81 Q360.171 272.992 359.402 274.143 Q358.638 275.289 357.185 275.289 Q355.733 275.289 354.963 274.143 Q354.199 272.992 354.199 270.81 Q354.199 268.622 354.963 267.477 Q355.733 266.325 357.185 266.325 Z" fill="#000000" fill-rule="evenodd" fill-opacity="1" /><path clip-path="url(#clip240)" d="M 0 0 M363.345 264.484 Q364.027 264.629 364.408 265.09 Q364.793 265.551 364.793 266.228 Q364.793 267.267 364.079 267.836 Q363.364 268.405 362.047 268.405 Q361.605 268.405 361.135 268.316 Q360.67 268.231 360.171 268.057 L360.171 267.14 Q360.566 267.371 361.036 267.488 Q361.507 267.606 362.019 267.606 Q362.913 267.606 363.378 267.253 Q363.848 266.9 363.848 266.228 Q363.848 265.607 363.411 265.259 Q362.978 264.907 362.203 264.907 L361.384 264.907 L361.384 264.126 L362.24 264.126 Q362.941 264.126 363.312 263.849 Q363.684 263.567 363.684 263.04 Q363.684 262.499 363.298 262.213 Q362.917 261.921 362.203 261.921 Q361.812 261.921 361.366 262.006 Q360.919 262.09 360.383 262.269 L360.383 261.423 Q360.924 261.272 361.394 261.197 Q361.869 261.122 362.287 261.122 Q363.369 261.122 363.999 261.615 Q364.629 262.104 364.629 262.941 Q364.629 263.524 364.295 263.929 Q363.961 264.328 363.345 264.484 Z" fill="#000000" fill-rule="evenodd" fill-opacity="1" /><path clip-path="url(#clip240)" d="M 0 0 M365.823 267.074 L366.815 267.074 L366.815 268.269 L365.823 268.269 L365.823 267.074 Z" fill="#000000" fill-rule="evenodd" fill-opacity="1" /><path clip-path="url(#clip240)" d="M 0 0 M369.876 261.874 Q369.143 261.874 368.771 262.598 Q368.404 263.318 368.404 264.766 Q368.404 266.209 368.771 266.933 Q369.143 267.653 369.876 267.653 Q370.614 267.653 370.981 266.933 Q371.353 266.209 371.353 264.766 Q371.353 263.318 370.981 262.598 Q370.614 261.874 369.876 261.874 M369.876 261.122 Q371.056 261.122 371.677 262.057 Q372.302 262.988 372.302 264.766 Q372.302 266.538 371.677 267.474 Q371.056 268.405 369.876 268.405 Q368.696 268.405 368.071 267.474 Q367.45 266.538 367.45 264.766 Q367.45 262.988 368.071 262.057 Q368.696 261.122 369.876 261.122 Z" fill="#000000" fill-rule="evenodd" fill-opacity="1" /><path clip-path="url(#clip240)" d="M 0 0 M429.044 274.138 L430.954 274.138 L430.954 267.546 L428.876 267.963 L428.876 266.898 L430.942 266.481 L432.111 266.481 L432.111 274.138 L434.021 274.138 L434.021 275.121 L429.044 275.121 L429.044 274.138 Z" fill="#000000" fill-rule="evenodd" fill-opacity="1" /><path clip-path="url(#clip240)" d="M 0 0 M437.788 267.251 Q436.885 267.251 436.428 268.142 Q435.977 269.028 435.977 270.81 Q435.977 272.587 436.428 273.478 Q436.885 274.363 437.788 274.363 Q438.697 274.363 439.148 273.478 Q439.605 272.587 439.605 270.81 Q439.605 269.028 439.148 268.142 Q438.697 267.251 437.788 267.251 M437.788 266.325 Q439.241 266.325 440.005 267.477 Q440.774 268.622 440.774 270.81 Q440.774 272.992 440.005 274.143 Q439.241 275.289 437.788 275.289 Q436.336 275.289 435.566 274.143 Q434.802 272.992 434.802 270.81 Q434.802 268.622 435.566 267.477 Q436.336 266.325 437.788 266.325 Z" fill="#000000" fill-rule="evenodd" fill-opacity="1" /><path clip-path="url(#clip240)" d="M 0 0 M443.948 264.484 Q444.63 264.629 445.011 265.09 Q445.396 265.551 445.396 266.228 Q445.396 267.267 444.682 267.836 Q443.967 268.405 442.65 268.405 Q442.208 268.405 441.738 268.316 Q441.273 268.231 440.774 268.057 L440.774 267.14 Q441.169 267.371 441.639 267.488 Q442.11 267.606 442.622 267.606 Q443.515 267.606 443.981 267.253 Q444.451 266.9 444.451 266.228 Q444.451 265.607 444.014 265.259 Q443.581 264.907 442.805 264.907 L441.987 264.907 L441.987 264.126 L442.843 264.126 Q443.544 264.126 443.915 263.849 Q444.287 263.567 444.287 263.04 Q444.287 262.499 443.901 262.213 Q443.52 261.921 442.805 261.921 Q442.415 261.921 441.969 262.006 Q441.522 262.09 440.986 262.269 L440.986 261.423 Q441.527 261.272 441.997 261.197 Q442.472 261.122 442.89 261.122 Q443.972 261.122 444.602 261.615 Q445.232 262.104 445.232 262.941 Q445.232 263.524 444.898 263.929 Q444.564 264.328 443.948 264.484 Z" fill="#000000" fill-rule="evenodd" fill-opacity="1" /><path clip-path="url(#clip240)" d="M 0 0 M446.426 267.074 L447.418 267.074 L447.418 268.269 L446.426 268.269 L446.426 267.074 Z" fill="#000000" fill-rule="evenodd" fill-opacity="1" /><path clip-path="url(#clip240)" d="M 0 0 M448.457 261.249 L452.186 261.249 L452.186 262.048 L449.327 262.048 L449.327 263.769 Q449.534 263.698 449.741 263.666 Q449.948 263.628 450.155 263.628 Q451.33 263.628 452.017 264.272 Q452.703 264.916 452.703 266.016 Q452.703 267.15 451.998 267.78 Q451.292 268.405 450.009 268.405 Q449.567 268.405 449.106 268.33 Q448.65 268.255 448.161 268.104 L448.161 267.15 Q448.584 267.38 449.036 267.493 Q449.487 267.606 449.99 267.606 Q450.803 267.606 451.278 267.178 Q451.753 266.75 451.753 266.016 Q451.753 265.283 451.278 264.855 Q450.803 264.427 449.99 264.427 Q449.609 264.427 449.228 264.512 Q448.852 264.596 448.457 264.775 L448.457 261.249 Z" fill="#000000" fill-rule="evenodd" fill-opacity="1" /><g clip-path="url(#clip240)">
<text style="fill:#000000; fill-opacity:1; font-family:Arial,Helvetica Neue,Helvetica,sans-serif; font-size:16px; text-anchor:middle;" transform="rotate(0, 266.066, 295.186)" x="266.066" y="295.186">number of nodes</text>
</g>
<polyline clip-path="url(#clip242)" style="stroke:#000000; stroke-width:0.5; stroke-opacity:0.1; fill:none" points="
  63.9427,226.049 468.189,226.049 
  "/>
<polyline clip-path="url(#clip242)" style="stroke:#000000; stroke-width:0.5; stroke-opacity:0.1; fill:none" points="
  63.9427,178.645 468.189,178.645 
  "/>
<polyline clip-path="url(#clip242)" style="stroke:#000000; stroke-width:0.5; stroke-opacity:0.1; fill:none" points="
  63.9427,131.24 468.189,131.24 
  "/>
<polyline clip-path="url(#clip242)" style="stroke:#000000; stroke-width:0.5; stroke-opacity:0.1; fill:none" points="
  63.9427,83.8358 468.189,83.8358 
  "/>
<polyline clip-path="url(#clip242)" style="stroke:#000000; stroke-width:0.5; stroke-opacity:0.1; fill:none" points="
  63.9427,36.4313 468.189,36.4313 
  "/>
<polyline clip-path="url(#clip240)" style="stroke:#000000; stroke-width:1; stroke-opacity:1; fill:none" points="
  63.9427,255.53 63.9427,27.537 
  "/>
<polyline clip-path="url(#clip240)" style="stroke:#000000; stroke-width:1; stroke-opacity:1; fill:none" points="
  63.9427,226.049 68.7937,226.049 
  "/>
<polyline clip-path="url(#clip240)" style="stroke:#000000; stroke-width:1; stroke-opacity:1; fill:none" points="
  63.9427,178.645 68.7937,178.645 
  "/>
<polyline clip-path="url(#clip240)" style="stroke:#000000; stroke-width:1; stroke-opacity:1; fill:none" points="
  63.9427,131.24 68.7937,131.24 
  "/>
<polyline clip-path="url(#clip240)" style="stroke:#000000; stroke-width:1; stroke-opacity:1; fill:none" points="
  63.9427,83.8358 68.7937,83.8358 
  "/>
<polyline clip-path="url(#clip240)" style="stroke:#000000; stroke-width:1; stroke-opacity:1; fill:none" points="
  63.9427,36.4313 68.7937,36.4313 
  "/>
<path clip-path="url(#clip240)" d="M 0 0 M28.5839 230.998 L30.4936 230.998 L30.4936 224.406 L28.4161 224.823 L28.4161 223.758 L30.482 223.341 L31.651 223.341 L31.651 230.998 L33.5607 230.998 L33.5607 231.981 L28.5839 231.981 L28.5839 230.998 Z" fill="#000000" fill-rule="evenodd" fill-opacity="1" /><path clip-path="url(#clip240)" d="M 0 0 M37.328 224.111 Q36.4253 224.111 35.9681 225.002 Q35.5167 225.888 35.5167 227.67 Q35.5167 229.447 35.9681 230.338 Q36.4253 231.223 37.328 231.223 Q38.2366 231.223 38.688 230.338 Q39.1452 229.447 39.1452 227.67 Q39.1452 225.888 38.688 225.002 Q38.2366 224.111 37.328 224.111 M37.328 223.185 Q38.7806 223.185 39.5445 224.337 Q40.3141 225.483 40.3141 227.67 Q40.3141 229.852 39.5445 231.003 Q38.7806 232.149 37.328 232.149 Q35.8755 232.149 35.1058 231.003 Q34.3419 229.852 34.3419 227.67 Q34.3419 225.483 35.1058 224.337 Q35.8755 223.185 37.328 223.185 Z" fill="#000000" fill-rule="evenodd" fill-opacity="1" /><path clip-path="url(#clip240)" d="M 0 0 M40.3141 221.71 L46.342 221.71 L46.342 222.51 L40.3141 222.51 L40.3141 221.71 Z" fill="#000000" fill-rule="evenodd" fill-opacity="1" /><path clip-path="url(#clip240)" d="M 0 0 M47.5363 224.329 L49.088 224.329 L49.088 218.974 L47.4 219.312 L47.4 218.447 L49.0786 218.109 L50.0284 218.109 L50.0284 224.329 L51.58 224.329 L51.58 225.129 L47.5363 225.129 L47.5363 224.329 Z" fill="#000000" fill-rule="evenodd" fill-opacity="1" /><path clip-path="url(#clip240)" d="M 0 0 M53.4279 224.329 L56.7427 224.329 L56.7427 225.129 L52.2853 225.129 L52.2853 224.329 Q52.826 223.77 53.757 222.83 Q54.6927 221.884 54.9325 221.612 Q55.3886 221.099 55.5672 220.747 Q55.7506 220.389 55.7506 220.046 Q55.7506 219.486 55.3557 219.134 Q54.9654 218.781 54.3353 218.781 Q53.8886 218.781 53.3902 218.936 Q52.8965 219.091 52.3323 219.407 L52.3323 218.447 Q52.9059 218.217 53.4043 218.099 Q53.9028 217.982 54.3165 217.982 Q55.4074 217.982 56.0562 218.527 Q56.7051 219.073 56.7051 219.985 Q56.7051 220.417 56.5405 220.808 Q56.3807 221.193 55.9528 221.72 Q55.8353 221.856 55.2052 222.51 Q54.5751 223.159 53.4279 224.329 Z" fill="#000000" fill-rule="evenodd" fill-opacity="1" /><path clip-path="url(#clip240)" d="M 0 0 M28.2594 183.593 L30.1692 183.593 L30.1692 177.002 L28.0916 177.418 L28.0916 176.353 L30.1576 175.937 L31.3266 175.937 L31.3266 183.593 L33.2363 183.593 L33.2363 184.577 L28.2594 184.577 L28.2594 183.593 Z" fill="#000000" fill-rule="evenodd" fill-opacity="1" /><path clip-path="url(#clip240)" d="M 0 0 M37.0036 176.707 Q36.1008 176.707 35.6437 177.598 Q35.1923 178.483 35.1923 180.266 Q35.1923 182.042 35.6437 182.933 Q36.1008 183.819 37.0036 183.819 Q37.9122 183.819 38.3636 182.933 Q38.8207 182.042 38.8207 180.266 Q38.8207 178.483 38.3636 177.598 Q37.9122 176.707 37.0036 176.707 M37.0036 175.781 Q38.4561 175.781 39.22 176.932 Q39.9897 178.078 39.9897 180.266 Q39.9897 182.447 39.22 183.599 Q38.4561 184.745 37.0036 184.745 Q35.5511 184.745 34.7814 183.599 Q34.0175 182.447 34.0175 180.266 Q34.0175 178.078 34.7814 176.932 Q35.5511 175.781 37.0036 175.781 Z" fill="#000000" fill-rule="evenodd" fill-opacity="1" /><path clip-path="url(#clip240)" d="M 0 0 M39.9897 174.306 L46.0176 174.306 L46.0176 175.105 L39.9897 175.105 L39.9897 174.306 Z" fill="#000000" fill-rule="evenodd" fill-opacity="1" /><path clip-path="url(#clip240)" d="M 0 0 M47.2119 176.925 L48.7635 176.925 L48.7635 171.569 L47.0755 171.908 L47.0755 171.043 L48.7541 170.704 L49.7039 170.704 L49.7039 176.925 L51.2556 176.925 L51.2556 177.724 L47.2119 177.724 L47.2119 176.925 Z" fill="#000000" fill-rule="evenodd" fill-opacity="1" /><path clip-path="url(#clip240)" d="M 0 0 M54.3165 171.33 Q53.583 171.33 53.2116 172.054 Q52.8448 172.773 52.8448 174.221 Q52.8448 175.665 53.2116 176.389 Q53.583 177.108 54.3165 177.108 Q55.0547 177.108 55.4215 176.389 Q55.7929 175.665 55.7929 174.221 Q55.7929 172.773 55.4215 172.054 Q55.0547 171.33 54.3165 171.33 M54.3165 170.577 Q55.4967 170.577 56.1174 171.513 Q56.7427 172.444 56.7427 174.221 Q56.7427 175.994 56.1174 176.93 Q55.4967 177.861 54.3165 177.861 Q53.1363 177.861 52.511 176.93 Q51.8903 175.994 51.8903 174.221 Q51.8903 172.444 52.511 171.513 Q53.1363 170.577 54.3165 170.577 Z" fill="#000000" fill-rule="evenodd" fill-opacity="1" /><path clip-path="url(#clip240)" d="M 0 0 M33.5162 136.189 L35.4259 136.189 L35.4259 129.597 L33.3484 130.014 L33.3484 128.949 L35.4144 128.532 L36.5833 128.532 L36.5833 136.189 L38.493 136.189 L38.493 137.172 L33.5162 137.172 L33.5162 136.189 Z" fill="#000000" fill-rule="evenodd" fill-opacity="1" /><path clip-path="url(#clip240)" d="M 0 0 M42.2604 129.302 Q41.3576 129.302 40.9004 130.193 Q40.449 131.079 40.449 132.861 Q40.449 134.638 40.9004 135.529 Q41.3576 136.414 42.2604 136.414 Q43.1689 136.414 43.6203 135.529 Q44.0775 134.638 44.0775 132.861 Q44.0775 131.079 43.6203 130.193 Q43.1689 129.302 42.2604 129.302 M42.2604 128.376 Q43.7129 128.376 44.4768 129.528 Q45.2465 130.673 45.2465 132.861 Q45.2465 135.043 44.4768 136.194 Q43.7129 137.34 42.2604 137.34 Q40.8078 137.34 40.0382 136.194 Q39.2743 135.043 39.2743 132.861 Q39.2743 130.673 40.0382 129.528 Q40.8078 128.376 42.2604 128.376 Z" fill="#000000" fill-rule="evenodd" fill-opacity="1" /><path clip-path="url(#clip240)" d="M 0 0 M45.2465 126.901 L51.2744 126.901 L51.2744 127.701 L45.2465 127.701 L45.2465 126.901 Z" fill="#000000" fill-rule="evenodd" fill-opacity="1" /><path clip-path="url(#clip240)" d="M 0 0 M54.3353 126.986 Q53.6583 126.986 53.268 127.348 Q52.8824 127.71 52.8824 128.345 Q52.8824 128.98 53.268 129.342 Q53.6583 129.704 54.3353 129.704 Q55.0124 129.704 55.4027 129.342 Q55.7929 128.975 55.7929 128.345 Q55.7929 127.71 55.4027 127.348 Q55.0171 126.986 54.3353 126.986 M53.3855 126.582 Q52.7743 126.431 52.431 126.013 Q52.0925 125.594 52.0925 124.992 Q52.0925 124.151 52.6897 123.662 Q53.2915 123.173 54.3353 123.173 Q55.3839 123.173 55.981 123.662 Q56.5782 124.151 56.5782 124.992 Q56.5782 125.594 56.2349 126.013 Q55.8964 126.431 55.2898 126.582 Q55.9763 126.742 56.3572 127.207 Q56.7427 127.672 56.7427 128.345 Q56.7427 129.365 56.1174 129.911 Q55.4967 130.456 54.3353 130.456 Q53.174 130.456 52.5486 129.911 Q51.9279 129.365 51.9279 128.345 Q51.9279 127.672 52.3135 127.207 Q52.6991 126.742 53.3855 126.582 M53.0376 125.082 Q53.0376 125.627 53.3761 125.933 Q53.7194 126.238 54.3353 126.238 Q54.9466 126.238 55.2898 125.933 Q55.6378 125.627 55.6378 125.082 Q55.6378 124.536 55.2898 124.231 Q54.9466 123.925 54.3353 123.925 Q53.7194 123.925 53.3761 124.231 Q53.0376 124.536 53.0376 125.082 Z" fill="#000000" fill-rule="evenodd" fill-opacity="1" /><path clip-path="url(#clip240)" d="M 0 0 M33.4645 88.784 L35.3742 88.784 L35.3742 82.1926 L33.2967 82.6092 L33.2967 81.5444 L35.3626 81.1277 L36.5316 81.1277 L36.5316 88.784 L38.4413 88.784 L38.4413 89.7677 L33.4645 89.7677 L33.4645 88.784 Z" fill="#000000" fill-rule="evenodd" fill-opacity="1" /><path clip-path="url(#clip240)" d="M 0 0 M42.2087 81.8974 Q41.3059 81.8974 40.8487 82.7886 Q40.3973 83.674 40.3973 85.4564 Q40.3973 87.233 40.8487 88.1242 Q41.3059 89.0097 42.2087 89.0097 Q43.1172 89.0097 43.5686 88.1242 Q44.0258 87.233 44.0258 85.4564 Q44.0258 83.674 43.5686 82.7886 Q43.1172 81.8974 42.2087 81.8974 M42.2087 80.9715 Q43.6612 80.9715 44.4251 82.1231 Q45.1948 83.2689 45.1948 85.4564 Q45.1948 87.6381 44.4251 88.7897 Q43.6612 89.9356 42.2087 89.9356 Q40.7561 89.9356 39.9864 88.7897 Q39.2226 87.6381 39.2226 85.4564 Q39.2226 83.2689 39.9864 82.1231 Q40.7561 80.9715 42.2087 80.9715 Z" fill="#000000" fill-rule="evenodd" fill-opacity="1" /><path clip-path="url(#clip240)" d="M 0 0 M45.1948 79.4968 L51.2226 79.4968 L51.2226 80.2962 L45.1948 80.2962 L45.1948 79.4968 Z" fill="#000000" fill-rule="evenodd" fill-opacity="1" /><path clip-path="url(#clip240)" d="M 0 0 M54.4012 79.0266 Q53.7617 79.0266 53.3855 79.4639 Q53.0141 79.9012 53.0141 80.6629 Q53.0141 81.4199 53.3855 81.8619 Q53.7617 82.2992 54.4012 82.2992 Q55.0406 82.2992 55.4121 81.8619 Q55.7882 81.4199 55.7882 80.6629 Q55.7882 79.9012 55.4121 79.4639 Q55.0406 79.0266 54.4012 79.0266 M56.2866 76.0503 L56.2866 76.9155 Q55.9293 76.7462 55.5625 76.6569 Q55.2005 76.5675 54.8431 76.5675 Q53.9028 76.5675 53.4043 77.2023 Q52.9106 77.8371 52.8401 79.1207 Q53.1175 78.7116 53.536 78.4953 Q53.9545 78.2743 54.4576 78.2743 Q55.5155 78.2743 56.1268 78.9185 Q56.7427 79.558 56.7427 80.6629 Q56.7427 81.7444 56.1033 82.3979 Q55.4638 83.0515 54.4012 83.0515 Q53.1834 83.0515 52.5392 82.1205 Q51.895 81.1848 51.895 79.4122 Q51.895 77.7477 52.6849 76.7603 Q53.4749 75.7682 54.8055 75.7682 Q55.1629 75.7682 55.5249 75.8387 Q55.8917 75.9093 56.2866 76.0503 Z" fill="#000000" fill-rule="evenodd" fill-opacity="1" /><path clip-path="url(#clip240)" d="M 0 0 M33.3987 41.3794 L35.3084 41.3794 L35.3084 34.788 L33.2308 35.2047 L33.2308 34.1399 L35.2968 33.7232 L36.4658 33.7232 L36.4658 41.3794 L38.3755 41.3794 L38.3755 42.3632 L33.3987 42.3632 L33.3987 41.3794 Z" fill="#000000" fill-rule="evenodd" fill-opacity="1" /><path clip-path="url(#clip240)" d="M 0 0 M42.1428 34.4929 Q41.2401 34.4929 40.7829 35.3841 Q40.3315 36.2695 40.3315 38.0519 Q40.3315 39.8285 40.7829 40.7197 Q41.2401 41.6051 42.1428 41.6051 Q43.0514 41.6051 43.5028 40.7197 Q43.96 39.8285 43.96 38.0519 Q43.96 36.2695 43.5028 35.3841 Q43.0514 34.4929 42.1428 34.4929 M42.1428 33.567 Q43.5954 33.567 44.3593 34.7186 Q45.1289 35.8644 45.1289 38.0519 Q45.1289 40.2336 44.3593 41.3852 Q43.5954 42.531 42.1428 42.531 Q40.6903 42.531 39.9206 41.3852 Q39.1567 40.2336 39.1567 38.0519 Q39.1567 35.8644 39.9206 34.7186 Q40.6903 33.567 42.1428 33.567 Z" fill="#000000" fill-rule="evenodd" fill-opacity="1" /><path clip-path="url(#clip240)" d="M 0 0 M45.1289 32.0923 L51.1568 32.0923 L51.1568 32.8916 L45.1289 32.8916 L45.1289 32.0923 Z" fill="#000000" fill-rule="evenodd" fill-opacity="1" /><path clip-path="url(#clip240)" d="M 0 0 M54.7961 29.3181 L52.3981 33.0656 L54.7961 33.0656 L54.7961 29.3181 M54.5469 28.4906 L55.7412 28.4906 L55.7412 33.0656 L56.7427 33.0656 L56.7427 33.8555 L55.7412 33.8555 L55.7412 35.5106 L54.7961 35.5106 L54.7961 33.8555 L51.627 33.8555 L51.627 32.9386 L54.5469 28.4906 Z" fill="#000000" fill-rule="evenodd" fill-opacity="1" /><g clip-path="url(#clip240)">
<text style="fill:#000000; fill-opacity:1; font-family:Arial,Helvetica Neue,Helvetica,sans-serif; font-size:16px; text-anchor:middle;" transform="rotate(-90, 18.0011, 141.533)" x="18.0011" y="141.533">error</text>
</g>
<g clip-path="url(#clip240)">
<text style="fill:#000000; fill-opacity:1; font-family:Arial,Helvetica Neue,Helvetica,sans-serif; font-size:18px; font-weight:bold; text-anchor:middle;" transform="rotate(0, 266.066, 15.6)" x="266.066" y="15.6">Comparison of integration methods</text>
</g>
<polyline clip-path="url(#clip242)" style="stroke:#009af9; stroke-width:2; stroke-opacity:1; fill:none" points="
  207.83,33.9896 217.09,48.4174 227.168,57.0398 239.209,66.9774 249.478,75.6909 261.941,88.6165 276.335,98.7812 289.045,107.818 303.672,119.859 317.332,129.015 
  332.181,138.589 347.511,149.573 363.097,159.324 377.822,168.492 393.37,178.662 409.485,188.484 424.72,197.717 440.584,207.542 456.748,217.265 
  "/>
<path clip-path="url(#clip242)" d="M207.83 37.9896 L205.002 36.8176 L203.83 33.9896 L205.002 31.1616 L207.83 29.9896 L210.658 31.1616 L211.83 33.9896 L210.658 36.8176 Z" fill="#009af9" fill-rule="evenodd" fill-opacity="1" stroke="#000000" stroke-opacity="1" stroke-width="0.6"/>
<path clip-path="url(#clip242)" d="M217.09 52.4174 L214.262 51.2454 L213.09 48.4174 L214.262 45.5894 L217.09 44.4174 L219.918 45.5894 L221.09 48.4174 L219.918 51.2454 Z" fill="#009af9" fill-rule="evenodd" fill-opacity="1" stroke="#000000" stroke-opacity="1" stroke-width="0.6"/>
<path clip-path="url(#clip242)" d="M227.168 61.0398 L224.34 59.8678 L223.168 57.0398 L224.34 54.2118 L227.168 53.0398 L229.996 54.2118 L231.168 57.0398 L229.996 59.8678 Z" fill="#009af9" fill-rule="evenodd" fill-opacity="1" stroke="#000000" stroke-opacity="1" stroke-width="0.6"/>
<path clip-path="url(#clip242)" d="M239.209 70.9774 L236.381 69.8054 L235.209 66.9774 L236.381 64.1494 L239.209 62.9774 L242.037 64.1494 L243.209 66.9774 L242.037 69.8054 Z" fill="#009af9" fill-rule="evenodd" fill-opacity="1" stroke="#000000" stroke-opacity="1" stroke-width="0.6"/>
<path clip-path="url(#clip242)" d="M249.478 79.6909 L246.65 78.5189 L245.478 75.6909 L246.65 72.8629 L249.478 71.6909 L252.306 72.8629 L253.478 75.6909 L252.306 78.5189 Z" fill="#009af9" fill-rule="evenodd" fill-opacity="1" stroke="#000000" stroke-opacity="1" stroke-width="0.6"/>
<path clip-path="url(#clip242)" d="M261.941 92.6165 L259.113 91.4445 L257.941 88.6165 L259.113 85.7885 L261.941 84.6165 L264.769 85.7885 L265.941 88.6165 L264.769 91.4445 Z" fill="#009af9" fill-rule="evenodd" fill-opacity="1" stroke="#000000" stroke-opacity="1" stroke-width="0.6"/>
<path clip-path="url(#clip242)" d="M276.335 102.781 L273.507 101.609 L272.335 98.7812 L273.507 95.9532 L276.335 94.7812 L279.163 95.9532 L280.335 98.7812 L279.163 101.609 Z" fill="#009af9" fill-rule="evenodd" fill-opacity="1" stroke="#000000" stroke-opacity="1" stroke-width="0.6"/>
<path clip-path="url(#clip242)" d="M289.045 111.818 L286.217 110.646 L285.045 107.818 L286.217 104.99 L289.045 103.818 L291.873 104.99 L293.045 107.818 L291.873 110.646 Z" fill="#009af9" fill-rule="evenodd" fill-opacity="1" stroke="#000000" stroke-opacity="1" stroke-width="0.6"/>
<path clip-path="url(#clip242)" d="M303.672 123.859 L300.844 122.687 L299.672 119.859 L300.844 117.031 L303.672 115.859 L306.5 117.031 L307.672 119.859 L306.5 122.687 Z" fill="#009af9" fill-rule="evenodd" fill-opacity="1" stroke="#000000" stroke-opacity="1" stroke-width="0.6"/>
<path clip-path="url(#clip242)" d="M317.332 133.015 L314.504 131.843 L313.332 129.015 L314.504 126.187 L317.332 125.015 L320.16 126.187 L321.332 129.015 L320.16 131.843 Z" fill="#009af9" fill-rule="evenodd" fill-opacity="1" stroke="#000000" stroke-opacity="1" stroke-width="0.6"/>
<path clip-path="url(#clip242)" d="M332.181 142.589 L329.353 141.417 L328.181 138.589 L329.353 135.761 L332.181 134.589 L335.009 135.761 L336.181 138.589 L335.009 141.417 Z" fill="#009af9" fill-rule="evenodd" fill-opacity="1" stroke="#000000" stroke-opacity="1" stroke-width="0.6"/>
<path clip-path="url(#clip242)" d="M347.511 153.573 L344.683 152.401 L343.511 149.573 L344.683 146.745 L347.511 145.573 L350.339 146.745 L351.511 149.573 L350.339 152.401 Z" fill="#009af9" fill-rule="evenodd" fill-opacity="1" stroke="#000000" stroke-opacity="1" stroke-width="0.6"/>
<path clip-path="url(#clip242)" d="M363.097 163.324 L360.269 162.152 L359.097 159.324 L360.269 156.496 L363.097 155.324 L365.925 156.496 L367.097 159.324 L365.925 162.152 Z" fill="#009af9" fill-rule="evenodd" fill-opacity="1" stroke="#000000" stroke-opacity="1" stroke-width="0.6"/>
<path clip-path="url(#clip242)" d="M377.822 172.492 L374.994 171.32 L373.822 168.492 L374.994 165.664 L377.822 164.492 L380.65 165.664 L381.822 168.492 L380.65 171.32 Z" fill="#009af9" fill-rule="evenodd" fill-opacity="1" stroke="#000000" stroke-opacity="1" stroke-width="0.6"/>
<path clip-path="url(#clip242)" d="M393.37 182.662 L390.542 181.49 L389.37 178.662 L390.542 175.834 L393.37 174.662 L396.198 175.834 L397.37 178.662 L396.198 181.49 Z" fill="#009af9" fill-rule="evenodd" fill-opacity="1" stroke="#000000" stroke-opacity="1" stroke-width="0.6"/>
<path clip-path="url(#clip242)" d="M409.485 192.484 L406.657 191.312 L405.485 188.484 L406.657 185.656 L409.485 184.484 L412.313 185.656 L413.485 188.484 L412.313 191.312 Z" fill="#009af9" fill-rule="evenodd" fill-opacity="1" stroke="#000000" stroke-opacity="1" stroke-width="0.6"/>
<path clip-path="url(#clip242)" d="M424.72 201.717 L421.892 200.545 L420.72 197.717 L421.892 194.889 L424.72 193.717 L427.548 194.889 L428.72 197.717 L427.548 200.545 Z" fill="#009af9" fill-rule="evenodd" fill-opacity="1" stroke="#000000" stroke-opacity="1" stroke-width="0.6"/>
<path clip-path="url(#clip242)" d="M440.584 211.542 L437.756 210.37 L436.584 207.542 L437.756 204.714 L440.584 203.542 L443.412 204.714 L444.584 207.542 L443.412 210.37 Z" fill="#009af9" fill-rule="evenodd" fill-opacity="1" stroke="#000000" stroke-opacity="1" stroke-width="0.6"/>
<path clip-path="url(#clip242)" d="M456.748 221.265 L453.92 220.093 L452.748 217.265 L453.92 214.437 L456.748 213.265 L459.576 214.437 L460.748 217.265 L459.576 220.093 Z" fill="#009af9" fill-rule="evenodd" fill-opacity="1" stroke="#000000" stroke-opacity="1" stroke-width="0.6"/>
<polyline clip-path="url(#clip242)" style="stroke:#e26f46; stroke-width:2; stroke-opacity:1; fill:none" points="
  75.3837,111.909 75.3837,111.909 112.728,83.1371 154.892,97.5016 159.979,110.255 164.721,148.21 184.55,134.042 207.83,148.46 217.09,157.636 239.209,176.627 
  249.478,176.416 263.074,190.464 287.478,184.38 295.692,199.986 310.835,223.135 335.448,216.317 343.717,234.107 358.374,249.077 384.064,247.059 
  "/>
<path clip-path="url(#clip242)" d="M75.3837 115.909 L72.5557 114.737 L71.3837 111.909 L72.5557 109.081 L75.3837 107.909 L78.2117 109.081 L79.3837 111.909 L78.2117 114.737 Z" fill="#e26f46" fill-rule="evenodd" fill-opacity="1" stroke="#000000" stroke-opacity="1" stroke-width="0.6"/>
<path clip-path="url(#clip242)" d="M75.3837 115.909 L72.5557 114.737 L71.3837 111.909 L72.5557 109.081 L75.3837 107.909 L78.2117 109.081 L79.3837 111.909 L78.2117 114.737 Z" fill="#e26f46" fill-rule="evenodd" fill-opacity="1" stroke="#000000" stroke-opacity="1" stroke-width="0.6"/>
<path clip-path="url(#clip242)" d="M112.728 87.1371 L109.9 85.9651 L108.728 83.1371 L109.9 80.3091 L112.728 79.1371 L115.556 80.3091 L116.728 83.1371 L115.556 85.9651 Z" fill="#e26f46" fill-rule="evenodd" fill-opacity="1" stroke="#000000" stroke-opacity="1" stroke-width="0.6"/>
<path clip-path="url(#clip242)" d="M154.892 101.502 L152.064 100.33 L150.892 97.5016 L152.064 94.6736 L154.892 93.5016 L157.72 94.6736 L158.892 97.5016 L157.72 100.33 Z" fill="#e26f46" fill-rule="evenodd" fill-opacity="1" stroke="#000000" stroke-opacity="1" stroke-width="0.6"/>
<path clip-path="url(#clip242)" d="M159.979 114.255 L157.151 113.083 L155.979 110.255 L157.151 107.427 L159.979 106.255 L162.807 107.427 L163.979 110.255 L162.807 113.083 Z" fill="#e26f46" fill-rule="evenodd" fill-opacity="1" stroke="#000000" stroke-opacity="1" stroke-width="0.6"/>
<path clip-path="url(#clip242)" d="M164.721 152.21 L161.893 151.038 L160.721 148.21 L161.893 145.382 L164.721 144.21 L167.549 145.382 L168.721 148.21 L167.549 151.038 Z" fill="#e26f46" fill-rule="evenodd" fill-opacity="1" stroke="#000000" stroke-opacity="1" stroke-width="0.6"/>
<path clip-path="url(#clip242)" d="M184.55 138.042 L181.722 136.87 L180.55 134.042 L181.722 131.214 L184.55 130.042 L187.378 131.214 L188.55 134.042 L187.378 136.87 Z" fill="#e26f46" fill-rule="evenodd" fill-opacity="1" stroke="#000000" stroke-opacity="1" stroke-width="0.6"/>
<path clip-path="url(#clip242)" d="M207.83 152.46 L205.002 151.288 L203.83 148.46 L205.002 145.632 L207.83 144.46 L210.658 145.632 L211.83 148.46 L210.658 151.288 Z" fill="#e26f46" fill-rule="evenodd" fill-opacity="1" stroke="#000000" stroke-opacity="1" stroke-width="0.6"/>
<path clip-path="url(#clip242)" d="M217.09 161.636 L214.262 160.464 L213.09 157.636 L214.262 154.808 L217.09 153.636 L219.918 154.808 L221.09 157.636 L219.918 160.464 Z" fill="#e26f46" fill-rule="evenodd" fill-opacity="1" stroke="#000000" stroke-opacity="1" stroke-width="0.6"/>
<path clip-path="url(#clip242)" d="M239.209 180.627 L236.381 179.455 L235.209 176.627 L236.381 173.799 L239.209 172.627 L242.037 173.799 L243.209 176.627 L242.037 179.455 Z" fill="#e26f46" fill-rule="evenodd" fill-opacity="1" stroke="#000000" stroke-opacity="1" stroke-width="0.6"/>
<path clip-path="url(#clip242)" d="M249.478 180.416 L246.65 179.244 L245.478 176.416 L246.65 173.588 L249.478 172.416 L252.306 173.588 L253.478 176.416 L252.306 179.244 Z" fill="#e26f46" fill-rule="evenodd" fill-opacity="1" stroke="#000000" stroke-opacity="1" stroke-width="0.6"/>
<path clip-path="url(#clip242)" d="M263.074 194.464 L260.246 193.292 L259.074 190.464 L260.246 187.636 L263.074 186.464 L265.902 187.636 L267.074 190.464 L265.902 193.292 Z" fill="#e26f46" fill-rule="evenodd" fill-opacity="1" stroke="#000000" stroke-opacity="1" stroke-width="0.6"/>
<path clip-path="url(#clip242)" d="M287.478 188.38 L284.65 187.208 L283.478 184.38 L284.65 181.552 L287.478 180.38 L290.306 181.552 L291.478 184.38 L290.306 187.208 Z" fill="#e26f46" fill-rule="evenodd" fill-opacity="1" stroke="#000000" stroke-opacity="1" stroke-width="0.6"/>
<path clip-path="url(#clip242)" d="M295.692 203.986 L292.864 202.814 L291.692 199.986 L292.864 197.158 L295.692 195.986 L298.52 197.158 L299.692 199.986 L298.52 202.814 Z" fill="#e26f46" fill-rule="evenodd" fill-opacity="1" stroke="#000000" stroke-opacity="1" stroke-width="0.6"/>
<path clip-path="url(#clip242)" d="M310.835 227.135 L308.007 225.963 L306.835 223.135 L308.007 220.307 L310.835 219.135 L313.663 220.307 L314.835 223.135 L313.663 225.963 Z" fill="#e26f46" fill-rule="evenodd" fill-opacity="1" stroke="#000000" stroke-opacity="1" stroke-width="0.6"/>
<path clip-path="url(#clip242)" d="M335.448 220.317 L332.62 219.145 L331.448 216.317 L332.62 213.489 L335.448 212.317 L338.276 213.489 L339.448 216.317 L338.276 219.145 Z" fill="#e26f46" fill-rule="evenodd" fill-opacity="1" stroke="#000000" stroke-opacity="1" stroke-width="0.6"/>
<path clip-path="url(#clip242)" d="M343.717 238.107 L340.889 236.935 L339.717 234.107 L340.889 231.279 L343.717 230.107 L346.545 231.279 L347.717 234.107 L346.545 236.935 Z" fill="#e26f46" fill-rule="evenodd" fill-opacity="1" stroke="#000000" stroke-opacity="1" stroke-width="0.6"/>
<path clip-path="url(#clip242)" d="M358.374 253.077 L355.546 251.905 L354.374 249.077 L355.546 246.249 L358.374 245.077 L361.202 246.249 L362.374 249.077 L361.202 251.905 Z" fill="#e26f46" fill-rule="evenodd" fill-opacity="1" stroke="#000000" stroke-opacity="1" stroke-width="0.6"/>
<path clip-path="url(#clip242)" d="M384.064 251.059 L381.236 249.887 L380.064 247.059 L381.236 244.231 L384.064 243.059 L386.892 244.231 L388.064 247.059 L386.892 249.887 Z" fill="#e26f46" fill-rule="evenodd" fill-opacity="1" stroke="#000000" stroke-opacity="1" stroke-width="0.6"/>
<polyline clip-path="url(#clip242)" style="stroke:#3da44d; stroke-width:2; stroke-opacity:1; fill:none" stroke-dasharray="8, 5" points="
  115.099,46.6556 437.106,236.274 
  "/>
<path clip-path="url(#clip240)" d="
M77.4176 247.93 L221.789 247.93 L221.789 187.45 L77.4176 187.45  Z
  " fill="#ffffff" fill-rule="evenodd" fill-opacity="1"/>
<polyline clip-path="url(#clip240)" style="stroke:#000000; stroke-width:1; stroke-opacity:1; fill:none" points="
  77.4176,247.93 221.789,247.93 221.789,187.45 77.4176,187.45 77.4176,247.93 
  "/>
<polyline clip-path="url(#clip240)" style="stroke:#009af9; stroke-width:1; stroke-opacity:1; fill:none" points="
  81.9092,202.57 108.859,202.57 
  "/>
<path clip-path="url(#clip240)" d="M95.3841 208.97 L90.8593 207.095 L88.9841 202.57 L90.8593 198.045 L95.3841 196.17 L99.9089 198.045 L101.784 202.57 L99.9089 207.095 Z" fill="#009af9" fill-rule="evenodd" fill-opacity="1" stroke="#000000" stroke-opacity="1" stroke-width="0.96"/>
<path clip-path="url(#clip240)" d="M 0 0 M118.079 201.392 L118.079 197.885 L119.143 197.885 L119.143 206.89 L118.079 206.89 L118.079 205.918 Q117.743 206.496 117.228 206.78 Q116.719 207.058 116.001 207.058 Q114.826 207.058 114.086 206.12 Q113.351 205.183 113.351 203.655 Q113.351 202.127 114.086 201.19 Q114.826 200.252 116.001 200.252 Q116.719 200.252 117.228 200.536 Q117.743 200.813 118.079 201.392 M114.45 203.655 Q114.45 204.83 114.93 205.501 Q115.417 206.166 116.261 206.166 Q117.106 206.166 117.592 205.501 Q118.079 204.83 118.079 203.655 Q118.079 202.48 117.592 201.815 Q117.106 201.143 116.261 201.143 Q115.417 201.143 114.93 201.815 Q114.45 202.48 114.45 203.655 Z" fill="#000000" fill-rule="evenodd" fill-opacity="1" /><path clip-path="url(#clip240)" d="M 0 0 M120.26 200.408 L121.325 200.408 L121.325 206.89 L120.26 206.89 L120.26 200.408 M120.26 197.885 L121.325 197.885 L121.325 199.234 L120.26 199.234 L120.26 197.885 Z" fill="#000000" fill-rule="evenodd" fill-opacity="1" /><path clip-path="url(#clip240)" d="M 0 0 M126.198 201.404 Q126.018 201.3 125.804 201.253 Q125.596 201.201 125.341 201.201 Q124.439 201.201 123.952 201.791 Q123.472 202.376 123.472 203.475 L123.472 206.89 L122.401 206.89 L122.401 200.408 L123.472 200.408 L123.472 201.415 Q123.808 200.825 124.346 200.541 Q124.884 200.252 125.654 200.252 Q125.764 200.252 125.897 200.269 Q126.03 200.281 126.192 200.31 L126.198 201.404 Z" fill="#000000" fill-rule="evenodd" fill-opacity="1" /><path clip-path="url(#clip240)" d="M 0 0 M132.598 203.383 L132.598 203.904 L127.702 203.904 Q127.772 205.003 128.362 205.582 Q128.958 206.155 130.017 206.155 Q130.631 206.155 131.204 206.004 Q131.782 205.854 132.349 205.553 L132.349 206.56 Q131.776 206.803 131.175 206.93 Q130.573 207.058 129.954 207.058 Q128.403 207.058 127.494 206.155 Q126.591 205.252 126.591 203.713 Q126.591 202.121 127.448 201.19 Q128.31 200.252 129.768 200.252 Q131.076 200.252 131.834 201.097 Q132.598 201.936 132.598 203.383 M131.533 203.07 Q131.522 202.196 131.041 201.676 Q130.567 201.155 129.78 201.155 Q128.889 201.155 128.351 201.658 Q127.818 202.162 127.737 203.076 L131.533 203.07 Z" fill="#000000" fill-rule="evenodd" fill-opacity="1" /><path clip-path="url(#clip240)" d="M 0 0 M138.379 200.657 L138.379 201.653 Q137.928 201.404 137.471 201.282 Q137.019 201.155 136.556 201.155 Q135.521 201.155 134.948 201.815 Q134.375 202.468 134.375 203.655 Q134.375 204.841 134.948 205.501 Q135.521 206.155 136.556 206.155 Q137.019 206.155 137.471 206.033 Q137.928 205.906 138.379 205.657 L138.379 206.641 Q137.934 206.849 137.453 206.953 Q136.979 207.058 136.441 207.058 Q134.977 207.058 134.114 206.137 Q133.252 205.217 133.252 203.655 Q133.252 202.069 134.12 201.161 Q134.994 200.252 136.51 200.252 Q137.002 200.252 137.471 200.356 Q137.94 200.455 138.379 200.657 Z" fill="#000000" fill-rule="evenodd" fill-opacity="1" /><path clip-path="url(#clip240)" d="M 0 0 M140.55 198.568 L140.55 200.408 L142.743 200.408 L142.743 201.236 L140.55 201.236 L140.55 204.754 Q140.55 205.547 140.764 205.773 Q140.984 205.999 141.649 205.999 L142.743 205.999 L142.743 206.89 L141.649 206.89 Q140.416 206.89 139.948 206.433 Q139.479 205.97 139.479 204.754 L139.479 201.236 L138.698 201.236 L138.698 200.408 L139.479 200.408 L139.479 198.568 L140.55 198.568 Z" fill="#000000" fill-rule="evenodd" fill-opacity="1" /><polyline clip-path="url(#clip240)" style="stroke:#e26f46; stroke-width:1; stroke-opacity:1; fill:none" points="
  81.9092,217.69 108.859,217.69 
  "/>
<path clip-path="url(#clip240)" d="M95.3841 224.09 L90.8593 222.215 L88.9841 217.69 L90.8593 213.165 L95.3841 211.29 L99.9089 213.165 L101.784 217.69 L99.9089 222.215 Z" fill="#e26f46" fill-rule="evenodd" fill-opacity="1" stroke="#000000" stroke-opacity="1" stroke-width="0.96"/>
<path clip-path="url(#clip240)" d="M 0 0 M118.079 216.512 L118.079 213.005 L119.143 213.005 L119.143 222.01 L118.079 222.01 L118.079 221.038 Q117.743 221.616 117.228 221.9 Q116.719 222.178 116.001 222.178 Q114.826 222.178 114.086 221.24 Q113.351 220.303 113.351 218.775 Q113.351 217.247 114.086 216.31 Q114.826 215.372 116.001 215.372 Q116.719 215.372 117.228 215.656 Q117.743 215.933 118.079 216.512 M114.45 218.775 Q114.45 219.95 114.93 220.621 Q115.417 221.286 116.261 221.286 Q117.106 221.286 117.592 220.621 Q118.079 219.95 118.079 218.775 Q118.079 217.6 117.592 216.935 Q117.106 216.263 116.261 216.263 Q115.417 216.263 114.93 216.935 Q114.45 217.6 114.45 218.775 Z" fill="#000000" fill-rule="evenodd" fill-opacity="1" /><path clip-path="url(#clip240)" d="M 0 0 M122.772 216.275 Q121.915 216.275 121.418 216.946 Q120.92 217.612 120.92 218.775 Q120.92 219.938 121.412 220.609 Q121.91 221.275 122.772 221.275 Q123.623 221.275 124.12 220.604 Q124.618 219.932 124.618 218.775 Q124.618 217.623 124.12 216.952 Q123.623 216.275 122.772 216.275 M122.772 215.372 Q124.161 215.372 124.954 216.275 Q125.746 217.178 125.746 218.775 Q125.746 220.366 124.954 221.275 Q124.161 222.178 122.772 222.178 Q121.377 222.178 120.584 221.275 Q119.797 220.366 119.797 218.775 Q119.797 217.178 120.584 216.275 Q121.377 215.372 122.772 215.372 Z" fill="#000000" fill-rule="evenodd" fill-opacity="1" /><path clip-path="url(#clip240)" d="M 0 0 M126.753 219.452 L126.753 215.528 L127.818 215.528 L127.818 219.411 Q127.818 220.332 128.177 220.794 Q128.536 221.252 129.253 221.252 Q130.116 221.252 130.613 220.702 Q131.117 220.152 131.117 219.203 L131.117 215.528 L132.182 215.528 L132.182 222.01 L131.117 222.01 L131.117 221.014 Q130.729 221.605 130.214 221.894 Q129.705 222.178 129.028 222.178 Q127.911 222.178 127.332 221.483 Q126.753 220.789 126.753 219.452 M129.433 215.372 L129.433 215.372 Z" fill="#000000" fill-rule="evenodd" fill-opacity="1" /><path clip-path="url(#clip240)" d="M 0 0 M137.951 218.775 Q137.951 217.6 137.465 216.935 Q136.985 216.263 136.14 216.263 Q135.295 216.263 134.809 216.935 Q134.328 217.6 134.328 218.775 Q134.328 219.95 134.809 220.621 Q135.295 221.286 136.14 221.286 Q136.985 221.286 137.465 220.621 Q137.951 219.95 137.951 218.775 M134.328 216.512 Q134.664 215.933 135.173 215.656 Q135.688 215.372 136.4 215.372 Q137.581 215.372 138.316 216.31 Q139.056 217.247 139.056 218.775 Q139.056 220.303 138.316 221.24 Q137.581 222.178 136.4 222.178 Q135.688 222.178 135.173 221.9 Q134.664 221.616 134.328 221.038 L134.328 222.01 L133.258 222.01 L133.258 213.005 L134.328 213.005 L134.328 216.512 Z" fill="#000000" fill-rule="evenodd" fill-opacity="1" /><path clip-path="url(#clip240)" d="M 0 0 M140.173 213.005 L141.238 213.005 L141.238 222.01 L140.173 222.01 L140.173 213.005 Z" fill="#000000" fill-rule="evenodd" fill-opacity="1" /><path clip-path="url(#clip240)" d="M 0 0 M147.899 218.503 L147.899 219.024 L143.003 219.024 Q143.073 220.123 143.663 220.702 Q144.259 221.275 145.318 221.275 Q145.931 221.275 146.504 221.124 Q147.083 220.974 147.65 220.673 L147.65 221.68 Q147.077 221.923 146.475 222.05 Q145.874 222.178 145.254 222.178 Q143.703 222.178 142.795 221.275 Q141.892 220.372 141.892 218.833 Q141.892 217.241 142.749 216.31 Q143.611 215.372 145.069 215.372 Q146.377 215.372 147.135 216.217 Q147.899 217.056 147.899 218.503 M146.834 218.19 Q146.823 217.316 146.342 216.796 Q145.868 216.275 145.081 216.275 Q144.19 216.275 143.651 216.778 Q143.119 217.282 143.038 218.196 L146.834 218.19 Z" fill="#000000" fill-rule="evenodd" fill-opacity="1" /><path clip-path="url(#clip240)" d="M 0 0 M158.327 218.503 L158.327 219.024 L153.431 219.024 Q153.501 220.123 154.091 220.702 Q154.687 221.275 155.746 221.275 Q156.36 221.275 156.933 221.124 Q157.511 220.974 158.078 220.673 L158.078 221.68 Q157.505 221.923 156.904 222.05 Q156.302 222.178 155.683 222.178 Q154.132 222.178 153.223 221.275 Q152.32 220.372 152.32 218.833 Q152.32 217.241 153.177 216.31 Q154.039 215.372 155.497 215.372 Q156.805 215.372 157.563 216.217 Q158.327 217.056 158.327 218.503 M157.262 218.19 Q157.251 217.316 156.771 216.796 Q156.296 216.275 155.509 216.275 Q154.618 216.275 154.08 216.778 Q153.547 217.282 153.466 218.196 L157.262 218.19 Z" fill="#000000" fill-rule="evenodd" fill-opacity="1" /><path clip-path="url(#clip240)" d="M 0 0 M164.623 215.528 L162.28 218.682 L164.745 222.01 L163.489 222.01 L161.603 219.463 L159.716 222.01 L158.46 222.01 L160.978 218.619 L158.674 215.528 L159.93 215.528 L161.649 217.837 L163.368 215.528 L164.623 215.528 Z" fill="#000000" fill-rule="evenodd" fill-opacity="1" /><path clip-path="url(#clip240)" d="M 0 0 M166.892 221.038 L166.892 224.475 L165.821 224.475 L165.821 215.528 L166.892 215.528 L166.892 216.512 Q167.228 215.933 167.737 215.656 Q168.252 215.372 168.964 215.372 Q170.144 215.372 170.879 216.31 Q171.62 217.247 171.62 218.775 Q171.62 220.303 170.879 221.24 Q170.144 222.178 168.964 222.178 Q168.252 222.178 167.737 221.9 Q167.228 221.616 166.892 221.038 M170.515 218.775 Q170.515 217.6 170.029 216.935 Q169.548 216.263 168.703 216.263 Q167.858 216.263 167.372 216.935 Q166.892 217.6 166.892 218.775 Q166.892 219.95 167.372 220.621 Q167.858 221.286 168.703 221.286 Q169.548 221.286 170.029 220.621 Q170.515 219.95 170.515 218.775 Z" fill="#000000" fill-rule="evenodd" fill-opacity="1" /><path clip-path="url(#clip240)" d="M 0 0 M175.248 216.275 Q174.392 216.275 173.894 216.946 Q173.397 217.612 173.397 218.775 Q173.397 219.938 173.888 220.609 Q174.386 221.275 175.248 221.275 Q176.099 221.275 176.597 220.604 Q177.094 219.932 177.094 218.775 Q177.094 217.623 176.597 216.952 Q176.099 216.275 175.248 216.275 M175.248 215.372 Q176.637 215.372 177.43 216.275 Q178.223 217.178 178.223 218.775 Q178.223 220.366 177.43 221.275 Q176.637 222.178 175.248 222.178 Q173.854 222.178 173.061 221.275 Q172.274 220.366 172.274 218.775 Q172.274 217.178 173.061 216.275 Q173.854 215.372 175.248 215.372 Z" fill="#000000" fill-rule="evenodd" fill-opacity="1" /><path clip-path="url(#clip240)" d="M 0 0 M184.728 218.098 L184.728 222.01 L183.663 222.01 L183.663 218.132 Q183.663 217.212 183.304 216.755 Q182.945 216.298 182.228 216.298 Q181.365 216.298 180.868 216.848 Q180.37 217.398 180.37 218.347 L180.37 222.01 L179.299 222.01 L179.299 215.528 L180.37 215.528 L180.37 216.535 Q180.752 215.951 181.267 215.661 Q181.788 215.372 182.465 215.372 Q183.582 215.372 184.155 216.067 Q184.728 216.755 184.728 218.098 Z" fill="#000000" fill-rule="evenodd" fill-opacity="1" /><path clip-path="url(#clip240)" d="M 0 0 M191.388 218.503 L191.388 219.024 L186.493 219.024 Q186.562 220.123 187.152 220.702 Q187.748 221.275 188.807 221.275 Q189.421 221.275 189.994 221.124 Q190.572 220.974 191.14 220.673 L191.14 221.68 Q190.567 221.923 189.965 222.05 Q189.363 222.178 188.744 222.178 Q187.193 222.178 186.284 221.275 Q185.381 220.372 185.381 218.833 Q185.381 217.241 186.238 216.31 Q187.1 215.372 188.559 215.372 Q189.866 215.372 190.624 216.217 Q191.388 217.056 191.388 218.503 M190.324 218.19 Q190.312 217.316 189.832 216.796 Q189.357 216.275 188.57 216.275 Q187.679 216.275 187.141 216.778 Q186.608 217.282 186.527 218.196 L190.324 218.19 Z" fill="#000000" fill-rule="evenodd" fill-opacity="1" /><path clip-path="url(#clip240)" d="M 0 0 M197.893 218.098 L197.893 222.01 L196.828 222.01 L196.828 218.132 Q196.828 217.212 196.469 216.755 Q196.111 216.298 195.393 216.298 Q194.531 216.298 194.033 216.848 Q193.535 217.398 193.535 218.347 L193.535 222.01 L192.465 222.01 L192.465 215.528 L193.535 215.528 L193.535 216.535 Q193.917 215.951 194.432 215.661 Q194.953 215.372 195.63 215.372 Q196.747 215.372 197.32 216.067 Q197.893 216.755 197.893 218.098 Z" fill="#000000" fill-rule="evenodd" fill-opacity="1" /><path clip-path="url(#clip240)" d="M 0 0 M200.063 213.688 L200.063 215.528 L202.256 215.528 L202.256 216.356 L200.063 216.356 L200.063 219.874 Q200.063 220.667 200.277 220.893 Q200.497 221.119 201.163 221.119 L202.256 221.119 L202.256 222.01 L201.163 222.01 Q199.93 222.01 199.461 221.553 Q198.993 221.09 198.993 219.874 L198.993 216.356 L198.211 216.356 L198.211 215.528 L198.993 215.528 L198.993 213.688 L200.063 213.688 Z" fill="#000000" fill-rule="evenodd" fill-opacity="1" /><path clip-path="url(#clip240)" d="M 0 0 M203.373 215.528 L204.438 215.528 L204.438 222.01 L203.373 222.01 L203.373 215.528 M203.373 213.005 L204.438 213.005 L204.438 214.354 L203.373 214.354 L203.373 213.005 Z" fill="#000000" fill-rule="evenodd" fill-opacity="1" /><path clip-path="url(#clip240)" d="M 0 0 M208.501 218.752 Q207.21 218.752 206.712 219.047 Q206.215 219.342 206.215 220.054 Q206.215 220.621 206.585 220.957 Q206.961 221.286 207.604 221.286 Q208.489 221.286 209.021 220.661 Q209.56 220.031 209.56 218.989 L209.56 218.752 L208.501 218.752 M210.624 218.312 L210.624 222.01 L209.56 222.01 L209.56 221.026 Q209.195 221.616 208.651 221.9 Q208.107 222.178 207.32 222.178 Q206.325 222.178 205.734 221.622 Q205.15 221.061 205.15 220.123 Q205.15 219.029 205.879 218.474 Q206.614 217.918 208.067 217.918 L209.56 217.918 L209.56 217.814 Q209.56 217.079 209.073 216.68 Q208.593 216.275 207.719 216.275 Q207.164 216.275 206.637 216.408 Q206.111 216.541 205.624 216.807 L205.624 215.823 Q206.209 215.598 206.759 215.488 Q207.308 215.372 207.829 215.372 Q209.236 215.372 209.93 216.101 Q210.624 216.83 210.624 218.312 Z" fill="#000000" fill-rule="evenodd" fill-opacity="1" /><path clip-path="url(#clip240)" d="M 0 0 M211.741 213.005 L212.806 213.005 L212.806 222.01 L211.741 222.01 L211.741 213.005 Z" fill="#000000" fill-rule="evenodd" fill-opacity="1" /><polyline clip-path="url(#clip240)" style="stroke:#3da44d; stroke-width:1; stroke-opacity:1; fill:none" stroke-dasharray="8, 5" points="
  81.9092,232.81 108.859,232.81 
  "/>
<path clip-path="url(#clip240)" d="M 0 0 M117.477 228.125 L117.477 229.011 L116.458 229.011 Q115.885 229.011 115.66 229.242 Q115.44 229.474 115.44 230.075 L115.44 230.648 L117.193 230.648 L117.193 231.476 L115.44 231.476 L115.44 237.13 L114.369 237.13 L114.369 231.476 L113.351 231.476 L113.351 230.648 L114.369 230.648 L114.369 230.197 Q114.369 229.115 114.873 228.623 Q115.376 228.125 116.47 228.125 L117.477 228.125 Z" fill="#000000" fill-rule="evenodd" fill-opacity="1" /><path clip-path="url(#clip240)" d="M 0 0 M121.105 231.395 Q120.249 231.395 119.751 232.066 Q119.253 232.732 119.253 233.895 Q119.253 235.058 119.745 235.729 Q120.243 236.395 121.105 236.395 Q121.956 236.395 122.454 235.724 Q122.951 235.052 122.951 233.895 Q122.951 232.743 122.454 232.072 Q121.956 231.395 121.105 231.395 M121.105 230.492 Q122.494 230.492 123.287 231.395 Q124.08 232.298 124.08 233.895 Q124.08 235.486 123.287 236.395 Q122.494 237.298 121.105 237.298 Q119.711 237.298 118.918 236.395 Q118.131 235.486 118.131 233.895 Q118.131 232.298 118.918 231.395 Q119.711 230.492 121.105 230.492 Z" fill="#000000" fill-rule="evenodd" fill-opacity="1" /><path clip-path="url(#clip240)" d="M 0 0 M125.087 234.572 L125.087 230.648 L126.151 230.648 L126.151 234.531 Q126.151 235.452 126.51 235.914 Q126.869 236.372 127.587 236.372 Q128.449 236.372 128.947 235.822 Q129.45 235.272 129.45 234.323 L129.45 230.648 L130.515 230.648 L130.515 237.13 L129.45 237.13 L129.45 236.134 Q129.062 236.725 128.547 237.014 Q128.038 237.298 127.361 237.298 Q126.244 237.298 125.665 236.603 Q125.087 235.909 125.087 234.572 M127.766 230.492 L127.766 230.492 Z" fill="#000000" fill-rule="evenodd" fill-opacity="1" /><path clip-path="url(#clip240)" d="M 0 0 M135.388 231.644 Q135.208 231.54 134.994 231.493 Q134.786 231.441 134.531 231.441 Q133.628 231.441 133.142 232.031 Q132.662 232.616 132.662 233.715 L132.662 237.13 L131.591 237.13 L131.591 230.648 L132.662 230.648 L132.662 231.655 Q132.997 231.065 133.536 230.781 Q134.074 230.492 134.844 230.492 Q134.953 230.492 135.087 230.509 Q135.22 230.521 135.382 230.55 L135.388 231.644 Z" fill="#000000" fill-rule="evenodd" fill-opacity="1" /><path clip-path="url(#clip240)" d="M 0 0 M137.558 228.808 L137.558 230.648 L139.751 230.648 L139.751 231.476 L137.558 231.476 L137.558 234.994 Q137.558 235.787 137.772 236.013 Q137.992 236.239 138.657 236.239 L139.751 236.239 L139.751 237.13 L138.657 237.13 Q137.425 237.13 136.956 236.673 Q136.487 236.21 136.487 234.994 L136.487 231.476 L135.706 231.476 L135.706 230.648 L136.487 230.648 L136.487 228.808 L137.558 228.808 Z" fill="#000000" fill-rule="evenodd" fill-opacity="1" /><path clip-path="url(#clip240)" d="M 0 0 M146.256 233.218 L146.256 237.13 L145.191 237.13 L145.191 233.252 Q145.191 232.332 144.832 231.875 Q144.473 231.418 143.756 231.418 Q142.893 231.418 142.396 231.968 Q141.898 232.518 141.898 233.467 L141.898 237.13 L140.827 237.13 L140.827 228.125 L141.898 228.125 L141.898 231.655 Q142.28 231.071 142.795 230.781 Q143.316 230.492 143.993 230.492 Q145.11 230.492 145.683 231.187 Q146.256 231.875 146.256 233.218 Z" fill="#000000" fill-rule="evenodd" fill-opacity="1" /><path clip-path="url(#clip240)" d="M 0 0 M146.834 233.409 L149.953 233.409 L149.953 234.358 L146.834 234.358 L146.834 233.409 Z" fill="#000000" fill-rule="evenodd" fill-opacity="1" /><path clip-path="url(#clip240)" d="M 0 0 M153.802 231.395 Q152.945 231.395 152.448 232.066 Q151.95 232.732 151.95 233.895 Q151.95 235.058 152.442 235.729 Q152.94 236.395 153.802 236.395 Q154.652 236.395 155.15 235.724 Q155.648 235.052 155.648 233.895 Q155.648 232.743 155.15 232.072 Q154.652 231.395 153.802 231.395 M153.802 230.492 Q155.191 230.492 155.983 231.395 Q156.776 232.298 156.776 233.895 Q156.776 235.486 155.983 236.395 Q155.191 237.298 153.802 237.298 Q152.407 237.298 151.614 236.395 Q150.827 235.486 150.827 233.895 Q150.827 232.298 151.614 231.395 Q152.407 230.492 153.802 230.492 Z" fill="#000000" fill-rule="evenodd" fill-opacity="1" /><path clip-path="url(#clip240)" d="M 0 0 M161.649 231.644 Q161.47 231.54 161.255 231.493 Q161.047 231.441 160.792 231.441 Q159.89 231.441 159.404 232.031 Q158.923 232.616 158.923 233.715 L158.923 237.13 L157.853 237.13 L157.853 230.648 L158.923 230.648 L158.923 231.655 Q159.259 231.065 159.797 230.781 Q160.335 230.492 161.105 230.492 Q161.215 230.492 161.348 230.509 Q161.481 230.521 161.643 230.55 L161.649 231.644 Z" fill="#000000" fill-rule="evenodd" fill-opacity="1" /><path clip-path="url(#clip240)" d="M 0 0 M166.823 231.632 L166.823 228.125 L167.887 228.125 L167.887 237.13 L166.823 237.13 L166.823 236.158 Q166.487 236.736 165.972 237.02 Q165.463 237.298 164.745 237.298 Q163.57 237.298 162.83 236.36 Q162.095 235.423 162.095 233.895 Q162.095 232.367 162.83 231.43 Q163.57 230.492 164.745 230.492 Q165.463 230.492 165.972 230.776 Q166.487 231.053 166.823 231.632 M163.194 233.895 Q163.194 235.07 163.674 235.741 Q164.161 236.406 165.005 236.406 Q165.85 236.406 166.336 235.741 Q166.823 235.07 166.823 233.895 Q166.823 232.72 166.336 232.055 Q165.85 231.383 165.005 231.383 Q164.161 231.383 163.674 232.055 Q163.194 232.72 163.194 233.895 Z" fill="#000000" fill-rule="evenodd" fill-opacity="1" /><path clip-path="url(#clip240)" d="M 0 0 M174.548 233.623 L174.548 234.144 L169.652 234.144 Q169.722 235.243 170.312 235.822 Q170.908 236.395 171.967 236.395 Q172.581 236.395 173.154 236.244 Q173.732 236.094 174.299 235.793 L174.299 236.8 Q173.726 237.043 173.125 237.17 Q172.523 237.298 171.904 237.298 Q170.353 237.298 169.444 236.395 Q168.541 235.492 168.541 233.953 Q168.541 232.361 169.398 231.43 Q170.26 230.492 171.718 230.492 Q173.026 230.492 173.784 231.337 Q174.548 232.176 174.548 233.623 M173.483 233.31 Q173.472 232.436 172.991 231.916 Q172.517 231.395 171.73 231.395 Q170.839 231.395 170.301 231.898 Q169.768 232.402 169.687 233.316 L173.483 233.31 Z" fill="#000000" fill-rule="evenodd" fill-opacity="1" /><path clip-path="url(#clip240)" d="M 0 0 M179.421 231.644 Q179.241 231.54 179.027 231.493 Q178.819 231.441 178.564 231.441 Q177.662 231.441 177.175 232.031 Q176.695 232.616 176.695 233.715 L176.695 237.13 L175.625 237.13 L175.625 230.648 L176.695 230.648 L176.695 231.655 Q177.031 231.065 177.569 230.781 Q178.107 230.492 178.877 230.492 Q178.987 230.492 179.12 230.509 Q179.253 230.521 179.415 230.55 L179.421 231.644 Z" fill="#000000" fill-rule="evenodd" fill-opacity="1" /></svg>
