<?xml version="1.0" encoding="utf-8"?>
<svg xmlns="http://www.w3.org/2000/svg" xmlns:xlink="http://www.w3.org/1999/xlink" width="120" height="75" viewBox="0 0 480 300">
<defs>
  <clipPath id="clip200">
    <rect x="0" y="0" width="480" height="300"/>
  </clipPath>
</defs>
<path clip-path="url(#clip200)" d="
M0 300 L480 300 L480 0 L0 0  Z
  " fill="#ffffff" fill-rule="evenodd" fill-opacity="1"/>
<defs>
  <clipPath id="clip201">
    <rect x="96" y="0" width="337" height="300"/>
  </clipPath>
</defs>
<path clip-path="url(#clip200)" d="
M63.9427 255.53 L468.189 255.53 L468.189 27.537 L63.9427 27.537  Z
  " fill="#ffffff" fill-rule="evenodd" fill-opacity="1"/>
<defs>
  <clipPath id="clip202">
    <rect x="63" y="27" width="405" height="229"/>
  </clipPath>
</defs>
<polyline clip-path="url(#clip202)" style="stroke:#000000; stroke-width:0.5; stroke-opacity:0.1; fill:none" points="
  125.195,255.53 125.195,27.537 
  "/>
<polyline clip-path="url(#clip202)" style="stroke:#000000; stroke-width:0.5; stroke-opacity:0.1; fill:none" points="
  205.588,255.53 205.588,27.537 
  "/>
<polyline clip-path="url(#clip202)" style="stroke:#000000; stroke-width:0.5; stroke-opacity:0.1; fill:none" points="
  285.98,255.53 285.98,27.537 
  "/>
<polyline clip-path="url(#clip202)" style="stroke:#000000; stroke-width:0.5; stroke-opacity:0.1; fill:none" points="
  366.372,255.53 366.372,27.537 
  "/>
<polyline clip-path="url(#clip202)" style="stroke:#000000; stroke-width:0.5; stroke-opacity:0.1; fill:none" points="
  446.764,255.53 446.764,27.537 
  "/>
<polyline clip-path="url(#clip200)" style="stroke:#000000; stroke-width:1; stroke-opacity:1; fill:none" points="
  63.9427,255.53 468.189,255.53 
  "/>
<polyline clip-path="url(#clip200)" style="stroke:#000000; stroke-width:1; stroke-opacity:1; fill:none" points="
  125.195,255.53 125.195,252.794 
  "/>
<polyline clip-path="url(#clip200)" style="stroke:#000000; stroke-width:1; stroke-opacity:1; fill:none" points="
  205.588,255.53 205.588,252.794 
  "/>
<polyline clip-path="url(#clip200)" style="stroke:#000000; stroke-width:1; stroke-opacity:1; fill:none" points="
  285.98,255.53 285.98,252.794 
  "/>
<polyline clip-path="url(#clip200)" style="stroke:#000000; stroke-width:1; stroke-opacity:1; fill:none" points="
  366.372,255.53 366.372,252.794 
  "/>
<polyline clip-path="url(#clip200)" style="stroke:#000000; stroke-width:1; stroke-opacity:1; fill:none" points="
  446.764,255.53 446.764,252.794 
  "/>
<path clip-path="url(#clip200)" d="M 0 0 M113.431 274.138 L115.341 274.138 L115.341 267.546 L113.263 267.963 L113.263 266.898 L115.329 266.481 L116.498 266.481 L116.498 274.138 L118.408 274.138 L118.408 275.121 L113.431 275.121 L113.431 274.138 Z" fill="#000000" fill-rule="evenodd" fill-opacity="1" /><path clip-path="url(#clip200)" d="M 0 0 M122.175 267.251 Q121.272 267.251 120.815 268.142 Q120.364 269.028 120.364 270.81 Q120.364 272.587 120.815 273.478 Q121.272 274.363 122.175 274.363 Q123.084 274.363 123.535 273.478 Q123.992 272.587 123.992 270.81 Q123.992 269.028 123.535 268.142 Q123.084 267.251 122.175 267.251 M122.175 266.325 Q123.628 266.325 124.391 267.477 Q125.161 268.622 125.161 270.81 Q125.161 272.992 124.391 274.143 Q123.628 275.289 122.175 275.289 Q120.723 275.289 119.953 274.143 Q119.189 272.992 119.189 270.81 Q119.189 268.622 119.953 267.477 Q120.723 266.325 122.175 266.325 Z" fill="#000000" fill-rule="evenodd" fill-opacity="1" /><path clip-path="url(#clip200)" d="M 0 0 M126.304 267.469 L129.619 267.469 L129.619 268.269 L125.161 268.269 L125.161 267.469 Q125.702 266.91 126.633 265.969 Q127.569 265.024 127.808 264.752 Q128.264 264.239 128.443 263.886 Q128.626 263.529 128.626 263.186 Q128.626 262.626 128.232 262.274 Q127.841 261.921 127.211 261.921 Q126.765 261.921 126.266 262.076 Q125.772 262.231 125.208 262.546 L125.208 261.587 Q125.782 261.357 126.28 261.239 Q126.779 261.122 127.192 261.122 Q128.283 261.122 128.932 261.667 Q129.581 262.213 129.581 263.125 Q129.581 263.557 129.416 263.948 Q129.257 264.333 128.829 264.86 Q128.711 264.996 128.081 265.65 Q127.451 266.299 126.304 267.469 Z" fill="#000000" fill-rule="evenodd" fill-opacity="1" /><path clip-path="url(#clip200)" d="M 0 0 M130.648 267.074 L131.64 267.074 L131.64 268.269 L130.648 268.269 L130.648 267.074 Z" fill="#000000" fill-rule="evenodd" fill-opacity="1" /><path clip-path="url(#clip200)" d="M 0 0 M134.701 261.874 Q133.968 261.874 133.596 262.598 Q133.23 263.318 133.23 264.766 Q133.23 266.209 133.596 266.933 Q133.968 267.653 134.701 267.653 Q135.44 267.653 135.806 266.933 Q136.178 266.209 136.178 264.766 Q136.178 263.318 135.806 262.598 Q135.44 261.874 134.701 261.874 M134.701 261.122 Q135.882 261.122 136.502 262.057 Q137.128 262.988 137.128 264.766 Q137.128 266.538 136.502 267.474 Q135.882 268.405 134.701 268.405 Q133.521 268.405 132.896 267.474 Q132.275 266.538 132.275 264.766 Q132.275 262.988 132.896 262.057 Q133.521 261.122 134.701 261.122 Z" fill="#000000" fill-rule="evenodd" fill-opacity="1" /><path clip-path="url(#clip200)" d="M 0 0 M193.924 274.138 L195.834 274.138 L195.834 267.546 L193.756 267.963 L193.756 266.898 L195.822 266.481 L196.991 266.481 L196.991 274.138 L198.901 274.138 L198.901 275.121 L193.924 275.121 L193.924 274.138 Z" fill="#000000" fill-rule="evenodd" fill-opacity="1" /><path clip-path="url(#clip200)" d="M 0 0 M202.668 267.251 Q201.766 267.251 201.308 268.142 Q200.857 269.028 200.857 270.81 Q200.857 272.587 201.308 273.478 Q201.766 274.363 202.668 274.363 Q203.577 274.363 204.028 273.478 Q204.486 272.587 204.486 270.81 Q204.486 269.028 204.028 268.142 Q203.577 267.251 202.668 267.251 M202.668 266.325 Q204.121 266.325 204.885 267.477 Q205.655 268.622 205.655 270.81 Q205.655 272.992 204.885 274.143 Q204.121 275.289 202.668 275.289 Q201.216 275.289 200.446 274.143 Q199.682 272.992 199.682 270.81 Q199.682 268.622 200.446 267.477 Q201.216 266.325 202.668 266.325 Z" fill="#000000" fill-rule="evenodd" fill-opacity="1" /><path clip-path="url(#clip200)" d="M 0 0 M206.797 267.469 L210.112 267.469 L210.112 268.269 L205.655 268.269 L205.655 267.469 Q206.195 266.91 207.126 265.969 Q208.062 265.024 208.302 264.752 Q208.758 264.239 208.936 263.886 Q209.12 263.529 209.12 263.186 Q209.12 262.626 208.725 262.274 Q208.335 261.921 207.705 261.921 Q207.258 261.921 206.759 262.076 Q206.266 262.231 205.702 262.546 L205.702 261.587 Q206.275 261.357 206.774 261.239 Q207.272 261.122 207.686 261.122 Q208.777 261.122 209.425 261.667 Q210.074 262.213 210.074 263.125 Q210.074 263.557 209.91 263.948 Q209.75 264.333 209.322 264.86 Q209.205 264.996 208.574 265.65 Q207.944 266.299 206.797 267.469 Z" fill="#000000" fill-rule="evenodd" fill-opacity="1" /><path clip-path="url(#clip200)" d="M 0 0 M211.142 267.074 L212.134 267.074 L212.134 268.269 L211.142 268.269 L211.142 267.074 Z" fill="#000000" fill-rule="evenodd" fill-opacity="1" /><path clip-path="url(#clip200)" d="M 0 0 M213.173 261.249 L216.902 261.249 L216.902 262.048 L214.043 262.048 L214.043 263.769 Q214.25 263.698 214.457 263.666 Q214.663 263.628 214.87 263.628 Q216.046 263.628 216.732 264.272 Q217.419 264.916 217.419 266.016 Q217.419 267.15 216.714 267.78 Q216.008 268.405 214.725 268.405 Q214.283 268.405 213.822 268.33 Q213.366 268.255 212.877 268.104 L212.877 267.15 Q213.3 267.38 213.751 267.493 Q214.203 267.606 214.706 267.606 Q215.519 267.606 215.994 267.178 Q216.469 266.75 216.469 266.016 Q216.469 265.283 215.994 264.855 Q215.519 264.427 214.706 264.427 Q214.325 264.427 213.944 264.512 Q213.568 264.596 213.173 264.775 L213.173 261.249 Z" fill="#000000" fill-rule="evenodd" fill-opacity="1" /><path clip-path="url(#clip200)" d="M 0 0 M274.133 274.138 L276.043 274.138 L276.043 267.546 L273.965 267.963 L273.965 266.898 L276.031 266.481 L277.2 266.481 L277.2 274.138 L279.11 274.138 L279.11 275.121 L274.133 275.121 L274.133 274.138 Z" fill="#000000" fill-rule="evenodd" fill-opacity="1" /><path clip-path="url(#clip200)" d="M 0 0 M282.877 267.251 Q281.975 267.251 281.517 268.142 Q281.066 269.028 281.066 270.81 Q281.066 272.587 281.517 273.478 Q281.975 274.363 282.877 274.363 Q283.786 274.363 284.237 273.478 Q284.694 272.587 284.694 270.81 Q284.694 269.028 284.237 268.142 Q283.786 267.251 282.877 267.251 M282.877 266.325 Q284.33 266.325 285.094 267.477 Q285.863 268.622 285.863 270.81 Q285.863 272.992 285.094 274.143 Q284.33 275.289 282.877 275.289 Q281.425 275.289 280.655 274.143 Q279.891 272.992 279.891 270.81 Q279.891 268.622 280.655 267.477 Q281.425 266.325 282.877 266.325 Z" fill="#000000" fill-rule="evenodd" fill-opacity="1" /><path clip-path="url(#clip200)" d="M 0 0 M289.037 264.484 Q289.719 264.629 290.1 265.09 Q290.485 265.551 290.485 266.228 Q290.485 267.267 289.771 267.836 Q289.056 268.405 287.74 268.405 Q287.298 268.405 286.827 268.316 Q286.362 268.231 285.863 268.057 L285.863 267.14 Q286.258 267.371 286.729 267.488 Q287.199 267.606 287.711 267.606 Q288.605 267.606 289.07 267.253 Q289.54 266.9 289.54 266.228 Q289.54 265.607 289.103 265.259 Q288.671 264.907 287.895 264.907 L287.077 264.907 L287.077 264.126 L287.932 264.126 Q288.633 264.126 289.004 263.849 Q289.376 263.567 289.376 263.04 Q289.376 262.499 288.99 262.213 Q288.609 261.921 287.895 261.921 Q287.504 261.921 287.058 262.006 Q286.611 262.09 286.075 262.269 L286.075 261.423 Q286.616 261.272 287.086 261.197 Q287.561 261.122 287.979 261.122 Q289.061 261.122 289.691 261.615 Q290.321 262.104 290.321 262.941 Q290.321 263.524 289.987 263.929 Q289.653 264.328 289.037 264.484 Z" fill="#000000" fill-rule="evenodd" fill-opacity="1" /><path clip-path="url(#clip200)" d="M 0 0 M291.515 267.074 L292.507 267.074 L292.507 268.269 L291.515 268.269 L291.515 267.074 Z" fill="#000000" fill-rule="evenodd" fill-opacity="1" /><path clip-path="url(#clip200)" d="M 0 0 M295.568 261.874 Q294.835 261.874 294.463 262.598 Q294.097 263.318 294.097 264.766 Q294.097 266.209 294.463 266.933 Q294.835 267.653 295.568 267.653 Q296.306 267.653 296.673 266.933 Q297.045 266.209 297.045 264.766 Q297.045 263.318 296.673 262.598 Q296.306 261.874 295.568 261.874 M295.568 261.122 Q296.748 261.122 297.369 262.057 Q297.994 262.988 297.994 264.766 Q297.994 266.538 297.369 267.474 Q296.748 268.405 295.568 268.405 Q294.388 268.405 293.763 267.474 Q293.142 266.538 293.142 264.766 Q293.142 262.988 293.763 262.057 Q294.388 261.122 295.568 261.122 Z" fill="#000000" fill-rule="evenodd" fill-opacity="1" /><path clip-path="url(#clip200)" d="M 0 0 M354.627 274.138 L356.536 274.138 L356.536 267.546 L354.459 267.963 L354.459 266.898 L356.525 266.481 L357.694 266.481 L357.694 274.138 L359.603 274.138 L359.603 275.121 L354.627 275.121 L354.627 274.138 Z" fill="#000000" fill-rule="evenodd" fill-opacity="1" /><path clip-path="url(#clip200)" d="M 0 0 M363.371 267.251 Q362.468 267.251 362.011 268.142 Q361.559 269.028 361.559 270.81 Q361.559 272.587 362.011 273.478 Q362.468 274.363 363.371 274.363 Q364.279 274.363 364.731 273.478 Q365.188 272.587 365.188 270.81 Q365.188 269.028 364.731 268.142 Q364.279 267.251 363.371 267.251 M363.371 266.325 Q364.823 266.325 365.587 267.477 Q366.357 268.622 366.357 270.81 Q366.357 272.992 365.587 274.143 Q364.823 275.289 363.371 275.289 Q361.918 275.289 361.149 274.143 Q360.385 272.992 360.385 270.81 Q360.385 268.622 361.149 267.477 Q361.918 266.325 363.371 266.325 Z" fill="#000000" fill-rule="evenodd" fill-opacity="1" /><path clip-path="url(#clip200)" d="M 0 0 M369.531 264.484 Q370.212 264.629 370.593 265.09 Q370.979 265.551 370.979 266.228 Q370.979 267.267 370.264 267.836 Q369.549 268.405 368.233 268.405 Q367.791 268.405 367.321 268.316 Q366.855 268.231 366.357 268.057 L366.357 267.14 Q366.752 267.371 367.222 267.488 Q367.692 267.606 368.205 267.606 Q369.098 267.606 369.564 267.253 Q370.034 266.9 370.034 266.228 Q370.034 265.607 369.596 265.259 Q369.164 264.907 368.388 264.907 L367.57 264.907 L367.57 264.126 L368.426 264.126 Q369.126 264.126 369.498 263.849 Q369.869 263.567 369.869 263.04 Q369.869 262.499 369.484 262.213 Q369.103 261.921 368.388 261.921 Q367.998 261.921 367.551 262.006 Q367.104 262.09 366.568 262.269 L366.568 261.423 Q367.109 261.272 367.579 261.197 Q368.054 261.122 368.473 261.122 Q369.554 261.122 370.184 261.615 Q370.814 262.104 370.814 262.941 Q370.814 263.524 370.48 263.929 Q370.147 264.328 369.531 264.484 Z" fill="#000000" fill-rule="evenodd" fill-opacity="1" /><path clip-path="url(#clip200)" d="M 0 0 M372.009 267.074 L373.001 267.074 L373.001 268.269 L372.009 268.269 L372.009 267.074 Z" fill="#000000" fill-rule="evenodd" fill-opacity="1" /><path clip-path="url(#clip200)" d="M 0 0 M374.04 261.249 L377.768 261.249 L377.768 262.048 L374.91 262.048 L374.91 263.769 Q375.117 263.698 375.323 263.666 Q375.53 263.628 375.737 263.628 Q376.913 263.628 377.599 264.272 Q378.286 264.916 378.286 266.016 Q378.286 267.15 377.58 267.78 Q376.875 268.405 375.591 268.405 Q375.149 268.405 374.689 268.33 Q374.233 268.255 373.744 268.104 L373.744 267.15 Q374.167 267.38 374.618 267.493 Q375.07 267.606 375.573 267.606 Q376.386 267.606 376.861 267.178 Q377.336 266.75 377.336 266.016 Q377.336 265.283 376.861 264.855 Q376.386 264.427 375.573 264.427 Q375.192 264.427 374.811 264.512 Q374.435 264.596 374.04 264.775 L374.04 261.249 Z" fill="#000000" fill-rule="evenodd" fill-opacity="1" /><path clip-path="url(#clip200)" d="M 0 0 M434.671 274.138 L436.581 274.138 L436.581 267.546 L434.503 267.963 L434.503 266.898 L436.569 266.481 L437.738 266.481 L437.738 274.138 L439.648 274.138 L439.648 275.121 L434.671 275.121 L434.671 274.138 Z" fill="#000000" fill-rule="evenodd" fill-opacity="1" /><path clip-path="url(#clip200)" d="M 0 0 M443.415 267.251 Q442.512 267.251 442.055 268.142 Q441.604 269.028 441.604 270.81 Q441.604 272.587 442.055 273.478 Q442.512 274.363 443.415 274.363 Q444.324 274.363 444.775 273.478 Q445.232 272.587 445.232 270.81 Q445.232 269.028 444.775 268.142 Q444.324 267.251 443.415 267.251 M443.415 266.325 Q444.868 266.325 445.631 267.477 Q446.401 268.622 446.401 270.81 Q446.401 272.992 445.631 274.143 Q444.868 275.289 443.415 275.289 Q441.963 275.289 441.193 274.143 Q440.429 272.992 440.429 270.81 Q440.429 268.622 441.193 267.477 Q441.963 266.325 443.415 266.325 Z" fill="#000000" fill-rule="evenodd" fill-opacity="1" /><path clip-path="url(#clip200)" d="M 0 0 M449.57 262.076 L447.172 265.824 L449.57 265.824 L449.57 262.076 M449.321 261.249 L450.515 261.249 L450.515 265.824 L451.517 265.824 L451.517 266.614 L450.515 266.614 L450.515 268.269 L449.57 268.269 L449.57 266.614 L446.401 266.614 L446.401 265.697 L449.321 261.249 Z" fill="#000000" fill-rule="evenodd" fill-opacity="1" /><path clip-path="url(#clip200)" d="M 0 0 M452.547 267.074 L453.539 267.074 L453.539 268.269 L452.547 268.269 L452.547 267.074 Z" fill="#000000" fill-rule="evenodd" fill-opacity="1" /><path clip-path="url(#clip200)" d="M 0 0 M456.6 261.874 Q455.866 261.874 455.495 262.598 Q455.128 263.318 455.128 264.766 Q455.128 266.209 455.495 266.933 Q455.866 267.653 456.6 267.653 Q457.338 267.653 457.705 266.933 Q458.076 266.209 458.076 264.766 Q458.076 263.318 457.705 262.598 Q457.338 261.874 456.6 261.874 M456.6 261.122 Q457.78 261.122 458.401 262.057 Q459.026 262.988 459.026 264.766 Q459.026 266.538 458.401 267.474 Q457.78 268.405 456.6 268.405 Q455.419 268.405 454.794 267.474 Q454.173 266.538 454.173 264.766 Q454.173 262.988 454.794 262.057 Q455.419 261.122 456.6 261.122 Z" fill="#000000" fill-rule="evenodd" fill-opacity="1" /><g clip-path="url(#clip200)">
<text style="fill:#000000; fill-opacity:1; font-family:Arial,Helvetica Neue,Helvetica,sans-serif; font-size:16px; text-anchor:middle;" transform="rotate(0, 266.066, 295.186)" x="266.066" y="295.186">number of nodes</text>
</g>
<polyline clip-path="url(#clip202)" style="stroke:#000000; stroke-width:0.5; stroke-opacity:0.1; fill:none" points="
  63.9427,224.368 468.189,224.368 
  "/>
<polyline clip-path="url(#clip202)" style="stroke:#000000; stroke-width:0.5; stroke-opacity:0.1; fill:none" points="
  63.9427,174.949 468.189,174.949 
  "/>
<polyline clip-path="url(#clip202)" style="stroke:#000000; stroke-width:0.5; stroke-opacity:0.1; fill:none" points="
  63.9427,125.531 468.189,125.531 
  "/>
<polyline clip-path="url(#clip202)" style="stroke:#000000; stroke-width:0.5; stroke-opacity:0.1; fill:none" points="
  63.9427,76.1122 468.189,76.1122 
  "/>
<polyline clip-path="url(#clip200)" style="stroke:#000000; stroke-width:1; stroke-opacity:1; fill:none" points="
  63.9427,255.53 63.9427,27.537 
  "/>
<polyline clip-path="url(#clip200)" style="stroke:#000000; stroke-width:1; stroke-opacity:1; fill:none" points="
  63.9427,224.368 68.7937,224.368 
  "/>
<polyline clip-path="url(#clip200)" style="stroke:#000000; stroke-width:1; stroke-opacity:1; fill:none" points="
  63.9427,174.949 68.7937,174.949 
  "/>
<polyline clip-path="url(#clip200)" style="stroke:#000000; stroke-width:1; stroke-opacity:1; fill:none" points="
  63.9427,125.531 68.7937,125.531 
  "/>
<polyline clip-path="url(#clip200)" style="stroke:#000000; stroke-width:1; stroke-opacity:1; fill:none" points="
  63.9427,76.1122 68.7937,76.1122 
  "/>
<path clip-path="url(#clip200)" d="M 0 0 M28.5839 229.316 L30.4936 229.316 L30.4936 222.724 L28.4161 223.141 L28.4161 222.076 L30.482 221.66 L31.651 221.66 L31.651 229.316 L33.5607 229.316 L33.5607 230.3 L28.5839 230.3 L28.5839 229.316 Z" fill="#000000" fill-rule="evenodd" fill-opacity="1" /><path clip-path="url(#clip200)" d="M 0 0 M37.328 222.429 Q36.4253 222.429 35.9681 223.32 Q35.5167 224.206 35.5167 225.988 Q35.5167 227.765 35.9681 228.656 Q36.4253 229.541 37.328 229.541 Q38.2366 229.541 38.688 228.656 Q39.1452 227.765 39.1452 225.988 Q39.1452 224.206 38.688 223.32 Q38.2366 222.429 37.328 222.429 M37.328 221.503 Q38.7806 221.503 39.5445 222.655 Q40.3141 223.801 40.3141 225.988 Q40.3141 228.17 39.5445 229.322 Q38.7806 230.467 37.328 230.467 Q35.8755 230.467 35.1058 229.322 Q34.3419 228.17 34.3419 225.988 Q34.3419 223.801 35.1058 222.655 Q35.8755 221.503 37.328 221.503 Z" fill="#000000" fill-rule="evenodd" fill-opacity="1" /><path clip-path="url(#clip200)" d="M 0 0 M40.3141 220.029 L46.342 220.029 L46.342 220.828 L40.3141 220.828 L40.3141 220.029 Z" fill="#000000" fill-rule="evenodd" fill-opacity="1" /><path clip-path="url(#clip200)" d="M 0 0 M47.5363 222.648 L49.088 222.648 L49.088 217.292 L47.4 217.631 L47.4 216.765 L49.0786 216.427 L50.0284 216.427 L50.0284 222.648 L51.58 222.648 L51.58 223.447 L47.5363 223.447 L47.5363 222.648 Z" fill="#000000" fill-rule="evenodd" fill-opacity="1" /><path clip-path="url(#clip200)" d="M 0 0 M53.4279 222.648 L56.7427 222.648 L56.7427 223.447 L52.2853 223.447 L52.2853 222.648 Q52.826 222.088 53.757 221.148 Q54.6927 220.203 54.9325 219.93 Q55.3886 219.417 55.5672 219.065 Q55.7506 218.707 55.7506 218.364 Q55.7506 217.805 55.3557 217.452 Q54.9654 217.099 54.3353 217.099 Q53.8886 217.099 53.3902 217.254 Q52.8965 217.41 52.3323 217.725 L52.3323 216.765 Q52.9059 216.535 53.4043 216.418 Q53.9028 216.3 54.3165 216.3 Q55.4074 216.3 56.0562 216.845 Q56.7051 217.391 56.7051 218.303 Q56.7051 218.736 56.5405 219.126 Q56.3807 219.511 55.9528 220.038 Q55.8353 220.174 55.2052 220.828 Q54.5751 221.477 53.4279 222.648 Z" fill="#000000" fill-rule="evenodd" fill-opacity="1" /><path clip-path="url(#clip200)" d="M 0 0 M28.2594 179.897 L30.1692 179.897 L30.1692 173.306 L28.0916 173.723 L28.0916 172.658 L30.1576 172.241 L31.3266 172.241 L31.3266 179.897 L33.2363 179.897 L33.2363 180.881 L28.2594 180.881 L28.2594 179.897 Z" fill="#000000" fill-rule="evenodd" fill-opacity="1" /><path clip-path="url(#clip200)" d="M 0 0 M37.0036 173.011 Q36.1008 173.011 35.6437 173.902 Q35.1923 174.787 35.1923 176.57 Q35.1923 178.346 35.6437 179.238 Q36.1008 180.123 37.0036 180.123 Q37.9122 180.123 38.3636 179.238 Q38.8207 178.346 38.8207 176.57 Q38.8207 174.787 38.3636 173.902 Q37.9122 173.011 37.0036 173.011 M37.0036 172.085 Q38.4561 172.085 39.22 173.236 Q39.9897 174.382 39.9897 176.57 Q39.9897 178.751 39.22 179.903 Q38.4561 181.049 37.0036 181.049 Q35.5511 181.049 34.7814 179.903 Q34.0175 178.751 34.0175 176.57 Q34.0175 174.382 34.7814 173.236 Q35.5511 172.085 37.0036 172.085 Z" fill="#000000" fill-rule="evenodd" fill-opacity="1" /><path clip-path="url(#clip200)" d="M 0 0 M39.9897 170.61 L46.0176 170.61 L46.0176 171.409 L39.9897 171.409 L39.9897 170.61 Z" fill="#000000" fill-rule="evenodd" fill-opacity="1" /><path clip-path="url(#clip200)" d="M 0 0 M47.2119 173.229 L48.7635 173.229 L48.7635 167.874 L47.0755 168.212 L47.0755 167.347 L48.7541 167.008 L49.7039 167.008 L49.7039 173.229 L51.2556 173.229 L51.2556 174.028 L47.2119 174.028 L47.2119 173.229 Z" fill="#000000" fill-rule="evenodd" fill-opacity="1" /><path clip-path="url(#clip200)" d="M 0 0 M54.3165 167.634 Q53.583 167.634 53.2116 168.358 Q52.8448 169.077 52.8448 170.526 Q52.8448 171.969 53.2116 172.693 Q53.583 173.413 54.3165 173.413 Q55.0547 173.413 55.4215 172.693 Q55.7929 171.969 55.7929 170.526 Q55.7929 169.077 55.4215 168.358 Q55.0547 167.634 54.3165 167.634 M54.3165 166.882 Q55.4967 166.882 56.1174 167.817 Q56.7427 168.748 56.7427 170.526 Q56.7427 172.298 56.1174 173.234 Q55.4967 174.165 54.3165 174.165 Q53.1363 174.165 52.511 173.234 Q51.8903 172.298 51.8903 170.526 Q51.8903 168.748 52.511 167.817 Q53.1363 166.882 54.3165 166.882 Z" fill="#000000" fill-rule="evenodd" fill-opacity="1" /><path clip-path="url(#clip200)" d="M 0 0 M33.5162 130.479 L35.4259 130.479 L35.4259 123.887 L33.3484 124.304 L33.3484 123.239 L35.4144 122.823 L36.5833 122.823 L36.5833 130.479 L38.493 130.479 L38.493 131.463 L33.5162 131.463 L33.5162 130.479 Z" fill="#000000" fill-rule="evenodd" fill-opacity="1" /><path clip-path="url(#clip200)" d="M 0 0 M42.2604 123.592 Q41.3576 123.592 40.9004 124.483 Q40.449 125.369 40.449 127.151 Q40.449 128.928 40.9004 129.819 Q41.3576 130.704 42.2604 130.704 Q43.1689 130.704 43.6203 129.819 Q44.0775 128.928 44.0775 127.151 Q44.0775 125.369 43.6203 124.483 Q43.1689 123.592 42.2604 123.592 M42.2604 122.666 Q43.7129 122.666 44.4768 123.818 Q45.2465 124.964 45.2465 127.151 Q45.2465 129.333 44.4768 130.485 Q43.7129 131.63 42.2604 131.63 Q40.8078 131.63 40.0382 130.485 Q39.2743 129.333 39.2743 127.151 Q39.2743 124.964 40.0382 123.818 Q40.8078 122.666 42.2604 122.666 Z" fill="#000000" fill-rule="evenodd" fill-opacity="1" /><path clip-path="url(#clip200)" d="M 0 0 M45.2465 121.192 L51.2744 121.192 L51.2744 121.991 L45.2465 121.991 L45.2465 121.192 Z" fill="#000000" fill-rule="evenodd" fill-opacity="1" /><path clip-path="url(#clip200)" d="M 0 0 M54.3353 121.276 Q53.6583 121.276 53.268 121.638 Q52.8824 122 52.8824 122.635 Q52.8824 123.27 53.268 123.632 Q53.6583 123.994 54.3353 123.994 Q55.0124 123.994 55.4027 123.632 Q55.7929 123.265 55.7929 122.635 Q55.7929 122 55.4027 121.638 Q55.0171 121.276 54.3353 121.276 M53.3855 120.872 Q52.7743 120.721 52.431 120.303 Q52.0925 119.885 52.0925 119.283 Q52.0925 118.441 52.6897 117.952 Q53.2915 117.463 54.3353 117.463 Q55.3839 117.463 55.981 117.952 Q56.5782 118.441 56.5782 119.283 Q56.5782 119.885 56.2349 120.303 Q55.8964 120.721 55.2898 120.872 Q55.9763 121.032 56.3572 121.497 Q56.7427 121.963 56.7427 122.635 Q56.7427 123.655 56.1174 124.201 Q55.4967 124.746 54.3353 124.746 Q53.174 124.746 52.5486 124.201 Q51.9279 123.655 51.9279 122.635 Q51.9279 121.963 52.3135 121.497 Q52.6991 121.032 53.3855 120.872 M53.0376 119.372 Q53.0376 119.917 53.3761 120.223 Q53.7194 120.529 54.3353 120.529 Q54.9466 120.529 55.2898 120.223 Q55.6378 119.917 55.6378 119.372 Q55.6378 118.827 55.2898 118.521 Q54.9466 118.215 54.3353 118.215 Q53.7194 118.215 53.3761 118.521 Q53.0376 118.827 53.0376 119.372 Z" fill="#000000" fill-rule="evenodd" fill-opacity="1" /><path clip-path="url(#clip200)" d="M 0 0 M33.4645 81.0603 L35.3742 81.0603 L35.3742 74.4689 L33.2967 74.8856 L33.2967 73.8208 L35.3626 73.4041 L36.5316 73.4041 L36.5316 81.0603 L38.4413 81.0603 L38.4413 82.0441 L33.4645 82.0441 L33.4645 81.0603 Z" fill="#000000" fill-rule="evenodd" fill-opacity="1" /><path clip-path="url(#clip200)" d="M 0 0 M42.2087 74.1738 Q41.3059 74.1738 40.8487 75.065 Q40.3973 75.9504 40.3973 77.7328 Q40.3973 79.5094 40.8487 80.4006 Q41.3059 81.286 42.2087 81.286 Q43.1172 81.286 43.5686 80.4006 Q44.0258 79.5094 44.0258 77.7328 Q44.0258 75.9504 43.5686 75.065 Q43.1172 74.1738 42.2087 74.1738 M42.2087 73.2478 Q43.6612 73.2478 44.4251 74.3995 Q45.1948 75.5453 45.1948 77.7328 Q45.1948 79.9145 44.4251 81.0661 Q43.6612 82.2119 42.2087 82.2119 Q40.7561 82.2119 39.9864 81.0661 Q39.2226 79.9145 39.2226 77.7328 Q39.2226 75.5453 39.9864 74.3995 Q40.7561 73.2478 42.2087 73.2478 Z" fill="#000000" fill-rule="evenodd" fill-opacity="1" /><path clip-path="url(#clip200)" d="M 0 0 M45.1948 71.7732 L51.2226 71.7732 L51.2226 72.5725 L45.1948 72.5725 L45.1948 71.7732 Z" fill="#000000" fill-rule="evenodd" fill-opacity="1" /><path clip-path="url(#clip200)" d="M 0 0 M54.4012 71.303 Q53.7617 71.303 53.3855 71.7403 Q53.0141 72.1775 53.0141 72.9393 Q53.0141 73.6963 53.3855 74.1383 Q53.7617 74.5755 54.4012 74.5755 Q55.0406 74.5755 55.4121 74.1383 Q55.7882 73.6963 55.7882 72.9393 Q55.7882 72.1775 55.4121 71.7403 Q55.0406 71.303 54.4012 71.303 M56.2866 68.3267 L56.2866 69.1918 Q55.9293 69.0225 55.5625 68.9332 Q55.2005 68.8439 54.8431 68.8439 Q53.9028 68.8439 53.4043 69.4786 Q52.9106 70.1134 52.8401 71.397 Q53.1175 70.988 53.536 70.7717 Q53.9545 70.5507 54.4576 70.5507 Q55.5155 70.5507 56.1268 71.1948 Q56.7427 71.8343 56.7427 72.9393 Q56.7427 74.0207 56.1033 74.6743 Q55.4638 75.3278 54.4012 75.3278 Q53.1834 75.3278 52.5392 74.3969 Q51.895 73.4612 51.895 71.6885 Q51.895 70.0241 52.6849 69.0366 Q53.4749 68.0445 54.8055 68.0445 Q55.1629 68.0445 55.5249 68.1151 Q55.8917 68.1856 56.2866 68.3267 Z" fill="#000000" fill-rule="evenodd" fill-opacity="1" /><g clip-path="url(#clip200)">
<text style="fill:#000000; fill-opacity:1; font-family:Arial,Helvetica Neue,Helvetica,sans-serif; font-size:16px; text-anchor:middle;" transform="rotate(-90, 18.0011, 141.533)" x="18.0011" y="141.533">error</text>
</g>
<g clip-path="url(#clip200)">
<text style="fill:#000000; fill-opacity:1; font-family:Arial,Helvetica Neue,Helvetica,sans-serif; font-size:18px; font-weight:bold; text-anchor:middle;" transform="rotate(0, 266.066, 15.6)" x="266.066" y="15.6">Comparison of integration methods</text>
</g>
<polyline clip-path="url(#clip202)" style="stroke:#009af9; stroke-width:2; stroke-opacity:1; fill:none" points="
  171.109,33.9896 191.106,41.8789 201.207,72.6866 219.328,59.21 234.874,68.5907 248.542,79.9324 265.425,87.8487 280.233,97.3944 296.883,107.738 311.877,117.705 
  327.987,127.517 344.292,137.158 360.639,147.312 376.369,156.958 392.313,166.961 408.547,176.866 424.684,186.758 440.523,196.63 456.748,206.437 
  "/>
<path clip-path="url(#clip202)" d="M171.109 37.9896 L168.281 36.8176 L167.109 33.9896 L168.281 31.1616 L171.109 29.9896 L173.937 31.1616 L175.109 33.9896 L173.937 36.8176 Z" fill="#009af9" fill-rule="evenodd" fill-opacity="1" stroke="#000000" stroke-opacity="1" stroke-width="0.6"/>
<path clip-path="url(#clip202)" d="M191.106 45.8789 L188.278 44.7069 L187.106 41.8789 L188.278 39.0509 L191.106 37.8789 L193.934 39.0509 L195.106 41.8789 L193.934 44.7069 Z" fill="#009af9" fill-rule="evenodd" fill-opacity="1" stroke="#000000" stroke-opacity="1" stroke-width="0.6"/>
<path clip-path="url(#clip202)" d="M201.207 76.6866 L198.379 75.5146 L197.207 72.6866 L198.379 69.8586 L201.207 68.6866 L204.035 69.8586 L205.207 72.6866 L204.035 75.5146 Z" fill="#009af9" fill-rule="evenodd" fill-opacity="1" stroke="#000000" stroke-opacity="1" stroke-width="0.6"/>
<path clip-path="url(#clip202)" d="M219.328 63.21 L216.5 62.038 L215.328 59.21 L216.5 56.382 L219.328 55.21 L222.156 56.382 L223.328 59.21 L222.156 62.038 Z" fill="#009af9" fill-rule="evenodd" fill-opacity="1" stroke="#000000" stroke-opacity="1" stroke-width="0.6"/>
<path clip-path="url(#clip202)" d="M234.874 72.5907 L232.046 71.4187 L230.874 68.5907 L232.046 65.7627 L234.874 64.5907 L237.702 65.7627 L238.874 68.5907 L237.702 71.4187 Z" fill="#009af9" fill-rule="evenodd" fill-opacity="1" stroke="#000000" stroke-opacity="1" stroke-width="0.6"/>
<path clip-path="url(#clip202)" d="M248.542 83.9324 L245.714 82.7604 L244.542 79.9324 L245.714 77.1044 L248.542 75.9324 L251.37 77.1044 L252.542 79.9324 L251.37 82.7604 Z" fill="#009af9" fill-rule="evenodd" fill-opacity="1" stroke="#000000" stroke-opacity="1" stroke-width="0.6"/>
<path clip-path="url(#clip202)" d="M265.425 91.8487 L262.597 90.6767 L261.425 87.8487 L262.597 85.0207 L265.425 83.8487 L268.253 85.0207 L269.425 87.8487 L268.253 90.6767 Z" fill="#009af9" fill-rule="evenodd" fill-opacity="1" stroke="#000000" stroke-opacity="1" stroke-width="0.6"/>
<path clip-path="url(#clip202)" d="M280.233 101.394 L277.405 100.222 L276.233 97.3944 L277.405 94.5664 L280.233 93.3944 L283.061 94.5664 L284.233 97.3944 L283.061 100.222 Z" fill="#009af9" fill-rule="evenodd" fill-opacity="1" stroke="#000000" stroke-opacity="1" stroke-width="0.6"/>
<path clip-path="url(#clip202)" d="M296.883 111.738 L294.055 110.566 L292.883 107.738 L294.055 104.91 L296.883 103.738 L299.711 104.91 L300.883 107.738 L299.711 110.566 Z" fill="#009af9" fill-rule="evenodd" fill-opacity="1" stroke="#000000" stroke-opacity="1" stroke-width="0.6"/>
<path clip-path="url(#clip202)" d="M311.877 121.705 L309.049 120.533 L307.877 117.705 L309.049 114.877 L311.877 113.705 L314.705 114.877 L315.877 117.705 L314.705 120.533 Z" fill="#009af9" fill-rule="evenodd" fill-opacity="1" stroke="#000000" stroke-opacity="1" stroke-width="0.6"/>
<path clip-path="url(#clip202)" d="M327.987 131.517 L325.159 130.345 L323.987 127.517 L325.159 124.689 L327.987 123.517 L330.815 124.689 L331.987 127.517 L330.815 130.345 Z" fill="#009af9" fill-rule="evenodd" fill-opacity="1" stroke="#000000" stroke-opacity="1" stroke-width="0.6"/>
<path clip-path="url(#clip202)" d="M344.292 141.158 L341.464 139.986 L340.292 137.158 L341.464 134.33 L344.292 133.158 L347.12 134.33 L348.292 137.158 L347.12 139.986 Z" fill="#009af9" fill-rule="evenodd" fill-opacity="1" stroke="#000000" stroke-opacity="1" stroke-width="0.6"/>
<path clip-path="url(#clip202)" d="M360.639 151.312 L357.811 150.14 L356.639 147.312 L357.811 144.484 L360.639 143.312 L363.467 144.484 L364.639 147.312 L363.467 150.14 Z" fill="#009af9" fill-rule="evenodd" fill-opacity="1" stroke="#000000" stroke-opacity="1" stroke-width="0.6"/>
<path clip-path="url(#clip202)" d="M376.369 160.958 L373.541 159.786 L372.369 156.958 L373.541 154.13 L376.369 152.958 L379.197 154.13 L380.369 156.958 L379.197 159.786 Z" fill="#009af9" fill-rule="evenodd" fill-opacity="1" stroke="#000000" stroke-opacity="1" stroke-width="0.6"/>
<path clip-path="url(#clip202)" d="M392.313 170.961 L389.485 169.789 L388.313 166.961 L389.485 164.133 L392.313 162.961 L395.141 164.133 L396.313 166.961 L395.141 169.789 Z" fill="#009af9" fill-rule="evenodd" fill-opacity="1" stroke="#000000" stroke-opacity="1" stroke-width="0.6"/>
<path clip-path="url(#clip202)" d="M408.547 180.866 L405.719 179.694 L404.547 176.866 L405.719 174.038 L408.547 172.866 L411.375 174.038 L412.547 176.866 L411.375 179.694 Z" fill="#009af9" fill-rule="evenodd" fill-opacity="1" stroke="#000000" stroke-opacity="1" stroke-width="0.6"/>
<path clip-path="url(#clip202)" d="M424.684 190.758 L421.856 189.586 L420.684 186.758 L421.856 183.93 L424.684 182.758 L427.512 183.93 L428.684 186.758 L427.512 189.586 Z" fill="#009af9" fill-rule="evenodd" fill-opacity="1" stroke="#000000" stroke-opacity="1" stroke-width="0.6"/>
<path clip-path="url(#clip202)" d="M440.523 200.63 L437.695 199.458 L436.523 196.63 L437.695 193.802 L440.523 192.63 L443.351 193.802 L444.523 196.63 L443.351 199.458 Z" fill="#009af9" fill-rule="evenodd" fill-opacity="1" stroke="#000000" stroke-opacity="1" stroke-width="0.6"/>
<path clip-path="url(#clip202)" d="M456.748 210.437 L453.92 209.265 L452.748 206.437 L453.92 203.609 L456.748 202.437 L459.576 203.609 L460.748 206.437 L459.576 209.265 Z" fill="#009af9" fill-rule="evenodd" fill-opacity="1" stroke="#000000" stroke-opacity="1" stroke-width="0.6"/>
<polyline clip-path="url(#clip202)" style="stroke:#e26f46; stroke-width:2; stroke-opacity:1; fill:none" points="
  75.3837,44.3606 103.22,56.7024 133.73,75.3677 138.506,122.812 151.141,92.1843 171.109,96.8377 181.821,115.435 206.634,119.434 222.172,170.891 224.904,155.772 
  254.926,152.862 268.361,181.168 271.867,186.3 302.835,181.493 315.263,196.281 319.882,209.34 349.879,209.436 363.458,227.829 368.433,243.462 
  "/>
<path clip-path="url(#clip202)" d="M75.3837 48.3606 L72.5557 47.1886 L71.3837 44.3606 L72.5557 41.5326 L75.3837 40.3606 L78.2117 41.5326 L79.3837 44.3606 L78.2117 47.1886 Z" fill="#e26f46" fill-rule="evenodd" fill-opacity="1" stroke="#000000" stroke-opacity="1" stroke-width="0.6"/>
<path clip-path="url(#clip202)" d="M103.22 60.7024 L100.392 59.5304 L99.2198 56.7024 L100.392 53.8744 L103.22 52.7024 L106.048 53.8744 L107.22 56.7024 L106.048 59.5304 Z" fill="#e26f46" fill-rule="evenodd" fill-opacity="1" stroke="#000000" stroke-opacity="1" stroke-width="0.6"/>
<path clip-path="url(#clip202)" d="M133.73 79.3677 L130.902 78.1957 L129.73 75.3677 L130.902 72.5397 L133.73 71.3677 L136.558 72.5397 L137.73 75.3677 L136.558 78.1957 Z" fill="#e26f46" fill-rule="evenodd" fill-opacity="1" stroke="#000000" stroke-opacity="1" stroke-width="0.6"/>
<path clip-path="url(#clip202)" d="M138.506 126.812 L135.678 125.64 L134.506 122.812 L135.678 119.984 L138.506 118.812 L141.334 119.984 L142.506 122.812 L141.334 125.64 Z" fill="#e26f46" fill-rule="evenodd" fill-opacity="1" stroke="#000000" stroke-opacity="1" stroke-width="0.6"/>
<path clip-path="url(#clip202)" d="M151.141 96.1843 L148.313 95.0123 L147.141 92.1843 L148.313 89.3563 L151.141 88.1843 L153.969 89.3563 L155.141 92.1843 L153.969 95.0123 Z" fill="#e26f46" fill-rule="evenodd" fill-opacity="1" stroke="#000000" stroke-opacity="1" stroke-width="0.6"/>
<path clip-path="url(#clip202)" d="M171.109 100.838 L168.281 99.6657 L167.109 96.8377 L168.281 94.0097 L171.109 92.8377 L173.937 94.0097 L175.109 96.8377 L173.937 99.6657 Z" fill="#e26f46" fill-rule="evenodd" fill-opacity="1" stroke="#000000" stroke-opacity="1" stroke-width="0.6"/>
<path clip-path="url(#clip202)" d="M181.821 119.435 L178.993 118.263 L177.821 115.435 L178.993 112.607 L181.821 111.435 L184.649 112.607 L185.821 115.435 L184.649 118.263 Z" fill="#e26f46" fill-rule="evenodd" fill-opacity="1" stroke="#000000" stroke-opacity="1" stroke-width="0.6"/>
<path clip-path="url(#clip202)" d="M206.634 123.434 L203.806 122.262 L202.634 119.434 L203.806 116.606 L206.634 115.434 L209.462 116.606 L210.634 119.434 L209.462 122.262 Z" fill="#e26f46" fill-rule="evenodd" fill-opacity="1" stroke="#000000" stroke-opacity="1" stroke-width="0.6"/>
<path clip-path="url(#clip202)" d="M222.172 174.891 L219.344 173.719 L218.172 170.891 L219.344 168.063 L222.172 166.891 L225 168.063 L226.172 170.891 L225 173.719 Z" fill="#e26f46" fill-rule="evenodd" fill-opacity="1" stroke="#000000" stroke-opacity="1" stroke-width="0.6"/>
<path clip-path="url(#clip202)" d="M224.904 159.772 L222.076 158.6 L220.904 155.772 L222.076 152.944 L224.904 151.772 L227.732 152.944 L228.904 155.772 L227.732 158.6 Z" fill="#e26f46" fill-rule="evenodd" fill-opacity="1" stroke="#000000" stroke-opacity="1" stroke-width="0.6"/>
<path clip-path="url(#clip202)" d="M254.926 156.862 L252.098 155.69 L250.926 152.862 L252.098 150.034 L254.926 148.862 L257.754 150.034 L258.926 152.862 L257.754 155.69 Z" fill="#e26f46" fill-rule="evenodd" fill-opacity="1" stroke="#000000" stroke-opacity="1" stroke-width="0.6"/>
<path clip-path="url(#clip202)" d="M268.361 185.168 L265.533 183.996 L264.361 181.168 L265.533 178.34 L268.361 177.168 L271.189 178.34 L272.361 181.168 L271.189 183.996 Z" fill="#e26f46" fill-rule="evenodd" fill-opacity="1" stroke="#000000" stroke-opacity="1" stroke-width="0.6"/>
<path clip-path="url(#clip202)" d="M271.867 190.3 L269.039 189.128 L267.867 186.3 L269.039 183.472 L271.867 182.3 L274.695 183.472 L275.867 186.3 L274.695 189.128 Z" fill="#e26f46" fill-rule="evenodd" fill-opacity="1" stroke="#000000" stroke-opacity="1" stroke-width="0.6"/>
<path clip-path="url(#clip202)" d="M302.835 185.493 L300.007 184.321 L298.835 181.493 L300.007 178.665 L302.835 177.493 L305.663 178.665 L306.835 181.493 L305.663 184.321 Z" fill="#e26f46" fill-rule="evenodd" fill-opacity="1" stroke="#000000" stroke-opacity="1" stroke-width="0.6"/>
<path clip-path="url(#clip202)" d="M315.263 200.281 L312.435 199.109 L311.263 196.281 L312.435 193.453 L315.263 192.281 L318.091 193.453 L319.263 196.281 L318.091 199.109 Z" fill="#e26f46" fill-rule="evenodd" fill-opacity="1" stroke="#000000" stroke-opacity="1" stroke-width="0.6"/>
<path clip-path="url(#clip202)" d="M319.882 213.34 L317.054 212.168 L315.882 209.34 L317.054 206.512 L319.882 205.34 L322.71 206.512 L323.882 209.34 L322.71 212.168 Z" fill="#e26f46" fill-rule="evenodd" fill-opacity="1" stroke="#000000" stroke-opacity="1" stroke-width="0.6"/>
<path clip-path="url(#clip202)" d="M349.879 213.436 L347.051 212.264 L345.879 209.436 L347.051 206.608 L349.879 205.436 L352.707 206.608 L353.879 209.436 L352.707 212.264 Z" fill="#e26f46" fill-rule="evenodd" fill-opacity="1" stroke="#000000" stroke-opacity="1" stroke-width="0.6"/>
<path clip-path="url(#clip202)" d="M363.458 231.829 L360.63 230.657 L359.458 227.829 L360.63 225.001 L363.458 223.829 L366.286 225.001 L367.458 227.829 L366.286 230.657 Z" fill="#e26f46" fill-rule="evenodd" fill-opacity="1" stroke="#000000" stroke-opacity="1" stroke-width="0.6"/>
<path clip-path="url(#clip202)" d="M368.433 247.462 L365.605 246.29 L364.433 243.462 L365.605 240.634 L368.433 239.462 L371.261 240.634 L372.433 243.462 L371.261 246.29 Z" fill="#e26f46" fill-rule="evenodd" fill-opacity="1" stroke="#000000" stroke-opacity="1" stroke-width="0.6"/>
<polyline clip-path="url(#clip202)" style="stroke:#3da44d; stroke-width:2; stroke-opacity:1; fill:none" stroke-dasharray="8, 5" points="
  125.195,51.4029 446.764,249.077 
  "/>
<path clip-path="url(#clip200)" d="
M77.4176 247.93 L221.789 247.93 L221.789 187.45 L77.4176 187.45  Z
  " fill="#ffffff" fill-rule="evenodd" fill-opacity="1"/>
<polyline clip-path="url(#clip200)" style="stroke:#000000; stroke-width:1; stroke-opacity:1; fill:none" points="
  77.4176,247.93 221.789,247.93 221.789,187.45 77.4176,187.45 77.4176,247.93 
  "/>
<polyline clip-path="url(#clip200)" style="stroke:#009af9; stroke-width:1; stroke-opacity:1; fill:none" points="
  81.9092,202.57 108.859,202.57 
  "/>
<path clip-path="url(#clip200)" d="M95.3841 208.97 L90.8593 207.095 L88.9841 202.57 L90.8593 198.045 L95.3841 196.17 L99.9089 198.045 L101.784 202.57 L99.9089 207.095 Z" fill="#009af9" fill-rule="evenodd" fill-opacity="1" stroke="#000000" stroke-opacity="1" stroke-width="0.96"/>
<path clip-path="url(#clip200)" d="M 0 0 M118.079 201.392 L118.079 197.885 L119.143 197.885 L119.143 206.89 L118.079 206.89 L118.079 205.918 Q117.743 206.496 117.228 206.78 Q116.719 207.058 116.001 207.058 Q114.826 207.058 114.086 206.12 Q113.351 205.183 113.351 203.655 Q113.351 202.127 114.086 201.19 Q114.826 200.252 116.001 200.252 Q116.719 200.252 117.228 200.536 Q117.743 200.813 118.079 201.392 M114.45 203.655 Q114.45 204.83 114.93 205.501 Q115.417 206.166 116.261 206.166 Q117.106 206.166 117.592 205.501 Q118.079 204.83 118.079 203.655 Q118.079 202.48 117.592 201.815 Q117.106 201.143 116.261 201.143 Q115.417 201.143 114.93 201.815 Q114.45 202.48 114.45 203.655 Z" fill="#000000" fill-rule="evenodd" fill-opacity="1" /><path clip-path="url(#clip200)" d="M 0 0 M120.26 200.408 L121.325 200.408 L121.325 206.89 L120.26 206.89 L120.26 200.408 M120.26 197.885 L121.325 197.885 L121.325 199.234 L120.26 199.234 L120.26 197.885 Z" fill="#000000" fill-rule="evenodd" fill-opacity="1" /><path clip-path="url(#clip200)" d="M 0 0 M126.198 201.404 Q126.018 201.3 125.804 201.253 Q125.596 201.201 125.341 201.201 Q124.439 201.201 123.952 201.791 Q123.472 202.376 123.472 203.475 L123.472 206.89 L122.401 206.89 L122.401 200.408 L123.472 200.408 L123.472 201.415 Q123.808 200.825 124.346 200.541 Q124.884 200.252 125.654 200.252 Q125.764 200.252 125.897 200.269 Q126.03 200.281 126.192 200.31 L126.198 201.404 Z" fill="#000000" fill-rule="evenodd" fill-opacity="1" /><path clip-path="url(#clip200)" d="M 0 0 M132.598 203.383 L132.598 203.904 L127.702 203.904 Q127.772 205.003 128.362 205.582 Q128.958 206.155 130.017 206.155 Q130.631 206.155 131.204 206.004 Q131.782 205.854 132.349 205.553 L132.349 206.56 Q131.776 206.803 131.175 206.93 Q130.573 207.058 129.954 207.058 Q128.403 207.058 127.494 206.155 Q126.591 205.252 126.591 203.713 Q126.591 202.121 127.448 201.19 Q128.31 200.252 129.768 200.252 Q131.076 200.252 131.834 201.097 Q132.598 201.936 132.598 203.383 M131.533 203.07 Q131.522 202.196 131.041 201.676 Q130.567 201.155 129.78 201.155 Q128.889 201.155 128.351 201.658 Q127.818 202.162 127.737 203.076 L131.533 203.07 Z" fill="#000000" fill-rule="evenodd" fill-opacity="1" /><path clip-path="url(#clip200)" d="M 0 0 M138.379 200.657 L138.379 201.653 Q137.928 201.404 137.471 201.282 Q137.019 201.155 136.556 201.155 Q135.521 201.155 134.948 201.815 Q134.375 202.468 134.375 203.655 Q134.375 204.841 134.948 205.501 Q135.521 206.155 136.556 206.155 Q137.019 206.155 137.471 206.033 Q137.928 205.906 138.379 205.657 L138.379 206.641 Q137.934 206.849 137.453 206.953 Q136.979 207.058 136.441 207.058 Q134.977 207.058 134.114 206.137 Q133.252 205.217 133.252 203.655 Q133.252 202.069 134.12 201.161 Q134.994 200.252 136.51 200.252 Q137.002 200.252 137.471 200.356 Q137.94 200.455 138.379 200.657 Z" fill="#000000" fill-rule="evenodd" fill-opacity="1" /><path clip-path="url(#clip200)" d="M 0 0 M140.55 198.568 L140.55 200.408 L142.743 200.408 L142.743 201.236 L140.55 201.236 L140.55 204.754 Q140.55 205.547 140.764 205.773 Q140.984 205.999 141.649 205.999 L142.743 205.999 L142.743 206.89 L141.649 206.89 Q140.416 206.89 139.948 206.433 Q139.479 205.97 139.479 204.754 L139.479 201.236 L138.698 201.236 L138.698 200.408 L139.479 200.408 L139.479 198.568 L140.55 198.568 Z" fill="#000000" fill-rule="evenodd" fill-opacity="1" /><polyline clip-path="url(#clip200)" style="stroke:#e26f46; stroke-width:1; stroke-opacity:1; fill:none" points="
  81.9092,217.69 108.859,217.69 
  "/>
<path clip-path="url(#clip200)" d="M95.3841 224.09 L90.8593 222.215 L88.9841 217.69 L90.8593 213.165 L95.3841 211.29 L99.9089 213.165 L101.784 217.69 L99.9089 222.215 Z" fill="#e26f46" fill-rule="evenodd" fill-opacity="1" stroke="#000000" stroke-opacity="1" stroke-width="0.96"/>
<path clip-path="url(#clip200)" d="M 0 0 M118.079 216.512 L118.079 213.005 L119.143 213.005 L119.143 222.01 L118.079 222.01 L118.079 221.038 Q117.743 221.616 117.228 221.9 Q116.719 222.178 116.001 222.178 Q114.826 222.178 114.086 221.24 Q113.351 220.303 113.351 218.775 Q113.351 217.247 114.086 216.31 Q114.826 215.372 116.001 215.372 Q116.719 215.372 117.228 215.656 Q117.743 215.933 118.079 216.512 M114.45 218.775 Q114.45 219.95 114.93 220.621 Q115.417 221.286 116.261 221.286 Q117.106 221.286 117.592 220.621 Q118.079 219.95 118.079 218.775 Q118.079 217.6 117.592 216.935 Q117.106 216.263 116.261 216.263 Q115.417 216.263 114.93 216.935 Q114.45 217.6 114.45 218.775 Z" fill="#000000" fill-rule="evenodd" fill-opacity="1" /><path clip-path="url(#clip200)" d="M 0 0 M122.772 216.275 Q121.915 216.275 121.418 216.946 Q120.92 217.612 120.92 218.775 Q120.92 219.938 121.412 220.609 Q121.91 221.275 122.772 221.275 Q123.623 221.275 124.12 220.604 Q124.618 219.932 124.618 218.775 Q124.618 217.623 124.12 216.952 Q123.623 216.275 122.772 216.275 M122.772 215.372 Q124.161 215.372 124.954 216.275 Q125.746 217.178 125.746 218.775 Q125.746 220.366 124.954 221.275 Q124.161 222.178 122.772 222.178 Q121.377 222.178 120.584 221.275 Q119.797 220.366 119.797 218.775 Q119.797 217.178 120.584 216.275 Q121.377 215.372 122.772 215.372 Z" fill="#000000" fill-rule="evenodd" fill-opacity="1" /><path clip-path="url(#clip200)" d="M 0 0 M126.753 219.452 L126.753 215.528 L127.818 215.528 L127.818 219.411 Q127.818 220.332 128.177 220.794 Q128.536 221.252 129.253 221.252 Q130.116 221.252 130.613 220.702 Q131.117 220.152 131.117 219.203 L131.117 215.528 L132.182 215.528 L132.182 222.01 L131.117 222.01 L131.117 221.014 Q130.729 221.605 130.214 221.894 Q129.705 222.178 129.028 222.178 Q127.911 222.178 127.332 221.483 Q126.753 220.789 126.753 219.452 M129.433 215.372 L129.433 215.372 Z" fill="#000000" fill-rule="evenodd" fill-opacity="1" /><path clip-path="url(#clip200)" d="M 0 0 M137.951 218.775 Q137.951 217.6 137.465 216.935 Q136.985 216.263 136.14 216.263 Q135.295 216.263 134.809 216.935 Q134.328 217.6 134.328 218.775 Q134.328 219.95 134.809 220.621 Q135.295 221.286 136.14 221.286 Q136.985 221.286 137.465 220.621 Q137.951 219.95 137.951 218.775 M134.328 216.512 Q134.664 215.933 135.173 215.656 Q135.688 215.372 136.4 215.372 Q137.581 215.372 138.316 216.31 Q139.056 217.247 139.056 218.775 Q139.056 220.303 138.316 221.24 Q137.581 222.178 136.4 222.178 Q135.688 222.178 135.173 221.9 Q134.664 221.616 134.328 221.038 L134.328 222.01 L133.258 222.01 L133.258 213.005 L134.328 213.005 L134.328 216.512 Z" fill="#000000" fill-rule="evenodd" fill-opacity="1" /><path clip-path="url(#clip200)" d="M 0 0 M140.173 213.005 L141.238 213.005 L141.238 222.01 L140.173 222.01 L140.173 213.005 Z" fill="#000000" fill-rule="evenodd" fill-opacity="1" /><path clip-path="url(#clip200)" d="M 0 0 M147.899 218.503 L147.899 219.024 L143.003 219.024 Q143.073 220.123 143.663 220.702 Q144.259 221.275 145.318 221.275 Q145.931 221.275 146.504 221.124 Q147.083 220.974 147.65 220.673 L147.65 221.68 Q147.077 221.923 146.475 222.05 Q145.874 222.178 145.254 222.178 Q143.703 222.178 142.795 221.275 Q141.892 220.372 141.892 218.833 Q141.892 217.241 142.749 216.31 Q143.611 215.372 145.069 215.372 Q146.377 215.372 147.135 216.217 Q147.899 217.056 147.899 218.503 M146.834 218.19 Q146.823 217.316 146.342 216.796 Q145.868 216.275 145.081 216.275 Q144.19 216.275 143.651 216.778 Q143.119 217.282 143.038 218.196 L146.834 218.19 Z" fill="#000000" fill-rule="evenodd" fill-opacity="1" /><path clip-path="url(#clip200)" d="M 0 0 M158.327 218.503 L158.327 219.024 L153.431 219.024 Q153.501 220.123 154.091 220.702 Q154.687 221.275 155.746 221.275 Q156.36 221.275 156.933 221.124 Q157.511 220.974 158.078 220.673 L158.078 221.68 Q157.505 221.923 156.904 222.05 Q156.302 222.178 155.683 222.178 Q154.132 222.178 153.223 221.275 Q152.32 220.372 152.32 218.833 Q152.32 217.241 153.177 216.31 Q154.039 215.372 155.497 215.372 Q156.805 215.372 157.563 216.217 Q158.327 217.056 158.327 218.503 M157.262 218.19 Q157.251 217.316 156.771 216.796 Q156.296 216.275 155.509 216.275 Q154.618 216.275 154.08 216.778 Q153.547 217.282 153.466 218.196 L157.262 218.19 Z" fill="#000000" fill-rule="evenodd" fill-opacity="1" /><path clip-path="url(#clip200)" d="M 0 0 M164.623 215.528 L162.28 218.682 L164.745 222.01 L163.489 222.01 L161.603 219.463 L159.716 222.01 L158.46 222.01 L160.978 218.619 L158.674 215.528 L159.93 215.528 L161.649 217.837 L163.368 215.528 L164.623 215.528 Z" fill="#000000" fill-rule="evenodd" fill-opacity="1" /><path clip-path="url(#clip200)" d="M 0 0 M166.892 221.038 L166.892 224.475 L165.821 224.475 L165.821 215.528 L166.892 215.528 L166.892 216.512 Q167.228 215.933 167.737 215.656 Q168.252 215.372 168.964 215.372 Q170.144 215.372 170.879 216.31 Q171.62 217.247 171.62 218.775 Q171.62 220.303 170.879 221.24 Q170.144 222.178 168.964 222.178 Q168.252 222.178 167.737 221.9 Q167.228 221.616 166.892 221.038 M170.515 218.775 Q170.515 217.6 170.029 216.935 Q169.548 216.263 168.703 216.263 Q167.858 216.263 167.372 216.935 Q166.892 217.6 166.892 218.775 Q166.892 219.95 167.372 220.621 Q167.858 221.286 168.703 221.286 Q169.548 221.286 170.029 220.621 Q170.515 219.95 170.515 218.775 Z" fill="#000000" fill-rule="evenodd" fill-opacity="1" /><path clip-path="url(#clip200)" d="M 0 0 M175.248 216.275 Q174.392 216.275 173.894 216.946 Q173.397 217.612 173.397 218.775 Q173.397 219.938 173.888 220.609 Q174.386 221.275 175.248 221.275 Q176.099 221.275 176.597 220.604 Q177.094 219.932 177.094 218.775 Q177.094 217.623 176.597 216.952 Q176.099 216.275 175.248 216.275 M175.248 215.372 Q176.637 215.372 177.43 216.275 Q178.223 217.178 178.223 218.775 Q178.223 220.366 177.43 221.275 Q176.637 222.178 175.248 222.178 Q173.854 222.178 173.061 221.275 Q172.274 220.366 172.274 218.775 Q172.274 217.178 173.061 216.275 Q173.854 215.372 175.248 215.372 Z" fill="#000000" fill-rule="evenodd" fill-opacity="1" /><path clip-path="url(#clip200)" d="M 0 0 M184.728 218.098 L184.728 222.01 L183.663 222.01 L183.663 218.132 Q183.663 217.212 183.304 216.755 Q182.945 216.298 182.228 216.298 Q181.365 216.298 180.868 216.848 Q180.37 217.398 180.37 218.347 L180.37 222.01 L179.299 222.01 L179.299 215.528 L180.37 215.528 L180.37 216.535 Q180.752 215.951 181.267 215.661 Q181.788 215.372 182.465 215.372 Q183.582 215.372 184.155 216.067 Q184.728 216.755 184.728 218.098 Z" fill="#000000" fill-rule="evenodd" fill-opacity="1" /><path clip-path="url(#clip200)" d="M 0 0 M191.388 218.503 L191.388 219.024 L186.493 219.024 Q186.562 220.123 187.152 220.702 Q187.748 221.275 188.807 221.275 Q189.421 221.275 189.994 221.124 Q190.572 220.974 191.14 220.673 L191.14 221.68 Q190.567 221.923 189.965 222.05 Q189.363 222.178 188.744 222.178 Q187.193 222.178 186.284 221.275 Q185.381 220.372 185.381 218.833 Q185.381 217.241 186.238 216.31 Q187.1 215.372 188.559 215.372 Q189.866 215.372 190.624 216.217 Q191.388 217.056 191.388 218.503 M190.324 218.19 Q190.312 217.316 189.832 216.796 Q189.357 216.275 188.57 216.275 Q187.679 216.275 187.141 216.778 Q186.608 217.282 186.527 218.196 L190.324 218.19 Z" fill="#000000" fill-rule="evenodd" fill-opacity="1" /><path clip-path="url(#clip200)" d="M 0 0 M197.893 218.098 L197.893 222.01 L196.828 222.01 L196.828 218.132 Q196.828 217.212 196.469 216.755 Q196.111 216.298 195.393 216.298 Q194.531 216.298 194.033 216.848 Q193.535 217.398 193.535 218.347 L193.535 222.01 L192.465 222.01 L192.465 215.528 L193.535 215.528 L193.535 216.535 Q193.917 215.951 194.432 215.661 Q194.953 215.372 195.63 215.372 Q196.747 215.372 197.32 216.067 Q197.893 216.755 197.893 218.098 Z" fill="#000000" fill-rule="evenodd" fill-opacity="1" /><path clip-path="url(#clip200)" d="M 0 0 M200.063 213.688 L200.063 215.528 L202.256 215.528 L202.256 216.356 L200.063 216.356 L200.063 219.874 Q200.063 220.667 200.277 220.893 Q200.497 221.119 201.163 221.119 L202.256 221.119 L202.256 222.01 L201.163 222.01 Q199.93 222.01 199.461 221.553 Q198.993 221.09 198.993 219.874 L198.993 216.356 L198.211 216.356 L198.211 215.528 L198.993 215.528 L198.993 213.688 L200.063 213.688 Z" fill="#000000" fill-rule="evenodd" fill-opacity="1" /><path clip-path="url(#clip200)" d="M 0 0 M203.373 215.528 L204.438 215.528 L204.438 222.01 L203.373 222.01 L203.373 215.528 M203.373 213.005 L204.438 213.005 L204.438 214.354 L203.373 214.354 L203.373 213.005 Z" fill="#000000" fill-rule="evenodd" fill-opacity="1" /><path clip-path="url(#clip200)" d="M 0 0 M208.501 218.752 Q207.21 218.752 206.712 219.047 Q206.215 219.342 206.215 220.054 Q206.215 220.621 206.585 220.957 Q206.961 221.286 207.604 221.286 Q208.489 221.286 209.021 220.661 Q209.56 220.031 209.56 218.989 L209.56 218.752 L208.501 218.752 M210.624 218.312 L210.624 222.01 L209.56 222.01 L209.56 221.026 Q209.195 221.616 208.651 221.9 Q208.107 222.178 207.32 222.178 Q206.325 222.178 205.734 221.622 Q205.15 221.061 205.15 220.123 Q205.15 219.029 205.879 218.474 Q206.614 217.918 208.067 217.918 L209.56 217.918 L209.56 217.814 Q209.56 217.079 209.073 216.68 Q208.593 216.275 207.719 216.275 Q207.164 216.275 206.637 216.408 Q206.111 216.541 205.624 216.807 L205.624 215.823 Q206.209 215.598 206.759 215.488 Q207.308 215.372 207.829 215.372 Q209.236 215.372 209.93 216.101 Q210.624 216.83 210.624 218.312 Z" fill="#000000" fill-rule="evenodd" fill-opacity="1" /><path clip-path="url(#clip200)" d="M 0 0 M211.741 213.005 L212.806 213.005 L212.806 222.01 L211.741 222.01 L211.741 213.005 Z" fill="#000000" fill-rule="evenodd" fill-opacity="1" /><polyline clip-path="url(#clip200)" style="stroke:#3da44d; stroke-width:1; stroke-opacity:1; fill:none" stroke-dasharray="8, 5" points="
  81.9092,232.81 108.859,232.81 
  "/>
<path clip-path="url(#clip200)" d="M 0 0 M117.477 228.125 L117.477 229.011 L116.458 229.011 Q115.885 229.011 115.66 229.242 Q115.44 229.474 115.44 230.075 L115.44 230.648 L117.193 230.648 L117.193 231.476 L115.44 231.476 L115.44 237.13 L114.369 237.13 L114.369 231.476 L113.351 231.476 L113.351 230.648 L114.369 230.648 L114.369 230.197 Q114.369 229.115 114.873 228.623 Q115.376 228.125 116.47 228.125 L117.477 228.125 Z" fill="#000000" fill-rule="evenodd" fill-opacity="1" /><path clip-path="url(#clip200)" d="M 0 0 M121.105 231.395 Q120.249 231.395 119.751 232.066 Q119.253 232.732 119.253 233.895 Q119.253 235.058 119.745 235.729 Q120.243 236.395 121.105 236.395 Q121.956 236.395 122.454 235.724 Q122.951 235.052 122.951 233.895 Q122.951 232.743 122.454 232.072 Q121.956 231.395 121.105 231.395 M121.105 230.492 Q122.494 230.492 123.287 231.395 Q124.08 232.298 124.08 233.895 Q124.08 235.486 123.287 236.395 Q122.494 237.298 121.105 237.298 Q119.711 237.298 118.918 236.395 Q118.131 235.486 118.131 233.895 Q118.131 232.298 118.918 231.395 Q119.711 230.492 121.105 230.492 Z" fill="#000000" fill-rule="evenodd" fill-opacity="1" /><path clip-path="url(#clip200)" d="M 0 0 M125.087 234.572 L125.087 230.648 L126.151 230.648 L126.151 234.531 Q126.151 235.452 126.51 235.914 Q126.869 236.372 127.587 236.372 Q128.449 236.372 128.947 235.822 Q129.45 235.272 129.45 234.323 L129.45 230.648 L130.515 230.648 L130.515 237.13 L129.45 237.13 L129.45 236.134 Q129.062 236.725 128.547 237.014 Q128.038 237.298 127.361 237.298 Q126.244 237.298 125.665 236.603 Q125.087 235.909 125.087 234.572 M127.766 230.492 L127.766 230.492 Z" fill="#000000" fill-rule="evenodd" fill-opacity="1" /><path clip-path="url(#clip200)" d="M 0 0 M135.388 231.644 Q135.208 231.54 134.994 231.493 Q134.786 231.441 134.531 231.441 Q133.628 231.441 133.142 232.031 Q132.662 232.616 132.662 233.715 L132.662 237.13 L131.591 237.13 L131.591 230.648 L132.662 230.648 L132.662 231.655 Q132.997 231.065 133.536 230.781 Q134.074 230.492 134.844 230.492 Q134.953 230.492 135.087 230.509 Q135.22 230.521 135.382 230.55 L135.388 231.644 Z" fill="#000000" fill-rule="evenodd" fill-opacity="1" /><path clip-path="url(#clip200)" d="M 0 0 M137.558 228.808 L137.558 230.648 L139.751 230.648 L139.751 231.476 L137.558 231.476 L137.558 234.994 Q137.558 235.787 137.772 236.013 Q137.992 236.239 138.657 236.239 L139.751 236.239 L139.751 237.13 L138.657 237.13 Q137.425 237.13 136.956 236.673 Q136.487 236.21 136.487 234.994 L136.487 231.476 L135.706 231.476 L135.706 230.648 L136.487 230.648 L136.487 228.808 L137.558 228.808 Z" fill="#000000" fill-rule="evenodd" fill-opacity="1" /><path clip-path="url(#clip200)" d="M 0 0 M146.256 233.218 L146.256 237.13 L145.191 237.13 L145.191 233.252 Q145.191 232.332 144.832 231.875 Q144.473 231.418 143.756 231.418 Q142.893 231.418 142.396 231.968 Q141.898 232.518 141.898 233.467 L141.898 237.13 L140.827 237.13 L140.827 228.125 L141.898 228.125 L141.898 231.655 Q142.28 231.071 142.795 230.781 Q143.316 230.492 143.993 230.492 Q145.11 230.492 145.683 231.187 Q146.256 231.875 146.256 233.218 Z" fill="#000000" fill-rule="evenodd" fill-opacity="1" /><path clip-path="url(#clip200)" d="M 0 0 M146.834 233.409 L149.953 233.409 L149.953 234.358 L146.834 234.358 L146.834 233.409 Z" fill="#000000" fill-rule="evenodd" fill-opacity="1" /><path clip-path="url(#clip200)" d="M 0 0 M153.802 231.395 Q152.945 231.395 152.448 232.066 Q151.95 232.732 151.95 233.895 Q151.95 235.058 152.442 235.729 Q152.94 236.395 153.802 236.395 Q154.652 236.395 155.15 235.724 Q155.648 235.052 155.648 233.895 Q155.648 232.743 155.15 232.072 Q154.652 231.395 153.802 231.395 M153.802 230.492 Q155.191 230.492 155.983 231.395 Q156.776 232.298 156.776 233.895 Q156.776 235.486 155.983 236.395 Q155.191 237.298 153.802 237.298 Q152.407 237.298 151.614 236.395 Q150.827 235.486 150.827 233.895 Q150.827 232.298 151.614 231.395 Q152.407 230.492 153.802 230.492 Z" fill="#000000" fill-rule="evenodd" fill-opacity="1" /><path clip-path="url(#clip200)" d="M 0 0 M161.649 231.644 Q161.47 231.54 161.255 231.493 Q161.047 231.441 160.792 231.441 Q159.89 231.441 159.404 232.031 Q158.923 232.616 158.923 233.715 L158.923 237.13 L157.853 237.13 L157.853 230.648 L158.923 230.648 L158.923 231.655 Q159.259 231.065 159.797 230.781 Q160.335 230.492 161.105 230.492 Q161.215 230.492 161.348 230.509 Q161.481 230.521 161.643 230.55 L161.649 231.644 Z" fill="#000000" fill-rule="evenodd" fill-opacity="1" /><path clip-path="url(#clip200)" d="M 0 0 M166.823 231.632 L166.823 228.125 L167.887 228.125 L167.887 237.13 L166.823 237.13 L166.823 236.158 Q166.487 236.736 165.972 237.02 Q165.463 237.298 164.745 237.298 Q163.57 237.298 162.83 236.36 Q162.095 235.423 162.095 233.895 Q162.095 232.367 162.83 231.43 Q163.57 230.492 164.745 230.492 Q165.463 230.492 165.972 230.776 Q166.487 231.053 166.823 231.632 M163.194 233.895 Q163.194 235.07 163.674 235.741 Q164.161 236.406 165.005 236.406 Q165.85 236.406 166.336 235.741 Q166.823 235.07 166.823 233.895 Q166.823 232.72 166.336 232.055 Q165.85 231.383 165.005 231.383 Q164.161 231.383 163.674 232.055 Q163.194 232.72 163.194 233.895 Z" fill="#000000" fill-rule="evenodd" fill-opacity="1" /><path clip-path="url(#clip200)" d="M 0 0 M174.548 233.623 L174.548 234.144 L169.652 234.144 Q169.722 235.243 170.312 235.822 Q170.908 236.395 171.967 236.395 Q172.581 236.395 173.154 236.244 Q173.732 236.094 174.299 235.793 L174.299 236.8 Q173.726 237.043 173.125 237.17 Q172.523 237.298 171.904 237.298 Q170.353 237.298 169.444 236.395 Q168.541 235.492 168.541 233.953 Q168.541 232.361 169.398 231.43 Q170.26 230.492 171.718 230.492 Q173.026 230.492 173.784 231.337 Q174.548 232.176 174.548 233.623 M173.483 233.31 Q173.472 232.436 172.991 231.916 Q172.517 231.395 171.73 231.395 Q170.839 231.395 170.301 231.898 Q169.768 232.402 169.687 233.316 L173.483 233.31 Z" fill="#000000" fill-rule="evenodd" fill-opacity="1" /><path clip-path="url(#clip200)" d="M 0 0 M179.421 231.644 Q179.241 231.54 179.027 231.493 Q178.819 231.441 178.564 231.441 Q177.662 231.441 177.175 232.031 Q176.695 232.616 176.695 233.715 L176.695 237.13 L175.625 237.13 L175.625 230.648 L176.695 230.648 L176.695 231.655 Q177.031 231.065 177.569 230.781 Q178.107 230.492 178.877 230.492 Q178.987 230.492 179.12 230.509 Q179.253 230.521 179.415 230.55 L179.421 231.644 Z" fill="#000000" fill-rule="evenodd" fill-opacity="1" /></svg>
