<?xml version="1.0" encoding="utf-8"?>
<svg xmlns="http://www.w3.org/2000/svg" xmlns:xlink="http://www.w3.org/1999/xlink" width="120" height="75" viewBox="0 0 480 300">
<defs>
  <clipPath id="clip030">
    <rect x="0" y="0" width="480" height="300"/>
  </clipPath>
</defs>
<path clip-path="url(#clip030)" d="
M0 300 L480 300 L480 0 L0 0  Z
  " fill="#ffffff" fill-rule="evenodd" fill-opacity="1"/>
<defs>
  <clipPath id="clip031">
    <rect x="96" y="0" width="337" height="300"/>
  </clipPath>
</defs>
<path clip-path="url(#clip030)" d="
M101.811 288.189 L378.189 288.189 L378.189 11.811 L101.811 11.811  Z
  " fill="#ffffff" fill-rule="evenodd" fill-opacity="1"/>
<defs>
  <clipPath id="clip032">
    <rect x="101" y="11" width="277" height="277"/>
  </clipPath>
</defs>
<polyline clip-path="url(#clip032)" style="stroke:#000000; stroke-width:1; stroke-opacity:1; fill:none" points="
  227.04,183.984 228.814,183.067 230.586,182.148 232.355,181.226 234.12,180.299 235.879,179.367 237.631,178.428 239.375,177.481 241.109,176.523 242.831,175.554 
  244.541,174.572 246.236,173.576 247.916,172.565 249.578,171.536 251.222,170.488 252.846,169.421 254.449,168.332 256.029,167.221 257.585,166.085 259.115,164.924 
  260.618,163.736 262.093,162.519 263.538,161.272 264.952,159.994 266.332,158.683 267.679,157.338 268.992,155.959 270.272,154.547 271.52,153.103 272.739,151.63 
  273.929,150.128 275.093,148.6 276.23,147.045 277.344,145.467 278.434,143.865 279.504,142.242 280.553,140.599 281.584,138.938 282.598,137.26 283.596,135.566 
  284.58,133.857 285.551,132.136 286.511,130.404 287.461,128.661 288.402,126.91 289.336,125.152 290.264,123.388 291.189,121.62 292.11,119.849 293.03,118.077 
  
  "/>
<polyline clip-path="url(#clip032)" style="stroke:#000000; stroke-width:1; stroke-opacity:1; fill:none" points="
  227.04,183.984 225.654,185.787 224.267,187.589 222.877,189.387 221.484,191.18 220.085,192.967 218.681,194.746 217.27,196.515 215.85,198.273 214.42,200.018 
  212.979,201.749 211.527,203.463 210.06,205.16 208.58,206.838 207.083,208.494 205.57,210.128 204.038,211.739 202.487,213.323 200.916,214.88 199.322,216.408 
  197.706,217.906 196.065,219.371 194.398,220.803 192.706,222.199 190.985,223.558 189.235,224.879 187.456,226.162 185.649,227.407 183.815,228.617 181.956,229.793 
  180.073,230.937 178.167,232.051 176.238,233.136 174.29,234.193 172.321,235.225 170.335,236.232 168.331,237.217 166.312,238.181 164.279,239.126 162.231,240.053 
  160.172,240.965 158.102,241.861 156.022,242.745 153.934,243.617 151.838,244.48 149.737,245.335 147.63,246.184 145.52,247.027 143.407,247.868 141.294,248.706 
  
  "/>
<polyline clip-path="url(#clip032)" style="stroke:#000000; stroke-width:1; stroke-opacity:1; fill:none" points="
  293.03,118.077 294.461,117.055 295.89,116.032 297.315,115.006 298.736,113.978 300.15,112.944 301.556,111.905 302.952,110.86 304.336,109.806 305.707,108.743 
  307.063,107.67 308.402,106.585 309.723,105.488 311.024,104.378 312.304,103.252 313.56,102.111 314.791,100.953 315.996,99.7761 317.172,98.5803 318.319,97.3639 
  319.434,96.126 320.515,94.8653 321.562,93.5808 322.572,92.2713 323.544,90.9356 324.476,89.5727 325.369,88.1825 326.223,86.7662 327.04,85.3249 327.823,83.8597 
  328.573,82.3718 329.29,80.8623 329.978,79.3323 330.638,77.783 331.271,76.2155 331.879,74.631 332.464,73.0305 333.027,71.4153 333.571,69.7864 334.096,68.145 
  334.604,66.4923 335.098,64.8293 335.578,63.1572 336.046,61.4772 336.505,59.7903 336.955,58.0978 337.399,56.4007 337.837,54.7002 338.273,52.9975 338.706,51.2936 
  
  "/>
<path clip-path="url(#clip032)" d="
M238.648 183.984 L232.844 173.932 L221.236 173.932 L215.432 183.984 L221.236 194.037 L232.844 194.037 L238.648 183.984 L238.648 183.984  Z
  " fill="#009af9" fill-rule="evenodd" fill-opacity="1"/>
<polyline clip-path="url(#clip032)" style="stroke:#000000; stroke-width:1; stroke-opacity:1; fill:none" points="
  238.648,183.984 232.844,173.932 221.236,173.932 215.432,183.984 221.236,194.037 232.844,194.037 238.648,183.984 
  "/>
<path clip-path="url(#clip032)" d="
M304.638 118.077 L298.834 108.024 L287.226 108.024 L281.422 118.077 L287.226 128.13 L298.834 128.13 L304.638 118.077 L304.638 118.077  Z
  " fill="#009af9" fill-rule="evenodd" fill-opacity="1"/>
<polyline clip-path="url(#clip032)" style="stroke:#000000; stroke-width:1; stroke-opacity:1; fill:none" points="
  304.638,118.077 298.834,108.024 287.226,108.024 281.422,118.077 287.226,128.13 298.834,128.13 304.638,118.077 
  "/>
<path clip-path="url(#clip032)" d="
M152.901 248.706 L147.098 238.654 L135.49 238.654 L129.686 248.706 L135.49 258.759 L147.098 258.759 L152.901 248.706 L152.901 248.706  Z
  " fill="#009af9" fill-rule="evenodd" fill-opacity="1"/>
<polyline clip-path="url(#clip032)" style="stroke:#000000; stroke-width:1; stroke-opacity:1; fill:none" points="
  152.901,248.706 147.098,238.654 135.49,238.654 129.686,248.706 135.49,258.759 147.098,258.759 152.901,248.706 
  "/>
<path clip-path="url(#clip032)" d="
M350.314 51.2936 L344.51 41.2409 L332.902 41.2409 L327.099 51.2936 L332.902 61.3463 L344.51 61.3463 L350.314 51.2936 L350.314 51.2936  Z
  " fill="#009af9" fill-rule="evenodd" fill-opacity="1"/>
<polyline clip-path="url(#clip032)" style="stroke:#000000; stroke-width:1; stroke-opacity:1; fill:none" points="
  350.314,51.2936 344.51,41.2409 332.902,41.2409 327.099,51.2936 332.902,61.3463 344.51,61.3463 350.314,51.2936 
  "/>
<circle clip-path="url(#clip032)" style="fill:#009af9; stroke:none; fill-opacity:1" cx="227.04" cy="183.984" r="2"/>
<circle clip-path="url(#clip032)" style="fill:#009af9; stroke:none; fill-opacity:1" cx="293.03" cy="118.077" r="2"/>
<circle clip-path="url(#clip032)" style="fill:#009af9; stroke:none; fill-opacity:1" cx="141.294" cy="248.706" r="2"/>
<circle clip-path="url(#clip032)" style="fill:#009af9; stroke:none; fill-opacity:1" cx="338.706" cy="51.2936" r="2"/>
<path clip-path="url(#clip030)" d="M 0 0 M224.936 186.904 L226.607 186.904 L226.607 181.136 L224.789 181.501 L224.789 180.569 L226.597 180.204 L227.62 180.204 L227.62 186.904 L229.291 186.904 L229.291 187.764 L224.936 187.764 L224.936 186.904 Z" fill="#000000" fill-rule="evenodd" fill-opacity="1" /><path clip-path="url(#clip030)" d="M 0 0 M291.86 120.996 L295.43 120.996 L295.43 121.857 L290.63 121.857 L290.63 120.996 Q291.212 120.393 292.215 119.381 Q293.222 118.363 293.48 118.069 Q293.972 117.517 294.164 117.138 Q294.362 116.753 294.362 116.383 Q294.362 115.78 293.936 115.401 Q293.516 115.021 292.837 115.021 Q292.356 115.021 291.82 115.188 Q291.288 115.355 290.68 115.694 L290.68 114.661 Q291.298 114.413 291.835 114.287 Q292.372 114.16 292.817 114.16 Q293.992 114.16 294.691 114.747 Q295.389 115.335 295.389 116.317 Q295.389 116.783 295.212 117.203 Q295.04 117.619 294.579 118.186 Q294.453 118.333 293.774 119.036 Q293.096 119.735 291.86 120.996 Z" fill="#000000" fill-rule="evenodd" fill-opacity="1" /><path clip-path="url(#clip030)" d="M 0 0 M142.223 248.41 Q142.957 248.567 143.367 249.063 Q143.782 249.56 143.782 250.289 Q143.782 251.408 143.013 252.021 Q142.243 252.633 140.825 252.633 Q140.349 252.633 139.843 252.537 Q139.342 252.446 138.805 252.259 L138.805 251.271 Q139.23 251.519 139.737 251.646 Q140.243 251.772 140.795 251.772 Q141.757 251.772 142.258 251.393 Q142.765 251.013 142.765 250.289 Q142.765 249.62 142.294 249.246 Q141.828 248.866 140.992 248.866 L140.111 248.866 L140.111 248.025 L141.033 248.025 Q141.787 248.025 142.187 247.727 Q142.587 247.423 142.587 246.856 Q142.587 246.273 142.172 245.964 Q141.762 245.651 140.992 245.651 Q140.572 245.651 140.091 245.742 Q139.61 245.833 139.033 246.025 L139.033 245.114 Q139.615 244.952 140.121 244.871 Q140.633 244.79 141.083 244.79 Q142.248 244.79 142.927 245.321 Q143.605 245.848 143.605 246.749 Q143.605 247.377 143.246 247.813 Q142.886 248.243 142.223 248.41 Z" fill="#000000" fill-rule="evenodd" fill-opacity="1" /><path clip-path="url(#clip030)" d="M 0 0 M339.365 48.4048 L336.782 52.4405 L339.365 52.4405 L339.365 48.4048 M339.096 47.5136 L340.382 47.5136 L340.382 52.4405 L341.461 52.4405 L341.461 53.2912 L340.382 53.2912 L340.382 55.0736 L339.365 55.0736 L339.365 53.2912 L335.952 53.2912 L335.952 52.3038 L339.096 47.5136 Z" fill="#000000" fill-rule="evenodd" fill-opacity="1" /></svg>
