<?xml version="1.0" encoding="utf-8"?>
<svg xmlns="http://www.w3.org/2000/svg" xmlns:xlink="http://www.w3.org/1999/xlink" width="120" height="75" viewBox="0 0 480 300">
<defs>
  <clipPath id="clip000">
    <rect x="0" y="0" width="480" height="300"/>
  </clipPath>
</defs>
<path clip-path="url(#clip000)" d="
M0 300 L480 300 L480 0 L0 0  Z
  " fill="#ffffff" fill-rule="evenodd" fill-opacity="1"/>
<defs>
  <clipPath id="clip001">
    <rect x="96" y="0" width="337" height="300"/>
  </clipPath>
</defs>
<path clip-path="url(#clip000)" d="
M101.811 288.189 L378.189 288.189 L378.189 11.811 L101.811 11.811  Z
  " fill="#ffffff" fill-rule="evenodd" fill-opacity="1"/>
<defs>
  <clipPath id="clip002">
    <rect x="101" y="11" width="277" height="277"/>
  </clipPath>
</defs>
<polyline clip-path="url(#clip002)" style="stroke:#000000; stroke-width:1; stroke-opacity:1; fill:none" points="
  232.034,248.706 229.669,246.953 227.307,245.2 224.949,243.446 222.597,241.69 220.254,239.933 217.921,238.174 215.601,236.413 213.297,234.649 211.009,232.881 
  208.74,231.111 206.493,229.336 204.269,227.557 202.071,225.773 199.901,223.984 197.76,222.19 195.651,220.39 193.577,218.583 191.539,216.77 189.539,214.949 
  187.579,213.122 185.662,211.286 183.791,209.442 181.965,207.589 180.189,205.728 178.464,203.857 176.791,201.976 175.166,200.087 173.588,198.189 172.055,196.282 
  170.564,194.368 169.114,192.446 167.703,190.517 166.327,188.582 164.986,186.64 163.677,184.692 162.397,182.739 161.146,180.781 159.919,178.818 158.717,176.85 
  157.535,174.879 156.373,172.904 155.228,170.926 154.098,168.945 152.981,166.962 151.874,164.977 150.776,162.991 149.684,161.003 148.596,159.014 147.511,157.025 
  
  "/>
<polyline clip-path="url(#clip002)" style="stroke:#000000; stroke-width:1; stroke-opacity:1; fill:none" points="
  147.8,165.07 147.511,157.025 154.12,161.621 
  "/>
<polyline clip-path="url(#clip002)" style="stroke:#000000; stroke-width:1; stroke-opacity:1; fill:none" points="
  147.511,157.025 148.596,159.014 
  "/>
<polyline clip-path="url(#clip002)" style="stroke:#000000; stroke-width:1; stroke-opacity:1; fill:none" points="
  141.294,147.689 143.658,149.442 146.02,151.195 148.379,152.949 150.73,154.705 153.073,156.462 155.406,158.221 157.726,159.982 160.031,161.746 162.318,163.514 
  164.587,165.284 166.834,167.059 169.058,168.838 171.256,170.622 173.427,172.411 175.567,174.205 177.676,176.005 179.75,177.812 181.789,179.625 183.789,181.446 
  185.748,183.273 187.665,185.109 189.537,186.953 191.362,188.806 193.138,190.667 194.863,192.538 196.537,194.419 198.161,196.308 199.739,198.206 201.273,200.113 
  202.763,202.027 204.213,203.949 205.625,205.878 207,207.813 208.341,209.755 209.651,211.703 210.93,213.656 212.182,215.614 213.408,217.577 214.61,219.545 
  215.792,221.516 216.954,223.491 218.099,225.469 219.229,227.45 220.347,229.433 221.453,231.418 222.552,233.404 223.643,235.392 224.731,237.381 225.816,239.37 
  
  "/>
<polyline clip-path="url(#clip002)" style="stroke:#000000; stroke-width:1; stroke-opacity:1; fill:none" points="
  225.527,231.325 225.816,239.37 219.207,234.774 
  "/>
<polyline clip-path="url(#clip002)" style="stroke:#000000; stroke-width:1; stroke-opacity:1; fill:none" points="
  225.816,239.37 224.731,237.381 
  "/>
<polyline clip-path="url(#clip002)" style="stroke:#000000; stroke-width:1; stroke-opacity:1; fill:none" points="
  338.706,152.311 336.054,153.914 333.404,155.517 330.758,157.121 328.119,158.728 325.487,160.337 322.866,161.949 320.257,163.566 317.662,165.187 315.084,166.813 
  312.524,168.445 309.985,170.084 307.468,171.73 304.976,173.383 302.511,175.046 300.074,176.718 297.669,178.399 295.296,180.091 292.958,181.795 290.656,183.51 
  288.394,185.238 286.173,186.979 283.995,188.734 281.862,190.503 279.777,192.287 277.74,194.088 275.753,195.904 273.813,197.735 271.918,199.581 270.066,201.44 
  268.255,203.313 266.483,205.198 264.748,207.096 263.048,209.004 261.381,210.923 259.745,212.852 258.137,214.79 256.556,216.736 255,218.691 253.466,220.653 
  251.952,222.621 250.458,224.596 248.979,226.575 247.515,228.56 246.064,230.548 244.622,232.539 243.189,234.533 241.762,236.529 240.339,238.527 238.918,240.525 
  
  "/>
<polyline clip-path="url(#clip002)" style="stroke:#000000; stroke-width:1; stroke-opacity:1; fill:none" points="
  246.024,236.744 238.918,240.525 240.157,232.571 
  "/>
<polyline clip-path="url(#clip002)" style="stroke:#000000; stroke-width:1; stroke-opacity:1; fill:none" points="
  238.918,240.525 240.339,238.527 
  "/>
<polyline clip-path="url(#clip002)" style="stroke:#000000; stroke-width:1; stroke-opacity:1; fill:none" points="
  338.706,152.311 334.578,151.622 330.452,150.934 326.327,150.251 322.205,149.573 318.088,148.902 313.977,148.242 309.872,147.593 305.774,146.957 301.685,146.337 
  297.606,145.734 293.538,145.151 289.482,144.588 285.439,144.049 281.41,143.535 277.396,143.047 273.398,142.589 269.418,142.162 265.456,141.767 261.514,141.407 
  257.593,141.083 253.693,140.798 249.816,140.554 245.963,140.352 242.135,140.194 238.333,140.082 234.558,140.017 230.807,139.995 227.08,140.017 223.375,140.078 
  219.693,140.178 216.031,140.315 212.389,140.486 208.765,140.691 205.159,140.926 201.569,141.19 197.994,141.48 194.433,141.796 190.886,142.135 187.35,142.496 
  183.825,142.875 180.31,143.272 176.804,143.684 173.305,144.11 169.813,144.547 166.326,144.994 162.843,145.449 159.364,145.909 155.887,146.373 152.411,146.839 
  
  "/>
<polyline clip-path="url(#clip002)" style="stroke:#000000; stroke-width:1; stroke-opacity:1; fill:none" points="
  160.026,149.45 152.411,146.839 159.069,142.314 
  "/>
<polyline clip-path="url(#clip002)" style="stroke:#000000; stroke-width:1; stroke-opacity:1; fill:none" points="
  152.411,146.839 155.887,146.373 
  "/>
<polyline clip-path="url(#clip002)" style="stroke:#000000; stroke-width:1; stroke-opacity:1; fill:none" points="
  338.706,152.311 336.342,150.558 333.98,148.805 331.621,147.051 329.27,145.295 326.927,143.538 324.594,141.779 322.274,140.018 319.969,138.254 317.682,136.486 
  315.413,134.716 313.166,132.941 310.942,131.162 308.744,129.378 306.573,127.589 304.433,125.795 302.324,123.995 300.25,122.188 298.211,120.375 296.211,118.554 
  294.252,116.727 292.335,114.891 290.463,113.047 288.638,111.194 286.862,109.333 285.137,107.462 283.463,105.581 281.839,103.692 280.261,101.794 278.727,99.8873 
  277.237,97.973 275.787,96.0512 274.375,94.1224 273,92.1869 271.659,90.2451 270.349,88.2973 269.07,86.3441 267.818,84.3858 266.592,82.4227 265.39,80.4554 
  264.208,78.4841 263.046,76.5092 261.901,74.5312 260.771,72.5505 259.653,70.5674 258.547,68.5823 257.448,66.5957 256.357,64.6078 255.269,62.6192 254.184,60.6302 
  
  "/>
<polyline clip-path="url(#clip002)" style="stroke:#000000; stroke-width:1; stroke-opacity:1; fill:none" points="
  254.473,68.6749 254.184,60.6302 260.793,65.2259 
  "/>
<polyline clip-path="url(#clip002)" style="stroke:#000000; stroke-width:1; stroke-opacity:1; fill:none" points="
  254.184,60.6302 255.269,62.6192 
  "/>
<polyline clip-path="url(#clip002)" style="stroke:#000000; stroke-width:1; stroke-opacity:1; fill:none" points="
  247.966,51.2936 245.314,52.8961 242.664,54.4992 240.018,56.1036 237.379,57.71 234.747,59.3191 232.126,60.9314 229.517,62.5478 226.922,64.1687 224.344,65.7949 
  221.784,67.427 219.245,69.0658 216.728,70.7117 214.236,72.3656 211.771,74.0281 209.334,75.6998 206.929,77.3814 204.556,79.0736 202.218,80.7769 199.916,82.4922 
  197.654,84.2199 195.433,85.9609 193.255,87.7157 191.122,89.485 189.037,91.2695 187,93.0697 185.013,94.8858 183.073,96.7171 181.178,98.5628 179.326,100.422 
  177.515,102.295 175.743,104.181 174.008,106.078 172.308,107.986 170.641,109.905 169.005,111.834 167.397,113.772 165.816,115.719 164.26,117.673 162.726,119.635 
  161.212,121.603 159.718,123.578 158.239,125.557 156.775,127.542 155.324,129.53 153.882,131.521 152.449,133.516 151.022,135.512 149.599,137.509 148.178,139.507 
  
  "/>
<polyline clip-path="url(#clip002)" style="stroke:#000000; stroke-width:1; stroke-opacity:1; fill:none" points="
  155.284,135.726 148.178,139.507 149.417,131.553 
  "/>
<polyline clip-path="url(#clip002)" style="stroke:#000000; stroke-width:1; stroke-opacity:1; fill:none" points="
  148.178,139.507 149.599,137.509 
  "/>
<polyline clip-path="url(#clip002)" style="stroke:#000000; stroke-width:1; stroke-opacity:1; fill:none" points="
  247.966,51.2936 250.331,53.0467 252.693,54.8002 255.051,56.5544 257.403,58.3099 259.746,60.0669 262.079,61.8259 264.399,63.5872 266.703,65.3513 268.991,67.1186 
  271.26,68.8893 273.507,70.6641 275.731,72.4431 277.929,74.2269 280.099,76.0157 282.24,77.8101 284.349,79.6104 286.423,81.417 288.461,83.2302 290.461,85.0505 
  292.421,86.8783 294.337,88.714 296.209,90.5579 298.035,92.4105 299.811,94.2721 301.536,96.1432 303.209,98.0237 304.834,99.9132 306.412,101.811 307.945,103.718 
  309.436,105.632 310.886,107.554 312.297,109.483 313.673,111.418 315.014,113.36 316.323,115.308 317.603,117.261 318.854,119.219 320.081,121.182 321.283,123.15 
  322.465,125.121 323.627,127.096 324.772,129.074 325.902,131.055 327.019,133.038 328.126,135.023 329.224,137.009 330.316,138.997 331.404,140.986 332.489,142.975 
  
  "/>
<polyline clip-path="url(#clip002)" style="stroke:#000000; stroke-width:1; stroke-opacity:1; fill:none" points="
  332.2,134.93 332.489,142.975 325.88,138.379 
  "/>
<polyline clip-path="url(#clip002)" style="stroke:#000000; stroke-width:1; stroke-opacity:1; fill:none" points="
  332.489,142.975 331.404,140.986 
  "/>
<path clip-path="url(#clip002)" d="
M243.641 248.706 L237.838 238.654 L226.23 238.654 L220.426 248.706 L226.23 258.759 L237.838 258.759 L243.641 248.706 L243.641 248.706  Z
  " fill="#009af9" fill-rule="evenodd" fill-opacity="1"/>
<polyline clip-path="url(#clip002)" style="stroke:#000000; stroke-width:1; stroke-opacity:1; fill:none" points="
  243.641,248.706 237.838,238.654 226.23,238.654 220.426,248.706 226.23,258.759 237.838,258.759 243.641,248.706 
  "/>
<path clip-path="url(#clip002)" d="
M152.901 147.689 L147.098 137.636 L135.49 137.636 L129.686 147.689 L135.49 157.741 L147.098 157.741 L152.901 147.689 L152.901 147.689  Z
  " fill="#009af9" fill-rule="evenodd" fill-opacity="1"/>
<polyline clip-path="url(#clip002)" style="stroke:#000000; stroke-width:1; stroke-opacity:1; fill:none" points="
  152.901,147.689 147.098,137.636 135.49,137.636 129.686,147.689 135.49,157.741 147.098,157.741 152.901,147.689 
  "/>
<path clip-path="url(#clip002)" d="
M350.314 152.311 L344.51 142.259 L332.902 142.259 L327.099 152.311 L332.902 162.364 L344.51 162.364 L350.314 152.311 L350.314 152.311  Z
  " fill="#009af9" fill-rule="evenodd" fill-opacity="1"/>
<polyline clip-path="url(#clip002)" style="stroke:#000000; stroke-width:1; stroke-opacity:1; fill:none" points="
  350.314,152.311 344.51,142.259 332.902,142.259 327.099,152.311 332.902,162.364 344.51,162.364 350.314,152.311 
  "/>
<path clip-path="url(#clip002)" d="
M259.574 51.2936 L253.77 41.2409 L242.162 41.2409 L236.359 51.2936 L242.162 61.3463 L253.77 61.3463 L259.574 51.2936 L259.574 51.2936  Z
  " fill="#009af9" fill-rule="evenodd" fill-opacity="1"/>
<polyline clip-path="url(#clip002)" style="stroke:#000000; stroke-width:1; stroke-opacity:1; fill:none" points="
  259.574,51.2936 253.77,41.2409 242.162,41.2409 236.359,51.2936 242.162,61.3463 253.77,61.3463 259.574,51.2936 
  "/>
<circle clip-path="url(#clip002)" style="fill:#009af9; stroke:none; fill-opacity:1" cx="232.034" cy="248.706" r="2"/>
<circle clip-path="url(#clip002)" style="fill:#009af9; stroke:none; fill-opacity:1" cx="141.294" cy="147.689" r="2"/>
<circle clip-path="url(#clip002)" style="fill:#009af9; stroke:none; fill-opacity:1" cx="338.706" cy="152.311" r="2"/>
<circle clip-path="url(#clip002)" style="fill:#009af9; stroke:none; fill-opacity:1" cx="247.966" cy="51.2936" r="2"/>
<path clip-path="url(#clip000)" d="M 0 0 M229.93 251.626 L231.601 251.626 L231.601 245.858 L229.783 246.223 L229.783 245.291 L231.591 244.926 L232.613 244.926 L232.613 251.626 L234.284 251.626 L234.284 252.486 L229.93 252.486 L229.93 251.626 Z" fill="#000000" fill-rule="evenodd" fill-opacity="1" /><path clip-path="url(#clip000)" d="M 0 0 M140.124 150.608 L143.694 150.608 L143.694 151.469 L138.893 151.469 L138.893 150.608 Q139.476 150.005 140.478 148.992 Q141.486 147.975 141.744 147.681 Q142.235 147.129 142.428 146.749 Q142.625 146.364 142.625 145.995 Q142.625 145.392 142.2 145.012 Q141.78 144.633 141.101 144.633 Q140.62 144.633 140.083 144.8 Q139.552 144.967 138.944 145.306 L138.944 144.273 Q139.562 144.025 140.099 143.898 Q140.635 143.772 141.081 143.772 Q142.256 143.772 142.954 144.359 Q143.653 144.947 143.653 145.929 Q143.653 146.395 143.476 146.815 Q143.304 147.23 142.843 147.797 Q142.716 147.944 142.038 148.648 Q141.359 149.347 140.124 150.608 Z" fill="#000000" fill-rule="evenodd" fill-opacity="1" /><path clip-path="url(#clip000)" d="M 0 0 M339.636 152.015 Q340.37 152.172 340.78 152.668 Q341.195 153.165 341.195 153.894 Q341.195 155.013 340.426 155.626 Q339.656 156.238 338.238 156.238 Q337.762 156.238 337.256 156.142 Q336.754 156.051 336.218 155.864 L336.218 154.876 Q336.643 155.124 337.149 155.251 Q337.656 155.377 338.208 155.377 Q339.17 155.377 339.671 154.998 Q340.177 154.618 340.177 153.894 Q340.177 153.225 339.706 152.851 Q339.241 152.471 338.405 152.471 L337.524 152.471 L337.524 151.63 L338.446 151.63 Q339.2 151.63 339.6 151.332 Q340 151.028 340 150.461 Q340 149.878 339.585 149.569 Q339.175 149.256 338.405 149.256 Q337.985 149.256 337.504 149.347 Q337.023 149.438 336.446 149.63 L336.446 148.719 Q337.028 148.557 337.534 148.476 Q338.046 148.395 338.496 148.395 Q339.661 148.395 340.339 148.926 Q341.018 149.453 341.018 150.354 Q341.018 150.982 340.658 151.418 Q340.299 151.848 339.636 152.015 Z" fill="#000000" fill-rule="evenodd" fill-opacity="1" /><path clip-path="url(#clip000)" d="M 0 0 M248.625 48.4048 L246.042 52.4405 L248.625 52.4405 L248.625 48.4048 M248.356 47.5136 L249.642 47.5136 L249.642 52.4405 L250.721 52.4405 L250.721 53.2912 L249.642 53.2912 L249.642 55.0736 L248.625 55.0736 L248.625 53.2912 L245.212 53.2912 L245.212 52.3038 L248.356 47.5136 Z" fill="#000000" fill-rule="evenodd" fill-opacity="1" /></svg>
