<?xml version="1.0" encoding="utf-8"?>
<svg xmlns="http://www.w3.org/2000/svg" xmlns:xlink="http://www.w3.org/1999/xlink" width="120" height="75" viewBox="0 0 480 300">
<defs>
  <clipPath id="clip550">
    <rect x="0" y="0" width="480" height="300"/>
  </clipPath>
</defs>
<path clip-path="url(#clip550)" d="
M0 300 L480 300 L480 0 L0 0  Z
  " fill="#ffffff" fill-rule="evenodd" fill-opacity="1"/>
<defs>
  <clipPath id="clip551">
    <rect x="96" y="0" width="337" height="300"/>
  </clipPath>
</defs>
<path clip-path="url(#clip550)" d="
M63.9427 258.408 L468.189 258.408 L468.189 27.537 L63.9427 27.537  Z
  " fill="#ffffff" fill-rule="evenodd" fill-opacity="1"/>
<defs>
  <clipPath id="clip552">
    <rect x="63" y="27" width="405" height="232"/>
  </clipPath>
</defs>
<polyline clip-path="url(#clip552)" style="stroke:#000000; stroke-width:0.5; stroke-opacity:0.1; fill:none" points="
  127.388,258.408 127.388,27.537 
  "/>
<polyline clip-path="url(#clip552)" style="stroke:#000000; stroke-width:0.5; stroke-opacity:0.1; fill:none" points="
  214.062,258.408 214.062,27.537 
  "/>
<polyline clip-path="url(#clip552)" style="stroke:#000000; stroke-width:0.5; stroke-opacity:0.1; fill:none" points="
  300.735,258.408 300.735,27.537 
  "/>
<polyline clip-path="url(#clip552)" style="stroke:#000000; stroke-width:0.5; stroke-opacity:0.1; fill:none" points="
  387.409,258.408 387.409,27.537 
  "/>
<polyline clip-path="url(#clip550)" style="stroke:#000000; stroke-width:1; stroke-opacity:1; fill:none" points="
  63.9427,258.408 468.189,258.408 
  "/>
<polyline clip-path="url(#clip550)" style="stroke:#000000; stroke-width:1; stroke-opacity:1; fill:none" points="
  127.388,258.408 127.388,255.638 
  "/>
<polyline clip-path="url(#clip550)" style="stroke:#000000; stroke-width:1; stroke-opacity:1; fill:none" points="
  214.062,258.408 214.062,255.638 
  "/>
<polyline clip-path="url(#clip550)" style="stroke:#000000; stroke-width:1; stroke-opacity:1; fill:none" points="
  300.735,258.408 300.735,255.638 
  "/>
<polyline clip-path="url(#clip550)" style="stroke:#000000; stroke-width:1; stroke-opacity:1; fill:none" points="
  387.409,258.408 387.409,255.638 
  "/>
<path clip-path="url(#clip550)" d="M 0 0 M122.674 271.633 L126.754 271.633 L126.754 272.616 L121.268 272.616 L121.268 271.633 Q121.934 270.944 123.079 269.787 Q124.231 268.623 124.526 268.288 Q125.088 267.657 125.307 267.223 Q125.533 266.783 125.533 266.361 Q125.533 265.672 125.047 265.238 Q124.567 264.804 123.791 264.804 Q123.242 264.804 122.628 264.995 Q122.02 265.186 121.326 265.574 L121.326 264.393 Q122.032 264.109 122.645 263.965 Q123.259 263.82 123.768 263.82 Q125.111 263.82 125.909 264.491 Q126.708 265.163 126.708 266.285 Q126.708 266.818 126.505 267.298 Q126.309 267.773 125.782 268.421 Q125.637 268.589 124.862 269.393 Q124.086 270.192 122.674 271.633 Z" fill="#000000" fill-rule="evenodd" fill-opacity="1" /><path clip-path="url(#clip550)" d="M 0 0 M130.522 264.746 Q129.619 264.746 129.162 265.637 Q128.71 266.523 128.71 268.305 Q128.71 270.082 129.162 270.973 Q129.619 271.858 130.522 271.858 Q131.43 271.858 131.882 270.973 Q132.339 270.082 132.339 268.305 Q132.339 266.523 131.882 265.637 Q131.43 264.746 130.522 264.746 M130.522 263.82 Q131.974 263.82 132.738 264.972 Q133.508 266.118 133.508 268.305 Q133.508 270.487 132.738 271.638 Q131.974 272.784 130.522 272.784 Q129.069 272.784 128.299 271.638 Q127.535 270.487 127.535 268.305 Q127.535 266.118 128.299 264.972 Q129.069 263.82 130.522 263.82 Z" fill="#000000" fill-rule="evenodd" fill-opacity="1" /><path clip-path="url(#clip550)" d="M 0 0 M211.437 264.995 L208.486 269.607 L211.437 269.607 L211.437 264.995 M211.13 263.976 L212.6 263.976 L212.6 269.607 L213.833 269.607 L213.833 270.579 L212.6 270.579 L212.6 272.616 L211.437 272.616 L211.437 270.579 L207.537 270.579 L207.537 269.451 L211.13 263.976 Z" fill="#000000" fill-rule="evenodd" fill-opacity="1" /><path clip-path="url(#clip550)" d="M 0 0 M217.6 264.746 Q216.698 264.746 216.24 265.637 Q215.789 266.523 215.789 268.305 Q215.789 270.082 216.24 270.973 Q216.698 271.858 217.6 271.858 Q218.509 271.858 218.96 270.973 Q219.417 270.082 219.417 268.305 Q219.417 266.523 218.96 265.637 Q218.509 264.746 217.6 264.746 M217.6 263.82 Q219.053 263.82 219.817 264.972 Q220.586 266.118 220.586 268.305 Q220.586 270.487 219.817 271.638 Q219.053 272.784 217.6 272.784 Q216.148 272.784 215.378 271.638 Q214.614 270.487 214.614 268.305 Q214.614 266.118 215.378 264.972 Q216.148 263.82 217.6 263.82 Z" fill="#000000" fill-rule="evenodd" fill-opacity="1" /><path clip-path="url(#clip550)" d="M 0 0 M297.46 267.831 Q296.673 267.831 296.21 268.369 Q295.753 268.907 295.753 269.844 Q295.753 270.776 296.21 271.32 Q296.673 271.858 297.46 271.858 Q298.247 271.858 298.704 271.32 Q299.167 270.776 299.167 269.844 Q299.167 268.907 298.704 268.369 Q298.247 267.831 297.46 267.831 M299.78 264.167 L299.78 265.232 Q299.341 265.024 298.889 264.914 Q298.444 264.804 298.004 264.804 Q296.846 264.804 296.233 265.585 Q295.625 266.366 295.539 267.946 Q295.88 267.443 296.395 267.177 Q296.91 266.905 297.529 266.905 Q298.831 266.905 299.584 267.697 Q300.342 268.484 300.342 269.844 Q300.342 271.175 299.555 271.98 Q298.768 272.784 297.46 272.784 Q295.961 272.784 295.168 271.638 Q294.375 270.487 294.375 268.305 Q294.375 266.256 295.348 265.041 Q296.32 263.82 297.958 263.82 Q298.397 263.82 298.843 263.907 Q299.294 263.994 299.78 264.167 Z" fill="#000000" fill-rule="evenodd" fill-opacity="1" /><path clip-path="url(#clip550)" d="M 0 0 M304.109 264.746 Q303.206 264.746 302.749 265.637 Q302.298 266.523 302.298 268.305 Q302.298 270.082 302.749 270.973 Q303.206 271.858 304.109 271.858 Q305.018 271.858 305.469 270.973 Q305.926 270.082 305.926 268.305 Q305.926 266.523 305.469 265.637 Q305.018 264.746 304.109 264.746 M304.109 263.82 Q305.562 263.82 306.326 264.972 Q307.095 266.118 307.095 268.305 Q307.095 270.487 306.326 271.638 Q305.562 272.784 304.109 272.784 Q302.657 272.784 301.887 271.638 Q301.123 270.487 301.123 268.305 Q301.123 266.118 301.887 264.972 Q302.657 263.82 304.109 263.82 Z" fill="#000000" fill-rule="evenodd" fill-opacity="1" /><path clip-path="url(#clip550)" d="M 0 0 M384.032 268.513 Q383.199 268.513 382.719 268.959 Q382.244 269.405 382.244 270.186 Q382.244 270.967 382.719 271.413 Q383.199 271.858 384.032 271.858 Q384.866 271.858 385.346 271.413 Q385.826 270.961 385.826 270.186 Q385.826 269.405 385.346 268.959 Q384.871 268.513 384.032 268.513 M382.863 268.016 Q382.111 267.831 381.689 267.315 Q381.272 266.8 381.272 266.06 Q381.272 265.024 382.007 264.422 Q382.748 263.82 384.032 263.82 Q385.323 263.82 386.058 264.422 Q386.793 265.024 386.793 266.06 Q386.793 266.8 386.37 267.315 Q385.954 267.831 385.207 268.016 Q386.052 268.212 386.521 268.785 Q386.995 269.358 386.995 270.186 Q386.995 271.442 386.226 272.113 Q385.462 272.784 384.032 272.784 Q382.603 272.784 381.833 272.113 Q381.069 271.442 381.069 270.186 Q381.069 269.358 381.544 268.785 Q382.018 268.212 382.863 268.016 M382.435 266.17 Q382.435 266.841 382.852 267.217 Q383.274 267.593 384.032 267.593 Q384.785 267.593 385.207 267.217 Q385.635 266.841 385.635 266.17 Q385.635 265.498 385.207 265.122 Q384.785 264.746 384.032 264.746 Q383.274 264.746 382.852 265.122 Q382.435 265.498 382.435 266.17 Z" fill="#000000" fill-rule="evenodd" fill-opacity="1" /><path clip-path="url(#clip550)" d="M 0 0 M390.763 264.746 Q389.86 264.746 389.403 265.637 Q388.951 266.523 388.951 268.305 Q388.951 270.082 389.403 270.973 Q389.86 271.858 390.763 271.858 Q391.671 271.858 392.123 270.973 Q392.58 270.082 392.58 268.305 Q392.58 266.523 392.123 265.637 Q391.671 264.746 390.763 264.746 M390.763 263.82 Q392.215 263.82 392.979 264.972 Q393.749 266.118 393.749 268.305 Q393.749 270.487 392.979 271.638 Q392.215 272.784 390.763 272.784 Q389.31 272.784 388.54 271.638 Q387.777 270.487 387.777 268.305 Q387.777 266.118 388.54 264.972 Q389.31 263.82 390.763 263.82 Z" fill="#000000" fill-rule="evenodd" fill-opacity="1" /><g clip-path="url(#clip550)">
<text style="fill:#000000; fill-opacity:1; font-family:Arial,Helvetica Neue,Helvetica,sans-serif; font-size:16px; text-anchor:middle;" transform="rotate(0, 266.066, 293.459)" x="266.066" y="293.459">number of nodes</text>
</g>
<polyline clip-path="url(#clip552)" style="stroke:#000000; stroke-width:0.5; stroke-opacity:0.1; fill:none" points="
  63.9427,238.262 468.189,238.262 
  "/>
<polyline clip-path="url(#clip552)" style="stroke:#000000; stroke-width:0.5; stroke-opacity:0.1; fill:none" points="
  63.9427,170.198 468.189,170.198 
  "/>
<polyline clip-path="url(#clip552)" style="stroke:#000000; stroke-width:0.5; stroke-opacity:0.1; fill:none" points="
  63.9427,102.135 468.189,102.135 
  "/>
<polyline clip-path="url(#clip552)" style="stroke:#000000; stroke-width:0.5; stroke-opacity:0.1; fill:none" points="
  63.9427,34.0711 468.189,34.0711 
  "/>
<polyline clip-path="url(#clip550)" style="stroke:#000000; stroke-width:1; stroke-opacity:1; fill:none" points="
  63.9427,258.408 63.9427,27.537 
  "/>
<polyline clip-path="url(#clip550)" style="stroke:#000000; stroke-width:1; stroke-opacity:1; fill:none" points="
  63.9427,238.262 68.7937,238.262 
  "/>
<polyline clip-path="url(#clip550)" style="stroke:#000000; stroke-width:1; stroke-opacity:1; fill:none" points="
  63.9427,170.198 68.7937,170.198 
  "/>
<polyline clip-path="url(#clip550)" style="stroke:#000000; stroke-width:1; stroke-opacity:1; fill:none" points="
  63.9427,102.135 68.7937,102.135 
  "/>
<polyline clip-path="url(#clip550)" style="stroke:#000000; stroke-width:1; stroke-opacity:1; fill:none" points="
  63.9427,34.0711 68.7937,34.0711 
  "/>
<path clip-path="url(#clip550)" d="M 0 0 M28.4616 243.21 L30.3713 243.21 L30.3713 236.618 L28.2938 237.035 L28.2938 235.97 L30.3598 235.553 L31.5287 235.553 L31.5287 243.21 L33.4385 243.21 L33.4385 244.193 L28.4616 244.193 L28.4616 243.21 Z" fill="#000000" fill-rule="evenodd" fill-opacity="1" /><path clip-path="url(#clip550)" d="M 0 0 M37.2058 236.323 Q36.303 236.323 35.8458 237.214 Q35.3945 238.1 35.3945 239.882 Q35.3945 241.659 35.8458 242.55 Q36.303 243.435 37.2058 243.435 Q38.1144 243.435 38.5657 242.55 Q39.0229 241.659 39.0229 239.882 Q39.0229 238.1 38.5657 237.214 Q38.1144 236.323 37.2058 236.323 M37.2058 235.397 Q38.6583 235.397 39.4222 236.549 Q40.1919 237.695 40.1919 239.882 Q40.1919 242.064 39.4222 243.215 Q38.6583 244.361 37.2058 244.361 Q35.7533 244.361 34.9836 243.215 Q34.2197 242.064 34.2197 239.882 Q34.2197 237.695 34.9836 236.549 Q35.7533 235.397 37.2058 235.397 Z" fill="#000000" fill-rule="evenodd" fill-opacity="1" /><path clip-path="url(#clip550)" d="M 0 0 M40.1919 233.923 L46.2198 233.923 L46.2198 234.722 L40.1919 234.722 L40.1919 233.923 Z" fill="#000000" fill-rule="evenodd" fill-opacity="1" /><path clip-path="url(#clip550)" d="M 0 0 M47.4141 236.542 L48.9657 236.542 L48.9657 231.186 L47.2777 231.525 L47.2777 230.659 L48.9563 230.321 L49.9061 230.321 L49.9061 236.542 L51.4577 236.542 L51.4577 237.341 L47.4141 237.341 L47.4141 236.542 Z" fill="#000000" fill-rule="evenodd" fill-opacity="1" /><path clip-path="url(#clip550)" d="M 0 0 M52.4969 230.321 L56.2255 230.321 L56.2255 231.12 L53.3667 231.12 L53.3667 232.841 Q53.5736 232.771 53.7805 232.738 Q53.9874 232.7 54.1943 232.7 Q55.3698 232.7 56.0562 233.344 Q56.7427 233.988 56.7427 235.089 Q56.7427 236.222 56.0374 236.852 Q55.3321 237.477 54.0485 237.477 Q53.6065 237.477 53.1457 237.402 Q52.6897 237.327 52.2006 237.176 L52.2006 236.222 Q52.6238 236.452 53.0752 236.565 Q53.5266 236.678 54.0297 236.678 Q54.8431 236.678 55.318 236.25 Q55.7929 235.822 55.7929 235.089 Q55.7929 234.355 55.318 233.927 Q54.8431 233.499 54.0297 233.499 Q53.6488 233.499 53.268 233.584 Q52.8918 233.669 52.4969 233.847 L52.4969 230.321 Z" fill="#000000" fill-rule="evenodd" fill-opacity="1" /><path clip-path="url(#clip550)" d="M 0 0 M28.2594 175.146 L30.1692 175.146 L30.1692 168.555 L28.0916 168.971 L28.0916 167.907 L30.1576 167.49 L31.3266 167.49 L31.3266 175.146 L33.2363 175.146 L33.2363 176.13 L28.2594 176.13 L28.2594 175.146 Z" fill="#000000" fill-rule="evenodd" fill-opacity="1" /><path clip-path="url(#clip550)" d="M 0 0 M37.0036 168.26 Q36.1008 168.26 35.6437 169.151 Q35.1923 170.036 35.1923 171.819 Q35.1923 173.595 35.6437 174.486 Q36.1008 175.372 37.0036 175.372 Q37.9122 175.372 38.3636 174.486 Q38.8207 173.595 38.8207 171.819 Q38.8207 170.036 38.3636 169.151 Q37.9122 168.26 37.0036 168.26 M37.0036 167.334 Q38.4561 167.334 39.22 168.485 Q39.9897 169.631 39.9897 171.819 Q39.9897 174 39.22 175.152 Q38.4561 176.298 37.0036 176.298 Q35.5511 176.298 34.7814 175.152 Q34.0175 174 34.0175 171.819 Q34.0175 169.631 34.7814 168.485 Q35.5511 167.334 37.0036 167.334 Z" fill="#000000" fill-rule="evenodd" fill-opacity="1" /><path clip-path="url(#clip550)" d="M 0 0 M39.9897 165.859 L46.0176 165.859 L46.0176 166.658 L39.9897 166.658 L39.9897 165.859 Z" fill="#000000" fill-rule="evenodd" fill-opacity="1" /><path clip-path="url(#clip550)" d="M 0 0 M47.2119 168.478 L48.7635 168.478 L48.7635 163.123 L47.0755 163.461 L47.0755 162.596 L48.7541 162.257 L49.7039 162.257 L49.7039 168.478 L51.2556 168.478 L51.2556 169.277 L47.2119 169.277 L47.2119 168.478 Z" fill="#000000" fill-rule="evenodd" fill-opacity="1" /><path clip-path="url(#clip550)" d="M 0 0 M54.3165 162.883 Q53.583 162.883 53.2116 163.607 Q52.8448 164.326 52.8448 165.774 Q52.8448 167.218 53.2116 167.942 Q53.583 168.661 54.3165 168.661 Q55.0547 168.661 55.4215 167.942 Q55.7929 167.218 55.7929 165.774 Q55.7929 164.326 55.4215 163.607 Q55.0547 162.883 54.3165 162.883 M54.3165 162.13 Q55.4967 162.13 56.1174 163.066 Q56.7427 163.997 56.7427 165.774 Q56.7427 167.547 56.1174 168.483 Q55.4967 169.414 54.3165 169.414 Q53.1363 169.414 52.511 168.483 Q51.8903 167.547 51.8903 165.774 Q51.8903 163.997 52.511 163.066 Q53.1363 162.13 54.3165 162.13 Z" fill="#000000" fill-rule="evenodd" fill-opacity="1" /><path clip-path="url(#clip550)" d="M 0 0 M33.6996 107.083 L35.6093 107.083 L35.6093 100.491 L33.5318 100.908 L33.5318 99.8432 L35.5977 99.4265 L36.7667 99.4265 L36.7667 107.083 L38.6764 107.083 L38.6764 108.067 L33.6996 108.067 L33.6996 107.083 Z" fill="#000000" fill-rule="evenodd" fill-opacity="1" /><path clip-path="url(#clip550)" d="M 0 0 M42.4438 100.196 Q41.541 100.196 41.0838 101.087 Q40.6324 101.973 40.6324 103.755 Q40.6324 105.532 41.0838 106.423 Q41.541 107.308 42.4438 107.308 Q43.3523 107.308 43.8037 106.423 Q44.2609 105.532 44.2609 103.755 Q44.2609 101.973 43.8037 101.087 Q43.3523 100.196 42.4438 100.196 M42.4438 99.2703 Q43.8963 99.2703 44.6602 100.422 Q45.4299 101.568 45.4299 103.755 Q45.4299 105.937 44.6602 107.089 Q43.8963 108.234 42.4438 108.234 Q40.9912 108.234 40.2215 107.089 Q39.4577 105.937 39.4577 103.755 Q39.4577 101.568 40.2215 100.422 Q40.9912 99.2703 42.4438 99.2703 Z" fill="#000000" fill-rule="evenodd" fill-opacity="1" /><path clip-path="url(#clip550)" d="M 0 0 M45.4299 97.7956 L51.4577 97.7956 L51.4577 98.5949 L45.4299 98.5949 L45.4299 97.7956 Z" fill="#000000" fill-rule="evenodd" fill-opacity="1" /><path clip-path="url(#clip550)" d="M 0 0 M52.4969 94.1939 L56.2255 94.1939 L56.2255 94.9932 L53.3667 94.9932 L53.3667 96.7142 Q53.5736 96.6436 53.7805 96.6107 Q53.9874 96.5731 54.1943 96.5731 Q55.3698 96.5731 56.0562 97.2173 Q56.7427 97.8614 56.7427 98.9617 Q56.7427 100.095 56.0374 100.725 Q55.3321 101.35 54.0485 101.35 Q53.6065 101.35 53.1457 101.275 Q52.6897 101.2 52.2006 101.049 L52.2006 100.095 Q52.6238 100.325 53.0752 100.438 Q53.5266 100.551 54.0297 100.551 Q54.8431 100.551 55.318 100.123 Q55.7929 99.6952 55.7929 98.9617 Q55.7929 98.2282 55.318 97.8003 Q54.8431 97.3724 54.0297 97.3724 Q53.6488 97.3724 53.268 97.4571 Q52.8918 97.5417 52.4969 97.7204 L52.4969 94.1939 Z" fill="#000000" fill-rule="evenodd" fill-opacity="1" /><path clip-path="url(#clip550)" d="M 0 0 M40.1601 39.0192 L42.0698 39.0192 L42.0698 32.4278 L39.9922 32.8445 L39.9922 31.7797 L42.0582 31.363 L43.2272 31.363 L43.2272 39.0192 L45.1369 39.0192 L45.1369 40.003 L40.1601 40.003 L40.1601 39.0192 Z" fill="#000000" fill-rule="evenodd" fill-opacity="1" /><path clip-path="url(#clip550)" d="M 0 0 M48.9042 32.1327 Q48.0015 32.1327 47.5443 33.0239 Q47.0929 33.9093 47.0929 35.6917 Q47.0929 37.4683 47.5443 38.3595 Q48.0015 39.2449 48.9042 39.2449 Q49.8128 39.2449 50.2642 38.3595 Q50.7213 37.4683 50.7213 35.6917 Q50.7213 33.9093 50.2642 33.0239 Q49.8128 32.1327 48.9042 32.1327 M48.9042 31.2068 Q50.3568 31.2068 51.1206 32.3584 Q51.8903 33.5042 51.8903 35.6917 Q51.8903 37.8734 51.1206 39.025 Q50.3568 40.1708 48.9042 40.1708 Q47.4517 40.1708 46.682 39.025 Q45.9181 37.8734 45.9181 35.6917 Q45.9181 33.5042 46.682 32.3584 Q47.4517 31.2068 48.9042 31.2068 Z" fill="#000000" fill-rule="evenodd" fill-opacity="1" /><path clip-path="url(#clip550)" d="M 0 0 M54.3165 26.7558 Q53.583 26.7558 53.2116 27.4799 Q52.8448 28.1993 52.8448 29.6475 Q52.8448 31.091 53.2116 31.8151 Q53.583 32.5345 54.3165 32.5345 Q55.0547 32.5345 55.4215 31.8151 Q55.7929 31.091 55.7929 29.6475 Q55.7929 28.1993 55.4215 27.4799 Q55.0547 26.7558 54.3165 26.7558 M54.3165 26.0035 Q55.4967 26.0035 56.1174 26.9392 Q56.7427 27.8701 56.7427 29.6475 Q56.7427 31.4201 56.1174 32.3558 Q55.4967 33.2868 54.3165 33.2868 Q53.1363 33.2868 52.511 32.3558 Q51.8903 31.4201 51.8903 29.6475 Q51.8903 27.8701 52.511 26.9392 Q53.1363 26.0035 54.3165 26.0035 Z" fill="#000000" fill-rule="evenodd" fill-opacity="1" /><g clip-path="url(#clip550)">
<text style="fill:#000000; fill-opacity:1; font-family:Arial,Helvetica Neue,Helvetica,sans-serif; font-size:16px; text-anchor:middle;" transform="rotate(-90, 18.0011, 142.973)" x="18.0011" y="142.973">error</text>
</g>
<g clip-path="url(#clip550)">
<text style="fill:#000000; fill-opacity:1; font-family:Arial,Helvetica Neue,Helvetica,sans-serif; font-size:18px; font-weight:bold; text-anchor:middle;" transform="rotate(0, 266.066, 15.6)" x="266.066" y="15.6">Spectral integration</text>
</g>
<polyline clip-path="url(#clip552)" style="stroke:#009af9; stroke-width:2; stroke-opacity:1; fill:none" points="
  75.3837,72.3426 92.7184,94.6518 110.053,115.976 127.388,135.174 144.723,151.686 162.057,166.41 179.392,180.312 196.727,193.815 214.062,207.069 231.396,220.113 
  248.731,232.468 266.066,240.663 
  "/>
<polyline clip-path="url(#clip552)" style="stroke:#009af9; stroke-width:2; stroke-opacity:1; fill:none" points="
  300.735,247.158 318.07,247.158 335.405,247.158 352.74,243.06 370.074,247.158 
  "/>
<polyline clip-path="url(#clip552)" style="stroke:#009af9; stroke-width:2; stroke-opacity:1; fill:none" points="
  404.744,243.06 422.079,247.158 
  "/>
<path clip-path="url(#clip552)" d="M75.3837 76.3426 L72.5557 75.1706 L71.3837 72.3426 L72.5557 69.5146 L75.3837 68.3426 L78.2117 69.5146 L79.3837 72.3426 L78.2117 75.1706 Z" fill="#009af9" fill-rule="evenodd" fill-opacity="1" stroke="#000000" stroke-opacity="1" stroke-width="0.6"/>
<path clip-path="url(#clip552)" d="M92.7184 98.6518 L89.8904 97.4798 L88.7184 94.6518 L89.8904 91.8238 L92.7184 90.6518 L95.5464 91.8238 L96.7184 94.6518 L95.5464 97.4798 Z" fill="#009af9" fill-rule="evenodd" fill-opacity="1" stroke="#000000" stroke-opacity="1" stroke-width="0.6"/>
<path clip-path="url(#clip552)" d="M110.053 119.976 L107.225 118.804 L106.053 115.976 L107.225 113.148 L110.053 111.976 L112.881 113.148 L114.053 115.976 L112.881 118.804 Z" fill="#009af9" fill-rule="evenodd" fill-opacity="1" stroke="#000000" stroke-opacity="1" stroke-width="0.6"/>
<path clip-path="url(#clip552)" d="M127.388 139.174 L124.56 138.002 L123.388 135.174 L124.56 132.346 L127.388 131.174 L130.216 132.346 L131.388 135.174 L130.216 138.002 Z" fill="#009af9" fill-rule="evenodd" fill-opacity="1" stroke="#000000" stroke-opacity="1" stroke-width="0.6"/>
<path clip-path="url(#clip552)" d="M144.723 155.686 L141.895 154.514 L140.723 151.686 L141.895 148.858 L144.723 147.686 L147.551 148.858 L148.723 151.686 L147.551 154.514 Z" fill="#009af9" fill-rule="evenodd" fill-opacity="1" stroke="#000000" stroke-opacity="1" stroke-width="0.6"/>
<path clip-path="url(#clip552)" d="M162.057 170.41 L159.229 169.238 L158.057 166.41 L159.229 163.582 L162.057 162.41 L164.885 163.582 L166.057 166.41 L164.885 169.238 Z" fill="#009af9" fill-rule="evenodd" fill-opacity="1" stroke="#000000" stroke-opacity="1" stroke-width="0.6"/>
<path clip-path="url(#clip552)" d="M179.392 184.312 L176.564 183.14 L175.392 180.312 L176.564 177.484 L179.392 176.312 L182.22 177.484 L183.392 180.312 L182.22 183.14 Z" fill="#009af9" fill-rule="evenodd" fill-opacity="1" stroke="#000000" stroke-opacity="1" stroke-width="0.6"/>
<path clip-path="url(#clip552)" d="M196.727 197.815 L193.899 196.643 L192.727 193.815 L193.899 190.987 L196.727 189.815 L199.555 190.987 L200.727 193.815 L199.555 196.643 Z" fill="#009af9" fill-rule="evenodd" fill-opacity="1" stroke="#000000" stroke-opacity="1" stroke-width="0.6"/>
<path clip-path="url(#clip552)" d="M214.062 211.069 L211.234 209.897 L210.062 207.069 L211.234 204.241 L214.062 203.069 L216.89 204.241 L218.062 207.069 L216.89 209.897 Z" fill="#009af9" fill-rule="evenodd" fill-opacity="1" stroke="#000000" stroke-opacity="1" stroke-width="0.6"/>
<path clip-path="url(#clip552)" d="M231.396 224.113 L228.568 222.941 L227.396 220.113 L228.568 217.285 L231.396 216.113 L234.224 217.285 L235.396 220.113 L234.224 222.941 Z" fill="#009af9" fill-rule="evenodd" fill-opacity="1" stroke="#000000" stroke-opacity="1" stroke-width="0.6"/>
<path clip-path="url(#clip552)" d="M248.731 236.468 L245.903 235.296 L244.731 232.468 L245.903 229.64 L248.731 228.468 L251.559 229.64 L252.731 232.468 L251.559 235.296 Z" fill="#009af9" fill-rule="evenodd" fill-opacity="1" stroke="#000000" stroke-opacity="1" stroke-width="0.6"/>
<path clip-path="url(#clip552)" d="M266.066 244.663 L263.238 243.491 L262.066 240.663 L263.238 237.835 L266.066 236.663 L268.894 237.835 L270.066 240.663 L268.894 243.491 Z" fill="#009af9" fill-rule="evenodd" fill-opacity="1" stroke="#000000" stroke-opacity="1" stroke-width="0.6"/>
<path clip-path="url(#clip552)" d="M300.735 251.158 L297.907 249.986 L296.735 247.158 L297.907 244.33 L300.735 243.158 L303.563 244.33 L304.735 247.158 L303.563 249.986 Z" fill="#009af9" fill-rule="evenodd" fill-opacity="1" stroke="#000000" stroke-opacity="1" stroke-width="0.6"/>
<path clip-path="url(#clip552)" d="M318.07 251.158 L315.242 249.986 L314.07 247.158 L315.242 244.33 L318.07 243.158 L320.898 244.33 L322.07 247.158 L320.898 249.986 Z" fill="#009af9" fill-rule="evenodd" fill-opacity="1" stroke="#000000" stroke-opacity="1" stroke-width="0.6"/>
<path clip-path="url(#clip552)" d="M335.405 251.158 L332.577 249.986 L331.405 247.158 L332.577 244.33 L335.405 243.158 L338.233 244.33 L339.405 247.158 L338.233 249.986 Z" fill="#009af9" fill-rule="evenodd" fill-opacity="1" stroke="#000000" stroke-opacity="1" stroke-width="0.6"/>
<path clip-path="url(#clip552)" d="M352.74 247.06 L349.912 245.888 L348.74 243.06 L349.912 240.232 L352.74 239.06 L355.568 240.232 L356.74 243.06 L355.568 245.888 Z" fill="#009af9" fill-rule="evenodd" fill-opacity="1" stroke="#000000" stroke-opacity="1" stroke-width="0.6"/>
<path clip-path="url(#clip552)" d="M370.074 251.158 L367.246 249.986 L366.074 247.158 L367.246 244.33 L370.074 243.158 L372.902 244.33 L374.074 247.158 L372.902 249.986 Z" fill="#009af9" fill-rule="evenodd" fill-opacity="1" stroke="#000000" stroke-opacity="1" stroke-width="0.6"/>
<path clip-path="url(#clip552)" d="M404.744 247.06 L401.916 245.888 L400.744 243.06 L401.916 240.232 L404.744 239.06 L407.572 240.232 L408.744 243.06 L407.572 245.888 Z" fill="#009af9" fill-rule="evenodd" fill-opacity="1" stroke="#000000" stroke-opacity="1" stroke-width="0.6"/>
<path clip-path="url(#clip552)" d="M422.079 251.158 L419.251 249.986 L418.079 247.158 L419.251 244.33 L422.079 243.158 L424.907 244.33 L426.079 247.158 L424.907 249.986 Z" fill="#009af9" fill-rule="evenodd" fill-opacity="1" stroke="#000000" stroke-opacity="1" stroke-width="0.6"/>
<path clip-path="url(#clip552)" d="M456.748 251.158 L453.92 249.986 L452.748 247.158 L453.92 244.33 L456.748 243.158 L459.576 244.33 L460.748 247.158 L459.576 249.986 Z" fill="#009af9" fill-rule="evenodd" fill-opacity="1" stroke="#000000" stroke-opacity="1" stroke-width="0.6"/>
<polyline clip-path="url(#clip552)" style="stroke:#e26f46; stroke-width:2; stroke-opacity:1; fill:none" points="
  75.3837,75.7455 92.7184,98.4785 110.053,121.225 127.388,143.976 144.723,166.73 162.057,189.486 179.392,212.15 196.727,234.865 214.062,243.06 231.396,233.546 
  248.731,238.963 266.066,243.06 283.401,236.566 300.735,237.643 318.07,234.865 
  "/>
<polyline clip-path="url(#clip552)" style="stroke:#e26f46; stroke-width:2; stroke-opacity:1; fill:none" points="
  352.74,243.06 370.074,234.168 387.409,243.06 404.744,240.663 422.079,247.158 439.413,236.566 456.748,237.643 
  "/>
<path clip-path="url(#clip552)" d="M75.3837 79.7455 L72.5557 78.5735 L71.3837 75.7455 L72.5557 72.9175 L75.3837 71.7455 L78.2117 72.9175 L79.3837 75.7455 L78.2117 78.5735 Z" fill="#e26f46" fill-rule="evenodd" fill-opacity="1" stroke="#000000" stroke-opacity="1" stroke-width="0.6"/>
<path clip-path="url(#clip552)" d="M92.7184 102.478 L89.8904 101.306 L88.7184 98.4785 L89.8904 95.6505 L92.7184 94.4785 L95.5464 95.6505 L96.7184 98.4785 L95.5464 101.306 Z" fill="#e26f46" fill-rule="evenodd" fill-opacity="1" stroke="#000000" stroke-opacity="1" stroke-width="0.6"/>
<path clip-path="url(#clip552)" d="M110.053 125.225 L107.225 124.053 L106.053 121.225 L107.225 118.397 L110.053 117.225 L112.881 118.397 L114.053 121.225 L112.881 124.053 Z" fill="#e26f46" fill-rule="evenodd" fill-opacity="1" stroke="#000000" stroke-opacity="1" stroke-width="0.6"/>
<path clip-path="url(#clip552)" d="M127.388 147.976 L124.56 146.804 L123.388 143.976 L124.56 141.148 L127.388 139.976 L130.216 141.148 L131.388 143.976 L130.216 146.804 Z" fill="#e26f46" fill-rule="evenodd" fill-opacity="1" stroke="#000000" stroke-opacity="1" stroke-width="0.6"/>
<path clip-path="url(#clip552)" d="M144.723 170.73 L141.895 169.558 L140.723 166.73 L141.895 163.902 L144.723 162.73 L147.551 163.902 L148.723 166.73 L147.551 169.558 Z" fill="#e26f46" fill-rule="evenodd" fill-opacity="1" stroke="#000000" stroke-opacity="1" stroke-width="0.6"/>
<path clip-path="url(#clip552)" d="M162.057 193.486 L159.229 192.314 L158.057 189.486 L159.229 186.658 L162.057 185.486 L164.885 186.658 L166.057 189.486 L164.885 192.314 Z" fill="#e26f46" fill-rule="evenodd" fill-opacity="1" stroke="#000000" stroke-opacity="1" stroke-width="0.6"/>
<path clip-path="url(#clip552)" d="M179.392 216.15 L176.564 214.978 L175.392 212.15 L176.564 209.322 L179.392 208.15 L182.22 209.322 L183.392 212.15 L182.22 214.978 Z" fill="#e26f46" fill-rule="evenodd" fill-opacity="1" stroke="#000000" stroke-opacity="1" stroke-width="0.6"/>
<path clip-path="url(#clip552)" d="M196.727 238.865 L193.899 237.693 L192.727 234.865 L193.899 232.037 L196.727 230.865 L199.555 232.037 L200.727 234.865 L199.555 237.693 Z" fill="#e26f46" fill-rule="evenodd" fill-opacity="1" stroke="#000000" stroke-opacity="1" stroke-width="0.6"/>
<path clip-path="url(#clip552)" d="M214.062 247.06 L211.234 245.888 L210.062 243.06 L211.234 240.232 L214.062 239.06 L216.89 240.232 L218.062 243.06 L216.89 245.888 Z" fill="#e26f46" fill-rule="evenodd" fill-opacity="1" stroke="#000000" stroke-opacity="1" stroke-width="0.6"/>
<path clip-path="url(#clip552)" d="M231.396 237.546 L228.568 236.374 L227.396 233.546 L228.568 230.718 L231.396 229.546 L234.224 230.718 L235.396 233.546 L234.224 236.374 Z" fill="#e26f46" fill-rule="evenodd" fill-opacity="1" stroke="#000000" stroke-opacity="1" stroke-width="0.6"/>
<path clip-path="url(#clip552)" d="M248.731 242.963 L245.903 241.791 L244.731 238.963 L245.903 236.135 L248.731 234.963 L251.559 236.135 L252.731 238.963 L251.559 241.791 Z" fill="#e26f46" fill-rule="evenodd" fill-opacity="1" stroke="#000000" stroke-opacity="1" stroke-width="0.6"/>
<path clip-path="url(#clip552)" d="M266.066 247.06 L263.238 245.888 L262.066 243.06 L263.238 240.232 L266.066 239.06 L268.894 240.232 L270.066 243.06 L268.894 245.888 Z" fill="#e26f46" fill-rule="evenodd" fill-opacity="1" stroke="#000000" stroke-opacity="1" stroke-width="0.6"/>
<path clip-path="url(#clip552)" d="M283.401 240.566 L280.573 239.394 L279.401 236.566 L280.573 233.738 L283.401 232.566 L286.229 233.738 L287.401 236.566 L286.229 239.394 Z" fill="#e26f46" fill-rule="evenodd" fill-opacity="1" stroke="#000000" stroke-opacity="1" stroke-width="0.6"/>
<path clip-path="url(#clip552)" d="M300.735 241.643 L297.907 240.471 L296.735 237.643 L297.907 234.815 L300.735 233.643 L303.563 234.815 L304.735 237.643 L303.563 240.471 Z" fill="#e26f46" fill-rule="evenodd" fill-opacity="1" stroke="#000000" stroke-opacity="1" stroke-width="0.6"/>
<path clip-path="url(#clip552)" d="M318.07 238.865 L315.242 237.693 L314.07 234.865 L315.242 232.037 L318.07 230.865 L320.898 232.037 L322.07 234.865 L320.898 237.693 Z" fill="#e26f46" fill-rule="evenodd" fill-opacity="1" stroke="#000000" stroke-opacity="1" stroke-width="0.6"/>
<path clip-path="url(#clip552)" d="M352.74 247.06 L349.912 245.888 L348.74 243.06 L349.912 240.232 L352.74 239.06 L355.568 240.232 L356.74 243.06 L355.568 245.888 Z" fill="#e26f46" fill-rule="evenodd" fill-opacity="1" stroke="#000000" stroke-opacity="1" stroke-width="0.6"/>
<path clip-path="url(#clip552)" d="M370.074 238.168 L367.246 236.996 L366.074 234.168 L367.246 231.34 L370.074 230.168 L372.902 231.34 L374.074 234.168 L372.902 236.996 Z" fill="#e26f46" fill-rule="evenodd" fill-opacity="1" stroke="#000000" stroke-opacity="1" stroke-width="0.6"/>
<path clip-path="url(#clip552)" d="M387.409 247.06 L384.581 245.888 L383.409 243.06 L384.581 240.232 L387.409 239.06 L390.237 240.232 L391.409 243.06 L390.237 245.888 Z" fill="#e26f46" fill-rule="evenodd" fill-opacity="1" stroke="#000000" stroke-opacity="1" stroke-width="0.6"/>
<path clip-path="url(#clip552)" d="M404.744 244.663 L401.916 243.491 L400.744 240.663 L401.916 237.835 L404.744 236.663 L407.572 237.835 L408.744 240.663 L407.572 243.491 Z" fill="#e26f46" fill-rule="evenodd" fill-opacity="1" stroke="#000000" stroke-opacity="1" stroke-width="0.6"/>
<path clip-path="url(#clip552)" d="M422.079 251.158 L419.251 249.986 L418.079 247.158 L419.251 244.33 L422.079 243.158 L424.907 244.33 L426.079 247.158 L424.907 249.986 Z" fill="#e26f46" fill-rule="evenodd" fill-opacity="1" stroke="#000000" stroke-opacity="1" stroke-width="0.6"/>
<path clip-path="url(#clip552)" d="M439.413 240.566 L436.585 239.394 L435.413 236.566 L436.585 233.738 L439.413 232.566 L442.241 233.738 L443.413 236.566 L442.241 239.394 Z" fill="#e26f46" fill-rule="evenodd" fill-opacity="1" stroke="#000000" stroke-opacity="1" stroke-width="0.6"/>
<path clip-path="url(#clip552)" d="M456.748 241.643 L453.92 240.471 L452.748 237.643 L453.92 234.815 L456.748 233.643 L459.576 234.815 L460.748 237.643 L459.576 240.471 Z" fill="#e26f46" fill-rule="evenodd" fill-opacity="1" stroke="#000000" stroke-opacity="1" stroke-width="0.6"/>
<path clip-path="url(#clip550)" d="
M395.197 80.5927 L454.714 80.5927 L454.714 35.2327 L395.197 35.2327  Z
  " fill="#ffffff" fill-rule="evenodd" fill-opacity="1"/>
<polyline clip-path="url(#clip550)" style="stroke:#000000; stroke-width:1; stroke-opacity:1; fill:none" points="
  395.197,80.5927 454.714,80.5927 454.714,35.2327 395.197,35.2327 395.197,80.5927 
  "/>
<polyline clip-path="url(#clip550)" style="stroke:#009af9; stroke-width:1; stroke-opacity:1; fill:none" points="
  399.689,50.3527 426.639,50.3527 
  "/>
<path clip-path="url(#clip550)" d="M413.164 56.7527 L408.639 54.8775 L406.764 50.3527 L408.639 45.8279 L413.164 43.9527 L417.689 45.8279 L419.564 50.3527 L417.689 54.8775 Z" fill="#009af9" fill-rule="evenodd" fill-opacity="1" stroke="#000000" stroke-opacity="1" stroke-width="0.96"/>
<path clip-path="url(#clip550)" d="M 0 0 M438.098 46.6982 L438.098 47.9309 Q437.508 47.3811 436.836 47.1091 Q436.171 46.8371 435.418 46.8371 Q433.937 46.8371 433.15 47.7457 Q432.363 48.6485 432.363 50.3614 Q432.363 52.0686 433.15 52.9771 Q433.937 53.8799 435.418 53.8799 Q436.171 53.8799 436.836 53.6079 Q437.508 53.3359 438.098 52.7862 L438.098 54.0072 Q437.484 54.4239 436.796 54.6322 Q436.113 54.8406 435.349 54.8406 Q433.387 54.8406 432.259 53.6427 Q431.13 52.439 431.13 50.3614 Q431.13 48.2781 432.259 47.0802 Q433.387 45.8765 435.349 45.8765 Q436.124 45.8765 436.807 46.0848 Q437.496 46.2874 438.098 46.6982 Z" fill="#000000" fill-rule="evenodd" fill-opacity="1" /><path clip-path="url(#clip550)" d="M 0 0 M445.731 46.6982 L445.731 47.9309 Q445.141 47.3811 444.469 47.1091 Q443.804 46.8371 443.051 46.8371 Q441.57 46.8371 440.783 47.7457 Q439.996 48.6485 439.996 50.3614 Q439.996 52.0686 440.783 52.9771 Q441.57 53.8799 443.051 53.8799 Q443.804 53.8799 444.469 53.6079 Q445.141 53.3359 445.731 52.7862 L445.731 54.0072 Q445.117 54.4239 444.429 54.6322 Q443.746 54.8406 442.982 54.8406 Q441.02 54.8406 439.892 53.6427 Q438.763 52.439 438.763 50.3614 Q438.763 48.2781 439.892 47.0802 Q441.02 45.8765 442.982 45.8765 Q443.757 45.8765 444.44 46.0848 Q445.129 46.2874 445.731 46.6982 Z" fill="#000000" fill-rule="evenodd" fill-opacity="1" /><polyline clip-path="url(#clip550)" style="stroke:#e26f46; stroke-width:1; stroke-opacity:1; fill:none" points="
  399.689,65.4727 426.639,65.4727 
  "/>
<path clip-path="url(#clip550)" d="M413.164 71.8727 L408.639 69.9975 L406.764 65.4727 L408.639 60.9479 L413.164 59.0727 L417.689 60.9479 L419.564 65.4727 L417.689 69.9975 Z" fill="#e26f46" fill-rule="evenodd" fill-opacity="1" stroke="#000000" stroke-opacity="1" stroke-width="0.96"/>
<path clip-path="url(#clip550)" d="M 0 0 M437.519 68.5601 L437.519 66.2395 L435.609 66.2395 L435.609 65.2789 L438.676 65.2789 L438.676 68.9883 Q437.999 69.4687 437.183 69.7175 Q436.367 69.9606 435.442 69.9606 Q433.416 69.9606 432.27 68.78 Q431.13 67.5937 431.13 65.4814 Q431.13 63.3634 432.27 62.1828 Q433.416 60.9965 435.442 60.9965 Q436.286 60.9965 437.045 61.2048 Q437.808 61.4132 438.451 61.8182 L438.451 63.0625 Q437.803 62.5127 437.073 62.2349 Q436.344 61.9571 435.54 61.9571 Q433.954 61.9571 433.156 62.8425 Q432.363 63.728 432.363 65.4814 Q432.363 67.2291 433.156 68.1145 Q433.954 68.9999 435.54 68.9999 Q436.159 68.9999 436.645 68.8958 Q437.131 68.7858 437.519 68.5601 Z" fill="#000000" fill-rule="evenodd" fill-opacity="1" /><path clip-path="url(#clip550)" d="M 0 0 M439.84 61.1527 L441.009 61.1527 L441.009 68.8089 L445.216 68.8089 L445.216 69.7927 L439.84 69.7927 L439.84 61.1527 Z" fill="#000000" fill-rule="evenodd" fill-opacity="1" /></svg>
