<?xml version="1.0" encoding="utf-8"?>
<svg xmlns="http://www.w3.org/2000/svg" xmlns:xlink="http://www.w3.org/1999/xlink" width="120" height="75" viewBox="0 0 480 300">
<defs>
  <clipPath id="clip580">
    <rect x="0" y="0" width="480" height="300"/>
  </clipPath>
</defs>
<path clip-path="url(#clip580)" d="
M0 300 L480 300 L480 0 L0 0  Z
  " fill="#ffffff" fill-rule="evenodd" fill-opacity="1"/>
<defs>
  <clipPath id="clip581">
    <rect x="96" y="0" width="337" height="300"/>
  </clipPath>
</defs>
<path clip-path="url(#clip580)" d="
M43.7134 273.152 L468.189 273.152 L468.189 11.811 L43.7134 11.811  Z
  " fill="#ffffff" fill-rule="evenodd" fill-opacity="1"/>
<defs>
  <clipPath id="clip582">
    <rect x="43" y="11" width="425" height="262"/>
  </clipPath>
</defs>
<polyline clip-path="url(#clip582)" style="stroke:#000000; stroke-width:0.5; stroke-opacity:0.1; fill:none" points="
  55.7269,273.152 55.7269,11.811 
  "/>
<polyline clip-path="url(#clip582)" style="stroke:#000000; stroke-width:0.5; stroke-opacity:0.1; fill:none" points="
  155.839,273.152 155.839,11.811 
  "/>
<polyline clip-path="url(#clip582)" style="stroke:#000000; stroke-width:0.5; stroke-opacity:0.1; fill:none" points="
  255.951,273.152 255.951,11.811 
  "/>
<polyline clip-path="url(#clip582)" style="stroke:#000000; stroke-width:0.5; stroke-opacity:0.1; fill:none" points="
  356.063,273.152 356.063,11.811 
  "/>
<polyline clip-path="url(#clip582)" style="stroke:#000000; stroke-width:0.5; stroke-opacity:0.1; fill:none" points="
  456.176,273.152 456.176,11.811 
  "/>
<polyline clip-path="url(#clip580)" style="stroke:#000000; stroke-width:1; stroke-opacity:1; fill:none" points="
  43.7134,273.152 468.189,273.152 
  "/>
<polyline clip-path="url(#clip580)" style="stroke:#000000; stroke-width:1; stroke-opacity:1; fill:none" points="
  55.7269,273.152 55.7269,270.016 
  "/>
<polyline clip-path="url(#clip580)" style="stroke:#000000; stroke-width:1; stroke-opacity:1; fill:none" points="
  155.839,273.152 155.839,270.016 
  "/>
<polyline clip-path="url(#clip580)" style="stroke:#000000; stroke-width:1; stroke-opacity:1; fill:none" points="
  255.951,273.152 255.951,270.016 
  "/>
<polyline clip-path="url(#clip580)" style="stroke:#000000; stroke-width:1; stroke-opacity:1; fill:none" points="
  356.063,273.152 356.063,270.016 
  "/>
<polyline clip-path="url(#clip580)" style="stroke:#000000; stroke-width:1; stroke-opacity:1; fill:none" points="
  456.176,273.152 456.176,270.016 
  "/>
<path clip-path="url(#clip580)" d="M 0 0 M44.1731 283.153 L51.5921 283.153 L51.5921 284.137 L44.1731 284.137 L44.1731 283.153 Z" fill="#000000" fill-rule="evenodd" fill-opacity="1" /><path clip-path="url(#clip580)" d="M 0 0 M53.062 286.376 L54.9717 286.376 L54.9717 279.785 L52.8941 280.201 L52.8941 279.137 L54.9601 278.72 L56.1291 278.72 L56.1291 286.376 L58.0388 286.376 L58.0388 287.36 L53.062 287.36 L53.062 286.376 Z" fill="#000000" fill-rule="evenodd" fill-opacity="1" /><path clip-path="url(#clip580)" d="M 0 0 M59.3061 285.89 L60.5272 285.89 L60.5272 287.36 L59.3061 287.36 L59.3061 285.89 Z" fill="#000000" fill-rule="evenodd" fill-opacity="1" /><path clip-path="url(#clip580)" d="M 0 0 M64.2945 279.49 Q63.3918 279.49 62.9346 280.381 Q62.4832 281.266 62.4832 283.049 Q62.4832 284.825 62.9346 285.716 Q63.3918 286.602 64.2945 286.602 Q65.2031 286.602 65.6545 285.716 Q66.1117 284.825 66.1117 283.049 Q66.1117 281.266 65.6545 280.381 Q65.2031 279.49 64.2945 279.49 M64.2945 278.564 Q65.7471 278.564 66.511 279.715 Q67.2806 280.861 67.2806 283.049 Q67.2806 285.23 66.511 286.382 Q65.7471 287.528 64.2945 287.528 Q62.842 287.528 62.0723 286.382 Q61.3084 285.23 61.3084 283.049 Q61.3084 280.861 62.0723 279.715 Q62.842 278.564 64.2945 278.564 Z" fill="#000000" fill-rule="evenodd" fill-opacity="1" /><path clip-path="url(#clip580)" d="M 0 0 M144.256 283.153 L151.675 283.153 L151.675 284.137 L144.256 284.137 L144.256 283.153 Z" fill="#000000" fill-rule="evenodd" fill-opacity="1" /><path clip-path="url(#clip580)" d="M 0 0 M155.443 279.49 Q154.54 279.49 154.083 280.381 Q153.631 281.266 153.631 283.049 Q153.631 284.825 154.083 285.716 Q154.54 286.602 155.443 286.602 Q156.351 286.602 156.803 285.716 Q157.26 284.825 157.26 283.049 Q157.26 281.266 156.803 280.381 Q156.351 279.49 155.443 279.49 M155.443 278.564 Q156.895 278.564 157.659 279.715 Q158.429 280.861 158.429 283.049 Q158.429 285.23 157.659 286.382 Q156.895 287.528 155.443 287.528 Q153.99 287.528 153.22 286.382 Q152.457 285.23 152.457 283.049 Q152.457 280.861 153.22 279.715 Q153.99 278.564 155.443 278.564 Z" fill="#000000" fill-rule="evenodd" fill-opacity="1" /><path clip-path="url(#clip580)" d="M 0 0 M159.696 285.89 L160.917 285.89 L160.917 287.36 L159.696 287.36 L159.696 285.89 Z" fill="#000000" fill-rule="evenodd" fill-opacity="1" /><path clip-path="url(#clip580)" d="M 0 0 M162.196 278.72 L166.785 278.72 L166.785 279.704 L163.267 279.704 L163.267 281.822 Q163.521 281.735 163.776 281.694 Q164.031 281.648 164.285 281.648 Q165.732 281.648 166.577 282.441 Q167.422 283.234 167.422 284.588 Q167.422 285.983 166.554 286.758 Q165.686 287.528 164.106 287.528 Q163.562 287.528 162.995 287.435 Q162.433 287.343 161.831 287.157 L161.831 285.983 Q162.352 286.266 162.908 286.405 Q163.463 286.544 164.083 286.544 Q165.084 286.544 165.668 286.017 Q166.253 285.491 166.253 284.588 Q166.253 283.685 165.668 283.159 Q165.084 282.632 164.083 282.632 Q163.614 282.632 163.145 282.736 Q162.682 282.84 162.196 283.06 L162.196 278.72 Z" fill="#000000" fill-rule="evenodd" fill-opacity="1" /><path clip-path="url(#clip580)" d="M 0 0 M251.33 279.49 Q250.427 279.49 249.97 280.381 Q249.519 281.266 249.519 283.049 Q249.519 284.825 249.97 285.716 Q250.427 286.602 251.33 286.602 Q252.239 286.602 252.69 285.716 Q253.147 284.825 253.147 283.049 Q253.147 281.266 252.69 280.381 Q252.239 279.49 251.33 279.49 M251.33 278.564 Q252.783 278.564 253.547 279.715 Q254.316 280.861 254.316 283.049 Q254.316 285.23 253.547 286.382 Q252.783 287.528 251.33 287.528 Q249.878 287.528 249.108 286.382 Q248.344 285.23 248.344 283.049 Q248.344 280.861 249.108 279.715 Q249.878 278.564 251.33 278.564 Z" fill="#000000" fill-rule="evenodd" fill-opacity="1" /><path clip-path="url(#clip580)" d="M 0 0 M255.584 285.89 L256.805 285.89 L256.805 287.36 L255.584 287.36 L255.584 285.89 Z" fill="#000000" fill-rule="evenodd" fill-opacity="1" /><path clip-path="url(#clip580)" d="M 0 0 M260.572 279.49 Q259.669 279.49 259.212 280.381 Q258.761 281.266 258.761 283.049 Q258.761 284.825 259.212 285.716 Q259.669 286.602 260.572 286.602 Q261.481 286.602 261.932 285.716 Q262.389 284.825 262.389 283.049 Q262.389 281.266 261.932 280.381 Q261.481 279.49 260.572 279.49 M260.572 278.564 Q262.025 278.564 262.789 279.715 Q263.558 280.861 263.558 283.049 Q263.558 285.23 262.789 286.382 Q262.025 287.528 260.572 287.528 Q259.12 287.528 258.35 286.382 Q257.586 285.23 257.586 283.049 Q257.586 280.861 258.35 279.715 Q259.12 278.564 260.572 278.564 Z" fill="#000000" fill-rule="evenodd" fill-opacity="1" /><path clip-path="url(#clip580)" d="M 0 0 M351.567 279.49 Q350.664 279.49 350.207 280.381 Q349.756 281.266 349.756 283.049 Q349.756 284.825 350.207 285.716 Q350.664 286.602 351.567 286.602 Q352.475 286.602 352.927 285.716 Q353.384 284.825 353.384 283.049 Q353.384 281.266 352.927 280.381 Q352.475 279.49 351.567 279.49 M351.567 278.564 Q353.019 278.564 353.783 279.715 Q354.553 280.861 354.553 283.049 Q354.553 285.23 353.783 286.382 Q353.019 287.528 351.567 287.528 Q350.114 287.528 349.345 286.382 Q348.581 285.23 348.581 283.049 Q348.581 280.861 349.345 279.715 Q350.114 278.564 351.567 278.564 Z" fill="#000000" fill-rule="evenodd" fill-opacity="1" /><path clip-path="url(#clip580)" d="M 0 0 M355.82 285.89 L357.041 285.89 L357.041 287.36 L355.82 287.36 L355.82 285.89 Z" fill="#000000" fill-rule="evenodd" fill-opacity="1" /><path clip-path="url(#clip580)" d="M 0 0 M358.32 278.72 L362.909 278.72 L362.909 279.704 L359.391 279.704 L359.391 281.822 Q359.646 281.735 359.9 281.694 Q360.155 281.648 360.409 281.648 Q361.856 281.648 362.701 282.441 Q363.546 283.234 363.546 284.588 Q363.546 285.983 362.678 286.758 Q361.81 287.528 360.23 287.528 Q359.686 287.528 359.119 287.435 Q358.558 287.343 357.956 287.157 L357.956 285.983 Q358.477 286.266 359.032 286.405 Q359.588 286.544 360.207 286.544 Q361.208 286.544 361.792 286.017 Q362.377 285.491 362.377 284.588 Q362.377 283.685 361.792 283.159 Q361.208 282.632 360.207 282.632 Q359.738 282.632 359.269 282.736 Q358.806 282.84 358.32 283.06 L358.32 278.72 Z" fill="#000000" fill-rule="evenodd" fill-opacity="1" /><path clip-path="url(#clip580)" d="M 0 0 M449.15 286.376 L451.06 286.376 L451.06 279.785 L448.982 280.201 L448.982 279.137 L451.048 278.72 L452.217 278.72 L452.217 286.376 L454.127 286.376 L454.127 287.36 L449.15 287.36 L449.15 286.376 Z" fill="#000000" fill-rule="evenodd" fill-opacity="1" /><path clip-path="url(#clip580)" d="M 0 0 M455.394 285.89 L456.615 285.89 L456.615 287.36 L455.394 287.36 L455.394 285.89 Z" fill="#000000" fill-rule="evenodd" fill-opacity="1" /><path clip-path="url(#clip580)" d="M 0 0 M460.383 279.49 Q459.48 279.49 459.023 280.381 Q458.571 281.266 458.571 283.049 Q458.571 284.825 459.023 285.716 Q459.48 286.602 460.383 286.602 Q461.291 286.602 461.743 285.716 Q462.2 284.825 462.2 283.049 Q462.2 281.266 461.743 280.381 Q461.291 279.49 460.383 279.49 M460.383 278.564 Q461.835 278.564 462.599 279.715 Q463.369 280.861 463.369 283.049 Q463.369 285.23 462.599 286.382 Q461.835 287.528 460.383 287.528 Q458.93 287.528 458.16 286.382 Q457.397 285.23 457.397 283.049 Q457.397 280.861 458.16 279.715 Q458.93 278.564 460.383 278.564 Z" fill="#000000" fill-rule="evenodd" fill-opacity="1" /><polyline clip-path="url(#clip582)" style="stroke:#000000; stroke-width:0.5; stroke-opacity:0.1; fill:none" points="
  43.7134,260.117 468.189,260.117 
  "/>
<polyline clip-path="url(#clip582)" style="stroke:#000000; stroke-width:0.5; stroke-opacity:0.1; fill:none" points="
  43.7134,219.374 468.189,219.374 
  "/>
<polyline clip-path="url(#clip582)" style="stroke:#000000; stroke-width:0.5; stroke-opacity:0.1; fill:none" points="
  43.7134,178.631 468.189,178.631 
  "/>
<polyline clip-path="url(#clip582)" style="stroke:#000000; stroke-width:0.5; stroke-opacity:0.1; fill:none" points="
  43.7134,137.889 468.189,137.889 
  "/>
<polyline clip-path="url(#clip582)" style="stroke:#000000; stroke-width:0.5; stroke-opacity:0.1; fill:none" points="
  43.7134,97.146 468.189,97.146 
  "/>
<polyline clip-path="url(#clip582)" style="stroke:#000000; stroke-width:0.5; stroke-opacity:0.1; fill:none" points="
  43.7134,56.4033 468.189,56.4033 
  "/>
<polyline clip-path="url(#clip582)" style="stroke:#000000; stroke-width:0.5; stroke-opacity:0.1; fill:none" points="
  43.7134,15.6606 468.189,15.6606 
  "/>
<polyline clip-path="url(#clip580)" style="stroke:#000000; stroke-width:1; stroke-opacity:1; fill:none" points="
  43.7134,273.152 43.7134,11.811 
  "/>
<polyline clip-path="url(#clip580)" style="stroke:#000000; stroke-width:1; stroke-opacity:1; fill:none" points="
  43.7134,260.117 48.8071,260.117 
  "/>
<polyline clip-path="url(#clip580)" style="stroke:#000000; stroke-width:1; stroke-opacity:1; fill:none" points="
  43.7134,219.374 48.8071,219.374 
  "/>
<polyline clip-path="url(#clip580)" style="stroke:#000000; stroke-width:1; stroke-opacity:1; fill:none" points="
  43.7134,178.631 48.8071,178.631 
  "/>
<polyline clip-path="url(#clip580)" style="stroke:#000000; stroke-width:1; stroke-opacity:1; fill:none" points="
  43.7134,137.889 48.8071,137.889 
  "/>
<polyline clip-path="url(#clip580)" style="stroke:#000000; stroke-width:1; stroke-opacity:1; fill:none" points="
  43.7134,97.146 48.8071,97.146 
  "/>
<polyline clip-path="url(#clip580)" style="stroke:#000000; stroke-width:1; stroke-opacity:1; fill:none" points="
  43.7134,56.4033 48.8071,56.4033 
  "/>
<polyline clip-path="url(#clip580)" style="stroke:#000000; stroke-width:1; stroke-opacity:1; fill:none" points="
  43.7134,15.6606 48.8071,15.6606 
  "/>
<path clip-path="url(#clip580)" d="M 0 0 M13.348 260.23 L20.767 260.23 L20.767 261.214 L13.348 261.214 L13.348 260.23 Z" fill="#000000" fill-rule="evenodd" fill-opacity="1" /><path clip-path="url(#clip580)" d="M 0 0 M24.5343 256.567 Q23.6315 256.567 23.1744 257.458 Q22.723 258.343 22.723 260.126 Q22.723 261.902 23.1744 262.793 Q23.6315 263.679 24.5343 263.679 Q25.4429 263.679 25.8943 262.793 Q26.3514 261.902 26.3514 260.126 Q26.3514 258.343 25.8943 257.458 Q25.4429 256.567 24.5343 256.567 M24.5343 255.641 Q25.9869 255.641 26.7507 256.792 Q27.5204 257.938 27.5204 260.126 Q27.5204 262.307 26.7507 263.459 Q25.9869 264.605 24.5343 264.605 Q23.0818 264.605 22.3121 263.459 Q21.5482 262.307 21.5482 260.126 Q21.5482 257.938 22.3121 256.792 Q23.0818 255.641 24.5343 255.641 Z" fill="#000000" fill-rule="evenodd" fill-opacity="1" /><path clip-path="url(#clip580)" d="M 0 0 M28.7878 262.967 L30.0088 262.967 L30.0088 264.437 L28.7878 264.437 L28.7878 262.967 Z" fill="#000000" fill-rule="evenodd" fill-opacity="1" /><path clip-path="url(#clip580)" d="M 0 0 M31.2878 255.797 L35.8768 255.797 L35.8768 256.781 L32.3583 256.781 L32.3583 258.899 Q32.613 258.812 32.8676 258.771 Q33.1222 258.725 33.3769 258.725 Q34.8236 258.725 35.6685 259.518 Q36.5134 260.311 36.5134 261.665 Q36.5134 263.06 35.6454 263.835 Q34.7773 264.605 33.1975 264.605 Q32.6535 264.605 32.0864 264.512 Q31.525 264.42 30.9232 264.234 L30.9232 263.06 Q31.444 263.343 31.9996 263.482 Q32.5551 263.621 33.1743 263.621 Q34.1755 263.621 34.76 263.094 Q35.3444 262.568 35.3444 261.665 Q35.3444 260.762 34.76 260.236 Q34.1755 259.709 33.1743 259.709 Q32.7056 259.709 32.2368 259.813 Q31.7739 259.917 31.2878 260.137 L31.2878 255.797 Z" fill="#000000" fill-rule="evenodd" fill-opacity="1" /><path clip-path="url(#clip580)" d="M 0 0 M24.2855 215.824 Q23.3827 215.824 22.9255 216.715 Q22.4741 217.6 22.4741 219.383 Q22.4741 221.159 22.9255 222.051 Q23.3827 222.936 24.2855 222.936 Q25.194 222.936 25.6454 222.051 Q26.1026 221.159 26.1026 219.383 Q26.1026 217.6 25.6454 216.715 Q25.194 215.824 24.2855 215.824 M24.2855 214.898 Q25.738 214.898 26.5019 216.05 Q27.2716 217.195 27.2716 219.383 Q27.2716 221.565 26.5019 222.716 Q25.738 223.862 24.2855 223.862 Q22.8329 223.862 22.0633 222.716 Q21.2994 221.565 21.2994 219.383 Q21.2994 217.195 22.0633 216.05 Q22.8329 214.898 24.2855 214.898 Z" fill="#000000" fill-rule="evenodd" fill-opacity="1" /><path clip-path="url(#clip580)" d="M 0 0 M28.5389 222.224 L29.76 222.224 L29.76 223.694 L28.5389 223.694 L28.5389 222.224 Z" fill="#000000" fill-rule="evenodd" fill-opacity="1" /><path clip-path="url(#clip580)" d="M 0 0 M33.5273 215.824 Q32.6245 215.824 32.1674 216.715 Q31.716 217.6 31.716 219.383 Q31.716 221.159 32.1674 222.051 Q32.6245 222.936 33.5273 222.936 Q34.4359 222.936 34.8873 222.051 Q35.3444 221.159 35.3444 219.383 Q35.3444 217.6 34.8873 216.715 Q34.4359 215.824 33.5273 215.824 M33.5273 214.898 Q34.9799 214.898 35.7437 216.05 Q36.5134 217.195 36.5134 219.383 Q36.5134 221.565 35.7437 222.716 Q34.9799 223.862 33.5273 223.862 Q32.0748 223.862 31.3051 222.716 Q30.5412 221.565 30.5412 219.383 Q30.5412 217.195 31.3051 216.05 Q32.0748 214.898 33.5273 214.898 Z" fill="#000000" fill-rule="evenodd" fill-opacity="1" /><path clip-path="url(#clip580)" d="M 0 0 M24.5343 175.081 Q23.6315 175.081 23.1744 175.972 Q22.723 176.858 22.723 178.64 Q22.723 180.417 23.1744 181.308 Q23.6315 182.193 24.5343 182.193 Q25.4429 182.193 25.8943 181.308 Q26.3514 180.417 26.3514 178.64 Q26.3514 176.858 25.8943 175.972 Q25.4429 175.081 24.5343 175.081 M24.5343 174.155 Q25.9869 174.155 26.7507 175.307 Q27.5204 176.453 27.5204 178.64 Q27.5204 180.822 26.7507 181.973 Q25.9869 183.119 24.5343 183.119 Q23.0818 183.119 22.3121 181.973 Q21.5482 180.822 21.5482 178.64 Q21.5482 176.453 22.3121 175.307 Q23.0818 174.155 24.5343 174.155 Z" fill="#000000" fill-rule="evenodd" fill-opacity="1" /><path clip-path="url(#clip580)" d="M 0 0 M28.7878 181.482 L30.0088 181.482 L30.0088 182.951 L28.7878 182.951 L28.7878 181.482 Z" fill="#000000" fill-rule="evenodd" fill-opacity="1" /><path clip-path="url(#clip580)" d="M 0 0 M31.2878 174.311 L35.8768 174.311 L35.8768 175.295 L32.3583 175.295 L32.3583 177.413 Q32.613 177.327 32.8676 177.286 Q33.1222 177.24 33.3769 177.24 Q34.8236 177.24 35.6685 178.033 Q36.5134 178.825 36.5134 180.179 Q36.5134 181.574 35.6454 182.35 Q34.7773 183.119 33.1975 183.119 Q32.6535 183.119 32.0864 183.027 Q31.525 182.934 30.9232 182.749 L30.9232 181.574 Q31.444 181.858 31.9996 181.997 Q32.5551 182.136 33.1743 182.136 Q34.1755 182.136 34.76 181.609 Q35.3444 181.082 35.3444 180.179 Q35.3444 179.277 34.76 178.75 Q34.1755 178.223 33.1743 178.223 Q32.7056 178.223 32.2368 178.328 Q31.7739 178.432 31.2878 178.652 L31.2878 174.311 Z" fill="#000000" fill-rule="evenodd" fill-opacity="1" /><path clip-path="url(#clip580)" d="M 0 0 M22.2947 141.225 L24.2045 141.225 L24.2045 134.634 L22.1269 135.05 L22.1269 133.985 L24.1929 133.569 L25.3619 133.569 L25.3619 141.225 L27.2716 141.225 L27.2716 142.209 L22.2947 142.209 L22.2947 141.225 Z" fill="#000000" fill-rule="evenodd" fill-opacity="1" /><path clip-path="url(#clip580)" d="M 0 0 M28.5389 140.739 L29.76 140.739 L29.76 142.209 L28.5389 142.209 L28.5389 140.739 Z" fill="#000000" fill-rule="evenodd" fill-opacity="1" /><path clip-path="url(#clip580)" d="M 0 0 M33.5273 134.338 Q32.6245 134.338 32.1674 135.23 Q31.716 136.115 31.716 137.897 Q31.716 139.674 32.1674 140.565 Q32.6245 141.451 33.5273 141.451 Q34.4359 141.451 34.8873 140.565 Q35.3444 139.674 35.3444 137.897 Q35.3444 136.115 34.8873 135.23 Q34.4359 134.338 33.5273 134.338 M33.5273 133.413 Q34.9799 133.413 35.7437 134.564 Q36.5134 135.71 36.5134 137.897 Q36.5134 140.079 35.7437 141.231 Q34.9799 142.377 33.5273 142.377 Q32.0748 142.377 31.3051 141.231 Q30.5412 140.079 30.5412 137.897 Q30.5412 135.71 31.3051 134.564 Q32.0748 133.413 33.5273 133.413 Z" fill="#000000" fill-rule="evenodd" fill-opacity="1" /><path clip-path="url(#clip580)" d="M 0 0 M22.5436 100.482 L24.4533 100.482 L24.4533 93.8909 L22.3758 94.3075 L22.3758 93.2427 L24.4417 92.826 L25.6107 92.826 L25.6107 100.482 L27.5204 100.482 L27.5204 101.466 L22.5436 101.466 L22.5436 100.482 Z" fill="#000000" fill-rule="evenodd" fill-opacity="1" /><path clip-path="url(#clip580)" d="M 0 0 M28.7878 99.9961 L30.0088 99.9961 L30.0088 101.466 L28.7878 101.466 L28.7878 99.9961 Z" fill="#000000" fill-rule="evenodd" fill-opacity="1" /><path clip-path="url(#clip580)" d="M 0 0 M31.2878 92.826 L35.8768 92.826 L35.8768 93.8098 L32.3583 93.8098 L32.3583 95.9279 Q32.613 95.8411 32.8676 95.8006 Q33.1222 95.7543 33.3769 95.7543 Q34.8236 95.7543 35.6685 96.5471 Q36.5134 97.3399 36.5134 98.6941 Q36.5134 100.089 35.6454 100.864 Q34.7773 101.634 33.1975 101.634 Q32.6535 101.634 32.0864 101.541 Q31.525 101.449 30.9232 101.264 L30.9232 100.089 Q31.444 100.372 31.9996 100.511 Q32.5551 100.65 33.1743 100.65 Q34.1755 100.65 34.76 100.123 Q35.3444 99.5968 35.3444 98.6941 Q35.3444 97.7913 34.76 97.2647 Q34.1755 96.7381 33.1743 96.7381 Q32.7056 96.7381 32.2368 96.8422 Q31.7739 96.9464 31.2878 97.1663 L31.2878 92.826 Z" fill="#000000" fill-rule="evenodd" fill-opacity="1" /><path clip-path="url(#clip580)" d="M 0 0 M23.1917 59.7395 L27.2716 59.7395 L27.2716 60.7233 L21.7855 60.7233 L21.7855 59.7395 Q22.451 59.0509 23.5968 57.8935 Q24.7484 56.7303 25.0436 56.3947 Q25.6049 55.7639 25.8248 55.3298 Q26.0505 54.89 26.0505 54.4676 Q26.0505 53.7789 25.5644 53.3449 Q25.0841 52.9109 24.3086 52.9109 Q23.7589 52.9109 23.1454 53.1018 Q22.5378 53.2928 21.8434 53.6805 L21.8434 52.5 Q22.5494 52.2164 23.1628 52.0718 Q23.7762 51.9271 24.2855 51.9271 Q25.6281 51.9271 26.4267 52.5984 Q27.2253 53.2697 27.2253 54.3923 Q27.2253 54.9248 27.0227 55.4051 Q26.826 55.8796 26.2994 56.5278 Q26.1547 56.6956 25.3792 57.5 Q24.6038 58.2986 23.1917 59.7395 Z" fill="#000000" fill-rule="evenodd" fill-opacity="1" /><path clip-path="url(#clip580)" d="M 0 0 M28.5389 59.2534 L29.76 59.2534 L29.76 60.7233 L28.5389 60.7233 L28.5389 59.2534 Z" fill="#000000" fill-rule="evenodd" fill-opacity="1" /><path clip-path="url(#clip580)" d="M 0 0 M33.5273 52.853 Q32.6245 52.853 32.1674 53.7442 Q31.716 54.6296 31.716 56.412 Q31.716 58.1886 32.1674 59.0798 Q32.6245 59.9652 33.5273 59.9652 Q34.4359 59.9652 34.8873 59.0798 Q35.3444 58.1886 35.3444 56.412 Q35.3444 54.6296 34.8873 53.7442 Q34.4359 52.853 33.5273 52.853 M33.5273 51.9271 Q34.9799 51.9271 35.7437 53.0787 Q36.5134 54.2245 36.5134 56.412 Q36.5134 58.5937 35.7437 59.7453 Q34.9799 60.8912 33.5273 60.8912 Q32.0748 60.8912 31.3051 59.7453 Q30.5412 58.5937 30.5412 56.412 Q30.5412 54.2245 31.3051 53.0787 Q32.0748 51.9271 33.5273 51.9271 Z" fill="#000000" fill-rule="evenodd" fill-opacity="1" /><path clip-path="url(#clip580)" d="M 0 0 M23.4406 18.9968 L27.5204 18.9968 L27.5204 19.9806 L22.0343 19.9806 L22.0343 18.9968 Q22.6998 18.3082 23.8457 17.1508 Q24.9973 15.9876 25.2924 15.6519 Q25.8538 15.0212 26.0737 14.5871 Q26.2994 14.1473 26.2994 13.7249 Q26.2994 13.0362 25.8132 12.6022 Q25.3329 12.1682 24.5575 12.1682 Q24.0077 12.1682 23.3943 12.3591 Q22.7866 12.5501 22.0922 12.9378 L22.0922 11.7573 Q22.7982 11.4737 23.4116 11.329 Q24.0251 11.1844 24.5343 11.1844 Q25.8769 11.1844 26.6755 11.8557 Q27.4741 12.527 27.4741 13.6496 Q27.4741 14.182 27.2716 14.6624 Q27.0748 15.1369 26.5482 15.785 Q26.4035 15.9529 25.6281 16.7573 Q24.8526 17.5559 23.4406 18.9968 Z" fill="#000000" fill-rule="evenodd" fill-opacity="1" /><path clip-path="url(#clip580)" d="M 0 0 M28.7878 18.5107 L30.0088 18.5107 L30.0088 19.9806 L28.7878 19.9806 L28.7878 18.5107 Z" fill="#000000" fill-rule="evenodd" fill-opacity="1" /><path clip-path="url(#clip580)" d="M 0 0 M31.2878 11.3406 L35.8768 11.3406 L35.8768 12.3244 L32.3583 12.3244 L32.3583 14.4425 Q32.613 14.3556 32.8676 14.3151 Q33.1222 14.2688 33.3769 14.2688 Q34.8236 14.2688 35.6685 15.0617 Q36.5134 15.8545 36.5134 17.2086 Q36.5134 18.6033 35.6454 19.3788 Q34.7773 20.1484 33.1975 20.1484 Q32.6535 20.1484 32.0864 20.0558 Q31.525 19.9633 30.9232 19.7781 L30.9232 18.6033 Q31.444 18.8869 31.9996 19.0258 Q32.5551 19.1647 33.1743 19.1647 Q34.1755 19.1647 34.76 18.638 Q35.3444 18.1114 35.3444 17.2086 Q35.3444 16.3059 34.76 15.7793 Q34.1755 15.2526 33.1743 15.2526 Q32.7056 15.2526 32.2368 15.3568 Q31.7739 15.461 31.2878 15.6809 L31.2878 11.3406 Z" fill="#000000" fill-rule="evenodd" fill-opacity="1" /><circle clip-path="url(#clip582)" cx="55.7269" cy="256.57" r="3" fill="#009af9" fill-rule="evenodd" fill-opacity="1" stroke="#000000" stroke-opacity="1" stroke-width="0.6"/>
<circle clip-path="url(#clip582)" cx="89.0976" cy="197.346" r="3" fill="#009af9" fill-rule="evenodd" fill-opacity="1" stroke="#000000" stroke-opacity="1" stroke-width="0.6"/>
<circle clip-path="url(#clip582)" cx="122.468" cy="265.756" r="3" fill="#009af9" fill-rule="evenodd" fill-opacity="1" stroke="#000000" stroke-opacity="1" stroke-width="0.6"/>
<circle clip-path="url(#clip582)" cx="155.839" cy="217.581" r="3" fill="#009af9" fill-rule="evenodd" fill-opacity="1" stroke="#000000" stroke-opacity="1" stroke-width="0.6"/>
<circle clip-path="url(#clip582)" cx="189.21" cy="252.726" r="3" fill="#009af9" fill-rule="evenodd" fill-opacity="1" stroke="#000000" stroke-opacity="1" stroke-width="0.6"/>
<circle clip-path="url(#clip582)" cx="222.58" cy="222.927" r="3" fill="#009af9" fill-rule="evenodd" fill-opacity="1" stroke="#000000" stroke-opacity="1" stroke-width="0.6"/>
<circle clip-path="url(#clip582)" cx="255.951" cy="219.374" r="3" fill="#009af9" fill-rule="evenodd" fill-opacity="1" stroke="#000000" stroke-opacity="1" stroke-width="0.6"/>
<circle clip-path="url(#clip582)" cx="289.322" cy="211.294" r="3" fill="#009af9" fill-rule="evenodd" fill-opacity="1" stroke="#000000" stroke-opacity="1" stroke-width="0.6"/>
<circle clip-path="url(#clip582)" cx="322.693" cy="167.915" r="3" fill="#009af9" fill-rule="evenodd" fill-opacity="1" stroke="#000000" stroke-opacity="1" stroke-width="0.6"/>
<circle clip-path="url(#clip582)" cx="356.063" cy="180.425" r="3" fill="#009af9" fill-rule="evenodd" fill-opacity="1" stroke="#000000" stroke-opacity="1" stroke-width="0.6"/>
<circle clip-path="url(#clip582)" cx="389.434" cy="100.561" r="3" fill="#009af9" fill-rule="evenodd" fill-opacity="1" stroke="#000000" stroke-opacity="1" stroke-width="0.6"/>
<circle clip-path="url(#clip582)" cx="422.805" cy="128.228" r="3" fill="#009af9" fill-rule="evenodd" fill-opacity="1" stroke="#000000" stroke-opacity="1" stroke-width="0.6"/>
<circle clip-path="url(#clip582)" cx="456.176" cy="19.2075" r="3" fill="#009af9" fill-rule="evenodd" fill-opacity="1" stroke="#000000" stroke-opacity="1" stroke-width="0.6"/>
<path clip-path="url(#clip580)" d="
M195.691 50.7624 L265.384 50.7624 L265.384 20.5224 L195.691 20.5224  Z
  " fill="#ffffff" fill-rule="evenodd" fill-opacity="1"/>
<polyline clip-path="url(#clip580)" style="stroke:#000000; stroke-width:1; stroke-opacity:1; fill:none" points="
  195.691,50.7624 265.384,50.7624 265.384,20.5224 195.691,20.5224 195.691,50.7624 
  "/>
<circle clip-path="url(#clip580)" cx="214.557" cy="35.6424" r="5" fill="#009af9" fill-rule="evenodd" fill-opacity="1" stroke="#000000" stroke-opacity="1" stroke-width="0.96"/>
<path clip-path="url(#clip580)" d="M 0 0 M238.15 34.4647 L238.15 30.9578 L239.215 30.9578 L239.215 39.9624 L238.15 39.9624 L238.15 38.9902 Q237.815 39.5689 237.3 39.8524 Q236.79 40.1302 236.073 40.1302 Q234.898 40.1302 234.157 39.1927 Q233.422 38.2552 233.422 36.7275 Q233.422 35.1997 234.157 34.2622 Q234.898 33.3247 236.073 33.3247 Q236.79 33.3247 237.3 33.6083 Q237.815 33.886 238.15 34.4647 M234.522 36.7275 Q234.522 37.9022 235.002 38.5735 Q235.488 39.239 236.333 39.239 Q237.178 39.239 237.664 38.5735 Q238.15 37.9022 238.15 36.7275 Q238.15 35.5527 237.664 34.8872 Q237.178 34.2159 236.333 34.2159 Q235.488 34.2159 235.002 34.8872 Q234.522 35.5527 234.522 36.7275 Z" fill="#000000" fill-rule="evenodd" fill-opacity="1" /><path clip-path="url(#clip580)" d="M 0 0 M243.278 36.7043 Q241.987 36.7043 241.489 36.9994 Q240.992 37.2946 240.992 38.0064 Q240.992 38.5735 241.362 38.9092 Q241.738 39.239 242.381 39.239 Q243.266 39.239 243.798 38.614 Q244.337 37.9832 244.337 36.9416 L244.337 36.7043 L243.278 36.7043 M245.401 36.2645 L245.401 39.9624 L244.337 39.9624 L244.337 38.9786 Q243.972 39.5689 243.428 39.8524 Q242.884 40.1302 242.097 40.1302 Q241.102 40.1302 240.511 39.5747 Q239.927 39.0133 239.927 38.0758 Q239.927 36.9821 240.656 36.4265 Q241.391 35.871 242.844 35.871 L244.337 35.871 L244.337 35.7668 Q244.337 35.0319 243.851 34.6326 Q243.37 34.2275 242.496 34.2275 Q241.941 34.2275 241.414 34.3606 Q240.888 34.4937 240.402 34.7599 L240.402 33.7761 Q240.986 33.5504 241.536 33.4404 Q242.086 33.3247 242.606 33.3247 Q244.013 33.3247 244.707 34.0539 Q245.401 34.783 245.401 36.2645 Z" fill="#000000" fill-rule="evenodd" fill-opacity="1" /><path clip-path="url(#clip580)" d="M 0 0 M247.572 31.6407 L247.572 33.4809 L249.765 33.4809 L249.765 34.3085 L247.572 34.3085 L247.572 37.827 Q247.572 38.6198 247.786 38.8455 Q248.006 39.0712 248.671 39.0712 L249.765 39.0712 L249.765 39.9624 L248.671 39.9624 Q247.439 39.9624 246.97 39.5052 Q246.501 39.0423 246.501 37.827 L246.501 34.3085 L245.72 34.3085 L245.72 33.4809 L246.501 33.4809 L246.501 31.6407 L247.572 31.6407 Z" fill="#000000" fill-rule="evenodd" fill-opacity="1" /><path clip-path="url(#clip580)" d="M 0 0 M253.827 36.7043 Q252.537 36.7043 252.039 36.9994 Q251.541 37.2946 251.541 38.0064 Q251.541 38.5735 251.912 38.9092 Q252.288 39.239 252.93 39.239 Q253.816 39.239 254.348 38.614 Q254.886 37.9832 254.886 36.9416 L254.886 36.7043 L253.827 36.7043 M255.951 36.2645 L255.951 39.9624 L254.886 39.9624 L254.886 38.9786 Q254.522 39.5689 253.978 39.8524 Q253.434 40.1302 252.647 40.1302 Q251.651 40.1302 251.061 39.5747 Q250.477 39.0133 250.477 38.0758 Q250.477 36.9821 251.206 36.4265 Q251.941 35.871 253.393 35.871 L254.886 35.871 L254.886 35.7668 Q254.886 35.0319 254.4 34.6326 Q253.92 34.2275 253.046 34.2275 Q252.491 34.2275 251.964 34.3606 Q251.437 34.4937 250.951 34.7599 L250.951 33.7761 Q251.536 33.5504 252.085 33.4404 Q252.635 33.3247 253.156 33.3247 Q254.562 33.3247 255.257 34.0539 Q255.951 34.783 255.951 36.2645 Z" fill="#000000" fill-rule="evenodd" fill-opacity="1" /></svg>
