<?xml version="1.0" encoding="utf-8"?>
<svg xmlns="http://www.w3.org/2000/svg" xmlns:xlink="http://www.w3.org/1999/xlink" width="120" height="75" viewBox="0 0 480 300">
<defs>
  <clipPath id="clip540">
    <rect x="0" y="0" width="480" height="300"/>
  </clipPath>
</defs>
<path clip-path="url(#clip540)" d="
M0 300 L480 300 L480 0 L0 0  Z
  " fill="#ffffff" fill-rule="evenodd" fill-opacity="1"/>
<defs>
  <clipPath id="clip541">
    <rect x="96" y="0" width="337" height="300"/>
  </clipPath>
</defs>
<path clip-path="url(#clip540)" d="
M43.7134 273.152 L468.189 273.152 L468.189 11.811 L43.7134 11.811  Z
  " fill="#ffffff" fill-rule="evenodd" fill-opacity="1"/>
<defs>
  <clipPath id="clip542">
    <rect x="43" y="11" width="425" height="262"/>
  </clipPath>
</defs>
<polyline clip-path="url(#clip542)" style="stroke:#000000; stroke-width:0.5; stroke-opacity:0.1; fill:none" points="
  55.7269,273.152 55.7269,11.811 
  "/>
<polyline clip-path="url(#clip542)" style="stroke:#000000; stroke-width:0.5; stroke-opacity:0.1; fill:none" points="
  155.839,273.152 155.839,11.811 
  "/>
<polyline clip-path="url(#clip542)" style="stroke:#000000; stroke-width:0.5; stroke-opacity:0.1; fill:none" points="
  255.951,273.152 255.951,11.811 
  "/>
<polyline clip-path="url(#clip542)" style="stroke:#000000; stroke-width:0.5; stroke-opacity:0.1; fill:none" points="
  356.063,273.152 356.063,11.811 
  "/>
<polyline clip-path="url(#clip542)" style="stroke:#000000; stroke-width:0.5; stroke-opacity:0.1; fill:none" points="
  456.176,273.152 456.176,11.811 
  "/>
<polyline clip-path="url(#clip540)" style="stroke:#000000; stroke-width:1; stroke-opacity:1; fill:none" points="
  43.7134,273.152 468.189,273.152 
  "/>
<polyline clip-path="url(#clip540)" style="stroke:#000000; stroke-width:1; stroke-opacity:1; fill:none" points="
  55.7269,273.152 55.7269,270.016 
  "/>
<polyline clip-path="url(#clip540)" style="stroke:#000000; stroke-width:1; stroke-opacity:1; fill:none" points="
  155.839,273.152 155.839,270.016 
  "/>
<polyline clip-path="url(#clip540)" style="stroke:#000000; stroke-width:1; stroke-opacity:1; fill:none" points="
  255.951,273.152 255.951,270.016 
  "/>
<polyline clip-path="url(#clip540)" style="stroke:#000000; stroke-width:1; stroke-opacity:1; fill:none" points="
  356.063,273.152 356.063,270.016 
  "/>
<polyline clip-path="url(#clip540)" style="stroke:#000000; stroke-width:1; stroke-opacity:1; fill:none" points="
  456.176,273.152 456.176,270.016 
  "/>
<path clip-path="url(#clip540)" d="M 0 0 M44.1731 283.153 L51.5921 283.153 L51.5921 284.137 L44.1731 284.137 L44.1731 283.153 Z" fill="#000000" fill-rule="evenodd" fill-opacity="1" /><path clip-path="url(#clip540)" d="M 0 0 M53.062 286.376 L54.9717 286.376 L54.9717 279.785 L52.8941 280.201 L52.8941 279.137 L54.9601 278.72 L56.1291 278.72 L56.1291 286.376 L58.0388 286.376 L58.0388 287.36 L53.062 287.36 L53.062 286.376 Z" fill="#000000" fill-rule="evenodd" fill-opacity="1" /><path clip-path="url(#clip540)" d="M 0 0 M59.3061 285.89 L60.5272 285.89 L60.5272 287.36 L59.3061 287.36 L59.3061 285.89 Z" fill="#000000" fill-rule="evenodd" fill-opacity="1" /><path clip-path="url(#clip540)" d="M 0 0 M64.2945 279.49 Q63.3918 279.49 62.9346 280.381 Q62.4832 281.266 62.4832 283.049 Q62.4832 284.825 62.9346 285.716 Q63.3918 286.602 64.2945 286.602 Q65.2031 286.602 65.6545 285.716 Q66.1117 284.825 66.1117 283.049 Q66.1117 281.266 65.6545 280.381 Q65.2031 279.49 64.2945 279.49 M64.2945 278.564 Q65.7471 278.564 66.511 279.715 Q67.2806 280.861 67.2806 283.049 Q67.2806 285.23 66.511 286.382 Q65.7471 287.528 64.2945 287.528 Q62.842 287.528 62.0723 286.382 Q61.3084 285.23 61.3084 283.049 Q61.3084 280.861 62.0723 279.715 Q62.842 278.564 64.2945 278.564 Z" fill="#000000" fill-rule="evenodd" fill-opacity="1" /><path clip-path="url(#clip540)" d="M 0 0 M144.256 283.153 L151.675 283.153 L151.675 284.137 L144.256 284.137 L144.256 283.153 Z" fill="#000000" fill-rule="evenodd" fill-opacity="1" /><path clip-path="url(#clip540)" d="M 0 0 M155.443 279.49 Q154.54 279.49 154.083 280.381 Q153.631 281.266 153.631 283.049 Q153.631 284.825 154.083 285.716 Q154.54 286.602 155.443 286.602 Q156.351 286.602 156.803 285.716 Q157.26 284.825 157.26 283.049 Q157.26 281.266 156.803 280.381 Q156.351 279.49 155.443 279.49 M155.443 278.564 Q156.895 278.564 157.659 279.715 Q158.429 280.861 158.429 283.049 Q158.429 285.23 157.659 286.382 Q156.895 287.528 155.443 287.528 Q153.99 287.528 153.22 286.382 Q152.457 285.23 152.457 283.049 Q152.457 280.861 153.22 279.715 Q153.99 278.564 155.443 278.564 Z" fill="#000000" fill-rule="evenodd" fill-opacity="1" /><path clip-path="url(#clip540)" d="M 0 0 M159.696 285.89 L160.917 285.89 L160.917 287.36 L159.696 287.36 L159.696 285.89 Z" fill="#000000" fill-rule="evenodd" fill-opacity="1" /><path clip-path="url(#clip540)" d="M 0 0 M162.196 278.72 L166.785 278.72 L166.785 279.704 L163.267 279.704 L163.267 281.822 Q163.521 281.735 163.776 281.694 Q164.031 281.648 164.285 281.648 Q165.732 281.648 166.577 282.441 Q167.422 283.234 167.422 284.588 Q167.422 285.983 166.554 286.758 Q165.686 287.528 164.106 287.528 Q163.562 287.528 162.995 287.435 Q162.433 287.343 161.831 287.157 L161.831 285.983 Q162.352 286.266 162.908 286.405 Q163.463 286.544 164.083 286.544 Q165.084 286.544 165.668 286.017 Q166.253 285.491 166.253 284.588 Q166.253 283.685 165.668 283.159 Q165.084 282.632 164.083 282.632 Q163.614 282.632 163.145 282.736 Q162.682 282.84 162.196 283.06 L162.196 278.72 Z" fill="#000000" fill-rule="evenodd" fill-opacity="1" /><path clip-path="url(#clip540)" d="M 0 0 M251.33 279.49 Q250.427 279.49 249.97 280.381 Q249.519 281.266 249.519 283.049 Q249.519 284.825 249.97 285.716 Q250.427 286.602 251.33 286.602 Q252.239 286.602 252.69 285.716 Q253.147 284.825 253.147 283.049 Q253.147 281.266 252.69 280.381 Q252.239 279.49 251.33 279.49 M251.33 278.564 Q252.783 278.564 253.547 279.715 Q254.316 280.861 254.316 283.049 Q254.316 285.23 253.547 286.382 Q252.783 287.528 251.33 287.528 Q249.878 287.528 249.108 286.382 Q248.344 285.23 248.344 283.049 Q248.344 280.861 249.108 279.715 Q249.878 278.564 251.33 278.564 Z" fill="#000000" fill-rule="evenodd" fill-opacity="1" /><path clip-path="url(#clip540)" d="M 0 0 M255.584 285.89 L256.805 285.89 L256.805 287.36 L255.584 287.36 L255.584 285.89 Z" fill="#000000" fill-rule="evenodd" fill-opacity="1" /><path clip-path="url(#clip540)" d="M 0 0 M260.572 279.49 Q259.669 279.49 259.212 280.381 Q258.761 281.266 258.761 283.049 Q258.761 284.825 259.212 285.716 Q259.669 286.602 260.572 286.602 Q261.481 286.602 261.932 285.716 Q262.389 284.825 262.389 283.049 Q262.389 281.266 261.932 280.381 Q261.481 279.49 260.572 279.49 M260.572 278.564 Q262.025 278.564 262.789 279.715 Q263.558 280.861 263.558 283.049 Q263.558 285.23 262.789 286.382 Q262.025 287.528 260.572 287.528 Q259.12 287.528 258.35 286.382 Q257.586 285.23 257.586 283.049 Q257.586 280.861 258.35 279.715 Q259.12 278.564 260.572 278.564 Z" fill="#000000" fill-rule="evenodd" fill-opacity="1" /><path clip-path="url(#clip540)" d="M 0 0 M351.567 279.49 Q350.664 279.49 350.207 280.381 Q349.756 281.266 349.756 283.049 Q349.756 284.825 350.207 285.716 Q350.664 286.602 351.567 286.602 Q352.475 286.602 352.927 285.716 Q353.384 284.825 353.384 283.049 Q353.384 281.266 352.927 280.381 Q352.475 279.49 351.567 279.49 M351.567 278.564 Q353.019 278.564 353.783 279.715 Q354.553 280.861 354.553 283.049 Q354.553 285.23 353.783 286.382 Q353.019 287.528 351.567 287.528 Q350.114 287.528 349.345 286.382 Q348.581 285.23 348.581 283.049 Q348.581 280.861 349.345 279.715 Q350.114 278.564 351.567 278.564 Z" fill="#000000" fill-rule="evenodd" fill-opacity="1" /><path clip-path="url(#clip540)" d="M 0 0 M355.82 285.89 L357.041 285.89 L357.041 287.36 L355.82 287.36 L355.82 285.89 Z" fill="#000000" fill-rule="evenodd" fill-opacity="1" /><path clip-path="url(#clip540)" d="M 0 0 M358.32 278.72 L362.909 278.72 L362.909 279.704 L359.391 279.704 L359.391 281.822 Q359.646 281.735 359.9 281.694 Q360.155 281.648 360.409 281.648 Q361.856 281.648 362.701 282.441 Q363.546 283.234 363.546 284.588 Q363.546 285.983 362.678 286.758 Q361.81 287.528 360.23 287.528 Q359.686 287.528 359.119 287.435 Q358.558 287.343 357.956 287.157 L357.956 285.983 Q358.477 286.266 359.032 286.405 Q359.588 286.544 360.207 286.544 Q361.208 286.544 361.792 286.017 Q362.377 285.491 362.377 284.588 Q362.377 283.685 361.792 283.159 Q361.208 282.632 360.207 282.632 Q359.738 282.632 359.269 282.736 Q358.806 282.84 358.32 283.06 L358.32 278.72 Z" fill="#000000" fill-rule="evenodd" fill-opacity="1" /><path clip-path="url(#clip540)" d="M 0 0 M449.15 286.376 L451.06 286.376 L451.06 279.785 L448.982 280.201 L448.982 279.137 L451.048 278.72 L452.217 278.72 L452.217 286.376 L454.127 286.376 L454.127 287.36 L449.15 287.36 L449.15 286.376 Z" fill="#000000" fill-rule="evenodd" fill-opacity="1" /><path clip-path="url(#clip540)" d="M 0 0 M455.394 285.89 L456.615 285.89 L456.615 287.36 L455.394 287.36 L455.394 285.89 Z" fill="#000000" fill-rule="evenodd" fill-opacity="1" /><path clip-path="url(#clip540)" d="M 0 0 M460.383 279.49 Q459.48 279.49 459.023 280.381 Q458.571 281.266 458.571 283.049 Q458.571 284.825 459.023 285.716 Q459.48 286.602 460.383 286.602 Q461.291 286.602 461.743 285.716 Q462.2 284.825 462.2 283.049 Q462.2 281.266 461.743 280.381 Q461.291 279.49 460.383 279.49 M460.383 278.564 Q461.835 278.564 462.599 279.715 Q463.369 280.861 463.369 283.049 Q463.369 285.23 462.599 286.382 Q461.835 287.528 460.383 287.528 Q458.93 287.528 458.16 286.382 Q457.397 285.23 457.397 283.049 Q457.397 280.861 458.16 279.715 Q458.93 278.564 460.383 278.564 Z" fill="#000000" fill-rule="evenodd" fill-opacity="1" /><polyline clip-path="url(#clip542)" style="stroke:#000000; stroke-width:0.5; stroke-opacity:0.1; fill:none" points="
  43.7134,264.756 468.189,264.756 
  "/>
<polyline clip-path="url(#clip542)" style="stroke:#000000; stroke-width:0.5; stroke-opacity:0.1; fill:none" points="
  43.7134,228.541 468.189,228.541 
  "/>
<polyline clip-path="url(#clip542)" style="stroke:#000000; stroke-width:0.5; stroke-opacity:0.1; fill:none" points="
  43.7134,192.326 468.189,192.326 
  "/>
<polyline clip-path="url(#clip542)" style="stroke:#000000; stroke-width:0.5; stroke-opacity:0.1; fill:none" points="
  43.7134,156.111 468.189,156.111 
  "/>
<polyline clip-path="url(#clip542)" style="stroke:#000000; stroke-width:0.5; stroke-opacity:0.1; fill:none" points="
  43.7134,119.895 468.189,119.895 
  "/>
<polyline clip-path="url(#clip542)" style="stroke:#000000; stroke-width:0.5; stroke-opacity:0.1; fill:none" points="
  43.7134,83.6804 468.189,83.6804 
  "/>
<polyline clip-path="url(#clip542)" style="stroke:#000000; stroke-width:0.5; stroke-opacity:0.1; fill:none" points="
  43.7134,47.4652 468.189,47.4652 
  "/>
<polyline clip-path="url(#clip540)" style="stroke:#000000; stroke-width:1; stroke-opacity:1; fill:none" points="
  43.7134,273.152 43.7134,11.811 
  "/>
<polyline clip-path="url(#clip540)" style="stroke:#000000; stroke-width:1; stroke-opacity:1; fill:none" points="
  43.7134,264.756 48.8071,264.756 
  "/>
<polyline clip-path="url(#clip540)" style="stroke:#000000; stroke-width:1; stroke-opacity:1; fill:none" points="
  43.7134,228.541 48.8071,228.541 
  "/>
<polyline clip-path="url(#clip540)" style="stroke:#000000; stroke-width:1; stroke-opacity:1; fill:none" points="
  43.7134,192.326 48.8071,192.326 
  "/>
<polyline clip-path="url(#clip540)" style="stroke:#000000; stroke-width:1; stroke-opacity:1; fill:none" points="
  43.7134,156.111 48.8071,156.111 
  "/>
<polyline clip-path="url(#clip540)" style="stroke:#000000; stroke-width:1; stroke-opacity:1; fill:none" points="
  43.7134,119.895 48.8071,119.895 
  "/>
<polyline clip-path="url(#clip540)" style="stroke:#000000; stroke-width:1; stroke-opacity:1; fill:none" points="
  43.7134,83.6804 48.8071,83.6804 
  "/>
<polyline clip-path="url(#clip540)" style="stroke:#000000; stroke-width:1; stroke-opacity:1; fill:none" points="
  43.7134,47.4652 48.8071,47.4652 
  "/>
<path clip-path="url(#clip540)" d="M 0 0 M13.5737 264.869 L20.9927 264.869 L20.9927 265.853 L13.5737 265.853 L13.5737 264.869 Z" fill="#000000" fill-rule="evenodd" fill-opacity="1" /><path clip-path="url(#clip540)" d="M 0 0 M21.9649 260.436 L27.5204 260.436 L27.5204 260.934 L24.3839 269.076 L23.1628 269.076 L26.1142 261.42 L21.9649 261.42 L21.9649 260.436 Z" fill="#000000" fill-rule="evenodd" fill-opacity="1" /><path clip-path="url(#clip540)" d="M 0 0 M28.7878 267.606 L30.0088 267.606 L30.0088 269.076 L28.7878 269.076 L28.7878 267.606 Z" fill="#000000" fill-rule="evenodd" fill-opacity="1" /><path clip-path="url(#clip540)" d="M 0 0 M31.2878 260.436 L35.8768 260.436 L35.8768 261.42 L32.3583 261.42 L32.3583 263.538 Q32.613 263.451 32.8676 263.41 Q33.1222 263.364 33.3769 263.364 Q34.8236 263.364 35.6685 264.157 Q36.5134 264.95 36.5134 266.304 Q36.5134 267.699 35.6454 268.474 Q34.7773 269.244 33.1975 269.244 Q32.6535 269.244 32.0864 269.151 Q31.525 269.059 30.9232 268.873 L30.9232 267.699 Q31.444 267.982 31.9996 268.121 Q32.5551 268.26 33.1743 268.26 Q34.1755 268.26 34.76 267.733 Q35.3444 267.207 35.3444 266.304 Q35.3444 265.401 34.76 264.875 Q34.1755 264.348 33.1743 264.348 Q32.7056 264.348 32.2368 264.452 Q31.7739 264.556 31.2878 264.776 L31.2878 260.436 Z" fill="#000000" fill-rule="evenodd" fill-opacity="1" /><path clip-path="url(#clip540)" d="M 0 0 M13.348 228.654 L20.767 228.654 L20.767 229.637 L13.348 229.637 L13.348 228.654 Z" fill="#000000" fill-rule="evenodd" fill-opacity="1" /><path clip-path="url(#clip540)" d="M 0 0 M22.0459 224.221 L26.635 224.221 L26.635 225.205 L23.1165 225.205 L23.1165 227.323 Q23.3711 227.236 23.6258 227.195 Q23.8804 227.149 24.135 227.149 Q25.5818 227.149 26.4267 227.942 Q27.2716 228.735 27.2716 230.089 Q27.2716 231.483 26.4035 232.259 Q25.5355 233.029 23.9556 233.029 Q23.4116 233.029 22.8445 232.936 Q22.2832 232.843 21.6813 232.658 L21.6813 231.483 Q22.2022 231.767 22.7577 231.906 Q23.3133 232.045 23.9325 232.045 Q24.9336 232.045 25.5181 231.518 Q26.1026 230.992 26.1026 230.089 Q26.1026 229.186 25.5181 228.659 Q24.9336 228.133 23.9325 228.133 Q23.4637 228.133 22.995 228.237 Q22.532 228.341 22.0459 228.561 L22.0459 224.221 Z" fill="#000000" fill-rule="evenodd" fill-opacity="1" /><path clip-path="url(#clip540)" d="M 0 0 M28.5389 231.391 L29.76 231.391 L29.76 232.861 L28.5389 232.861 L28.5389 231.391 Z" fill="#000000" fill-rule="evenodd" fill-opacity="1" /><path clip-path="url(#clip540)" d="M 0 0 M33.5273 224.99 Q32.6245 224.99 32.1674 225.882 Q31.716 226.767 31.716 228.549 Q31.716 230.326 32.1674 231.217 Q32.6245 232.103 33.5273 232.103 Q34.4359 232.103 34.8873 231.217 Q35.3444 230.326 35.3444 228.549 Q35.3444 226.767 34.8873 225.882 Q34.4359 224.99 33.5273 224.99 M33.5273 224.065 Q34.9799 224.065 35.7437 225.216 Q36.5134 226.362 36.5134 228.549 Q36.5134 230.731 35.7437 231.883 Q34.9799 233.029 33.5273 233.029 Q32.0748 233.029 31.3051 231.883 Q30.5412 230.731 30.5412 228.549 Q30.5412 226.362 31.3051 225.216 Q32.0748 224.065 33.5273 224.065 Z" fill="#000000" fill-rule="evenodd" fill-opacity="1" /><path clip-path="url(#clip540)" d="M 0 0 M13.7473 192.439 L21.1663 192.439 L21.1663 193.422 L13.7473 193.422 L13.7473 192.439 Z" fill="#000000" fill-rule="evenodd" fill-opacity="1" /><path clip-path="url(#clip540)" d="M 0 0 M23.4406 195.662 L27.5204 195.662 L27.5204 196.646 L22.0343 196.646 L22.0343 195.662 Q22.6998 194.973 23.8457 193.816 Q24.9973 192.653 25.2924 192.317 Q25.8538 191.686 26.0737 191.252 Q26.2994 190.812 26.2994 190.39 Q26.2994 189.701 25.8132 189.267 Q25.3329 188.833 24.5575 188.833 Q24.0077 188.833 23.3943 189.024 Q22.7866 189.215 22.0922 189.603 L22.0922 188.422 Q22.7982 188.139 23.4116 187.994 Q24.0251 187.849 24.5343 187.849 Q25.8769 187.849 26.6755 188.521 Q27.4741 189.192 27.4741 190.315 Q27.4741 190.847 27.2716 191.327 Q27.0748 191.802 26.5482 192.45 Q26.4035 192.618 25.6281 193.422 Q24.8526 194.221 23.4406 195.662 Z" fill="#000000" fill-rule="evenodd" fill-opacity="1" /><path clip-path="url(#clip540)" d="M 0 0 M28.7878 195.176 L30.0088 195.176 L30.0088 196.646 L28.7878 196.646 L28.7878 195.176 Z" fill="#000000" fill-rule="evenodd" fill-opacity="1" /><path clip-path="url(#clip540)" d="M 0 0 M31.2878 188.006 L35.8768 188.006 L35.8768 188.989 L32.3583 188.989 L32.3583 191.108 Q32.613 191.021 32.8676 190.98 Q33.1222 190.934 33.3769 190.934 Q34.8236 190.934 35.6685 191.727 Q36.5134 192.52 36.5134 193.874 Q36.5134 195.268 35.6454 196.044 Q34.7773 196.814 33.1975 196.814 Q32.6535 196.814 32.0864 196.721 Q31.525 196.628 30.9232 196.443 L30.9232 195.268 Q31.444 195.552 31.9996 195.691 Q32.5551 195.83 33.1743 195.83 Q34.1755 195.83 34.76 195.303 Q35.3444 194.776 35.3444 193.874 Q35.3444 192.971 34.76 192.444 Q34.1755 191.918 33.1743 191.918 Q32.7056 191.918 32.2368 192.022 Q31.7739 192.126 31.2878 192.346 L31.2878 188.006 Z" fill="#000000" fill-rule="evenodd" fill-opacity="1" /><path clip-path="url(#clip540)" d="M 0 0 M24.2855 152.56 Q23.3827 152.56 22.9255 153.451 Q22.4741 154.337 22.4741 156.119 Q22.4741 157.896 22.9255 158.787 Q23.3827 159.672 24.2855 159.672 Q25.194 159.672 25.6454 158.787 Q26.1026 157.896 26.1026 156.119 Q26.1026 154.337 25.6454 153.451 Q25.194 152.56 24.2855 152.56 M24.2855 151.634 Q25.738 151.634 26.5019 152.786 Q27.2716 153.932 27.2716 156.119 Q27.2716 158.301 26.5019 159.453 Q25.738 160.598 24.2855 160.598 Q22.8329 160.598 22.0633 159.453 Q21.2994 158.301 21.2994 156.119 Q21.2994 153.932 22.0633 152.786 Q22.8329 151.634 24.2855 151.634 Z" fill="#000000" fill-rule="evenodd" fill-opacity="1" /><path clip-path="url(#clip540)" d="M 0 0 M28.5389 158.961 L29.76 158.961 L29.76 160.431 L28.5389 160.431 L28.5389 158.961 Z" fill="#000000" fill-rule="evenodd" fill-opacity="1" /><path clip-path="url(#clip540)" d="M 0 0 M33.5273 152.56 Q32.6245 152.56 32.1674 153.451 Q31.716 154.337 31.716 156.119 Q31.716 157.896 32.1674 158.787 Q32.6245 159.672 33.5273 159.672 Q34.4359 159.672 34.8873 158.787 Q35.3444 157.896 35.3444 156.119 Q35.3444 154.337 34.8873 153.451 Q34.4359 152.56 33.5273 152.56 M33.5273 151.634 Q34.9799 151.634 35.7437 152.786 Q36.5134 153.932 36.5134 156.119 Q36.5134 158.301 35.7437 159.453 Q34.9799 160.598 33.5273 160.598 Q32.0748 160.598 31.3051 159.453 Q30.5412 158.301 30.5412 156.119 Q30.5412 153.932 31.3051 152.786 Q32.0748 151.634 33.5273 151.634 Z" fill="#000000" fill-rule="evenodd" fill-opacity="1" /><path clip-path="url(#clip540)" d="M 0 0 M23.4406 123.232 L27.5204 123.232 L27.5204 124.215 L22.0343 124.215 L22.0343 123.232 Q22.6998 122.543 23.8457 121.386 Q24.9973 120.222 25.2924 119.887 Q25.8538 119.256 26.0737 118.822 Q26.2994 118.382 26.2994 117.96 Q26.2994 117.271 25.8132 116.837 Q25.3329 116.403 24.5575 116.403 Q24.0077 116.403 23.3943 116.594 Q22.7866 116.785 22.0922 117.173 L22.0922 115.992 Q22.7982 115.709 23.4116 115.564 Q24.0251 115.419 24.5343 115.419 Q25.8769 115.419 26.6755 116.091 Q27.4741 116.762 27.4741 117.884 Q27.4741 118.417 27.2716 118.897 Q27.0748 119.372 26.5482 120.02 Q26.4035 120.188 25.6281 120.992 Q24.8526 121.791 23.4406 123.232 Z" fill="#000000" fill-rule="evenodd" fill-opacity="1" /><path clip-path="url(#clip540)" d="M 0 0 M28.7878 122.746 L30.0088 122.746 L30.0088 124.215 L28.7878 124.215 L28.7878 122.746 Z" fill="#000000" fill-rule="evenodd" fill-opacity="1" /><path clip-path="url(#clip540)" d="M 0 0 M31.2878 115.575 L35.8768 115.575 L35.8768 116.559 L32.3583 116.559 L32.3583 118.677 Q32.613 118.59 32.8676 118.55 Q33.1222 118.504 33.3769 118.504 Q34.8236 118.504 35.6685 119.297 Q36.5134 120.089 36.5134 121.443 Q36.5134 122.838 35.6454 123.614 Q34.7773 124.383 33.1975 124.383 Q32.6535 124.383 32.0864 124.291 Q31.525 124.198 30.9232 124.013 L30.9232 122.838 Q31.444 123.122 31.9996 123.261 Q32.5551 123.399 33.1743 123.399 Q34.1755 123.399 34.76 122.873 Q35.3444 122.346 35.3444 121.443 Q35.3444 120.541 34.76 120.014 Q34.1755 119.487 33.1743 119.487 Q32.7056 119.487 32.2368 119.592 Q31.7739 119.696 31.2878 119.916 L31.2878 115.575 Z" fill="#000000" fill-rule="evenodd" fill-opacity="1" /><path clip-path="url(#clip540)" d="M 0 0 M22.0459 79.3604 L26.635 79.3604 L26.635 80.3441 L23.1165 80.3441 L23.1165 82.4622 Q23.3711 82.3754 23.6258 82.3349 Q23.8804 82.2886 24.135 82.2886 Q25.5818 82.2886 26.4267 83.0814 Q27.2716 83.8742 27.2716 85.2284 Q27.2716 86.623 26.4035 87.3985 Q25.5355 88.1682 23.9556 88.1682 Q23.4116 88.1682 22.8445 88.0756 Q22.2832 87.983 21.6813 87.7978 L21.6813 86.623 Q22.2022 86.9066 22.7577 87.0455 Q23.3133 87.1844 23.9325 87.1844 Q24.9336 87.1844 25.5181 86.6578 Q26.1026 86.1312 26.1026 85.2284 Q26.1026 84.3256 25.5181 83.799 Q24.9336 83.2724 23.9325 83.2724 Q23.4637 83.2724 22.995 83.3765 Q22.532 83.4807 22.0459 83.7006 L22.0459 79.3604 Z" fill="#000000" fill-rule="evenodd" fill-opacity="1" /><path clip-path="url(#clip540)" d="M 0 0 M28.5389 86.5305 L29.76 86.5305 L29.76 88.0004 L28.5389 88.0004 L28.5389 86.5305 Z" fill="#000000" fill-rule="evenodd" fill-opacity="1" /><path clip-path="url(#clip540)" d="M 0 0 M33.5273 80.13 Q32.6245 80.13 32.1674 81.0212 Q31.716 81.9066 31.716 83.689 Q31.716 85.4656 32.1674 86.3568 Q32.6245 87.2423 33.5273 87.2423 Q34.4359 87.2423 34.8873 86.3568 Q35.3444 85.4656 35.3444 83.689 Q35.3444 81.9066 34.8873 81.0212 Q34.4359 80.13 33.5273 80.13 M33.5273 79.2041 Q34.9799 79.2041 35.7437 80.3557 Q36.5134 81.5015 36.5134 83.689 Q36.5134 85.8707 35.7437 87.0224 Q34.9799 88.1682 33.5273 88.1682 Q32.0748 88.1682 31.3051 87.0224 Q30.5412 85.8707 30.5412 83.689 Q30.5412 81.5015 31.3051 80.3557 Q32.0748 79.2041 33.5273 79.2041 Z" fill="#000000" fill-rule="evenodd" fill-opacity="1" /><path clip-path="url(#clip540)" d="M 0 0 M21.9649 43.1452 L27.5204 43.1452 L27.5204 43.6429 L24.3839 51.7852 L23.1628 51.7852 L26.1142 44.129 L21.9649 44.129 L21.9649 43.1452 Z" fill="#000000" fill-rule="evenodd" fill-opacity="1" /><path clip-path="url(#clip540)" d="M 0 0 M28.7878 50.3153 L30.0088 50.3153 L30.0088 51.7852 L28.7878 51.7852 L28.7878 50.3153 Z" fill="#000000" fill-rule="evenodd" fill-opacity="1" /><path clip-path="url(#clip540)" d="M 0 0 M31.2878 43.1452 L35.8768 43.1452 L35.8768 44.129 L32.3583 44.129 L32.3583 46.2471 Q32.613 46.1603 32.8676 46.1198 Q33.1222 46.0735 33.3769 46.0735 Q34.8236 46.0735 35.6685 46.8663 Q36.5134 47.6591 36.5134 49.0133 Q36.5134 50.4079 35.6454 51.1834 Q34.7773 51.9531 33.1975 51.9531 Q32.6535 51.9531 32.0864 51.8605 Q31.525 51.7679 30.9232 51.5827 L30.9232 50.4079 Q31.444 50.6915 31.9996 50.8304 Q32.5551 50.9693 33.1743 50.9693 Q34.1755 50.9693 34.76 50.4427 Q35.3444 49.916 35.3444 49.0133 Q35.3444 48.1105 34.76 47.5839 Q34.1755 47.0573 33.1743 47.0573 Q32.7056 47.0573 32.2368 47.1614 Q31.7739 47.2656 31.2878 47.4855 L31.2878 43.1452 Z" fill="#000000" fill-rule="evenodd" fill-opacity="1" /><circle clip-path="url(#clip542)" cx="55.7269" cy="156.772" r="3" fill="#009af9" fill-rule="evenodd" fill-opacity="1" stroke="#000000" stroke-opacity="1" stroke-width="0.6"/>
<circle clip-path="url(#clip542)" cx="77.974" cy="156.905" r="3" fill="#009af9" fill-rule="evenodd" fill-opacity="1" stroke="#000000" stroke-opacity="1" stroke-width="0.6"/>
<circle clip-path="url(#clip542)" cx="100.221" cy="158.724" r="3" fill="#009af9" fill-rule="evenodd" fill-opacity="1" stroke="#000000" stroke-opacity="1" stroke-width="0.6"/>
<circle clip-path="url(#clip542)" cx="122.468" cy="159.832" r="3" fill="#009af9" fill-rule="evenodd" fill-opacity="1" stroke="#000000" stroke-opacity="1" stroke-width="0.6"/>
<circle clip-path="url(#clip542)" cx="144.715" cy="158.968" r="3" fill="#009af9" fill-rule="evenodd" fill-opacity="1" stroke="#000000" stroke-opacity="1" stroke-width="0.6"/>
<circle clip-path="url(#clip542)" cx="166.963" cy="160.057" r="3" fill="#009af9" fill-rule="evenodd" fill-opacity="1" stroke="#000000" stroke-opacity="1" stroke-width="0.6"/>
<circle clip-path="url(#clip542)" cx="189.21" cy="159.601" r="3" fill="#009af9" fill-rule="evenodd" fill-opacity="1" stroke="#000000" stroke-opacity="1" stroke-width="0.6"/>
<circle clip-path="url(#clip542)" cx="211.457" cy="157.916" r="3" fill="#009af9" fill-rule="evenodd" fill-opacity="1" stroke="#000000" stroke-opacity="1" stroke-width="0.6"/>
<circle clip-path="url(#clip542)" cx="233.704" cy="158.117" r="3" fill="#009af9" fill-rule="evenodd" fill-opacity="1" stroke="#000000" stroke-opacity="1" stroke-width="0.6"/>
<circle clip-path="url(#clip542)" cx="255.951" cy="156.111" r="3" fill="#009af9" fill-rule="evenodd" fill-opacity="1" stroke="#000000" stroke-opacity="1" stroke-width="0.6"/>
<circle clip-path="url(#clip542)" cx="278.198" cy="153.746" r="3" fill="#009af9" fill-rule="evenodd" fill-opacity="1" stroke="#000000" stroke-opacity="1" stroke-width="0.6"/>
<circle clip-path="url(#clip542)" cx="300.445" cy="152.875" r="3" fill="#009af9" fill-rule="evenodd" fill-opacity="1" stroke="#000000" stroke-opacity="1" stroke-width="0.6"/>
<circle clip-path="url(#clip542)" cx="322.693" cy="149.401" r="3" fill="#009af9" fill-rule="evenodd" fill-opacity="1" stroke="#000000" stroke-opacity="1" stroke-width="0.6"/>
<circle clip-path="url(#clip542)" cx="344.94" cy="146.441" r="3" fill="#009af9" fill-rule="evenodd" fill-opacity="1" stroke="#000000" stroke-opacity="1" stroke-width="0.6"/>
<circle clip-path="url(#clip542)" cx="367.187" cy="144.311" r="3" fill="#009af9" fill-rule="evenodd" fill-opacity="1" stroke="#000000" stroke-opacity="1" stroke-width="0.6"/>
<circle clip-path="url(#clip542)" cx="389.434" cy="139.512" r="3" fill="#009af9" fill-rule="evenodd" fill-opacity="1" stroke="#000000" stroke-opacity="1" stroke-width="0.6"/>
<circle clip-path="url(#clip542)" cx="411.681" cy="135.971" r="3" fill="#009af9" fill-rule="evenodd" fill-opacity="1" stroke="#000000" stroke-opacity="1" stroke-width="0.6"/>
<circle clip-path="url(#clip542)" cx="433.928" cy="132.424" r="3" fill="#009af9" fill-rule="evenodd" fill-opacity="1" stroke="#000000" stroke-opacity="1" stroke-width="0.6"/>
<circle clip-path="url(#clip542)" cx="456.176" cy="126.477" r="3" fill="#009af9" fill-rule="evenodd" fill-opacity="1" stroke="#000000" stroke-opacity="1" stroke-width="0.6"/>
<polyline clip-path="url(#clip542)" style="stroke:#e26f46; stroke-width:2; stroke-opacity:1; fill:none" points="
  55.7269,156.772 56.1277,134.194 56.5286,114.26 56.9294,96.7702 57.3303,81.5369 57.7311,68.383 58.132,57.1421 58.5328,47.658 58.9337,39.7838 59.3345,33.3818 
  59.7354,28.323 60.1362,24.4863 60.5371,21.7587 60.9379,20.0345 61.3388,19.2147 61.7396,19.2075 62.1405,19.9268 62.5413,21.2928 62.9422,23.2314 63.343,25.6735 
  63.7439,28.5553 64.1447,31.8178 64.5456,35.4063 64.9464,39.2703 65.3473,43.3637 65.7481,47.6437 66.149,52.0713 66.5498,56.6108 66.9507,61.2295 67.3515,65.8979 
  67.7524,70.5891 68.1532,75.2786 68.5541,79.9448 68.9549,84.5679 69.3558,89.1305 69.7566,93.6171 70.1575,98.0139 70.5583,102.309 70.9592,106.492 71.36,110.554 
  71.7609,114.487 72.1617,118.286 72.5626,121.945 72.9634,125.46 73.3643,128.828 73.7651,132.047 74.166,135.115 74.5668,138.033 74.9677,140.8 75.3685,143.417 
  75.7694,145.885 76.1702,148.206 76.571,150.383 76.9719,152.418 77.3727,154.314 77.7736,156.075 78.1744,157.704 78.5753,159.205 78.9761,160.582 79.377,161.839 
  79.7778,162.981 80.1787,164.013 80.5795,164.938 80.9804,165.761 81.3812,166.487 81.7821,167.121 82.1829,167.668 82.5838,168.131 82.9846,168.516 83.3855,168.826 
  83.7863,169.067 84.1872,169.243 84.588,169.358 84.9889,169.417 85.3897,169.423 85.7906,169.38 86.1914,169.293 86.5923,169.165 86.9931,168.999 87.394,168.8 
  87.7948,168.57 88.1957,168.314 88.5965,168.033 88.9974,167.731 89.3982,167.411 89.7991,167.075 90.1999,166.727 90.6008,166.367 91.0016,166 91.4025,165.626 
  91.8033,165.248 92.2042,164.868 92.605,164.488 93.0059,164.109 93.4067,163.732 93.8076,163.36 94.2084,162.993 94.6093,162.633 95.0101,162.28 95.411,161.937 
  95.8118,161.603 96.2127,161.279 96.6135,160.966 97.0144,160.665 97.4152,160.376 97.8161,160.1 98.2169,159.837 98.6178,159.587 99.0186,159.351 99.4195,159.128 
  99.8203,158.919 100.221,158.724 100.622,158.543 101.023,158.376 101.424,158.222 101.825,158.081 102.225,157.954 102.626,157.84 103.027,157.739 103.428,157.65 
  103.829,157.573 104.23,157.508 104.631,157.454 105.031,157.411 105.432,157.379 105.833,157.357 106.234,157.345 106.635,157.342 107.036,157.347 107.436,157.361 
  107.837,157.383 108.238,157.412 108.639,157.448 109.04,157.49 109.441,157.538 109.842,157.591 110.242,157.65 110.643,157.713 111.044,157.78 111.445,157.85 
  111.846,157.924 112.247,158 112.648,158.079 113.048,158.159 113.449,158.241 113.85,158.324 114.251,158.408 114.652,158.492 115.053,158.576 115.453,158.66 
  115.854,158.744 116.255,158.826 116.656,158.907 117.057,158.987 117.458,159.066 117.859,159.142 118.259,159.217 118.66,159.289 119.061,159.358 119.462,159.425 
  119.863,159.49 120.264,159.551 120.664,159.609 121.065,159.665 121.466,159.717 121.867,159.765 122.268,159.811 122.669,159.853 123.07,159.892 123.47,159.927 
  123.871,159.959 124.272,159.987 124.673,160.012 125.074,160.033 125.475,160.052 125.876,160.066 126.276,160.078 126.677,160.086 127.078,160.092 127.479,160.094 
  127.88,160.093 128.281,160.089 128.681,160.083 129.082,160.074 129.483,160.062 129.884,160.048 130.285,160.032 130.686,160.013 131.087,159.992 131.487,159.969 
  131.888,159.945 132.289,159.919 132.69,159.891 133.091,159.862 133.492,159.831 133.893,159.8 134.293,159.767 134.694,159.734 135.095,159.699 135.496,159.665 
  135.897,159.629 136.298,159.594 136.698,159.558 137.099,159.522 137.5,159.486 137.901,159.45 138.302,159.415 138.703,159.38 139.104,159.346 139.504,159.312 
  139.905,159.278 140.306,159.246 140.707,159.215 141.108,159.184 141.509,159.155 141.91,159.127 142.31,159.1 142.711,159.074 143.112,159.05 143.513,159.027 
  143.914,159.006 144.315,158.986 144.715,158.968 145.116,158.951 145.517,158.937 145.918,158.924 146.319,158.912 146.72,158.903 147.121,158.895 147.521,158.889 
  147.922,158.885 148.323,158.882 148.724,158.882 149.125,158.883 149.526,158.886 149.927,158.891 150.327,158.897 150.728,158.906 151.129,158.916 151.53,158.927 
  151.931,158.941 152.332,158.955 152.732,158.972 153.133,158.99 153.534,159.009 153.935,159.03 154.336,159.052 154.737,159.076 155.138,159.1 155.538,159.126 
  155.939,159.153 156.34,159.181 156.741,159.211 157.142,159.241 157.543,159.271 157.943,159.303 158.344,159.335 158.745,159.368 159.146,159.402 159.547,159.436 
  159.948,159.47 160.349,159.505 160.749,159.539 161.15,159.575 161.551,159.61 161.952,159.645 162.353,159.68 162.754,159.715 163.155,159.75 163.555,159.785 
  163.956,159.819 164.357,159.852 164.758,159.886 165.159,159.919 165.56,159.951 165.96,159.982 166.361,160.013 166.762,160.043 167.163,160.072 167.564,160.1 
  167.965,160.127 168.366,160.153 168.766,160.178 169.167,160.201 169.568,160.224 169.969,160.245 170.37,160.266 170.771,160.284 171.172,160.302 171.572,160.318 
  171.973,160.332 172.374,160.346 172.775,160.357 173.176,160.368 173.577,160.376 173.977,160.384 174.378,160.389 174.779,160.393 175.18,160.396 175.581,160.397 
  175.982,160.396 176.383,160.394 176.783,160.39 177.184,160.385 177.585,160.378 177.986,160.369 178.387,160.359 178.788,160.347 179.189,160.334 179.589,160.32 
  179.99,160.304 180.391,160.286 180.792,160.267 181.193,160.247 181.594,160.225 181.994,160.202 182.395,160.177 182.796,160.151 183.197,160.124 183.598,160.096 
  183.999,160.067 184.4,160.037 184.8,160.005 185.201,159.972 185.602,159.939 186.003,159.904 186.404,159.869 186.805,159.833 187.206,159.796 187.606,159.758 
  188.007,159.72 188.408,159.681 188.809,159.641 189.21,159.601 189.611,159.56 190.011,159.519 190.412,159.477 190.813,159.436 191.214,159.394 191.615,159.351 
  192.016,159.309 192.417,159.267 192.817,159.224 193.218,159.181 193.619,159.139 194.02,159.097 194.421,159.054 194.822,159.012 195.222,158.971 195.623,158.929 
  196.024,158.888 196.425,158.848 196.826,158.807 197.227,158.768 197.628,158.728 198.028,158.69 198.429,158.652 198.83,158.615 199.231,158.578 199.632,158.542 
  200.033,158.507 200.434,158.473 200.834,158.439 201.235,158.406 201.636,158.375 202.037,158.344 202.438,158.314 202.839,158.285 203.239,158.257 203.64,158.23 
  204.041,158.204 204.442,158.179 204.843,158.155 205.244,158.133 205.645,158.111 206.045,158.09 206.446,158.071 206.847,158.052 207.248,158.035 207.649,158.018 
  208.05,158.003 208.451,157.989 208.851,157.976 209.252,157.964 209.653,157.953 210.054,157.943 210.455,157.934 210.856,157.926 211.256,157.919 211.657,157.913 
  212.058,157.908 212.459,157.904 212.86,157.901 213.261,157.899 213.662,157.897 214.062,157.897 214.463,157.897 214.864,157.898 215.265,157.9 215.666,157.903 
  216.067,157.906 216.468,157.91 216.868,157.915 217.269,157.92 217.67,157.925 218.071,157.931 218.472,157.938 218.873,157.945 219.273,157.953 219.674,157.96 
  220.075,157.968 220.476,157.977 220.877,157.985 221.278,157.994 221.679,158.003 222.079,158.012 222.48,158.021 222.881,158.03 223.282,158.038 223.683,158.047 
  224.084,158.056 224.485,158.064 224.885,158.073 225.286,158.081 225.687,158.088 226.088,158.096 226.489,158.103 226.89,158.109 227.29,158.115 227.691,158.121 
  228.092,158.126 228.493,158.13 228.894,158.134 229.295,158.137 229.696,158.139 230.096,158.141 230.497,158.142 230.898,158.142 231.299,158.141 231.7,158.14 
  232.101,158.137 232.502,158.134 232.902,158.129 233.303,158.124 233.704,158.117 234.105,158.11 234.506,158.101 234.907,158.092 235.307,158.081 235.708,158.069 
  236.109,158.056 236.51,158.042 236.911,158.027 237.312,158.011 237.713,157.993 238.113,157.975 238.514,157.955 238.915,157.934 239.316,157.912 239.717,157.888 
  240.118,157.864 240.518,157.838 240.919,157.811 241.32,157.783 241.721,157.753 242.122,157.723 242.523,157.691 242.924,157.658 243.324,157.624 243.725,157.589 
  244.126,157.553 244.527,157.516 244.928,157.478 245.329,157.438 245.73,157.398 246.13,157.356 246.531,157.314 246.932,157.271 247.333,157.226 247.734,157.181 
  248.135,157.135 248.535,157.088 248.936,157.04 249.337,156.992 249.738,156.943 250.139,156.893 250.54,156.842 250.941,156.791 251.341,156.739 251.742,156.686 
  252.143,156.633 252.544,156.58 252.945,156.526 253.346,156.472 253.747,156.417 254.147,156.362 254.548,156.306 254.949,156.251 255.35,156.195 255.751,156.139 
  256.152,156.082 256.552,156.026 256.953,155.97 257.354,155.913 257.755,155.857 258.156,155.801 258.557,155.745 258.958,155.689 259.358,155.633 259.759,155.577 
  260.16,155.522 260.561,155.467 260.962,155.412 261.363,155.358 261.764,155.304 262.164,155.251 262.565,155.198 262.966,155.145 263.367,155.093 263.768,155.042 
  264.169,154.991 264.569,154.941 264.97,154.892 265.371,154.843 265.772,154.795 266.173,154.748 266.574,154.701 266.975,154.656 267.375,154.611 267.776,154.567 
  268.177,154.524 268.578,154.481 268.979,154.44 269.38,154.4 269.781,154.36 270.181,154.321 270.582,154.284 270.983,154.247 271.384,154.211 271.785,154.176 
  272.186,154.142 272.586,154.109 272.987,154.077 273.388,154.046 273.789,154.016 274.19,153.987 274.591,153.959 274.992,153.932 275.392,153.906 275.793,153.88 
  276.194,153.856 276.595,153.832 276.996,153.809 277.397,153.787 277.797,153.766 278.198,153.746 278.599,153.727 279,153.708 279.401,153.69 279.802,153.673 
  280.203,153.657 280.603,153.641 281.004,153.626 281.405,153.611 281.806,153.597 282.207,153.584 282.608,153.571 283.009,153.558 283.409,153.546 283.81,153.534 
  284.211,153.523 284.612,153.512 285.013,153.501 285.414,153.491 285.814,153.481 286.215,153.471 286.616,153.461 287.017,153.451 287.418,153.441 287.819,153.431 
  288.22,153.421 288.62,153.411 289.021,153.401 289.422,153.391 289.823,153.38 290.224,153.37 290.625,153.358 291.026,153.347 291.426,153.335 291.827,153.323 
  292.228,153.31 292.629,153.296 293.03,153.282 293.431,153.268 293.831,153.253 294.232,153.237 294.633,153.22 295.034,153.203 295.435,153.185 295.836,153.165 
  296.237,153.145 296.637,153.125 297.038,153.103 297.439,153.08 297.84,153.056 298.241,153.031 298.642,153.005 299.043,152.978 299.443,152.95 299.844,152.921 
  300.245,152.89 300.646,152.859 301.047,152.826 301.448,152.791 301.848,152.756 302.249,152.719 302.65,152.682 303.051,152.642 303.452,152.602 303.853,152.56 
  304.254,152.517 304.654,152.472 305.055,152.427 305.456,152.38 305.857,152.331 306.258,152.281 306.659,152.23 307.06,152.178 307.46,152.125 307.861,152.07 
  308.262,152.013 308.663,151.956 309.064,151.897 309.465,151.838 309.865,151.777 310.266,151.714 310.667,151.651 311.068,151.587 311.469,151.521 311.87,151.454 
  312.271,151.387 312.671,151.318 313.072,151.249 313.473,151.178 313.874,151.107 314.275,151.034 314.676,150.961 315.076,150.887 315.477,150.813 315.878,150.738 
  316.279,150.662 316.68,150.585 317.081,150.508 317.482,150.431 317.882,150.353 318.283,150.274 318.684,150.196 319.085,150.117 319.486,150.037 319.887,149.958 
  320.288,149.878 320.688,149.799 321.089,149.719 321.49,149.64 321.891,149.56 322.292,149.481 322.693,149.401 323.093,149.322 323.494,149.244 323.895,149.165 
  324.296,149.087 324.697,149.01 325.098,148.933 325.499,148.857 325.899,148.781 326.3,148.706 326.701,148.631 327.102,148.558 327.503,148.485 327.904,148.413 
  328.305,148.342 328.705,148.271 329.106,148.202 329.507,148.134 329.908,148.067 330.309,148.001 330.71,147.936 331.11,147.872 331.511,147.809 331.912,147.748 
  332.313,147.687 332.714,147.628 333.115,147.571 333.516,147.514 333.916,147.459 334.317,147.405 334.718,147.353 335.119,147.302 335.52,147.252 335.921,147.203 
  336.322,147.156 336.722,147.111 337.123,147.066 337.524,147.023 337.925,146.981 338.326,146.941 338.727,146.902 339.127,146.864 339.528,146.827 339.929,146.792 
  340.33,146.758 340.731,146.725 341.132,146.693 341.533,146.663 341.933,146.633 342.334,146.604 342.735,146.577 343.136,146.55 343.537,146.525 343.938,146.5 
  344.339,146.476 344.739,146.452 345.14,146.43 345.541,146.408 345.942,146.387 346.343,146.366 346.744,146.345 347.144,146.325 347.545,146.306 347.946,146.286 
  348.347,146.267 348.748,146.248 349.149,146.229 349.55,146.21 349.95,146.191 350.351,146.171 350.752,146.152 351.153,146.132 351.554,146.111 351.955,146.091 
  352.355,146.069 352.756,146.047 353.157,146.024 353.558,146.001 353.959,145.977 354.36,145.951 354.761,145.925 355.161,145.897 355.562,145.869 355.963,145.839 
  356.364,145.808 356.765,145.776 357.166,145.742 357.567,145.707 357.967,145.67 358.368,145.631 358.769,145.591 359.17,145.55 359.571,145.506 359.972,145.461 
  360.372,145.414 360.773,145.365 361.174,145.314 361.575,145.261 361.976,145.206 362.377,145.15 362.778,145.091 363.178,145.03 363.579,144.967 363.98,144.903 
  364.381,144.836 364.782,144.767 365.183,144.696 365.584,144.623 365.984,144.548 366.385,144.471 366.786,144.392 367.187,144.311 367.588,144.229 367.989,144.144 
  368.389,144.058 368.79,143.97 369.191,143.88 369.592,143.789 369.993,143.696 370.394,143.601 370.795,143.506 371.195,143.408 371.596,143.31 371.997,143.211 
  372.398,143.11 372.799,143.009 373.2,142.906 373.601,142.803 374.001,142.7 374.402,142.595 374.803,142.491 375.204,142.386 375.605,142.281 376.006,142.176 
  376.406,142.071 376.807,141.966 377.208,141.862 377.609,141.758 378.01,141.655 378.411,141.552 378.812,141.451 379.212,141.35 379.613,141.251 380.014,141.153 
  380.415,141.056 380.816,140.962 381.217,140.868 381.618,140.777 382.018,140.688 382.419,140.6 382.82,140.515 383.221,140.433 383.622,140.352 384.023,140.274 
  384.423,140.199 384.824,140.127 385.225,140.057 385.626,139.991 386.027,139.927 386.428,139.867 386.829,139.809 387.229,139.755 387.63,139.703 388.031,139.655 
  388.432,139.61 388.833,139.569 389.234,139.53 389.635,139.495 390.035,139.463 390.436,139.434 390.837,139.408 391.238,139.385 391.639,139.365 392.04,139.348 
  392.44,139.333 392.841,139.321 393.242,139.311 393.643,139.303 394.044,139.298 394.445,139.294 394.846,139.292 395.246,139.291 395.647,139.292 396.048,139.293 
  396.449,139.295 396.85,139.298 397.251,139.3 397.651,139.303 398.052,139.304 398.453,139.305 398.854,139.304 399.255,139.301 399.656,139.297 400.057,139.29 
  400.457,139.28 400.858,139.267 401.259,139.249 401.66,139.228 402.061,139.202 402.462,139.171 402.863,139.134 403.263,139.091 403.664,139.041 404.065,138.984 
  404.466,138.92 404.867,138.848 405.268,138.767 405.668,138.677 406.069,138.578 406.47,138.469 406.871,138.35 407.272,138.219 407.673,138.078 408.074,137.925 
  408.474,137.76 408.875,137.582 409.276,137.392 409.677,137.189 410.078,136.973 410.479,136.743 410.88,136.499 411.28,136.242 411.681,135.971 412.082,135.685 
  412.483,135.386 412.884,135.072 413.285,134.745 413.685,134.404 414.086,134.049 414.487,133.681 414.888,133.3 415.289,132.907 415.69,132.502 416.091,132.086 
  416.491,131.659 416.892,131.222 417.293,130.776 417.694,130.322 418.095,129.862 418.496,129.395 418.897,128.924 419.297,128.451 419.698,127.976 420.099,127.501 
  420.5,127.028 420.901,126.558 421.302,126.095 421.702,125.64 422.103,125.195 422.504,124.763 422.905,124.346 423.306,123.948 423.707,123.57 424.108,123.216 
  424.508,122.889 424.909,122.592 425.31,122.328 425.711,122.102 426.112,121.916 426.513,121.775 426.914,121.682 427.314,121.641 427.715,121.657 428.116,121.733 
  428.517,121.874 428.918,122.085 429.319,122.369 429.719,122.732 430.12,123.177 430.521,123.71 430.922,124.335 431.323,125.057 431.724,125.881 432.125,126.81 
  432.525,127.85 432.926,129.005 433.327,130.28 433.728,131.678 434.129,133.203 434.53,134.861 434.93,136.653 435.331,138.584 435.732,140.657 436.133,142.874 
  436.534,145.238 436.935,147.75 437.336,150.412 437.736,153.224 438.137,156.187 438.538,159.301 438.939,162.563 439.34,165.971 439.741,169.524 440.142,173.216 
  440.542,177.043 440.943,180.998 441.344,185.073 441.745,189.261 442.146,193.55 442.547,197.928 442.947,202.383 443.348,206.897 443.749,211.455 444.15,216.036 
  444.551,220.618 444.952,225.177 445.353,229.686 445.753,234.115 446.154,238.433 446.555,242.603 446.956,246.585 447.357,250.339 447.758,253.816 448.159,256.967 
  448.559,259.738 448.96,262.068 449.361,263.895 449.762,265.149 450.163,265.756 450.564,265.636 450.964,264.703 451.365,262.866 451.766,260.025 452.167,256.075 
  452.568,250.902 452.969,244.386 453.37,236.397 453.77,226.799 454.171,215.443 454.572,202.174 454.973,186.826 455.374,169.221 455.775,149.171 456.176,126.477 
  
  "/>
<path clip-path="url(#clip540)" d="
M162.04 65.8824 L265.384 65.8824 L265.384 20.5224 L162.04 20.5224  Z
  " fill="#ffffff" fill-rule="evenodd" fill-opacity="1"/>
<polyline clip-path="url(#clip540)" style="stroke:#000000; stroke-width:1; stroke-opacity:1; fill:none" points="
  162.04,65.8824 265.384,65.8824 265.384,20.5224 162.04,20.5224 162.04,65.8824 
  "/>
<circle clip-path="url(#clip540)" cx="180.905" cy="35.6424" r="5" fill="#009af9" fill-rule="evenodd" fill-opacity="1" stroke="#000000" stroke-opacity="1" stroke-width="0.96"/>
<path clip-path="url(#clip540)" d="M 0 0 M204.499 34.4647 L204.499 30.9578 L205.564 30.9578 L205.564 39.9624 L204.499 39.9624 L204.499 38.9902 Q204.163 39.5689 203.648 39.8524 Q203.139 40.1302 202.421 40.1302 Q201.247 40.1302 200.506 39.1927 Q199.771 38.2552 199.771 36.7275 Q199.771 35.1997 200.506 34.2622 Q201.247 33.3247 202.421 33.3247 Q203.139 33.3247 203.648 33.6083 Q204.163 33.886 204.499 34.4647 M200.87 36.7275 Q200.87 37.9022 201.351 38.5735 Q201.837 39.239 202.682 39.239 Q203.527 39.239 204.013 38.5735 Q204.499 37.9022 204.499 36.7275 Q204.499 35.5527 204.013 34.8872 Q203.527 34.2159 202.682 34.2159 Q201.837 34.2159 201.351 34.8872 Q200.87 35.5527 200.87 36.7275 Z" fill="#000000" fill-rule="evenodd" fill-opacity="1" /><path clip-path="url(#clip540)" d="M 0 0 M209.626 36.7043 Q208.336 36.7043 207.838 36.9994 Q207.34 37.2946 207.34 38.0064 Q207.34 38.5735 207.711 38.9092 Q208.087 39.239 208.729 39.239 Q209.615 39.239 210.147 38.614 Q210.685 37.9832 210.685 36.9416 L210.685 36.7043 L209.626 36.7043 M211.75 36.2645 L211.75 39.9624 L210.685 39.9624 L210.685 38.9786 Q210.321 39.5689 209.777 39.8524 Q209.233 40.1302 208.446 40.1302 Q207.45 40.1302 206.86 39.5747 Q206.276 39.0133 206.276 38.0758 Q206.276 36.9821 207.005 36.4265 Q207.74 35.871 209.192 35.871 L210.685 35.871 L210.685 35.7668 Q210.685 35.0319 210.199 34.6326 Q209.719 34.2275 208.845 34.2275 Q208.289 34.2275 207.763 34.3606 Q207.236 34.4937 206.75 34.7599 L206.75 33.7761 Q207.335 33.5504 207.884 33.4404 Q208.434 33.3247 208.955 33.3247 Q210.361 33.3247 211.056 34.0539 Q211.75 34.783 211.75 36.2645 Z" fill="#000000" fill-rule="evenodd" fill-opacity="1" /><path clip-path="url(#clip540)" d="M 0 0 M213.92 31.6407 L213.92 33.4809 L216.113 33.4809 L216.113 34.3085 L213.92 34.3085 L213.92 37.827 Q213.92 38.6198 214.134 38.8455 Q214.354 39.0712 215.02 39.0712 L216.113 39.0712 L216.113 39.9624 L215.02 39.9624 Q213.787 39.9624 213.318 39.5052 Q212.85 39.0423 212.85 37.827 L212.85 34.3085 L212.068 34.3085 L212.068 33.4809 L212.85 33.4809 L212.85 31.6407 L213.92 31.6407 Z" fill="#000000" fill-rule="evenodd" fill-opacity="1" /><path clip-path="url(#clip540)" d="M 0 0 M220.176 36.7043 Q218.885 36.7043 218.388 36.9994 Q217.89 37.2946 217.89 38.0064 Q217.89 38.5735 218.26 38.9092 Q218.637 39.239 219.279 39.239 Q220.164 39.239 220.697 38.614 Q221.235 37.9832 221.235 36.9416 L221.235 36.7043 L220.176 36.7043 M222.3 36.2645 L222.3 39.9624 L221.235 39.9624 L221.235 38.9786 Q220.87 39.5689 220.326 39.8524 Q219.782 40.1302 218.995 40.1302 Q218 40.1302 217.41 39.5747 Q216.825 39.0133 216.825 38.0758 Q216.825 36.9821 217.554 36.4265 Q218.289 35.871 219.742 35.871 L221.235 35.871 L221.235 35.7668 Q221.235 35.0319 220.749 34.6326 Q220.269 34.2275 219.395 34.2275 Q218.839 34.2275 218.313 34.3606 Q217.786 34.4937 217.3 34.7599 L217.3 33.7761 Q217.884 33.5504 218.434 33.4404 Q218.984 33.3247 219.505 33.3247 Q220.911 33.3247 221.605 34.0539 Q222.3 34.783 222.3 36.2645 Z" fill="#000000" fill-rule="evenodd" fill-opacity="1" /><polyline clip-path="url(#clip540)" style="stroke:#e26f46; stroke-width:1; stroke-opacity:1; fill:none" points="
  166.756,50.7624 195.055,50.7624 
  "/>
<path clip-path="url(#clip540)" d="M 0 0 M199.771 48.6009 L200.836 48.6009 L200.836 55.0824 L199.771 55.0824 L199.771 48.6009 M199.771 46.0778 L200.836 46.0778 L200.836 47.4262 L199.771 47.4262 L199.771 46.0778 Z" fill="#000000" fill-rule="evenodd" fill-opacity="1" /><path clip-path="url(#clip540)" d="M 0 0 M207.34 51.1704 L207.34 55.0824 L206.276 55.0824 L206.276 51.2051 Q206.276 50.285 205.917 49.8278 Q205.558 49.3706 204.84 49.3706 Q203.978 49.3706 203.48 49.9204 Q202.983 50.4701 202.983 51.4192 L202.983 55.0824 L201.912 55.0824 L201.912 48.6009 L202.983 48.6009 L202.983 49.6079 Q203.365 49.0234 203.88 48.734 Q204.401 48.4447 205.078 48.4447 Q206.195 48.4447 206.767 49.1391 Q207.34 49.8278 207.34 51.1704 Z" fill="#000000" fill-rule="evenodd" fill-opacity="1" /><path clip-path="url(#clip540)" d="M 0 0 M209.51 46.7607 L209.51 48.6009 L211.704 48.6009 L211.704 49.4285 L209.51 49.4285 L209.51 52.947 Q209.51 53.7398 209.725 53.9655 Q209.944 54.1912 210.61 54.1912 L211.704 54.1912 L211.704 55.0824 L210.61 55.0824 Q209.377 55.0824 208.909 54.6252 Q208.44 54.1623 208.44 52.947 L208.44 49.4285 L207.659 49.4285 L207.659 48.6009 L208.44 48.6009 L208.44 46.7607 L209.51 46.7607 Z" fill="#000000" fill-rule="evenodd" fill-opacity="1" /><path clip-path="url(#clip540)" d="M 0 0 M218.365 51.5755 L218.365 52.0963 L213.469 52.0963 Q213.538 53.1958 214.129 53.7745 Q214.725 54.3474 215.784 54.3474 Q216.397 54.3474 216.97 54.197 Q217.549 54.0465 218.116 53.7456 L218.116 54.7525 Q217.543 54.9956 216.941 55.1229 Q216.339 55.2502 215.72 55.2502 Q214.169 55.2502 213.26 54.3474 Q212.358 53.4447 212.358 51.9053 Q212.358 50.3139 213.214 49.3822 Q214.076 48.4447 215.535 48.4447 Q216.843 48.4447 217.601 49.2896 Q218.365 50.1287 218.365 51.5755 M217.3 51.263 Q217.288 50.3891 216.808 49.8683 Q216.333 49.3475 215.546 49.3475 Q214.655 49.3475 214.117 49.8509 Q213.585 50.3544 213.504 51.2688 L217.3 51.263 Z" fill="#000000" fill-rule="evenodd" fill-opacity="1" /><path clip-path="url(#clip540)" d="M 0 0 M223.237 49.5963 Q223.058 49.4921 222.844 49.4458 Q222.635 49.3938 222.381 49.3938 Q221.478 49.3938 220.992 49.984 Q220.512 50.5685 220.512 51.6681 L220.512 55.0824 L219.441 55.0824 L219.441 48.6009 L220.512 48.6009 L220.512 49.6079 Q220.847 49.0176 221.385 48.734 Q221.924 48.4447 222.693 48.4447 Q222.803 48.4447 222.936 48.4621 Q223.069 48.4736 223.231 48.5026 L223.237 49.5963 Z" fill="#000000" fill-rule="evenodd" fill-opacity="1" /><path clip-path="url(#clip540)" d="M 0 0 M225.384 54.1102 L225.384 57.5477 L224.314 57.5477 L224.314 48.6009 L225.384 48.6009 L225.384 49.5847 Q225.72 49.006 226.229 48.7283 Q226.744 48.4447 227.456 48.4447 Q228.637 48.4447 229.371 49.3822 Q230.112 50.3197 230.112 51.8475 Q230.112 53.3752 229.371 54.3127 Q228.637 55.2502 227.456 55.2502 Q226.744 55.2502 226.229 54.9724 Q225.72 54.6889 225.384 54.1102 M229.007 51.8475 Q229.007 50.6727 228.521 50.0072 Q228.04 49.3359 227.196 49.3359 Q226.351 49.3359 225.865 50.0072 Q225.384 50.6727 225.384 51.8475 Q225.384 53.0222 225.865 53.6935 Q226.351 54.359 227.196 54.359 Q228.04 54.359 228.521 53.6935 Q229.007 53.0222 229.007 51.8475 Z" fill="#000000" fill-rule="evenodd" fill-opacity="1" /><path clip-path="url(#clip540)" d="M 0 0 M233.741 49.3475 Q232.884 49.3475 232.387 50.0188 Q231.889 50.6843 231.889 51.8475 Q231.889 53.0106 232.381 53.6819 Q232.878 54.3474 233.741 54.3474 Q234.591 54.3474 235.089 53.6761 Q235.587 53.0049 235.587 51.8475 Q235.587 50.6958 235.089 50.0245 Q234.591 49.3475 233.741 49.3475 M233.741 48.4447 Q235.13 48.4447 235.922 49.3475 Q236.715 50.2502 236.715 51.8475 Q236.715 53.4389 235.922 54.3474 Q235.13 55.2502 233.741 55.2502 Q232.346 55.2502 231.553 54.3474 Q230.766 53.4389 230.766 51.8475 Q230.766 50.2502 231.553 49.3475 Q232.346 48.4447 233.741 48.4447 Z" fill="#000000" fill-rule="evenodd" fill-opacity="1" /><path clip-path="url(#clip540)" d="M 0 0 M237.832 46.0778 L238.897 46.0778 L238.897 55.0824 L237.832 55.0824 L237.832 46.0778 Z" fill="#000000" fill-rule="evenodd" fill-opacity="1" /><path clip-path="url(#clip540)" d="M 0 0 M242.959 51.8243 Q241.669 51.8243 241.171 52.1194 Q240.674 52.4146 240.674 53.1264 Q240.674 53.6935 241.044 54.0292 Q241.42 54.359 242.062 54.359 Q242.948 54.359 243.48 53.734 Q244.018 53.1032 244.018 52.0616 L244.018 51.8243 L242.959 51.8243 M245.083 51.3845 L245.083 55.0824 L244.018 55.0824 L244.018 54.0986 Q243.654 54.6889 243.11 54.9724 Q242.566 55.2502 241.779 55.2502 Q240.783 55.2502 240.193 54.6947 Q239.609 54.1333 239.609 53.1958 Q239.609 52.1021 240.338 51.5465 Q241.073 50.991 242.525 50.991 L244.018 50.991 L244.018 50.8868 Q244.018 50.1519 243.532 49.7526 Q243.052 49.3475 242.178 49.3475 Q241.623 49.3475 241.096 49.4806 Q240.569 49.6137 240.083 49.8799 L240.083 48.8961 Q240.668 48.6704 241.217 48.5604 Q241.767 48.4447 242.288 48.4447 Q243.694 48.4447 244.389 49.1739 Q245.083 49.903 245.083 51.3845 Z" fill="#000000" fill-rule="evenodd" fill-opacity="1" /><path clip-path="url(#clip540)" d="M 0 0 M251.588 51.1704 L251.588 55.0824 L250.523 55.0824 L250.523 51.2051 Q250.523 50.285 250.164 49.8278 Q249.805 49.3706 249.088 49.3706 Q248.226 49.3706 247.728 49.9204 Q247.23 50.4701 247.23 51.4192 L247.23 55.0824 L246.16 55.0824 L246.16 48.6009 L247.23 48.6009 L247.23 49.6079 Q247.612 49.0234 248.127 48.734 Q248.648 48.4447 249.325 48.4447 Q250.442 48.4447 251.015 49.1391 Q251.588 49.8278 251.588 51.1704 Z" fill="#000000" fill-rule="evenodd" fill-opacity="1" /><path clip-path="url(#clip540)" d="M 0 0 M253.758 46.7607 L253.758 48.6009 L255.951 48.6009 L255.951 49.4285 L253.758 49.4285 L253.758 52.947 Q253.758 53.7398 253.972 53.9655 Q254.192 54.1912 254.857 54.1912 L255.951 54.1912 L255.951 55.0824 L254.857 55.0824 Q253.625 55.0824 253.156 54.6252 Q252.687 54.1623 252.687 52.947 L252.687 49.4285 L251.906 49.4285 L251.906 48.6009 L252.687 48.6009 L252.687 46.7607 L253.758 46.7607 Z" fill="#000000" fill-rule="evenodd" fill-opacity="1" /></svg>
