<?xml version="1.0" encoding="utf-8"?>
<svg xmlns="http://www.w3.org/2000/svg" xmlns:xlink="http://www.w3.org/1999/xlink" width="120" height="75" viewBox="0 0 480 300">
<defs>
  <clipPath id="clip620">
    <rect x="0" y="0" width="480" height="300"/>
  </clipPath>
</defs>
<path clip-path="url(#clip620)" d="
M0 300 L480 300 L480 0 L0 0  Z
  " fill="#ffffff" fill-rule="evenodd" fill-opacity="1"/>
<defs>
  <clipPath id="clip621">
    <rect x="96" y="0" width="337" height="300"/>
  </clipPath>
</defs>
<path clip-path="url(#clip620)" d="
M43.7134 273.152 L468.189 273.152 L468.189 11.811 L43.7134 11.811  Z
  " fill="#ffffff" fill-rule="evenodd" fill-opacity="1"/>
<defs>
  <clipPath id="clip622">
    <rect x="43" y="11" width="425" height="262"/>
  </clipPath>
</defs>
<polyline clip-path="url(#clip622)" style="stroke:#000000; stroke-width:0.5; stroke-opacity:0.1; fill:none" points="
  55.7269,273.152 55.7269,11.811 
  "/>
<polyline clip-path="url(#clip622)" style="stroke:#000000; stroke-width:0.5; stroke-opacity:0.1; fill:none" points="
  155.839,273.152 155.839,11.811 
  "/>
<polyline clip-path="url(#clip622)" style="stroke:#000000; stroke-width:0.5; stroke-opacity:0.1; fill:none" points="
  255.951,273.152 255.951,11.811 
  "/>
<polyline clip-path="url(#clip622)" style="stroke:#000000; stroke-width:0.5; stroke-opacity:0.1; fill:none" points="
  356.063,273.152 356.063,11.811 
  "/>
<polyline clip-path="url(#clip622)" style="stroke:#000000; stroke-width:0.5; stroke-opacity:0.1; fill:none" points="
  456.176,273.152 456.176,11.811 
  "/>
<polyline clip-path="url(#clip620)" style="stroke:#000000; stroke-width:1; stroke-opacity:1; fill:none" points="
  43.7134,273.152 468.189,273.152 
  "/>
<polyline clip-path="url(#clip620)" style="stroke:#000000; stroke-width:1; stroke-opacity:1; fill:none" points="
  55.7269,273.152 55.7269,270.016 
  "/>
<polyline clip-path="url(#clip620)" style="stroke:#000000; stroke-width:1; stroke-opacity:1; fill:none" points="
  155.839,273.152 155.839,270.016 
  "/>
<polyline clip-path="url(#clip620)" style="stroke:#000000; stroke-width:1; stroke-opacity:1; fill:none" points="
  255.951,273.152 255.951,270.016 
  "/>
<polyline clip-path="url(#clip620)" style="stroke:#000000; stroke-width:1; stroke-opacity:1; fill:none" points="
  356.063,273.152 356.063,270.016 
  "/>
<polyline clip-path="url(#clip620)" style="stroke:#000000; stroke-width:1; stroke-opacity:1; fill:none" points="
  456.176,273.152 456.176,270.016 
  "/>
<path clip-path="url(#clip620)" d="M 0 0 M44.1731 283.153 L51.5921 283.153 L51.5921 284.137 L44.1731 284.137 L44.1731 283.153 Z" fill="#000000" fill-rule="evenodd" fill-opacity="1" /><path clip-path="url(#clip620)" d="M 0 0 M53.062 286.376 L54.9717 286.376 L54.9717 279.785 L52.8941 280.201 L52.8941 279.137 L54.9601 278.72 L56.1291 278.72 L56.1291 286.376 L58.0388 286.376 L58.0388 287.36 L53.062 287.36 L53.062 286.376 Z" fill="#000000" fill-rule="evenodd" fill-opacity="1" /><path clip-path="url(#clip620)" d="M 0 0 M59.3061 285.89 L60.5272 285.89 L60.5272 287.36 L59.3061 287.36 L59.3061 285.89 Z" fill="#000000" fill-rule="evenodd" fill-opacity="1" /><path clip-path="url(#clip620)" d="M 0 0 M64.2945 279.49 Q63.3918 279.49 62.9346 280.381 Q62.4832 281.266 62.4832 283.049 Q62.4832 284.825 62.9346 285.716 Q63.3918 286.602 64.2945 286.602 Q65.2031 286.602 65.6545 285.716 Q66.1117 284.825 66.1117 283.049 Q66.1117 281.266 65.6545 280.381 Q65.2031 279.49 64.2945 279.49 M64.2945 278.564 Q65.7471 278.564 66.511 279.715 Q67.2806 280.861 67.2806 283.049 Q67.2806 285.23 66.511 286.382 Q65.7471 287.528 64.2945 287.528 Q62.842 287.528 62.0723 286.382 Q61.3084 285.23 61.3084 283.049 Q61.3084 280.861 62.0723 279.715 Q62.842 278.564 64.2945 278.564 Z" fill="#000000" fill-rule="evenodd" fill-opacity="1" /><path clip-path="url(#clip620)" d="M 0 0 M144.256 283.153 L151.675 283.153 L151.675 284.137 L144.256 284.137 L144.256 283.153 Z" fill="#000000" fill-rule="evenodd" fill-opacity="1" /><path clip-path="url(#clip620)" d="M 0 0 M155.443 279.49 Q154.54 279.49 154.083 280.381 Q153.631 281.266 153.631 283.049 Q153.631 284.825 154.083 285.716 Q154.54 286.602 155.443 286.602 Q156.351 286.602 156.803 285.716 Q157.26 284.825 157.26 283.049 Q157.26 281.266 156.803 280.381 Q156.351 279.49 155.443 279.49 M155.443 278.564 Q156.895 278.564 157.659 279.715 Q158.429 280.861 158.429 283.049 Q158.429 285.23 157.659 286.382 Q156.895 287.528 155.443 287.528 Q153.99 287.528 153.22 286.382 Q152.457 285.23 152.457 283.049 Q152.457 280.861 153.22 279.715 Q153.99 278.564 155.443 278.564 Z" fill="#000000" fill-rule="evenodd" fill-opacity="1" /><path clip-path="url(#clip620)" d="M 0 0 M159.696 285.89 L160.917 285.89 L160.917 287.36 L159.696 287.36 L159.696 285.89 Z" fill="#000000" fill-rule="evenodd" fill-opacity="1" /><path clip-path="url(#clip620)" d="M 0 0 M162.196 278.72 L166.785 278.72 L166.785 279.704 L163.267 279.704 L163.267 281.822 Q163.521 281.735 163.776 281.694 Q164.031 281.648 164.285 281.648 Q165.732 281.648 166.577 282.441 Q167.422 283.234 167.422 284.588 Q167.422 285.983 166.554 286.758 Q165.686 287.528 164.106 287.528 Q163.562 287.528 162.995 287.435 Q162.433 287.343 161.831 287.157 L161.831 285.983 Q162.352 286.266 162.908 286.405 Q163.463 286.544 164.083 286.544 Q165.084 286.544 165.668 286.017 Q166.253 285.491 166.253 284.588 Q166.253 283.685 165.668 283.159 Q165.084 282.632 164.083 282.632 Q163.614 282.632 163.145 282.736 Q162.682 282.84 162.196 283.06 L162.196 278.72 Z" fill="#000000" fill-rule="evenodd" fill-opacity="1" /><path clip-path="url(#clip620)" d="M 0 0 M251.33 279.49 Q250.427 279.49 249.97 280.381 Q249.519 281.266 249.519 283.049 Q249.519 284.825 249.97 285.716 Q250.427 286.602 251.33 286.602 Q252.239 286.602 252.69 285.716 Q253.147 284.825 253.147 283.049 Q253.147 281.266 252.69 280.381 Q252.239 279.49 251.33 279.49 M251.33 278.564 Q252.783 278.564 253.547 279.715 Q254.316 280.861 254.316 283.049 Q254.316 285.23 253.547 286.382 Q252.783 287.528 251.33 287.528 Q249.878 287.528 249.108 286.382 Q248.344 285.23 248.344 283.049 Q248.344 280.861 249.108 279.715 Q249.878 278.564 251.33 278.564 Z" fill="#000000" fill-rule="evenodd" fill-opacity="1" /><path clip-path="url(#clip620)" d="M 0 0 M255.584 285.89 L256.805 285.89 L256.805 287.36 L255.584 287.36 L255.584 285.89 Z" fill="#000000" fill-rule="evenodd" fill-opacity="1" /><path clip-path="url(#clip620)" d="M 0 0 M260.572 279.49 Q259.669 279.49 259.212 280.381 Q258.761 281.266 258.761 283.049 Q258.761 284.825 259.212 285.716 Q259.669 286.602 260.572 286.602 Q261.481 286.602 261.932 285.716 Q262.389 284.825 262.389 283.049 Q262.389 281.266 261.932 280.381 Q261.481 279.49 260.572 279.49 M260.572 278.564 Q262.025 278.564 262.789 279.715 Q263.558 280.861 263.558 283.049 Q263.558 285.23 262.789 286.382 Q262.025 287.528 260.572 287.528 Q259.12 287.528 258.35 286.382 Q257.586 285.23 257.586 283.049 Q257.586 280.861 258.35 279.715 Q259.12 278.564 260.572 278.564 Z" fill="#000000" fill-rule="evenodd" fill-opacity="1" /><path clip-path="url(#clip620)" d="M 0 0 M351.567 279.49 Q350.664 279.49 350.207 280.381 Q349.756 281.266 349.756 283.049 Q349.756 284.825 350.207 285.716 Q350.664 286.602 351.567 286.602 Q352.475 286.602 352.927 285.716 Q353.384 284.825 353.384 283.049 Q353.384 281.266 352.927 280.381 Q352.475 279.49 351.567 279.49 M351.567 278.564 Q353.019 278.564 353.783 279.715 Q354.553 280.861 354.553 283.049 Q354.553 285.23 353.783 286.382 Q353.019 287.528 351.567 287.528 Q350.114 287.528 349.345 286.382 Q348.581 285.23 348.581 283.049 Q348.581 280.861 349.345 279.715 Q350.114 278.564 351.567 278.564 Z" fill="#000000" fill-rule="evenodd" fill-opacity="1" /><path clip-path="url(#clip620)" d="M 0 0 M355.82 285.89 L357.041 285.89 L357.041 287.36 L355.82 287.36 L355.82 285.89 Z" fill="#000000" fill-rule="evenodd" fill-opacity="1" /><path clip-path="url(#clip620)" d="M 0 0 M358.32 278.72 L362.909 278.72 L362.909 279.704 L359.391 279.704 L359.391 281.822 Q359.646 281.735 359.9 281.694 Q360.155 281.648 360.409 281.648 Q361.856 281.648 362.701 282.441 Q363.546 283.234 363.546 284.588 Q363.546 285.983 362.678 286.758 Q361.81 287.528 360.23 287.528 Q359.686 287.528 359.119 287.435 Q358.558 287.343 357.956 287.157 L357.956 285.983 Q358.477 286.266 359.032 286.405 Q359.588 286.544 360.207 286.544 Q361.208 286.544 361.792 286.017 Q362.377 285.491 362.377 284.588 Q362.377 283.685 361.792 283.159 Q361.208 282.632 360.207 282.632 Q359.738 282.632 359.269 282.736 Q358.806 282.84 358.32 283.06 L358.32 278.72 Z" fill="#000000" fill-rule="evenodd" fill-opacity="1" /><path clip-path="url(#clip620)" d="M 0 0 M449.15 286.376 L451.06 286.376 L451.06 279.785 L448.982 280.201 L448.982 279.137 L451.048 278.72 L452.217 278.72 L452.217 286.376 L454.127 286.376 L454.127 287.36 L449.15 287.36 L449.15 286.376 Z" fill="#000000" fill-rule="evenodd" fill-opacity="1" /><path clip-path="url(#clip620)" d="M 0 0 M455.394 285.89 L456.615 285.89 L456.615 287.36 L455.394 287.36 L455.394 285.89 Z" fill="#000000" fill-rule="evenodd" fill-opacity="1" /><path clip-path="url(#clip620)" d="M 0 0 M460.383 279.49 Q459.48 279.49 459.023 280.381 Q458.571 281.266 458.571 283.049 Q458.571 284.825 459.023 285.716 Q459.48 286.602 460.383 286.602 Q461.291 286.602 461.743 285.716 Q462.2 284.825 462.2 283.049 Q462.2 281.266 461.743 280.381 Q461.291 279.49 460.383 279.49 M460.383 278.564 Q461.835 278.564 462.599 279.715 Q463.369 280.861 463.369 283.049 Q463.369 285.23 462.599 286.382 Q461.835 287.528 460.383 287.528 Q458.93 287.528 458.16 286.382 Q457.397 285.23 457.397 283.049 Q457.397 280.861 458.16 279.715 Q458.93 278.564 460.383 278.564 Z" fill="#000000" fill-rule="evenodd" fill-opacity="1" /><polyline clip-path="url(#clip622)" style="stroke:#000000; stroke-width:0.5; stroke-opacity:0.1; fill:none" points="
  43.7134,260.117 468.189,260.117 
  "/>
<polyline clip-path="url(#clip622)" style="stroke:#000000; stroke-width:0.5; stroke-opacity:0.1; fill:none" points="
  43.7134,219.374 468.189,219.374 
  "/>
<polyline clip-path="url(#clip622)" style="stroke:#000000; stroke-width:0.5; stroke-opacity:0.1; fill:none" points="
  43.7134,178.631 468.189,178.631 
  "/>
<polyline clip-path="url(#clip622)" style="stroke:#000000; stroke-width:0.5; stroke-opacity:0.1; fill:none" points="
  43.7134,137.889 468.189,137.889 
  "/>
<polyline clip-path="url(#clip622)" style="stroke:#000000; stroke-width:0.5; stroke-opacity:0.1; fill:none" points="
  43.7134,97.146 468.189,97.146 
  "/>
<polyline clip-path="url(#clip622)" style="stroke:#000000; stroke-width:0.5; stroke-opacity:0.1; fill:none" points="
  43.7134,56.4033 468.189,56.4033 
  "/>
<polyline clip-path="url(#clip622)" style="stroke:#000000; stroke-width:0.5; stroke-opacity:0.1; fill:none" points="
  43.7134,15.6606 468.189,15.6606 
  "/>
<polyline clip-path="url(#clip620)" style="stroke:#000000; stroke-width:1; stroke-opacity:1; fill:none" points="
  43.7134,273.152 43.7134,11.811 
  "/>
<polyline clip-path="url(#clip620)" style="stroke:#000000; stroke-width:1; stroke-opacity:1; fill:none" points="
  43.7134,260.117 48.8071,260.117 
  "/>
<polyline clip-path="url(#clip620)" style="stroke:#000000; stroke-width:1; stroke-opacity:1; fill:none" points="
  43.7134,219.374 48.8071,219.374 
  "/>
<polyline clip-path="url(#clip620)" style="stroke:#000000; stroke-width:1; stroke-opacity:1; fill:none" points="
  43.7134,178.631 48.8071,178.631 
  "/>
<polyline clip-path="url(#clip620)" style="stroke:#000000; stroke-width:1; stroke-opacity:1; fill:none" points="
  43.7134,137.889 48.8071,137.889 
  "/>
<polyline clip-path="url(#clip620)" style="stroke:#000000; stroke-width:1; stroke-opacity:1; fill:none" points="
  43.7134,97.146 48.8071,97.146 
  "/>
<polyline clip-path="url(#clip620)" style="stroke:#000000; stroke-width:1; stroke-opacity:1; fill:none" points="
  43.7134,56.4033 48.8071,56.4033 
  "/>
<polyline clip-path="url(#clip620)" style="stroke:#000000; stroke-width:1; stroke-opacity:1; fill:none" points="
  43.7134,15.6606 48.8071,15.6606 
  "/>
<path clip-path="url(#clip620)" d="M 0 0 M13.348 260.23 L20.767 260.23 L20.767 261.214 L13.348 261.214 L13.348 260.23 Z" fill="#000000" fill-rule="evenodd" fill-opacity="1" /><path clip-path="url(#clip620)" d="M 0 0 M24.5343 256.567 Q23.6315 256.567 23.1744 257.458 Q22.723 258.343 22.723 260.126 Q22.723 261.902 23.1744 262.793 Q23.6315 263.679 24.5343 263.679 Q25.4429 263.679 25.8943 262.793 Q26.3514 261.902 26.3514 260.126 Q26.3514 258.343 25.8943 257.458 Q25.4429 256.567 24.5343 256.567 M24.5343 255.641 Q25.9869 255.641 26.7507 256.792 Q27.5204 257.938 27.5204 260.126 Q27.5204 262.307 26.7507 263.459 Q25.9869 264.605 24.5343 264.605 Q23.0818 264.605 22.3121 263.459 Q21.5482 262.307 21.5482 260.126 Q21.5482 257.938 22.3121 256.792 Q23.0818 255.641 24.5343 255.641 Z" fill="#000000" fill-rule="evenodd" fill-opacity="1" /><path clip-path="url(#clip620)" d="M 0 0 M28.7878 262.967 L30.0088 262.967 L30.0088 264.437 L28.7878 264.437 L28.7878 262.967 Z" fill="#000000" fill-rule="evenodd" fill-opacity="1" /><path clip-path="url(#clip620)" d="M 0 0 M31.2878 255.797 L35.8768 255.797 L35.8768 256.781 L32.3583 256.781 L32.3583 258.899 Q32.613 258.812 32.8676 258.771 Q33.1222 258.725 33.3769 258.725 Q34.8236 258.725 35.6685 259.518 Q36.5134 260.311 36.5134 261.665 Q36.5134 263.06 35.6454 263.835 Q34.7773 264.605 33.1975 264.605 Q32.6535 264.605 32.0864 264.512 Q31.525 264.42 30.9232 264.234 L30.9232 263.06 Q31.444 263.343 31.9996 263.482 Q32.5551 263.621 33.1743 263.621 Q34.1755 263.621 34.76 263.094 Q35.3444 262.568 35.3444 261.665 Q35.3444 260.762 34.76 260.236 Q34.1755 259.709 33.1743 259.709 Q32.7056 259.709 32.2368 259.813 Q31.7739 259.917 31.2878 260.137 L31.2878 255.797 Z" fill="#000000" fill-rule="evenodd" fill-opacity="1" /><path clip-path="url(#clip620)" d="M 0 0 M24.2855 215.824 Q23.3827 215.824 22.9255 216.715 Q22.4741 217.6 22.4741 219.383 Q22.4741 221.159 22.9255 222.051 Q23.3827 222.936 24.2855 222.936 Q25.194 222.936 25.6454 222.051 Q26.1026 221.159 26.1026 219.383 Q26.1026 217.6 25.6454 216.715 Q25.194 215.824 24.2855 215.824 M24.2855 214.898 Q25.738 214.898 26.5019 216.05 Q27.2716 217.195 27.2716 219.383 Q27.2716 221.565 26.5019 222.716 Q25.738 223.862 24.2855 223.862 Q22.8329 223.862 22.0633 222.716 Q21.2994 221.565 21.2994 219.383 Q21.2994 217.195 22.0633 216.05 Q22.8329 214.898 24.2855 214.898 Z" fill="#000000" fill-rule="evenodd" fill-opacity="1" /><path clip-path="url(#clip620)" d="M 0 0 M28.5389 222.224 L29.76 222.224 L29.76 223.694 L28.5389 223.694 L28.5389 222.224 Z" fill="#000000" fill-rule="evenodd" fill-opacity="1" /><path clip-path="url(#clip620)" d="M 0 0 M33.5273 215.824 Q32.6245 215.824 32.1674 216.715 Q31.716 217.6 31.716 219.383 Q31.716 221.159 32.1674 222.051 Q32.6245 222.936 33.5273 222.936 Q34.4359 222.936 34.8873 222.051 Q35.3444 221.159 35.3444 219.383 Q35.3444 217.6 34.8873 216.715 Q34.4359 215.824 33.5273 215.824 M33.5273 214.898 Q34.9799 214.898 35.7437 216.05 Q36.5134 217.195 36.5134 219.383 Q36.5134 221.565 35.7437 222.716 Q34.9799 223.862 33.5273 223.862 Q32.0748 223.862 31.3051 222.716 Q30.5412 221.565 30.5412 219.383 Q30.5412 217.195 31.3051 216.05 Q32.0748 214.898 33.5273 214.898 Z" fill="#000000" fill-rule="evenodd" fill-opacity="1" /><path clip-path="url(#clip620)" d="M 0 0 M24.5343 175.081 Q23.6315 175.081 23.1744 175.972 Q22.723 176.858 22.723 178.64 Q22.723 180.417 23.1744 181.308 Q23.6315 182.193 24.5343 182.193 Q25.4429 182.193 25.8943 181.308 Q26.3514 180.417 26.3514 178.64 Q26.3514 176.858 25.8943 175.972 Q25.4429 175.081 24.5343 175.081 M24.5343 174.155 Q25.9869 174.155 26.7507 175.307 Q27.5204 176.453 27.5204 178.64 Q27.5204 180.822 26.7507 181.973 Q25.9869 183.119 24.5343 183.119 Q23.0818 183.119 22.3121 181.973 Q21.5482 180.822 21.5482 178.64 Q21.5482 176.453 22.3121 175.307 Q23.0818 174.155 24.5343 174.155 Z" fill="#000000" fill-rule="evenodd" fill-opacity="1" /><path clip-path="url(#clip620)" d="M 0 0 M28.7878 181.482 L30.0088 181.482 L30.0088 182.951 L28.7878 182.951 L28.7878 181.482 Z" fill="#000000" fill-rule="evenodd" fill-opacity="1" /><path clip-path="url(#clip620)" d="M 0 0 M31.2878 174.311 L35.8768 174.311 L35.8768 175.295 L32.3583 175.295 L32.3583 177.413 Q32.613 177.327 32.8676 177.286 Q33.1222 177.24 33.3769 177.24 Q34.8236 177.24 35.6685 178.033 Q36.5134 178.825 36.5134 180.179 Q36.5134 181.574 35.6454 182.35 Q34.7773 183.119 33.1975 183.119 Q32.6535 183.119 32.0864 183.027 Q31.525 182.934 30.9232 182.749 L30.9232 181.574 Q31.444 181.858 31.9996 181.997 Q32.5551 182.136 33.1743 182.136 Q34.1755 182.136 34.76 181.609 Q35.3444 181.082 35.3444 180.179 Q35.3444 179.277 34.76 178.75 Q34.1755 178.223 33.1743 178.223 Q32.7056 178.223 32.2368 178.328 Q31.7739 178.432 31.2878 178.652 L31.2878 174.311 Z" fill="#000000" fill-rule="evenodd" fill-opacity="1" /><path clip-path="url(#clip620)" d="M 0 0 M22.2947 141.225 L24.2045 141.225 L24.2045 134.634 L22.1269 135.05 L22.1269 133.985 L24.1929 133.569 L25.3619 133.569 L25.3619 141.225 L27.2716 141.225 L27.2716 142.209 L22.2947 142.209 L22.2947 141.225 Z" fill="#000000" fill-rule="evenodd" fill-opacity="1" /><path clip-path="url(#clip620)" d="M 0 0 M28.5389 140.739 L29.76 140.739 L29.76 142.209 L28.5389 142.209 L28.5389 140.739 Z" fill="#000000" fill-rule="evenodd" fill-opacity="1" /><path clip-path="url(#clip620)" d="M 0 0 M33.5273 134.338 Q32.6245 134.338 32.1674 135.23 Q31.716 136.115 31.716 137.897 Q31.716 139.674 32.1674 140.565 Q32.6245 141.451 33.5273 141.451 Q34.4359 141.451 34.8873 140.565 Q35.3444 139.674 35.3444 137.897 Q35.3444 136.115 34.8873 135.23 Q34.4359 134.338 33.5273 134.338 M33.5273 133.413 Q34.9799 133.413 35.7437 134.564 Q36.5134 135.71 36.5134 137.897 Q36.5134 140.079 35.7437 141.231 Q34.9799 142.377 33.5273 142.377 Q32.0748 142.377 31.3051 141.231 Q30.5412 140.079 30.5412 137.897 Q30.5412 135.71 31.3051 134.564 Q32.0748 133.413 33.5273 133.413 Z" fill="#000000" fill-rule="evenodd" fill-opacity="1" /><path clip-path="url(#clip620)" d="M 0 0 M22.5436 100.482 L24.4533 100.482 L24.4533 93.8909 L22.3758 94.3075 L22.3758 93.2427 L24.4417 92.826 L25.6107 92.826 L25.6107 100.482 L27.5204 100.482 L27.5204 101.466 L22.5436 101.466 L22.5436 100.482 Z" fill="#000000" fill-rule="evenodd" fill-opacity="1" /><path clip-path="url(#clip620)" d="M 0 0 M28.7878 99.9961 L30.0088 99.9961 L30.0088 101.466 L28.7878 101.466 L28.7878 99.9961 Z" fill="#000000" fill-rule="evenodd" fill-opacity="1" /><path clip-path="url(#clip620)" d="M 0 0 M31.2878 92.826 L35.8768 92.826 L35.8768 93.8098 L32.3583 93.8098 L32.3583 95.9279 Q32.613 95.8411 32.8676 95.8006 Q33.1222 95.7543 33.3769 95.7543 Q34.8236 95.7543 35.6685 96.5471 Q36.5134 97.3399 36.5134 98.6941 Q36.5134 100.089 35.6454 100.864 Q34.7773 101.634 33.1975 101.634 Q32.6535 101.634 32.0864 101.541 Q31.525 101.449 30.9232 101.264 L30.9232 100.089 Q31.444 100.372 31.9996 100.511 Q32.5551 100.65 33.1743 100.65 Q34.1755 100.65 34.76 100.123 Q35.3444 99.5968 35.3444 98.6941 Q35.3444 97.7913 34.76 97.2647 Q34.1755 96.7381 33.1743 96.7381 Q32.7056 96.7381 32.2368 96.8422 Q31.7739 96.9464 31.2878 97.1663 L31.2878 92.826 Z" fill="#000000" fill-rule="evenodd" fill-opacity="1" /><path clip-path="url(#clip620)" d="M 0 0 M23.1917 59.7395 L27.2716 59.7395 L27.2716 60.7233 L21.7855 60.7233 L21.7855 59.7395 Q22.451 59.0509 23.5968 57.8935 Q24.7484 56.7303 25.0436 56.3947 Q25.6049 55.7639 25.8248 55.3298 Q26.0505 54.89 26.0505 54.4676 Q26.0505 53.7789 25.5644 53.3449 Q25.0841 52.9109 24.3086 52.9109 Q23.7589 52.9109 23.1454 53.1018 Q22.5378 53.2928 21.8434 53.6805 L21.8434 52.5 Q22.5494 52.2164 23.1628 52.0718 Q23.7762 51.9271 24.2855 51.9271 Q25.6281 51.9271 26.4267 52.5984 Q27.2253 53.2697 27.2253 54.3923 Q27.2253 54.9248 27.0227 55.4051 Q26.826 55.8796 26.2994 56.5278 Q26.1547 56.6956 25.3792 57.5 Q24.6038 58.2986 23.1917 59.7395 Z" fill="#000000" fill-rule="evenodd" fill-opacity="1" /><path clip-path="url(#clip620)" d="M 0 0 M28.5389 59.2534 L29.76 59.2534 L29.76 60.7233 L28.5389 60.7233 L28.5389 59.2534 Z" fill="#000000" fill-rule="evenodd" fill-opacity="1" /><path clip-path="url(#clip620)" d="M 0 0 M33.5273 52.853 Q32.6245 52.853 32.1674 53.7442 Q31.716 54.6296 31.716 56.412 Q31.716 58.1886 32.1674 59.0798 Q32.6245 59.9652 33.5273 59.9652 Q34.4359 59.9652 34.8873 59.0798 Q35.3444 58.1886 35.3444 56.412 Q35.3444 54.6296 34.8873 53.7442 Q34.4359 52.853 33.5273 52.853 M33.5273 51.9271 Q34.9799 51.9271 35.7437 53.0787 Q36.5134 54.2245 36.5134 56.412 Q36.5134 58.5937 35.7437 59.7453 Q34.9799 60.8912 33.5273 60.8912 Q32.0748 60.8912 31.3051 59.7453 Q30.5412 58.5937 30.5412 56.412 Q30.5412 54.2245 31.3051 53.0787 Q32.0748 51.9271 33.5273 51.9271 Z" fill="#000000" fill-rule="evenodd" fill-opacity="1" /><path clip-path="url(#clip620)" d="M 0 0 M23.4406 18.9968 L27.5204 18.9968 L27.5204 19.9806 L22.0343 19.9806 L22.0343 18.9968 Q22.6998 18.3082 23.8457 17.1508 Q24.9973 15.9876 25.2924 15.6519 Q25.8538 15.0212 26.0737 14.5871 Q26.2994 14.1473 26.2994 13.7249 Q26.2994 13.0362 25.8132 12.6022 Q25.3329 12.1682 24.5575 12.1682 Q24.0077 12.1682 23.3943 12.3591 Q22.7866 12.5501 22.0922 12.9378 L22.0922 11.7573 Q22.7982 11.4737 23.4116 11.329 Q24.0251 11.1844 24.5343 11.1844 Q25.8769 11.1844 26.6755 11.8557 Q27.4741 12.527 27.4741 13.6496 Q27.4741 14.182 27.2716 14.6624 Q27.0748 15.1369 26.5482 15.785 Q26.4035 15.9529 25.6281 16.7573 Q24.8526 17.5559 23.4406 18.9968 Z" fill="#000000" fill-rule="evenodd" fill-opacity="1" /><path clip-path="url(#clip620)" d="M 0 0 M28.7878 18.5107 L30.0088 18.5107 L30.0088 19.9806 L28.7878 19.9806 L28.7878 18.5107 Z" fill="#000000" fill-rule="evenodd" fill-opacity="1" /><path clip-path="url(#clip620)" d="M 0 0 M31.2878 11.3406 L35.8768 11.3406 L35.8768 12.3244 L32.3583 12.3244 L32.3583 14.4425 Q32.613 14.3556 32.8676 14.3151 Q33.1222 14.2688 33.3769 14.2688 Q34.8236 14.2688 35.6685 15.0617 Q36.5134 15.8545 36.5134 17.2086 Q36.5134 18.6033 35.6454 19.3788 Q34.7773 20.1484 33.1975 20.1484 Q32.6535 20.1484 32.0864 20.0558 Q31.525 19.9633 30.9232 19.7781 L30.9232 18.6033 Q31.444 18.8869 31.9996 19.0258 Q32.5551 19.1647 33.1743 19.1647 Q34.1755 19.1647 34.76 18.638 Q35.3444 18.1114 35.3444 17.2086 Q35.3444 16.3059 34.76 15.7793 Q34.1755 15.2526 33.1743 15.2526 Q32.7056 15.2526 32.2368 15.3568 Q31.7739 15.461 31.2878 15.6809 L31.2878 11.3406 Z" fill="#000000" fill-rule="evenodd" fill-opacity="1" /><circle clip-path="url(#clip622)" cx="55.7269" cy="256.57" r="3" fill="#009af9" fill-rule="evenodd" fill-opacity="1" stroke="#000000" stroke-opacity="1" stroke-width="0.6"/>
<circle clip-path="url(#clip622)" cx="89.0976" cy="197.346" r="3" fill="#009af9" fill-rule="evenodd" fill-opacity="1" stroke="#000000" stroke-opacity="1" stroke-width="0.6"/>
<circle clip-path="url(#clip622)" cx="122.468" cy="265.756" r="3" fill="#009af9" fill-rule="evenodd" fill-opacity="1" stroke="#000000" stroke-opacity="1" stroke-width="0.6"/>
<circle clip-path="url(#clip622)" cx="155.839" cy="217.581" r="3" fill="#009af9" fill-rule="evenodd" fill-opacity="1" stroke="#000000" stroke-opacity="1" stroke-width="0.6"/>
<circle clip-path="url(#clip622)" cx="189.21" cy="252.726" r="3" fill="#009af9" fill-rule="evenodd" fill-opacity="1" stroke="#000000" stroke-opacity="1" stroke-width="0.6"/>
<circle clip-path="url(#clip622)" cx="222.58" cy="222.927" r="3" fill="#009af9" fill-rule="evenodd" fill-opacity="1" stroke="#000000" stroke-opacity="1" stroke-width="0.6"/>
<circle clip-path="url(#clip622)" cx="255.951" cy="219.374" r="3" fill="#009af9" fill-rule="evenodd" fill-opacity="1" stroke="#000000" stroke-opacity="1" stroke-width="0.6"/>
<circle clip-path="url(#clip622)" cx="289.322" cy="211.294" r="3" fill="#009af9" fill-rule="evenodd" fill-opacity="1" stroke="#000000" stroke-opacity="1" stroke-width="0.6"/>
<circle clip-path="url(#clip622)" cx="322.693" cy="167.915" r="3" fill="#009af9" fill-rule="evenodd" fill-opacity="1" stroke="#000000" stroke-opacity="1" stroke-width="0.6"/>
<circle clip-path="url(#clip622)" cx="356.063" cy="180.425" r="3" fill="#009af9" fill-rule="evenodd" fill-opacity="1" stroke="#000000" stroke-opacity="1" stroke-width="0.6"/>
<circle clip-path="url(#clip622)" cx="389.434" cy="100.561" r="3" fill="#009af9" fill-rule="evenodd" fill-opacity="1" stroke="#000000" stroke-opacity="1" stroke-width="0.6"/>
<circle clip-path="url(#clip622)" cx="422.805" cy="128.228" r="3" fill="#009af9" fill-rule="evenodd" fill-opacity="1" stroke="#000000" stroke-opacity="1" stroke-width="0.6"/>
<circle clip-path="url(#clip622)" cx="456.176" cy="19.2075" r="3" fill="#009af9" fill-rule="evenodd" fill-opacity="1" stroke="#000000" stroke-opacity="1" stroke-width="0.6"/>
<polyline clip-path="url(#clip622)" style="stroke:#e26f46; stroke-width:2; stroke-opacity:1; fill:none" points="
  55.7269,256.57 56.7046,254.835 57.6822,253.1 58.6599,251.365 59.6376,249.63 68.6776,233.586 77.7177,217.542 82.2377,209.52 86.7577,201.499 87.8877,199.493 
  89.0177,197.488 90.1477,199.499 91.2777,201.815 93.5377,206.448 95.7977,211.081 101.23,222.218 106.663,233.355 112.096,244.492 117.528,255.629 119.825,260.337 
  122.122,265.045 124.418,262.94 126.715,259.625 131.308,252.994 135.902,246.363 140.891,239.16 145.881,231.957 148.375,228.355 150.87,224.754 153.365,221.152 
  155.86,217.603 160.46,222.447 165.06,227.292 169.66,232.136 174.26,236.981 179.191,242.175 184.123,247.369 186.589,249.966 189.055,252.563 191.52,250.663 
  193.986,248.461 205.414,238.257 216.841,228.052 221.919,223.518 226.997,222.457 232.074,221.916 237.152,221.376 246.058,220.428 254.963,219.479 264.672,217.263 
  274.382,214.912 279.265,213.729 284.149,212.547 289.032,211.364 293.916,205.323 304.714,191.285 315.513,177.248 318.082,173.908 320.65,170.569 323.219,168.112 
  325.788,169.075 330.925,171.001 336.062,172.927 341.404,174.929 346.746,176.932 349.416,177.933 352.087,178.934 353.423,179.435 354.758,179.936 356.093,180.353 
  357.429,177.157 361.925,166.396 366.422,155.635 370.918,144.873 375.415,134.112 380.905,120.974 386.394,107.836 387.767,104.551 389.139,101.267 390.512,101.455 
  391.884,102.593 394.629,104.868 397.374,107.144 402.534,111.423 407.695,115.701 412.855,119.98 418.016,124.258 420.083,125.972 422.15,127.685 424.217,123.616 
  426.284,116.863 430.417,103.359 434.551,89.8537 442.819,62.844 451.086,35.8342 452.358,31.6775 453.631,27.5208 454.903,23.3641 456.176,19.2075 
  "/>
<path clip-path="url(#clip620)" d="
M135.148 65.8824 L265.384 65.8824 L265.384 20.5224 L135.148 20.5224  Z
  " fill="#ffffff" fill-rule="evenodd" fill-opacity="1"/>
<polyline clip-path="url(#clip620)" style="stroke:#000000; stroke-width:1; stroke-opacity:1; fill:none" points="
  135.148,65.8824 265.384,65.8824 265.384,20.5224 135.148,20.5224 135.148,65.8824 
  "/>
<circle clip-path="url(#clip620)" cx="154.013" cy="35.6424" r="5" fill="#009af9" fill-rule="evenodd" fill-opacity="1" stroke="#000000" stroke-opacity="1" stroke-width="0.96"/>
<path clip-path="url(#clip620)" d="M 0 0 M177.607 34.4647 L177.607 30.9578 L178.672 30.9578 L178.672 39.9624 L177.607 39.9624 L177.607 38.9902 Q177.271 39.5689 176.756 39.8524 Q176.247 40.1302 175.529 40.1302 Q174.354 40.1302 173.614 39.1927 Q172.879 38.2552 172.879 36.7275 Q172.879 35.1997 173.614 34.2622 Q174.354 33.3247 175.529 33.3247 Q176.247 33.3247 176.756 33.6083 Q177.271 33.886 177.607 34.4647 M173.978 36.7275 Q173.978 37.9022 174.459 38.5735 Q174.945 39.239 175.79 39.239 Q176.634 39.239 177.121 38.5735 Q177.607 37.9022 177.607 36.7275 Q177.607 35.5527 177.121 34.8872 Q176.634 34.2159 175.79 34.2159 Q174.945 34.2159 174.459 34.8872 Q173.978 35.5527 173.978 36.7275 Z" fill="#000000" fill-rule="evenodd" fill-opacity="1" /><path clip-path="url(#clip620)" d="M 0 0 M182.734 36.7043 Q181.443 36.7043 180.946 36.9994 Q180.448 37.2946 180.448 38.0064 Q180.448 38.5735 180.818 38.9092 Q181.195 39.239 181.837 39.239 Q182.722 39.239 183.255 38.614 Q183.793 37.9832 183.793 36.9416 L183.793 36.7043 L182.734 36.7043 M184.858 36.2645 L184.858 39.9624 L183.793 39.9624 L183.793 38.9786 Q183.428 39.5689 182.884 39.8524 Q182.34 40.1302 181.553 40.1302 Q180.558 40.1302 179.968 39.5747 Q179.383 39.0133 179.383 38.0758 Q179.383 36.9821 180.112 36.4265 Q180.847 35.871 182.3 35.871 L183.793 35.871 L183.793 35.7668 Q183.793 35.0319 183.307 34.6326 Q182.827 34.2275 181.953 34.2275 Q181.397 34.2275 180.871 34.3606 Q180.344 34.4937 179.858 34.7599 L179.858 33.7761 Q180.442 33.5504 180.992 33.4404 Q181.542 33.3247 182.063 33.3247 Q183.469 33.3247 184.163 34.0539 Q184.858 34.783 184.858 36.2645 Z" fill="#000000" fill-rule="evenodd" fill-opacity="1" /><path clip-path="url(#clip620)" d="M 0 0 M187.028 31.6407 L187.028 33.4809 L189.221 33.4809 L189.221 34.3085 L187.028 34.3085 L187.028 37.827 Q187.028 38.6198 187.242 38.8455 Q187.462 39.0712 188.127 39.0712 L189.221 39.0712 L189.221 39.9624 L188.127 39.9624 Q186.895 39.9624 186.426 39.5052 Q185.957 39.0423 185.957 37.827 L185.957 34.3085 L185.176 34.3085 L185.176 33.4809 L185.957 33.4809 L185.957 31.6407 L187.028 31.6407 Z" fill="#000000" fill-rule="evenodd" fill-opacity="1" /><path clip-path="url(#clip620)" d="M 0 0 M193.284 36.7043 Q191.993 36.7043 191.496 36.9994 Q190.998 37.2946 190.998 38.0064 Q190.998 38.5735 191.368 38.9092 Q191.744 39.239 192.387 39.239 Q193.272 39.239 193.805 38.614 Q194.343 37.9832 194.343 36.9416 L194.343 36.7043 L193.284 36.7043 M195.408 36.2645 L195.408 39.9624 L194.343 39.9624 L194.343 38.9786 Q193.978 39.5689 193.434 39.8524 Q192.89 40.1302 192.103 40.1302 Q191.108 40.1302 190.518 39.5747 Q189.933 39.0133 189.933 38.0758 Q189.933 36.9821 190.662 36.4265 Q191.397 35.871 192.85 35.871 L194.343 35.871 L194.343 35.7668 Q194.343 35.0319 193.857 34.6326 Q193.376 34.2275 192.502 34.2275 Q191.947 34.2275 191.42 34.3606 Q190.894 34.4937 190.408 34.7599 L190.408 33.7761 Q190.992 33.5504 191.542 33.4404 Q192.092 33.3247 192.612 33.3247 Q194.019 33.3247 194.713 34.0539 Q195.408 34.783 195.408 36.2645 Z" fill="#000000" fill-rule="evenodd" fill-opacity="1" /><polyline clip-path="url(#clip620)" style="stroke:#e26f46; stroke-width:1; stroke-opacity:1; fill:none" points="
  139.864,50.7624 168.162,50.7624 
  "/>
<path clip-path="url(#clip620)" d="M 0 0 M173.949 54.1102 L173.949 57.5477 L172.879 57.5477 L172.879 48.6009 L173.949 48.6009 L173.949 49.5847 Q174.285 49.006 174.794 48.7283 Q175.309 48.4447 176.021 48.4447 Q177.202 48.4447 177.937 49.3822 Q178.677 50.3197 178.677 51.8475 Q178.677 53.3752 177.937 54.3127 Q177.202 55.2502 176.021 55.2502 Q175.309 55.2502 174.794 54.9724 Q174.285 54.6889 173.949 54.1102 M177.572 51.8475 Q177.572 50.6727 177.086 50.0072 Q176.606 49.3359 175.761 49.3359 Q174.916 49.3359 174.43 50.0072 Q173.949 50.6727 173.949 51.8475 Q173.949 53.0222 174.43 53.6935 Q174.916 54.359 175.761 54.359 Q176.606 54.359 177.086 53.6935 Q177.572 53.0222 177.572 51.8475 Z" fill="#000000" fill-rule="evenodd" fill-opacity="1" /><path clip-path="url(#clip620)" d="M 0 0 M179.794 48.6009 L180.859 48.6009 L180.859 55.0824 L179.794 55.0824 L179.794 48.6009 M179.794 46.0778 L180.859 46.0778 L180.859 47.4262 L179.794 47.4262 L179.794 46.0778 Z" fill="#000000" fill-rule="evenodd" fill-opacity="1" /><path clip-path="url(#clip620)" d="M 0 0 M187.52 51.5755 L187.52 52.0963 L182.624 52.0963 Q182.693 53.1958 183.284 53.7745 Q183.88 54.3474 184.939 54.3474 Q185.552 54.3474 186.125 54.197 Q186.704 54.0465 187.271 53.7456 L187.271 54.7525 Q186.698 54.9956 186.096 55.1229 Q185.494 55.2502 184.875 55.2502 Q183.324 55.2502 182.416 54.3474 Q181.513 53.4447 181.513 51.9053 Q181.513 50.3139 182.369 49.3822 Q183.232 48.4447 184.69 48.4447 Q185.998 48.4447 186.756 49.2896 Q187.52 50.1287 187.52 51.5755 M186.455 51.263 Q186.443 50.3891 185.963 49.8683 Q185.489 49.3475 184.702 49.3475 Q183.81 49.3475 183.272 49.8509 Q182.74 50.3544 182.659 51.2688 L186.455 51.263 Z" fill="#000000" fill-rule="evenodd" fill-opacity="1" /><path clip-path="url(#clip620)" d="M 0 0 M193.301 48.8498 L193.301 49.8451 Q192.85 49.5963 192.393 49.4748 Q191.941 49.3475 191.478 49.3475 Q190.442 49.3475 189.869 50.0072 Q189.296 50.6611 189.296 51.8475 Q189.296 53.0338 189.869 53.6935 Q190.442 54.3474 191.478 54.3474 Q191.941 54.3474 192.393 54.2259 Q192.85 54.0986 193.301 53.8498 L193.301 54.8335 Q192.855 55.0419 192.375 55.146 Q191.901 55.2502 191.362 55.2502 Q189.898 55.2502 189.036 54.3301 Q188.174 53.4099 188.174 51.8475 Q188.174 50.2618 189.042 49.3533 Q189.916 48.4447 191.432 48.4447 Q191.924 48.4447 192.393 48.5489 Q192.861 48.6472 193.301 48.8498 Z" fill="#000000" fill-rule="evenodd" fill-opacity="1" /><path clip-path="url(#clip620)" d="M 0 0 M199.962 51.5755 L199.962 52.0963 L195.066 52.0963 Q195.136 53.1958 195.726 53.7745 Q196.322 54.3474 197.381 54.3474 Q197.994 54.3474 198.567 54.197 Q199.146 54.0465 199.713 53.7456 L199.713 54.7525 Q199.14 54.9956 198.538 55.1229 Q197.936 55.2502 197.317 55.2502 Q195.766 55.2502 194.858 54.3474 Q193.955 53.4447 193.955 51.9053 Q193.955 50.3139 194.811 49.3822 Q195.674 48.4447 197.132 48.4447 Q198.44 48.4447 199.198 49.2896 Q199.962 50.1287 199.962 51.5755 M198.897 51.263 Q198.886 50.3891 198.405 49.8683 Q197.931 49.3475 197.144 49.3475 Q196.252 49.3475 195.714 49.8509 Q195.182 50.3544 195.101 51.2688 L198.897 51.263 Z" fill="#000000" fill-rule="evenodd" fill-opacity="1" /><path clip-path="url(#clip620)" d="M 0 0 M200.46 48.6009 L201.524 48.6009 L202.855 53.6588 L204.181 48.6009 L205.436 48.6009 L206.767 53.6588 L208.093 48.6009 L209.157 48.6009 L207.462 55.0824 L206.206 55.0824 L204.811 49.7699 L203.411 55.0824 L202.155 55.0824 L200.46 48.6009 Z" fill="#000000" fill-rule="evenodd" fill-opacity="1" /><path clip-path="url(#clip620)" d="M 0 0 M210.274 48.6009 L211.339 48.6009 L211.339 55.0824 L210.274 55.0824 L210.274 48.6009 M210.274 46.0778 L211.339 46.0778 L211.339 47.4262 L210.274 47.4262 L210.274 46.0778 Z" fill="#000000" fill-rule="evenodd" fill-opacity="1" /><path clip-path="url(#clip620)" d="M 0 0 M216.588 48.7919 L216.588 49.7989 Q216.137 49.5674 215.65 49.4516 Q215.164 49.3359 214.644 49.3359 Q213.851 49.3359 213.451 49.5789 Q213.058 49.822 213.058 50.3081 Q213.058 50.6785 213.341 50.8926 Q213.625 51.1009 214.482 51.2919 L214.846 51.3729 Q215.98 51.616 216.455 52.0616 Q216.935 52.5014 216.935 53.2942 Q216.935 54.197 216.218 54.7236 Q215.506 55.2502 214.256 55.2502 Q213.735 55.2502 213.168 55.146 Q212.607 55.0477 211.982 54.8451 L211.982 53.7456 Q212.572 54.0523 213.145 54.2086 Q213.718 54.359 214.279 54.359 Q215.031 54.359 215.436 54.1044 Q215.841 53.844 215.841 53.3752 Q215.841 52.9412 215.546 52.7097 Q215.257 52.4782 214.267 52.2641 L213.897 52.1773 Q212.907 51.969 212.468 51.5407 Q212.028 51.1067 212.028 50.3544 Q212.028 49.4401 212.676 48.9424 Q213.324 48.4447 214.516 48.4447 Q215.107 48.4447 215.627 48.5315 Q216.148 48.6183 216.588 48.7919 Z" fill="#000000" fill-rule="evenodd" fill-opacity="1" /><path clip-path="url(#clip620)" d="M 0 0 M223.596 51.5755 L223.596 52.0963 L218.7 52.0963 Q218.77 53.1958 219.36 53.7745 Q219.956 54.3474 221.015 54.3474 Q221.628 54.3474 222.201 54.197 Q222.78 54.0465 223.347 53.7456 L223.347 54.7525 Q222.774 54.9956 222.172 55.1229 Q221.571 55.2502 220.951 55.2502 Q219.4 55.2502 218.492 54.3474 Q217.589 53.4447 217.589 51.9053 Q217.589 50.3139 218.446 49.3822 Q219.308 48.4447 220.766 48.4447 Q222.074 48.4447 222.832 49.2896 Q223.596 50.1287 223.596 51.5755 M222.531 51.263 Q222.52 50.3891 222.039 49.8683 Q221.565 49.3475 220.778 49.3475 Q219.887 49.3475 219.348 49.8509 Q218.816 50.3544 218.735 51.2688 L222.531 51.263 Z" fill="#000000" fill-rule="evenodd" fill-opacity="1" /><path clip-path="url(#clip620)" d="M 0 0 M228.48 46.0778 L229.545 46.0778 L229.545 55.0824 L228.48 55.0824 L228.48 46.0778 Z" fill="#000000" fill-rule="evenodd" fill-opacity="1" /><path clip-path="url(#clip620)" d="M 0 0 M230.662 48.6009 L231.727 48.6009 L231.727 55.0824 L230.662 55.0824 L230.662 48.6009 M230.662 46.0778 L231.727 46.0778 L231.727 47.4262 L230.662 47.4262 L230.662 46.0778 Z" fill="#000000" fill-rule="evenodd" fill-opacity="1" /><path clip-path="url(#clip620)" d="M 0 0 M238.231 51.1704 L238.231 55.0824 L237.167 55.0824 L237.167 51.2051 Q237.167 50.285 236.808 49.8278 Q236.449 49.3706 235.731 49.3706 Q234.869 49.3706 234.371 49.9204 Q233.874 50.4701 233.874 51.4192 L233.874 55.0824 L232.803 55.0824 L232.803 48.6009 L233.874 48.6009 L233.874 49.6079 Q234.256 49.0234 234.771 48.734 Q235.292 48.4447 235.969 48.4447 Q237.086 48.4447 237.658 49.1391 Q238.231 49.8278 238.231 51.1704 Z" fill="#000000" fill-rule="evenodd" fill-opacity="1" /><path clip-path="url(#clip620)" d="M 0 0 M244.892 51.5755 L244.892 52.0963 L239.996 52.0963 Q240.066 53.1958 240.656 53.7745 Q241.252 54.3474 242.311 54.3474 Q242.925 54.3474 243.498 54.197 Q244.076 54.0465 244.643 53.7456 L244.643 54.7525 Q244.07 54.9956 243.469 55.1229 Q242.867 55.2502 242.248 55.2502 Q240.697 55.2502 239.788 54.3474 Q238.885 53.4447 238.885 51.9053 Q238.885 50.3139 239.742 49.3822 Q240.604 48.4447 242.062 48.4447 Q243.37 48.4447 244.128 49.2896 Q244.892 50.1287 244.892 51.5755 M243.827 51.263 Q243.816 50.3891 243.336 49.8683 Q242.861 49.3475 242.074 49.3475 Q241.183 49.3475 240.645 49.8509 Q240.112 50.3544 240.031 51.2688 L243.827 51.263 Z" fill="#000000" fill-rule="evenodd" fill-opacity="1" /><path clip-path="url(#clip620)" d="M 0 0 M248.955 51.8243 Q247.664 51.8243 247.167 52.1194 Q246.669 52.4146 246.669 53.1264 Q246.669 53.6935 247.039 54.0292 Q247.415 54.359 248.058 54.359 Q248.943 54.359 249.476 53.734 Q250.014 53.1032 250.014 52.0616 L250.014 51.8243 L248.955 51.8243 M251.079 51.3845 L251.079 55.0824 L250.014 55.0824 L250.014 54.0986 Q249.649 54.6889 249.105 54.9724 Q248.561 55.2502 247.774 55.2502 Q246.779 55.2502 246.189 54.6947 Q245.604 54.1333 245.604 53.1958 Q245.604 52.1021 246.333 51.5465 Q247.068 50.991 248.521 50.991 L250.014 50.991 L250.014 50.8868 Q250.014 50.1519 249.528 49.7526 Q249.047 49.3475 248.173 49.3475 Q247.618 49.3475 247.091 49.4806 Q246.565 49.6137 246.079 49.8799 L246.079 48.8961 Q246.663 48.6704 247.213 48.5604 Q247.763 48.4447 248.283 48.4447 Q249.69 48.4447 250.384 49.1739 Q251.079 49.903 251.079 51.3845 Z" fill="#000000" fill-rule="evenodd" fill-opacity="1" /><path clip-path="url(#clip620)" d="M 0 0 M255.951 49.5963 Q255.772 49.4921 255.558 49.4458 Q255.349 49.3938 255.095 49.3938 Q254.192 49.3938 253.706 49.984 Q253.226 50.5685 253.226 51.6681 L253.226 55.0824 L252.155 55.0824 L252.155 48.6009 L253.226 48.6009 L253.226 49.6079 Q253.561 49.0176 254.099 48.734 Q254.638 48.4447 255.407 48.4447 Q255.517 48.4447 255.65 48.4621 Q255.783 48.4736 255.945 48.5026 L255.951 49.5963 Z" fill="#000000" fill-rule="evenodd" fill-opacity="1" /></svg>
