<?xml version="1.0" encoding="utf-8"?>
<svg xmlns="http://www.w3.org/2000/svg" xmlns:xlink="http://www.w3.org/1999/xlink" width="120" height="75" viewBox="0 0 480 300">
<defs>
  <clipPath id="clip500">
    <rect x="0" y="0" width="480" height="300"/>
  </clipPath>
</defs>
<path clip-path="url(#clip500)" d="
M0 300 L480 300 L480 0 L0 0  Z
  " fill="#ffffff" fill-rule="evenodd" fill-opacity="1"/>
<defs>
  <clipPath id="clip501">
    <rect x="96" y="0" width="337" height="300"/>
  </clipPath>
</defs>
<path clip-path="url(#clip500)" d="
M35.7621 273.152 L468.189 273.152 L468.189 11.811 L35.7621 11.811  Z
  " fill="#ffffff" fill-rule="evenodd" fill-opacity="1"/>
<defs>
  <clipPath id="clip502">
    <rect x="35" y="11" width="433" height="262"/>
  </clipPath>
</defs>
<polyline clip-path="url(#clip502)" style="stroke:#000000; stroke-width:0.5; stroke-opacity:0.1; fill:none" points="
  48.0006,273.152 48.0006,11.811 
  "/>
<polyline clip-path="url(#clip502)" style="stroke:#000000; stroke-width:0.5; stroke-opacity:0.1; fill:none" points="
  149.988,273.152 149.988,11.811 
  "/>
<polyline clip-path="url(#clip502)" style="stroke:#000000; stroke-width:0.5; stroke-opacity:0.1; fill:none" points="
  251.976,273.152 251.976,11.811 
  "/>
<polyline clip-path="url(#clip502)" style="stroke:#000000; stroke-width:0.5; stroke-opacity:0.1; fill:none" points="
  353.963,273.152 353.963,11.811 
  "/>
<polyline clip-path="url(#clip502)" style="stroke:#000000; stroke-width:0.5; stroke-opacity:0.1; fill:none" points="
  455.95,273.152 455.95,11.811 
  "/>
<polyline clip-path="url(#clip500)" style="stroke:#000000; stroke-width:1; stroke-opacity:1; fill:none" points="
  35.7621,273.152 468.189,273.152 
  "/>
<polyline clip-path="url(#clip500)" style="stroke:#000000; stroke-width:1; stroke-opacity:1; fill:none" points="
  48.0006,273.152 48.0006,270.016 
  "/>
<polyline clip-path="url(#clip500)" style="stroke:#000000; stroke-width:1; stroke-opacity:1; fill:none" points="
  149.988,273.152 149.988,270.016 
  "/>
<polyline clip-path="url(#clip500)" style="stroke:#000000; stroke-width:1; stroke-opacity:1; fill:none" points="
  251.976,273.152 251.976,270.016 
  "/>
<polyline clip-path="url(#clip500)" style="stroke:#000000; stroke-width:1; stroke-opacity:1; fill:none" points="
  353.963,273.152 353.963,270.016 
  "/>
<polyline clip-path="url(#clip500)" style="stroke:#000000; stroke-width:1; stroke-opacity:1; fill:none" points="
  455.95,273.152 455.95,270.016 
  "/>
<path clip-path="url(#clip500)" d="M 0 0 M36.4468 283.153 L43.8658 283.153 L43.8658 284.137 L36.4468 284.137 L36.4468 283.153 Z" fill="#000000" fill-rule="evenodd" fill-opacity="1" /><path clip-path="url(#clip500)" d="M 0 0 M45.3357 286.376 L47.2454 286.376 L47.2454 279.785 L45.1678 280.201 L45.1678 279.137 L47.2338 278.72 L48.4028 278.72 L48.4028 286.376 L50.3125 286.376 L50.3125 287.36 L45.3357 287.36 L45.3357 286.376 Z" fill="#000000" fill-rule="evenodd" fill-opacity="1" /><path clip-path="url(#clip500)" d="M 0 0 M51.5798 285.89 L52.8009 285.89 L52.8009 287.36 L51.5798 287.36 L51.5798 285.89 Z" fill="#000000" fill-rule="evenodd" fill-opacity="1" /><path clip-path="url(#clip500)" d="M 0 0 M56.5682 279.49 Q55.6655 279.49 55.2083 280.381 Q54.7569 281.266 54.7569 283.049 Q54.7569 284.825 55.2083 285.716 Q55.6655 286.602 56.5682 286.602 Q57.4768 286.602 57.9282 285.716 Q58.3854 284.825 58.3854 283.049 Q58.3854 281.266 57.9282 280.381 Q57.4768 279.49 56.5682 279.49 M56.5682 278.564 Q58.0208 278.564 58.7847 279.715 Q59.5543 280.861 59.5543 283.049 Q59.5543 285.23 58.7847 286.382 Q58.0208 287.528 56.5682 287.528 Q55.1157 287.528 54.346 286.382 Q53.5821 285.23 53.5821 283.049 Q53.5821 280.861 54.346 279.715 Q55.1157 278.564 56.5682 278.564 Z" fill="#000000" fill-rule="evenodd" fill-opacity="1" /><path clip-path="url(#clip500)" d="M 0 0 M138.405 283.153 L145.824 283.153 L145.824 284.137 L138.405 284.137 L138.405 283.153 Z" fill="#000000" fill-rule="evenodd" fill-opacity="1" /><path clip-path="url(#clip500)" d="M 0 0 M149.592 279.49 Q148.689 279.49 148.232 280.381 Q147.78 281.266 147.78 283.049 Q147.78 284.825 148.232 285.716 Q148.689 286.602 149.592 286.602 Q150.5 286.602 150.952 285.716 Q151.409 284.825 151.409 283.049 Q151.409 281.266 150.952 280.381 Q150.5 279.49 149.592 279.49 M149.592 278.564 Q151.044 278.564 151.808 279.715 Q152.578 280.861 152.578 283.049 Q152.578 285.23 151.808 286.382 Q151.044 287.528 149.592 287.528 Q148.139 287.528 147.369 286.382 Q146.606 285.23 146.606 283.049 Q146.606 280.861 147.369 279.715 Q148.139 278.564 149.592 278.564 Z" fill="#000000" fill-rule="evenodd" fill-opacity="1" /><path clip-path="url(#clip500)" d="M 0 0 M153.845 285.89 L155.066 285.89 L155.066 287.36 L153.845 287.36 L153.845 285.89 Z" fill="#000000" fill-rule="evenodd" fill-opacity="1" /><path clip-path="url(#clip500)" d="M 0 0 M156.345 278.72 L160.934 278.72 L160.934 279.704 L157.416 279.704 L157.416 281.822 Q157.67 281.735 157.925 281.694 Q158.18 281.648 158.434 281.648 Q159.881 281.648 160.726 282.441 Q161.571 283.234 161.571 284.588 Q161.571 285.983 160.703 286.758 Q159.835 287.528 158.255 287.528 Q157.711 287.528 157.144 287.435 Q156.582 287.343 155.98 287.157 L155.98 285.983 Q156.501 286.266 157.057 286.405 Q157.612 286.544 158.232 286.544 Q159.233 286.544 159.817 286.017 Q160.402 285.491 160.402 284.588 Q160.402 283.685 159.817 283.159 Q159.233 282.632 158.232 282.632 Q157.763 282.632 157.294 282.736 Q156.831 282.84 156.345 283.06 L156.345 278.72 Z" fill="#000000" fill-rule="evenodd" fill-opacity="1" /><path clip-path="url(#clip500)" d="M 0 0 M247.355 279.49 Q246.452 279.49 245.995 280.381 Q245.543 281.266 245.543 283.049 Q245.543 284.825 245.995 285.716 Q246.452 286.602 247.355 286.602 Q248.263 286.602 248.715 285.716 Q249.172 284.825 249.172 283.049 Q249.172 281.266 248.715 280.381 Q248.263 279.49 247.355 279.49 M247.355 278.564 Q248.807 278.564 249.571 279.715 Q250.341 280.861 250.341 283.049 Q250.341 285.23 249.571 286.382 Q248.807 287.528 247.355 287.528 Q245.902 287.528 245.132 286.382 Q244.369 285.23 244.369 283.049 Q244.369 280.861 245.132 279.715 Q245.902 278.564 247.355 278.564 Z" fill="#000000" fill-rule="evenodd" fill-opacity="1" /><path clip-path="url(#clip500)" d="M 0 0 M251.608 285.89 L252.829 285.89 L252.829 287.36 L251.608 287.36 L251.608 285.89 Z" fill="#000000" fill-rule="evenodd" fill-opacity="1" /><path clip-path="url(#clip500)" d="M 0 0 M256.596 279.49 Q255.694 279.49 255.237 280.381 Q254.785 281.266 254.785 283.049 Q254.785 284.825 255.237 285.716 Q255.694 286.602 256.596 286.602 Q257.505 286.602 257.956 285.716 Q258.414 284.825 258.414 283.049 Q258.414 281.266 257.956 280.381 Q257.505 279.49 256.596 279.49 M256.596 278.564 Q258.049 278.564 258.813 279.715 Q259.583 280.861 259.583 283.049 Q259.583 285.23 258.813 286.382 Q258.049 287.528 256.596 287.528 Q255.144 287.528 254.374 286.382 Q253.61 285.23 253.61 283.049 Q253.61 280.861 254.374 279.715 Q255.144 278.564 256.596 278.564 Z" fill="#000000" fill-rule="evenodd" fill-opacity="1" /><path clip-path="url(#clip500)" d="M 0 0 M349.466 279.49 Q348.564 279.49 348.107 280.381 Q347.655 281.266 347.655 283.049 Q347.655 284.825 348.107 285.716 Q348.564 286.602 349.466 286.602 Q350.375 286.602 350.826 285.716 Q351.284 284.825 351.284 283.049 Q351.284 281.266 350.826 280.381 Q350.375 279.49 349.466 279.49 M349.466 278.564 Q350.919 278.564 351.683 279.715 Q352.453 280.861 352.453 283.049 Q352.453 285.23 351.683 286.382 Q350.919 287.528 349.466 287.528 Q348.014 287.528 347.244 286.382 Q346.48 285.23 346.48 283.049 Q346.48 280.861 347.244 279.715 Q348.014 278.564 349.466 278.564 Z" fill="#000000" fill-rule="evenodd" fill-opacity="1" /><path clip-path="url(#clip500)" d="M 0 0 M353.72 285.89 L354.941 285.89 L354.941 287.36 L353.72 287.36 L353.72 285.89 Z" fill="#000000" fill-rule="evenodd" fill-opacity="1" /><path clip-path="url(#clip500)" d="M 0 0 M356.22 278.72 L360.809 278.72 L360.809 279.704 L357.291 279.704 L357.291 281.822 Q357.545 281.735 357.8 281.694 Q358.054 281.648 358.309 281.648 Q359.756 281.648 360.601 282.441 Q361.446 283.234 361.446 284.588 Q361.446 285.983 360.578 286.758 Q359.709 287.528 358.13 287.528 Q357.586 287.528 357.019 287.435 Q356.457 287.343 355.855 287.157 L355.855 285.983 Q356.376 286.266 356.932 286.405 Q357.487 286.544 358.106 286.544 Q359.108 286.544 359.692 286.017 Q360.277 285.491 360.277 284.588 Q360.277 283.685 359.692 283.159 Q359.108 282.632 358.106 282.632 Q357.638 282.632 357.169 282.736 Q356.706 282.84 356.22 283.06 L356.22 278.72 Z" fill="#000000" fill-rule="evenodd" fill-opacity="1" /><path clip-path="url(#clip500)" d="M 0 0 M448.925 286.376 L450.835 286.376 L450.835 279.785 L448.757 280.201 L448.757 279.137 L450.823 278.72 L451.992 278.72 L451.992 286.376 L453.902 286.376 L453.902 287.36 L448.925 287.36 L448.925 286.376 Z" fill="#000000" fill-rule="evenodd" fill-opacity="1" /><path clip-path="url(#clip500)" d="M 0 0 M455.169 285.89 L456.39 285.89 L456.39 287.36 L455.169 287.36 L455.169 285.89 Z" fill="#000000" fill-rule="evenodd" fill-opacity="1" /><path clip-path="url(#clip500)" d="M 0 0 M460.158 279.49 Q459.255 279.49 458.798 280.381 Q458.346 281.266 458.346 283.049 Q458.346 284.825 458.798 285.716 Q459.255 286.602 460.158 286.602 Q461.066 286.602 461.518 285.716 Q461.975 284.825 461.975 283.049 Q461.975 281.266 461.518 280.381 Q461.066 279.49 460.158 279.49 M460.158 278.564 Q461.61 278.564 462.374 279.715 Q463.144 280.861 463.144 283.049 Q463.144 285.23 462.374 286.382 Q461.61 287.528 460.158 287.528 Q458.705 287.528 457.935 286.382 Q457.172 285.23 457.172 283.049 Q457.172 280.861 457.935 279.715 Q458.705 278.564 460.158 278.564 Z" fill="#000000" fill-rule="evenodd" fill-opacity="1" /><polyline clip-path="url(#clip502)" style="stroke:#000000; stroke-width:0.5; stroke-opacity:0.1; fill:none" points="
  35.7621,236.779 468.189,236.779 
  "/>
<polyline clip-path="url(#clip502)" style="stroke:#000000; stroke-width:0.5; stroke-opacity:0.1; fill:none" points="
  35.7621,183.6 468.189,183.6 
  "/>
<polyline clip-path="url(#clip502)" style="stroke:#000000; stroke-width:0.5; stroke-opacity:0.1; fill:none" points="
  35.7621,130.421 468.189,130.421 
  "/>
<polyline clip-path="url(#clip502)" style="stroke:#000000; stroke-width:0.5; stroke-opacity:0.1; fill:none" points="
  35.7621,77.2415 468.189,77.2415 
  "/>
<polyline clip-path="url(#clip502)" style="stroke:#000000; stroke-width:0.5; stroke-opacity:0.1; fill:none" points="
  35.7621,24.0624 468.189,24.0624 
  "/>
<polyline clip-path="url(#clip500)" style="stroke:#000000; stroke-width:1; stroke-opacity:1; fill:none" points="
  35.7621,273.152 35.7621,11.811 
  "/>
<polyline clip-path="url(#clip500)" style="stroke:#000000; stroke-width:1; stroke-opacity:1; fill:none" points="
  35.7621,236.779 40.9512,236.779 
  "/>
<polyline clip-path="url(#clip500)" style="stroke:#000000; stroke-width:1; stroke-opacity:1; fill:none" points="
  35.7621,183.6 40.9512,183.6 
  "/>
<polyline clip-path="url(#clip500)" style="stroke:#000000; stroke-width:1; stroke-opacity:1; fill:none" points="
  35.7621,130.421 40.9512,130.421 
  "/>
<polyline clip-path="url(#clip500)" style="stroke:#000000; stroke-width:1; stroke-opacity:1; fill:none" points="
  35.7621,77.2415 40.9512,77.2415 
  "/>
<polyline clip-path="url(#clip500)" style="stroke:#000000; stroke-width:1; stroke-opacity:1; fill:none" points="
  35.7621,24.0624 40.9512,24.0624 
  "/>
<path clip-path="url(#clip500)" d="M 0 0 M16.3341 233.229 Q15.4314 233.229 14.9742 234.12 Q14.5228 235.005 14.5228 236.788 Q14.5228 238.564 14.9742 239.455 Q15.4314 240.341 16.3341 240.341 Q17.2427 240.341 17.6941 239.455 Q18.1512 238.564 18.1512 236.788 Q18.1512 235.005 17.6941 234.12 Q17.2427 233.229 16.3341 233.229 M16.3341 232.303 Q17.7867 232.303 18.5505 233.454 Q19.3202 234.6 19.3202 236.788 Q19.3202 238.969 18.5505 240.121 Q17.7867 241.267 16.3341 241.267 Q14.8816 241.267 14.1119 240.121 Q13.348 238.969 13.348 236.788 Q13.348 234.6 14.1119 233.454 Q14.8816 232.303 16.3341 232.303 Z" fill="#000000" fill-rule="evenodd" fill-opacity="1" /><path clip-path="url(#clip500)" d="M 0 0 M20.5876 239.629 L21.8086 239.629 L21.8086 241.099 L20.5876 241.099 L20.5876 239.629 Z" fill="#000000" fill-rule="evenodd" fill-opacity="1" /><path clip-path="url(#clip500)" d="M 0 0 M25.576 233.229 Q24.6732 233.229 24.216 234.12 Q23.7646 235.005 23.7646 236.788 Q23.7646 238.564 24.216 239.455 Q24.6732 240.341 25.576 240.341 Q26.4845 240.341 26.9359 239.455 Q27.3931 238.564 27.3931 236.788 Q27.3931 235.005 26.9359 234.12 Q26.4845 233.229 25.576 233.229 M25.576 232.303 Q27.0285 232.303 27.7924 233.454 Q28.5621 234.6 28.5621 236.788 Q28.5621 238.969 27.7924 240.121 Q27.0285 241.267 25.576 241.267 Q24.1234 241.267 23.3538 240.121 Q22.5899 238.969 22.5899 236.788 Q22.5899 234.6 23.3538 233.454 Q24.1234 232.303 25.576 232.303 Z" fill="#000000" fill-rule="evenodd" fill-opacity="1" /><path clip-path="url(#clip500)" d="M 0 0 M16.583 180.049 Q15.6802 180.049 15.223 180.941 Q14.7716 181.826 14.7716 183.608 Q14.7716 185.385 15.223 186.276 Q15.6802 187.162 16.583 187.162 Q17.4915 187.162 17.9429 186.276 Q18.4001 185.385 18.4001 183.608 Q18.4001 181.826 17.9429 180.941 Q17.4915 180.049 16.583 180.049 M16.583 179.124 Q18.0355 179.124 18.7994 180.275 Q19.5691 181.421 19.5691 183.608 Q19.5691 185.79 18.7994 186.942 Q18.0355 188.088 16.583 188.088 Q15.1304 188.088 14.3608 186.942 Q13.5969 185.79 13.5969 183.608 Q13.5969 181.421 14.3608 180.275 Q15.1304 179.124 16.583 179.124 Z" fill="#000000" fill-rule="evenodd" fill-opacity="1" /><path clip-path="url(#clip500)" d="M 0 0 M20.8364 186.45 L22.0575 186.45 L22.0575 187.92 L20.8364 187.92 L20.8364 186.45 Z" fill="#000000" fill-rule="evenodd" fill-opacity="1" /><path clip-path="url(#clip500)" d="M 0 0 M23.3364 179.28 L27.9255 179.28 L27.9255 180.264 L24.407 180.264 L24.407 182.382 Q24.6616 182.295 24.9163 182.254 Q25.1709 182.208 25.4255 182.208 Q26.8723 182.208 27.7172 183.001 Q28.5621 183.794 28.5621 185.148 Q28.5621 186.542 27.694 187.318 Q26.826 188.088 25.2461 188.088 Q24.7021 188.088 24.135 187.995 Q23.5737 187.902 22.9718 187.717 L22.9718 186.542 Q23.4927 186.826 24.0482 186.965 Q24.6038 187.104 25.223 187.104 Q26.2241 187.104 26.8086 186.577 Q27.3931 186.051 27.3931 185.148 Q27.3931 184.245 26.8086 183.718 Q26.2241 183.192 25.223 183.192 Q24.7542 183.192 24.2855 183.296 Q23.8225 183.4 23.3364 183.62 L23.3364 179.28 Z" fill="#000000" fill-rule="evenodd" fill-opacity="1" /><path clip-path="url(#clip500)" d="M 0 0 M14.3434 133.757 L16.2531 133.757 L16.2531 127.165 L14.1756 127.582 L14.1756 126.517 L16.2415 126.101 L17.4105 126.101 L17.4105 133.757 L19.3202 133.757 L19.3202 134.741 L14.3434 134.741 L14.3434 133.757 Z" fill="#000000" fill-rule="evenodd" fill-opacity="1" /><path clip-path="url(#clip500)" d="M 0 0 M20.5876 133.271 L21.8086 133.271 L21.8086 134.741 L20.5876 134.741 L20.5876 133.271 Z" fill="#000000" fill-rule="evenodd" fill-opacity="1" /><path clip-path="url(#clip500)" d="M 0 0 M25.576 126.87 Q24.6732 126.87 24.216 127.762 Q23.7646 128.647 23.7646 130.429 Q23.7646 132.206 24.216 133.097 Q24.6732 133.983 25.576 133.983 Q26.4845 133.983 26.9359 133.097 Q27.3931 132.206 27.3931 130.429 Q27.3931 128.647 26.9359 127.762 Q26.4845 126.87 25.576 126.87 M25.576 125.944 Q27.0285 125.944 27.7924 127.096 Q28.5621 128.242 28.5621 130.429 Q28.5621 132.611 27.7924 133.763 Q27.0285 134.908 25.576 134.908 Q24.1234 134.908 23.3538 133.763 Q22.5899 132.611 22.5899 130.429 Q22.5899 128.242 23.3538 127.096 Q24.1234 125.944 25.576 125.944 Z" fill="#000000" fill-rule="evenodd" fill-opacity="1" /><path clip-path="url(#clip500)" d="M 0 0 M14.5922 80.5777 L16.5019 80.5777 L16.5019 73.9863 L14.4244 74.403 L14.4244 73.3382 L16.4904 72.9215 L17.6594 72.9215 L17.6594 80.5777 L19.5691 80.5777 L19.5691 81.5615 L14.5922 81.5615 L14.5922 80.5777 Z" fill="#000000" fill-rule="evenodd" fill-opacity="1" /><path clip-path="url(#clip500)" d="M 0 0 M20.8364 80.0916 L22.0575 80.0916 L22.0575 81.5615 L20.8364 81.5615 L20.8364 80.0916 Z" fill="#000000" fill-rule="evenodd" fill-opacity="1" /><path clip-path="url(#clip500)" d="M 0 0 M23.3364 72.9215 L27.9255 72.9215 L27.9255 73.9053 L24.407 73.9053 L24.407 76.0234 Q24.6616 75.9366 24.9163 75.8961 Q25.1709 75.8498 25.4255 75.8498 Q26.8723 75.8498 27.7172 76.6426 Q28.5621 77.4354 28.5621 78.7896 Q28.5621 80.1842 27.694 80.9597 Q26.826 81.7294 25.2461 81.7294 Q24.7021 81.7294 24.135 81.6368 Q23.5737 81.5442 22.9718 81.359 L22.9718 80.1842 Q23.4927 80.4678 24.0482 80.6067 Q24.6038 80.7456 25.223 80.7456 Q26.2241 80.7456 26.8086 80.219 Q27.3931 79.6923 27.3931 78.7896 Q27.3931 77.8868 26.8086 77.3602 Q26.2241 76.8336 25.223 76.8336 Q24.7542 76.8336 24.2855 76.9377 Q23.8225 77.0419 23.3364 77.2618 L23.3364 72.9215 Z" fill="#000000" fill-rule="evenodd" fill-opacity="1" /><path clip-path="url(#clip500)" d="M 0 0 M15.2404 27.3986 L19.3202 27.3986 L19.3202 28.3824 L13.8341 28.3824 L13.8341 27.3986 Q14.4996 26.71 15.6455 25.5526 Q16.7971 24.3894 17.0922 24.0537 Q17.6536 23.423 17.8735 22.9889 Q18.0992 22.5491 18.0992 22.1267 Q18.0992 21.438 17.6131 21.004 Q17.1327 20.57 16.3573 20.57 Q15.8075 20.57 15.1941 20.7609 Q14.5865 20.9519 13.892 21.3396 L13.892 20.1591 Q14.598 19.8755 15.2114 19.7309 Q15.8249 19.5862 16.3341 19.5862 Q17.6767 19.5862 18.4753 20.2575 Q19.2739 20.9288 19.2739 22.0514 Q19.2739 22.5838 19.0714 23.0642 Q18.8746 23.5387 18.348 24.1868 Q18.2033 24.3547 17.4279 25.1591 Q16.6524 25.9577 15.2404 27.3986 Z" fill="#000000" fill-rule="evenodd" fill-opacity="1" /><path clip-path="url(#clip500)" d="M 0 0 M20.5876 26.9125 L21.8086 26.9125 L21.8086 28.3824 L20.5876 28.3824 L20.5876 26.9125 Z" fill="#000000" fill-rule="evenodd" fill-opacity="1" /><path clip-path="url(#clip500)" d="M 0 0 M25.576 20.5121 Q24.6732 20.5121 24.216 21.4033 Q23.7646 22.2887 23.7646 24.0711 Q23.7646 25.8477 24.216 26.7389 Q24.6732 27.6243 25.576 27.6243 Q26.4845 27.6243 26.9359 26.7389 Q27.3931 25.8477 27.3931 24.0711 Q27.3931 22.2887 26.9359 21.4033 Q26.4845 20.5121 25.576 20.5121 M25.576 19.5862 Q27.0285 19.5862 27.7924 20.7378 Q28.5621 21.8836 28.5621 24.0711 Q28.5621 26.2528 27.7924 27.4044 Q27.0285 28.5503 25.576 28.5503 Q24.1234 28.5503 23.3538 27.4044 Q22.5899 26.2528 22.5899 24.0711 Q22.5899 21.8836 23.3538 20.7378 Q24.1234 19.5862 25.576 19.5862 Z" fill="#000000" fill-rule="evenodd" fill-opacity="1" /><circle clip-path="url(#clip502)" cx="48.0006" cy="241.634" r="3" fill="#009af9" fill-rule="evenodd" fill-opacity="1" stroke="#000000" stroke-opacity="1" stroke-width="0.6"/>
<circle clip-path="url(#clip502)" cx="70.6645" cy="242.614" r="3" fill="#009af9" fill-rule="evenodd" fill-opacity="1" stroke="#000000" stroke-opacity="1" stroke-width="0.6"/>
<circle clip-path="url(#clip502)" cx="93.3283" cy="255.969" r="3" fill="#009af9" fill-rule="evenodd" fill-opacity="1" stroke="#000000" stroke-opacity="1" stroke-width="0.6"/>
<circle clip-path="url(#clip502)" cx="115.992" cy="264.104" r="3" fill="#009af9" fill-rule="evenodd" fill-opacity="1" stroke="#000000" stroke-opacity="1" stroke-width="0.6"/>
<circle clip-path="url(#clip502)" cx="138.656" cy="257.758" r="3" fill="#009af9" fill-rule="evenodd" fill-opacity="1" stroke="#000000" stroke-opacity="1" stroke-width="0.6"/>
<circle clip-path="url(#clip502)" cx="161.32" cy="265.756" r="3" fill="#009af9" fill-rule="evenodd" fill-opacity="1" stroke="#000000" stroke-opacity="1" stroke-width="0.6"/>
<circle clip-path="url(#clip502)" cx="183.984" cy="262.404" r="3" fill="#009af9" fill-rule="evenodd" fill-opacity="1" stroke="#000000" stroke-opacity="1" stroke-width="0.6"/>
<circle clip-path="url(#clip502)" cx="206.648" cy="250.034" r="3" fill="#009af9" fill-rule="evenodd" fill-opacity="1" stroke="#000000" stroke-opacity="1" stroke-width="0.6"/>
<circle clip-path="url(#clip502)" cx="229.312" cy="251.512" r="3" fill="#009af9" fill-rule="evenodd" fill-opacity="1" stroke="#000000" stroke-opacity="1" stroke-width="0.6"/>
<circle clip-path="url(#clip502)" cx="251.976" cy="236.779" r="3" fill="#009af9" fill-rule="evenodd" fill-opacity="1" stroke="#000000" stroke-opacity="1" stroke-width="0.6"/>
<circle clip-path="url(#clip502)" cx="274.639" cy="219.419" r="3" fill="#009af9" fill-rule="evenodd" fill-opacity="1" stroke="#000000" stroke-opacity="1" stroke-width="0.6"/>
<circle clip-path="url(#clip502)" cx="297.303" cy="213.02" r="3" fill="#009af9" fill-rule="evenodd" fill-opacity="1" stroke="#000000" stroke-opacity="1" stroke-width="0.6"/>
<circle clip-path="url(#clip502)" cx="319.967" cy="187.519" r="3" fill="#009af9" fill-rule="evenodd" fill-opacity="1" stroke="#000000" stroke-opacity="1" stroke-width="0.6"/>
<circle clip-path="url(#clip502)" cx="342.631" cy="165.784" r="3" fill="#009af9" fill-rule="evenodd" fill-opacity="1" stroke="#000000" stroke-opacity="1" stroke-width="0.6"/>
<circle clip-path="url(#clip502)" cx="365.295" cy="150.147" r="3" fill="#009af9" fill-rule="evenodd" fill-opacity="1" stroke="#000000" stroke-opacity="1" stroke-width="0.6"/>
<circle clip-path="url(#clip502)" cx="387.959" cy="114.913" r="3" fill="#009af9" fill-rule="evenodd" fill-opacity="1" stroke="#000000" stroke-opacity="1" stroke-width="0.6"/>
<circle clip-path="url(#clip502)" cx="410.623" cy="88.9083" r="3" fill="#009af9" fill-rule="evenodd" fill-opacity="1" stroke="#000000" stroke-opacity="1" stroke-width="0.6"/>
<circle clip-path="url(#clip502)" cx="433.287" cy="62.8715" r="3" fill="#009af9" fill-rule="evenodd" fill-opacity="1" stroke="#000000" stroke-opacity="1" stroke-width="0.6"/>
<circle clip-path="url(#clip502)" cx="455.95" cy="19.2075" r="3" fill="#009af9" fill-rule="evenodd" fill-opacity="1" stroke="#000000" stroke-opacity="1" stroke-width="0.6"/>
<path clip-path="url(#clip500)" d="
M191.009 50.7624 L261.585 50.7624 L261.585 20.5224 L191.009 20.5224  Z
  " fill="#ffffff" fill-rule="evenodd" fill-opacity="1"/>
<polyline clip-path="url(#clip500)" style="stroke:#000000; stroke-width:1; stroke-opacity:1; fill:none" points="
  191.009,50.7624 261.585,50.7624 261.585,20.5224 191.009,20.5224 191.009,50.7624 
  "/>
<circle clip-path="url(#clip500)" cx="210.228" cy="35.6424" r="5" fill="#009af9" fill-rule="evenodd" fill-opacity="1" stroke="#000000" stroke-opacity="1" stroke-width="0.96"/>
<path clip-path="url(#clip500)" d="M 0 0 M234.175 34.4647 L234.175 30.9578 L235.24 30.9578 L235.24 39.9624 L234.175 39.9624 L234.175 38.9902 Q233.839 39.5689 233.324 39.8524 Q232.815 40.1302 232.097 40.1302 Q230.922 40.1302 230.182 39.1927 Q229.447 38.2552 229.447 36.7275 Q229.447 35.1997 230.182 34.2622 Q230.922 33.3247 232.097 33.3247 Q232.815 33.3247 233.324 33.6083 Q233.839 33.886 234.175 34.4647 M230.546 36.7275 Q230.546 37.9022 231.027 38.5735 Q231.513 39.239 232.358 39.239 Q233.202 39.239 233.689 38.5735 Q234.175 37.9022 234.175 36.7275 Q234.175 35.5527 233.689 34.8872 Q233.202 34.2159 232.358 34.2159 Q231.513 34.2159 231.027 34.8872 Q230.546 35.5527 230.546 36.7275 Z" fill="#000000" fill-rule="evenodd" fill-opacity="1" /><path clip-path="url(#clip500)" d="M 0 0 M239.302 36.7043 Q238.011 36.7043 237.514 36.9994 Q237.016 37.2946 237.016 38.0064 Q237.016 38.5735 237.386 38.9092 Q237.763 39.239 238.405 39.239 Q239.29 39.239 239.823 38.614 Q240.361 37.9832 240.361 36.9416 L240.361 36.7043 L239.302 36.7043 M241.426 36.2645 L241.426 39.9624 L240.361 39.9624 L240.361 38.9786 Q239.996 39.5689 239.452 39.8524 Q238.908 40.1302 238.121 40.1302 Q237.126 40.1302 236.536 39.5747 Q235.951 39.0133 235.951 38.0758 Q235.951 36.9821 236.68 36.4265 Q237.415 35.871 238.868 35.871 L240.361 35.871 L240.361 35.7668 Q240.361 35.0319 239.875 34.6326 Q239.395 34.2275 238.521 34.2275 Q237.965 34.2275 237.439 34.3606 Q236.912 34.4937 236.426 34.7599 L236.426 33.7761 Q237.01 33.5504 237.56 33.4404 Q238.11 33.3247 238.631 33.3247 Q240.037 33.3247 240.731 34.0539 Q241.426 34.783 241.426 36.2645 Z" fill="#000000" fill-rule="evenodd" fill-opacity="1" /><path clip-path="url(#clip500)" d="M 0 0 M243.596 31.6407 L243.596 33.4809 L245.789 33.4809 L245.789 34.3085 L243.596 34.3085 L243.596 37.827 Q243.596 38.6198 243.81 38.8455 Q244.03 39.0712 244.695 39.0712 L245.789 39.0712 L245.789 39.9624 L244.695 39.9624 Q243.463 39.9624 242.994 39.5052 Q242.525 39.0423 242.525 37.827 L242.525 34.3085 L241.744 34.3085 L241.744 33.4809 L242.525 33.4809 L242.525 31.6407 L243.596 31.6407 Z" fill="#000000" fill-rule="evenodd" fill-opacity="1" /><path clip-path="url(#clip500)" d="M 0 0 M249.852 36.7043 Q248.561 36.7043 248.064 36.9994 Q247.566 37.2946 247.566 38.0064 Q247.566 38.5735 247.936 38.9092 Q248.312 39.239 248.955 39.239 Q249.84 39.239 250.373 38.614 Q250.911 37.9832 250.911 36.9416 L250.911 36.7043 L249.852 36.7043 M251.976 36.2645 L251.976 39.9624 L250.911 39.9624 L250.911 38.9786 Q250.546 39.5689 250.002 39.8524 Q249.458 40.1302 248.671 40.1302 Q247.676 40.1302 247.086 39.5747 Q246.501 39.0133 246.501 38.0758 Q246.501 36.9821 247.23 36.4265 Q247.965 35.871 249.418 35.871 L250.911 35.871 L250.911 35.7668 Q250.911 35.0319 250.425 34.6326 Q249.944 34.2275 249.07 34.2275 Q248.515 34.2275 247.988 34.3606 Q247.462 34.4937 246.976 34.7599 L246.976 33.7761 Q247.56 33.5504 248.11 33.4404 Q248.66 33.3247 249.18 33.3247 Q250.587 33.3247 251.281 34.0539 Q251.976 34.783 251.976 36.2645 Z" fill="#000000" fill-rule="evenodd" fill-opacity="1" /></svg>
