<?xml version="1.0" encoding="utf-8"?>
<svg xmlns="http://www.w3.org/2000/svg" xmlns:xlink="http://www.w3.org/1999/xlink" width="120" height="75" viewBox="0 0 480 300">
<defs>
  <clipPath id="clip420">
    <rect x="0" y="0" width="480" height="300"/>
  </clipPath>
</defs>
<path clip-path="url(#clip420)" d="
M0 300 L480 300 L480 0 L0 0  Z
  " fill="#ffffff" fill-rule="evenodd" fill-opacity="1"/>
<defs>
  <clipPath id="clip421">
    <rect x="96" y="0" width="337" height="300"/>
  </clipPath>
</defs>
<path clip-path="url(#clip420)" d="
M35.7621 273.152 L468.189 273.152 L468.189 11.811 L35.7621 11.811  Z
  " fill="#ffffff" fill-rule="evenodd" fill-opacity="1"/>
<defs>
  <clipPath id="clip422">
    <rect x="35" y="11" width="433" height="262"/>
  </clipPath>
</defs>
<polyline clip-path="url(#clip422)" style="stroke:#000000; stroke-width:0.5; stroke-opacity:0.1; fill:none" points="
  48.0006,273.152 48.0006,11.811 
  "/>
<polyline clip-path="url(#clip422)" style="stroke:#000000; stroke-width:0.5; stroke-opacity:0.1; fill:none" points="
  149.988,273.152 149.988,11.811 
  "/>
<polyline clip-path="url(#clip422)" style="stroke:#000000; stroke-width:0.5; stroke-opacity:0.1; fill:none" points="
  251.976,273.152 251.976,11.811 
  "/>
<polyline clip-path="url(#clip422)" style="stroke:#000000; stroke-width:0.5; stroke-opacity:0.1; fill:none" points="
  353.963,273.152 353.963,11.811 
  "/>
<polyline clip-path="url(#clip422)" style="stroke:#000000; stroke-width:0.5; stroke-opacity:0.1; fill:none" points="
  455.95,273.152 455.95,11.811 
  "/>
<polyline clip-path="url(#clip420)" style="stroke:#000000; stroke-width:1; stroke-opacity:1; fill:none" points="
  35.7621,273.152 468.189,273.152 
  "/>
<polyline clip-path="url(#clip420)" style="stroke:#000000; stroke-width:1; stroke-opacity:1; fill:none" points="
  48.0006,273.152 48.0006,270.016 
  "/>
<polyline clip-path="url(#clip420)" style="stroke:#000000; stroke-width:1; stroke-opacity:1; fill:none" points="
  149.988,273.152 149.988,270.016 
  "/>
<polyline clip-path="url(#clip420)" style="stroke:#000000; stroke-width:1; stroke-opacity:1; fill:none" points="
  251.976,273.152 251.976,270.016 
  "/>
<polyline clip-path="url(#clip420)" style="stroke:#000000; stroke-width:1; stroke-opacity:1; fill:none" points="
  353.963,273.152 353.963,270.016 
  "/>
<polyline clip-path="url(#clip420)" style="stroke:#000000; stroke-width:1; stroke-opacity:1; fill:none" points="
  455.95,273.152 455.95,270.016 
  "/>
<path clip-path="url(#clip420)" d="M 0 0 M36.4468 283.153 L43.8658 283.153 L43.8658 284.137 L36.4468 284.137 L36.4468 283.153 Z" fill="#000000" fill-rule="evenodd" fill-opacity="1" /><path clip-path="url(#clip420)" d="M 0 0 M45.3357 286.376 L47.2454 286.376 L47.2454 279.785 L45.1678 280.201 L45.1678 279.137 L47.2338 278.72 L48.4028 278.72 L48.4028 286.376 L50.3125 286.376 L50.3125 287.36 L45.3357 287.36 L45.3357 286.376 Z" fill="#000000" fill-rule="evenodd" fill-opacity="1" /><path clip-path="url(#clip420)" d="M 0 0 M51.5798 285.89 L52.8009 285.89 L52.8009 287.36 L51.5798 287.36 L51.5798 285.89 Z" fill="#000000" fill-rule="evenodd" fill-opacity="1" /><path clip-path="url(#clip420)" d="M 0 0 M56.5682 279.49 Q55.6655 279.49 55.2083 280.381 Q54.7569 281.266 54.7569 283.049 Q54.7569 284.825 55.2083 285.716 Q55.6655 286.602 56.5682 286.602 Q57.4768 286.602 57.9282 285.716 Q58.3854 284.825 58.3854 283.049 Q58.3854 281.266 57.9282 280.381 Q57.4768 279.49 56.5682 279.49 M56.5682 278.564 Q58.0208 278.564 58.7847 279.715 Q59.5543 280.861 59.5543 283.049 Q59.5543 285.23 58.7847 286.382 Q58.0208 287.528 56.5682 287.528 Q55.1157 287.528 54.346 286.382 Q53.5821 285.23 53.5821 283.049 Q53.5821 280.861 54.346 279.715 Q55.1157 278.564 56.5682 278.564 Z" fill="#000000" fill-rule="evenodd" fill-opacity="1" /><path clip-path="url(#clip420)" d="M 0 0 M138.405 283.153 L145.824 283.153 L145.824 284.137 L138.405 284.137 L138.405 283.153 Z" fill="#000000" fill-rule="evenodd" fill-opacity="1" /><path clip-path="url(#clip420)" d="M 0 0 M149.592 279.49 Q148.689 279.49 148.232 280.381 Q147.78 281.266 147.78 283.049 Q147.78 284.825 148.232 285.716 Q148.689 286.602 149.592 286.602 Q150.5 286.602 150.952 285.716 Q151.409 284.825 151.409 283.049 Q151.409 281.266 150.952 280.381 Q150.5 279.49 149.592 279.49 M149.592 278.564 Q151.044 278.564 151.808 279.715 Q152.578 280.861 152.578 283.049 Q152.578 285.23 151.808 286.382 Q151.044 287.528 149.592 287.528 Q148.139 287.528 147.369 286.382 Q146.606 285.23 146.606 283.049 Q146.606 280.861 147.369 279.715 Q148.139 278.564 149.592 278.564 Z" fill="#000000" fill-rule="evenodd" fill-opacity="1" /><path clip-path="url(#clip420)" d="M 0 0 M153.845 285.89 L155.066 285.89 L155.066 287.36 L153.845 287.36 L153.845 285.89 Z" fill="#000000" fill-rule="evenodd" fill-opacity="1" /><path clip-path="url(#clip420)" d="M 0 0 M156.345 278.72 L160.934 278.72 L160.934 279.704 L157.416 279.704 L157.416 281.822 Q157.67 281.735 157.925 281.694 Q158.18 281.648 158.434 281.648 Q159.881 281.648 160.726 282.441 Q161.571 283.234 161.571 284.588 Q161.571 285.983 160.703 286.758 Q159.835 287.528 158.255 287.528 Q157.711 287.528 157.144 287.435 Q156.582 287.343 155.98 287.157 L155.98 285.983 Q156.501 286.266 157.057 286.405 Q157.612 286.544 158.232 286.544 Q159.233 286.544 159.817 286.017 Q160.402 285.491 160.402 284.588 Q160.402 283.685 159.817 283.159 Q159.233 282.632 158.232 282.632 Q157.763 282.632 157.294 282.736 Q156.831 282.84 156.345 283.06 L156.345 278.72 Z" fill="#000000" fill-rule="evenodd" fill-opacity="1" /><path clip-path="url(#clip420)" d="M 0 0 M247.355 279.49 Q246.452 279.49 245.995 280.381 Q245.543 281.266 245.543 283.049 Q245.543 284.825 245.995 285.716 Q246.452 286.602 247.355 286.602 Q248.263 286.602 248.715 285.716 Q249.172 284.825 249.172 283.049 Q249.172 281.266 248.715 280.381 Q248.263 279.49 247.355 279.49 M247.355 278.564 Q248.807 278.564 249.571 279.715 Q250.341 280.861 250.341 283.049 Q250.341 285.23 249.571 286.382 Q248.807 287.528 247.355 287.528 Q245.902 287.528 245.132 286.382 Q244.369 285.23 244.369 283.049 Q244.369 280.861 245.132 279.715 Q245.902 278.564 247.355 278.564 Z" fill="#000000" fill-rule="evenodd" fill-opacity="1" /><path clip-path="url(#clip420)" d="M 0 0 M251.608 285.89 L252.829 285.89 L252.829 287.36 L251.608 287.36 L251.608 285.89 Z" fill="#000000" fill-rule="evenodd" fill-opacity="1" /><path clip-path="url(#clip420)" d="M 0 0 M256.596 279.49 Q255.694 279.49 255.237 280.381 Q254.785 281.266 254.785 283.049 Q254.785 284.825 255.237 285.716 Q255.694 286.602 256.596 286.602 Q257.505 286.602 257.956 285.716 Q258.414 284.825 258.414 283.049 Q258.414 281.266 257.956 280.381 Q257.505 279.49 256.596 279.49 M256.596 278.564 Q258.049 278.564 258.813 279.715 Q259.583 280.861 259.583 283.049 Q259.583 285.23 258.813 286.382 Q258.049 287.528 256.596 287.528 Q255.144 287.528 254.374 286.382 Q253.61 285.23 253.61 283.049 Q253.61 280.861 254.374 279.715 Q255.144 278.564 256.596 278.564 Z" fill="#000000" fill-rule="evenodd" fill-opacity="1" /><path clip-path="url(#clip420)" d="M 0 0 M349.466 279.49 Q348.564 279.49 348.107 280.381 Q347.655 281.266 347.655 283.049 Q347.655 284.825 348.107 285.716 Q348.564 286.602 349.466 286.602 Q350.375 286.602 350.826 285.716 Q351.284 284.825 351.284 283.049 Q351.284 281.266 350.826 280.381 Q350.375 279.49 349.466 279.49 M349.466 278.564 Q350.919 278.564 351.683 279.715 Q352.453 280.861 352.453 283.049 Q352.453 285.23 351.683 286.382 Q350.919 287.528 349.466 287.528 Q348.014 287.528 347.244 286.382 Q346.48 285.23 346.48 283.049 Q346.48 280.861 347.244 279.715 Q348.014 278.564 349.466 278.564 Z" fill="#000000" fill-rule="evenodd" fill-opacity="1" /><path clip-path="url(#clip420)" d="M 0 0 M353.72 285.89 L354.941 285.89 L354.941 287.36 L353.72 287.36 L353.72 285.89 Z" fill="#000000" fill-rule="evenodd" fill-opacity="1" /><path clip-path="url(#clip420)" d="M 0 0 M356.22 278.72 L360.809 278.72 L360.809 279.704 L357.291 279.704 L357.291 281.822 Q357.545 281.735 357.8 281.694 Q358.054 281.648 358.309 281.648 Q359.756 281.648 360.601 282.441 Q361.446 283.234 361.446 284.588 Q361.446 285.983 360.578 286.758 Q359.709 287.528 358.13 287.528 Q357.586 287.528 357.019 287.435 Q356.457 287.343 355.855 287.157 L355.855 285.983 Q356.376 286.266 356.932 286.405 Q357.487 286.544 358.106 286.544 Q359.108 286.544 359.692 286.017 Q360.277 285.491 360.277 284.588 Q360.277 283.685 359.692 283.159 Q359.108 282.632 358.106 282.632 Q357.638 282.632 357.169 282.736 Q356.706 282.84 356.22 283.06 L356.22 278.72 Z" fill="#000000" fill-rule="evenodd" fill-opacity="1" /><path clip-path="url(#clip420)" d="M 0 0 M448.925 286.376 L450.835 286.376 L450.835 279.785 L448.757 280.201 L448.757 279.137 L450.823 278.72 L451.992 278.72 L451.992 286.376 L453.902 286.376 L453.902 287.36 L448.925 287.36 L448.925 286.376 Z" fill="#000000" fill-rule="evenodd" fill-opacity="1" /><path clip-path="url(#clip420)" d="M 0 0 M455.169 285.89 L456.39 285.89 L456.39 287.36 L455.169 287.36 L455.169 285.89 Z" fill="#000000" fill-rule="evenodd" fill-opacity="1" /><path clip-path="url(#clip420)" d="M 0 0 M460.158 279.49 Q459.255 279.49 458.798 280.381 Q458.346 281.266 458.346 283.049 Q458.346 284.825 458.798 285.716 Q459.255 286.602 460.158 286.602 Q461.066 286.602 461.518 285.716 Q461.975 284.825 461.975 283.049 Q461.975 281.266 461.518 280.381 Q461.066 279.49 460.158 279.49 M460.158 278.564 Q461.61 278.564 462.374 279.715 Q463.144 280.861 463.144 283.049 Q463.144 285.23 462.374 286.382 Q461.61 287.528 460.158 287.528 Q458.705 287.528 457.935 286.382 Q457.172 285.23 457.172 283.049 Q457.172 280.861 457.935 279.715 Q458.705 278.564 460.158 278.564 Z" fill="#000000" fill-rule="evenodd" fill-opacity="1" /><polyline clip-path="url(#clip422)" style="stroke:#000000; stroke-width:0.5; stroke-opacity:0.1; fill:none" points="
  35.7621,242.488 468.189,242.488 
  "/>
<polyline clip-path="url(#clip422)" style="stroke:#000000; stroke-width:0.5; stroke-opacity:0.1; fill:none" points="
  35.7621,187.914 468.189,187.914 
  "/>
<polyline clip-path="url(#clip422)" style="stroke:#000000; stroke-width:0.5; stroke-opacity:0.1; fill:none" points="
  35.7621,133.339 468.189,133.339 
  "/>
<polyline clip-path="url(#clip422)" style="stroke:#000000; stroke-width:0.5; stroke-opacity:0.1; fill:none" points="
  35.7621,78.7644 468.189,78.7644 
  "/>
<polyline clip-path="url(#clip422)" style="stroke:#000000; stroke-width:0.5; stroke-opacity:0.1; fill:none" points="
  35.7621,24.1898 468.189,24.1898 
  "/>
<polyline clip-path="url(#clip420)" style="stroke:#000000; stroke-width:1; stroke-opacity:1; fill:none" points="
  35.7621,273.152 35.7621,11.811 
  "/>
<polyline clip-path="url(#clip420)" style="stroke:#000000; stroke-width:1; stroke-opacity:1; fill:none" points="
  35.7621,242.488 40.9512,242.488 
  "/>
<polyline clip-path="url(#clip420)" style="stroke:#000000; stroke-width:1; stroke-opacity:1; fill:none" points="
  35.7621,187.914 40.9512,187.914 
  "/>
<polyline clip-path="url(#clip420)" style="stroke:#000000; stroke-width:1; stroke-opacity:1; fill:none" points="
  35.7621,133.339 40.9512,133.339 
  "/>
<polyline clip-path="url(#clip420)" style="stroke:#000000; stroke-width:1; stroke-opacity:1; fill:none" points="
  35.7621,78.7644 40.9512,78.7644 
  "/>
<polyline clip-path="url(#clip420)" style="stroke:#000000; stroke-width:1; stroke-opacity:1; fill:none" points="
  35.7621,24.1898 40.9512,24.1898 
  "/>
<path clip-path="url(#clip420)" d="M 0 0 M16.3341 238.938 Q15.4314 238.938 14.9742 239.829 Q14.5228 240.714 14.5228 242.497 Q14.5228 244.273 14.9742 245.165 Q15.4314 246.05 16.3341 246.05 Q17.2427 246.05 17.6941 245.165 Q18.1512 244.273 18.1512 242.497 Q18.1512 240.714 17.6941 239.829 Q17.2427 238.938 16.3341 238.938 M16.3341 238.012 Q17.7867 238.012 18.5505 239.163 Q19.3202 240.309 19.3202 242.497 Q19.3202 244.678 18.5505 245.83 Q17.7867 246.976 16.3341 246.976 Q14.8816 246.976 14.1119 245.83 Q13.348 244.678 13.348 242.497 Q13.348 240.309 14.1119 239.163 Q14.8816 238.012 16.3341 238.012 Z" fill="#000000" fill-rule="evenodd" fill-opacity="1" /><path clip-path="url(#clip420)" d="M 0 0 M20.5876 245.338 L21.8086 245.338 L21.8086 246.808 L20.5876 246.808 L20.5876 245.338 Z" fill="#000000" fill-rule="evenodd" fill-opacity="1" /><path clip-path="url(#clip420)" d="M 0 0 M25.576 238.938 Q24.6732 238.938 24.216 239.829 Q23.7646 240.714 23.7646 242.497 Q23.7646 244.273 24.216 245.165 Q24.6732 246.05 25.576 246.05 Q26.4845 246.05 26.9359 245.165 Q27.3931 244.273 27.3931 242.497 Q27.3931 240.714 26.9359 239.829 Q26.4845 238.938 25.576 238.938 M25.576 238.012 Q27.0285 238.012 27.7924 239.163 Q28.5621 240.309 28.5621 242.497 Q28.5621 244.678 27.7924 245.83 Q27.0285 246.976 25.576 246.976 Q24.1234 246.976 23.3538 245.83 Q22.5899 244.678 22.5899 242.497 Q22.5899 240.309 23.3538 239.163 Q24.1234 238.012 25.576 238.012 Z" fill="#000000" fill-rule="evenodd" fill-opacity="1" /><path clip-path="url(#clip420)" d="M 0 0 M16.583 184.363 Q15.6802 184.363 15.223 185.254 Q14.7716 186.14 14.7716 187.922 Q14.7716 189.699 15.223 190.59 Q15.6802 191.475 16.583 191.475 Q17.4915 191.475 17.9429 190.59 Q18.4001 189.699 18.4001 187.922 Q18.4001 186.14 17.9429 185.254 Q17.4915 184.363 16.583 184.363 M16.583 183.437 Q18.0355 183.437 18.7994 184.589 Q19.5691 185.735 19.5691 187.922 Q19.5691 190.104 18.7994 191.255 Q18.0355 192.401 16.583 192.401 Q15.1304 192.401 14.3608 191.255 Q13.5969 190.104 13.5969 187.922 Q13.5969 185.735 14.3608 184.589 Q15.1304 183.437 16.583 183.437 Z" fill="#000000" fill-rule="evenodd" fill-opacity="1" /><path clip-path="url(#clip420)" d="M 0 0 M20.8364 190.764 L22.0575 190.764 L22.0575 192.234 L20.8364 192.234 L20.8364 190.764 Z" fill="#000000" fill-rule="evenodd" fill-opacity="1" /><path clip-path="url(#clip420)" d="M 0 0 M23.3364 183.594 L27.9255 183.594 L27.9255 184.577 L24.407 184.577 L24.407 186.695 Q24.6616 186.609 24.9163 186.568 Q25.1709 186.522 25.4255 186.522 Q26.8723 186.522 27.7172 187.315 Q28.5621 188.107 28.5621 189.462 Q28.5621 190.856 27.694 191.632 Q26.826 192.401 25.2461 192.401 Q24.7021 192.401 24.135 192.309 Q23.5737 192.216 22.9718 192.031 L22.9718 190.856 Q23.4927 191.14 24.0482 191.279 Q24.6038 191.418 25.223 191.418 Q26.2241 191.418 26.8086 190.891 Q27.3931 190.364 27.3931 189.462 Q27.3931 188.559 26.8086 188.032 Q26.2241 187.506 25.223 187.506 Q24.7542 187.506 24.2855 187.61 Q23.8225 187.714 23.3364 187.934 L23.3364 183.594 Z" fill="#000000" fill-rule="evenodd" fill-opacity="1" /><path clip-path="url(#clip420)" d="M 0 0 M14.3434 136.675 L16.2531 136.675 L16.2531 130.084 L14.1756 130.5 L14.1756 129.436 L16.2415 129.019 L17.4105 129.019 L17.4105 136.675 L19.3202 136.675 L19.3202 137.659 L14.3434 137.659 L14.3434 136.675 Z" fill="#000000" fill-rule="evenodd" fill-opacity="1" /><path clip-path="url(#clip420)" d="M 0 0 M20.5876 136.189 L21.8086 136.189 L21.8086 137.659 L20.5876 137.659 L20.5876 136.189 Z" fill="#000000" fill-rule="evenodd" fill-opacity="1" /><path clip-path="url(#clip420)" d="M 0 0 M25.576 129.789 Q24.6732 129.789 24.216 130.68 Q23.7646 131.565 23.7646 133.348 Q23.7646 135.124 24.216 136.015 Q24.6732 136.901 25.576 136.901 Q26.4845 136.901 26.9359 136.015 Q27.3931 135.124 27.3931 133.348 Q27.3931 131.565 26.9359 130.68 Q26.4845 129.789 25.576 129.789 M25.576 128.863 Q27.0285 128.863 27.7924 130.014 Q28.5621 131.16 28.5621 133.348 Q28.5621 135.529 27.7924 136.681 Q27.0285 137.827 25.576 137.827 Q24.1234 137.827 23.3538 136.681 Q22.5899 135.529 22.5899 133.348 Q22.5899 131.16 23.3538 130.014 Q24.1234 128.863 25.576 128.863 Z" fill="#000000" fill-rule="evenodd" fill-opacity="1" /><path clip-path="url(#clip420)" d="M 0 0 M14.5922 82.1006 L16.5019 82.1006 L16.5019 75.5092 L14.4244 75.9259 L14.4244 74.861 L16.4904 74.4444 L17.6594 74.4444 L17.6594 82.1006 L19.5691 82.1006 L19.5691 83.0844 L14.5922 83.0844 L14.5922 82.1006 Z" fill="#000000" fill-rule="evenodd" fill-opacity="1" /><path clip-path="url(#clip420)" d="M 0 0 M20.8364 81.6145 L22.0575 81.6145 L22.0575 83.0844 L20.8364 83.0844 L20.8364 81.6145 Z" fill="#000000" fill-rule="evenodd" fill-opacity="1" /><path clip-path="url(#clip420)" d="M 0 0 M23.3364 74.4444 L27.9255 74.4444 L27.9255 75.4282 L24.407 75.4282 L24.407 77.5462 Q24.6616 77.4594 24.9163 77.4189 Q25.1709 77.3726 25.4255 77.3726 Q26.8723 77.3726 27.7172 78.1654 Q28.5621 78.9582 28.5621 80.3124 Q28.5621 81.7071 27.694 82.4825 Q26.826 83.2522 25.2461 83.2522 Q24.7021 83.2522 24.135 83.1596 Q23.5737 83.067 22.9718 82.8818 L22.9718 81.7071 Q23.4927 81.9906 24.0482 82.1295 Q24.6038 82.2684 25.223 82.2684 Q26.2241 82.2684 26.8086 81.7418 Q27.3931 81.2152 27.3931 80.3124 Q27.3931 79.4096 26.8086 78.883 Q26.2241 78.3564 25.223 78.3564 Q24.7542 78.3564 24.2855 78.4606 Q23.8225 78.5647 23.3364 78.7846 L23.3364 74.4444 Z" fill="#000000" fill-rule="evenodd" fill-opacity="1" /><path clip-path="url(#clip420)" d="M 0 0 M15.2404 27.526 L19.3202 27.526 L19.3202 28.5098 L13.8341 28.5098 L13.8341 27.526 Q14.4996 26.8374 15.6455 25.68 Q16.7971 24.5168 17.0922 24.1811 Q17.6536 23.5504 17.8735 23.1163 Q18.0992 22.6765 18.0992 22.2541 Q18.0992 21.5654 17.6131 21.1314 Q17.1327 20.6974 16.3573 20.6974 Q15.8075 20.6974 15.1941 20.8883 Q14.5865 21.0793 13.892 21.467 L13.892 20.2865 Q14.598 20.0029 15.2114 19.8582 Q15.8249 19.7136 16.3341 19.7136 Q17.6767 19.7136 18.4753 20.3849 Q19.2739 21.0562 19.2739 22.1788 Q19.2739 22.7112 19.0714 23.1916 Q18.8746 23.6661 18.348 24.3142 Q18.2033 24.4821 17.4279 25.2865 Q16.6524 26.0851 15.2404 27.526 Z" fill="#000000" fill-rule="evenodd" fill-opacity="1" /><path clip-path="url(#clip420)" d="M 0 0 M20.5876 27.0399 L21.8086 27.0399 L21.8086 28.5098 L20.5876 28.5098 L20.5876 27.0399 Z" fill="#000000" fill-rule="evenodd" fill-opacity="1" /><path clip-path="url(#clip420)" d="M 0 0 M25.576 20.6395 Q24.6732 20.6395 24.216 21.5307 Q23.7646 22.4161 23.7646 24.1985 Q23.7646 25.9751 24.216 26.8663 Q24.6732 27.7517 25.576 27.7517 Q26.4845 27.7517 26.9359 26.8663 Q27.3931 25.9751 27.3931 24.1985 Q27.3931 22.4161 26.9359 21.5307 Q26.4845 20.6395 25.576 20.6395 M25.576 19.7136 Q27.0285 19.7136 27.7924 20.8652 Q28.5621 22.011 28.5621 24.1985 Q28.5621 26.3802 27.7924 27.5318 Q27.0285 28.6776 25.576 28.6776 Q24.1234 28.6776 23.3538 27.5318 Q22.5899 26.3802 22.5899 24.1985 Q22.5899 22.011 23.3538 20.8652 Q24.1234 19.7136 25.576 19.7136 Z" fill="#000000" fill-rule="evenodd" fill-opacity="1" /><circle clip-path="url(#clip422)" cx="48.0006" cy="247.47" r="3" fill="#009af9" fill-rule="evenodd" fill-opacity="1" stroke="#000000" stroke-opacity="1" stroke-width="0.6"/>
<circle clip-path="url(#clip422)" cx="129.591" cy="265.756" r="3" fill="#009af9" fill-rule="evenodd" fill-opacity="1" stroke="#000000" stroke-opacity="1" stroke-width="0.6"/>
<circle clip-path="url(#clip422)" cx="211.181" cy="255.822" r="3" fill="#009af9" fill-rule="evenodd" fill-opacity="1" stroke="#000000" stroke-opacity="1" stroke-width="0.6"/>
<circle clip-path="url(#clip422)" cx="292.771" cy="220.422" r="3" fill="#009af9" fill-rule="evenodd" fill-opacity="1" stroke="#000000" stroke-opacity="1" stroke-width="0.6"/>
<circle clip-path="url(#clip422)" cx="374.36" cy="140.633" r="3" fill="#009af9" fill-rule="evenodd" fill-opacity="1" stroke="#000000" stroke-opacity="1" stroke-width="0.6"/>
<circle clip-path="url(#clip422)" cx="455.95" cy="19.2075" r="3" fill="#009af9" fill-rule="evenodd" fill-opacity="1" stroke="#000000" stroke-opacity="1" stroke-width="0.6"/>
<path clip-path="url(#clip420)" d="
M191.009 50.7624 L261.585 50.7624 L261.585 20.5224 L191.009 20.5224  Z
  " fill="#ffffff" fill-rule="evenodd" fill-opacity="1"/>
<polyline clip-path="url(#clip420)" style="stroke:#000000; stroke-width:1; stroke-opacity:1; fill:none" points="
  191.009,50.7624 261.585,50.7624 261.585,20.5224 191.009,20.5224 191.009,50.7624 
  "/>
<circle clip-path="url(#clip420)" cx="210.228" cy="35.6424" r="5" fill="#009af9" fill-rule="evenodd" fill-opacity="1" stroke="#000000" stroke-opacity="1" stroke-width="0.96"/>
<path clip-path="url(#clip420)" d="M 0 0 M234.175 34.4647 L234.175 30.9578 L235.24 30.9578 L235.24 39.9624 L234.175 39.9624 L234.175 38.9902 Q233.839 39.5689 233.324 39.8524 Q232.815 40.1302 232.097 40.1302 Q230.922 40.1302 230.182 39.1927 Q229.447 38.2552 229.447 36.7275 Q229.447 35.1997 230.182 34.2622 Q230.922 33.3247 232.097 33.3247 Q232.815 33.3247 233.324 33.6083 Q233.839 33.886 234.175 34.4647 M230.546 36.7275 Q230.546 37.9022 231.027 38.5735 Q231.513 39.239 232.358 39.239 Q233.202 39.239 233.689 38.5735 Q234.175 37.9022 234.175 36.7275 Q234.175 35.5527 233.689 34.8872 Q233.202 34.2159 232.358 34.2159 Q231.513 34.2159 231.027 34.8872 Q230.546 35.5527 230.546 36.7275 Z" fill="#000000" fill-rule="evenodd" fill-opacity="1" /><path clip-path="url(#clip420)" d="M 0 0 M239.302 36.7043 Q238.011 36.7043 237.514 36.9994 Q237.016 37.2946 237.016 38.0064 Q237.016 38.5735 237.386 38.9092 Q237.763 39.239 238.405 39.239 Q239.29 39.239 239.823 38.614 Q240.361 37.9832 240.361 36.9416 L240.361 36.7043 L239.302 36.7043 M241.426 36.2645 L241.426 39.9624 L240.361 39.9624 L240.361 38.9786 Q239.996 39.5689 239.452 39.8524 Q238.908 40.1302 238.121 40.1302 Q237.126 40.1302 236.536 39.5747 Q235.951 39.0133 235.951 38.0758 Q235.951 36.9821 236.68 36.4265 Q237.415 35.871 238.868 35.871 L240.361 35.871 L240.361 35.7668 Q240.361 35.0319 239.875 34.6326 Q239.395 34.2275 238.521 34.2275 Q237.965 34.2275 237.439 34.3606 Q236.912 34.4937 236.426 34.7599 L236.426 33.7761 Q237.01 33.5504 237.56 33.4404 Q238.11 33.3247 238.631 33.3247 Q240.037 33.3247 240.731 34.0539 Q241.426 34.783 241.426 36.2645 Z" fill="#000000" fill-rule="evenodd" fill-opacity="1" /><path clip-path="url(#clip420)" d="M 0 0 M243.596 31.6407 L243.596 33.4809 L245.789 33.4809 L245.789 34.3085 L243.596 34.3085 L243.596 37.827 Q243.596 38.6198 243.81 38.8455 Q244.03 39.0712 244.695 39.0712 L245.789 39.0712 L245.789 39.9624 L244.695 39.9624 Q243.463 39.9624 242.994 39.5052 Q242.525 39.0423 242.525 37.827 L242.525 34.3085 L241.744 34.3085 L241.744 33.4809 L242.525 33.4809 L242.525 31.6407 L243.596 31.6407 Z" fill="#000000" fill-rule="evenodd" fill-opacity="1" /><path clip-path="url(#clip420)" d="M 0 0 M249.852 36.7043 Q248.561 36.7043 248.064 36.9994 Q247.566 37.2946 247.566 38.0064 Q247.566 38.5735 247.936 38.9092 Q248.312 39.239 248.955 39.239 Q249.84 39.239 250.373 38.614 Q250.911 37.9832 250.911 36.9416 L250.911 36.7043 L249.852 36.7043 M251.976 36.2645 L251.976 39.9624 L250.911 39.9624 L250.911 38.9786 Q250.546 39.5689 250.002 39.8524 Q249.458 40.1302 248.671 40.1302 Q247.676 40.1302 247.086 39.5747 Q246.501 39.0133 246.501 38.0758 Q246.501 36.9821 247.23 36.4265 Q247.965 35.871 249.418 35.871 L250.911 35.871 L250.911 35.7668 Q250.911 35.0319 250.425 34.6326 Q249.944 34.2275 249.07 34.2275 Q248.515 34.2275 247.988 34.3606 Q247.462 34.4937 246.976 34.7599 L246.976 33.7761 Q247.56 33.5504 248.11 33.4404 Q248.66 33.3247 249.18 33.3247 Q250.587 33.3247 251.281 34.0539 Q251.976 34.783 251.976 36.2645 Z" fill="#000000" fill-rule="evenodd" fill-opacity="1" /></svg>
