<?xml version="1.0" encoding="utf-8"?>
<svg xmlns="http://www.w3.org/2000/svg" xmlns:xlink="http://www.w3.org/1999/xlink" width="120" height="75" viewBox="0 0 480 300">
<defs>
  <clipPath id="clip630">
    <rect x="0" y="0" width="480" height="300"/>
  </clipPath>
</defs>
<path clip-path="url(#clip630)" d="
M0 300 L480 300 L480 0 L0 0  Z
  " fill="#ffffff" fill-rule="evenodd" fill-opacity="1"/>
<defs>
  <clipPath id="clip631">
    <rect x="96" y="0" width="337" height="300"/>
  </clipPath>
</defs>
<path clip-path="url(#clip630)" d="
M63.9427 255.53 L468.189 255.53 L468.189 27.537 L63.9427 27.537  Z
  " fill="#ffffff" fill-rule="evenodd" fill-opacity="1"/>
<defs>
  <clipPath id="clip632">
    <rect x="63" y="27" width="405" height="229"/>
  </clipPath>
</defs>
<polyline clip-path="url(#clip632)" style="stroke:#000000; stroke-width:0.5; stroke-opacity:0.1; fill:none" points="
  90.3733,255.53 90.3733,27.537 
  "/>
<polyline clip-path="url(#clip632)" style="stroke:#000000; stroke-width:0.5; stroke-opacity:0.1; fill:none" points="
  167.711,255.53 167.711,27.537 
  "/>
<polyline clip-path="url(#clip632)" style="stroke:#000000; stroke-width:0.5; stroke-opacity:0.1; fill:none" points="
  245.049,255.53 245.049,27.537 
  "/>
<polyline clip-path="url(#clip632)" style="stroke:#000000; stroke-width:0.5; stroke-opacity:0.1; fill:none" points="
  322.387,255.53 322.387,27.537 
  "/>
<polyline clip-path="url(#clip632)" style="stroke:#000000; stroke-width:0.5; stroke-opacity:0.1; fill:none" points="
  399.725,255.53 399.725,27.537 
  "/>
<polyline clip-path="url(#clip630)" style="stroke:#000000; stroke-width:1; stroke-opacity:1; fill:none" points="
  63.9427,255.53 468.189,255.53 
  "/>
<polyline clip-path="url(#clip630)" style="stroke:#000000; stroke-width:1; stroke-opacity:1; fill:none" points="
  90.3733,255.53 90.3733,252.794 
  "/>
<polyline clip-path="url(#clip630)" style="stroke:#000000; stroke-width:1; stroke-opacity:1; fill:none" points="
  167.711,255.53 167.711,252.794 
  "/>
<polyline clip-path="url(#clip630)" style="stroke:#000000; stroke-width:1; stroke-opacity:1; fill:none" points="
  245.049,255.53 245.049,252.794 
  "/>
<polyline clip-path="url(#clip630)" style="stroke:#000000; stroke-width:1; stroke-opacity:1; fill:none" points="
  322.387,255.53 322.387,252.794 
  "/>
<polyline clip-path="url(#clip630)" style="stroke:#000000; stroke-width:1; stroke-opacity:1; fill:none" points="
  399.725,255.53 399.725,252.794 
  "/>
<path clip-path="url(#clip630)" d="M 0 0 M78.7476 274.138 L80.6573 274.138 L80.6573 267.546 L78.5798 267.963 L78.5798 266.898 L80.6457 266.481 L81.8147 266.481 L81.8147 274.138 L83.7244 274.138 L83.7244 275.121 L78.7476 275.121 L78.7476 274.138 Z" fill="#000000" fill-rule="evenodd" fill-opacity="1" /><path clip-path="url(#clip630)" d="M 0 0 M87.4917 267.251 Q86.589 267.251 86.1318 268.142 Q85.6804 269.028 85.6804 270.81 Q85.6804 272.587 86.1318 273.478 Q86.589 274.363 87.4917 274.363 Q88.4003 274.363 88.8517 273.478 Q89.3089 272.587 89.3089 270.81 Q89.3089 269.028 88.8517 268.142 Q88.4003 267.251 87.4917 267.251 M87.4917 266.325 Q88.9443 266.325 89.7082 267.477 Q90.4778 268.622 90.4778 270.81 Q90.4778 272.992 89.7082 274.143 Q88.9443 275.289 87.4917 275.289 Q86.0392 275.289 85.2695 274.143 Q84.5057 272.992 84.5057 270.81 Q84.5057 268.622 85.2695 267.477 Q86.0392 266.325 87.4917 266.325 Z" fill="#000000" fill-rule="evenodd" fill-opacity="1" /><path clip-path="url(#clip630)" d="M 0 0 M90.6142 267.469 L92.1658 267.469 L92.1658 262.114 L90.4778 262.452 L90.4778 261.587 L92.1564 261.249 L93.1062 261.249 L93.1062 267.469 L94.6579 267.469 L94.6579 268.269 L90.6142 268.269 L90.6142 267.469 Z" fill="#000000" fill-rule="evenodd" fill-opacity="1" /><path clip-path="url(#clip630)" d="M 0 0 M95.6876 267.074 L96.6797 267.074 L96.6797 268.269 L95.6876 268.269 L95.6876 267.074 Z" fill="#000000" fill-rule="evenodd" fill-opacity="1" /><path clip-path="url(#clip630)" d="M 0 0 M99.7407 261.874 Q99.0072 261.874 98.6357 262.598 Q98.269 263.318 98.269 264.766 Q98.269 266.209 98.6357 266.933 Q99.0072 267.653 99.7407 267.653 Q100.479 267.653 100.846 266.933 Q101.217 266.209 101.217 264.766 Q101.217 263.318 100.846 262.598 Q100.479 261.874 99.7407 261.874 M99.7407 261.122 Q100.921 261.122 101.542 262.057 Q102.167 262.988 102.167 264.766 Q102.167 266.538 101.542 267.474 Q100.921 268.405 99.7407 268.405 Q98.5605 268.405 97.9351 267.474 Q97.3145 266.538 97.3145 264.766 Q97.3145 262.988 97.9351 262.057 Q98.5605 261.122 99.7407 261.122 Z" fill="#000000" fill-rule="evenodd" fill-opacity="1" /><path clip-path="url(#clip630)" d="M 0 0 M156.187 274.138 L158.096 274.138 L158.096 267.546 L156.019 267.963 L156.019 266.898 L158.085 266.481 L159.254 266.481 L159.254 274.138 L161.164 274.138 L161.164 275.121 L156.187 275.121 L156.187 274.138 Z" fill="#000000" fill-rule="evenodd" fill-opacity="1" /><path clip-path="url(#clip630)" d="M 0 0 M164.931 267.251 Q164.028 267.251 163.571 268.142 Q163.12 269.028 163.12 270.81 Q163.12 272.587 163.571 273.478 Q164.028 274.363 164.931 274.363 Q165.839 274.363 166.291 273.478 Q166.748 272.587 166.748 270.81 Q166.748 269.028 166.291 268.142 Q165.839 267.251 164.931 267.251 M164.931 266.325 Q166.383 266.325 167.147 267.477 Q167.917 268.622 167.917 270.81 Q167.917 272.992 167.147 274.143 Q166.383 275.289 164.931 275.289 Q163.478 275.289 162.709 274.143 Q161.945 272.992 161.945 270.81 Q161.945 268.622 162.709 267.477 Q163.478 266.325 164.931 266.325 Z" fill="#000000" fill-rule="evenodd" fill-opacity="1" /><path clip-path="url(#clip630)" d="M 0 0 M168.053 267.469 L169.605 267.469 L169.605 262.114 L167.917 262.452 L167.917 261.587 L169.596 261.249 L170.545 261.249 L170.545 267.469 L172.097 267.469 L172.097 268.269 L168.053 268.269 L168.053 267.469 Z" fill="#000000" fill-rule="evenodd" fill-opacity="1" /><path clip-path="url(#clip630)" d="M 0 0 M173.127 267.074 L174.119 267.074 L174.119 268.269 L173.127 268.269 L173.127 267.074 Z" fill="#000000" fill-rule="evenodd" fill-opacity="1" /><path clip-path="url(#clip630)" d="M 0 0 M175.158 261.249 L178.887 261.249 L178.887 262.048 L176.028 262.048 L176.028 263.769 Q176.235 263.698 176.442 263.666 Q176.648 263.628 176.855 263.628 Q178.031 263.628 178.717 264.272 Q179.404 264.916 179.404 266.016 Q179.404 267.15 178.699 267.78 Q177.993 268.405 176.71 268.405 Q176.268 268.405 175.807 268.33 Q175.351 268.255 174.862 268.104 L174.862 267.15 Q175.285 267.38 175.736 267.493 Q176.188 267.606 176.691 267.606 Q177.504 267.606 177.979 267.178 Q178.454 266.75 178.454 266.016 Q178.454 265.283 177.979 264.855 Q177.504 264.427 176.691 264.427 Q176.31 264.427 175.929 264.512 Q175.553 264.596 175.158 264.775 L175.158 261.249 Z" fill="#000000" fill-rule="evenodd" fill-opacity="1" /><path clip-path="url(#clip630)" d="M 0 0 M233.285 274.138 L235.195 274.138 L235.195 267.546 L233.117 267.963 L233.117 266.898 L235.183 266.481 L236.352 266.481 L236.352 274.138 L238.262 274.138 L238.262 275.121 L233.285 275.121 L233.285 274.138 Z" fill="#000000" fill-rule="evenodd" fill-opacity="1" /><path clip-path="url(#clip630)" d="M 0 0 M242.029 267.251 Q241.126 267.251 240.669 268.142 Q240.218 269.028 240.218 270.81 Q240.218 272.587 240.669 273.478 Q241.126 274.363 242.029 274.363 Q242.938 274.363 243.389 273.478 Q243.846 272.587 243.846 270.81 Q243.846 269.028 243.389 268.142 Q242.938 267.251 242.029 267.251 M242.029 266.325 Q243.482 266.325 244.245 267.477 Q245.015 268.622 245.015 270.81 Q245.015 272.992 244.245 274.143 Q243.482 275.289 242.029 275.289 Q240.577 275.289 239.807 274.143 Q239.043 272.992 239.043 270.81 Q239.043 268.622 239.807 267.477 Q240.577 266.325 242.029 266.325 Z" fill="#000000" fill-rule="evenodd" fill-opacity="1" /><path clip-path="url(#clip630)" d="M 0 0 M246.158 267.469 L249.473 267.469 L249.473 268.269 L245.015 268.269 L245.015 267.469 Q245.556 266.91 246.487 265.969 Q247.423 265.024 247.662 264.752 Q248.118 264.239 248.297 263.886 Q248.48 263.529 248.48 263.186 Q248.48 262.626 248.086 262.274 Q247.695 261.921 247.065 261.921 Q246.619 261.921 246.12 262.076 Q245.626 262.231 245.062 262.546 L245.062 261.587 Q245.636 261.357 246.134 261.239 Q246.633 261.122 247.046 261.122 Q248.137 261.122 248.786 261.667 Q249.435 262.213 249.435 263.125 Q249.435 263.557 249.27 263.948 Q249.111 264.333 248.683 264.86 Q248.565 264.996 247.935 265.65 Q247.305 266.299 246.158 267.469 Z" fill="#000000" fill-rule="evenodd" fill-opacity="1" /><path clip-path="url(#clip630)" d="M 0 0 M250.502 267.074 L251.494 267.074 L251.494 268.269 L250.502 268.269 L250.502 267.074 Z" fill="#000000" fill-rule="evenodd" fill-opacity="1" /><path clip-path="url(#clip630)" d="M 0 0 M254.555 261.874 Q253.822 261.874 253.45 262.598 Q253.084 263.318 253.084 264.766 Q253.084 266.209 253.45 266.933 Q253.822 267.653 254.555 267.653 Q255.294 267.653 255.66 266.933 Q256.032 266.209 256.032 264.766 Q256.032 263.318 255.66 262.598 Q255.294 261.874 254.555 261.874 M254.555 261.122 Q255.736 261.122 256.356 262.057 Q256.982 262.988 256.982 264.766 Q256.982 266.538 256.356 267.474 Q255.736 268.405 254.555 268.405 Q253.375 268.405 252.75 267.474 Q252.129 266.538 252.129 264.766 Q252.129 262.988 252.75 262.057 Q253.375 261.122 254.555 261.122 Z" fill="#000000" fill-rule="evenodd" fill-opacity="1" /><path clip-path="url(#clip630)" d="M 0 0 M310.724 274.138 L312.634 274.138 L312.634 267.546 L310.556 267.963 L310.556 266.898 L312.622 266.481 L313.791 266.481 L313.791 274.138 L315.701 274.138 L315.701 275.121 L310.724 275.121 L310.724 274.138 Z" fill="#000000" fill-rule="evenodd" fill-opacity="1" /><path clip-path="url(#clip630)" d="M 0 0 M319.468 267.251 Q318.565 267.251 318.108 268.142 Q317.657 269.028 317.657 270.81 Q317.657 272.587 318.108 273.478 Q318.565 274.363 319.468 274.363 Q320.377 274.363 320.828 273.478 Q321.285 272.587 321.285 270.81 Q321.285 269.028 320.828 268.142 Q320.377 267.251 319.468 267.251 M319.468 266.325 Q320.921 266.325 321.685 267.477 Q322.454 268.622 322.454 270.81 Q322.454 272.992 321.685 274.143 Q320.921 275.289 319.468 275.289 Q318.016 275.289 317.246 274.143 Q316.482 272.992 316.482 270.81 Q316.482 268.622 317.246 267.477 Q318.016 266.325 319.468 266.325 Z" fill="#000000" fill-rule="evenodd" fill-opacity="1" /><path clip-path="url(#clip630)" d="M 0 0 M323.597 267.469 L326.912 267.469 L326.912 268.269 L322.454 268.269 L322.454 267.469 Q322.995 266.91 323.926 265.969 Q324.862 265.024 325.101 264.752 Q325.558 264.239 325.736 263.886 Q325.92 263.529 325.92 263.186 Q325.92 262.626 325.525 262.274 Q325.134 261.921 324.504 261.921 Q324.058 261.921 323.559 262.076 Q323.066 262.231 322.501 262.546 L322.501 261.587 Q323.075 261.357 323.573 261.239 Q324.072 261.122 324.486 261.122 Q325.576 261.122 326.225 261.667 Q326.874 262.213 326.874 263.125 Q326.874 263.557 326.71 263.948 Q326.55 264.333 326.122 264.86 Q326.004 264.996 325.374 265.65 Q324.744 266.299 323.597 267.469 Z" fill="#000000" fill-rule="evenodd" fill-opacity="1" /><path clip-path="url(#clip630)" d="M 0 0 M327.941 267.074 L328.934 267.074 L328.934 268.269 L327.941 268.269 L327.941 267.074 Z" fill="#000000" fill-rule="evenodd" fill-opacity="1" /><path clip-path="url(#clip630)" d="M 0 0 M329.973 261.249 L333.701 261.249 L333.701 262.048 L330.843 262.048 L330.843 263.769 Q331.049 263.698 331.256 263.666 Q331.463 263.628 331.67 263.628 Q332.846 263.628 333.532 264.272 Q334.219 264.916 334.219 266.016 Q334.219 267.15 333.513 267.78 Q332.808 268.405 331.524 268.405 Q331.082 268.405 330.622 268.33 Q330.165 268.255 329.676 268.104 L329.676 267.15 Q330.1 267.38 330.551 267.493 Q331.002 267.606 331.506 267.606 Q332.319 267.606 332.794 267.178 Q333.269 266.75 333.269 266.016 Q333.269 265.283 332.794 264.855 Q332.319 264.427 331.506 264.427 Q331.125 264.427 330.744 264.512 Q330.368 264.596 329.973 264.775 L329.973 261.249 Z" fill="#000000" fill-rule="evenodd" fill-opacity="1" /><path clip-path="url(#clip630)" d="M 0 0 M387.879 274.138 L389.788 274.138 L389.788 267.546 L387.711 267.963 L387.711 266.898 L389.777 266.481 L390.946 266.481 L390.946 274.138 L392.855 274.138 L392.855 275.121 L387.879 275.121 L387.879 274.138 Z" fill="#000000" fill-rule="evenodd" fill-opacity="1" /><path clip-path="url(#clip630)" d="M 0 0 M396.623 267.251 Q395.72 267.251 395.263 268.142 Q394.811 269.028 394.811 270.81 Q394.811 272.587 395.263 273.478 Q395.72 274.363 396.623 274.363 Q397.531 274.363 397.983 273.478 Q398.44 272.587 398.44 270.81 Q398.44 269.028 397.983 268.142 Q397.531 267.251 396.623 267.251 M396.623 266.325 Q398.075 266.325 398.839 267.477 Q399.609 268.622 399.609 270.81 Q399.609 272.992 398.839 274.143 Q398.075 275.289 396.623 275.289 Q395.17 275.289 394.401 274.143 Q393.637 272.992 393.637 270.81 Q393.637 268.622 394.401 267.477 Q395.17 266.325 396.623 266.325 Z" fill="#000000" fill-rule="evenodd" fill-opacity="1" /><path clip-path="url(#clip630)" d="M 0 0 M402.783 264.484 Q403.465 264.629 403.845 265.09 Q404.231 265.551 404.231 266.228 Q404.231 267.267 403.516 267.836 Q402.802 268.405 401.485 268.405 Q401.043 268.405 400.573 268.316 Q400.107 268.231 399.609 268.057 L399.609 267.14 Q400.004 267.371 400.474 267.488 Q400.944 267.606 401.457 267.606 Q402.35 267.606 402.816 267.253 Q403.286 266.9 403.286 266.228 Q403.286 265.607 402.849 265.259 Q402.416 264.907 401.64 264.907 L400.822 264.907 L400.822 264.126 L401.678 264.126 Q402.378 264.126 402.75 263.849 Q403.121 263.567 403.121 263.04 Q403.121 262.499 402.736 262.213 Q402.355 261.921 401.64 261.921 Q401.25 261.921 400.803 262.006 Q400.357 262.09 399.821 262.269 L399.821 261.423 Q400.361 261.272 400.831 261.197 Q401.306 261.122 401.725 261.122 Q402.806 261.122 403.436 261.615 Q404.066 262.104 404.066 262.941 Q404.066 263.524 403.733 263.929 Q403.399 264.328 402.783 264.484 Z" fill="#000000" fill-rule="evenodd" fill-opacity="1" /><path clip-path="url(#clip630)" d="M 0 0 M405.261 267.074 L406.253 267.074 L406.253 268.269 L405.261 268.269 L405.261 267.074 Z" fill="#000000" fill-rule="evenodd" fill-opacity="1" /><path clip-path="url(#clip630)" d="M 0 0 M409.314 261.874 Q408.58 261.874 408.209 262.598 Q407.842 263.318 407.842 264.766 Q407.842 266.209 408.209 266.933 Q408.58 267.653 409.314 267.653 Q410.052 267.653 410.419 266.933 Q410.79 266.209 410.79 264.766 Q410.79 263.318 410.419 262.598 Q410.052 261.874 409.314 261.874 M409.314 261.122 Q410.494 261.122 411.115 262.057 Q411.74 262.988 411.74 264.766 Q411.74 266.538 411.115 267.474 Q410.494 268.405 409.314 268.405 Q408.134 268.405 407.508 267.474 Q406.888 266.538 406.888 264.766 Q406.888 262.988 407.508 262.057 Q408.134 261.122 409.314 261.122 Z" fill="#000000" fill-rule="evenodd" fill-opacity="1" /><g clip-path="url(#clip630)">
<text style="fill:#000000; fill-opacity:1; font-family:Arial,Helvetica Neue,Helvetica,sans-serif; font-size:16px; text-anchor:middle;" transform="rotate(0, 266.066, 295.186)" x="266.066" y="295.186">number of nodes</text>
</g>
<polyline clip-path="url(#clip632)" style="stroke:#000000; stroke-width:0.5; stroke-opacity:0.1; fill:none" points="
  63.9427,235.634 468.189,235.634 
  "/>
<polyline clip-path="url(#clip632)" style="stroke:#000000; stroke-width:0.5; stroke-opacity:0.1; fill:none" points="
  63.9427,168.419 468.189,168.419 
  "/>
<polyline clip-path="url(#clip632)" style="stroke:#000000; stroke-width:0.5; stroke-opacity:0.1; fill:none" points="
  63.9427,101.204 468.189,101.204 
  "/>
<polyline clip-path="url(#clip632)" style="stroke:#000000; stroke-width:0.5; stroke-opacity:0.1; fill:none" points="
  63.9427,33.9896 468.189,33.9896 
  "/>
<polyline clip-path="url(#clip630)" style="stroke:#000000; stroke-width:1; stroke-opacity:1; fill:none" points="
  63.9427,255.53 63.9427,27.537 
  "/>
<polyline clip-path="url(#clip630)" style="stroke:#000000; stroke-width:1; stroke-opacity:1; fill:none" points="
  63.9427,235.634 68.7937,235.634 
  "/>
<polyline clip-path="url(#clip630)" style="stroke:#000000; stroke-width:1; stroke-opacity:1; fill:none" points="
  63.9427,168.419 68.7937,168.419 
  "/>
<polyline clip-path="url(#clip630)" style="stroke:#000000; stroke-width:1; stroke-opacity:1; fill:none" points="
  63.9427,101.204 68.7937,101.204 
  "/>
<polyline clip-path="url(#clip630)" style="stroke:#000000; stroke-width:1; stroke-opacity:1; fill:none" points="
  63.9427,33.9896 68.7937,33.9896 
  "/>
<path clip-path="url(#clip630)" d="M 0 0 M28.4616 240.582 L30.3713 240.582 L30.3713 233.991 L28.2938 234.407 L28.2938 233.342 L30.3598 232.926 L31.5287 232.926 L31.5287 240.582 L33.4385 240.582 L33.4385 241.566 L28.4616 241.566 L28.4616 240.582 Z" fill="#000000" fill-rule="evenodd" fill-opacity="1" /><path clip-path="url(#clip630)" d="M 0 0 M37.2058 233.696 Q36.303 233.696 35.8458 234.587 Q35.3945 235.472 35.3945 237.255 Q35.3945 239.031 35.8458 239.922 Q36.303 240.808 37.2058 240.808 Q38.1144 240.808 38.5657 239.922 Q39.0229 239.031 39.0229 237.255 Q39.0229 235.472 38.5657 234.587 Q38.1144 233.696 37.2058 233.696 M37.2058 232.77 Q38.6583 232.77 39.4222 233.921 Q40.1919 235.067 40.1919 237.255 Q40.1919 239.436 39.4222 240.588 Q38.6583 241.734 37.2058 241.734 Q35.7533 241.734 34.9836 240.588 Q34.2197 239.436 34.2197 237.255 Q34.2197 235.067 34.9836 233.921 Q35.7533 232.77 37.2058 232.77 Z" fill="#000000" fill-rule="evenodd" fill-opacity="1" /><path clip-path="url(#clip630)" d="M 0 0 M40.1919 231.295 L46.2198 231.295 L46.2198 232.094 L40.1919 232.094 L40.1919 231.295 Z" fill="#000000" fill-rule="evenodd" fill-opacity="1" /><path clip-path="url(#clip630)" d="M 0 0 M47.4141 233.914 L48.9657 233.914 L48.9657 228.558 L47.2777 228.897 L47.2777 228.032 L48.9563 227.693 L49.9061 227.693 L49.9061 233.914 L51.4577 233.914 L51.4577 234.713 L47.4141 234.713 L47.4141 233.914 Z" fill="#000000" fill-rule="evenodd" fill-opacity="1" /><path clip-path="url(#clip630)" d="M 0 0 M52.4969 227.693 L56.2255 227.693 L56.2255 228.493 L53.3667 228.493 L53.3667 230.213 Q53.5736 230.143 53.7805 230.11 Q53.9874 230.072 54.1943 230.072 Q55.3698 230.072 56.0562 230.717 Q56.7427 231.361 56.7427 232.461 Q56.7427 233.594 56.0374 234.224 Q55.3321 234.85 54.0485 234.85 Q53.6065 234.85 53.1457 234.774 Q52.6897 234.699 52.2006 234.549 L52.2006 233.594 Q52.6238 233.825 53.0752 233.937 Q53.5266 234.05 54.0297 234.05 Q54.8431 234.05 55.318 233.622 Q55.7929 233.195 55.7929 232.461 Q55.7929 231.728 55.318 231.3 Q54.8431 230.872 54.0297 230.872 Q53.6488 230.872 53.268 230.956 Q52.8918 231.041 52.4969 231.22 L52.4969 227.693 Z" fill="#000000" fill-rule="evenodd" fill-opacity="1" /><path clip-path="url(#clip630)" d="M 0 0 M28.2594 173.367 L30.1692 173.367 L30.1692 166.776 L28.0916 167.193 L28.0916 166.128 L30.1576 165.711 L31.3266 165.711 L31.3266 173.367 L33.2363 173.367 L33.2363 174.351 L28.2594 174.351 L28.2594 173.367 Z" fill="#000000" fill-rule="evenodd" fill-opacity="1" /><path clip-path="url(#clip630)" d="M 0 0 M37.0036 166.481 Q36.1008 166.481 35.6437 167.372 Q35.1923 168.257 35.1923 170.04 Q35.1923 171.816 35.6437 172.708 Q36.1008 173.593 37.0036 173.593 Q37.9122 173.593 38.3636 172.708 Q38.8207 171.816 38.8207 170.04 Q38.8207 168.257 38.3636 167.372 Q37.9122 166.481 37.0036 166.481 M37.0036 165.555 Q38.4561 165.555 39.22 166.706 Q39.9897 167.852 39.9897 170.04 Q39.9897 172.221 39.22 173.373 Q38.4561 174.519 37.0036 174.519 Q35.5511 174.519 34.7814 173.373 Q34.0175 172.221 34.0175 170.04 Q34.0175 167.852 34.7814 166.706 Q35.5511 165.555 37.0036 165.555 Z" fill="#000000" fill-rule="evenodd" fill-opacity="1" /><path clip-path="url(#clip630)" d="M 0 0 M39.9897 164.08 L46.0176 164.08 L46.0176 164.879 L39.9897 164.879 L39.9897 164.08 Z" fill="#000000" fill-rule="evenodd" fill-opacity="1" /><path clip-path="url(#clip630)" d="M 0 0 M47.2119 166.699 L48.7635 166.699 L48.7635 161.344 L47.0755 161.682 L47.0755 160.817 L48.7541 160.478 L49.7039 160.478 L49.7039 166.699 L51.2556 166.699 L51.2556 167.498 L47.2119 167.498 L47.2119 166.699 Z" fill="#000000" fill-rule="evenodd" fill-opacity="1" /><path clip-path="url(#clip630)" d="M 0 0 M54.3165 161.104 Q53.583 161.104 53.2116 161.828 Q52.8448 162.547 52.8448 163.996 Q52.8448 165.439 53.2116 166.163 Q53.583 166.883 54.3165 166.883 Q55.0547 166.883 55.4215 166.163 Q55.7929 165.439 55.7929 163.996 Q55.7929 162.547 55.4215 161.828 Q55.0547 161.104 54.3165 161.104 M54.3165 160.352 Q55.4967 160.352 56.1174 161.287 Q56.7427 162.218 56.7427 163.996 Q56.7427 165.768 56.1174 166.704 Q55.4967 167.635 54.3165 167.635 Q53.1363 167.635 52.511 166.704 Q51.8903 165.768 51.8903 163.996 Q51.8903 162.218 52.511 161.287 Q53.1363 160.352 54.3165 160.352 Z" fill="#000000" fill-rule="evenodd" fill-opacity="1" /><path clip-path="url(#clip630)" d="M 0 0 M33.6996 106.153 L35.6093 106.153 L35.6093 99.5611 L33.5318 99.9778 L33.5318 98.913 L35.5977 98.4963 L36.7667 98.4963 L36.7667 106.153 L38.6764 106.153 L38.6764 107.136 L33.6996 107.136 L33.6996 106.153 Z" fill="#000000" fill-rule="evenodd" fill-opacity="1" /><path clip-path="url(#clip630)" d="M 0 0 M42.4438 99.266 Q41.541 99.266 41.0838 100.157 Q40.6324 101.043 40.6324 102.825 Q40.6324 104.602 41.0838 105.493 Q41.541 106.378 42.4438 106.378 Q43.3523 106.378 43.8037 105.493 Q44.2609 104.602 44.2609 102.825 Q44.2609 101.043 43.8037 100.157 Q43.3523 99.266 42.4438 99.266 M42.4438 98.3401 Q43.8963 98.3401 44.6602 99.4917 Q45.4299 100.638 45.4299 102.825 Q45.4299 105.007 44.6602 106.158 Q43.8963 107.304 42.4438 107.304 Q40.9912 107.304 40.2215 106.158 Q39.4577 105.007 39.4577 102.825 Q39.4577 100.638 40.2215 99.4917 Q40.9912 98.3401 42.4438 98.3401 Z" fill="#000000" fill-rule="evenodd" fill-opacity="1" /><path clip-path="url(#clip630)" d="M 0 0 M45.4299 96.8654 L51.4577 96.8654 L51.4577 97.6647 L45.4299 97.6647 L45.4299 96.8654 Z" fill="#000000" fill-rule="evenodd" fill-opacity="1" /><path clip-path="url(#clip630)" d="M 0 0 M52.4969 93.2637 L56.2255 93.2637 L56.2255 94.063 L53.3667 94.063 L53.3667 95.784 Q53.5736 95.7134 53.7805 95.6805 Q53.9874 95.6429 54.1943 95.6429 Q55.3698 95.6429 56.0562 96.2871 Q56.7427 96.9312 56.7427 98.0315 Q56.7427 99.1646 56.0374 99.7947 Q55.3321 100.42 54.0485 100.42 Q53.6065 100.42 53.1457 100.345 Q52.6897 100.27 52.2006 100.119 L52.2006 99.1646 Q52.6238 99.395 53.0752 99.5079 Q53.5266 99.6207 54.0297 99.6207 Q54.8431 99.6207 55.318 99.1929 Q55.7929 98.765 55.7929 98.0315 Q55.7929 97.298 55.318 96.8701 Q54.8431 96.4422 54.0297 96.4422 Q53.6488 96.4422 53.268 96.5269 Q52.8918 96.6115 52.4969 96.7902 L52.4969 93.2637 Z" fill="#000000" fill-rule="evenodd" fill-opacity="1" /><path clip-path="url(#clip630)" d="M 0 0 M40.1601 38.9378 L42.0698 38.9378 L42.0698 32.3464 L39.9922 32.763 L39.9922 31.6982 L42.0582 31.2815 L43.2272 31.2815 L43.2272 38.9378 L45.1369 38.9378 L45.1369 39.9215 L40.1601 39.9215 L40.1601 38.9378 Z" fill="#000000" fill-rule="evenodd" fill-opacity="1" /><path clip-path="url(#clip630)" d="M 0 0 M48.9042 32.0512 Q48.0015 32.0512 47.5443 32.9424 Q47.0929 33.8278 47.0929 35.6102 Q47.0929 37.3868 47.5443 38.278 Q48.0015 39.1634 48.9042 39.1634 Q49.8128 39.1634 50.2642 38.278 Q50.7213 37.3868 50.7213 35.6102 Q50.7213 33.8278 50.2642 32.9424 Q49.8128 32.0512 48.9042 32.0512 M48.9042 31.1253 Q50.3568 31.1253 51.1206 32.2769 Q51.8903 33.4227 51.8903 35.6102 Q51.8903 37.7919 51.1206 38.9435 Q50.3568 40.0894 48.9042 40.0894 Q47.4517 40.0894 46.682 38.9435 Q45.9181 37.7919 45.9181 35.6102 Q45.9181 33.4227 46.682 32.2769 Q47.4517 31.1253 48.9042 31.1253 Z" fill="#000000" fill-rule="evenodd" fill-opacity="1" /><path clip-path="url(#clip630)" d="M 0 0 M54.3165 26.6743 Q53.583 26.6743 53.2116 27.3984 Q52.8448 28.1178 52.8448 29.566 Q52.8448 31.0095 53.2116 31.7336 Q53.583 32.453 54.3165 32.453 Q55.0547 32.453 55.4215 31.7336 Q55.7929 31.0095 55.7929 29.566 Q55.7929 28.1178 55.4215 27.3984 Q55.0547 26.6743 54.3165 26.6743 M54.3165 25.922 Q55.4967 25.922 56.1174 26.8577 Q56.7427 27.7887 56.7427 29.566 Q56.7427 31.3386 56.1174 32.2743 Q55.4967 33.2053 54.3165 33.2053 Q53.1363 33.2053 52.511 32.2743 Q51.8903 31.3386 51.8903 29.566 Q51.8903 27.7887 52.511 26.8577 Q53.1363 25.922 54.3165 25.922 Z" fill="#000000" fill-rule="evenodd" fill-opacity="1" /><g clip-path="url(#clip630)">
<text style="fill:#000000; fill-opacity:1; font-family:Arial,Helvetica Neue,Helvetica,sans-serif; font-size:16px; text-anchor:middle;" transform="rotate(-90, 18.0011, 141.533)" x="18.0011" y="141.533">error</text>
</g>
<g clip-path="url(#clip630)">
<text style="fill:#000000; fill-opacity:1; font-family:Arial,Helvetica Neue,Helvetica,sans-serif; font-size:18px; font-weight:bold; text-anchor:middle;" transform="rotate(0, 266.066, 15.6)" x="266.066" y="15.6">Spectral vs 4th order</text>
</g>
<polyline clip-path="url(#clip632)" style="stroke:#009af9; stroke-width:2; stroke-opacity:1; fill:none" points="
  75.3837,54.2633 102.621,65.9366 121.946,77.4975 136.935,89.0252 149.183,100.519 159.538,111.953 168.508,123.275 176.42,134.389 183.498,145.133 189.9,155.29 
  195.745,164.668 201.122,173.223 206.1,181.096 210.735,188.498 215.07,195.61 219.142,202.543 222.982,209.361 226.614,216.115 230.06,222.883 233.337,229.225 
  236.462,237.106 239.448,244.42 
  "/>
<path clip-path="url(#clip632)" d="M75.3837 58.2633 L72.5557 57.0913 L71.3837 54.2633 L72.5557 51.4353 L75.3837 50.2633 L78.2117 51.4353 L79.3837 54.2633 L78.2117 57.0913 Z" fill="#009af9" fill-rule="evenodd" fill-opacity="1" stroke="#000000" stroke-opacity="1" stroke-width="0.6"/>
<path clip-path="url(#clip632)" d="M102.621 69.9366 L99.7928 68.7646 L98.6208 65.9366 L99.7928 63.1086 L102.621 61.9366 L105.449 63.1086 L106.621 65.9366 L105.449 68.7646 Z" fill="#009af9" fill-rule="evenodd" fill-opacity="1" stroke="#000000" stroke-opacity="1" stroke-width="0.6"/>
<path clip-path="url(#clip632)" d="M121.946 81.4975 L119.118 80.3255 L117.946 77.4975 L119.118 74.6695 L121.946 73.4975 L124.774 74.6695 L125.946 77.4975 L124.774 80.3255 Z" fill="#009af9" fill-rule="evenodd" fill-opacity="1" stroke="#000000" stroke-opacity="1" stroke-width="0.6"/>
<path clip-path="url(#clip632)" d="M136.935 93.0252 L134.107 91.8532 L132.935 89.0252 L134.107 86.1972 L136.935 85.0252 L139.763 86.1972 L140.935 89.0252 L139.763 91.8532 Z" fill="#009af9" fill-rule="evenodd" fill-opacity="1" stroke="#000000" stroke-opacity="1" stroke-width="0.6"/>
<path clip-path="url(#clip632)" d="M149.183 104.519 L146.355 103.347 L145.183 100.519 L146.355 97.6905 L149.183 96.5185 L152.011 97.6905 L153.183 100.519 L152.011 103.347 Z" fill="#009af9" fill-rule="evenodd" fill-opacity="1" stroke="#000000" stroke-opacity="1" stroke-width="0.6"/>
<path clip-path="url(#clip632)" d="M159.538 115.953 L156.71 114.781 L155.538 111.953 L156.71 109.125 L159.538 107.953 L162.366 109.125 L163.538 111.953 L162.366 114.781 Z" fill="#009af9" fill-rule="evenodd" fill-opacity="1" stroke="#000000" stroke-opacity="1" stroke-width="0.6"/>
<path clip-path="url(#clip632)" d="M168.508 127.275 L165.68 126.103 L164.508 123.275 L165.68 120.447 L168.508 119.275 L171.336 120.447 L172.508 123.275 L171.336 126.103 Z" fill="#009af9" fill-rule="evenodd" fill-opacity="1" stroke="#000000" stroke-opacity="1" stroke-width="0.6"/>
<path clip-path="url(#clip632)" d="M176.42 138.389 L173.592 137.217 L172.42 134.389 L173.592 131.561 L176.42 130.389 L179.248 131.561 L180.42 134.389 L179.248 137.217 Z" fill="#009af9" fill-rule="evenodd" fill-opacity="1" stroke="#000000" stroke-opacity="1" stroke-width="0.6"/>
<path clip-path="url(#clip632)" d="M183.498 149.133 L180.67 147.961 L179.498 145.133 L180.67 142.305 L183.498 141.133 L186.326 142.305 L187.498 145.133 L186.326 147.961 Z" fill="#009af9" fill-rule="evenodd" fill-opacity="1" stroke="#000000" stroke-opacity="1" stroke-width="0.6"/>
<path clip-path="url(#clip632)" d="M189.9 159.29 L187.072 158.118 L185.9 155.29 L187.072 152.462 L189.9 151.29 L192.728 152.462 L193.9 155.29 L192.728 158.118 Z" fill="#009af9" fill-rule="evenodd" fill-opacity="1" stroke="#000000" stroke-opacity="1" stroke-width="0.6"/>
<path clip-path="url(#clip632)" d="M195.745 168.668 L192.917 167.496 L191.745 164.668 L192.917 161.84 L195.745 160.668 L198.573 161.84 L199.745 164.668 L198.573 167.496 Z" fill="#009af9" fill-rule="evenodd" fill-opacity="1" stroke="#000000" stroke-opacity="1" stroke-width="0.6"/>
<path clip-path="url(#clip632)" d="M201.122 177.223 L198.294 176.051 L197.122 173.223 L198.294 170.395 L201.122 169.223 L203.95 170.395 L205.122 173.223 L203.95 176.051 Z" fill="#009af9" fill-rule="evenodd" fill-opacity="1" stroke="#000000" stroke-opacity="1" stroke-width="0.6"/>
<path clip-path="url(#clip632)" d="M206.1 185.096 L203.272 183.924 L202.1 181.096 L203.272 178.268 L206.1 177.096 L208.928 178.268 L210.1 181.096 L208.928 183.924 Z" fill="#009af9" fill-rule="evenodd" fill-opacity="1" stroke="#000000" stroke-opacity="1" stroke-width="0.6"/>
<path clip-path="url(#clip632)" d="M210.735 192.498 L207.907 191.326 L206.735 188.498 L207.907 185.67 L210.735 184.498 L213.563 185.67 L214.735 188.498 L213.563 191.326 Z" fill="#009af9" fill-rule="evenodd" fill-opacity="1" stroke="#000000" stroke-opacity="1" stroke-width="0.6"/>
<path clip-path="url(#clip632)" d="M215.07 199.61 L212.242 198.438 L211.07 195.61 L212.242 192.782 L215.07 191.61 L217.898 192.782 L219.07 195.61 L217.898 198.438 Z" fill="#009af9" fill-rule="evenodd" fill-opacity="1" stroke="#000000" stroke-opacity="1" stroke-width="0.6"/>
<path clip-path="url(#clip632)" d="M219.142 206.543 L216.314 205.371 L215.142 202.543 L216.314 199.715 L219.142 198.543 L221.97 199.715 L223.142 202.543 L221.97 205.371 Z" fill="#009af9" fill-rule="evenodd" fill-opacity="1" stroke="#000000" stroke-opacity="1" stroke-width="0.6"/>
<path clip-path="url(#clip632)" d="M222.982 213.361 L220.154 212.189 L218.982 209.361 L220.154 206.533 L222.982 205.361 L225.81 206.533 L226.982 209.361 L225.81 212.189 Z" fill="#009af9" fill-rule="evenodd" fill-opacity="1" stroke="#000000" stroke-opacity="1" stroke-width="0.6"/>
<path clip-path="url(#clip632)" d="M226.614 220.115 L223.786 218.943 L222.614 216.115 L223.786 213.287 L226.614 212.115 L229.442 213.287 L230.614 216.115 L229.442 218.943 Z" fill="#009af9" fill-rule="evenodd" fill-opacity="1" stroke="#000000" stroke-opacity="1" stroke-width="0.6"/>
<path clip-path="url(#clip632)" d="M230.06 226.883 L227.232 225.711 L226.06 222.883 L227.232 220.055 L230.06 218.883 L232.888 220.055 L234.06 222.883 L232.888 225.711 Z" fill="#009af9" fill-rule="evenodd" fill-opacity="1" stroke="#000000" stroke-opacity="1" stroke-width="0.6"/>
<path clip-path="url(#clip632)" d="M233.337 233.225 L230.509 232.053 L229.337 229.225 L230.509 226.397 L233.337 225.225 L236.165 226.397 L237.337 229.225 L236.165 232.053 Z" fill="#009af9" fill-rule="evenodd" fill-opacity="1" stroke="#000000" stroke-opacity="1" stroke-width="0.6"/>
<path clip-path="url(#clip632)" d="M236.462 241.106 L233.634 239.934 L232.462 237.106 L233.634 234.278 L236.462 233.106 L239.29 234.278 L240.462 237.106 L239.29 239.934 Z" fill="#009af9" fill-rule="evenodd" fill-opacity="1" stroke="#000000" stroke-opacity="1" stroke-width="0.6"/>
<path clip-path="url(#clip632)" d="M239.448 248.42 L236.62 247.248 L235.448 244.42 L236.62 241.592 L239.448 240.42 L242.276 241.592 L243.448 244.42 L242.276 247.248 Z" fill="#009af9" fill-rule="evenodd" fill-opacity="1" stroke="#000000" stroke-opacity="1" stroke-width="0.6"/>
<polyline clip-path="url(#clip632)" style="stroke:#e26f46; stroke-width:2; stroke-opacity:1; fill:none" points="
  75.3837,56.0412 102.621,67.5123 121.946,79.0533 136.935,90.6058 149.183,102.161 159.538,113.717 168.508,125.273 176.42,136.83 183.498,148.387 189.9,159.945 
  195.745,171.502 201.122,183.06 206.1,194.624 210.735,206.082 215.07,217.194 219.142,228.233 222.982,233.492 226.614,230.161 230.06,239.07 233.337,235.023 
  236.462,248.466 239.448,231.276 242.307,235.639 
  "/>
<path clip-path="url(#clip632)" d="M75.3837 60.0412 L72.5557 58.8692 L71.3837 56.0412 L72.5557 53.2132 L75.3837 52.0412 L78.2117 53.2132 L79.3837 56.0412 L78.2117 58.8692 Z" fill="#e26f46" fill-rule="evenodd" fill-opacity="1" stroke="#000000" stroke-opacity="1" stroke-width="0.6"/>
<path clip-path="url(#clip632)" d="M102.621 71.5123 L99.7928 70.3403 L98.6208 67.5123 L99.7928 64.6843 L102.621 63.5123 L105.449 64.6843 L106.621 67.5123 L105.449 70.3403 Z" fill="#e26f46" fill-rule="evenodd" fill-opacity="1" stroke="#000000" stroke-opacity="1" stroke-width="0.6"/>
<path clip-path="url(#clip632)" d="M121.946 83.0533 L119.118 81.8813 L117.946 79.0533 L119.118 76.2253 L121.946 75.0533 L124.774 76.2253 L125.946 79.0533 L124.774 81.8813 Z" fill="#e26f46" fill-rule="evenodd" fill-opacity="1" stroke="#000000" stroke-opacity="1" stroke-width="0.6"/>
<path clip-path="url(#clip632)" d="M136.935 94.6058 L134.107 93.4338 L132.935 90.6058 L134.107 87.7778 L136.935 86.6058 L139.763 87.7778 L140.935 90.6058 L139.763 93.4338 Z" fill="#e26f46" fill-rule="evenodd" fill-opacity="1" stroke="#000000" stroke-opacity="1" stroke-width="0.6"/>
<path clip-path="url(#clip632)" d="M149.183 106.161 L146.355 104.989 L145.183 102.161 L146.355 99.3329 L149.183 98.1609 L152.011 99.3329 L153.183 102.161 L152.011 104.989 Z" fill="#e26f46" fill-rule="evenodd" fill-opacity="1" stroke="#000000" stroke-opacity="1" stroke-width="0.6"/>
<path clip-path="url(#clip632)" d="M159.538 117.717 L156.71 116.545 L155.538 113.717 L156.71 110.889 L159.538 109.717 L162.366 110.889 L163.538 113.717 L162.366 116.545 Z" fill="#e26f46" fill-rule="evenodd" fill-opacity="1" stroke="#000000" stroke-opacity="1" stroke-width="0.6"/>
<path clip-path="url(#clip632)" d="M168.508 129.273 L165.68 128.101 L164.508 125.273 L165.68 122.445 L168.508 121.273 L171.336 122.445 L172.508 125.273 L171.336 128.101 Z" fill="#e26f46" fill-rule="evenodd" fill-opacity="1" stroke="#000000" stroke-opacity="1" stroke-width="0.6"/>
<path clip-path="url(#clip632)" d="M176.42 140.83 L173.592 139.658 L172.42 136.83 L173.592 134.002 L176.42 132.83 L179.248 134.002 L180.42 136.83 L179.248 139.658 Z" fill="#e26f46" fill-rule="evenodd" fill-opacity="1" stroke="#000000" stroke-opacity="1" stroke-width="0.6"/>
<path clip-path="url(#clip632)" d="M183.498 152.387 L180.67 151.215 L179.498 148.387 L180.67 145.559 L183.498 144.387 L186.326 145.559 L187.498 148.387 L186.326 151.215 Z" fill="#e26f46" fill-rule="evenodd" fill-opacity="1" stroke="#000000" stroke-opacity="1" stroke-width="0.6"/>
<path clip-path="url(#clip632)" d="M189.9 163.945 L187.072 162.773 L185.9 159.945 L187.072 157.117 L189.9 155.945 L192.728 157.117 L193.9 159.945 L192.728 162.773 Z" fill="#e26f46" fill-rule="evenodd" fill-opacity="1" stroke="#000000" stroke-opacity="1" stroke-width="0.6"/>
<path clip-path="url(#clip632)" d="M195.745 175.502 L192.917 174.33 L191.745 171.502 L192.917 168.674 L195.745 167.502 L198.573 168.674 L199.745 171.502 L198.573 174.33 Z" fill="#e26f46" fill-rule="evenodd" fill-opacity="1" stroke="#000000" stroke-opacity="1" stroke-width="0.6"/>
<path clip-path="url(#clip632)" d="M201.122 187.06 L198.294 185.888 L197.122 183.06 L198.294 180.232 L201.122 179.06 L203.95 180.232 L205.122 183.06 L203.95 185.888 Z" fill="#e26f46" fill-rule="evenodd" fill-opacity="1" stroke="#000000" stroke-opacity="1" stroke-width="0.6"/>
<path clip-path="url(#clip632)" d="M206.1 198.624 L203.272 197.452 L202.1 194.624 L203.272 191.796 L206.1 190.624 L208.928 191.796 L210.1 194.624 L208.928 197.452 Z" fill="#e26f46" fill-rule="evenodd" fill-opacity="1" stroke="#000000" stroke-opacity="1" stroke-width="0.6"/>
<path clip-path="url(#clip632)" d="M210.735 210.082 L207.907 208.91 L206.735 206.082 L207.907 203.254 L210.735 202.082 L213.563 203.254 L214.735 206.082 L213.563 208.91 Z" fill="#e26f46" fill-rule="evenodd" fill-opacity="1" stroke="#000000" stroke-opacity="1" stroke-width="0.6"/>
<path clip-path="url(#clip632)" d="M215.07 221.194 L212.242 220.022 L211.07 217.194 L212.242 214.366 L215.07 213.194 L217.898 214.366 L219.07 217.194 L217.898 220.022 Z" fill="#e26f46" fill-rule="evenodd" fill-opacity="1" stroke="#000000" stroke-opacity="1" stroke-width="0.6"/>
<path clip-path="url(#clip632)" d="M219.142 232.233 L216.314 231.061 L215.142 228.233 L216.314 225.405 L219.142 224.233 L221.97 225.405 L223.142 228.233 L221.97 231.061 Z" fill="#e26f46" fill-rule="evenodd" fill-opacity="1" stroke="#000000" stroke-opacity="1" stroke-width="0.6"/>
<path clip-path="url(#clip632)" d="M222.982 237.492 L220.154 236.32 L218.982 233.492 L220.154 230.664 L222.982 229.492 L225.81 230.664 L226.982 233.492 L225.81 236.32 Z" fill="#e26f46" fill-rule="evenodd" fill-opacity="1" stroke="#000000" stroke-opacity="1" stroke-width="0.6"/>
<path clip-path="url(#clip632)" d="M226.614 234.161 L223.786 232.989 L222.614 230.161 L223.786 227.333 L226.614 226.161 L229.442 227.333 L230.614 230.161 L229.442 232.989 Z" fill="#e26f46" fill-rule="evenodd" fill-opacity="1" stroke="#000000" stroke-opacity="1" stroke-width="0.6"/>
<path clip-path="url(#clip632)" d="M230.06 243.07 L227.232 241.898 L226.06 239.07 L227.232 236.242 L230.06 235.07 L232.888 236.242 L234.06 239.07 L232.888 241.898 Z" fill="#e26f46" fill-rule="evenodd" fill-opacity="1" stroke="#000000" stroke-opacity="1" stroke-width="0.6"/>
<path clip-path="url(#clip632)" d="M233.337 239.023 L230.509 237.851 L229.337 235.023 L230.509 232.195 L233.337 231.023 L236.165 232.195 L237.337 235.023 L236.165 237.851 Z" fill="#e26f46" fill-rule="evenodd" fill-opacity="1" stroke="#000000" stroke-opacity="1" stroke-width="0.6"/>
<path clip-path="url(#clip632)" d="M236.462 252.466 L233.634 251.294 L232.462 248.466 L233.634 245.638 L236.462 244.466 L239.29 245.638 L240.462 248.466 L239.29 251.294 Z" fill="#e26f46" fill-rule="evenodd" fill-opacity="1" stroke="#000000" stroke-opacity="1" stroke-width="0.6"/>
<path clip-path="url(#clip632)" d="M239.448 235.276 L236.62 234.104 L235.448 231.276 L236.62 228.448 L239.448 227.276 L242.276 228.448 L243.448 231.276 L242.276 234.104 Z" fill="#e26f46" fill-rule="evenodd" fill-opacity="1" stroke="#000000" stroke-opacity="1" stroke-width="0.6"/>
<path clip-path="url(#clip632)" d="M242.307 239.639 L239.479 238.467 L238.307 235.639 L239.479 232.811 L242.307 231.639 L245.135 232.811 L246.307 235.639 L245.135 238.467 Z" fill="#e26f46" fill-rule="evenodd" fill-opacity="1" stroke="#000000" stroke-opacity="1" stroke-width="0.6"/>
<polyline clip-path="url(#clip632)" style="stroke:#3da44d; stroke-width:2; stroke-opacity:1; fill:none" points="
  83.2957,56.8959 151.925,94.6428 207.289,114.695 270.009,136.158 328.237,168.192 397.61,182.123 456.748,200.361 
  "/>
<path clip-path="url(#clip632)" d="M83.2957 60.8959 L80.4677 59.7239 L79.2957 56.8959 L80.4677 54.0679 L83.2957 52.8959 L86.1237 54.0679 L87.2957 56.8959 L86.1237 59.7239 Z" fill="#3da44d" fill-rule="evenodd" fill-opacity="1" stroke="#000000" stroke-opacity="1" stroke-width="0.6"/>
<path clip-path="url(#clip632)" d="M151.925 98.6428 L149.097 97.4708 L147.925 94.6428 L149.097 91.8148 L151.925 90.6428 L154.753 91.8148 L155.925 94.6428 L154.753 97.4708 Z" fill="#3da44d" fill-rule="evenodd" fill-opacity="1" stroke="#000000" stroke-opacity="1" stroke-width="0.6"/>
<path clip-path="url(#clip632)" d="M207.289 118.695 L204.461 117.523 L203.289 114.695 L204.461 111.867 L207.289 110.695 L210.117 111.867 L211.289 114.695 L210.117 117.523 Z" fill="#3da44d" fill-rule="evenodd" fill-opacity="1" stroke="#000000" stroke-opacity="1" stroke-width="0.6"/>
<path clip-path="url(#clip632)" d="M270.009 140.158 L267.181 138.986 L266.009 136.158 L267.181 133.33 L270.009 132.158 L272.837 133.33 L274.009 136.158 L272.837 138.986 Z" fill="#3da44d" fill-rule="evenodd" fill-opacity="1" stroke="#000000" stroke-opacity="1" stroke-width="0.6"/>
<path clip-path="url(#clip632)" d="M328.237 172.192 L325.409 171.02 L324.237 168.192 L325.409 165.364 L328.237 164.192 L331.065 165.364 L332.237 168.192 L331.065 171.02 Z" fill="#3da44d" fill-rule="evenodd" fill-opacity="1" stroke="#000000" stroke-opacity="1" stroke-width="0.6"/>
<path clip-path="url(#clip632)" d="M397.61 186.123 L394.782 184.951 L393.61 182.123 L394.782 179.295 L397.61 178.123 L400.438 179.295 L401.61 182.123 L400.438 184.951 Z" fill="#3da44d" fill-rule="evenodd" fill-opacity="1" stroke="#000000" stroke-opacity="1" stroke-width="0.6"/>
<path clip-path="url(#clip632)" d="M456.748 204.361 L453.92 203.189 L452.748 200.361 L453.92 197.533 L456.748 196.361 L459.576 197.533 L460.748 200.361 L459.576 203.189 Z" fill="#3da44d" fill-rule="evenodd" fill-opacity="1" stroke="#000000" stroke-opacity="1" stroke-width="0.6"/>
<polyline clip-path="url(#clip632)" style="stroke:#c271d2; stroke-width:2; stroke-opacity:1; fill:none" stroke-dasharray="8, 5" points="
  83.2957,85.301 151.925,109.159 207.289,128.406 270.009,150.21 328.237,170.453 397.61,194.57 456.748,215.129 
  "/>
<path clip-path="url(#clip630)" d="
M359.619 110.737 L454.714 110.737 L454.714 35.1368 L359.619 35.1368  Z
  " fill="#ffffff" fill-rule="evenodd" fill-opacity="1"/>
<polyline clip-path="url(#clip630)" style="stroke:#000000; stroke-width:1; stroke-opacity:1; fill:none" points="
  359.619,110.737 454.714,110.737 454.714,35.1368 359.619,35.1368 359.619,110.737 
  "/>
<polyline clip-path="url(#clip630)" style="stroke:#009af9; stroke-width:1; stroke-opacity:1; fill:none" points="
  364.11,50.2568 391.06,50.2568 
  "/>
<path clip-path="url(#clip630)" d="M377.585 56.6568 L373.06 54.7816 L371.185 50.2568 L373.06 45.732 L377.585 43.8568 L382.11 45.732 L383.985 50.2568 L382.11 54.7816 Z" fill="#009af9" fill-rule="evenodd" fill-opacity="1" stroke="#000000" stroke-opacity="1" stroke-width="0.96"/>
<path clip-path="url(#clip630)" d="M 0 0 M402.519 46.6023 L402.519 47.8349 Q401.929 47.2852 401.258 47.0132 Q400.592 46.7412 399.84 46.7412 Q398.358 46.7412 397.571 47.6497 Q396.784 48.5525 396.784 50.2655 Q396.784 51.9726 397.571 52.8812 Q398.358 53.784 399.84 53.784 Q400.592 53.784 401.258 53.512 Q401.929 53.24 402.519 52.6902 L402.519 53.9113 Q401.906 54.3279 401.217 54.5363 Q400.534 54.7446 399.77 54.7446 Q397.809 54.7446 396.68 53.5467 Q395.552 52.343 395.552 50.2655 Q395.552 48.1821 396.68 46.9842 Q397.809 45.7805 399.77 45.7805 Q400.546 45.7805 401.229 45.9889 Q401.917 46.1914 402.519 46.6023 Z" fill="#000000" fill-rule="evenodd" fill-opacity="1" /><path clip-path="url(#clip630)" d="M 0 0 M410.152 46.6023 L410.152 47.8349 Q409.562 47.2852 408.891 47.0132 Q408.225 46.7412 407.473 46.7412 Q405.991 46.7412 405.204 47.6497 Q404.417 48.5525 404.417 50.2655 Q404.417 51.9726 405.204 52.8812 Q405.991 53.784 407.473 53.784 Q408.225 53.784 408.891 53.512 Q409.562 53.24 410.152 52.6902 L410.152 53.9113 Q409.539 54.3279 408.85 54.5363 Q408.167 54.7446 407.404 54.7446 Q405.442 54.7446 404.313 53.5467 Q403.185 52.343 403.185 50.2655 Q403.185 48.1821 404.313 46.9842 Q405.442 45.7805 407.404 45.7805 Q408.179 45.7805 408.862 45.9889 Q409.55 46.1914 410.152 46.6023 Z" fill="#000000" fill-rule="evenodd" fill-opacity="1" /><polyline clip-path="url(#clip630)" style="stroke:#e26f46; stroke-width:1; stroke-opacity:1; fill:none" points="
  364.11,65.3768 391.06,65.3768 
  "/>
<path clip-path="url(#clip630)" d="M377.585 71.7768 L373.06 69.9016 L371.185 65.3768 L373.06 60.852 L377.585 58.9768 L382.11 60.852 L383.985 65.3768 L382.11 69.9016 Z" fill="#e26f46" fill-rule="evenodd" fill-opacity="1" stroke="#000000" stroke-opacity="1" stroke-width="0.96"/>
<path clip-path="url(#clip630)" d="M 0 0 M401.941 68.4641 L401.941 66.1436 L400.031 66.1436 L400.031 65.1829 L403.098 65.1829 L403.098 68.8924 Q402.421 69.3727 401.605 69.6215 Q400.789 69.8646 399.863 69.8646 Q397.838 69.8646 396.692 68.6841 Q395.552 67.4977 395.552 65.3855 Q395.552 63.2674 396.692 62.0869 Q397.838 60.9005 399.863 60.9005 Q400.708 60.9005 401.466 61.1089 Q402.23 61.3172 402.872 61.7223 L402.872 62.9665 Q402.224 62.4167 401.495 62.1389 Q400.766 61.8612 399.961 61.8612 Q398.376 61.8612 397.577 62.7466 Q396.784 63.632 396.784 65.3855 Q396.784 67.1331 397.577 68.0185 Q398.376 68.904 399.961 68.904 Q400.581 68.904 401.067 68.7998 Q401.553 68.6898 401.941 68.4641 Z" fill="#000000" fill-rule="evenodd" fill-opacity="1" /><path clip-path="url(#clip630)" d="M 0 0 M404.261 61.0568 L405.43 61.0568 L405.43 68.713 L409.637 68.713 L409.637 69.6968 L404.261 69.6968 L404.261 61.0568 Z" fill="#000000" fill-rule="evenodd" fill-opacity="1" /><polyline clip-path="url(#clip630)" style="stroke:#3da44d; stroke-width:1; stroke-opacity:1; fill:none" points="
  364.11,80.4968 391.06,80.4968 
  "/>
<path clip-path="url(#clip630)" d="M377.585 86.8968 L373.06 85.0216 L371.185 80.4968 L373.06 75.972 L377.585 74.0968 L382.11 75.972 L383.985 80.4968 L382.11 85.0216 Z" fill="#3da44d" fill-rule="evenodd" fill-opacity="1" stroke="#000000" stroke-opacity="1" stroke-width="0.96"/>
<path clip-path="url(#clip630)" d="M 0 0 M395.552 78.3353 L396.617 78.3353 L396.617 84.8168 L395.552 84.8168 L395.552 78.3353 M395.552 75.8122 L396.617 75.8122 L396.617 77.1606 L395.552 77.1606 L395.552 75.8122 Z" fill="#000000" fill-rule="evenodd" fill-opacity="1" /><path clip-path="url(#clip630)" d="M 0 0 M403.121 80.9048 L403.121 84.8168 L402.056 84.8168 L402.056 80.9395 Q402.056 80.0193 401.698 79.5622 Q401.339 79.105 400.621 79.105 Q399.759 79.105 399.261 79.6548 Q398.764 80.2045 398.764 81.1536 L398.764 84.8168 L397.693 84.8168 L397.693 78.3353 L398.764 78.3353 L398.764 79.3423 Q399.145 78.7578 399.66 78.4684 Q400.181 78.1791 400.858 78.1791 Q401.975 78.1791 402.548 78.8735 Q403.121 79.5622 403.121 80.9048 Z" fill="#000000" fill-rule="evenodd" fill-opacity="1" /><path clip-path="url(#clip630)" d="M 0 0 M405.291 76.4951 L405.291 78.3353 L407.485 78.3353 L407.485 79.1629 L405.291 79.1629 L405.291 82.6814 Q405.291 83.4742 405.505 83.6999 Q405.725 83.9256 406.391 83.9256 L407.485 83.9256 L407.485 84.8168 L406.391 84.8168 Q405.158 84.8168 404.689 84.3596 Q404.221 83.8966 404.221 82.6814 L404.221 79.1629 L403.439 79.1629 L403.439 78.3353 L404.221 78.3353 L404.221 76.4951 L405.291 76.4951 Z" fill="#000000" fill-rule="evenodd" fill-opacity="1" /><path clip-path="url(#clip630)" d="M 0 0 M411.547 81.5587 Q410.257 81.5587 409.759 81.8538 Q409.261 82.149 409.261 82.8608 Q409.261 83.4279 409.632 83.7635 Q410.008 84.0934 410.65 84.0934 Q411.535 84.0934 412.068 83.4684 Q412.606 82.8376 412.606 81.796 L412.606 81.5587 L411.547 81.5587 M413.671 81.1189 L413.671 84.8168 L412.606 84.8168 L412.606 83.833 Q412.241 84.4233 411.697 84.7068 Q411.153 84.9846 410.366 84.9846 Q409.371 84.9846 408.781 84.429 Q408.196 83.8677 408.196 82.9302 Q408.196 81.8365 408.925 81.2809 Q409.66 80.7254 411.113 80.7254 L412.606 80.7254 L412.606 80.6212 Q412.606 79.8862 412.12 79.4869 Q411.64 79.0819 410.766 79.0819 Q410.21 79.0819 409.684 79.215 Q409.157 79.3481 408.671 79.6143 L408.671 78.6305 Q409.255 78.4048 409.805 78.2948 Q410.355 78.1791 410.876 78.1791 Q412.282 78.1791 412.976 78.9082 Q413.671 79.6374 413.671 81.1189 Z" fill="#000000" fill-rule="evenodd" fill-opacity="1" /><path clip-path="url(#clip630)" d="M 0 0 M419.053 79.3191 L419.053 75.8122 L420.118 75.8122 L420.118 84.8168 L419.053 84.8168 L419.053 83.8446 Q418.717 84.4233 418.202 84.7068 Q417.693 84.9846 416.975 84.9846 Q415.8 84.9846 415.06 84.0471 Q414.325 83.1096 414.325 81.5818 Q414.325 80.0541 415.06 79.1166 Q415.8 78.1791 416.975 78.1791 Q417.693 78.1791 418.202 78.4626 Q418.717 78.7404 419.053 79.3191 M415.424 81.5818 Q415.424 82.7566 415.905 83.4279 Q416.391 84.0934 417.236 84.0934 Q418.081 84.0934 418.567 83.4279 Q419.053 82.7566 419.053 81.5818 Q419.053 80.4071 418.567 79.7416 Q418.081 79.0703 417.236 79.0703 Q416.391 79.0703 415.905 79.7416 Q415.424 80.4071 415.424 81.5818 Z" fill="#000000" fill-rule="evenodd" fill-opacity="1" /><path clip-path="url(#clip630)" d="M 0 0 M424.18 81.5587 Q422.89 81.5587 422.392 81.8538 Q421.894 82.149 421.894 82.8608 Q421.894 83.4279 422.265 83.7635 Q422.641 84.0934 423.283 84.0934 Q424.168 84.0934 424.701 83.4684 Q425.239 82.8376 425.239 81.796 L425.239 81.5587 L424.18 81.5587 M426.304 81.1189 L426.304 84.8168 L425.239 84.8168 L425.239 83.833 Q424.874 84.4233 424.331 84.7068 Q423.787 84.9846 422.999 84.9846 Q422.004 84.9846 421.414 84.429 Q420.829 83.8677 420.829 82.9302 Q420.829 81.8365 421.559 81.2809 Q422.293 80.7254 423.746 80.7254 L425.239 80.7254 L425.239 80.6212 Q425.239 79.8862 424.753 79.4869 Q424.273 79.0819 423.399 79.0819 Q422.843 79.0819 422.317 79.215 Q421.79 79.3481 421.304 79.6143 L421.304 78.6305 Q421.888 78.4048 422.438 78.2948 Q422.988 78.1791 423.509 78.1791 Q424.915 78.1791 425.609 78.9082 Q426.304 79.6374 426.304 81.1189 Z" fill="#000000" fill-rule="evenodd" fill-opacity="1" /><path clip-path="url(#clip630)" d="M 0 0 M428.451 83.8446 L428.451 87.282 L427.38 87.282 L427.38 78.3353 L428.451 78.3353 L428.451 79.3191 Q428.786 78.7404 429.296 78.4626 Q429.811 78.1791 430.523 78.1791 Q431.703 78.1791 432.438 79.1166 Q433.179 80.0541 433.179 81.5818 Q433.179 83.1096 432.438 84.0471 Q431.703 84.9846 430.523 84.9846 Q429.811 84.9846 429.296 84.7068 Q428.786 84.4233 428.451 83.8446 M432.074 81.5818 Q432.074 80.4071 431.587 79.7416 Q431.107 79.0703 430.262 79.0703 Q429.417 79.0703 428.931 79.7416 Q428.451 80.4071 428.451 81.5818 Q428.451 82.7566 428.931 83.4279 Q429.417 84.0934 430.262 84.0934 Q431.107 84.0934 431.587 83.4279 Q432.074 82.7566 432.074 81.5818 Z" fill="#000000" fill-rule="evenodd" fill-opacity="1" /><path clip-path="url(#clip630)" d="M 0 0 M435.349 76.4951 L435.349 78.3353 L437.542 78.3353 L437.542 79.1629 L435.349 79.1629 L435.349 82.6814 Q435.349 83.4742 435.563 83.6999 Q435.783 83.9256 436.448 83.9256 L437.542 83.9256 L437.542 84.8168 L436.448 84.8168 Q435.216 84.8168 434.747 84.3596 Q434.278 83.8966 434.278 82.6814 L434.278 79.1629 L433.497 79.1629 L433.497 78.3353 L434.278 78.3353 L434.278 76.4951 L435.349 76.4951 Z" fill="#000000" fill-rule="evenodd" fill-opacity="1" /><polyline clip-path="url(#clip630)" style="stroke:#c271d2; stroke-width:1; stroke-opacity:1; fill:none" stroke-dasharray="8, 5" points="
  364.11,95.6168 391.06,95.6168 
  "/>
<path clip-path="url(#clip630)" d="M 0 0 M399.452 92.3153 L396.501 96.9275 L399.452 96.9275 L399.452 92.3153 M399.145 91.2968 L400.615 91.2968 L400.615 96.9275 L401.848 96.9275 L401.848 97.8998 L400.615 97.8998 L400.615 99.9368 L399.452 99.9368 L399.452 97.8998 L395.552 97.8998 L395.552 96.7713 L399.145 91.2968 Z" fill="#000000" fill-rule="evenodd" fill-opacity="1" /><path clip-path="url(#clip630)" d="M 0 0 M404.018 91.6151 L404.018 93.4553 L406.211 93.4553 L406.211 94.2829 L404.018 94.2829 L404.018 97.8014 Q404.018 98.5942 404.232 98.8199 Q404.452 99.0456 405.118 99.0456 L406.211 99.0456 L406.211 99.9368 L405.118 99.9368 Q403.885 99.9368 403.416 99.4796 Q402.948 99.0166 402.948 97.8014 L402.948 94.2829 L402.166 94.2829 L402.166 93.4553 L402.948 93.4553 L402.948 91.6151 L404.018 91.6151 Z" fill="#000000" fill-rule="evenodd" fill-opacity="1" /><path clip-path="url(#clip630)" d="M 0 0 M412.716 96.0248 L412.716 99.9368 L411.651 99.9368 L411.651 96.0595 Q411.651 95.1393 411.292 94.6822 Q410.934 94.225 410.216 94.225 Q409.354 94.225 408.856 94.7748 Q408.358 95.3245 408.358 96.2736 L408.358 99.9368 L407.288 99.9368 L407.288 90.9322 L408.358 90.9322 L408.358 94.4623 Q408.74 93.8778 409.255 93.5884 Q409.776 93.2991 410.453 93.2991 Q411.57 93.2991 412.143 93.9935 Q412.716 94.6822 412.716 96.0248 Z" fill="#000000" fill-rule="evenodd" fill-opacity="1" /><path clip-path="url(#clip630)" d="M 0 0 M420.112 94.2019 Q419.255 94.2019 418.758 94.8731 Q418.26 95.5387 418.26 96.7018 Q418.26 97.865 418.752 98.5363 Q419.25 99.2018 420.112 99.2018 Q420.962 99.2018 421.46 98.5305 Q421.958 97.8592 421.958 96.7018 Q421.958 95.5502 421.46 94.8789 Q420.962 94.2019 420.112 94.2019 M420.112 93.2991 Q421.501 93.2991 422.293 94.2019 Q423.086 95.1046 423.086 96.7018 Q423.086 98.2933 422.293 99.2018 Q421.501 100.105 420.112 100.105 Q418.717 100.105 417.924 99.2018 Q417.137 98.2933 417.137 96.7018 Q417.137 95.1046 417.924 94.2019 Q418.717 93.2991 420.112 93.2991 Z" fill="#000000" fill-rule="evenodd" fill-opacity="1" /><path clip-path="url(#clip630)" d="M 0 0 M427.959 94.4507 Q427.78 94.3465 427.565 94.3002 Q427.357 94.2482 427.102 94.2482 Q426.2 94.2482 425.714 94.8384 Q425.233 95.4229 425.233 96.5224 L425.233 99.9368 L424.163 99.9368 L424.163 93.4553 L425.233 93.4553 L425.233 94.4623 Q425.569 93.872 426.107 93.5884 Q426.645 93.2991 427.415 93.2991 Q427.525 93.2991 427.658 93.3164 Q427.791 93.328 427.953 93.357 L427.959 94.4507 Z" fill="#000000" fill-rule="evenodd" fill-opacity="1" /><path clip-path="url(#clip630)" d="M 0 0 M433.133 94.4391 L433.133 90.9322 L434.197 90.9322 L434.197 99.9368 L433.133 99.9368 L433.133 98.9646 Q432.797 99.5433 432.282 99.8268 Q431.773 100.105 431.055 100.105 Q429.88 100.105 429.14 99.1671 Q428.405 98.2296 428.405 96.7018 Q428.405 95.1741 429.14 94.2366 Q429.88 93.2991 431.055 93.2991 Q431.773 93.2991 432.282 93.5826 Q432.797 93.8604 433.133 94.4391 M429.504 96.7018 Q429.504 97.8766 429.984 98.5479 Q430.471 99.2134 431.315 99.2134 Q432.16 99.2134 432.646 98.5479 Q433.133 97.8766 433.133 96.7018 Q433.133 95.5271 432.646 94.8616 Q432.16 94.1903 431.315 94.1903 Q430.471 94.1903 429.984 94.8616 Q429.504 95.5271 429.504 96.7018 Z" fill="#000000" fill-rule="evenodd" fill-opacity="1" /><path clip-path="url(#clip630)" d="M 0 0 M440.858 96.4299 L440.858 96.9507 L435.962 96.9507 Q436.032 98.0502 436.622 98.6289 Q437.218 99.2018 438.277 99.2018 Q438.891 99.2018 439.464 99.0514 Q440.042 98.9009 440.609 98.6 L440.609 99.6069 Q440.036 99.85 439.435 99.9773 Q438.833 100.105 438.214 100.105 Q436.663 100.105 435.754 99.2018 Q434.851 98.2991 434.851 96.7597 Q434.851 95.1683 435.708 94.2366 Q436.57 93.2991 438.028 93.2991 Q439.336 93.2991 440.094 94.144 Q440.858 94.9831 440.858 96.4299 M439.793 96.1174 Q439.782 95.2435 439.301 94.7227 Q438.827 94.2019 438.04 94.2019 Q437.149 94.2019 436.611 94.7053 Q436.078 95.2088 435.997 96.1231 L439.793 96.1174 Z" fill="#000000" fill-rule="evenodd" fill-opacity="1" /><path clip-path="url(#clip630)" d="M 0 0 M445.731 94.4507 Q445.551 94.3465 445.337 94.3002 Q445.129 94.2482 444.874 94.2482 Q443.972 94.2482 443.485 94.8384 Q443.005 95.4229 443.005 96.5224 L443.005 99.9368 L441.935 99.9368 L441.935 93.4553 L443.005 93.4553 L443.005 94.4623 Q443.341 93.872 443.879 93.5884 Q444.417 93.2991 445.187 93.2991 Q445.297 93.2991 445.43 93.3164 Q445.563 93.328 445.725 93.357 L445.731 94.4507 Z" fill="#000000" fill-rule="evenodd" fill-opacity="1" /></svg>
