<?xml version="1.0" encoding="utf-8"?>
<svg xmlns="http://www.w3.org/2000/svg" xmlns:xlink="http://www.w3.org/1999/xlink" width="120" height="75" viewBox="0 0 480 300">
<defs>
  <clipPath id="clip700">
    <rect x="0" y="0" width="480" height="300"/>
  </clipPath>
</defs>
<path clip-path="url(#clip700)" d="
M0 300 L480 300 L480 0 L0 0  Z
  " fill="#ffffff" fill-rule="evenodd" fill-opacity="1"/>
<defs>
  <clipPath id="clip701">
    <rect x="96" y="0" width="337" height="300"/>
  </clipPath>
</defs>
<path clip-path="url(#clip700)" d="
M42.5155 273.152 L468.189 273.152 L468.189 11.811 L42.5155 11.811  Z
  " fill="#ffffff" fill-rule="evenodd" fill-opacity="1"/>
<defs>
  <clipPath id="clip702">
    <rect x="42" y="11" width="427" height="262"/>
  </clipPath>
</defs>
<polyline clip-path="url(#clip702)" style="stroke:#000000; stroke-width:0.5; stroke-opacity:0.1; fill:none" points="
  54.5629,273.152 54.5629,11.811 
  "/>
<polyline clip-path="url(#clip702)" style="stroke:#000000; stroke-width:0.5; stroke-opacity:0.1; fill:none" points="
  154.958,273.152 154.958,11.811 
  "/>
<polyline clip-path="url(#clip702)" style="stroke:#000000; stroke-width:0.5; stroke-opacity:0.1; fill:none" points="
  255.352,273.152 255.352,11.811 
  "/>
<polyline clip-path="url(#clip702)" style="stroke:#000000; stroke-width:0.5; stroke-opacity:0.1; fill:none" points="
  355.747,273.152 355.747,11.811 
  "/>
<polyline clip-path="url(#clip702)" style="stroke:#000000; stroke-width:0.5; stroke-opacity:0.1; fill:none" points="
  456.142,273.152 456.142,11.811 
  "/>
<polyline clip-path="url(#clip700)" style="stroke:#000000; stroke-width:1; stroke-opacity:1; fill:none" points="
  42.5155,273.152 468.189,273.152 
  "/>
<polyline clip-path="url(#clip700)" style="stroke:#000000; stroke-width:1; stroke-opacity:1; fill:none" points="
  54.5629,273.152 54.5629,270.016 
  "/>
<polyline clip-path="url(#clip700)" style="stroke:#000000; stroke-width:1; stroke-opacity:1; fill:none" points="
  154.958,273.152 154.958,270.016 
  "/>
<polyline clip-path="url(#clip700)" style="stroke:#000000; stroke-width:1; stroke-opacity:1; fill:none" points="
  255.352,273.152 255.352,270.016 
  "/>
<polyline clip-path="url(#clip700)" style="stroke:#000000; stroke-width:1; stroke-opacity:1; fill:none" points="
  355.747,273.152 355.747,270.016 
  "/>
<polyline clip-path="url(#clip700)" style="stroke:#000000; stroke-width:1; stroke-opacity:1; fill:none" points="
  456.142,273.152 456.142,270.016 
  "/>
<path clip-path="url(#clip700)" d="M 0 0 M43.0091 283.153 L50.4281 283.153 L50.4281 284.137 L43.0091 284.137 L43.0091 283.153 Z" fill="#000000" fill-rule="evenodd" fill-opacity="1" /><path clip-path="url(#clip700)" d="M 0 0 M51.898 286.376 L53.8077 286.376 L53.8077 279.785 L51.7301 280.201 L51.7301 279.137 L53.7961 278.72 L54.9651 278.72 L54.9651 286.376 L56.8748 286.376 L56.8748 287.36 L51.898 287.36 L51.898 286.376 Z" fill="#000000" fill-rule="evenodd" fill-opacity="1" /><path clip-path="url(#clip700)" d="M 0 0 M58.1421 285.89 L59.3632 285.89 L59.3632 287.36 L58.1421 287.36 L58.1421 285.89 Z" fill="#000000" fill-rule="evenodd" fill-opacity="1" /><path clip-path="url(#clip700)" d="M 0 0 M63.1305 279.49 Q62.2278 279.49 61.7706 280.381 Q61.3192 281.266 61.3192 283.049 Q61.3192 284.825 61.7706 285.716 Q62.2278 286.602 63.1305 286.602 Q64.0391 286.602 64.4905 285.716 Q64.9477 284.825 64.9477 283.049 Q64.9477 281.266 64.4905 280.381 Q64.0391 279.49 63.1305 279.49 M63.1305 278.564 Q64.5831 278.564 65.347 279.715 Q66.1166 280.861 66.1166 283.049 Q66.1166 285.23 65.347 286.382 Q64.5831 287.528 63.1305 287.528 Q61.678 287.528 60.9083 286.382 Q60.1444 285.23 60.1444 283.049 Q60.1444 280.861 60.9083 279.715 Q61.678 278.564 63.1305 278.564 Z" fill="#000000" fill-rule="evenodd" fill-opacity="1" /><path clip-path="url(#clip700)" d="M 0 0 M143.375 283.153 L150.794 283.153 L150.794 284.137 L143.375 284.137 L143.375 283.153 Z" fill="#000000" fill-rule="evenodd" fill-opacity="1" /><path clip-path="url(#clip700)" d="M 0 0 M154.561 279.49 Q153.658 279.49 153.201 280.381 Q152.75 281.266 152.75 283.049 Q152.75 284.825 153.201 285.716 Q153.658 286.602 154.561 286.602 Q155.47 286.602 155.921 285.716 Q156.378 284.825 156.378 283.049 Q156.378 281.266 155.921 280.381 Q155.47 279.49 154.561 279.49 M154.561 278.564 Q156.014 278.564 156.778 279.715 Q157.547 280.861 157.547 283.049 Q157.547 285.23 156.778 286.382 Q156.014 287.528 154.561 287.528 Q153.109 287.528 152.339 286.382 Q151.575 285.23 151.575 283.049 Q151.575 280.861 152.339 279.715 Q153.109 278.564 154.561 278.564 Z" fill="#000000" fill-rule="evenodd" fill-opacity="1" /><path clip-path="url(#clip700)" d="M 0 0 M158.815 285.89 L160.036 285.89 L160.036 287.36 L158.815 287.36 L158.815 285.89 Z" fill="#000000" fill-rule="evenodd" fill-opacity="1" /><path clip-path="url(#clip700)" d="M 0 0 M161.315 278.72 L165.904 278.72 L165.904 279.704 L162.385 279.704 L162.385 281.822 Q162.64 281.735 162.894 281.694 Q163.149 281.648 163.404 281.648 Q164.85 281.648 165.695 282.441 Q166.54 283.234 166.54 284.588 Q166.54 285.983 165.672 286.758 Q164.804 287.528 163.224 287.528 Q162.68 287.528 162.113 287.435 Q161.552 287.343 160.95 287.157 L160.95 285.983 Q161.471 286.266 162.026 286.405 Q162.582 286.544 163.201 286.544 Q164.202 286.544 164.787 286.017 Q165.371 285.491 165.371 284.588 Q165.371 283.685 164.787 283.159 Q164.202 282.632 163.201 282.632 Q162.732 282.632 162.264 282.736 Q161.801 282.84 161.315 283.06 L161.315 278.72 Z" fill="#000000" fill-rule="evenodd" fill-opacity="1" /><path clip-path="url(#clip700)" d="M 0 0 M250.731 279.49 Q249.829 279.49 249.371 280.381 Q248.92 281.266 248.92 283.049 Q248.92 284.825 249.371 285.716 Q249.829 286.602 250.731 286.602 Q251.64 286.602 252.091 285.716 Q252.548 284.825 252.548 283.049 Q252.548 281.266 252.091 280.381 Q251.64 279.49 250.731 279.49 M250.731 278.564 Q252.184 278.564 252.948 279.715 Q253.717 280.861 253.717 283.049 Q253.717 285.23 252.948 286.382 Q252.184 287.528 250.731 287.528 Q249.279 287.528 248.509 286.382 Q247.745 285.23 247.745 283.049 Q247.745 280.861 248.509 279.715 Q249.279 278.564 250.731 278.564 Z" fill="#000000" fill-rule="evenodd" fill-opacity="1" /><path clip-path="url(#clip700)" d="M 0 0 M254.985 285.89 L256.206 285.89 L256.206 287.36 L254.985 287.36 L254.985 285.89 Z" fill="#000000" fill-rule="evenodd" fill-opacity="1" /><path clip-path="url(#clip700)" d="M 0 0 M259.973 279.49 Q259.07 279.49 258.613 280.381 Q258.162 281.266 258.162 283.049 Q258.162 284.825 258.613 285.716 Q259.07 286.602 259.973 286.602 Q260.882 286.602 261.333 285.716 Q261.79 284.825 261.79 283.049 Q261.79 281.266 261.333 280.381 Q260.882 279.49 259.973 279.49 M259.973 278.564 Q261.426 278.564 262.19 279.715 Q262.959 280.861 262.959 283.049 Q262.959 285.23 262.19 286.382 Q261.426 287.528 259.973 287.528 Q258.521 287.528 257.751 286.382 Q256.987 285.23 256.987 283.049 Q256.987 280.861 257.751 279.715 Q258.521 278.564 259.973 278.564 Z" fill="#000000" fill-rule="evenodd" fill-opacity="1" /><path clip-path="url(#clip700)" d="M 0 0 M351.25 279.49 Q350.348 279.49 349.89 280.381 Q349.439 281.266 349.439 283.049 Q349.439 284.825 349.89 285.716 Q350.348 286.602 351.25 286.602 Q352.159 286.602 352.61 285.716 Q353.068 284.825 353.068 283.049 Q353.068 281.266 352.61 280.381 Q352.159 279.49 351.25 279.49 M351.25 278.564 Q352.703 278.564 353.467 279.715 Q354.237 280.861 354.237 283.049 Q354.237 285.23 353.467 286.382 Q352.703 287.528 351.25 287.528 Q349.798 287.528 349.028 286.382 Q348.264 285.23 348.264 283.049 Q348.264 280.861 349.028 279.715 Q349.798 278.564 351.25 278.564 Z" fill="#000000" fill-rule="evenodd" fill-opacity="1" /><path clip-path="url(#clip700)" d="M 0 0 M355.504 285.89 L356.725 285.89 L356.725 287.36 L355.504 287.36 L355.504 285.89 Z" fill="#000000" fill-rule="evenodd" fill-opacity="1" /><path clip-path="url(#clip700)" d="M 0 0 M358.004 278.72 L362.593 278.72 L362.593 279.704 L359.074 279.704 L359.074 281.822 Q359.329 281.735 359.584 281.694 Q359.838 281.648 360.093 281.648 Q361.54 281.648 362.385 282.441 Q363.23 283.234 363.23 284.588 Q363.23 285.983 362.361 286.758 Q361.493 287.528 359.914 287.528 Q359.37 287.528 358.802 287.435 Q358.241 287.343 357.639 287.157 L357.639 285.983 Q358.16 286.266 358.716 286.405 Q359.271 286.544 359.89 286.544 Q360.892 286.544 361.476 286.017 Q362.061 285.491 362.061 284.588 Q362.061 283.685 361.476 283.159 Q360.892 282.632 359.89 282.632 Q359.422 282.632 358.953 282.736 Q358.49 282.84 358.004 283.06 L358.004 278.72 Z" fill="#000000" fill-rule="evenodd" fill-opacity="1" /><path clip-path="url(#clip700)" d="M 0 0 M449.116 286.376 L451.026 286.376 L451.026 279.785 L448.948 280.201 L448.948 279.137 L451.014 278.72 L452.183 278.72 L452.183 286.376 L454.093 286.376 L454.093 287.36 L449.116 287.36 L449.116 286.376 Z" fill="#000000" fill-rule="evenodd" fill-opacity="1" /><path clip-path="url(#clip700)" d="M 0 0 M455.36 285.89 L456.581 285.89 L456.581 287.36 L455.36 287.36 L455.36 285.89 Z" fill="#000000" fill-rule="evenodd" fill-opacity="1" /><path clip-path="url(#clip700)" d="M 0 0 M460.349 279.49 Q459.446 279.49 458.989 280.381 Q458.537 281.266 458.537 283.049 Q458.537 284.825 458.989 285.716 Q459.446 286.602 460.349 286.602 Q461.257 286.602 461.709 285.716 Q462.166 284.825 462.166 283.049 Q462.166 281.266 461.709 280.381 Q461.257 279.49 460.349 279.49 M460.349 278.564 Q461.801 278.564 462.565 279.715 Q463.335 280.861 463.335 283.049 Q463.335 285.23 462.565 286.382 Q461.801 287.528 460.349 287.528 Q458.896 287.528 458.127 286.382 Q457.363 285.23 457.363 283.049 Q457.363 280.861 458.127 279.715 Q458.896 278.564 460.349 278.564 Z" fill="#000000" fill-rule="evenodd" fill-opacity="1" /><polyline clip-path="url(#clip702)" style="stroke:#000000; stroke-width:0.5; stroke-opacity:0.1; fill:none" points="
  42.5155,265.756 468.189,265.756 
  "/>
<polyline clip-path="url(#clip702)" style="stroke:#000000; stroke-width:0.5; stroke-opacity:0.1; fill:none" points="
  42.5155,204.119 468.189,204.119 
  "/>
<polyline clip-path="url(#clip702)" style="stroke:#000000; stroke-width:0.5; stroke-opacity:0.1; fill:none" points="
  42.5155,142.481 468.189,142.481 
  "/>
<polyline clip-path="url(#clip702)" style="stroke:#000000; stroke-width:0.5; stroke-opacity:0.1; fill:none" points="
  42.5155,80.8445 468.189,80.8445 
  "/>
<polyline clip-path="url(#clip702)" style="stroke:#000000; stroke-width:0.5; stroke-opacity:0.1; fill:none" points="
  42.5155,19.2075 468.189,19.2075 
  "/>
<polyline clip-path="url(#clip700)" style="stroke:#000000; stroke-width:1; stroke-opacity:1; fill:none" points="
  42.5155,273.152 42.5155,11.811 
  "/>
<polyline clip-path="url(#clip700)" style="stroke:#000000; stroke-width:1; stroke-opacity:1; fill:none" points="
  42.5155,265.756 47.6236,265.756 
  "/>
<polyline clip-path="url(#clip700)" style="stroke:#000000; stroke-width:1; stroke-opacity:1; fill:none" points="
  42.5155,204.119 47.6236,204.119 
  "/>
<polyline clip-path="url(#clip700)" style="stroke:#000000; stroke-width:1; stroke-opacity:1; fill:none" points="
  42.5155,142.481 47.6236,142.481 
  "/>
<polyline clip-path="url(#clip700)" style="stroke:#000000; stroke-width:1; stroke-opacity:1; fill:none" points="
  42.5155,80.8445 47.6236,80.8445 
  "/>
<polyline clip-path="url(#clip700)" style="stroke:#000000; stroke-width:1; stroke-opacity:1; fill:none" points="
  42.5155,19.2075 47.6236,19.2075 
  "/>
<path clip-path="url(#clip700)" d="M 0 0 M16.3341 262.205 Q15.4314 262.205 14.9742 263.096 Q14.5228 263.982 14.5228 265.764 Q14.5228 267.541 14.9742 268.432 Q15.4314 269.317 16.3341 269.317 Q17.2427 269.317 17.6941 268.432 Q18.1512 267.541 18.1512 265.764 Q18.1512 263.982 17.6941 263.096 Q17.2427 262.205 16.3341 262.205 M16.3341 261.279 Q17.7867 261.279 18.5505 262.431 Q19.3202 263.577 19.3202 265.764 Q19.3202 267.946 18.5505 269.098 Q17.7867 270.243 16.3341 270.243 Q14.8816 270.243 14.1119 269.098 Q13.348 267.946 13.348 265.764 Q13.348 263.577 14.1119 262.431 Q14.8816 261.279 16.3341 261.279 Z" fill="#000000" fill-rule="evenodd" fill-opacity="1" /><path clip-path="url(#clip700)" d="M 0 0 M20.5876 268.606 L21.8086 268.606 L21.8086 270.076 L20.5876 270.076 L20.5876 268.606 Z" fill="#000000" fill-rule="evenodd" fill-opacity="1" /><path clip-path="url(#clip700)" d="M 0 0 M25.576 262.205 Q24.6732 262.205 24.216 263.096 Q23.7646 263.982 23.7646 265.764 Q23.7646 267.541 24.216 268.432 Q24.6732 269.317 25.576 269.317 Q26.4845 269.317 26.9359 268.432 Q27.3931 267.541 27.3931 265.764 Q27.3931 263.982 26.9359 263.096 Q26.4845 262.205 25.576 262.205 M25.576 261.279 Q27.0285 261.279 27.7924 262.431 Q28.5621 263.577 28.5621 265.764 Q28.5621 267.946 27.7924 269.098 Q27.0285 270.243 25.576 270.243 Q24.1234 270.243 23.3538 269.098 Q22.5899 267.946 22.5899 265.764 Q22.5899 263.577 23.3538 262.431 Q24.1234 261.279 25.576 261.279 Z" fill="#000000" fill-rule="evenodd" fill-opacity="1" /><path clip-path="url(#clip700)" d="M 0 0 M32.3294 262.205 Q31.4266 262.205 30.9695 263.096 Q30.5181 263.982 30.5181 265.764 Q30.5181 267.541 30.9695 268.432 Q31.4266 269.317 32.3294 269.317 Q33.238 269.317 33.6894 268.432 Q34.1465 267.541 34.1465 265.764 Q34.1465 263.982 33.6894 263.096 Q33.238 262.205 32.3294 262.205 M32.3294 261.279 Q33.7819 261.279 34.5458 262.431 Q35.3155 263.577 35.3155 265.764 Q35.3155 267.946 34.5458 269.098 Q33.7819 270.243 32.3294 270.243 Q30.8769 270.243 30.1072 269.098 Q29.3433 267.946 29.3433 265.764 Q29.3433 263.577 30.1072 262.431 Q30.8769 261.279 32.3294 261.279 Z" fill="#000000" fill-rule="evenodd" fill-opacity="1" /><path clip-path="url(#clip700)" d="M 0 0 M16.9823 200.568 Q16.0795 200.568 15.6223 201.459 Q15.1709 202.345 15.1709 204.127 Q15.1709 205.904 15.6223 206.795 Q16.0795 207.68 16.9823 207.68 Q17.8908 207.68 18.3422 206.795 Q18.7994 205.904 18.7994 204.127 Q18.7994 202.345 18.3422 201.459 Q17.8908 200.568 16.9823 200.568 M16.9823 199.642 Q18.4348 199.642 19.1987 200.794 Q19.9684 201.94 19.9684 204.127 Q19.9684 206.309 19.1987 207.461 Q18.4348 208.606 16.9823 208.606 Q15.5297 208.606 14.7601 207.461 Q13.9962 206.309 13.9962 204.127 Q13.9962 201.94 14.7601 200.794 Q15.5297 199.642 16.9823 199.642 Z" fill="#000000" fill-rule="evenodd" fill-opacity="1" /><path clip-path="url(#clip700)" d="M 0 0 M21.2357 206.969 L22.4568 206.969 L22.4568 208.439 L21.2357 208.439 L21.2357 206.969 Z" fill="#000000" fill-rule="evenodd" fill-opacity="1" /><path clip-path="url(#clip700)" d="M 0 0 M24.7311 207.455 L28.8109 207.455 L28.8109 208.439 L23.3248 208.439 L23.3248 207.455 Q23.9903 206.766 25.1362 205.609 Q26.2878 204.445 26.5829 204.11 Q27.1443 203.479 27.3642 203.045 Q27.5899 202.605 27.5899 202.183 Q27.5899 201.494 27.1037 201.06 Q26.6234 200.626 25.848 200.626 Q25.2982 200.626 24.6848 200.817 Q24.0771 201.008 23.3827 201.396 L23.3827 200.215 Q24.0887 199.932 24.7021 199.787 Q25.3156 199.642 25.8248 199.642 Q27.1674 199.642 27.966 200.314 Q28.7646 200.985 28.7646 202.108 Q28.7646 202.64 28.5621 203.12 Q28.3653 203.595 27.8387 204.243 Q27.694 204.411 26.9186 205.215 Q26.1431 206.014 24.7311 207.455 Z" fill="#000000" fill-rule="evenodd" fill-opacity="1" /><path clip-path="url(#clip700)" d="M 0 0 M30.0898 199.799 L34.6789 199.799 L34.6789 200.782 L31.1604 200.782 L31.1604 202.9 Q31.4151 202.814 31.6697 202.773 Q31.9243 202.727 32.1789 202.727 Q33.6257 202.727 34.4706 203.52 Q35.3155 204.312 35.3155 205.667 Q35.3155 207.061 34.4475 207.837 Q33.5794 208.606 31.9996 208.606 Q31.4556 208.606 30.8884 208.514 Q30.3271 208.421 29.7253 208.236 L29.7253 207.061 Q30.2461 207.345 30.8016 207.484 Q31.3572 207.623 31.9764 207.623 Q32.9776 207.623 33.562 207.096 Q34.1465 206.569 34.1465 205.667 Q34.1465 204.764 33.562 204.237 Q32.9776 203.711 31.9764 203.711 Q31.5077 203.711 31.0389 203.815 Q30.5759 203.919 30.0898 204.139 L30.0898 199.799 Z" fill="#000000" fill-rule="evenodd" fill-opacity="1" /><path clip-path="url(#clip700)" d="M 0 0 M16.583 138.931 Q15.6802 138.931 15.223 139.822 Q14.7716 140.708 14.7716 142.49 Q14.7716 144.267 15.223 145.158 Q15.6802 146.043 16.583 146.043 Q17.4915 146.043 17.9429 145.158 Q18.4001 144.267 18.4001 142.49 Q18.4001 140.708 17.9429 139.822 Q17.4915 138.931 16.583 138.931 M16.583 138.005 Q18.0355 138.005 18.7994 139.157 Q19.5691 140.303 19.5691 142.49 Q19.5691 144.672 18.7994 145.823 Q18.0355 146.969 16.583 146.969 Q15.1304 146.969 14.3608 145.823 Q13.5969 144.672 13.5969 142.49 Q13.5969 140.303 14.3608 139.157 Q15.1304 138.005 16.583 138.005 Z" fill="#000000" fill-rule="evenodd" fill-opacity="1" /><path clip-path="url(#clip700)" d="M 0 0 M20.8364 145.332 L22.0575 145.332 L22.0575 146.801 L20.8364 146.801 L20.8364 145.332 Z" fill="#000000" fill-rule="evenodd" fill-opacity="1" /><path clip-path="url(#clip700)" d="M 0 0 M23.3364 138.161 L27.9255 138.161 L27.9255 139.145 L24.407 139.145 L24.407 141.263 Q24.6616 141.177 24.9163 141.136 Q25.1709 141.09 25.4255 141.09 Q26.8723 141.09 27.7172 141.883 Q28.5621 142.675 28.5621 144.03 Q28.5621 145.424 27.694 146.2 Q26.826 146.969 25.2461 146.969 Q24.7021 146.969 24.135 146.877 Q23.5737 146.784 22.9718 146.599 L22.9718 145.424 Q23.4927 145.708 24.0482 145.847 Q24.6038 145.986 25.223 145.986 Q26.2241 145.986 26.8086 145.459 Q27.3931 144.932 27.3931 144.03 Q27.3931 143.127 26.8086 142.6 Q26.2241 142.074 25.223 142.074 Q24.7542 142.074 24.2855 142.178 Q23.8225 142.282 23.3364 142.502 L23.3364 138.161 Z" fill="#000000" fill-rule="evenodd" fill-opacity="1" /><path clip-path="url(#clip700)" d="M 0 0 M32.3294 138.931 Q31.4266 138.931 30.9695 139.822 Q30.5181 140.708 30.5181 142.49 Q30.5181 144.267 30.9695 145.158 Q31.4266 146.043 32.3294 146.043 Q33.238 146.043 33.6894 145.158 Q34.1465 144.267 34.1465 142.49 Q34.1465 140.708 33.6894 139.822 Q33.238 138.931 32.3294 138.931 M32.3294 138.005 Q33.7819 138.005 34.5458 139.157 Q35.3155 140.303 35.3155 142.49 Q35.3155 144.672 34.5458 145.823 Q33.7819 146.969 32.3294 146.969 Q30.8769 146.969 30.1072 145.823 Q29.3433 144.672 29.3433 142.49 Q29.3433 140.303 30.1072 139.157 Q30.8769 138.005 32.3294 138.005 Z" fill="#000000" fill-rule="evenodd" fill-opacity="1" /><path clip-path="url(#clip700)" d="M 0 0 M16.8087 77.2942 Q15.9059 77.2942 15.4487 78.1854 Q14.9973 79.0708 14.9973 80.8532 Q14.9973 82.6298 15.4487 83.521 Q15.9059 84.4064 16.8087 84.4064 Q17.7172 84.4064 18.1686 83.521 Q18.6258 82.6298 18.6258 80.8532 Q18.6258 79.0708 18.1686 78.1854 Q17.7172 77.2942 16.8087 77.2942 M16.8087 76.3682 Q18.2612 76.3682 19.0251 77.5198 Q19.7948 78.6657 19.7948 80.8532 Q19.7948 83.0349 19.0251 84.1865 Q18.2612 85.3323 16.8087 85.3323 Q15.3561 85.3323 14.5865 84.1865 Q13.8226 83.0349 13.8226 80.8532 Q13.8226 78.6657 14.5865 77.5198 Q15.3561 76.3682 16.8087 76.3682 Z" fill="#000000" fill-rule="evenodd" fill-opacity="1" /><path clip-path="url(#clip700)" d="M 0 0 M21.0621 83.6946 L22.2832 83.6946 L22.2832 85.1645 L21.0621 85.1645 L21.0621 83.6946 Z" fill="#000000" fill-rule="evenodd" fill-opacity="1" /><path clip-path="url(#clip700)" d="M 0 0 M23.2554 76.5245 L28.8109 76.5245 L28.8109 77.0222 L25.6744 85.1645 L24.4533 85.1645 L27.4047 77.5083 L23.2554 77.5083 L23.2554 76.5245 Z" fill="#000000" fill-rule="evenodd" fill-opacity="1" /><path clip-path="url(#clip700)" d="M 0 0 M30.0898 76.5245 L34.6789 76.5245 L34.6789 77.5083 L31.1604 77.5083 L31.1604 79.6263 Q31.4151 79.5395 31.6697 79.499 Q31.9243 79.4527 32.1789 79.4527 Q33.6257 79.4527 34.4706 80.2455 Q35.3155 81.0383 35.3155 82.3925 Q35.3155 83.7872 34.4475 84.5626 Q33.5794 85.3323 31.9996 85.3323 Q31.4556 85.3323 30.8884 85.2397 Q30.3271 85.1471 29.7253 84.9619 L29.7253 83.7872 Q30.2461 84.0707 30.8016 84.2096 Q31.3572 84.3485 31.9764 84.3485 Q32.9776 84.3485 33.562 83.8219 Q34.1465 83.2953 34.1465 82.3925 Q34.1465 81.4897 33.562 80.9631 Q32.9776 80.4365 31.9764 80.4365 Q31.5077 80.4365 31.0389 80.5407 Q30.5759 80.6448 30.0898 80.8647 L30.0898 76.5245 Z" fill="#000000" fill-rule="evenodd" fill-opacity="1" /><path clip-path="url(#clip700)" d="M 0 0 M14.3434 22.5437 L16.2531 22.5437 L16.2531 15.9523 L14.1756 16.3689 L14.1756 15.3041 L16.2415 14.8875 L17.4105 14.8875 L17.4105 22.5437 L19.3202 22.5437 L19.3202 23.5275 L14.3434 23.5275 L14.3434 22.5437 Z" fill="#000000" fill-rule="evenodd" fill-opacity="1" /><path clip-path="url(#clip700)" d="M 0 0 M20.5876 22.0576 L21.8086 22.0576 L21.8086 23.5275 L20.5876 23.5275 L20.5876 22.0576 Z" fill="#000000" fill-rule="evenodd" fill-opacity="1" /><path clip-path="url(#clip700)" d="M 0 0 M25.576 15.6571 Q24.6732 15.6571 24.216 16.5483 Q23.7646 17.4337 23.7646 19.2161 Q23.7646 20.9928 24.216 21.884 Q24.6732 22.7694 25.576 22.7694 Q26.4845 22.7694 26.9359 21.884 Q27.3931 20.9928 27.3931 19.2161 Q27.3931 17.4337 26.9359 16.5483 Q26.4845 15.6571 25.576 15.6571 M25.576 14.7312 Q27.0285 14.7312 27.7924 15.8828 Q28.5621 17.0287 28.5621 19.2161 Q28.5621 21.3978 27.7924 22.5495 Q27.0285 23.6953 25.576 23.6953 Q24.1234 23.6953 23.3538 22.5495 Q22.5899 21.3978 22.5899 19.2161 Q22.5899 17.0287 23.3538 15.8828 Q24.1234 14.7312 25.576 14.7312 Z" fill="#000000" fill-rule="evenodd" fill-opacity="1" /><path clip-path="url(#clip700)" d="M 0 0 M32.3294 15.6571 Q31.4266 15.6571 30.9695 16.5483 Q30.5181 17.4337 30.5181 19.2161 Q30.5181 20.9928 30.9695 21.884 Q31.4266 22.7694 32.3294 22.7694 Q33.238 22.7694 33.6894 21.884 Q34.1465 20.9928 34.1465 19.2161 Q34.1465 17.4337 33.6894 16.5483 Q33.238 15.6571 32.3294 15.6571 M32.3294 14.7312 Q33.7819 14.7312 34.5458 15.8828 Q35.3155 17.0287 35.3155 19.2161 Q35.3155 21.3978 34.5458 22.5495 Q33.7819 23.6953 32.3294 23.6953 Q30.8769 23.6953 30.1072 22.5495 Q29.3433 21.3978 29.3433 19.2161 Q29.3433 17.0287 30.1072 15.8828 Q30.8769 14.7312 32.3294 14.7312 Z" fill="#000000" fill-rule="evenodd" fill-opacity="1" /><circle clip-path="url(#clip702)" cx="54.5629" cy="265.756" r="3" fill="#009af9" fill-rule="evenodd" fill-opacity="1" stroke="#000000" stroke-opacity="1" stroke-width="0.6"/>
<circle clip-path="url(#clip702)" cx="76.8728" cy="265.756" r="3" fill="#009af9" fill-rule="evenodd" fill-opacity="1" stroke="#000000" stroke-opacity="1" stroke-width="0.6"/>
<circle clip-path="url(#clip702)" cx="99.1827" cy="265.756" r="3" fill="#009af9" fill-rule="evenodd" fill-opacity="1" stroke="#000000" stroke-opacity="1" stroke-width="0.6"/>
<circle clip-path="url(#clip702)" cx="121.493" cy="265.756" r="3" fill="#009af9" fill-rule="evenodd" fill-opacity="1" stroke="#000000" stroke-opacity="1" stroke-width="0.6"/>
<circle clip-path="url(#clip702)" cx="143.803" cy="265.756" r="3" fill="#009af9" fill-rule="evenodd" fill-opacity="1" stroke="#000000" stroke-opacity="1" stroke-width="0.6"/>
<circle clip-path="url(#clip702)" cx="166.113" cy="265.756" r="3" fill="#009af9" fill-rule="evenodd" fill-opacity="1" stroke="#000000" stroke-opacity="1" stroke-width="0.6"/>
<circle clip-path="url(#clip702)" cx="188.422" cy="265.756" r="3" fill="#009af9" fill-rule="evenodd" fill-opacity="1" stroke="#000000" stroke-opacity="1" stroke-width="0.6"/>
<circle clip-path="url(#clip702)" cx="210.732" cy="265.756" r="3" fill="#009af9" fill-rule="evenodd" fill-opacity="1" stroke="#000000" stroke-opacity="1" stroke-width="0.6"/>
<circle clip-path="url(#clip702)" cx="233.042" cy="265.756" r="3" fill="#009af9" fill-rule="evenodd" fill-opacity="1" stroke="#000000" stroke-opacity="1" stroke-width="0.6"/>
<circle clip-path="url(#clip702)" cx="255.352" cy="19.2075" r="3" fill="#009af9" fill-rule="evenodd" fill-opacity="1" stroke="#000000" stroke-opacity="1" stroke-width="0.6"/>
<circle clip-path="url(#clip702)" cx="277.662" cy="265.756" r="3" fill="#009af9" fill-rule="evenodd" fill-opacity="1" stroke="#000000" stroke-opacity="1" stroke-width="0.6"/>
<circle clip-path="url(#clip702)" cx="299.972" cy="265.756" r="3" fill="#009af9" fill-rule="evenodd" fill-opacity="1" stroke="#000000" stroke-opacity="1" stroke-width="0.6"/>
<circle clip-path="url(#clip702)" cx="322.282" cy="265.756" r="3" fill="#009af9" fill-rule="evenodd" fill-opacity="1" stroke="#000000" stroke-opacity="1" stroke-width="0.6"/>
<circle clip-path="url(#clip702)" cx="344.592" cy="265.756" r="3" fill="#009af9" fill-rule="evenodd" fill-opacity="1" stroke="#000000" stroke-opacity="1" stroke-width="0.6"/>
<circle clip-path="url(#clip702)" cx="366.902" cy="265.756" r="3" fill="#009af9" fill-rule="evenodd" fill-opacity="1" stroke="#000000" stroke-opacity="1" stroke-width="0.6"/>
<circle clip-path="url(#clip702)" cx="389.212" cy="265.756" r="3" fill="#009af9" fill-rule="evenodd" fill-opacity="1" stroke="#000000" stroke-opacity="1" stroke-width="0.6"/>
<circle clip-path="url(#clip702)" cx="411.522" cy="265.756" r="3" fill="#009af9" fill-rule="evenodd" fill-opacity="1" stroke="#000000" stroke-opacity="1" stroke-width="0.6"/>
<circle clip-path="url(#clip702)" cx="433.832" cy="265.756" r="3" fill="#009af9" fill-rule="evenodd" fill-opacity="1" stroke="#000000" stroke-opacity="1" stroke-width="0.6"/>
<circle clip-path="url(#clip702)" cx="456.142" cy="265.756" r="3" fill="#009af9" fill-rule="evenodd" fill-opacity="1" stroke="#000000" stroke-opacity="1" stroke-width="0.6"/>
<path clip-path="url(#clip700)" d="
M384.174 50.7624 L454 50.7624 L454 20.5224 L384.174 20.5224  Z
  " fill="#ffffff" fill-rule="evenodd" fill-opacity="1"/>
<polyline clip-path="url(#clip700)" style="stroke:#000000; stroke-width:1; stroke-opacity:1; fill:none" points="
  384.174,50.7624 454,50.7624 454,20.5224 384.174,20.5224 384.174,50.7624 
  "/>
<circle clip-path="url(#clip700)" cx="403.093" cy="35.6424" r="5" fill="#009af9" fill-rule="evenodd" fill-opacity="1" stroke="#000000" stroke-opacity="1" stroke-width="0.96"/>
<path clip-path="url(#clip700)" d="M 0 0 M426.74 34.4647 L426.74 30.9578 L427.804 30.9578 L427.804 39.9624 L426.74 39.9624 L426.74 38.9902 Q426.404 39.5689 425.889 39.8524 Q425.38 40.1302 424.662 40.1302 Q423.487 40.1302 422.747 39.1927 Q422.012 38.2552 422.012 36.7275 Q422.012 35.1997 422.747 34.2622 Q423.487 33.3247 424.662 33.3247 Q425.38 33.3247 425.889 33.6083 Q426.404 33.886 426.74 34.4647 M423.111 36.7275 Q423.111 37.9022 423.591 38.5735 Q424.078 39.239 424.922 39.239 Q425.767 39.239 426.254 38.5735 Q426.74 37.9022 426.74 36.7275 Q426.74 35.5527 426.254 34.8872 Q425.767 34.2159 424.922 34.2159 Q424.078 34.2159 423.591 34.8872 Q423.111 35.5527 423.111 36.7275 Z" fill="#000000" fill-rule="evenodd" fill-opacity="1" /><path clip-path="url(#clip700)" d="M 0 0 M431.867 36.7043 Q430.576 36.7043 430.079 36.9994 Q429.581 37.2946 429.581 38.0064 Q429.581 38.5735 429.951 38.9092 Q430.328 39.239 430.97 39.239 Q431.855 39.239 432.388 38.614 Q432.926 37.9832 432.926 36.9416 L432.926 36.7043 L431.867 36.7043 M433.991 36.2645 L433.991 39.9624 L432.926 39.9624 L432.926 38.9786 Q432.561 39.5689 432.017 39.8524 Q431.473 40.1302 430.686 40.1302 Q429.691 40.1302 429.101 39.5747 Q428.516 39.0133 428.516 38.0758 Q428.516 36.9821 429.245 36.4265 Q429.98 35.871 431.433 35.871 L432.926 35.871 L432.926 35.7668 Q432.926 35.0319 432.44 34.6326 Q431.959 34.2275 431.086 34.2275 Q430.53 34.2275 430.003 34.3606 Q429.477 34.4937 428.991 34.7599 L428.991 33.7761 Q429.575 33.5504 430.125 33.4404 Q430.675 33.3247 431.196 33.3247 Q432.602 33.3247 433.296 34.0539 Q433.991 34.783 433.991 36.2645 Z" fill="#000000" fill-rule="evenodd" fill-opacity="1" /><path clip-path="url(#clip700)" d="M 0 0 M436.161 31.6407 L436.161 33.4809 L438.354 33.4809 L438.354 34.3085 L436.161 34.3085 L436.161 37.827 Q436.161 38.6198 436.375 38.8455 Q436.595 39.0712 437.26 39.0712 L438.354 39.0712 L438.354 39.9624 L437.26 39.9624 Q436.028 39.9624 435.559 39.5052 Q435.09 39.0423 435.09 37.827 L435.09 34.3085 L434.309 34.3085 L434.309 33.4809 L435.09 33.4809 L435.09 31.6407 L436.161 31.6407 Z" fill="#000000" fill-rule="evenodd" fill-opacity="1" /><path clip-path="url(#clip700)" d="M 0 0 M442.417 36.7043 Q441.126 36.7043 440.628 36.9994 Q440.131 37.2946 440.131 38.0064 Q440.131 38.5735 440.501 38.9092 Q440.877 39.239 441.52 39.239 Q442.405 39.239 442.937 38.614 Q443.476 37.9832 443.476 36.9416 L443.476 36.7043 L442.417 36.7043 M444.54 36.2645 L444.54 39.9624 L443.476 39.9624 L443.476 38.9786 Q443.111 39.5689 442.567 39.8524 Q442.023 40.1302 441.236 40.1302 Q440.241 40.1302 439.65 39.5747 Q439.066 39.0133 439.066 38.0758 Q439.066 36.9821 439.795 36.4265 Q440.53 35.871 441.983 35.871 L443.476 35.871 L443.476 35.7668 Q443.476 35.0319 442.99 34.6326 Q442.509 34.2275 441.635 34.2275 Q441.08 34.2275 440.553 34.3606 Q440.027 34.4937 439.54 34.7599 L439.54 33.7761 Q440.125 33.5504 440.675 33.4404 Q441.224 33.3247 441.745 33.3247 Q443.152 33.3247 443.846 34.0539 Q444.54 34.783 444.54 36.2645 Z" fill="#000000" fill-rule="evenodd" fill-opacity="1" /></svg>
