<?xml version="1.0" encoding="utf-8" standalone="no"?>
<!DOCTYPE svg PUBLIC "-//W3C//DTD SVG 1.1//EN"
  "http://www.w3.org/Graphics/SVG/1.1/DTD/svg11.dtd">
<!-- Created with matplotlib (https://matplotlib.org/) -->
<svg height="230.4pt" version="1.1" viewBox="0 0 360 230.4" width="360pt" xmlns="http://www.w3.org/2000/svg" xmlns:xlink="http://www.w3.org/1999/xlink">
 <metadata>
  <rdf:RDF xmlns:cc="http://creativecommons.org/ns#" xmlns:dc="http://purl.org/dc/elements/1.1/" xmlns:rdf="http://www.w3.org/1999/02/22-rdf-syntax-ns#">
   <cc:Work>
    <dc:type rdf:resource="http://purl.org/dc/dcmitype/StillImage"/>
    <dc:date>2021-07-22T19:17:10.837292</dc:date>
    <dc:format>image/svg+xml</dc:format>
    <dc:creator>
     <cc:Agent>
      <dc:title>Matplotlib v3.3.4, https://matplotlib.org/</dc:title>
     </cc:Agent>
    </dc:creator>
   </cc:Work>
  </rdf:RDF>
 </metadata>
 <defs>
  <style type="text/css">*{stroke-linecap:butt;stroke-linejoin:round;}</style>
 </defs>
 <g id="figure_1">
  <g id="patch_1">
   <path d="M 0 230.4 
L 360 230.4 
L 360 0 
L 0 0 
z
" style="fill:#ffffff;"/>
  </g>
  <g id="axes_1">
   <g id="patch_2">
    <path d="M 149.498468 178.584877 
L 228.973583 178.584877 
L 228.973583 19.634646 
L 149.498468 19.634646 
z
" style="fill:#ffffff;"/>
   </g>
   <g id="matplotlib.axis_1">
    <g id="xtick_1">
     <g id="line2d_1">
      <path clip-path="url(#p1cedb892c1)" d="M 149.498468 178.584877 
L 149.498468 19.634646 
" style="fill:none;stroke:#000000;stroke-linecap:square;stroke-opacity:0.1;stroke-width:0.5;"/>
     </g>
     <g id="line2d_2">
      <defs>
       <path d="M 0 0 
L 0 -2.5 
" id="mfaa27e2cb5" style="stroke:#000000;stroke-width:0.5;"/>
      </defs>
      <g>
       <use style="stroke:#000000;stroke-width:0.5;" x="149.498468" xlink:href="#mfaa27e2cb5" y="178.584877"/>
      </g>
     </g>
     <g id="text_1">
      <!-- $\mathregular{0.0}$ -->
      <g transform="translate(143.898468 187.823627)scale(0.08 -0.08)">
       <defs>
        <path d="M 27.046875 69.921875 
Q 40.625 69.921875 46.6875 58.734375 
Q 51.375 50.09375 51.375 35.0625 
Q 51.375 20.796875 47.125 11.46875 
Q 40.96875 -1.90625 27 -1.90625 
Q 14.40625 -1.90625 8.25 9.03125 
Q 3.125 18.171875 3.125 33.546875 
Q 3.125 45.453125 6.203125 54 
Q 11.96875 69.921875 27.046875 69.921875 
z
M 26.953125 6.109375 
Q 33.796875 6.109375 37.84375 12.15625 
Q 41.890625 18.21875 41.890625 34.71875 
Q 41.890625 46.625 38.953125 54.3125 
Q 36.03125 62.015625 27.59375 62.015625 
Q 19.828125 62.015625 16.234375 54.703125 
Q 12.640625 47.40625 12.640625 33.203125 
Q 12.640625 22.515625 14.9375 16.015625 
Q 18.453125 6.109375 26.953125 6.109375 
z
" id="Helvetica-48"/>
        <path d="M 8.546875 10.640625 
L 18.75 10.640625 
L 18.75 0 
L 8.546875 0 
z
" id="Helvetica-46"/>
       </defs>
       <use transform="translate(0 0.078125)" xlink:href="#Helvetica-48"/>
       <use transform="translate(55.615234 0.078125)" xlink:href="#Helvetica-46"/>
       <use transform="translate(83.398438 0.078125)" xlink:href="#Helvetica-48"/>
      </g>
     </g>
    </g>
    <g id="xtick_2">
     <g id="line2d_3">
      <path clip-path="url(#p1cedb892c1)" d="M 165.393491 178.584877 
L 165.393491 19.634646 
" style="fill:none;stroke:#000000;stroke-linecap:square;stroke-opacity:0.1;stroke-width:0.5;"/>
     </g>
     <g id="line2d_4">
      <g>
       <use style="stroke:#000000;stroke-width:0.5;" x="165.393491" xlink:href="#mfaa27e2cb5" y="178.584877"/>
      </g>
     </g>
     <g id="text_2">
      <!-- $\mathregular{0.2}$ -->
      <g transform="translate(159.793491 187.823627)scale(0.08 -0.08)">
       <defs>
        <path d="M 3.125 0 
Q 3.609375 9.03125 6.859375 15.71875 
Q 10.109375 22.40625 19.53125 27.875 
L 28.90625 33.296875 
Q 35.203125 36.96875 37.75 39.546875 
Q 41.75 43.609375 41.75 48.828125 
Q 41.75 54.9375 38.078125 58.515625 
Q 34.421875 62.109375 28.328125 62.109375 
Q 19.28125 62.109375 15.828125 55.28125 
Q 13.96875 51.609375 13.765625 45.125 
L 4.828125 45.125 
Q 4.984375 54.25 8.203125 60.015625 
Q 13.921875 70.171875 28.375 70.171875 
Q 40.375 70.171875 45.921875 63.671875 
Q 51.46875 57.171875 51.46875 49.21875 
Q 51.46875 40.828125 45.5625 34.859375 
Q 42.140625 31.390625 33.296875 26.46875 
L 26.609375 22.75 
Q 21.828125 20.125 19.09375 17.71875 
Q 14.203125 13.484375 12.9375 8.296875 
L 51.125 8.296875 
L 51.125 0 
L 3.125 0 
z
" id="Helvetica-50"/>
       </defs>
       <use transform="translate(0 0.828125)" xlink:href="#Helvetica-48"/>
       <use transform="translate(55.615234 0.828125)" xlink:href="#Helvetica-46"/>
       <use transform="translate(83.398438 0.828125)" xlink:href="#Helvetica-50"/>
      </g>
     </g>
    </g>
    <g id="xtick_3">
     <g id="line2d_5">
      <path clip-path="url(#p1cedb892c1)" d="M 181.288514 178.584877 
L 181.288514 19.634646 
" style="fill:none;stroke:#000000;stroke-linecap:square;stroke-opacity:0.1;stroke-width:0.5;"/>
     </g>
     <g id="line2d_6">
      <g>
       <use style="stroke:#000000;stroke-width:0.5;" x="181.288514" xlink:href="#mfaa27e2cb5" y="178.584877"/>
      </g>
     </g>
     <g id="text_3">
      <!-- $\mathregular{0.4}$ -->
      <g transform="translate(175.688514 187.823627)scale(0.08 -0.08)">
       <defs>
        <path d="M 33.0625 24.75 
L 33.0625 56.453125 
L 10.640625 24.75 
z
M 33.203125 0 
L 33.203125 17.09375 
L 2.546875 17.09375 
L 2.546875 25.6875 
L 34.578125 70.125 
L 42 70.125 
L 42 24.75 
L 52.296875 24.75 
L 52.296875 17.09375 
L 42 17.09375 
L 42 0 
z
" id="Helvetica-52"/>
       </defs>
       <use transform="translate(0 0.875)" xlink:href="#Helvetica-48"/>
       <use transform="translate(55.615234 0.875)" xlink:href="#Helvetica-46"/>
       <use transform="translate(83.398438 0.875)" xlink:href="#Helvetica-52"/>
      </g>
     </g>
    </g>
    <g id="xtick_4">
     <g id="line2d_7">
      <path clip-path="url(#p1cedb892c1)" d="M 197.183537 178.584877 
L 197.183537 19.634646 
" style="fill:none;stroke:#000000;stroke-linecap:square;stroke-opacity:0.1;stroke-width:0.5;"/>
     </g>
     <g id="line2d_8">
      <g>
       <use style="stroke:#000000;stroke-width:0.5;" x="197.183537" xlink:href="#mfaa27e2cb5" y="178.584877"/>
      </g>
     </g>
     <g id="text_4">
      <!-- $\mathregular{0.6}$ -->
      <g transform="translate(191.583537 187.823627)scale(0.08 -0.08)">
       <defs>
        <path d="M 29.25 70.21875 
Q 40.96875 70.21875 45.578125 64.140625 
Q 50.203125 58.0625 50.203125 51.609375 
L 41.5 51.609375 
Q 40.71875 55.765625 39.015625 58.109375 
Q 35.84375 62.5 29.390625 62.5 
Q 22.015625 62.5 17.671875 55.6875 
Q 13.328125 48.875 12.84375 36.1875 
Q 15.875 40.625 20.453125 42.828125 
Q 24.65625 44.78125 29.828125 44.78125 
Q 38.625 44.78125 45.15625 39.15625 
Q 51.703125 33.546875 51.703125 22.40625 
Q 51.703125 12.890625 45.5 5.53125 
Q 39.3125 -1.8125 27.828125 -1.8125 
Q 18.015625 -1.8125 10.890625 5.640625 
Q 3.765625 13.09375 3.765625 30.71875 
Q 3.765625 43.75 6.9375 52.828125 
Q 13.03125 70.21875 29.25 70.21875 
z
M 28.609375 6 
Q 35.546875 6 38.984375 10.65625 
Q 42.4375 15.328125 42.4375 21.6875 
Q 42.4375 27.046875 39.359375 31.90625 
Q 36.28125 36.765625 28.171875 36.765625 
Q 22.515625 36.765625 18.234375 33 
Q 13.96875 29.25 13.96875 21.6875 
Q 13.96875 15.046875 17.84375 10.515625 
Q 21.734375 6 28.609375 6 
z
" id="Helvetica-54"/>
       </defs>
       <use transform="translate(0 0.78125)" xlink:href="#Helvetica-48"/>
       <use transform="translate(55.615234 0.78125)" xlink:href="#Helvetica-46"/>
       <use transform="translate(83.398438 0.78125)" xlink:href="#Helvetica-54"/>
      </g>
     </g>
    </g>
    <g id="xtick_5">
     <g id="line2d_9">
      <path clip-path="url(#p1cedb892c1)" d="M 213.07856 178.584877 
L 213.07856 19.634646 
" style="fill:none;stroke:#000000;stroke-linecap:square;stroke-opacity:0.1;stroke-width:0.5;"/>
     </g>
     <g id="line2d_10">
      <g>
       <use style="stroke:#000000;stroke-width:0.5;" x="213.07856" xlink:href="#mfaa27e2cb5" y="178.584877"/>
      </g>
     </g>
     <g id="text_5">
      <!-- $\mathregular{0.8}$ -->
      <g transform="translate(207.47856 187.823627)scale(0.08 -0.08)">
       <defs>
        <path d="M 27.203125 40.625 
Q 33.015625 40.625 36.28125 43.875 
Q 39.546875 47.125 39.546875 51.609375 
Q 39.546875 55.515625 36.421875 58.78125 
Q 33.296875 62.0625 26.90625 62.0625 
Q 20.5625 62.0625 17.71875 58.78125 
Q 14.890625 55.515625 14.890625 51.125 
Q 14.890625 46.1875 18.546875 43.40625 
Q 22.21875 40.625 27.203125 40.625 
z
M 27.734375 6 
Q 33.84375 6 37.859375 9.296875 
Q 41.890625 12.59375 41.890625 19.140625 
Q 41.890625 25.921875 37.734375 29.4375 
Q 33.59375 32.953125 27.09375 32.953125 
Q 20.796875 32.953125 16.8125 29.359375 
Q 12.84375 25.78125 12.84375 19.4375 
Q 12.84375 13.96875 16.484375 9.984375 
Q 20.125 6 27.734375 6 
z
M 15.234375 37.25 
Q 11.578125 38.8125 9.515625 40.921875 
Q 5.671875 44.828125 5.671875 51.078125 
Q 5.671875 58.890625 11.328125 64.5 
Q 17 70.125 27.390625 70.125 
Q 37.453125 70.125 43.15625 64.8125 
Q 48.875 59.515625 48.875 52.4375 
Q 48.875 45.90625 45.5625 41.84375 
Q 43.703125 39.546875 39.796875 37.359375 
Q 44.140625 35.359375 46.625 32.765625 
Q 51.265625 27.875 51.265625 20.0625 
Q 51.265625 10.84375 45.0625 4.421875 
Q 38.875 -2 27.546875 -2 
Q 17.328125 -2 10.265625 3.53125 
Q 3.21875 9.078125 3.21875 19.625 
Q 3.21875 25.828125 6.25 30.34375 
Q 9.28125 34.859375 15.234375 37.25 
z
" id="Helvetica-56"/>
       </defs>
       <use transform="translate(0 0.875)" xlink:href="#Helvetica-48"/>
       <use transform="translate(55.615234 0.875)" xlink:href="#Helvetica-46"/>
       <use transform="translate(83.398438 0.875)" xlink:href="#Helvetica-56"/>
      </g>
     </g>
    </g>
    <g id="xtick_6">
     <g id="line2d_11">
      <path clip-path="url(#p1cedb892c1)" d="M 228.973583 178.584877 
L 228.973583 19.634646 
" style="fill:none;stroke:#000000;stroke-linecap:square;stroke-opacity:0.1;stroke-width:0.5;"/>
     </g>
     <g id="line2d_12">
      <g>
       <use style="stroke:#000000;stroke-width:0.5;" x="228.973583" xlink:href="#mfaa27e2cb5" y="178.584877"/>
      </g>
     </g>
     <g id="text_6">
      <!-- $\mathregular{1.0}$ -->
      <g transform="translate(223.373583 187.823627)scale(0.08 -0.08)">
       <defs>
        <path d="M 9.578125 49.515625 
L 9.578125 56.25 
Q 19.09375 57.171875 22.84375 59.34375 
Q 26.609375 61.53125 28.46875 69.625 
L 35.40625 69.625 
L 35.40625 0 
L 26.03125 0 
L 26.03125 49.515625 
z
" id="Helvetica-49"/>
       </defs>
       <use transform="translate(0 0.078125)" xlink:href="#Helvetica-49"/>
       <use transform="translate(55.615234 0.078125)" xlink:href="#Helvetica-46"/>
       <use transform="translate(83.398438 0.078125)" xlink:href="#Helvetica-48"/>
      </g>
     </g>
    </g>
    <g id="text_7">
     <!-- $x$ -->
     <g transform="translate(185.936026 201.381908)scale(0.11 -0.11)">
      <defs>
       <path d="M 60.015625 54.6875 
L 34.90625 27.875 
L 50.296875 0 
L 39.984375 0 
L 28.421875 21.6875 
L 8.296875 0 
L -2.59375 0 
L 24.3125 28.8125 
L 10.015625 54.6875 
L 20.3125 54.6875 
L 30.8125 34.90625 
L 49.125 54.6875 
z
" id="DejaVuSans-Oblique-120"/>
      </defs>
      <use transform="translate(0 0.3125)" xlink:href="#DejaVuSans-Oblique-120"/>
     </g>
    </g>
   </g>
   <g id="matplotlib.axis_2">
    <g id="ytick_1">
     <g id="line2d_13">
      <path clip-path="url(#p1cedb892c1)" d="M 149.498468 178.584877 
L 228.973583 178.584877 
" style="fill:none;stroke:#000000;stroke-linecap:square;stroke-opacity:0.1;stroke-width:0.5;"/>
     </g>
     <g id="line2d_14">
      <defs>
       <path d="M 0 0 
L 2.5 0 
" id="m234c91ab96" style="stroke:#000000;stroke-width:0.5;"/>
      </defs>
      <g>
       <use style="stroke:#000000;stroke-width:0.5;" x="149.498468" xlink:href="#m234c91ab96" y="178.584877"/>
      </g>
     </g>
     <g id="text_8">
      <!-- $\mathregular{0.0}$ -->
      <g transform="translate(134.798468 181.454252)scale(0.08 -0.08)">
       <use transform="translate(0 0.078125)" xlink:href="#Helvetica-48"/>
       <use transform="translate(55.615234 0.078125)" xlink:href="#Helvetica-46"/>
       <use transform="translate(83.398438 0.078125)" xlink:href="#Helvetica-48"/>
      </g>
     </g>
    </g>
    <g id="ytick_2">
     <g id="line2d_15">
      <path clip-path="url(#p1cedb892c1)" d="M 149.498468 138.847319 
L 228.973583 138.847319 
" style="fill:none;stroke:#000000;stroke-linecap:square;stroke-opacity:0.1;stroke-width:0.5;"/>
     </g>
     <g id="line2d_16">
      <g>
       <use style="stroke:#000000;stroke-width:0.5;" x="149.498468" xlink:href="#m234c91ab96" y="138.847319"/>
      </g>
     </g>
     <g id="text_9">
      <!-- $\mathregular{0.5}$ -->
      <g transform="translate(134.798468 141.716694)scale(0.08 -0.08)">
       <defs>
        <path d="M 12.359375 17.828125 
Q 13.234375 10.296875 19.34375 7.421875 
Q 22.46875 5.953125 26.5625 5.953125 
Q 34.375 5.953125 38.125 10.9375 
Q 41.890625 15.921875 41.890625 21.96875 
Q 41.890625 29.296875 37.421875 33.296875 
Q 32.953125 37.3125 26.703125 37.3125 
Q 22.171875 37.3125 18.921875 35.546875 
Q 15.671875 33.796875 13.375 30.671875 
L 5.765625 31.109375 
L 11.078125 68.75 
L 47.40625 68.75 
L 47.40625 60.25 
L 17.671875 60.25 
L 14.703125 40.828125 
Q 17.140625 42.671875 19.34375 43.609375 
Q 23.25 45.21875 28.375 45.21875 
Q 37.984375 45.21875 44.671875 39.015625 
Q 51.375 32.8125 51.375 23.296875 
Q 51.375 13.375 45.234375 5.796875 
Q 39.109375 -1.765625 25.6875 -1.765625 
Q 17.140625 -1.765625 10.5625 3.046875 
Q 4 7.859375 3.21875 17.828125 
z
" id="Helvetica-53"/>
       </defs>
       <use transform="translate(0 0.078125)" xlink:href="#Helvetica-48"/>
       <use transform="translate(55.615234 0.078125)" xlink:href="#Helvetica-46"/>
       <use transform="translate(83.398438 0.078125)" xlink:href="#Helvetica-53"/>
      </g>
     </g>
    </g>
    <g id="ytick_3">
     <g id="line2d_17">
      <path clip-path="url(#p1cedb892c1)" d="M 149.498468 99.109761 
L 228.973583 99.109761 
" style="fill:none;stroke:#000000;stroke-linecap:square;stroke-opacity:0.1;stroke-width:0.5;"/>
     </g>
     <g id="line2d_18">
      <g>
       <use style="stroke:#000000;stroke-width:0.5;" x="149.498468" xlink:href="#m234c91ab96" y="99.109761"/>
      </g>
     </g>
     <g id="text_10">
      <!-- $\mathregular{1.0}$ -->
      <g transform="translate(134.798468 101.979136)scale(0.08 -0.08)">
       <use transform="translate(0 0.078125)" xlink:href="#Helvetica-49"/>
       <use transform="translate(55.615234 0.078125)" xlink:href="#Helvetica-46"/>
       <use transform="translate(83.398438 0.078125)" xlink:href="#Helvetica-48"/>
      </g>
     </g>
    </g>
    <g id="ytick_4">
     <g id="line2d_19">
      <path clip-path="url(#p1cedb892c1)" d="M 149.498468 59.372203 
L 228.973583 59.372203 
" style="fill:none;stroke:#000000;stroke-linecap:square;stroke-opacity:0.1;stroke-width:0.5;"/>
     </g>
     <g id="line2d_20">
      <g>
       <use style="stroke:#000000;stroke-width:0.5;" x="149.498468" xlink:href="#m234c91ab96" y="59.372203"/>
      </g>
     </g>
     <g id="text_11">
      <!-- $\mathregular{1.5}$ -->
      <g transform="translate(134.798468 62.241578)scale(0.08 -0.08)">
       <use transform="translate(0 0.375)" xlink:href="#Helvetica-49"/>
       <use transform="translate(55.615234 0.375)" xlink:href="#Helvetica-46"/>
       <use transform="translate(83.398438 0.375)" xlink:href="#Helvetica-53"/>
      </g>
     </g>
    </g>
    <g id="ytick_5">
     <g id="line2d_21">
      <path clip-path="url(#p1cedb892c1)" d="M 149.498468 19.634646 
L 228.973583 19.634646 
" style="fill:none;stroke:#000000;stroke-linecap:square;stroke-opacity:0.1;stroke-width:0.5;"/>
     </g>
     <g id="line2d_22">
      <g>
       <use style="stroke:#000000;stroke-width:0.5;" x="149.498468" xlink:href="#m234c91ab96" y="19.634646"/>
      </g>
     </g>
     <g id="text_12">
      <!-- $\mathregular{2.0}$ -->
      <g transform="translate(134.798468 22.504021)scale(0.08 -0.08)">
       <use transform="translate(0 0.828125)" xlink:href="#Helvetica-50"/>
       <use transform="translate(55.615234 0.828125)" xlink:href="#Helvetica-46"/>
       <use transform="translate(83.398438 0.828125)" xlink:href="#Helvetica-48"/>
      </g>
     </g>
    </g>
    <g id="text_13">
     <!-- $y$ -->
     <g transform="translate(128.488468 102.409761)rotate(-90)scale(0.11 -0.11)">
      <defs>
       <path d="M 24.8125 -5.078125 
Q 18.5625 -15.578125 14.625 -18.1875 
Q 10.6875 -20.796875 4.59375 -20.796875 
L -2.484375 -20.796875 
L -0.984375 -13.28125 
L 4.203125 -13.28125 
Q 7.953125 -13.28125 10.59375 -11.234375 
Q 13.234375 -9.1875 16.5 -3.21875 
L 19.28125 2 
L 7.171875 54.6875 
L 16.703125 54.6875 
L 25.78125 12.796875 
L 50.875 54.6875 
L 60.296875 54.6875 
z
" id="DejaVuSans-Oblique-121"/>
      </defs>
      <use transform="translate(0 0.3125)" xlink:href="#DejaVuSans-Oblique-121"/>
     </g>
    </g>
   </g>
   <g id="LineCollection_1"/>
   <g id="LineCollection_2">
    <path clip-path="url(#p1cedb892c1)" d="M 175.32788 54.769814 
L 174.699507 54.073862 
L 173.814717 51.424692 
L 174.005162 48.775521 
L 174.80842 46.126351 
L 175.32788 45.085369 
L 176.269494 43.47718 
L 177.314758 42.172724 
L 178.646412 40.82801 
L 179.301636 40.329476 
L 181.288514 39.350645 
L 183.275392 39.005796 
L 185.26227 39.653186 
L 186.386142 40.82801 
L 187.026755 43.47718 
L 186.584351 46.126351 
L 185.558968 48.775521 
L 185.26227 49.305246 
L 183.819046 51.424692 
L 183.275392 52.080946 
L 181.288514 53.958379 
L 181.100317 54.073862 
L 179.301636 55.021969 
L 177.314758 55.415726 
L 175.32788 54.769814 
" style="fill:none;stroke:#8e0a0a;"/>
   </g>
   <g id="LineCollection_3">
    <path clip-path="url(#p1cedb892c1)" d="M 171.354125 59.706464 
L 171.101789 59.372203 
L 169.935278 56.723033 
L 169.561095 54.073862 
L 169.732838 51.424692 
L 170.302797 48.775521 
L 171.183682 46.126351 
L 171.354125 45.759411 
L 172.506733 43.47718 
L 173.341003 42.146235 
L 174.257486 40.82801 
L 175.32788 39.575351 
L 176.693559 38.178839 
L 177.314758 37.661402 
L 179.301636 36.333621 
L 180.908802 35.529669 
L 181.288514 35.378968 
L 183.275392 34.953196 
L 185.26227 34.916433 
L 187.249148 35.347304 
L 187.633918 35.529669 
L 189.236026 36.855762 
L 190.182617 38.178839 
L 190.919055 40.82801 
L 190.879491 43.47718 
L 190.339338 46.126351 
L 189.44732 48.775521 
L 189.236026 49.24515 
L 188.128723 51.424692 
L 187.249148 52.885737 
L 186.426539 54.073862 
L 185.26227 55.562285 
L 184.195953 56.723033 
L 183.275392 57.63899 
L 181.288514 59.273128 
L 181.127824 59.372203 
L 179.301636 60.423817 
L 177.314758 61.186438 
L 175.32788 61.475033 
L 173.341003 61.101371 
L 171.354125 59.706464 
" style="fill:none;stroke:#931b1a;"/>
   </g>
   <g id="LineCollection_4">
    <path clip-path="url(#p1cedb892c1)" d="M 171.354125 65.707414 
L 169.608628 64.670544 
L 169.367247 64.477184 
L 167.672775 62.021374 
L 167.380369 61.306151 
L 166.84058 59.372203 
L 166.533132 56.723033 
L 166.590604 54.073862 
L 166.951558 51.424692 
L 167.380369 49.643841 
L 167.604059 48.775521 
L 168.568532 46.126351 
L 169.367247 44.376861 
L 169.805566 43.47718 
L 171.354125 40.847526 
L 171.36656 40.82801 
L 173.341003 38.242057 
L 173.394458 38.178839 
L 175.32788 36.271492 
L 176.190744 35.529669 
L 177.314758 34.729022 
L 179.301636 33.58202 
L 180.905815 32.880498 
L 181.288514 32.745499 
L 183.275392 32.316747 
L 185.26227 32.165979 
L 187.249148 32.322388 
L 189.236026 32.832293 
L 189.346068 32.880498 
L 191.222904 34.190258 
L 192.457247 35.529669 
L 193.209781 37.151701 
L 193.573063 38.178839 
L 193.866607 40.82801 
L 193.69208 43.47718 
L 193.209781 45.947174 
L 193.171649 46.126351 
L 192.304483 48.775521 
L 191.222904 51.385344 
L 191.204862 51.424692 
L 189.764936 54.073862 
L 189.236026 54.936683 
L 188.01133 56.723033 
L 187.249148 57.738873 
L 185.859082 59.372203 
L 185.26227 60.027311 
L 183.275392 61.91716 
L 183.144138 62.021374 
L 181.288514 63.423791 
L 179.301636 64.650501 
L 179.256692 64.670544 
L 177.314758 65.507337 
L 175.32788 66.027616 
L 173.341003 66.138116 
L 171.354125 65.707414 
" style="fill:none;stroke:#982c2a;"/>
   </g>
   <g id="LineCollection_5">
    <path clip-path="url(#p1cedb892c1)" d="M 171.354125 70.236458 
L 170.344394 69.968885 
L 169.367247 69.661159 
L 167.380369 68.285082 
L 166.566295 67.319715 
L 165.393491 65.389145 
L 165.09481 64.670544 
L 164.368114 62.021374 
L 164.015969 59.372203 
L 163.974456 56.723033 
L 164.199886 54.073862 
L 164.663751 51.424692 
L 165.349829 48.775521 
L 165.393491 48.651698 
L 166.329169 46.126351 
L 167.380369 43.790234 
L 167.528757 43.47718 
L 169.036645 40.82801 
L 169.367247 40.329935 
L 170.886915 38.178839 
L 171.354125 37.606914 
L 173.204744 35.529669 
L 173.341003 35.398132 
L 175.32788 33.715733 
L 176.476807 32.880498 
L 177.314758 32.372266 
L 179.301636 31.408699 
L 181.288514 30.682108 
L 183.131853 30.231328 
L 183.275392 30.203155 
L 185.26227 30.024974 
L 187.249148 30.062673 
L 188.503492 30.231328 
L 189.236026 30.371001 
L 191.222904 31.117409 
L 193.209781 32.336147 
L 193.845297 32.880498 
L 195.196659 34.884864 
L 195.533685 35.529669 
L 196.197368 38.178839 
L 196.329661 40.82801 
L 196.089931 43.47718 
L 195.567328 46.126351 
L 195.196659 47.425507 
L 194.783319 48.775521 
L 193.764497 51.424692 
L 193.209781 52.649143 
L 192.507603 54.073862 
L 191.222904 56.380244 
L 191.012634 56.723033 
L 189.236026 59.362475 
L 189.228727 59.372203 
L 187.249148 61.830355 
L 187.075461 62.021374 
L 185.26227 63.911505 
L 184.428203 64.670544 
L 183.275392 65.678866 
L 181.288514 67.168088 
L 181.04246 67.319715 
L 179.301636 68.365636 
L 177.314758 69.304096 
L 175.328693 69.968885 
L 175.32788 69.969154 
L 173.341003 70.292489 
L 171.354125 70.236458 
" style="fill:none;stroke:#9d3d3a;"/>
   </g>
   <g id="LineCollection_6">
    <path clip-path="url(#p1cedb892c1)" d="M 167.380369 73.201144 
L 166.545799 72.618056 
L 165.393491 71.635523 
L 164.181283 69.968885 
L 163.406613 68.52639 
L 162.945813 67.319715 
L 162.249277 64.670544 
L 161.858043 62.021374 
L 161.726302 59.372203 
L 161.823392 56.723033 
L 162.130305 54.073862 
L 162.637682 51.424692 
L 163.344901 48.775521 
L 163.406613 48.599569 
L 164.312979 46.126351 
L 165.393491 43.686977 
L 165.49049 43.47718 
L 166.9457 40.82801 
L 167.380369 40.142881 
L 168.688619 38.178839 
L 169.367247 37.286925 
L 170.800378 35.529669 
L 171.354125 34.936318 
L 173.341003 33.016606 
L 173.500675 32.880498 
L 175.32788 31.558424 
L 177.314758 30.358199 
L 177.574195 30.231328 
L 179.301636 29.536624 
L 181.288514 28.944563 
L 183.275392 28.547099 
L 185.26227 28.339618 
L 187.249148 28.327026 
L 189.236026 28.524632 
L 191.222904 28.96031 
L 193.209781 29.678422 
L 194.279192 30.231328 
L 195.196659 30.971118 
L 196.922729 32.880498 
L 197.183537 33.403118 
L 198.051624 35.529669 
L 198.509915 38.178839 
L 198.545368 40.82801 
L 198.275046 43.47718 
L 197.764013 46.126351 
L 197.183537 48.277257 
L 197.041165 48.775521 
L 196.101674 51.424692 
L 195.196659 53.586268 
L 194.977315 54.073862 
L 193.633273 56.723033 
L 193.209781 57.478796 
L 192.056962 59.372203 
L 191.222904 60.637 
L 190.220466 62.021374 
L 189.236026 63.29947 
L 188.064065 64.670544 
L 187.249148 65.579993 
L 185.499743 67.319715 
L 185.26227 67.547749 
L 183.275392 69.23212 
L 182.269977 69.968885 
L 181.288514 70.673226 
L 179.301636 71.875552 
L 177.791258 72.618056 
L 177.314758 72.850384 
L 175.32788 73.571623 
L 173.341003 74.030721 
L 171.354125 74.182286 
L 169.367247 73.948479 
L 167.380369 73.201144 
" style="fill:none;stroke:#a24e4a;"/>
   </g>
   <g id="LineCollection_7">
    <path clip-path="url(#p1cedb892c1)" d="M 165.393491 76.490911 
L 163.982506 75.267227 
L 163.406613 74.660292 
L 162.13378 72.618056 
L 161.419735 71.086985 
L 161.038477 69.968885 
L 160.38126 67.319715 
L 159.969542 64.670544 
L 159.769348 62.021374 
L 159.758745 59.372203 
L 159.92532 56.723033 
L 160.264829 54.073862 
L 160.780719 51.424692 
L 161.419735 49.020842 
L 161.488264 48.775521 
L 162.433262 46.126351 
L 163.406613 43.882923 
L 163.58922 43.47718 
L 164.995984 40.82801 
L 165.393491 40.178964 
L 166.664962 38.178839 
L 167.380369 37.18583 
L 168.640395 35.529669 
L 169.367247 34.683307 
L 171.05327 32.880498 
L 171.354125 32.597837 
L 173.341003 30.946702 
L 174.342028 30.231328 
L 175.32788 29.634267 
L 177.314758 28.651289 
L 179.301636 27.880333 
L 180.316214 27.582157 
L 181.288514 27.35022 
L 183.275392 27.028724 
L 185.26227 26.85221 
L 187.249148 26.815409 
L 189.236026 26.92141 
L 191.222904 27.182193 
L 193.044651 27.582157 
L 193.209781 27.633794 
L 195.196659 28.525929 
L 197.183537 29.815533 
L 197.678726 30.231328 
L 199.170415 32.322765 
L 199.492769 32.880498 
L 200.32305 35.529669 
L 200.642664 38.178839 
L 200.61746 40.82801 
L 200.335443 43.47718 
L 199.844856 46.126351 
L 199.171204 48.775521 
L 199.170415 48.77806 
L 198.307994 51.424692 
L 197.283386 54.073862 
L 197.183537 54.303587 
L 196.065514 56.723033 
L 195.196659 58.407172 
L 194.661431 59.372203 
L 193.209781 61.773241 
L 193.046824 62.021374 
L 191.222904 64.617524 
L 191.182034 64.670544 
L 189.236026 67.066727 
L 189.008309 67.319715 
L 187.249148 69.198335 
L 186.440897 69.968885 
L 185.26227 71.060699 
L 183.357151 72.618056 
L 183.275392 72.683617 
L 181.288514 74.08341 
L 179.320189 75.267227 
L 179.301636 75.278311 
L 177.314758 76.263343 
L 175.32788 77.038778 
L 173.341003 77.590824 
L 171.354125 77.888343 
L 169.367247 77.875814 
L 167.380369 77.460766 
L 165.393491 76.490911 
" style="fill:none;stroke:#a8615b;"/>
   </g>
   <g id="LineCollection_8">
    <path clip-path="url(#p1cedb892c1)" d="M 165.393491 80.83836 
L 164.897829 80.565568 
L 163.406613 79.628909 
L 161.796334 77.916397 
L 161.419735 77.428385 
L 160.28084 75.267227 
L 159.432857 73.118539 
L 159.28556 72.618056 
L 158.682733 69.968885 
L 158.274291 67.319715 
L 158.03385 64.670544 
L 157.944883 62.021374 
L 157.998798 59.372203 
L 158.194023 56.723033 
L 158.535904 54.073862 
L 159.037367 51.424692 
L 159.432857 49.88245 
L 159.731246 48.775521 
L 160.635772 46.126351 
L 161.419735 44.264361 
L 161.762245 43.47718 
L 163.125327 40.82801 
L 163.406613 40.355351 
L 164.737713 38.178839 
L 165.393491 37.230214 
L 166.618135 35.529669 
L 167.380369 34.581945 
L 168.846084 32.880498 
L 169.367247 32.339976 
L 171.354125 30.493263 
L 171.672928 30.231328 
L 173.341003 29.049382 
L 175.32788 27.896119 
L 175.98446 27.582157 
L 177.314758 27.054741 
L 179.301636 26.449089 
L 181.288514 26.005847 
L 183.275392 25.702584 
L 185.26227 25.52639 
L 187.249148 25.472217 
L 189.236026 25.542312 
L 191.222904 25.746648 
L 193.209781 26.104463 
L 195.196659 26.64734 
L 197.183537 27.424749 
L 197.49767 27.582157 
L 199.170415 28.884303 
L 200.469953 30.231328 
L 201.157293 31.465983 
L 201.820365 32.880498 
L 202.454345 35.529669 
L 202.675994 38.178839 
L 202.612295 40.82801 
L 202.330008 43.47718 
L 201.864968 46.126351 
L 201.235098 48.775521 
L 201.157293 49.044888 
L 200.445527 51.424692 
L 199.505317 54.073862 
L 199.170415 54.907215 
L 198.402929 56.723033 
L 197.183537 59.283296 
L 197.138479 59.372203 
L 195.685417 62.021374 
L 195.196659 62.843066 
L 194.027017 64.670544 
L 193.209781 65.866697 
L 192.131181 67.319715 
L 191.222904 68.482369 
L 189.949192 69.968885 
L 189.236026 70.769318 
L 187.412109 72.618056 
L 187.249148 72.778562 
L 185.26227 74.551092 
L 184.35673 75.267227 
L 183.275392 76.10977 
L 181.288514 77.469245 
L 180.534349 77.916397 
L 179.301636 78.645499 
L 177.314758 79.637724 
L 175.32788 80.445464 
L 174.934425 80.565568 
L 173.341003 81.059179 
L 171.354125 81.454727 
L 169.367247 81.596809 
L 167.380369 81.424879 
L 165.393491 80.83836 
" style="fill:none;stroke:#ad726b;"/>
   </g>
   <g id="LineCollection_9">
    <path clip-path="url(#p1cedb892c1)" d="M 163.406613 84.163449 
L 162.065239 83.214738 
L 161.419735 82.68881 
L 159.791281 80.565568 
L 159.432857 79.989247 
L 158.529171 77.916397 
L 157.656022 75.267227 
L 157.445979 74.437406 
L 157.088726 72.618056 
L 156.707396 69.968885 
L 156.455931 67.319715 
L 156.321094 64.670544 
L 156.296162 62.021374 
L 156.380256 59.372203 
L 156.578409 56.723033 
L 156.902393 54.073862 
L 157.372523 51.424692 
L 157.445979 51.114768 
L 158.030605 48.775521 
L 158.88265 46.126351 
L 159.432857 44.758556 
L 159.964854 43.47718 
L 161.286632 40.82801 
L 161.419735 40.598631 
L 162.849943 38.178839 
L 163.406613 37.349085 
L 164.661511 35.529669 
L 165.393491 34.573195 
L 166.758424 32.880498 
L 167.380369 32.180613 
L 169.288139 30.231328 
L 169.367247 30.158741 
L 171.354125 28.548979 
L 172.79304 27.582157 
L 173.341003 27.267016 
L 175.32788 26.331363 
L 177.314758 25.613613 
L 179.301636 25.067254 
L 179.947032 24.932987 
L 181.288514 24.70764 
L 183.275392 24.479323 
L 185.26227 24.345383 
L 187.249148 24.297094 
L 189.236026 24.331915 
L 191.222904 24.453054 
L 193.209781 24.669965 
L 194.812549 24.932987 
L 195.196659 25.02153 
L 197.183537 25.651434 
L 199.170415 26.542656 
L 200.850235 27.582157 
L 201.157293 27.886963 
L 203.004709 30.231328 
L 203.144171 30.55057 
L 204.030872 32.880498 
L 204.515935 35.529669 
L 204.66623 38.178839 
L 204.578885 40.82801 
L 204.304296 43.47718 
L 203.86871 46.126351 
L 203.284162 48.775521 
L 203.144171 49.299274 
L 202.563508 51.424692 
L 201.70535 54.073862 
L 201.157293 55.549955 
L 200.704352 56.723033 
L 199.558159 59.372203 
L 199.170415 60.187815 
L 198.251295 62.021374 
L 197.183537 63.963393 
L 196.769062 64.670544 
L 195.196659 67.162642 
L 195.08994 67.319715 
L 193.209781 69.930201 
L 193.179491 69.968885 
L 191.222904 72.356735 
L 190.987937 72.618056 
L 189.236026 74.500619 
L 188.445828 75.267227 
L 187.249148 76.39986 
L 185.457275 77.916397 
L 185.26227 78.078819 
L 183.275392 79.575653 
L 181.778862 80.565568 
L 181.288514 80.888849 
L 179.301636 82.041879 
L 177.314758 83.026421 
L 176.859193 83.214738 
L 175.32788 83.856435 
L 173.341003 84.515344 
L 171.354125 84.989064 
L 169.367247 85.252817 
L 167.380369 85.262012 
L 165.393491 84.941254 
L 163.406613 84.163449 
" style="fill:none;stroke:#b2837b;"/>
   </g>
   <g id="LineCollection_10">
    <path clip-path="url(#p1cedb892c1)" d="M 163.406613 88.519188 
L 163.392699 88.513079 
L 161.419735 87.553785 
L 159.525878 85.863909 
L 159.432857 85.766589 
L 157.854354 83.214738 
L 157.445979 82.378931 
L 156.814307 80.565568 
L 156.097054 77.916397 
L 155.563258 75.267227 
L 155.459102 74.593142 
L 155.214762 72.618056 
L 154.978983 69.968885 
L 154.829411 67.319715 
L 154.760241 64.670544 
L 154.770259 62.021374 
L 154.862894 59.372203 
L 155.046964 56.723033 
L 155.338315 54.073862 
L 155.459102 53.296751 
L 155.769931 51.424692 
L 156.359147 48.775521 
L 157.143247 46.126351 
L 157.445979 45.317771 
L 158.158309 43.47718 
L 159.432857 40.832436 
L 159.435036 40.82801 
L 160.949415 38.178839 
L 161.419735 37.463836 
L 162.710192 35.529669 
L 163.406613 34.588368 
L 164.715047 32.880498 
L 165.393491 32.06624 
L 167.044555 30.231328 
L 167.380369 29.888402 
L 169.367247 28.094186 
L 170.02881 27.582157 
L 171.354125 26.684966 
L 173.341003 25.622326 
L 174.996319 24.932987 
L 175.32788 24.81846 
L 177.314758 24.272765 
L 179.301636 23.87587 
L 181.288514 23.591855 
L 183.275392 23.398325 
L 185.26227 23.281702 
L 187.249148 23.234697 
L 189.236026 23.255056 
L 191.222904 23.345187 
L 193.209781 23.51254 
L 195.196659 23.770868 
L 197.183537 24.142754 
L 199.170415 24.66434 
L 199.958224 24.932987 
L 201.157293 25.558287 
L 203.144171 26.976052 
L 203.799442 27.582157 
L 205.131049 29.710133 
L 205.404281 30.231328 
L 206.194937 32.880498 
L 206.562866 35.529669 
L 206.660437 38.178839 
L 206.560607 40.82801 
L 206.300547 43.47718 
L 205.898775 46.126351 
L 205.362596 48.775521 
L 205.131049 49.717023 
L 204.707949 51.424692 
L 203.932507 54.073862 
L 203.144171 56.376989 
L 203.022507 56.723033 
L 201.993133 59.372203 
L 201.157293 61.274488 
L 200.814944 62.021374 
L 199.487997 64.670544 
L 199.170415 65.257412 
L 197.990554 67.319715 
L 197.183537 68.625944 
L 196.296885 69.968885 
L 195.196659 71.536105 
L 194.376801 72.618056 
L 193.209781 74.08551 
L 192.185654 75.267227 
L 191.222904 76.337681 
L 189.661106 77.916397 
L 189.236026 78.334542 
L 187.249148 80.118577 
L 186.698525 80.565568 
L 185.26227 81.716513 
L 183.275392 83.1289 
L 183.141461 83.214738 
L 181.288514 84.401944 
L 179.301636 85.513166 
L 178.583625 85.863909 
L 177.314758 86.49121 
L 175.32788 87.32764 
L 173.341003 88.01497 
L 171.481409 88.513079 
L 171.354125 88.548263 
L 169.367247 88.914407 
L 167.380369 89.072374 
L 165.393491 88.9703 
L 163.406613 88.519188 
" style="fill:none;stroke:#b7948b;"/>
   </g>
   <g id="LineCollection_11">
    <path clip-path="url(#p1cedb892c1)" d="M 159.432857 91.165458 
L 159.429347 91.16225 
L 157.445979 89.009511 
L 157.15915 88.513079 
L 155.911355 85.863909 
L 155.459102 84.623991 
L 155.089077 83.214738 
L 154.533345 80.565568 
L 154.112322 77.916397 
L 153.796701 75.267227 
L 153.567057 72.618056 
L 153.472224 71.042994 
L 153.417841 69.968885 
L 153.335859 67.319715 
L 153.307425 64.670544 
L 153.334161 62.021374 
L 153.42149 59.372203 
L 153.472224 58.506535 
L 153.585555 56.723033 
L 153.83809 54.073862 
L 154.196558 51.424692 
L 154.69468 48.775521 
L 155.387193 46.126351 
L 155.459102 45.910136 
L 156.299787 43.47718 
L 157.445979 40.963532 
L 157.509015 40.82801 
L 158.971586 38.178839 
L 159.432857 37.470643 
L 160.69653 35.529669 
L 161.419735 34.536322 
L 162.643552 32.880498 
L 163.406613 31.922581 
L 164.829165 30.231328 
L 165.393491 29.599697 
L 167.380369 27.634107 
L 167.439447 27.582157 
L 169.367247 26.05888 
L 171.253012 24.932987 
L 171.354125 24.880879 
L 173.341003 24.048414 
L 175.32788 23.454267 
L 177.314758 23.021666 
L 179.301636 22.704984 
L 181.288514 22.47607 
L 183.275392 22.317327 
L 183.938712 22.283816 
L 185.26227 22.230298 
L 187.249148 22.194259 
L 189.236026 22.199947 
L 191.222904 22.247266 
L 192.028033 22.283816 
L 193.209781 22.355116 
L 195.196659 22.541813 
L 197.183537 22.814313 
L 199.170415 23.199743 
L 201.157293 23.742159 
L 203.144171 24.515803 
L 203.958542 24.932987 
L 205.131049 25.919645 
L 206.592281 27.582157 
L 207.117927 28.66343 
L 207.77771 30.231328 
L 208.375149 32.880498 
L 208.648099 35.529669 
L 208.707177 38.178839 
L 208.604703 40.82801 
L 208.366639 43.47718 
L 208.005019 46.126351 
L 207.523252 48.775521 
L 207.117927 50.580635 
L 206.930193 51.424692 
L 206.242467 54.073862 
L 205.427525 56.723033 
L 205.131049 57.583147 
L 204.505246 59.372203 
L 203.452424 62.021374 
L 203.144171 62.729806 
L 202.2723 64.670544 
L 201.157293 66.894055 
L 200.933941 67.319715 
L 199.436158 69.968885 
L 199.170415 70.407027 
L 197.747784 72.618056 
L 197.183537 73.438127 
L 195.833685 75.267227 
L 195.196659 76.08561 
L 193.652259 77.916397 
L 193.209781 78.419606 
L 191.222904 80.489743 
L 191.144036 80.565568 
L 189.236026 82.355773 
L 188.217538 83.214738 
L 187.249148 84.018683 
L 185.26227 85.50617 
L 184.73579 85.863909 
L 183.275392 86.853742 
L 181.288514 88.050739 
L 180.42966 88.513079 
L 179.301636 89.126356 
L 177.314758 90.0802 
L 175.32788 90.904629 
L 174.598262 91.16225 
L 173.341003 91.618965 
L 171.354125 92.207524 
L 169.367247 92.652936 
L 167.380369 92.935934 
L 165.393491 93.020676 
L 163.406613 92.844209 
L 161.419735 92.29501 
L 159.432857 91.165458 
" style="fill:none;stroke:#bca59b;"/>
   </g>
   <g id="LineCollection_12">
    <path clip-path="url(#p1cedb892c1)" d="M 159.432857 96.506543 
L 159.346927 96.460591 
L 157.445979 95.28999 
L 156.175836 93.81142 
L 155.459102 92.762998 
L 154.767756 91.16225 
L 153.905881 88.513079 
L 153.472224 86.744095 
L 153.316331 85.863909 
L 152.930668 83.214738 
L 152.63561 80.565568 
L 152.409944 77.916397 
L 152.239721 75.267227 
L 152.115768 72.618056 
L 152.032286 69.968885 
L 151.986089 67.319715 
L 151.976253 64.670544 
L 152.00412 62.021374 
L 152.073653 59.372203 
L 152.192279 56.723033 
L 152.372538 54.073862 
L 152.635215 51.424692 
L 153.015551 48.775521 
L 153.472224 46.56978 
L 153.569771 46.126351 
L 154.328595 43.47718 
L 155.427997 40.82801 
L 155.459102 40.768455 
L 156.808409 38.178839 
L 157.445979 37.200314 
L 158.515748 35.529669 
L 159.432857 34.278034 
L 160.447219 32.880498 
L 161.419735 31.635335 
L 162.545599 30.231328 
L 163.406613 29.195512 
L 164.885952 27.582157 
L 165.393491 27.044791 
L 167.380369 25.306432 
L 167.907301 24.932987 
L 169.367247 24.009432 
L 171.354125 23.132442 
L 173.341003 22.525572 
L 174.389712 22.283816 
L 175.32788 22.108172 
L 177.314758 21.83291 
L 179.301636 21.641365 
L 181.288514 21.508376 
L 183.275392 21.4192 
L 185.26227 21.36508 
L 187.249148 21.341054 
L 189.236026 21.344847 
L 191.222904 21.376392 
L 193.209781 21.437785 
L 195.196659 21.533635 
L 197.183537 21.67195 
L 199.170415 21.865881 
L 201.157293 22.137106 
L 201.981455 22.283816 
L 203.144171 22.600622 
L 205.131049 23.35604 
L 207.117927 24.531048 
L 207.622629 24.932987 
L 209.104805 27.085139 
L 209.375812 27.582157 
L 210.213637 30.231328 
L 210.641427 32.880498 
L 210.835518 35.529669 
L 210.868489 38.178839 
L 210.77401 40.82801 
L 210.568057 43.47718 
L 210.257029 46.126351 
L 209.841084 48.775521 
L 209.31542 51.424692 
L 209.104805 52.32903 
L 208.709362 54.073862 
L 208.007195 56.723033 
L 207.175342 59.372203 
L 207.117927 59.539726 
L 206.267699 62.021374 
L 205.210833 64.670544 
L 205.131049 64.856343 
L 204.052201 67.319715 
L 203.144171 69.157664 
L 202.728962 69.968885 
L 201.241943 72.618056 
L 201.157293 72.75954 
L 199.577889 75.267227 
L 199.170415 75.867203 
L 197.686754 77.916397 
L 197.183537 78.570667 
L 195.528532 80.565568 
L 195.196659 80.946994 
L 193.209781 83.05531 
L 193.047292 83.214738 
L 191.222904 84.954127 
L 190.164574 85.863909 
L 189.236026 86.646679 
L 187.249148 88.165127 
L 186.752282 88.513079 
L 185.26227 89.550948 
L 183.275392 90.788102 
L 182.61542 91.16225 
L 181.288514 91.920145 
L 179.301636 92.937966 
L 177.376961 93.81142 
L 177.314758 93.840227 
L 175.32788 94.670492 
L 173.341003 95.392487 
L 171.354125 96.00959 
L 169.593671 96.460591 
L 169.367247 96.521472 
L 167.380369 96.926329 
L 165.393491 97.184622 
L 163.406613 97.25787 
L 161.419735 97.075945 
L 159.432857 96.506543 
" style="fill:none;stroke:#c2b6ab;"/>
   </g>
   <g id="LineCollection_13">
    <path clip-path="url(#p1cedb892c1)" d="M 159.432857 102.015445 
L 158.012317 101.758932 
L 157.445979 101.64428 
L 155.459102 100.627863 
L 154.157459 99.109761 
L 153.472224 98.00528 
L 152.919244 96.460591 
L 152.245848 93.81142 
L 151.786863 91.16225 
L 151.485346 88.753831 
L 151.46361 88.513079 
L 151.260893 85.863909 
L 151.105376 83.214738 
L 150.985101 80.565568 
L 150.892298 77.916397 
L 150.82186 75.267227 
L 150.770483 72.618056 
L 150.736201 69.968885 
L 150.718147 67.319715 
L 150.716498 64.670544 
L 150.732587 62.021374 
L 150.769242 59.372203 
L 150.831482 56.723033 
L 150.927895 54.073862 
L 151.073475 51.424692 
L 151.295906 48.775521 
L 151.485346 47.245628 
L 151.63504 46.126351 
L 152.137961 43.47718 
L 152.96615 40.82801 
L 153.472224 39.762711 
L 154.22046 38.178839 
L 155.459102 36.301041 
L 155.948406 35.529669 
L 157.445979 33.565706 
L 157.946335 32.880498 
L 159.432857 31.011141 
L 160.045349 30.231328 
L 161.419735 28.506112 
L 162.201338 27.582157 
L 163.406613 26.119774 
L 164.597543 24.932987 
L 165.393491 24.126149 
L 167.380369 22.758671 
L 168.411238 22.283816 
L 169.367247 21.898771 
L 171.354125 21.383691 
L 173.341003 21.073437 
L 175.32788 20.871409 
L 177.314758 20.733778 
L 179.301636 20.638005 
L 181.288514 20.571511 
L 183.275392 20.526923 
L 185.26227 20.499863 
L 187.249148 20.48785 
L 189.236026 20.489746 
L 191.222904 20.505519 
L 193.209781 20.536215 
L 195.196659 20.58414 
L 197.183537 20.653298 
L 199.170415 20.750264 
L 201.157293 20.885876 
L 203.144171 21.078664 
L 205.131049 21.362394 
L 207.117927 21.804782 
L 208.505842 22.283816 
L 209.104805 22.651722 
L 211.091682 24.617155 
L 211.307156 24.932987 
L 212.317952 27.582157 
L 212.820773 30.231328 
L 213.07856 32.740596 
L 213.093631 32.880498 
L 213.238744 35.529669 
L 213.262569 38.178839 
L 213.180784 40.82801 
L 213.07856 42.341631 
L 213.009787 43.47718 
L 212.767809 46.126351 
L 212.439198 48.775521 
L 212.018007 51.424692 
L 211.49448 54.073862 
L 211.091682 55.79096 
L 210.884179 56.723033 
L 210.211838 59.372203 
L 209.408995 62.021374 
L 209.104805 62.91887 
L 208.52316 64.670544 
L 207.511373 67.319715 
L 207.117927 68.246688 
L 206.384033 69.968885 
L 205.131049 72.534103 
L 205.089077 72.618056 
L 203.666944 75.267227 
L 203.144171 76.145395 
L 202.044224 77.916397 
L 201.157293 79.225739 
L 200.195958 80.565568 
L 199.170415 81.898333 
L 198.082461 83.214738 
L 197.183537 84.243561 
L 195.64287 85.863909 
L 195.196659 86.313353 
L 193.209781 88.164261 
L 192.803773 88.513079 
L 191.222904 89.838671 
L 189.45371 91.16225 
L 189.236026 91.322662 
L 187.249148 92.69689 
L 185.432409 93.81142 
L 185.26227 93.915734 
L 183.275392 95.059686 
L 181.288514 96.0797 
L 180.480707 96.460591 
L 179.301636 97.026563 
L 177.314758 97.896039 
L 175.32788 98.677458 
L 174.112557 99.109761 
L 173.341003 99.394701 
L 171.354125 100.054931 
L 169.367247 100.636487 
L 167.380369 101.138072 
L 165.393491 101.552289 
L 164.047734 101.758932 
L 163.406613 101.86664 
L 161.419735 102.045673 
L 159.432857 102.015445 
" style="fill:none;stroke:#c7c7bb;"/>
   </g>
   <g id="LineCollection_14">
    <path clip-path="url(#p1cedb892c1)" d="M 149.498468 157.391513 
L 149.498468 160.040683 
L 149.498468 162.689854 
L 149.498468 165.339024 
L 149.498468 167.988195 
L 149.498468 170.637365 
L 149.498468 173.286536 
L 149.498468 175.935706 
L 151.485346 178.584877 
L 153.472224 178.584877 
L 155.459102 178.584877 
L 157.445979 178.584877 
L 159.432857 178.584877 
L 161.419735 178.584877 
L 163.406613 178.584877 
L 165.393491 178.584877 
L 167.380369 178.584877 
L 169.367247 178.584877 
L 171.354125 178.584877 
L 173.341003 178.584877 
L 175.32788 178.584877 
L 177.314758 178.584877 
L 179.301636 178.584877 
L 181.288514 178.584877 
L 183.275392 178.584877 
L 185.26227 178.584877 
L 187.249148 178.584877 
L 189.236026 178.584877 
L 191.222904 178.584877 
L 193.209781 178.584877 
L 195.196659 178.584877 
L 197.183537 178.584877 
L 199.170415 178.584877 
L 201.157293 178.584877 
L 203.144171 178.584877 
L 205.131049 178.584877 
L 207.117927 178.584877 
L 209.104805 178.584877 
L 211.091682 178.584877 
L 213.07856 178.584877 
L 215.065438 178.584877 
L 217.052316 178.584877 
L 219.039194 178.584877 
L 221.026072 178.584877 
L 223.01295 178.584877 
L 224.999828 178.584877 
L 226.986706 178.584877 
L 228.973583 175.935706 
L 228.973583 173.286536 
L 228.973583 170.637365 
L 228.973583 167.988195 
L 228.973583 165.339024 
L 228.973583 162.689854 
L 228.973583 160.040683 
L 228.973583 157.391513 
L 228.973583 154.742342 
L 228.973583 152.093172 
L 228.973583 149.444001 
L 228.973583 146.79483 
L 228.973583 144.14566 
L 228.973583 141.496489 
" style="fill:none;stroke:#cbd8cc;"/>
    <path clip-path="url(#p1cedb892c1)" d="M 149.498468 148.119416 
L 149.498468 149.444001 
L 149.498468 152.093172 
" style="fill:none;stroke:#cbd8cc;"/>
    <path clip-path="url(#p1cedb892c1)" d="M 149.498468 141.496489 
L 149.498468 144.14566 
" style="fill:none;stroke:#cbd8cc;"/>
    <path clip-path="url(#p1cedb892c1)" d="M 228.973583 136.198148 
L 228.973583 133.548978 
L 228.973583 130.899807 
L 228.973583 128.250637 
L 228.973583 125.601466 
L 228.973583 122.952296 
L 228.973583 120.303125 
L 228.973583 117.653955 
L 228.973583 115.004784 
L 228.973583 112.355614 
L 228.973583 109.706443 
L 228.973583 107.057273 
L 228.973583 104.408102 
L 228.973583 101.758932 
L 228.973583 99.109761 
" style="fill:none;stroke:#cbd8cc;"/>
    <path clip-path="url(#p1cedb892c1)" d="M 228.973583 91.16225 
L 228.973583 88.513079 
" style="fill:none;stroke:#cbd8cc;"/>
    <path clip-path="url(#p1cedb892c1)" d="M 228.973583 83.214738 
L 228.973583 80.565568 
" style="fill:none;stroke:#cbd8cc;"/>
    <path clip-path="url(#p1cedb892c1)" d="M 228.973583 75.267227 
L 228.973583 72.618056 
L 228.973583 69.968885 
L 228.973583 67.319715 
L 228.973583 64.670544 
L 228.973583 62.021374 
L 228.973583 59.372203 
L 228.973583 56.723033 
L 228.973583 54.073862 
L 228.973583 51.424692 
L 228.973583 48.775521 
" style="fill:none;stroke:#cbd8cc;"/>
    <path clip-path="url(#p1cedb892c1)" d="M 228.973583 43.47718 
L 228.973583 40.82801 
L 228.973583 38.178839 
L 228.973583 35.529669 
" style="fill:none;stroke:#cbd8cc;"/>
    <path clip-path="url(#p1cedb892c1)" d="M 149.498468 35.529669 
L 151.485346 35.484113 
L 153.472224 33.725269 
L 154.221101 32.880498 
L 155.459102 31.75797 
L 156.833016 30.231328 
L 157.445979 29.557036 
L 159.062795 27.582157 
L 159.432857 27.037144 
L 160.958616 24.932987 
L 161.419735 23.950685 
L 162.597712 22.283816 
L 161.419735 19.634646 
" style="fill:none;stroke:#cbd8cc;"/>
    <path clip-path="url(#p1cedb892c1)" d="M 228.973583 27.582157 
" style="fill:none;stroke:#cbd8cc;"/>
    <path clip-path="url(#p1cedb892c1)" d="M 149.498468 26.257572 
L 149.498468 27.582157 
L 149.498468 30.231328 
" style="fill:none;stroke:#cbd8cc;"/>
    <path clip-path="url(#p1cedb892c1)" d="M 151.485346 19.634646 
" style="fill:none;stroke:#cbd8cc;"/>
    <path clip-path="url(#p1cedb892c1)" d="M 157.445979 19.634646 
L 155.459102 19.634646 
" style="fill:none;stroke:#cbd8cc;"/>
    <path clip-path="url(#p1cedb892c1)" d="M 215.065438 19.634646 
L 215.25378 22.283816 
L 215.492772 24.932987 
L 215.716139 27.582157 
L 215.907761 30.231328 
L 216.055539 32.880498 
L 216.151083 35.529669 
L 216.188647 38.178839 
L 216.163881 40.82801 
L 216.072669 43.47718 
L 215.910098 46.126351 
L 215.669473 48.775521 
L 215.341222 51.424692 
L 215.065438 53.180186 
L 214.944504 54.073862 
L 214.518338 56.723033 
L 213.989505 59.372203 
L 213.334365 62.021374 
L 213.07856 62.92477 
L 212.627875 64.670544 
L 211.820938 67.319715 
L 211.091682 69.319029 
L 210.866305 69.968885 
L 209.836197 72.618056 
L 209.104805 74.215631 
L 208.631705 75.267227 
L 207.258278 77.916397 
L 207.117927 78.162237 
L 205.73017 80.565568 
L 205.131049 81.482473 
L 203.959072 83.214738 
L 203.144171 84.304635 
L 201.91199 85.863909 
L 201.157293 86.745084 
L 199.526423 88.513079 
L 199.170415 88.875086 
L 197.183537 90.769937 
L 196.739335 91.16225 
L 195.196659 92.47238 
L 193.428052 93.81142 
L 193.209781 93.972136 
L 191.222904 95.364657 
L 189.456257 96.460591 
L 189.236026 96.595815 
L 187.249148 97.759523 
L 185.26227 98.797438 
L 184.625044 99.109761 
L 183.275392 99.778198 
L 181.288514 100.686309 
L 179.301636 101.514794 
L 178.681468 101.758932 
L 177.314758 102.313083 
L 175.32788 103.065221 
L 173.341003 103.764017 
L 171.385397 104.408102 
L 171.354125 104.418947 
L 169.367247 105.074079 
L 167.380369 105.691819 
L 165.393491 106.278159 
L 163.406613 106.838237 
L 162.566884 107.057273 
L 161.419735 107.393876 
L 159.432857 107.939058 
L 157.445979 108.464635 
L 155.459102 108.973812 
L 153.472224 109.469408 
L 152.204903 109.706443 
L 151.485346 109.964648 
L 149.498468 112.355614 
L 149.498468 115.004784 
L 149.498468 117.653955 
L 149.498468 120.303125 
L 149.498468 122.952296 
L 149.498468 125.601466 
L 149.498468 128.250637 
L 149.498468 130.899807 
L 149.498468 133.548978 
" style="fill:none;stroke:#cbd8cc;"/>
    <path clip-path="url(#p1cedb892c1)" d="M 226.986706 19.634646 
L 224.999828 19.634646 
L 223.01295 19.634646 
L 221.026072 19.634646 
L 219.039194 19.634646 
" style="fill:none;stroke:#cbd8cc;"/>
   </g>
   <g id="LineCollection_15">
    <path clip-path="url(#p1cedb892c1)" d="M 161.419735 171.159801 
L 163.406613 171.602402 
L 165.393491 171.876125 
L 169.367247 172.098672 
L 173.341003 172.033648 
L 177.314758 171.759541 
L 181.288514 171.30372 
L 185.416098 170.637365 
L 189.236026 169.804949 
L 193.209781 168.696972 
L 197.183537 167.249491 
L 199.170415 166.358482 
L 201.157293 165.338427 
L 203.144171 164.112971 
L 205.131049 162.688664 
L 208.013623 160.040683 
L 210.18577 157.391513 
L 211.869933 154.742342 
L 213.20159 152.093172 
L 214.276162 149.444001 
L 215.148714 146.79483 
L 215.868548 144.14566 
L 216.961169 138.847319 
L 217.726368 133.548978 
L 218.269787 128.250637 
L 218.815711 120.303125 
L 219.153688 112.355614 
L 219.385998 101.758932 
L 219.407849 93.81142 
L 219.291572 88.513079 
L 219.039194 84.388939 
L 218.750042 83.214738 
L 217.052316 81.060378 
L 214.856631 83.214738 
L 209.104805 89.643119 
L 207.117927 91.547965 
L 204.524043 93.81142 
L 201.157293 96.298182 
L 199.170415 97.634758 
L 195.196659 99.944039 
L 191.222904 101.905183 
L 187.249148 103.654607 
L 179.301636 106.621859 
L 169.367247 110.024616 
L 165.393491 111.547973 
L 163.406613 112.395778 
L 161.419735 113.42226 
L 158.931078 115.004784 
L 157.445979 116.315507 
L 156.279042 117.653955 
L 155.459102 118.890037 
L 154.741542 120.303125 
L 153.472224 124.161534 
L 153.17651 125.601466 
L 152.77537 128.250637 
L 152.288398 133.548978 
L 152.059528 138.847319 
L 152.0095 144.14566 
L 152.124121 149.444001 
L 152.440016 154.742342 
L 153.075194 160.040683 
L 153.628308 162.689854 
L 154.570002 165.339024 
L 155.459102 167.077238 
L 156.172631 167.988195 
L 157.445979 169.249538 
L 159.911704 170.637365 
L 161.419735 171.159801 
L 161.419735 171.159801 
" style="fill:none;stroke:#bbc7c7;"/>
    <path clip-path="url(#p1cedb892c1)" d="M 223.01295 44.051087 
L 223.12096 43.47718 
L 223.673714 40.82801 
L 224.242487 38.178839 
L 224.75679 35.529669 
L 224.999828 33.717991 
L 225.038177 32.880498 
L 225.04362 30.231328 
L 224.999828 29.718234 
L 224.378848 27.582157 
L 223.01295 26.265273 
L 221.393439 27.582157 
L 221.026072 28.44395 
L 220.77766 30.231328 
L 220.759563 32.880498 
L 220.892199 35.529669 
L 221.026072 37.379825 
L 221.218209 38.178839 
L 221.951095 40.82801 
L 222.811093 43.47718 
L 223.01295 44.051087 
" style="fill:none;stroke:#bbc7c7;"/>
   </g>
   <g id="LineCollection_16">
    <path clip-path="url(#p1cedb892c1)" d="M 161.419735 162.85339 
L 163.406613 163.914266 
L 165.393491 164.572152 
L 167.380369 164.94968 
L 169.367247 165.119055 
L 171.354125 165.124792 
L 173.341003 164.995045 
L 175.32788 164.747672 
L 177.314758 164.393648 
L 179.301636 163.939054 
L 181.288514 163.386255 
L 183.275392 162.734565 
L 183.397725 162.689854 
L 185.26227 161.933548 
L 187.249148 161.017006 
L 189.123317 160.040683 
L 189.236026 159.974447 
L 191.222904 158.716266 
L 193.092038 157.391513 
L 193.209781 157.295909 
L 195.196659 155.574268 
L 196.080739 154.742342 
L 197.183537 153.535777 
L 198.416911 152.093172 
L 199.170415 151.054261 
L 200.279452 149.444001 
L 201.157293 147.920211 
L 201.780393 146.79483 
L 202.994777 144.14566 
L 203.144171 143.74975 
L 203.976128 141.496489 
L 204.761279 138.847319 
L 205.131049 137.263576 
L 205.377553 136.198148 
L 205.841334 133.548978 
L 206.165755 130.899807 
L 206.354862 128.250637 
L 206.403829 125.601466 
L 206.296158 122.952296 
L 205.99765 120.303125 
L 205.443628 117.653955 
L 205.131049 116.690709 
L 204.439378 115.004784 
L 203.144171 113.042909 
L 202.473706 112.355614 
L 201.157293 111.431552 
L 199.170415 110.640653 
L 197.183537 110.279746 
L 195.196659 110.187899 
L 193.209781 110.268807 
L 191.222904 110.463307 
L 189.236026 110.734508 
L 187.249148 111.059367 
L 185.26227 111.423763 
L 183.275392 111.819543 
L 181.288514 112.242742 
L 180.811927 112.355614 
L 179.301636 112.730234 
L 177.314758 113.258471 
L 175.32788 113.818766 
L 173.341003 114.418388 
L 171.552398 115.004784 
L 171.354125 115.074981 
L 169.367247 115.864694 
L 167.380369 116.745461 
L 165.588296 117.653955 
L 165.393491 117.764626 
L 163.406613 119.083393 
L 161.889649 120.303125 
L 161.419735 120.745875 
L 159.533495 122.952296 
L 159.432857 123.096016 
L 158.032563 125.601466 
L 157.445979 126.958776 
L 157.000346 128.250637 
L 156.30394 130.899807 
L 155.798488 133.548978 
L 155.459102 136.096012 
L 155.448028 136.198148 
L 155.263348 138.847319 
L 155.177894 141.496489 
L 155.18643 144.14566 
L 155.290225 146.79483 
L 155.459102 148.969655 
L 155.505853 149.444001 
L 155.907728 152.093172 
L 156.492009 154.742342 
L 157.313103 157.391513 
L 157.445979 157.727615 
L 158.73064 160.040683 
L 159.432857 161.021114 
L 161.210318 162.689854 
L 161.419735 162.85339 
" style="fill:none;stroke:#abb6c2;"/>
   </g>
   <g id="LineCollection_17">
    <path clip-path="url(#p1cedb892c1)" d="M 165.393491 155.307231 
L 167.380369 156.157594 
L 169.367247 156.569007 
L 171.354125 156.64282 
L 173.341003 156.443918 
L 175.32788 156.014383 
L 177.314758 155.381217 
L 178.868106 154.742342 
L 179.301636 154.536024 
L 181.288514 153.406283 
L 183.267365 152.093172 
L 183.275392 152.086855 
L 185.26227 150.349885 
L 186.202125 149.444001 
L 187.249148 148.218379 
L 188.381448 146.79483 
L 189.236026 145.450762 
L 190.025394 144.14566 
L 191.222904 141.575111 
L 191.25837 141.496489 
L 192.122761 138.847319 
L 192.670672 136.198148 
L 192.894478 133.548978 
L 192.753184 130.899807 
L 192.153988 128.250637 
L 191.222904 126.212453 
L 190.879963 125.601466 
L 189.236026 123.794558 
L 188.174061 122.952296 
L 187.249148 122.43992 
L 185.26227 121.673078 
L 183.275392 121.217846 
L 181.288514 121.008361 
L 179.301636 121.000767 
L 177.314758 121.167132 
L 175.32788 121.491898 
L 173.341003 121.970157 
L 171.354125 122.607447 
L 170.525712 122.952296 
L 169.367247 123.499523 
L 167.380369 124.68401 
L 166.149876 125.601466 
L 165.393491 126.26772 
L 163.609241 128.250637 
L 163.406613 128.528567 
L 162.041311 130.899807 
L 161.419735 132.316235 
L 160.990215 133.548978 
L 160.341352 136.198148 
L 159.950255 138.847319 
L 159.806917 141.496489 
L 159.915458 144.14566 
L 160.294385 146.79483 
L 160.979075 149.444001 
L 161.419735 150.59618 
L 162.229191 152.093172 
L 163.406613 153.690133 
L 164.595728 154.742342 
L 165.393491 155.307231 
" style="fill:none;stroke:#9ba5bc;"/>
   </g>
   <g id="LineCollection_18"/>
   <g id="patch_3">
    <path d="M 149.498468 178.584877 
L 149.498468 19.634646 
" style="fill:none;stroke:#000000;stroke-linecap:square;stroke-linejoin:miter;"/>
   </g>
   <g id="patch_4">
    <path d="M 149.498468 178.584877 
L 228.973583 178.584877 
" style="fill:none;stroke:#000000;stroke-linecap:square;stroke-linejoin:miter;"/>
   </g>
   <g id="text_14">
    <!-- Error -->
    <g transform="translate(173.681807 13.634646)scale(0.14 -0.14)">
     <defs>
      <path d="M 8.546875 71.734375 
L 60.84375 71.734375 
L 60.84375 62.9375 
L 18.015625 62.9375 
L 18.015625 41.15625 
L 57.625 41.15625 
L 57.625 32.859375 
L 18.015625 32.859375 
L 18.015625 8.546875 
L 61.578125 8.546875 
L 61.578125 0 
L 8.546875 0 
z
M 35.0625 71.734375 
z
" id="Helvetica-69"/>
      <path d="M 6.6875 52.296875 
L 15.046875 52.296875 
L 15.046875 43.265625 
Q 16.0625 45.90625 20.0625 49.6875 
Q 24.078125 53.46875 29.296875 53.46875 
Q 29.546875 53.46875 30.125 53.421875 
Q 30.71875 53.375 32.125 53.21875 
L 32.125 43.953125 
Q 31.34375 44.09375 30.6875 44.140625 
Q 30.03125 44.1875 29.25 44.1875 
Q 22.609375 44.1875 19.046875 39.90625 
Q 15.484375 35.640625 15.484375 30.078125 
L 15.484375 0 
L 6.6875 0 
z
" id="Helvetica-114"/>
      <path d="M 27.203125 5.671875 
Q 35.9375 5.671875 39.1875 12.28125 
Q 42.4375 18.890625 42.4375 27 
Q 42.4375 34.328125 40.09375 38.921875 
Q 36.375 46.140625 27.296875 46.140625 
Q 19.234375 46.140625 15.578125 39.984375 
Q 11.921875 33.84375 11.921875 25.140625 
Q 11.921875 16.796875 15.578125 11.234375 
Q 19.234375 5.671875 27.203125 5.671875 
z
M 27.546875 53.8125 
Q 37.640625 53.8125 44.625 47.0625 
Q 51.609375 40.328125 51.609375 27.25 
Q 51.609375 14.59375 45.453125 6.34375 
Q 39.3125 -1.90625 26.375 -1.90625 
Q 15.578125 -1.90625 9.21875 5.390625 
Q 2.875 12.703125 2.875 25 
Q 2.875 38.1875 9.5625 46 
Q 16.265625 53.8125 27.546875 53.8125 
z
M 27.25 53.5625 
z
" id="Helvetica-111"/>
     </defs>
     <use xlink:href="#Helvetica-69"/>
     <use x="66.699219" xlink:href="#Helvetica-114"/>
     <use x="100" xlink:href="#Helvetica-114"/>
     <use x="133.300781" xlink:href="#Helvetica-111"/>
     <use x="188.916016" xlink:href="#Helvetica-114"/>
    </g>
   </g>
  </g>
  <g id="axes_2">
   <g id="patch_5">
    <path clip-path="url(#p3a5861a1f3)" d="M 149.498468 194.4799 
L 152.953908 194.4799 
L 204.785505 194.4799 
L 208.240945 194.4799 
L 208.240945 186.532388 
L 204.785505 186.532388 
L 152.953908 186.532388 
L 149.498468 186.532388 
z
" style="fill:#ffffff;stroke:#ffffff;stroke-linejoin:miter;stroke-width:0.01;"/>
   </g>
   <g id="matplotlib.axis_3">
    <g id="xtick_7">
     <g id="line2d_23">
      <g>
       <use style="stroke:#000000;stroke-width:0.5;" x="159.864787" xlink:href="#mfaa27e2cb5" y="194.4799"/>
      </g>
     </g>
     <g id="text_15">
      <!-- $\mathregular{-0.0010}$ -->
      <g transform="translate(145.264787 203.71865)scale(0.08 -0.08)">
       <defs>
        <path d="M 55.421875 29.59375 
L 55.421875 21.390625 
L 4.5 21.390625 
L 4.5 29.59375 
z
" id="Helvetica-8722"/>
       </defs>
       <use transform="translate(0 0.078125)" xlink:href="#Helvetica-8722"/>
       <use transform="translate(58.398438 0.078125)" xlink:href="#Helvetica-48"/>
       <use transform="translate(114.013672 0.078125)" xlink:href="#Helvetica-46"/>
       <use transform="translate(141.796875 0.078125)" xlink:href="#Helvetica-48"/>
       <use transform="translate(197.412109 0.078125)" xlink:href="#Helvetica-48"/>
       <use transform="translate(253.027344 0.078125)" xlink:href="#Helvetica-49"/>
       <use transform="translate(308.642578 0.078125)" xlink:href="#Helvetica-48"/>
      </g>
     </g>
    </g>
    <g id="xtick_8">
     <g id="line2d_24">
      <g>
       <use style="stroke:#000000;stroke-width:0.5;" x="177.141986" xlink:href="#mfaa27e2cb5" y="194.4799"/>
      </g>
     </g>
     <g id="text_16">
      <!-- $\mathregular{-0.0005}$ -->
      <g transform="translate(162.541986 203.71865)scale(0.08 -0.08)">
       <use transform="translate(0 0.078125)" xlink:href="#Helvetica-8722"/>
       <use transform="translate(58.398438 0.078125)" xlink:href="#Helvetica-48"/>
       <use transform="translate(114.013672 0.078125)" xlink:href="#Helvetica-46"/>
       <use transform="translate(141.796875 0.078125)" xlink:href="#Helvetica-48"/>
       <use transform="translate(197.412109 0.078125)" xlink:href="#Helvetica-48"/>
       <use transform="translate(253.027344 0.078125)" xlink:href="#Helvetica-48"/>
       <use transform="translate(308.642578 0.078125)" xlink:href="#Helvetica-53"/>
      </g>
     </g>
    </g>
    <g id="xtick_9">
     <g id="line2d_25">
      <g>
       <use style="stroke:#000000;stroke-width:0.5;" x="194.419185" xlink:href="#mfaa27e2cb5" y="194.4799"/>
      </g>
     </g>
     <g id="text_17">
      <!-- $\mathregular{0.0000}$ -->
      <g transform="translate(182.179185 203.71865)scale(0.08 -0.08)">
       <use transform="translate(0 0.078125)" xlink:href="#Helvetica-48"/>
       <use transform="translate(55.615234 0.078125)" xlink:href="#Helvetica-46"/>
       <use transform="translate(83.398438 0.078125)" xlink:href="#Helvetica-48"/>
       <use transform="translate(139.013672 0.078125)" xlink:href="#Helvetica-48"/>
       <use transform="translate(194.628906 0.078125)" xlink:href="#Helvetica-48"/>
       <use transform="translate(250.244141 0.078125)" xlink:href="#Helvetica-48"/>
      </g>
     </g>
    </g>
    <g id="xtick_10">
     <g id="line2d_26">
      <g>
       <use style="stroke:#000000;stroke-width:0.5;" x="211.696384" xlink:href="#mfaa27e2cb5" y="194.4799"/>
      </g>
     </g>
     <g id="text_18">
      <!-- $\mathregular{0.0005}$ -->
      <g transform="translate(199.456384 203.71865)scale(0.08 -0.08)">
       <use transform="translate(0 0.078125)" xlink:href="#Helvetica-48"/>
       <use transform="translate(55.615234 0.078125)" xlink:href="#Helvetica-46"/>
       <use transform="translate(83.398438 0.078125)" xlink:href="#Helvetica-48"/>
       <use transform="translate(139.013672 0.078125)" xlink:href="#Helvetica-48"/>
       <use transform="translate(194.628906 0.078125)" xlink:href="#Helvetica-48"/>
       <use transform="translate(250.244141 0.078125)" xlink:href="#Helvetica-53"/>
      </g>
     </g>
    </g>
    <g id="xtick_11">
     <g id="line2d_27">
      <g>
       <use style="stroke:#000000;stroke-width:0.5;" x="228.973583" xlink:href="#mfaa27e2cb5" y="194.4799"/>
      </g>
     </g>
     <g id="text_19">
      <!-- $\mathregular{0.0010}$ -->
      <g transform="translate(216.733583 203.71865)scale(0.08 -0.08)">
       <use transform="translate(0 0.078125)" xlink:href="#Helvetica-48"/>
       <use transform="translate(55.615234 0.078125)" xlink:href="#Helvetica-46"/>
       <use transform="translate(83.398438 0.078125)" xlink:href="#Helvetica-48"/>
       <use transform="translate(139.013672 0.078125)" xlink:href="#Helvetica-48"/>
       <use transform="translate(194.628906 0.078125)" xlink:href="#Helvetica-49"/>
       <use transform="translate(250.244141 0.078125)" xlink:href="#Helvetica-48"/>
      </g>
     </g>
    </g>
   </g>
   <g id="matplotlib.axis_4"/>
   <g id="LineCollection_19">
    <path clip-path="url(#p3a5861a1f3)" d="M 149.498468 194.4799 
L 149.498468 186.532388 
" style="fill:none;stroke:#8b0000;"/>
    <path clip-path="url(#p3a5861a1f3)" d="M 152.953908 194.4799 
L 152.953908 186.532388 
" style="fill:none;stroke:#8e0a0a;"/>
    <path clip-path="url(#p3a5861a1f3)" d="M 156.409348 194.4799 
L 156.409348 186.532388 
" style="fill:none;stroke:#931b1a;"/>
    <path clip-path="url(#p3a5861a1f3)" d="M 159.864787 194.4799 
L 159.864787 186.532388 
" style="fill:none;stroke:#982c2a;"/>
    <path clip-path="url(#p3a5861a1f3)" d="M 163.320227 194.4799 
L 163.320227 186.532388 
" style="fill:none;stroke:#9d3d3a;"/>
    <path clip-path="url(#p3a5861a1f3)" d="M 166.775667 194.4799 
L 166.775667 186.532388 
" style="fill:none;stroke:#a24e4a;"/>
    <path clip-path="url(#p3a5861a1f3)" d="M 170.231107 194.4799 
L 170.231107 186.532388 
" style="fill:none;stroke:#a8615b;"/>
    <path clip-path="url(#p3a5861a1f3)" d="M 173.686547 194.4799 
L 173.686547 186.532388 
" style="fill:none;stroke:#ad726b;"/>
    <path clip-path="url(#p3a5861a1f3)" d="M 177.141986 194.4799 
L 177.141986 186.532388 
" style="fill:none;stroke:#b2837b;"/>
    <path clip-path="url(#p3a5861a1f3)" d="M 180.597426 194.4799 
L 180.597426 186.532388 
" style="fill:none;stroke:#b7948b;"/>
    <path clip-path="url(#p3a5861a1f3)" d="M 184.052866 194.4799 
L 184.052866 186.532388 
" style="fill:none;stroke:#bca59b;"/>
    <path clip-path="url(#p3a5861a1f3)" d="M 187.508306 194.4799 
L 187.508306 186.532388 
" style="fill:none;stroke:#c2b6ab;"/>
    <path clip-path="url(#p3a5861a1f3)" d="M 190.963746 194.4799 
L 190.963746 186.532388 
" style="fill:none;stroke:#c7c7bb;"/>
    <path clip-path="url(#p3a5861a1f3)" d="M 194.419185 194.4799 
L 194.419185 186.532388 
" style="fill:none;stroke:#cbd8cc;"/>
    <path clip-path="url(#p3a5861a1f3)" d="M 197.874625 194.4799 
L 197.874625 186.532388 
" style="fill:none;stroke:#bbc7c7;"/>
    <path clip-path="url(#p3a5861a1f3)" d="M 201.330065 194.4799 
L 201.330065 186.532388 
" style="fill:none;stroke:#abb6c2;"/>
    <path clip-path="url(#p3a5861a1f3)" d="M 204.785505 194.4799 
L 204.785505 186.532388 
" style="fill:none;stroke:#9ba5bc;"/>
    <path clip-path="url(#p3a5861a1f3)" d="M 208.240945 194.4799 
L 208.240945 186.532388 
" style="fill:none;stroke:#8b94b7;"/>
   </g>
   <g id="patch_6">
    <path d="M 149.498468 194.4799 
L 152.953908 194.4799 
L 204.785505 194.4799 
L 208.240945 194.4799 
L 208.240945 186.532388 
L 204.785505 186.532388 
L 152.953908 186.532388 
L 149.498468 186.532388 
z
" style="fill:none;stroke:#000000;stroke-linejoin:miter;"/>
   </g>
  </g>
 </g>
 <defs>
  <clipPath id="p1cedb892c1">
   <rect height="158.950231" width="79.475116" x="149.498468" y="19.634646"/>
  </clipPath>
  <clipPath id="p3a5861a1f3">
   <rect height="7.947512" width="79.475116" x="149.498468" y="186.532388"/>
  </clipPath>
 </defs>
</svg>
