<?xml version="1.0" encoding="utf-8"?>
<svg xmlns="http://www.w3.org/2000/svg" xmlns:xlink="http://www.w3.org/1999/xlink" width="120" height="75" viewBox="0 0 480 300">
<defs>
  <clipPath id="clip780">
    <rect x="0" y="0" width="480" height="300"/>
  </clipPath>
</defs>
<path clip-path="url(#clip780)" d="
M0 300 L480 300 L480 0 L0 0  Z
  " fill="#ffffff" fill-rule="evenodd" fill-opacity="1"/>
<defs>
  <clipPath id="clip781">
    <rect x="96" y="0" width="337" height="300"/>
  </clipPath>
</defs>
<path clip-path="url(#clip780)" d="
M58.8035 258.408 L468.189 258.408 L468.189 27.537 L58.8035 27.537  Z
  " fill="#ffffff" fill-rule="evenodd" fill-opacity="1"/>
<defs>
  <clipPath id="clip782">
    <rect x="58" y="27" width="410" height="232"/>
  </clipPath>
</defs>
<polyline clip-path="url(#clip782)" style="stroke:#000000; stroke-width:0.5; stroke-opacity:0.1; fill:none" points="
  70.3899,258.408 70.3899,27.537 
  "/>
<polyline clip-path="url(#clip782)" style="stroke:#000000; stroke-width:0.5; stroke-opacity:0.1; fill:none" points="
  144.662,258.408 144.662,27.537 
  "/>
<polyline clip-path="url(#clip782)" style="stroke:#000000; stroke-width:0.5; stroke-opacity:0.1; fill:none" points="
  218.933,258.408 218.933,27.537 
  "/>
<polyline clip-path="url(#clip782)" style="stroke:#000000; stroke-width:0.5; stroke-opacity:0.1; fill:none" points="
  293.205,258.408 293.205,27.537 
  "/>
<polyline clip-path="url(#clip782)" style="stroke:#000000; stroke-width:0.5; stroke-opacity:0.1; fill:none" points="
  367.477,258.408 367.477,27.537 
  "/>
<polyline clip-path="url(#clip782)" style="stroke:#000000; stroke-width:0.5; stroke-opacity:0.1; fill:none" points="
  441.748,258.408 441.748,27.537 
  "/>
<polyline clip-path="url(#clip780)" style="stroke:#000000; stroke-width:1; stroke-opacity:1; fill:none" points="
  58.8035,258.408 468.189,258.408 
  "/>
<polyline clip-path="url(#clip780)" style="stroke:#000000; stroke-width:1; stroke-opacity:1; fill:none" points="
  70.3899,258.408 70.3899,255.638 
  "/>
<polyline clip-path="url(#clip780)" style="stroke:#000000; stroke-width:1; stroke-opacity:1; fill:none" points="
  144.662,258.408 144.662,255.638 
  "/>
<polyline clip-path="url(#clip780)" style="stroke:#000000; stroke-width:1; stroke-opacity:1; fill:none" points="
  218.933,258.408 218.933,255.638 
  "/>
<polyline clip-path="url(#clip780)" style="stroke:#000000; stroke-width:1; stroke-opacity:1; fill:none" points="
  293.205,258.408 293.205,255.638 
  "/>
<polyline clip-path="url(#clip780)" style="stroke:#000000; stroke-width:1; stroke-opacity:1; fill:none" points="
  367.477,258.408 367.477,255.638 
  "/>
<polyline clip-path="url(#clip780)" style="stroke:#000000; stroke-width:1; stroke-opacity:1; fill:none" points="
  441.748,258.408 441.748,255.638 
  "/>
<path clip-path="url(#clip780)" d="M 0 0 M70.3899 264.746 Q69.4871 264.746 69.0299 265.637 Q68.5786 266.523 68.5786 268.305 Q68.5786 270.082 69.0299 270.973 Q69.4871 271.858 70.3899 271.858 Q71.2984 271.858 71.7498 270.973 Q72.207 270.082 72.207 268.305 Q72.207 266.523 71.7498 265.637 Q71.2984 264.746 70.3899 264.746 M70.3899 263.82 Q71.8424 263.82 72.6063 264.972 Q73.376 266.118 73.376 268.305 Q73.376 270.487 72.6063 271.638 Q71.8424 272.784 70.3899 272.784 Q68.9373 272.784 68.1677 271.638 Q67.4038 270.487 67.4038 268.305 Q67.4038 266.118 68.1677 264.972 Q68.9373 263.82 70.3899 263.82 Z" fill="#000000" fill-rule="evenodd" fill-opacity="1" /><path clip-path="url(#clip780)" d="M 0 0 M138.854 263.976 L143.443 263.976 L143.443 264.96 L139.925 264.96 L139.925 267.078 Q140.18 266.991 140.434 266.951 Q140.689 266.905 140.943 266.905 Q142.39 266.905 143.235 267.697 Q144.08 268.49 144.08 269.844 Q144.08 271.239 143.212 272.015 Q142.344 272.784 140.764 272.784 Q140.22 272.784 139.653 272.692 Q139.092 272.599 138.49 272.414 L138.49 271.239 Q139.011 271.523 139.566 271.662 Q140.122 271.8 140.741 271.8 Q141.742 271.8 142.327 271.274 Q142.911 270.747 142.911 269.844 Q142.911 268.942 142.327 268.415 Q141.742 267.888 140.741 267.888 Q140.272 267.888 139.803 267.993 Q139.34 268.097 138.854 268.317 L138.854 263.976 Z" fill="#000000" fill-rule="evenodd" fill-opacity="1" /><path clip-path="url(#clip780)" d="M 0 0 M147.847 264.746 Q146.945 264.746 146.487 265.637 Q146.036 266.523 146.036 268.305 Q146.036 270.082 146.487 270.973 Q146.945 271.858 147.847 271.858 Q148.756 271.858 149.207 270.973 Q149.664 270.082 149.664 268.305 Q149.664 266.523 149.207 265.637 Q148.756 264.746 147.847 264.746 M147.847 263.82 Q149.3 263.82 150.064 264.972 Q150.833 266.118 150.833 268.305 Q150.833 270.487 150.064 271.638 Q149.3 272.784 147.847 272.784 Q146.395 272.784 145.625 271.638 Q144.861 270.487 144.861 268.305 Q144.861 266.118 145.625 264.972 Q146.395 263.82 147.847 263.82 Z" fill="#000000" fill-rule="evenodd" fill-opacity="1" /><path clip-path="url(#clip780)" d="M 0 0 M209.775 271.633 L211.685 271.633 L211.685 265.041 L209.607 265.458 L209.607 264.393 L211.673 263.976 L212.842 263.976 L212.842 271.633 L214.752 271.633 L214.752 272.616 L209.775 272.616 L209.775 271.633 Z" fill="#000000" fill-rule="evenodd" fill-opacity="1" /><path clip-path="url(#clip780)" d="M 0 0 M218.519 264.746 Q217.617 264.746 217.16 265.637 Q216.708 266.523 216.708 268.305 Q216.708 270.082 217.16 270.973 Q217.617 271.858 218.519 271.858 Q219.428 271.858 219.879 270.973 Q220.337 270.082 220.337 268.305 Q220.337 266.523 219.879 265.637 Q219.428 264.746 218.519 264.746 M218.519 263.82 Q219.972 263.82 220.736 264.972 Q221.506 266.118 221.506 268.305 Q221.506 270.487 220.736 271.638 Q219.972 272.784 218.519 272.784 Q217.067 272.784 216.297 271.638 Q215.533 270.487 215.533 268.305 Q215.533 266.118 216.297 264.972 Q217.067 263.82 218.519 263.82 Z" fill="#000000" fill-rule="evenodd" fill-opacity="1" /><path clip-path="url(#clip780)" d="M 0 0 M225.273 264.746 Q224.37 264.746 223.913 265.637 Q223.462 266.523 223.462 268.305 Q223.462 270.082 223.913 270.973 Q224.37 271.858 225.273 271.858 Q226.181 271.858 226.633 270.973 Q227.09 270.082 227.09 268.305 Q227.09 266.523 226.633 265.637 Q226.181 264.746 225.273 264.746 M225.273 263.82 Q226.725 263.82 227.489 264.972 Q228.259 266.118 228.259 268.305 Q228.259 270.487 227.489 271.638 Q226.725 272.784 225.273 272.784 Q223.82 272.784 223.051 271.638 Q222.287 270.487 222.287 268.305 Q222.287 266.118 223.051 264.972 Q223.82 263.82 225.273 263.82 Z" fill="#000000" fill-rule="evenodd" fill-opacity="1" /><path clip-path="url(#clip780)" d="M 0 0 M284.171 271.633 L286.081 271.633 L286.081 265.041 L284.004 265.458 L284.004 264.393 L286.07 263.976 L287.239 263.976 L287.239 271.633 L289.148 271.633 L289.148 272.616 L284.171 272.616 L284.171 271.633 Z" fill="#000000" fill-rule="evenodd" fill-opacity="1" /><path clip-path="url(#clip780)" d="M 0 0 M290.427 263.976 L295.016 263.976 L295.016 264.96 L291.498 264.96 L291.498 267.078 Q291.752 266.991 292.007 266.951 Q292.262 266.905 292.516 266.905 Q293.963 266.905 294.808 267.697 Q295.653 268.49 295.653 269.844 Q295.653 271.239 294.785 272.015 Q293.917 272.784 292.337 272.784 Q291.793 272.784 291.226 272.692 Q290.664 272.599 290.063 272.414 L290.063 271.239 Q290.583 271.523 291.139 271.662 Q291.695 271.8 292.314 271.8 Q293.315 271.8 293.899 271.274 Q294.484 270.747 294.484 269.844 Q294.484 268.942 293.899 268.415 Q293.315 267.888 292.314 267.888 Q291.845 267.888 291.376 267.993 Q290.913 268.097 290.427 268.317 L290.427 263.976 Z" fill="#000000" fill-rule="evenodd" fill-opacity="1" /><path clip-path="url(#clip780)" d="M 0 0 M299.42 264.746 Q298.517 264.746 298.06 265.637 Q297.609 266.523 297.609 268.305 Q297.609 270.082 298.06 270.973 Q298.517 271.858 299.42 271.858 Q300.329 271.858 300.78 270.973 Q301.237 270.082 301.237 268.305 Q301.237 266.523 300.78 265.637 Q300.329 264.746 299.42 264.746 M299.42 263.82 Q300.873 263.82 301.637 264.972 Q302.406 266.118 302.406 268.305 Q302.406 270.487 301.637 271.638 Q300.873 272.784 299.42 272.784 Q297.968 272.784 297.198 271.638 Q296.434 270.487 296.434 268.305 Q296.434 266.118 297.198 264.972 Q297.968 263.82 299.42 263.82 Z" fill="#000000" fill-rule="evenodd" fill-opacity="1" /><path clip-path="url(#clip780)" d="M 0 0 M359.386 271.633 L363.466 271.633 L363.466 272.616 L357.98 272.616 L357.98 271.633 Q358.646 270.944 359.791 269.787 Q360.943 268.623 361.238 268.288 Q361.8 267.657 362.019 267.223 Q362.245 266.783 362.245 266.361 Q362.245 265.672 361.759 265.238 Q361.279 264.804 360.503 264.804 Q359.953 264.804 359.34 264.995 Q358.732 265.186 358.038 265.574 L358.038 264.393 Q358.744 264.109 359.357 263.965 Q359.971 263.82 360.48 263.82 Q361.823 263.82 362.621 264.491 Q363.42 265.163 363.42 266.285 Q363.42 266.818 363.217 267.298 Q363.021 267.773 362.494 268.421 Q362.349 268.589 361.574 269.393 Q360.798 270.192 359.386 271.633 Z" fill="#000000" fill-rule="evenodd" fill-opacity="1" /><path clip-path="url(#clip780)" d="M 0 0 M367.234 264.746 Q366.331 264.746 365.874 265.637 Q365.422 266.523 365.422 268.305 Q365.422 270.082 365.874 270.973 Q366.331 271.858 367.234 271.858 Q368.142 271.858 368.593 270.973 Q369.051 270.082 369.051 268.305 Q369.051 266.523 368.593 265.637 Q368.142 264.746 367.234 264.746 M367.234 263.82 Q368.686 263.82 369.45 264.972 Q370.22 266.118 370.22 268.305 Q370.22 270.487 369.45 271.638 Q368.686 272.784 367.234 272.784 Q365.781 272.784 365.011 271.638 Q364.247 270.487 364.247 268.305 Q364.247 266.118 365.011 264.972 Q365.781 263.82 367.234 263.82 Z" fill="#000000" fill-rule="evenodd" fill-opacity="1" /><path clip-path="url(#clip780)" d="M 0 0 M373.987 264.746 Q373.084 264.746 372.627 265.637 Q372.176 266.523 372.176 268.305 Q372.176 270.082 372.627 270.973 Q373.084 271.858 373.987 271.858 Q374.896 271.858 375.347 270.973 Q375.804 270.082 375.804 268.305 Q375.804 266.523 375.347 265.637 Q374.896 264.746 373.987 264.746 M373.987 263.82 Q375.44 263.82 376.203 264.972 Q376.973 266.118 376.973 268.305 Q376.973 270.487 376.203 271.638 Q375.44 272.784 373.987 272.784 Q372.534 272.784 371.765 271.638 Q371.001 270.487 371.001 268.305 Q371.001 266.118 371.765 264.972 Q372.534 263.82 373.987 263.82 Z" fill="#000000" fill-rule="evenodd" fill-opacity="1" /><path clip-path="url(#clip780)" d="M 0 0 M433.782 271.633 L437.862 271.633 L437.862 272.616 L432.376 272.616 L432.376 271.633 Q433.042 270.944 434.188 269.787 Q435.339 268.623 435.634 268.288 Q436.196 267.657 436.416 267.223 Q436.641 266.783 436.641 266.361 Q436.641 265.672 436.155 265.238 Q435.675 264.804 434.899 264.804 Q434.35 264.804 433.736 264.995 Q433.129 265.186 432.434 265.574 L432.434 264.393 Q433.14 264.109 433.754 263.965 Q434.367 263.82 434.876 263.82 Q436.219 263.82 437.017 264.491 Q437.816 265.163 437.816 266.285 Q437.816 266.818 437.613 267.298 Q437.417 267.773 436.89 268.421 Q436.745 268.589 435.97 269.393 Q435.194 270.192 433.782 271.633 Z" fill="#000000" fill-rule="evenodd" fill-opacity="1" /><path clip-path="url(#clip780)" d="M 0 0 M439.141 263.976 L443.73 263.976 L443.73 264.96 L440.212 264.96 L440.212 267.078 Q440.466 266.991 440.721 266.951 Q440.976 266.905 441.23 266.905 Q442.677 266.905 443.522 267.697 Q444.367 268.49 444.367 269.844 Q444.367 271.239 443.499 272.015 Q442.631 272.784 441.051 272.784 Q440.507 272.784 439.94 272.692 Q439.378 272.599 438.777 272.414 L438.777 271.239 Q439.297 271.523 439.853 271.662 Q440.409 271.8 441.028 271.8 Q442.029 271.8 442.613 271.274 Q443.198 270.747 443.198 269.844 Q443.198 268.942 442.613 268.415 Q442.029 267.888 441.028 267.888 Q440.559 267.888 440.09 267.993 Q439.627 268.097 439.141 268.317 L439.141 263.976 Z" fill="#000000" fill-rule="evenodd" fill-opacity="1" /><path clip-path="url(#clip780)" d="M 0 0 M448.134 264.746 Q447.231 264.746 446.774 265.637 Q446.323 266.523 446.323 268.305 Q446.323 270.082 446.774 270.973 Q447.231 271.858 448.134 271.858 Q449.043 271.858 449.494 270.973 Q449.951 270.082 449.951 268.305 Q449.951 266.523 449.494 265.637 Q449.043 264.746 448.134 264.746 M448.134 263.82 Q449.587 263.82 450.351 264.972 Q451.12 266.118 451.12 268.305 Q451.12 270.487 450.351 271.638 Q449.587 272.784 448.134 272.784 Q446.682 272.784 445.912 271.638 Q445.148 270.487 445.148 268.305 Q445.148 266.118 445.912 264.972 Q446.682 263.82 448.134 263.82 Z" fill="#000000" fill-rule="evenodd" fill-opacity="1" /><g clip-path="url(#clip780)">
<text style="fill:#000000; fill-opacity:1; font-family:Arial,Helvetica Neue,Helvetica,sans-serif; font-size:16px; text-anchor:middle;" transform="rotate(0, 263.496, 293.459)" x="263.496" y="293.459">Krylov dimension</text>
</g>
<polyline clip-path="url(#clip782)" style="stroke:#000000; stroke-width:0.5; stroke-opacity:0.1; fill:none" points="
  58.8035,250.956 468.189,250.956 
  "/>
<polyline clip-path="url(#clip782)" style="stroke:#000000; stroke-width:0.5; stroke-opacity:0.1; fill:none" points="
  58.8035,211.983 468.189,211.983 
  "/>
<polyline clip-path="url(#clip782)" style="stroke:#000000; stroke-width:0.5; stroke-opacity:0.1; fill:none" points="
  58.8035,173.01 468.189,173.01 
  "/>
<polyline clip-path="url(#clip782)" style="stroke:#000000; stroke-width:0.5; stroke-opacity:0.1; fill:none" points="
  58.8035,134.036 468.189,134.036 
  "/>
<polyline clip-path="url(#clip782)" style="stroke:#000000; stroke-width:0.5; stroke-opacity:0.1; fill:none" points="
  58.8035,95.0631 468.189,95.0631 
  "/>
<polyline clip-path="url(#clip782)" style="stroke:#000000; stroke-width:0.5; stroke-opacity:0.1; fill:none" points="
  58.8035,56.0899 468.189,56.0899 
  "/>
<polyline clip-path="url(#clip780)" style="stroke:#000000; stroke-width:1; stroke-opacity:1; fill:none" points="
  58.8035,258.408 58.8035,27.537 
  "/>
<polyline clip-path="url(#clip780)" style="stroke:#000000; stroke-width:1; stroke-opacity:1; fill:none" points="
  58.8035,250.956 63.7161,250.956 
  "/>
<polyline clip-path="url(#clip780)" style="stroke:#000000; stroke-width:1; stroke-opacity:1; fill:none" points="
  58.8035,211.983 63.7161,211.983 
  "/>
<polyline clip-path="url(#clip780)" style="stroke:#000000; stroke-width:1; stroke-opacity:1; fill:none" points="
  58.8035,173.01 63.7161,173.01 
  "/>
<polyline clip-path="url(#clip780)" style="stroke:#000000; stroke-width:1; stroke-opacity:1; fill:none" points="
  58.8035,134.036 63.7161,134.036 
  "/>
<polyline clip-path="url(#clip780)" style="stroke:#000000; stroke-width:1; stroke-opacity:1; fill:none" points="
  58.8035,95.0631 63.7161,95.0631 
  "/>
<polyline clip-path="url(#clip780)" style="stroke:#000000; stroke-width:1; stroke-opacity:1; fill:none" points="
  58.8035,56.0899 63.7161,56.0899 
  "/>
<path clip-path="url(#clip780)" d="M 0 0 M28.3253 255.904 L30.235 255.904 L30.235 249.313 L28.1574 249.729 L28.1574 248.665 L30.2234 248.248 L31.3924 248.248 L31.3924 255.904 L33.3021 255.904 L33.3021 256.888 L28.3253 256.888 L28.3253 255.904 Z" fill="#000000" fill-rule="evenodd" fill-opacity="1" /><path clip-path="url(#clip780)" d="M 0 0 M37.0694 249.018 Q36.1667 249.018 35.7095 249.909 Q35.2581 250.794 35.2581 252.577 Q35.2581 254.353 35.7095 255.244 Q36.1667 256.13 37.0694 256.13 Q37.978 256.13 38.4294 255.244 Q38.8866 254.353 38.8866 252.577 Q38.8866 250.794 38.4294 249.909 Q37.978 249.018 37.0694 249.018 M37.0694 248.092 Q38.522 248.092 39.2859 249.243 Q40.0555 250.389 40.0555 252.577 Q40.0555 254.758 39.2859 255.91 Q38.522 257.056 37.0694 257.056 Q35.6169 257.056 34.8472 255.91 Q34.0833 254.758 34.0833 252.577 Q34.0833 250.389 34.8472 249.243 Q35.6169 248.092 37.0694 248.092 Z" fill="#000000" fill-rule="evenodd" fill-opacity="1" /><path clip-path="url(#clip780)" d="M 0 0 M40.0555 246.617 L46.0834 246.617 L46.0834 247.416 L40.0555 247.416 L40.0555 246.617 Z" fill="#000000" fill-rule="evenodd" fill-opacity="1" /><path clip-path="url(#clip780)" d="M 0 0 M49.2619 246.147 Q48.6225 246.147 48.2463 246.584 Q47.8749 247.021 47.8749 247.783 Q47.8749 248.54 48.2463 248.982 Q48.6225 249.419 49.2619 249.419 Q49.9014 249.419 50.2729 248.982 Q50.649 248.54 50.649 247.783 Q50.649 247.021 50.2729 246.584 Q49.9014 246.147 49.2619 246.147 M51.1474 243.171 L51.1474 244.036 Q50.7901 243.866 50.4233 243.777 Q50.0613 243.688 49.7039 243.688 Q48.7635 243.688 48.2651 244.323 Q47.7714 244.957 47.7009 246.241 Q47.9783 245.832 48.3968 245.616 Q48.8153 245.395 49.3184 245.395 Q50.3763 245.395 50.9875 246.039 Q51.6035 246.678 51.6035 247.783 Q51.6035 248.865 50.964 249.518 Q50.3246 250.172 49.2619 250.172 Q48.0441 250.172 47.4 249.241 Q46.7558 248.305 46.7558 246.532 Q46.7558 244.868 47.5457 243.881 Q48.3357 242.888 49.6663 242.888 Q50.0236 242.888 50.3857 242.959 Q50.7525 243.029 51.1474 243.171 Z" fill="#000000" fill-rule="evenodd" fill-opacity="1" /><path clip-path="url(#clip780)" d="M 0 0 M28.5604 216.931 L30.4701 216.931 L30.4701 210.34 L28.3925 210.756 L28.3925 209.691 L30.4585 209.275 L31.6275 209.275 L31.6275 216.931 L33.5372 216.931 L33.5372 217.915 L28.5604 217.915 L28.5604 216.931 Z" fill="#000000" fill-rule="evenodd" fill-opacity="1" /><path clip-path="url(#clip780)" d="M 0 0 M37.3045 210.044 Q36.4018 210.044 35.9446 210.936 Q35.4932 211.821 35.4932 213.603 Q35.4932 215.38 35.9446 216.271 Q36.4018 217.157 37.3045 217.157 Q38.2131 217.157 38.6645 216.271 Q39.1217 215.38 39.1217 213.603 Q39.1217 211.821 38.6645 210.936 Q38.2131 210.044 37.3045 210.044 M37.3045 209.118 Q38.7571 209.118 39.521 210.27 Q40.2906 211.416 40.2906 213.603 Q40.2906 215.785 39.521 216.937 Q38.7571 218.083 37.3045 218.083 Q35.852 218.083 35.0823 216.937 Q34.3184 215.785 34.3184 213.603 Q34.3184 211.416 35.0823 210.27 Q35.852 209.118 37.3045 209.118 Z" fill="#000000" fill-rule="evenodd" fill-opacity="1" /><path clip-path="url(#clip780)" d="M 0 0 M40.2906 207.644 L46.3185 207.644 L46.3185 208.443 L40.2906 208.443 L40.2906 207.644 Z" fill="#000000" fill-rule="evenodd" fill-opacity="1" /><path clip-path="url(#clip780)" d="M 0 0 M47.3576 204.042 L51.0863 204.042 L51.0863 204.841 L48.2275 204.841 L48.2275 206.562 Q48.4344 206.492 48.6413 206.459 Q48.8482 206.421 49.055 206.421 Q50.2305 206.421 50.917 207.065 Q51.6035 207.71 51.6035 208.81 Q51.6035 209.943 50.8982 210.573 Q50.1929 211.198 48.9093 211.198 Q48.4673 211.198 48.0065 211.123 Q47.5504 211.048 47.0614 210.898 L47.0614 209.943 Q47.4846 210.173 47.936 210.286 Q48.3874 210.399 48.8905 210.399 Q49.7039 210.399 50.1788 209.971 Q50.6537 209.543 50.6537 208.81 Q50.6537 208.076 50.1788 207.649 Q49.7039 207.221 48.8905 207.221 Q48.5096 207.221 48.1288 207.305 Q47.7526 207.39 47.3576 207.569 L47.3576 204.042 Z" fill="#000000" fill-rule="evenodd" fill-opacity="1" /><path clip-path="url(#clip780)" d="M 0 0 M28.2594 177.958 L30.1692 177.958 L30.1692 171.366 L28.0916 171.783 L28.0916 170.718 L30.1576 170.301 L31.3266 170.301 L31.3266 177.958 L33.2363 177.958 L33.2363 178.941 L28.2594 178.941 L28.2594 177.958 Z" fill="#000000" fill-rule="evenodd" fill-opacity="1" /><path clip-path="url(#clip780)" d="M 0 0 M37.0036 171.071 Q36.1008 171.071 35.6437 171.962 Q35.1923 172.848 35.1923 174.63 Q35.1923 176.407 35.6437 177.298 Q36.1008 178.183 37.0036 178.183 Q37.9122 178.183 38.3636 177.298 Q38.8207 176.407 38.8207 174.63 Q38.8207 172.848 38.3636 171.962 Q37.9122 171.071 37.0036 171.071 M37.0036 170.145 Q38.4561 170.145 39.22 171.297 Q39.9897 172.443 39.9897 174.63 Q39.9897 176.812 39.22 177.963 Q38.4561 179.109 37.0036 179.109 Q35.5511 179.109 34.7814 177.963 Q34.0175 176.812 34.0175 174.63 Q34.0175 172.443 34.7814 171.297 Q35.5511 170.145 37.0036 170.145 Z" fill="#000000" fill-rule="evenodd" fill-opacity="1" /><path clip-path="url(#clip780)" d="M 0 0 M39.9897 168.671 L46.0176 168.671 L46.0176 169.47 L39.9897 169.47 L39.9897 168.671 Z" fill="#000000" fill-rule="evenodd" fill-opacity="1" /><path clip-path="url(#clip780)" d="M 0 0 M49.6569 165.896 L47.2589 169.644 L49.6569 169.644 L49.6569 165.896 M49.4077 165.069 L50.602 165.069 L50.602 169.644 L51.6035 169.644 L51.6035 170.434 L50.602 170.434 L50.602 172.089 L49.6569 172.089 L49.6569 170.434 L46.4878 170.434 L46.4878 169.517 L49.4077 165.069 Z" fill="#000000" fill-rule="evenodd" fill-opacity="1" /><path clip-path="url(#clip780)" d="M 0 0 M28.4898 138.984 L30.3996 138.984 L30.3996 132.393 L28.322 132.81 L28.322 131.745 L30.388 131.328 L31.557 131.328 L31.557 138.984 L33.4667 138.984 L33.4667 139.968 L28.4898 139.968 L28.4898 138.984 Z" fill="#000000" fill-rule="evenodd" fill-opacity="1" /><path clip-path="url(#clip780)" d="M 0 0 M37.234 132.098 Q36.3312 132.098 35.8741 132.989 Q35.4227 133.875 35.4227 135.657 Q35.4227 137.434 35.8741 138.325 Q36.3312 139.21 37.234 139.21 Q38.1426 139.21 38.594 138.325 Q39.0511 137.434 39.0511 135.657 Q39.0511 133.875 38.594 132.989 Q38.1426 132.098 37.234 132.098 M37.234 131.172 Q38.6865 131.172 39.4504 132.324 Q40.2201 133.469 40.2201 135.657 Q40.2201 137.839 39.4504 138.99 Q38.6865 140.136 37.234 140.136 Q35.7815 140.136 35.0118 138.99 Q34.2479 137.839 34.2479 135.657 Q34.2479 133.469 35.0118 132.324 Q35.7815 131.172 37.234 131.172 Z" fill="#000000" fill-rule="evenodd" fill-opacity="1" /><path clip-path="url(#clip780)" d="M 0 0 M40.2201 129.697 L46.248 129.697 L46.248 130.497 L40.2201 130.497 L40.2201 129.697 Z" fill="#000000" fill-rule="evenodd" fill-opacity="1" /><path clip-path="url(#clip780)" d="M 0 0 M50.1553 129.331 Q50.8371 129.476 51.2179 129.937 Q51.6035 130.398 51.6035 131.075 Q51.6035 132.114 50.8888 132.683 Q50.1741 133.252 48.8576 133.252 Q48.4156 133.252 47.9454 133.163 Q47.4799 133.078 46.9815 132.904 L46.9815 131.987 Q47.3765 132.218 47.8467 132.335 Q48.3168 132.453 48.8294 132.453 Q49.7227 132.453 50.1882 132.1 Q50.6584 131.747 50.6584 131.075 Q50.6584 130.454 50.2211 130.106 Q49.7886 129.754 49.0127 129.754 L48.1946 129.754 L48.1946 128.973 L49.0503 128.973 Q49.7509 128.973 50.1224 128.696 Q50.4938 128.414 50.4938 127.887 Q50.4938 127.346 50.1083 127.06 Q49.7274 126.768 49.0127 126.768 Q48.6225 126.768 48.1758 126.853 Q47.7291 126.937 47.1931 127.116 L47.1931 126.27 Q47.7338 126.119 48.204 126.044 Q48.6789 125.969 49.0974 125.969 Q50.1788 125.969 50.8089 126.462 Q51.4389 126.951 51.4389 127.788 Q51.4389 128.371 51.1051 128.776 Q50.7713 129.175 50.1553 129.331 Z" fill="#000000" fill-rule="evenodd" fill-opacity="1" /><path clip-path="url(#clip780)" d="M 0 0 M28.6826 100.011 L30.5923 100.011 L30.5923 93.4198 L28.5148 93.8365 L28.5148 92.7717 L30.5808 92.355 L31.7497 92.355 L31.7497 100.011 L33.6594 100.011 L33.6594 100.995 L28.6826 100.995 L28.6826 100.011 Z" fill="#000000" fill-rule="evenodd" fill-opacity="1" /><path clip-path="url(#clip780)" d="M 0 0 M37.4268 93.1247 Q36.524 93.1247 36.0668 94.0159 Q35.6155 94.9013 35.6155 96.6837 Q35.6155 98.4603 36.0668 99.3515 Q36.524 100.237 37.4268 100.237 Q38.3353 100.237 38.7867 99.3515 Q39.2439 98.4603 39.2439 96.6837 Q39.2439 94.9013 38.7867 94.0159 Q38.3353 93.1247 37.4268 93.1247 M37.4268 92.1987 Q38.8793 92.1987 39.6432 93.3504 Q40.4129 94.4962 40.4129 96.6837 Q40.4129 98.8654 39.6432 100.017 Q38.8793 101.163 37.4268 101.163 Q35.9742 101.163 35.2046 100.017 Q34.4407 98.8654 34.4407 96.6837 Q34.4407 94.4962 35.2046 93.3504 Q35.9742 92.1987 37.4268 92.1987 Z" fill="#000000" fill-rule="evenodd" fill-opacity="1" /><path clip-path="url(#clip780)" d="M 0 0 M40.4129 90.7241 L46.4408 90.7241 L46.4408 91.5234 L40.4129 91.5234 L40.4129 90.7241 Z" fill="#000000" fill-rule="evenodd" fill-opacity="1" /><path clip-path="url(#clip780)" d="M 0 0 M48.2886 93.3431 L51.6035 93.3431 L51.6035 94.1424 L47.1461 94.1424 L47.1461 93.3431 Q47.6868 92.7835 48.6178 91.8431 Q49.5535 90.8981 49.7933 90.6253 Q50.2493 90.1128 50.428 89.7602 Q50.6114 89.4028 50.6114 89.0596 Q50.6114 88.5001 50.2164 88.1474 Q49.8262 87.7948 49.1961 87.7948 Q48.7494 87.7948 48.251 87.9499 Q47.7573 88.1051 47.1931 88.4201 L47.1931 87.4609 Q47.7667 87.2305 48.2651 87.113 Q48.7635 86.9954 49.1773 86.9954 Q50.2682 86.9954 50.917 87.5409 Q51.5659 88.0863 51.5659 88.9985 Q51.5659 89.4311 51.4013 89.8213 Q51.2415 90.2069 50.8136 90.7335 Q50.696 90.8698 50.066 91.5234 Q49.4359 92.1723 48.2886 93.3431 Z" fill="#000000" fill-rule="evenodd" fill-opacity="1" /><path clip-path="url(#clip780)" d="M 0 0 M28.6074 61.038 L30.5171 61.038 L30.5171 54.4466 L28.4396 54.8632 L28.4396 53.7984 L30.5055 53.3818 L31.6745 53.3818 L31.6745 61.038 L33.5842 61.038 L33.5842 62.0218 L28.6074 62.0218 L28.6074 61.038 Z" fill="#000000" fill-rule="evenodd" fill-opacity="1" /><path clip-path="url(#clip780)" d="M 0 0 M37.3516 54.1514 Q36.4488 54.1514 35.9916 55.0426 Q35.5402 55.928 35.5402 57.7104 Q35.5402 59.487 35.9916 60.3782 Q36.4488 61.2637 37.3516 61.2637 Q38.2601 61.2637 38.7115 60.3782 Q39.1687 59.487 39.1687 57.7104 Q39.1687 55.928 38.7115 55.0426 Q38.2601 54.1514 37.3516 54.1514 M37.3516 53.2255 Q38.8041 53.2255 39.568 54.3771 Q40.3376 55.5229 40.3376 57.7104 Q40.3376 59.8921 39.568 61.0437 Q38.8041 62.1896 37.3516 62.1896 Q35.899 62.1896 35.1293 61.0437 Q34.3655 59.8921 34.3655 57.7104 Q34.3655 55.5229 35.1293 54.3771 Q35.899 53.2255 37.3516 53.2255 Z" fill="#000000" fill-rule="evenodd" fill-opacity="1" /><path clip-path="url(#clip780)" d="M 0 0 M40.3376 51.7508 L46.3655 51.7508 L46.3655 52.5502 L40.3376 52.5502 L40.3376 51.7508 Z" fill="#000000" fill-rule="evenodd" fill-opacity="1" /><path clip-path="url(#clip780)" d="M 0 0 M47.5598 54.3698 L49.1115 54.3698 L49.1115 49.0143 L47.4235 49.3528 L47.4235 48.4877 L49.1021 48.1492 L50.0519 48.1492 L50.0519 54.3698 L51.6035 54.3698 L51.6035 55.1692 L47.5598 55.1692 L47.5598 54.3698 Z" fill="#000000" fill-rule="evenodd" fill-opacity="1" /><g clip-path="url(#clip780)">
<text style="fill:#000000; fill-opacity:1; font-family:Arial,Helvetica Neue,Helvetica,sans-serif; font-size:16px; text-anchor:middle;" transform="rotate(-90, 18.0011, 142.973)" x="18.0011" y="142.973">relative residual norm</text>
</g>
<g clip-path="url(#clip780)">
<text style="fill:#000000; fill-opacity:1; font-family:Arial,Helvetica Neue,Helvetica,sans-serif; font-size:18px; font-weight:bold; text-anchor:middle;" transform="rotate(0, 263.496, 15.6)" x="263.496" y="15.6">Convergence of MINRES and CG</text>
</g>
<polyline clip-path="url(#clip782)" style="stroke:#009af9; stroke-width:2; stroke-opacity:1; fill:none" points="
  70.3899,35.1419 71.8753,46.1614 73.3608,54.1677 74.8462,60.4211 76.3316,65.5303 77.8171,69.8979 79.3025,73.9322 80.7879,77.5128 82.2734,80.4909 83.7588,83.2023 
  85.2442,85.7605 86.7297,88.0684 88.2151,90.2681 89.7005,92.2601 91.186,94.0538 92.6714,95.7914 94.1568,97.4746 95.6423,99.0536 97.1277,100.628 98.6131,102.049 
  100.099,103.356 101.584,104.666 103.069,105.946 104.555,107.234 106.04,108.449 107.526,109.557 109.011,110.656 110.497,111.774 111.982,112.782 113.467,113.834 
  114.953,114.792 116.438,115.752 117.924,116.713 119.409,117.649 120.895,118.528 122.38,119.415 123.865,120.269 125.351,121.145 126.836,121.988 128.322,122.793 
  129.807,123.601 131.293,124.414 132.778,125.241 134.264,126.06 135.749,126.846 137.234,127.583 138.72,128.338 140.205,129.073 141.691,129.814 143.176,130.53 
  144.662,131.267 146.147,131.982 147.632,132.682 149.118,133.378 150.603,134.089 152.089,134.776 153.574,135.508 155.06,136.197 156.545,136.892 158.03,137.608 
  159.516,138.288 161.001,138.954 162.487,139.663 163.972,140.35 165.458,141.002 166.943,141.653 168.428,142.355 169.914,143.011 171.399,143.7 172.885,144.368 
  174.37,145.038 175.856,145.709 177.341,146.368 178.827,147.065 180.312,147.732 181.797,148.372 183.283,149.022 184.768,149.676 186.254,150.325 187.739,151.006 
  189.225,151.658 190.71,152.354 192.195,152.997 193.681,153.653 195.166,154.326 196.652,154.992 198.137,155.641 199.623,156.293 201.108,156.939 202.593,157.615 
  204.079,158.263 205.564,158.89 207.05,159.562 208.535,160.197 210.021,160.82 211.506,161.503 212.992,162.181 214.477,162.825 215.962,163.503 217.448,164.151 
  218.933,164.836 220.419,165.513 221.904,166.146 223.39,166.795 224.875,167.442 226.36,168.141 227.846,168.798 229.331,169.447 230.817,170.095 232.302,170.759 
  233.788,171.431 235.273,172.081 236.758,172.734 238.244,173.465 239.729,174.113 241.215,174.767 242.7,175.472 244.186,176.142 245.671,176.78 247.156,177.448 
  248.642,178.112 250.127,178.798 251.613,179.477 253.098,180.113 254.584,180.757 256.069,181.426 257.555,182.091 259.04,182.775 260.525,183.462 262.011,184.114 
  263.496,184.783 264.982,185.447 266.467,186.112 267.953,186.808 269.438,187.494 270.923,188.145 272.409,188.769 273.894,189.476 275.38,190.158 276.865,190.818 
  278.351,191.472 279.836,192.182 281.321,192.866 282.807,193.555 284.292,194.21 285.778,194.891 287.263,195.527 288.749,196.203 290.234,196.875 291.719,197.529 
  293.205,198.19 294.69,198.848 296.176,199.544 297.661,200.234 299.147,200.875 300.632,201.553 302.118,202.212 303.603,202.876 305.088,203.541 306.574,204.172 
  308.059,204.839 309.545,205.525 311.03,206.202 312.516,206.874 314.001,207.597 315.486,208.26 316.972,208.971 318.457,209.663 319.943,210.338 321.428,211.042 
  322.914,211.716 324.399,212.383 325.884,213.076 327.37,213.784 328.855,214.475 330.341,215.129 331.826,215.829 333.312,216.503 334.797,217.188 336.282,217.847 
  337.768,218.531 339.253,219.202 340.739,219.868 342.224,220.544 343.71,221.225 345.195,221.885 346.681,222.548 348.166,223.225 349.651,223.92 351.137,224.625 
  352.622,225.29 354.108,225.978 355.593,226.641 357.079,227.319 358.564,228.029 360.049,228.728 361.535,229.441 363.02,230.17 364.506,230.896 365.991,231.551 
  367.477,232.261 368.962,232.97 370.447,233.637 371.933,234.319 373.418,234.986 374.904,235.686 376.389,236.374 377.875,237.069 379.36,237.754 380.845,238.425 
  382.331,239.086 383.816,239.78 385.302,240.424 386.787,241.073 388.273,241.751 389.758,242.443 391.244,243.13 392.729,243.822 394.214,244.527 395.7,245.18 
  397.185,245.867 398.671,246.56 400.156,247.245 401.642,247.936 403.127,248.631 404.612,249.31 406.098,250.01 407.583,250.707 409.069,251.4 
  "/>
<polyline clip-path="url(#clip782)" style="stroke:#e26f46; stroke-width:2; stroke-opacity:1; fill:none" points="
  70.3899,34.0711 71.8753,43.4753 73.3608,50.0085 74.8462,54.9255 76.3316,58.8329 77.8171,62.2097 79.3025,65.7253 80.7879,68.506 82.2734,70.2066 83.7588,72.2501 
  85.2442,74.3885 86.7297,75.9445 88.2151,77.7893 89.7005,79.0415 91.186,80.043 92.6714,81.539 94.1568,82.9796 95.6423,84.068 97.1277,85.6198 98.6131,86.2473 
  100.099,86.9056 101.584,88.2259 103.069,89.3287 104.555,90.6667 106.04,91.4202 107.526,91.8089 109.011,92.8324 110.497,94.0925 111.982,94.2741 113.467,95.6737 
  114.953,95.8761 116.438,96.8566 117.924,97.8246 119.409,98.551 120.895,98.9281 122.38,99.8826 123.865,100.44 125.351,101.516 126.836,102.051 128.322,102.482 
  129.807,103.325 131.293,104.179 132.778,105.148 134.264,105.889 135.749,106.353 137.234,106.556 138.72,107.504 140.205,108.031 141.691,108.834 143.176,109.282 
  144.662,110.243 146.147,110.711 147.632,111.246 149.118,111.881 150.603,112.785 152.089,113.181 153.574,114.426 155.06,114.636 156.545,115.393 158.03,116.344 
  159.516,116.615 161.001,117.111 162.487,118.329 163.972,118.757 165.458,118.986 166.943,119.614 168.428,120.935 169.914,121.052 171.399,122.125 172.885,122.552 
  174.37,123.234 175.856,123.935 177.341,124.426 178.827,125.594 180.312,125.907 181.797,126.2 183.283,126.97 184.768,127.694 186.254,128.26 187.739,129.35 
  189.225,129.637 190.71,130.866 192.195,130.865 193.681,131.688 195.166,132.559 196.652,133.149 198.137,133.593 199.623,134.27 201.108,134.849 202.593,135.883 
  204.079,136.198 205.564,136.557 207.05,137.787 208.535,137.961 210.021,138.44 211.506,139.863 212.992,140.485 214.477,140.703 215.962,141.795 217.448,142.085 
  218.933,143.221 220.419,143.804 221.904,143.889 223.39,144.741 224.875,145.358 226.36,146.687 227.846,146.842 229.331,147.395 230.817,148.025 232.302,148.885 
  233.788,149.663 235.273,150.034 236.758,150.737 238.244,152.38 239.729,152.032 241.215,152.782 242.7,154.091 244.186,154.34 245.671,154.591 247.156,155.627 
  248.642,156.244 250.127,157.197 251.613,157.786 253.098,157.885 254.584,158.648 256.069,159.615 257.555,160.23 259.04,161.145 260.525,161.873 262.011,162.1 
  263.496,162.965 264.982,163.58 266.467,164.254 267.953,165.328 269.438,165.881 270.923,166.113 272.409,166.394 273.894,168.115 275.38,168.513 276.865,168.897 
  278.351,169.487 279.836,170.857 281.321,171.228 282.807,171.99 284.292,172.234 285.778,173.222 287.263,173.308 288.749,174.485 290.234,175.094 291.719,175.539 
  293.205,176.287 294.69,176.906 296.176,178.049 297.661,178.68 299.147,178.713 300.632,179.861 302.118,180.273 303.603,181.007 305.088,181.685 306.574,181.894 
  308.059,182.999 309.545,183.926 311.03,184.486 312.516,185.108 314.001,186.411 315.486,186.39 316.972,187.647 318.457,188.133 319.943,188.598 321.428,189.654 
  322.914,189.969 324.399,190.542 325.884,191.562 327.37,192.429 328.855,192.937 330.341,193.131 331.826,194.389 333.312,194.762 334.797,195.567 336.282,195.915 
  337.768,196.901 339.253,197.425 340.739,198.015 342.224,198.823 343.71,199.565 345.195,199.958 346.681,200.669 348.166,201.518 349.651,202.416 351.137,203.246 
  352.622,203.437 354.108,204.398 355.593,204.759 357.079,205.618 358.564,206.696 360.049,207.281 361.535,208.148 363.02,209.058 364.506,209.747 365.991,209.567 
  367.477,210.928 368.962,211.623 370.447,211.782 371.933,212.617 373.418,213.104 374.904,214.108 376.389,214.569 377.875,215.437 379.36,215.98 380.845,216.56 
  382.331,217.071 383.816,218.358 385.302,218.358 386.787,219.108 388.273,220.073 389.758,221.041 391.244,221.612 392.729,222.32 394.214,223.154 395.7,223.182 
  397.185,224.289 398.671,225.042 400.156,225.631 401.642,226.384 403.127,227.135 404.612,227.624 406.098,228.568 407.583,229.236 409.069,229.872 410.554,230.752 
  412.04,231.158 413.525,231.935 415.01,232.169 416.496,233.33 417.981,233.155 419.467,234.407 420.952,235.171 422.438,236.177 423.923,236.571 425.408,237.392 
  426.894,238.115 428.379,238.62 429.865,238.933 431.35,239.996 432.836,240.114 434.321,240.857 435.807,242.309 437.292,241.868 438.777,243.353 440.263,243.548 
  441.748,244.622 443.234,245.374 444.719,245.888 446.205,247.017 447.69,247.612 449.175,247.949 450.661,249.405 452.146,249.647 453.632,250.473 455.117,250.813 
  456.603,251.874 
  "/>
<path clip-path="url(#clip780)" d="
M374.038 80.5927 L454.543 80.5927 L454.543 35.2327 L374.038 35.2327  Z
  " fill="#ffffff" fill-rule="evenodd" fill-opacity="1"/>
<polyline clip-path="url(#clip780)" style="stroke:#000000; stroke-width:1; stroke-opacity:1; fill:none" points="
  374.038,80.5927 454.543,80.5927 454.543,35.2327 374.038,35.2327 374.038,80.5927 
  "/>
<polyline clip-path="url(#clip780)" style="stroke:#009af9; stroke-width:1; stroke-opacity:1; fill:none" points="
  378.587,50.3527 405.879,50.3527 
  "/>
<path clip-path="url(#clip780)" d="M 0 0 M415.515 49.4355 Q415.914 48.7179 416.47 48.3765 Q417.025 48.035 417.778 48.035 Q418.79 48.035 419.34 48.7468 Q419.89 49.4529 419.89 50.7607 L419.89 54.6727 L418.819 54.6727 L418.819 50.7954 Q418.819 49.8637 418.489 49.4124 Q418.16 48.961 417.483 48.961 Q416.655 48.961 416.175 49.5107 Q415.694 50.0605 415.694 51.0096 L415.694 54.6727 L414.624 54.6727 L414.624 50.7954 Q414.624 49.858 414.294 49.4124 Q413.964 48.961 413.275 48.961 Q412.459 48.961 411.979 49.5165 Q411.499 50.0663 411.499 51.0096 L411.499 54.6727 L410.428 54.6727 L410.428 48.1913 L411.499 48.1913 L411.499 49.1982 Q411.863 48.6022 412.373 48.3186 Q412.882 48.035 413.582 48.035 Q414.288 48.035 414.78 48.3938 Q415.278 48.7526 415.515 49.4355 Z" fill="#000000" fill-rule="evenodd" fill-opacity="1" /><path clip-path="url(#clip780)" d="M 0 0 M421.007 48.1913 L422.072 48.1913 L422.072 54.6727 L421.007 54.6727 L421.007 48.1913 M421.007 45.6682 L422.072 45.6682 L422.072 47.0165 L421.007 47.0165 L421.007 45.6682 Z" fill="#000000" fill-rule="evenodd" fill-opacity="1" /><path clip-path="url(#clip780)" d="M 0 0 M428.576 50.7607 L428.576 54.6727 L427.511 54.6727 L427.511 50.7954 Q427.511 49.8753 427.153 49.4181 Q426.794 48.961 426.076 48.961 Q425.214 48.961 424.716 49.5107 Q424.219 50.0605 424.219 51.0096 L424.219 54.6727 L423.148 54.6727 L423.148 48.1913 L424.219 48.1913 L424.219 49.1982 Q424.601 48.6137 425.116 48.3244 Q425.636 48.035 426.313 48.035 Q427.43 48.035 428.003 48.7295 Q428.576 49.4181 428.576 50.7607 Z" fill="#000000" fill-rule="evenodd" fill-opacity="1" /><path clip-path="url(#clip780)" d="M 0 0 M433.449 49.1867 Q433.269 49.0825 433.055 49.0362 Q432.847 48.9841 432.592 48.9841 Q431.69 48.9841 431.204 49.5744 Q430.723 50.1589 430.723 51.2584 L430.723 54.6727 L429.653 54.6727 L429.653 48.1913 L430.723 48.1913 L430.723 49.1982 Q431.059 48.608 431.597 48.3244 Q432.135 48.035 432.905 48.035 Q433.015 48.035 433.148 48.0524 Q433.281 48.064 433.443 48.0929 L433.449 49.1867 Z" fill="#000000" fill-rule="evenodd" fill-opacity="1" /><path clip-path="url(#clip780)" d="M 0 0 M439.849 51.1658 L439.849 51.6866 L434.953 51.6866 Q435.023 52.7862 435.613 53.3649 Q436.209 53.9378 437.268 53.9378 Q437.882 53.9378 438.455 53.7873 Q439.033 53.6369 439.6 53.3359 L439.6 54.3429 Q439.028 54.5859 438.426 54.7132 Q437.824 54.8406 437.205 54.8406 Q435.654 54.8406 434.745 53.9378 Q433.842 53.035 433.842 51.4957 Q433.842 49.9042 434.699 48.9725 Q435.561 48.035 437.019 48.035 Q438.327 48.035 439.085 48.8799 Q439.849 49.7191 439.849 51.1658 M438.784 50.8533 Q438.773 49.9795 438.293 49.4586 Q437.818 48.9378 437.031 48.9378 Q436.14 48.9378 435.602 49.4413 Q435.069 49.9448 434.988 50.8591 L438.784 50.8533 Z" fill="#000000" fill-rule="evenodd" fill-opacity="1" /><path clip-path="url(#clip780)" d="M 0 0 M445.098 48.3823 L445.098 49.3892 Q444.647 49.1577 444.161 49.042 Q443.675 48.9262 443.154 48.9262 Q442.361 48.9262 441.962 49.1693 Q441.568 49.4124 441.568 49.8985 Q441.568 50.2688 441.852 50.4829 Q442.135 50.6913 442.992 50.8823 L443.356 50.9633 Q444.49 51.2063 444.965 51.6519 Q445.445 52.0917 445.445 52.8846 Q445.445 53.7873 444.728 54.3139 Q444.016 54.8406 442.766 54.8406 Q442.245 54.8406 441.678 54.7364 Q441.117 54.638 440.492 54.4355 L440.492 53.3359 Q441.082 53.6427 441.655 53.7989 Q442.228 53.9494 442.789 53.9494 Q443.541 53.9494 443.947 53.6947 Q444.352 53.4343 444.352 52.9656 Q444.352 52.5315 444.056 52.3001 Q443.767 52.0686 442.778 51.8545 L442.407 51.7677 Q441.418 51.5593 440.978 51.1311 Q440.538 50.6971 440.538 49.9448 Q440.538 49.0304 441.186 48.5327 Q441.834 48.035 443.026 48.035 Q443.617 48.035 444.137 48.1218 Q444.658 48.2087 445.098 48.3823 Z" fill="#000000" fill-rule="evenodd" fill-opacity="1" /><polyline clip-path="url(#clip780)" style="stroke:#e26f46; stroke-width:1; stroke-opacity:1; fill:none" points="
  378.587,65.4727 405.879,65.4727 
  "/>
<path clip-path="url(#clip780)" d="M 0 0 M415.555 63.5601 L415.555 64.5555 Q415.104 64.3067 414.647 64.1851 Q414.196 64.0578 413.733 64.0578 Q412.697 64.0578 412.124 64.7175 Q411.551 65.3715 411.551 66.5578 Q411.551 67.7441 412.124 68.4039 Q412.697 69.0578 413.733 69.0578 Q414.196 69.0578 414.647 68.9363 Q415.104 68.8089 415.555 68.5601 L415.555 69.5439 Q415.11 69.7522 414.63 69.8564 Q414.155 69.9606 413.617 69.9606 Q412.153 69.9606 411.29 69.0404 Q410.428 68.1203 410.428 66.5578 Q410.428 64.9722 411.296 64.0636 Q412.17 63.155 413.686 63.155 Q414.178 63.155 414.647 63.2592 Q415.116 63.3576 415.555 63.5601 Z" fill="#000000" fill-rule="evenodd" fill-opacity="1" /><path clip-path="url(#clip780)" d="M 0 0 M420.937 66.4768 Q420.937 65.3194 420.457 64.6828 Q419.983 64.0462 419.12 64.0462 Q418.264 64.0462 417.783 64.6828 Q417.309 65.3194 417.309 66.4768 Q417.309 67.6284 417.783 68.265 Q418.264 68.9015 419.12 68.9015 Q419.983 68.9015 420.457 68.265 Q420.937 67.6284 420.937 66.4768 M422.002 68.9883 Q422.002 70.6434 421.267 71.4478 Q420.532 72.258 419.016 72.258 Q418.455 72.258 417.957 72.1712 Q417.459 72.0902 416.991 71.9166 L416.991 70.8807 Q417.459 71.1353 417.917 71.2569 Q418.374 71.3784 418.848 71.3784 Q419.896 71.3784 420.417 70.8286 Q420.937 70.2846 420.937 69.1793 L420.937 68.6527 Q420.608 69.2256 420.092 69.5092 Q419.577 69.7927 418.86 69.7927 Q417.668 69.7927 416.939 68.8842 Q416.209 67.9756 416.209 66.4768 Q416.209 64.9722 416.939 64.0636 Q417.668 63.155 418.86 63.155 Q419.577 63.155 420.092 63.4386 Q420.608 63.7222 420.937 64.2951 L420.937 63.3113 L422.002 63.3113 L422.002 68.9883 Z" fill="#000000" fill-rule="evenodd" fill-opacity="1" /></svg>
