<?xml version="1.0" encoding="utf-8"?>
<svg xmlns="http://www.w3.org/2000/svg" xmlns:xlink="http://www.w3.org/1999/xlink" width="120" height="75" viewBox="0 0 480 300">
<defs>
  <clipPath id="clip740">
    <rect x="0" y="0" width="480" height="300"/>
  </clipPath>
</defs>
<path clip-path="url(#clip740)" d="
M0 300 L480 300 L480 0 L0 0  Z
  " fill="#ffffff" fill-rule="evenodd" fill-opacity="1"/>
<defs>
  <clipPath id="clip741">
    <rect x="96" y="0" width="337" height="300"/>
  </clipPath>
</defs>
<path clip-path="url(#clip740)" d="
M58.8035 258.408 L468.189 258.408 L468.189 27.537 L58.8035 27.537  Z
  " fill="#ffffff" fill-rule="evenodd" fill-opacity="1"/>
<defs>
  <clipPath id="clip742">
    <rect x="58" y="27" width="410" height="232"/>
  </clipPath>
</defs>
<polyline clip-path="url(#clip742)" style="stroke:#000000; stroke-width:0.5; stroke-opacity:0.1; fill:none" points="
  70.3899,258.408 70.3899,27.537 
  "/>
<polyline clip-path="url(#clip742)" style="stroke:#000000; stroke-width:0.5; stroke-opacity:0.1; fill:none" points="
  132.682,258.408 132.682,27.537 
  "/>
<polyline clip-path="url(#clip742)" style="stroke:#000000; stroke-width:0.5; stroke-opacity:0.1; fill:none" points="
  194.975,258.408 194.975,27.537 
  "/>
<polyline clip-path="url(#clip742)" style="stroke:#000000; stroke-width:0.5; stroke-opacity:0.1; fill:none" points="
  257.267,258.408 257.267,27.537 
  "/>
<polyline clip-path="url(#clip742)" style="stroke:#000000; stroke-width:0.5; stroke-opacity:0.1; fill:none" points="
  319.559,258.408 319.559,27.537 
  "/>
<polyline clip-path="url(#clip742)" style="stroke:#000000; stroke-width:0.5; stroke-opacity:0.1; fill:none" points="
  381.852,258.408 381.852,27.537 
  "/>
<polyline clip-path="url(#clip742)" style="stroke:#000000; stroke-width:0.5; stroke-opacity:0.1; fill:none" points="
  444.144,258.408 444.144,27.537 
  "/>
<polyline clip-path="url(#clip740)" style="stroke:#000000; stroke-width:1; stroke-opacity:1; fill:none" points="
  58.8035,258.408 468.189,258.408 
  "/>
<polyline clip-path="url(#clip740)" style="stroke:#000000; stroke-width:1; stroke-opacity:1; fill:none" points="
  70.3899,258.408 70.3899,255.638 
  "/>
<polyline clip-path="url(#clip740)" style="stroke:#000000; stroke-width:1; stroke-opacity:1; fill:none" points="
  132.682,258.408 132.682,255.638 
  "/>
<polyline clip-path="url(#clip740)" style="stroke:#000000; stroke-width:1; stroke-opacity:1; fill:none" points="
  194.975,258.408 194.975,255.638 
  "/>
<polyline clip-path="url(#clip740)" style="stroke:#000000; stroke-width:1; stroke-opacity:1; fill:none" points="
  257.267,258.408 257.267,255.638 
  "/>
<polyline clip-path="url(#clip740)" style="stroke:#000000; stroke-width:1; stroke-opacity:1; fill:none" points="
  319.559,258.408 319.559,255.638 
  "/>
<polyline clip-path="url(#clip740)" style="stroke:#000000; stroke-width:1; stroke-opacity:1; fill:none" points="
  381.852,258.408 381.852,255.638 
  "/>
<polyline clip-path="url(#clip740)" style="stroke:#000000; stroke-width:1; stroke-opacity:1; fill:none" points="
  444.144,258.408 444.144,255.638 
  "/>
<path clip-path="url(#clip740)" d="M 0 0 M70.3899 264.746 Q69.4871 264.746 69.0299 265.637 Q68.5786 266.523 68.5786 268.305 Q68.5786 270.082 69.0299 270.973 Q69.4871 271.858 70.3899 271.858 Q71.2984 271.858 71.7498 270.973 Q72.207 270.082 72.207 268.305 Q72.207 266.523 71.7498 265.637 Q71.2984 264.746 70.3899 264.746 M70.3899 263.82 Q71.8424 263.82 72.6063 264.972 Q73.376 266.118 73.376 268.305 Q73.376 270.487 72.6063 271.638 Q71.8424 272.784 70.3899 272.784 Q68.9373 272.784 68.1677 271.638 Q67.4038 270.487 67.4038 268.305 Q67.4038 266.118 68.1677 264.972 Q68.9373 263.82 70.3899 263.82 Z" fill="#000000" fill-rule="evenodd" fill-opacity="1" /><path clip-path="url(#clip740)" d="M 0 0 M126.901 271.633 L128.811 271.633 L128.811 265.041 L126.733 265.458 L126.733 264.393 L128.799 263.976 L129.968 263.976 L129.968 271.633 L131.878 271.633 L131.878 272.616 L126.901 272.616 L126.901 271.633 Z" fill="#000000" fill-rule="evenodd" fill-opacity="1" /><path clip-path="url(#clip740)" d="M 0 0 M135.645 264.746 Q134.742 264.746 134.285 265.637 Q133.834 266.523 133.834 268.305 Q133.834 270.082 134.285 270.973 Q134.742 271.858 135.645 271.858 Q136.554 271.858 137.005 270.973 Q137.462 270.082 137.462 268.305 Q137.462 266.523 137.005 265.637 Q136.554 264.746 135.645 264.746 M135.645 263.82 Q137.098 263.82 137.862 264.972 Q138.631 266.118 138.631 268.305 Q138.631 270.487 137.862 271.638 Q137.098 272.784 135.645 272.784 Q134.193 272.784 133.423 271.638 Q132.659 270.487 132.659 268.305 Q132.659 266.118 133.423 264.972 Q134.193 263.82 135.645 263.82 Z" fill="#000000" fill-rule="evenodd" fill-opacity="1" /><path clip-path="url(#clip740)" d="M 0 0 M190.261 271.633 L194.341 271.633 L194.341 272.616 L188.855 272.616 L188.855 271.633 Q189.52 270.944 190.666 269.787 Q191.818 268.623 192.113 268.288 Q192.674 267.657 192.894 267.223 Q193.12 266.783 193.12 266.361 Q193.12 265.672 192.634 265.238 Q192.153 264.804 191.378 264.804 Q190.828 264.804 190.215 264.995 Q189.607 265.186 188.913 265.574 L188.913 264.393 Q189.619 264.109 190.232 263.965 Q190.846 263.82 191.355 263.82 Q192.697 263.82 193.496 264.491 Q194.295 265.163 194.295 266.285 Q194.295 266.818 194.092 267.298 Q193.895 267.773 193.369 268.421 Q193.224 268.589 192.449 269.393 Q191.673 270.192 190.261 271.633 Z" fill="#000000" fill-rule="evenodd" fill-opacity="1" /><path clip-path="url(#clip740)" d="M 0 0 M198.108 264.746 Q197.206 264.746 196.748 265.637 Q196.297 266.523 196.297 268.305 Q196.297 270.082 196.748 270.973 Q197.206 271.858 198.108 271.858 Q199.017 271.858 199.468 270.973 Q199.925 270.082 199.925 268.305 Q199.925 266.523 199.468 265.637 Q199.017 264.746 198.108 264.746 M198.108 263.82 Q199.561 263.82 200.325 264.972 Q201.094 266.118 201.094 268.305 Q201.094 270.487 200.325 271.638 Q199.561 272.784 198.108 272.784 Q196.656 272.784 195.886 271.638 Q195.122 270.487 195.122 268.305 Q195.122 266.118 195.886 264.972 Q196.656 263.82 198.108 263.82 Z" fill="#000000" fill-rule="evenodd" fill-opacity="1" /><path clip-path="url(#clip740)" d="M 0 0 M254.952 267.958 Q255.791 268.137 256.26 268.704 Q256.735 269.271 256.735 270.105 Q256.735 271.384 255.855 272.084 Q254.975 272.784 253.355 272.784 Q252.811 272.784 252.232 272.674 Q251.659 272.57 251.046 272.356 L251.046 271.227 Q251.532 271.511 252.111 271.656 Q252.689 271.8 253.32 271.8 Q254.42 271.8 254.993 271.366 Q255.571 270.932 255.571 270.105 Q255.571 269.341 255.033 268.913 Q254.501 268.479 253.546 268.479 L252.539 268.479 L252.539 267.518 L253.592 267.518 Q254.455 267.518 254.912 267.177 Q255.369 266.829 255.369 266.181 Q255.369 265.516 254.894 265.163 Q254.426 264.804 253.546 264.804 Q253.066 264.804 252.516 264.908 Q251.966 265.012 251.306 265.232 L251.306 264.19 Q251.972 264.005 252.551 263.913 Q253.135 263.82 253.65 263.82 Q254.981 263.82 255.757 264.428 Q256.532 265.03 256.532 266.06 Q256.532 266.777 256.121 267.275 Q255.71 267.767 254.952 267.958 Z" fill="#000000" fill-rule="evenodd" fill-opacity="1" /><path clip-path="url(#clip740)" d="M 0 0 M260.502 264.746 Q259.599 264.746 259.142 265.637 Q258.691 266.523 258.691 268.305 Q258.691 270.082 259.142 270.973 Q259.599 271.858 260.502 271.858 Q261.41 271.858 261.862 270.973 Q262.319 270.082 262.319 268.305 Q262.319 266.523 261.862 265.637 Q261.41 264.746 260.502 264.746 M260.502 263.82 Q261.954 263.82 262.718 264.972 Q263.488 266.118 263.488 268.305 Q263.488 270.487 262.718 271.638 Q261.954 272.784 260.502 272.784 Q259.049 272.784 258.28 271.638 Q257.516 270.487 257.516 268.305 Q257.516 266.118 258.28 264.972 Q259.049 263.82 260.502 263.82 Z" fill="#000000" fill-rule="evenodd" fill-opacity="1" /><path clip-path="url(#clip740)" d="M 0 0 M316.935 264.995 L313.984 269.607 L316.935 269.607 L316.935 264.995 M316.628 263.976 L318.098 263.976 L318.098 269.607 L319.331 269.607 L319.331 270.579 L318.098 270.579 L318.098 272.616 L316.935 272.616 L316.935 270.579 L313.035 270.579 L313.035 269.451 L316.628 263.976 Z" fill="#000000" fill-rule="evenodd" fill-opacity="1" /><path clip-path="url(#clip740)" d="M 0 0 M323.098 264.746 Q322.195 264.746 321.738 265.637 Q321.287 266.523 321.287 268.305 Q321.287 270.082 321.738 270.973 Q322.195 271.858 323.098 271.858 Q324.007 271.858 324.458 270.973 Q324.915 270.082 324.915 268.305 Q324.915 266.523 324.458 265.637 Q324.007 264.746 323.098 264.746 M323.098 263.82 Q324.551 263.82 325.315 264.972 Q326.084 266.118 326.084 268.305 Q326.084 270.487 325.315 271.638 Q324.551 272.784 323.098 272.784 Q321.646 272.784 320.876 271.638 Q320.112 270.487 320.112 268.305 Q320.112 266.118 320.876 264.972 Q321.646 263.82 323.098 263.82 Z" fill="#000000" fill-rule="evenodd" fill-opacity="1" /><path clip-path="url(#clip740)" d="M 0 0 M376.044 263.976 L380.634 263.976 L380.634 264.96 L377.115 264.96 L377.115 267.078 Q377.37 266.991 377.624 266.951 Q377.879 266.905 378.134 266.905 Q379.58 266.905 380.425 267.697 Q381.27 268.49 381.27 269.844 Q381.27 271.239 380.402 272.015 Q379.534 272.784 377.954 272.784 Q377.41 272.784 376.843 272.692 Q376.282 272.599 375.68 272.414 L375.68 271.239 Q376.201 271.523 376.756 271.662 Q377.312 271.8 377.931 271.8 Q378.932 271.8 379.517 271.274 Q380.101 270.747 380.101 269.844 Q380.101 268.942 379.517 268.415 Q378.932 267.888 377.931 267.888 Q377.462 267.888 376.994 267.993 Q376.531 268.097 376.044 268.317 L376.044 263.976 Z" fill="#000000" fill-rule="evenodd" fill-opacity="1" /><path clip-path="url(#clip740)" d="M 0 0 M385.037 264.746 Q384.135 264.746 383.678 265.637 Q383.226 266.523 383.226 268.305 Q383.226 270.082 383.678 270.973 Q384.135 271.858 385.037 271.858 Q385.946 271.858 386.397 270.973 Q386.855 270.082 386.855 268.305 Q386.855 266.523 386.397 265.637 Q385.946 264.746 385.037 264.746 M385.037 263.82 Q386.49 263.82 387.254 264.972 Q388.024 266.118 388.024 268.305 Q388.024 270.487 387.254 271.638 Q386.49 272.784 385.037 272.784 Q383.585 272.784 382.815 271.638 Q382.051 270.487 382.051 268.305 Q382.051 266.118 382.815 264.972 Q383.585 263.82 385.037 263.82 Z" fill="#000000" fill-rule="evenodd" fill-opacity="1" /><path clip-path="url(#clip740)" d="M 0 0 M440.869 267.831 Q440.082 267.831 439.619 268.369 Q439.162 268.907 439.162 269.844 Q439.162 270.776 439.619 271.32 Q440.082 271.858 440.869 271.858 Q441.656 271.858 442.113 271.32 Q442.576 270.776 442.576 269.844 Q442.576 268.907 442.113 268.369 Q441.656 267.831 440.869 267.831 M443.189 264.167 L443.189 265.232 Q442.749 265.024 442.298 264.914 Q441.852 264.804 441.413 264.804 Q440.255 264.804 439.642 265.585 Q439.034 266.366 438.947 267.946 Q439.289 267.443 439.804 267.177 Q440.319 266.905 440.938 266.905 Q442.24 266.905 442.993 267.697 Q443.751 268.484 443.751 269.844 Q443.751 271.175 442.964 271.98 Q442.177 272.784 440.869 272.784 Q439.37 272.784 438.577 271.638 Q437.784 270.487 437.784 268.305 Q437.784 266.256 438.756 265.041 Q439.729 263.82 441.366 263.82 Q441.806 263.82 442.252 263.907 Q442.703 263.994 443.189 264.167 Z" fill="#000000" fill-rule="evenodd" fill-opacity="1" /><path clip-path="url(#clip740)" d="M 0 0 M447.518 264.746 Q446.615 264.746 446.158 265.637 Q445.707 266.523 445.707 268.305 Q445.707 270.082 446.158 270.973 Q446.615 271.858 447.518 271.858 Q448.427 271.858 448.878 270.973 Q449.335 270.082 449.335 268.305 Q449.335 266.523 448.878 265.637 Q448.427 264.746 447.518 264.746 M447.518 263.82 Q448.97 263.82 449.734 264.972 Q450.504 266.118 450.504 268.305 Q450.504 270.487 449.734 271.638 Q448.97 272.784 447.518 272.784 Q446.065 272.784 445.296 271.638 Q444.532 270.487 444.532 268.305 Q444.532 266.118 445.296 264.972 Q446.065 263.82 447.518 263.82 Z" fill="#000000" fill-rule="evenodd" fill-opacity="1" /><g clip-path="url(#clip740)">
<text style="fill:#000000; fill-opacity:1; font-family:Arial,Helvetica Neue,Helvetica,sans-serif; font-size:16px; text-anchor:middle;" transform="rotate(0, 263.496, 293.459)" x="263.496" y="293.459">Krylov dimension</text>
</g>
<polyline clip-path="url(#clip742)" style="stroke:#000000; stroke-width:0.5; stroke-opacity:0.1; fill:none" points="
  58.8035,250.967 468.189,250.967 
  "/>
<polyline clip-path="url(#clip742)" style="stroke:#000000; stroke-width:0.5; stroke-opacity:0.1; fill:none" points="
  58.8035,212.187 468.189,212.187 
  "/>
<polyline clip-path="url(#clip742)" style="stroke:#000000; stroke-width:0.5; stroke-opacity:0.1; fill:none" points="
  58.8035,173.407 468.189,173.407 
  "/>
<polyline clip-path="url(#clip742)" style="stroke:#000000; stroke-width:0.5; stroke-opacity:0.1; fill:none" points="
  58.8035,134.627 468.189,134.627 
  "/>
<polyline clip-path="url(#clip742)" style="stroke:#000000; stroke-width:0.5; stroke-opacity:0.1; fill:none" points="
  58.8035,95.8475 468.189,95.8475 
  "/>
<polyline clip-path="url(#clip742)" style="stroke:#000000; stroke-width:0.5; stroke-opacity:0.1; fill:none" points="
  58.8035,57.0677 468.189,57.0677 
  "/>
<polyline clip-path="url(#clip740)" style="stroke:#000000; stroke-width:1; stroke-opacity:1; fill:none" points="
  58.8035,258.408 58.8035,27.537 
  "/>
<polyline clip-path="url(#clip740)" style="stroke:#000000; stroke-width:1; stroke-opacity:1; fill:none" points="
  58.8035,250.967 63.7161,250.967 
  "/>
<polyline clip-path="url(#clip740)" style="stroke:#000000; stroke-width:1; stroke-opacity:1; fill:none" points="
  58.8035,212.187 63.7161,212.187 
  "/>
<polyline clip-path="url(#clip740)" style="stroke:#000000; stroke-width:1; stroke-opacity:1; fill:none" points="
  58.8035,173.407 63.7161,173.407 
  "/>
<polyline clip-path="url(#clip740)" style="stroke:#000000; stroke-width:1; stroke-opacity:1; fill:none" points="
  58.8035,134.627 63.7161,134.627 
  "/>
<polyline clip-path="url(#clip740)" style="stroke:#000000; stroke-width:1; stroke-opacity:1; fill:none" points="
  58.8035,95.8475 63.7161,95.8475 
  "/>
<polyline clip-path="url(#clip740)" style="stroke:#000000; stroke-width:1; stroke-opacity:1; fill:none" points="
  58.8035,57.0677 63.7161,57.0677 
  "/>
<path clip-path="url(#clip740)" d="M 0 0 M28.3253 255.915 L30.235 255.915 L30.235 249.324 L28.1574 249.74 L28.1574 248.675 L30.2234 248.259 L31.3924 248.259 L31.3924 255.915 L33.3021 255.915 L33.3021 256.899 L28.3253 256.899 L28.3253 255.915 Z" fill="#000000" fill-rule="evenodd" fill-opacity="1" /><path clip-path="url(#clip740)" d="M 0 0 M37.0694 249.028 Q36.1667 249.028 35.7095 249.92 Q35.2581 250.805 35.2581 252.587 Q35.2581 254.364 35.7095 255.255 Q36.1667 256.141 37.0694 256.141 Q37.978 256.141 38.4294 255.255 Q38.8866 254.364 38.8866 252.587 Q38.8866 250.805 38.4294 249.92 Q37.978 249.028 37.0694 249.028 M37.0694 248.102 Q38.522 248.102 39.2859 249.254 Q40.0555 250.4 40.0555 252.587 Q40.0555 254.769 39.2859 255.921 Q38.522 257.067 37.0694 257.067 Q35.6169 257.067 34.8472 255.921 Q34.0833 254.769 34.0833 252.587 Q34.0833 250.4 34.8472 249.254 Q35.6169 248.102 37.0694 248.102 Z" fill="#000000" fill-rule="evenodd" fill-opacity="1" /><path clip-path="url(#clip740)" d="M 0 0 M40.0555 246.628 L46.0834 246.628 L46.0834 247.427 L40.0555 247.427 L40.0555 246.628 Z" fill="#000000" fill-rule="evenodd" fill-opacity="1" /><path clip-path="url(#clip740)" d="M 0 0 M49.2619 246.158 Q48.6225 246.158 48.2463 246.595 Q47.8749 247.032 47.8749 247.794 Q47.8749 248.551 48.2463 248.993 Q48.6225 249.43 49.2619 249.43 Q49.9014 249.43 50.2729 248.993 Q50.649 248.551 50.649 247.794 Q50.649 247.032 50.2729 246.595 Q49.9014 246.158 49.2619 246.158 M51.1474 243.181 L51.1474 244.046 Q50.7901 243.877 50.4233 243.788 Q50.0613 243.698 49.7039 243.698 Q48.7635 243.698 48.2651 244.333 Q47.7714 244.968 47.7009 246.252 Q47.9783 245.843 48.3968 245.626 Q48.8153 245.405 49.3184 245.405 Q50.3763 245.405 50.9875 246.049 Q51.6035 246.689 51.6035 247.794 Q51.6035 248.875 50.964 249.529 Q50.3246 250.182 49.2619 250.182 Q48.0441 250.182 47.4 249.251 Q46.7558 248.316 46.7558 246.543 Q46.7558 244.879 47.5457 243.891 Q48.3357 242.899 49.6663 242.899 Q50.0236 242.899 50.3857 242.97 Q50.7525 243.04 51.1474 243.181 Z" fill="#000000" fill-rule="evenodd" fill-opacity="1" /><path clip-path="url(#clip740)" d="M 0 0 M28.5604 217.135 L30.4701 217.135 L30.4701 210.544 L28.3925 210.96 L28.3925 209.896 L30.4585 209.479 L31.6275 209.479 L31.6275 217.135 L33.5372 217.135 L33.5372 218.119 L28.5604 218.119 L28.5604 217.135 Z" fill="#000000" fill-rule="evenodd" fill-opacity="1" /><path clip-path="url(#clip740)" d="M 0 0 M37.3045 210.249 Q36.4018 210.249 35.9446 211.14 Q35.4932 212.025 35.4932 213.808 Q35.4932 215.584 35.9446 216.475 Q36.4018 217.361 37.3045 217.361 Q38.2131 217.361 38.6645 216.475 Q39.1217 215.584 39.1217 213.808 Q39.1217 212.025 38.6645 211.14 Q38.2131 210.249 37.3045 210.249 M37.3045 209.323 Q38.7571 209.323 39.521 210.474 Q40.2906 211.62 40.2906 213.808 Q40.2906 215.989 39.521 217.141 Q38.7571 218.287 37.3045 218.287 Q35.852 218.287 35.0823 217.141 Q34.3184 215.989 34.3184 213.808 Q34.3184 211.62 35.0823 210.474 Q35.852 209.323 37.3045 209.323 Z" fill="#000000" fill-rule="evenodd" fill-opacity="1" /><path clip-path="url(#clip740)" d="M 0 0 M40.2906 207.848 L46.3185 207.848 L46.3185 208.647 L40.2906 208.647 L40.2906 207.848 Z" fill="#000000" fill-rule="evenodd" fill-opacity="1" /><path clip-path="url(#clip740)" d="M 0 0 M47.3576 204.246 L51.0863 204.246 L51.0863 205.046 L48.2275 205.046 L48.2275 206.767 Q48.4344 206.696 48.6413 206.663 Q48.8482 206.625 49.055 206.625 Q50.2305 206.625 50.917 207.27 Q51.6035 207.914 51.6035 209.014 Q51.6035 210.147 50.8982 210.777 Q50.1929 211.403 48.9093 211.403 Q48.4673 211.403 48.0065 211.327 Q47.5504 211.252 47.0614 211.102 L47.0614 210.147 Q47.4846 210.378 47.936 210.49 Q48.3874 210.603 48.8905 210.603 Q49.7039 210.603 50.1788 210.175 Q50.6537 209.748 50.6537 209.014 Q50.6537 208.281 50.1788 207.853 Q49.7039 207.425 48.8905 207.425 Q48.5096 207.425 48.1288 207.509 Q47.7526 207.594 47.3576 207.773 L47.3576 204.246 Z" fill="#000000" fill-rule="evenodd" fill-opacity="1" /><path clip-path="url(#clip740)" d="M 0 0 M28.2594 178.355 L30.1692 178.355 L30.1692 171.764 L28.0916 172.181 L28.0916 171.116 L30.1576 170.699 L31.3266 170.699 L31.3266 178.355 L33.2363 178.355 L33.2363 179.339 L28.2594 179.339 L28.2594 178.355 Z" fill="#000000" fill-rule="evenodd" fill-opacity="1" /><path clip-path="url(#clip740)" d="M 0 0 M37.0036 171.469 Q36.1008 171.469 35.6437 172.36 Q35.1923 173.245 35.1923 175.028 Q35.1923 176.804 35.6437 177.696 Q36.1008 178.581 37.0036 178.581 Q37.9122 178.581 38.3636 177.696 Q38.8207 176.804 38.8207 175.028 Q38.8207 173.245 38.3636 172.36 Q37.9122 171.469 37.0036 171.469 M37.0036 170.543 Q38.4561 170.543 39.22 171.694 Q39.9897 172.84 39.9897 175.028 Q39.9897 177.209 39.22 178.361 Q38.4561 179.507 37.0036 179.507 Q35.5511 179.507 34.7814 178.361 Q34.0175 177.209 34.0175 175.028 Q34.0175 172.84 34.7814 171.694 Q35.5511 170.543 37.0036 170.543 Z" fill="#000000" fill-rule="evenodd" fill-opacity="1" /><path clip-path="url(#clip740)" d="M 0 0 M39.9897 169.068 L46.0176 169.068 L46.0176 169.867 L39.9897 169.867 L39.9897 169.068 Z" fill="#000000" fill-rule="evenodd" fill-opacity="1" /><path clip-path="url(#clip740)" d="M 0 0 M49.6569 166.294 L47.2589 170.041 L49.6569 170.041 L49.6569 166.294 M49.4077 165.466 L50.602 165.466 L50.602 170.041 L51.6035 170.041 L51.6035 170.831 L50.602 170.831 L50.602 172.486 L49.6569 172.486 L49.6569 170.831 L46.4878 170.831 L46.4878 169.915 L49.4077 165.466 Z" fill="#000000" fill-rule="evenodd" fill-opacity="1" /><path clip-path="url(#clip740)" d="M 0 0 M28.4898 139.575 L30.3996 139.575 L30.3996 132.984 L28.322 133.401 L28.322 132.336 L30.388 131.919 L31.557 131.919 L31.557 139.575 L33.4667 139.575 L33.4667 140.559 L28.4898 140.559 L28.4898 139.575 Z" fill="#000000" fill-rule="evenodd" fill-opacity="1" /><path clip-path="url(#clip740)" d="M 0 0 M37.234 132.689 Q36.3312 132.689 35.8741 133.58 Q35.4227 134.466 35.4227 136.248 Q35.4227 138.025 35.8741 138.916 Q36.3312 139.801 37.234 139.801 Q38.1426 139.801 38.594 138.916 Q39.0511 138.025 39.0511 136.248 Q39.0511 134.466 38.594 133.58 Q38.1426 132.689 37.234 132.689 M37.234 131.763 Q38.6865 131.763 39.4504 132.915 Q40.2201 134.06 40.2201 136.248 Q40.2201 138.43 39.4504 139.581 Q38.6865 140.727 37.234 140.727 Q35.7815 140.727 35.0118 139.581 Q34.2479 138.43 34.2479 136.248 Q34.2479 134.06 35.0118 132.915 Q35.7815 131.763 37.234 131.763 Z" fill="#000000" fill-rule="evenodd" fill-opacity="1" /><path clip-path="url(#clip740)" d="M 0 0 M40.2201 130.288 L46.248 130.288 L46.248 131.088 L40.2201 131.088 L40.2201 130.288 Z" fill="#000000" fill-rule="evenodd" fill-opacity="1" /><path clip-path="url(#clip740)" d="M 0 0 M50.1553 129.922 Q50.8371 130.067 51.2179 130.528 Q51.6035 130.989 51.6035 131.666 Q51.6035 132.705 50.8888 133.274 Q50.1741 133.843 48.8576 133.843 Q48.4156 133.843 47.9454 133.754 Q47.4799 133.669 46.9815 133.495 L46.9815 132.578 Q47.3765 132.809 47.8467 132.926 Q48.3168 133.044 48.8294 133.044 Q49.7227 133.044 50.1882 132.691 Q50.6584 132.338 50.6584 131.666 Q50.6584 131.045 50.2211 130.697 Q49.7886 130.345 49.0127 130.345 L48.1946 130.345 L48.1946 129.564 L49.0503 129.564 Q49.7509 129.564 50.1224 129.287 Q50.4938 129.005 50.4938 128.478 Q50.4938 127.937 50.1083 127.651 Q49.7274 127.359 49.0127 127.359 Q48.6225 127.359 48.1758 127.444 Q47.7291 127.528 47.1931 127.707 L47.1931 126.861 Q47.7338 126.71 48.204 126.635 Q48.6789 126.56 49.0974 126.56 Q50.1788 126.56 50.8089 127.053 Q51.4389 127.542 51.4389 128.379 Q51.4389 128.962 51.1051 129.367 Q50.7713 129.766 50.1553 129.922 Z" fill="#000000" fill-rule="evenodd" fill-opacity="1" /><path clip-path="url(#clip740)" d="M 0 0 M28.6826 100.796 L30.5923 100.796 L30.5923 94.2042 L28.5148 94.6209 L28.5148 93.5561 L30.5808 93.1394 L31.7497 93.1394 L31.7497 100.796 L33.6594 100.796 L33.6594 101.779 L28.6826 101.779 L28.6826 100.796 Z" fill="#000000" fill-rule="evenodd" fill-opacity="1" /><path clip-path="url(#clip740)" d="M 0 0 M37.4268 93.9091 Q36.524 93.9091 36.0668 94.8003 Q35.6155 95.6857 35.6155 97.4681 Q35.6155 99.2447 36.0668 100.136 Q36.524 101.021 37.4268 101.021 Q38.3353 101.021 38.7867 100.136 Q39.2439 99.2447 39.2439 97.4681 Q39.2439 95.6857 38.7867 94.8003 Q38.3353 93.9091 37.4268 93.9091 M37.4268 92.9832 Q38.8793 92.9832 39.6432 94.1348 Q40.4129 95.2806 40.4129 97.4681 Q40.4129 99.6498 39.6432 100.801 Q38.8793 101.947 37.4268 101.947 Q35.9742 101.947 35.2046 100.801 Q34.4407 99.6498 34.4407 97.4681 Q34.4407 95.2806 35.2046 94.1348 Q35.9742 92.9832 37.4268 92.9832 Z" fill="#000000" fill-rule="evenodd" fill-opacity="1" /><path clip-path="url(#clip740)" d="M 0 0 M40.4129 91.5085 L46.4408 91.5085 L46.4408 92.3078 L40.4129 92.3078 L40.4129 91.5085 Z" fill="#000000" fill-rule="evenodd" fill-opacity="1" /><path clip-path="url(#clip740)" d="M 0 0 M48.2886 94.1275 L51.6035 94.1275 L51.6035 94.9268 L47.1461 94.9268 L47.1461 94.1275 Q47.6868 93.568 48.6178 92.6276 Q49.5535 91.6825 49.7933 91.4098 Q50.2493 90.8973 50.428 90.5446 Q50.6114 90.1873 50.6114 89.844 Q50.6114 89.2845 50.2164 88.9318 Q49.8262 88.5792 49.1961 88.5792 Q48.7494 88.5792 48.251 88.7344 Q47.7573 88.8895 47.1931 89.2046 L47.1931 88.2454 Q47.7667 88.015 48.2651 87.8974 Q48.7635 87.7799 49.1773 87.7799 Q50.2682 87.7799 50.917 88.3253 Q51.5659 88.8707 51.5659 89.7829 Q51.5659 90.2155 51.4013 90.6057 Q51.2415 90.9913 50.8136 91.5179 Q50.696 91.6543 50.066 92.3078 Q49.4359 92.9567 48.2886 94.1275 Z" fill="#000000" fill-rule="evenodd" fill-opacity="1" /><path clip-path="url(#clip740)" d="M 0 0 M28.6074 62.0158 L30.5171 62.0158 L30.5171 55.4244 L28.4396 55.8411 L28.4396 54.7763 L30.5055 54.3596 L31.6745 54.3596 L31.6745 62.0158 L33.5842 62.0158 L33.5842 62.9996 L28.6074 62.9996 L28.6074 62.0158 Z" fill="#000000" fill-rule="evenodd" fill-opacity="1" /><path clip-path="url(#clip740)" d="M 0 0 M37.3516 55.1293 Q36.4488 55.1293 35.9916 56.0205 Q35.5402 56.9059 35.5402 58.6883 Q35.5402 60.4649 35.9916 61.3561 Q36.4488 62.2415 37.3516 62.2415 Q38.2601 62.2415 38.7115 61.3561 Q39.1687 60.4649 39.1687 58.6883 Q39.1687 56.9059 38.7115 56.0205 Q38.2601 55.1293 37.3516 55.1293 M37.3516 54.2034 Q38.8041 54.2034 39.568 55.355 Q40.3376 56.5008 40.3376 58.6883 Q40.3376 60.87 39.568 62.0216 Q38.8041 63.1674 37.3516 63.1674 Q35.899 63.1674 35.1293 62.0216 Q34.3655 60.87 34.3655 58.6883 Q34.3655 56.5008 35.1293 55.355 Q35.899 54.2034 37.3516 54.2034 Z" fill="#000000" fill-rule="evenodd" fill-opacity="1" /><path clip-path="url(#clip740)" d="M 0 0 M40.3376 52.7287 L46.3655 52.7287 L46.3655 53.528 L40.3376 53.528 L40.3376 52.7287 Z" fill="#000000" fill-rule="evenodd" fill-opacity="1" /><path clip-path="url(#clip740)" d="M 0 0 M47.5598 55.3477 L49.1115 55.3477 L49.1115 49.9922 L47.4235 50.3307 L47.4235 49.4655 L49.1021 49.127 L50.0519 49.127 L50.0519 55.3477 L51.6035 55.3477 L51.6035 56.147 L47.5598 56.147 L47.5598 55.3477 Z" fill="#000000" fill-rule="evenodd" fill-opacity="1" /><g clip-path="url(#clip740)">
<text style="fill:#000000; fill-opacity:1; font-family:Arial,Helvetica Neue,Helvetica,sans-serif; font-size:16px; text-anchor:middle;" transform="rotate(-90, 18.0011, 142.973)" x="18.0011" y="142.973">relative residual norm</text>
</g>
<g clip-path="url(#clip740)">
<text style="fill:#000000; fill-opacity:1; font-family:Arial,Helvetica Neue,Helvetica,sans-serif; font-size:18px; font-weight:bold; text-anchor:middle;" transform="rotate(0, 263.496, 15.6)" x="263.496" y="15.6">Convergence of MINRES and CG</text>
</g>
<polyline clip-path="url(#clip742)" style="stroke:#009af9; stroke-width:2; stroke-opacity:1; fill:none" points="
  70.3899,35.2734 76.6191,45.2418 82.8484,52.468 89.0776,58.4929 95.3068,63.6161 101.536,68.0585 107.765,72.0706 113.995,75.853 120.224,79.532 126.453,82.9358 
  132.682,86.3441 138.911,89.7071 145.141,93.1166 151.37,96.3876 157.599,99.7779 163.828,103.12 170.058,106.404 176.287,109.59 182.516,112.84 188.745,116.145 
  194.975,119.423 201.204,122.819 207.433,126.131 213.662,129.519 219.892,132.85 226.121,136.181 232.35,139.56 238.579,143.007 244.809,146.351 251.038,149.638 
  257.267,153.074 263.496,156.52 269.725,159.907 275.955,163.253 282.184,166.589 288.413,169.987 294.642,173.249 300.872,176.689 307.101,180.054 313.33,183.434 
  319.559,186.794 325.789,190.137 332.018,193.545 338.247,196.931 344.476,200.315 350.706,203.611 356.935,207.059 363.164,210.277 369.393,213.634 375.623,217.029 
  381.852,220.408 388.081,223.913 394.31,227.295 400.539,230.658 406.769,234.015 412.998,237.43 419.227,240.794 425.456,244.237 431.686,247.601 437.915,250.994 
  
  "/>
<polyline clip-path="url(#clip742)" style="stroke:#e26f46; stroke-width:2; stroke-opacity:1; fill:none" points="
  70.3899,34.0711 76.6191,42.1643 82.8484,47.8233 89.0776,52.8397 95.3068,56.9992 101.536,60.5495 107.765,63.9006 113.995,67.2928 120.224,70.7861 126.453,73.6633 
  132.682,77.0806 138.911,80.352 145.141,83.8555 151.37,86.842 157.599,90.4782 163.828,93.7236 170.058,96.8837 176.287,99.8623 182.516,103.249 188.745,106.672 
  194.975,109.891 201.204,113.531 207.433,116.672 213.662,120.213 219.892,123.431 226.121,126.759 232.35,130.237 238.579,133.82 244.809,136.958 251.038,140.126 
  257.267,143.864 263.496,147.331 269.725,150.602 275.955,153.862 282.184,157.18 288.413,160.701 294.642,163.685 300.872,167.487 307.101,170.703 313.33,174.115 
  319.559,177.432 325.789,180.742 332.018,184.28 338.247,187.623 344.476,191.004 350.706,194.117 356.935,197.875 363.164,200.617 369.393,204.267 375.623,207.739 
  381.852,211.085 388.081,214.84 394.31,217.978 400.539,221.303 406.769,224.649 412.998,228.179 419.227,231.441 425.456,235.041 431.686,238.249 437.915,241.699 
  444.144,244.714 450.373,248.564 456.603,251.874 
  "/>
<path clip-path="url(#clip740)" d="
M374.038 80.5927 L454.543 80.5927 L454.543 35.2327 L374.038 35.2327  Z
  " fill="#ffffff" fill-rule="evenodd" fill-opacity="1"/>
<polyline clip-path="url(#clip740)" style="stroke:#000000; stroke-width:1; stroke-opacity:1; fill:none" points="
  374.038,80.5927 454.543,80.5927 454.543,35.2327 374.038,35.2327 374.038,80.5927 
  "/>
<polyline clip-path="url(#clip740)" style="stroke:#009af9; stroke-width:1; stroke-opacity:1; fill:none" points="
  378.587,50.3527 405.879,50.3527 
  "/>
<path clip-path="url(#clip740)" d="M 0 0 M415.515 49.4355 Q415.914 48.7179 416.47 48.3765 Q417.025 48.035 417.778 48.035 Q418.79 48.035 419.34 48.7468 Q419.89 49.4529 419.89 50.7607 L419.89 54.6727 L418.819 54.6727 L418.819 50.7954 Q418.819 49.8637 418.489 49.4124 Q418.16 48.961 417.483 48.961 Q416.655 48.961 416.175 49.5107 Q415.694 50.0605 415.694 51.0096 L415.694 54.6727 L414.624 54.6727 L414.624 50.7954 Q414.624 49.858 414.294 49.4124 Q413.964 48.961 413.275 48.961 Q412.459 48.961 411.979 49.5165 Q411.499 50.0663 411.499 51.0096 L411.499 54.6727 L410.428 54.6727 L410.428 48.1913 L411.499 48.1913 L411.499 49.1982 Q411.863 48.6022 412.373 48.3186 Q412.882 48.035 413.582 48.035 Q414.288 48.035 414.78 48.3938 Q415.278 48.7526 415.515 49.4355 Z" fill="#000000" fill-rule="evenodd" fill-opacity="1" /><path clip-path="url(#clip740)" d="M 0 0 M421.007 48.1913 L422.072 48.1913 L422.072 54.6727 L421.007 54.6727 L421.007 48.1913 M421.007 45.6682 L422.072 45.6682 L422.072 47.0165 L421.007 47.0165 L421.007 45.6682 Z" fill="#000000" fill-rule="evenodd" fill-opacity="1" /><path clip-path="url(#clip740)" d="M 0 0 M428.576 50.7607 L428.576 54.6727 L427.511 54.6727 L427.511 50.7954 Q427.511 49.8753 427.153 49.4181 Q426.794 48.961 426.076 48.961 Q425.214 48.961 424.716 49.5107 Q424.219 50.0605 424.219 51.0096 L424.219 54.6727 L423.148 54.6727 L423.148 48.1913 L424.219 48.1913 L424.219 49.1982 Q424.601 48.6137 425.116 48.3244 Q425.636 48.035 426.313 48.035 Q427.43 48.035 428.003 48.7295 Q428.576 49.4181 428.576 50.7607 Z" fill="#000000" fill-rule="evenodd" fill-opacity="1" /><path clip-path="url(#clip740)" d="M 0 0 M433.449 49.1867 Q433.269 49.0825 433.055 49.0362 Q432.847 48.9841 432.592 48.9841 Q431.69 48.9841 431.204 49.5744 Q430.723 50.1589 430.723 51.2584 L430.723 54.6727 L429.653 54.6727 L429.653 48.1913 L430.723 48.1913 L430.723 49.1982 Q431.059 48.608 431.597 48.3244 Q432.135 48.035 432.905 48.035 Q433.015 48.035 433.148 48.0524 Q433.281 48.064 433.443 48.0929 L433.449 49.1867 Z" fill="#000000" fill-rule="evenodd" fill-opacity="1" /><path clip-path="url(#clip740)" d="M 0 0 M439.849 51.1658 L439.849 51.6866 L434.953 51.6866 Q435.023 52.7862 435.613 53.3649 Q436.209 53.9378 437.268 53.9378 Q437.882 53.9378 438.455 53.7873 Q439.033 53.6369 439.6 53.3359 L439.6 54.3429 Q439.028 54.5859 438.426 54.7132 Q437.824 54.8406 437.205 54.8406 Q435.654 54.8406 434.745 53.9378 Q433.842 53.035 433.842 51.4957 Q433.842 49.9042 434.699 48.9725 Q435.561 48.035 437.019 48.035 Q438.327 48.035 439.085 48.8799 Q439.849 49.7191 439.849 51.1658 M438.784 50.8533 Q438.773 49.9795 438.293 49.4586 Q437.818 48.9378 437.031 48.9378 Q436.14 48.9378 435.602 49.4413 Q435.069 49.9448 434.988 50.8591 L438.784 50.8533 Z" fill="#000000" fill-rule="evenodd" fill-opacity="1" /><path clip-path="url(#clip740)" d="M 0 0 M445.098 48.3823 L445.098 49.3892 Q444.647 49.1577 444.161 49.042 Q443.675 48.9262 443.154 48.9262 Q442.361 48.9262 441.962 49.1693 Q441.568 49.4124 441.568 49.8985 Q441.568 50.2688 441.852 50.4829 Q442.135 50.6913 442.992 50.8823 L443.356 50.9633 Q444.49 51.2063 444.965 51.6519 Q445.445 52.0917 445.445 52.8846 Q445.445 53.7873 444.728 54.3139 Q444.016 54.8406 442.766 54.8406 Q442.245 54.8406 441.678 54.7364 Q441.117 54.638 440.492 54.4355 L440.492 53.3359 Q441.082 53.6427 441.655 53.7989 Q442.228 53.9494 442.789 53.9494 Q443.541 53.9494 443.947 53.6947 Q444.352 53.4343 444.352 52.9656 Q444.352 52.5315 444.056 52.3001 Q443.767 52.0686 442.778 51.8545 L442.407 51.7677 Q441.418 51.5593 440.978 51.1311 Q440.538 50.6971 440.538 49.9448 Q440.538 49.0304 441.186 48.5327 Q441.834 48.035 443.026 48.035 Q443.617 48.035 444.137 48.1218 Q444.658 48.2087 445.098 48.3823 Z" fill="#000000" fill-rule="evenodd" fill-opacity="1" /><polyline clip-path="url(#clip740)" style="stroke:#e26f46; stroke-width:1; stroke-opacity:1; fill:none" points="
  378.587,65.4727 405.879,65.4727 
  "/>
<path clip-path="url(#clip740)" d="M 0 0 M415.555 63.5601 L415.555 64.5555 Q415.104 64.3067 414.647 64.1851 Q414.196 64.0578 413.733 64.0578 Q412.697 64.0578 412.124 64.7175 Q411.551 65.3715 411.551 66.5578 Q411.551 67.7441 412.124 68.4039 Q412.697 69.0578 413.733 69.0578 Q414.196 69.0578 414.647 68.9363 Q415.104 68.8089 415.555 68.5601 L415.555 69.5439 Q415.11 69.7522 414.63 69.8564 Q414.155 69.9606 413.617 69.9606 Q412.153 69.9606 411.29 69.0404 Q410.428 68.1203 410.428 66.5578 Q410.428 64.9722 411.296 64.0636 Q412.17 63.155 413.686 63.155 Q414.178 63.155 414.647 63.2592 Q415.116 63.3576 415.555 63.5601 Z" fill="#000000" fill-rule="evenodd" fill-opacity="1" /><path clip-path="url(#clip740)" d="M 0 0 M420.937 66.4768 Q420.937 65.3194 420.457 64.6828 Q419.983 64.0462 419.12 64.0462 Q418.264 64.0462 417.783 64.6828 Q417.309 65.3194 417.309 66.4768 Q417.309 67.6284 417.783 68.265 Q418.264 68.9015 419.12 68.9015 Q419.983 68.9015 420.457 68.265 Q420.937 67.6284 420.937 66.4768 M422.002 68.9883 Q422.002 70.6434 421.267 71.4478 Q420.532 72.258 419.016 72.258 Q418.455 72.258 417.957 72.1712 Q417.459 72.0902 416.991 71.9166 L416.991 70.8807 Q417.459 71.1353 417.917 71.2569 Q418.374 71.3784 418.848 71.3784 Q419.896 71.3784 420.417 70.8286 Q420.937 70.2846 420.937 69.1793 L420.937 68.6527 Q420.608 69.2256 420.092 69.5092 Q419.577 69.7927 418.86 69.7927 Q417.668 69.7927 416.939 68.8842 Q416.209 67.9756 416.209 66.4768 Q416.209 64.9722 416.939 64.0636 Q417.668 63.155 418.86 63.155 Q419.577 63.155 420.092 63.4386 Q420.608 63.7222 420.937 64.2951 L420.937 63.3113 L422.002 63.3113 L422.002 68.9883 Z" fill="#000000" fill-rule="evenodd" fill-opacity="1" /></svg>
