<?xml version="1.0" encoding="utf-8"?>
<svg xmlns="http://www.w3.org/2000/svg" xmlns:xlink="http://www.w3.org/1999/xlink" width="120" height="75" viewBox="0 0 480 300">
<defs>
  <clipPath id="clip760">
    <rect x="0" y="0" width="480" height="300"/>
  </clipPath>
</defs>
<path clip-path="url(#clip760)" d="
M0 300 L480 300 L480 0 L0 0  Z
  " fill="#ffffff" fill-rule="evenodd" fill-opacity="1"/>
<defs>
  <clipPath id="clip761">
    <rect x="96" y="0" width="337" height="300"/>
  </clipPath>
</defs>
<defs>
  <clipPath id="clip762">
    <rect x="60" y="27" width="409" height="238"/>
  </clipPath>
</defs>
<path clip-path="url(#clip760)" d="
M26.8443 273.152 L468.189 273.152 L468.189 27.537 L26.8443 27.537  Z
  " fill="#ffffff" fill-rule="evenodd" fill-opacity="1"/>
<defs>
  <clipPath id="clip763">
    <rect x="26" y="27" width="442" height="247"/>
  </clipPath>
</defs>
<polyline clip-path="url(#clip763)" style="stroke:#000000; stroke-width:0.5; stroke-opacity:0.1; fill:none" points="
  45.6669,273.152 45.6669,27.537 
  "/>
<polyline clip-path="url(#clip763)" style="stroke:#000000; stroke-width:0.5; stroke-opacity:0.1; fill:none" points="
  131.661,273.152 131.661,27.537 
  "/>
<polyline clip-path="url(#clip763)" style="stroke:#000000; stroke-width:0.5; stroke-opacity:0.1; fill:none" points="
  217.654,273.152 217.654,27.537 
  "/>
<polyline clip-path="url(#clip763)" style="stroke:#000000; stroke-width:0.5; stroke-opacity:0.1; fill:none" points="
  303.648,273.152 303.648,27.537 
  "/>
<polyline clip-path="url(#clip763)" style="stroke:#000000; stroke-width:0.5; stroke-opacity:0.1; fill:none" points="
  389.641,273.152 389.641,27.537 
  "/>
<polyline clip-path="url(#clip760)" style="stroke:#000000; stroke-width:1; stroke-opacity:1; fill:none" points="
  26.8443,273.152 468.189,273.152 
  "/>
<polyline clip-path="url(#clip760)" style="stroke:#000000; stroke-width:1; stroke-opacity:1; fill:none" points="
  45.6669,273.152 45.6669,270.205 
  "/>
<polyline clip-path="url(#clip760)" style="stroke:#000000; stroke-width:1; stroke-opacity:1; fill:none" points="
  131.661,273.152 131.661,270.205 
  "/>
<polyline clip-path="url(#clip760)" style="stroke:#000000; stroke-width:1; stroke-opacity:1; fill:none" points="
  217.654,273.152 217.654,270.205 
  "/>
<polyline clip-path="url(#clip760)" style="stroke:#000000; stroke-width:1; stroke-opacity:1; fill:none" points="
  303.648,273.152 303.648,270.205 
  "/>
<polyline clip-path="url(#clip760)" style="stroke:#000000; stroke-width:1; stroke-opacity:1; fill:none" points="
  389.641,273.152 389.641,270.205 
  "/>
<path clip-path="url(#clip760)" d="M 0 0 M38.7804 283.153 L46.1993 283.153 L46.1993 284.137 L38.7804 284.137 L38.7804 283.153 Z" fill="#000000" fill-rule="evenodd" fill-opacity="1" /><path clip-path="url(#clip760)" d="M 0 0 M48.4736 286.376 L52.5535 286.376 L52.5535 287.36 L47.0674 287.36 L47.0674 286.376 Q47.7329 285.688 48.8787 284.53 Q50.0303 283.367 50.3255 283.031 Q50.8868 282.401 51.1067 281.966 Q51.3324 281.527 51.3324 281.104 Q51.3324 280.416 50.8463 279.982 Q50.366 279.548 49.5905 279.548 Q49.0407 279.548 48.4273 279.738 Q47.8197 279.929 47.1252 280.317 L47.1252 279.137 Q47.8313 278.853 48.4447 278.708 Q49.0581 278.564 49.5674 278.564 Q50.9099 278.564 51.7086 279.235 Q52.5072 279.906 52.5072 281.029 Q52.5072 281.561 52.3046 282.042 Q52.1079 282.516 51.5812 283.164 Q51.4366 283.332 50.6611 284.137 Q49.8856 284.935 48.4736 286.376 Z" fill="#000000" fill-rule="evenodd" fill-opacity="1" /><path clip-path="url(#clip760)" d="M 0 0 M131.661 279.49 Q130.758 279.49 130.301 280.381 Q129.849 281.266 129.849 283.049 Q129.849 284.825 130.301 285.716 Q130.758 286.602 131.661 286.602 Q132.569 286.602 133.02 285.716 Q133.478 284.825 133.478 283.049 Q133.478 281.266 133.02 280.381 Q132.569 279.49 131.661 279.49 M131.661 278.564 Q133.113 278.564 133.877 279.715 Q134.647 280.861 134.647 283.049 Q134.647 285.23 133.877 286.382 Q133.113 287.528 131.661 287.528 Q130.208 287.528 129.438 286.382 Q128.674 285.23 128.674 283.049 Q128.674 280.861 129.438 279.715 Q130.208 278.564 131.661 278.564 Z" fill="#000000" fill-rule="evenodd" fill-opacity="1" /><path clip-path="url(#clip760)" d="M 0 0 M216.317 286.376 L220.397 286.376 L220.397 287.36 L214.911 287.36 L214.911 286.376 Q215.577 285.688 216.722 284.53 Q217.874 283.367 218.169 283.031 Q218.731 282.401 218.95 281.966 Q219.176 281.527 219.176 281.104 Q219.176 280.416 218.69 279.982 Q218.21 279.548 217.434 279.548 Q216.884 279.548 216.271 279.738 Q215.663 279.929 214.969 280.317 L214.969 279.137 Q215.675 278.853 216.288 278.708 Q216.902 278.564 217.411 278.564 Q218.754 278.564 219.552 279.235 Q220.351 279.906 220.351 281.029 Q220.351 281.561 220.148 282.042 Q219.952 282.516 219.425 283.164 Q219.28 283.332 218.505 284.137 Q217.729 284.935 216.317 286.376 Z" fill="#000000" fill-rule="evenodd" fill-opacity="1" /><path clip-path="url(#clip760)" d="M 0 0 M304.4 279.738 L301.449 284.351 L304.4 284.351 L304.4 279.738 M304.093 278.72 L305.563 278.72 L305.563 284.351 L306.796 284.351 L306.796 285.323 L305.563 285.323 L305.563 287.36 L304.4 287.36 L304.4 285.323 L300.5 285.323 L300.5 284.194 L304.093 278.72 Z" fill="#000000" fill-rule="evenodd" fill-opacity="1" /><path clip-path="url(#clip760)" d="M 0 0 M389.743 282.574 Q388.956 282.574 388.493 283.112 Q388.035 283.65 388.035 284.588 Q388.035 285.52 388.493 286.064 Q388.956 286.602 389.743 286.602 Q390.53 286.602 390.987 286.064 Q391.45 285.52 391.45 284.588 Q391.45 283.65 390.987 283.112 Q390.53 282.574 389.743 282.574 M392.063 278.911 L392.063 279.976 Q391.623 279.767 391.172 279.657 Q390.726 279.548 390.287 279.548 Q389.129 279.548 388.516 280.329 Q387.908 281.11 387.821 282.69 Q388.163 282.186 388.678 281.92 Q389.193 281.648 389.812 281.648 Q391.114 281.648 391.866 282.441 Q392.625 283.228 392.625 284.588 Q392.625 285.919 391.838 286.723 Q391.051 287.528 389.743 287.528 Q388.244 287.528 387.451 286.382 Q386.658 285.23 386.658 283.049 Q386.658 281 387.63 279.785 Q388.603 278.564 390.24 278.564 Q390.68 278.564 391.126 278.651 Q391.577 278.737 392.063 278.911 Z" fill="#000000" fill-rule="evenodd" fill-opacity="1" /><polyline clip-path="url(#clip763)" style="stroke:#000000; stroke-width:0.5; stroke-opacity:0.1; fill:none" points="
  26.8443,266.201 468.189,266.201 
  "/>
<polyline clip-path="url(#clip763)" style="stroke:#000000; stroke-width:0.5; stroke-opacity:0.1; fill:none" points="
  26.8443,223.204 468.189,223.204 
  "/>
<polyline clip-path="url(#clip763)" style="stroke:#000000; stroke-width:0.5; stroke-opacity:0.1; fill:none" points="
  26.8443,180.207 468.189,180.207 
  "/>
<polyline clip-path="url(#clip763)" style="stroke:#000000; stroke-width:0.5; stroke-opacity:0.1; fill:none" points="
  26.8443,137.21 468.189,137.21 
  "/>
<polyline clip-path="url(#clip763)" style="stroke:#000000; stroke-width:0.5; stroke-opacity:0.1; fill:none" points="
  26.8443,94.2134 468.189,94.2134 
  "/>
<polyline clip-path="url(#clip763)" style="stroke:#000000; stroke-width:0.5; stroke-opacity:0.1; fill:none" points="
  26.8443,51.2166 468.189,51.2166 
  "/>
<polyline clip-path="url(#clip760)" style="stroke:#000000; stroke-width:1; stroke-opacity:1; fill:none" points="
  26.8443,273.152 26.8443,27.537 
  "/>
<polyline clip-path="url(#clip760)" style="stroke:#000000; stroke-width:1; stroke-opacity:1; fill:none" points="
  26.8443,266.201 32.1404,266.201 
  "/>
<polyline clip-path="url(#clip760)" style="stroke:#000000; stroke-width:1; stroke-opacity:1; fill:none" points="
  26.8443,223.204 32.1404,223.204 
  "/>
<polyline clip-path="url(#clip760)" style="stroke:#000000; stroke-width:1; stroke-opacity:1; fill:none" points="
  26.8443,180.207 32.1404,180.207 
  "/>
<polyline clip-path="url(#clip760)" style="stroke:#000000; stroke-width:1; stroke-opacity:1; fill:none" points="
  26.8443,137.21 32.1404,137.21 
  "/>
<polyline clip-path="url(#clip760)" style="stroke:#000000; stroke-width:1; stroke-opacity:1; fill:none" points="
  26.8443,94.2134 32.1404,94.2134 
  "/>
<polyline clip-path="url(#clip760)" style="stroke:#000000; stroke-width:1; stroke-opacity:1; fill:none" points="
  26.8443,51.2166 32.1404,51.2166 
  "/>
<path clip-path="url(#clip760)" d="M 0 0 M16.6582 262.65 Q15.7554 262.65 15.2983 263.541 Q14.8469 264.427 14.8469 266.209 Q14.8469 267.986 15.2983 268.877 Q15.7554 269.763 16.6582 269.763 Q17.5668 269.763 18.0181 268.877 Q18.4753 267.986 18.4753 266.209 Q18.4753 264.427 18.0181 263.541 Q17.5668 262.65 16.6582 262.65 M16.6582 261.724 Q18.1107 261.724 18.8746 262.876 Q19.6443 264.022 19.6443 266.209 Q19.6443 268.391 18.8746 269.543 Q18.1107 270.688 16.6582 270.688 Q15.2057 270.688 14.436 269.543 Q13.6721 268.391 13.6721 266.209 Q13.6721 264.022 14.436 262.876 Q15.2057 261.724 16.6582 261.724 Z" fill="#000000" fill-rule="evenodd" fill-opacity="1" /><path clip-path="url(#clip760)" d="M 0 0 M14.6675 226.54 L16.5772 226.54 L16.5772 219.949 L14.4996 220.365 L14.4996 219.3 L16.5656 218.884 L17.7346 218.884 L17.7346 226.54 L19.6443 226.54 L19.6443 227.524 L14.6675 227.524 L14.6675 226.54 Z" fill="#000000" fill-rule="evenodd" fill-opacity="1" /><path clip-path="url(#clip760)" d="M 0 0 M15.5645 183.543 L19.6443 183.543 L19.6443 184.527 L14.1582 184.527 L14.1582 183.543 Q14.8237 182.855 15.9695 181.697 Q17.1212 180.534 17.4163 180.198 Q17.9776 179.568 18.1975 179.133 Q18.4232 178.694 18.4232 178.271 Q18.4232 177.583 17.9371 177.149 Q17.4568 176.715 16.6813 176.715 Q16.1316 176.715 15.5182 176.906 Q14.9105 177.096 14.2161 177.484 L14.2161 176.304 Q14.9221 176.02 15.5355 175.875 Q16.1489 175.731 16.6582 175.731 Q18.0008 175.731 18.7994 176.402 Q19.598 177.073 19.598 178.196 Q19.598 178.728 19.3955 179.209 Q19.1987 179.683 18.6721 180.331 Q18.5274 180.499 17.7519 181.304 Q16.9765 182.102 15.5645 183.543 Z" fill="#000000" fill-rule="evenodd" fill-opacity="1" /><path clip-path="url(#clip760)" d="M 0 0 M17.8619 136.872 Q18.701 137.051 19.1698 137.618 Q19.6443 138.185 19.6443 139.019 Q19.6443 140.298 18.7647 140.998 Q17.885 141.698 16.2647 141.698 Q15.7207 141.698 15.142 141.588 Q14.5691 141.484 13.9557 141.27 L13.9557 140.141 Q14.4418 140.425 15.0205 140.57 Q15.5992 140.714 16.23 140.714 Q17.3295 140.714 17.9024 140.28 Q18.4811 139.846 18.4811 139.019 Q18.4811 138.255 17.9429 137.826 Q17.4105 137.392 16.4557 137.392 L15.4487 137.392 L15.4487 136.432 L16.5019 136.432 Q17.3642 136.432 17.8214 136.09 Q18.2786 135.743 18.2786 135.095 Q18.2786 134.43 17.804 134.077 Q17.3353 133.718 16.4557 133.718 Q15.9753 133.718 15.4256 133.822 Q14.8758 133.926 14.2161 134.146 L14.2161 133.104 Q14.8816 132.919 15.4603 132.827 Q16.0448 132.734 16.5598 132.734 Q17.8908 132.734 18.6663 133.342 Q19.4417 133.943 19.4417 134.974 Q19.4417 135.691 19.0309 136.189 Q18.62 136.681 17.8619 136.872 Z" fill="#000000" fill-rule="evenodd" fill-opacity="1" /><path clip-path="url(#clip760)" d="M 0 0 M17.2485 90.9119 L14.2971 95.5241 L17.2485 95.5241 L17.2485 90.9119 M16.9418 89.8934 L18.4117 89.8934 L18.4117 95.5241 L19.6443 95.5241 L19.6443 96.4963 L18.4117 96.4963 L18.4117 98.5334 L17.2485 98.5334 L17.2485 96.4963 L13.348 96.4963 L13.348 95.3679 L16.9418 89.8934 Z" fill="#000000" fill-rule="evenodd" fill-opacity="1" /><path clip-path="url(#clip760)" d="M 0 0 M14.4186 46.8966 L19.0077 46.8966 L19.0077 47.8804 L15.4892 47.8804 L15.4892 49.9984 Q15.7439 49.9116 15.9985 49.8711 Q16.2531 49.8248 16.5077 49.8248 Q17.9545 49.8248 18.7994 50.6176 Q19.6443 51.4104 19.6443 52.7646 Q19.6443 54.1593 18.7762 54.9347 Q17.9082 55.7044 16.3283 55.7044 Q15.7844 55.7044 15.2172 55.6118 Q14.6559 55.5192 14.054 55.334 L14.054 54.1593 Q14.5749 54.4428 15.1304 54.5817 Q15.686 54.7206 16.3052 54.7206 Q17.3063 54.7206 17.8908 54.194 Q18.4753 53.6674 18.4753 52.7646 Q18.4753 51.8618 17.8908 51.3352 Q17.3063 50.8086 16.3052 50.8086 Q15.8364 50.8086 15.3677 50.9127 Q14.9047 51.0169 14.4186 51.2368 L14.4186 46.8966 Z" fill="#000000" fill-rule="evenodd" fill-opacity="1" /><g clip-path="url(#clip760)">
<text style="fill:#000000; fill-opacity:1; font-family:Arial,Helvetica Neue,Helvetica,sans-serif; font-size:18px; font-weight:bold; text-anchor:middle;" transform="rotate(0, 247.517, 15.6)" x="247.517" y="15.6">Function and its inverse</text>
</g>
<polyline clip-path="url(#clip763)" style="stroke:#009af9; stroke-width:2; stroke-opacity:1; fill:none" points="
  131.661,223.204 132.5,223.196 140.265,222.282 144.932,220.928 148.877,219.247 153.163,216.806 157.115,213.934 161.351,210.123 166.259,204.66 170.62,198.757 
  174.445,192.683 178.615,185.009 182.81,176.071 187.448,164.618 191.861,152.021 196.449,136.972 200.311,122.599 202.669,112.993 205.027,102.712 207.243,92.3992 
  209.46,81.4234 213.01,62.3693 216.561,41.3693 217.108,37.9542 217.654,34.4884 
  "/>
<polyline clip-path="url(#clip763)" style="stroke:#e26f46; stroke-width:2; stroke-opacity:1; fill:none" points="
  174.657,266.201 175.606,257.475 176.554,254.032 177.502,251.453 178.451,249.32 179.399,247.472 180.347,245.825 181.296,244.331 182.244,242.956 183.192,241.679 
  184.141,240.484 185.089,239.359 186.037,238.294 186.985,237.281 187.934,236.315 188.882,235.39 189.83,234.503 190.779,233.649 191.727,232.826 192.675,232.032 
  193.624,231.263 194.572,230.518 195.52,229.796 196.469,229.094 197.417,228.411 198.365,227.747 199.314,227.099 200.262,226.467 201.21,225.851 202.159,225.248 
  203.107,224.659 204.055,224.083 205.004,223.519 205.952,222.966 206.9,222.424 207.848,221.893 208.797,221.372 209.745,220.86 210.693,220.358 211.642,219.864 
  212.59,219.379 213.538,218.902 214.487,218.432 215.435,217.971 216.383,217.516 217.332,217.069 218.28,216.628 219.228,216.193 220.177,215.765 221.125,215.344 
  222.073,214.927 223.022,214.517 223.97,214.112 224.918,213.713 225.867,213.319 226.815,212.929 227.763,212.545 228.711,212.165 229.66,211.791 230.608,211.42 
  231.556,211.054 232.505,210.692 233.453,210.335 234.401,209.981 235.35,209.631 236.298,209.286 237.246,208.943 238.195,208.605 239.143,208.27 240.091,207.939 
  241.04,207.611 241.988,207.286 242.936,206.965 243.885,206.647 244.833,206.332 245.781,206.02 246.73,205.711 247.678,205.404 248.626,205.101 249.575,204.801 
  250.523,204.503 251.471,204.208 252.419,203.915 253.368,203.625 254.316,203.338 255.264,203.053 256.213,202.771 257.161,202.491 258.109,202.213 259.058,201.938 
  260.006,201.665 260.954,201.394 261.903,201.125 262.851,200.858 263.799,200.594 264.748,200.331 265.696,200.071 266.644,199.812 267.593,199.556 268.541,199.301 
  269.489,199.049 270.438,198.798 271.386,198.549 272.334,198.302 273.282,198.056 274.231,197.813 275.179,197.571 276.127,197.331 277.076,197.092 278.024,196.855 
  278.972,196.62 279.921,196.386 280.869,196.154 281.817,195.924 282.766,195.694 283.714,195.467 284.662,195.241 285.611,195.016 286.559,194.793 287.507,194.571 
  288.456,194.351 289.404,194.132 290.352,193.915 291.301,193.698 292.249,193.483 293.197,193.27 294.145,193.058 295.094,192.846 296.042,192.637 296.99,192.428 
  297.939,192.221 298.887,192.015 299.835,191.81 300.784,191.606 301.732,191.404 302.68,191.202 303.629,191.002 304.577,190.803 305.525,190.605 306.474,190.408 
  307.422,190.212 308.37,190.017 309.319,189.823 310.267,189.631 311.215,189.439 312.164,189.248 313.112,189.059 314.06,188.87 315.008,188.682 315.957,188.496 
  316.905,188.31 317.853,188.125 318.802,187.942 319.75,187.759 320.698,187.577 321.647,187.396 322.595,187.216 323.543,187.036 324.492,186.858 325.44,186.68 
  326.388,186.504 327.337,186.328 328.285,186.153 329.233,185.979 330.182,185.806 331.13,185.633 332.078,185.462 333.027,185.291 333.975,185.121 334.923,184.952 
  335.871,184.783 336.82,184.616 337.768,184.449 338.716,184.283 339.665,184.117 340.613,183.953 341.561,183.789 342.51,183.625 343.458,183.463 344.406,183.301 
  345.355,183.14 346.303,182.98 347.251,182.82 348.2,182.661 349.148,182.503 350.096,182.345 351.045,182.189 351.993,182.032 352.941,181.877 353.89,181.722 
  354.838,181.567 355.786,181.414 356.735,181.261 357.683,181.108 358.631,180.957 359.579,180.805 360.528,180.655 361.476,180.505 362.424,180.356 363.373,180.207 
  
  "/>
<polyline clip-path="url(#clip763)" style="stroke:#000000; stroke-width:1; stroke-opacity:1; fill:none" stroke-dasharray="8, 5" points="
  131.661,266.201 133.923,263.938 154.847,243.014 167.421,230.44 178.052,219.809 189.601,208.261 200.247,197.614 211.662,186.199 224.886,172.975 236.639,161.222 
  246.945,150.916 258.181,139.68 269.484,128.377 281.981,115.88 293.871,103.99 306.235,91.6263 316.642,81.219 329.348,68.5129 341.292,56.5687 360.428,37.4333 
  363.373,34.4884 
  "/>
<path clip-path="url(#clip760)" d="
M370.784 81.0842 L453.477 81.0842 L453.477 35.7242 L370.784 35.7242  Z
  " fill="#ffffff" fill-rule="evenodd" fill-opacity="1"/>
<polyline clip-path="url(#clip760)" style="stroke:#000000; stroke-width:1; stroke-opacity:1; fill:none" points="
  370.784,81.0842 453.477,81.0842 453.477,35.7242 370.784,35.7242 370.784,81.0842 
  "/>
<polyline clip-path="url(#clip760)" style="stroke:#009af9; stroke-width:1; stroke-opacity:1; fill:none" points="
  375.688,50.8442 405.111,50.8442 
  "/>
<path clip-path="url(#clip760)" d="M 0 0 M415.519 49.057 Q415.519 49.0629 415.483 49.2737 L414.148 54.5964 Q414.078 54.8775 413.879 55.1586 Q413.686 55.4455 413.375 55.6914 Q413.071 55.9432 412.603 56.0954 Q412.14 56.2536 411.607 56.2536 Q410.758 56.2536 410.383 56.072 Q410.014 55.8964 410.014 55.5216 Q410.014 55.1937 410.219 55.0063 Q410.424 54.8248 410.658 54.8248 Q410.881 54.8248 410.998 54.9536 Q411.115 55.0824 411.115 55.2464 Q411.115 55.4279 410.992 55.6094 Q410.869 55.7968 410.623 55.8671 Q411.016 55.99 411.584 55.99 Q412.784 55.99 413.299 54.7194 Q413.311 54.7018 413.311 54.696 L413.709 53.1091 L413.692 53.0974 Q413.592 53.2145 413.434 53.3492 Q413.282 53.478 412.954 53.6361 Q412.626 53.7942 412.304 53.7942 Q411.63 53.7942 411.168 53.2789 Q410.711 52.7578 410.711 51.897 Q410.711 51.2704 410.963 50.6439 Q411.221 50.0115 411.619 49.5489 Q412.023 49.0804 412.538 48.7876 Q413.059 48.4949 413.563 48.4949 Q413.914 48.4949 414.213 48.7057 Q414.511 48.9106 414.675 49.2502 Q414.705 48.9692 414.863 48.8521 Q415.027 48.7349 415.167 48.7349 Q415.325 48.7349 415.419 48.8228 Q415.519 48.9048 415.519 49.057 M414.535 49.789 Q414.535 49.7538 414.511 49.6601 Q414.488 49.5606 414.418 49.4025 Q414.353 49.2444 414.254 49.1038 Q414.154 48.9633 413.973 48.8638 Q413.797 48.7584 413.575 48.7584 Q413.212 48.7584 412.848 49.0629 Q412.485 49.3615 412.234 49.8241 Q411.999 50.2691 411.777 51.1299 Q411.56 51.9907 411.56 52.4298 Q411.56 52.8632 411.748 53.1969 Q411.935 53.5307 412.339 53.5307 Q412.807 53.5307 413.311 53.0974 Q413.832 52.6465 413.92 52.26 L414.5 49.9705 Q414.535 49.8299 414.535 49.789 Z" fill="#000000" fill-rule="evenodd" fill-opacity="1" /><path clip-path="url(#clip760)" d="M 0 0 M415.674 50.7961 Q415.674 48.7701 416.429 47.1364 Q416.751 46.4513 417.202 45.8774 Q417.653 45.3036 417.951 45.0518 Q418.25 44.8 418.332 44.8 Q418.449 44.8 418.455 44.9171 Q418.455 44.9756 418.297 45.122 Q416.364 47.0895 416.37 50.7961 Q416.37 54.5144 418.25 56.4058 Q418.455 56.6107 418.455 56.6752 Q418.455 56.7923 418.332 56.7923 Q418.25 56.7923 417.963 56.5522 Q417.676 56.3121 417.231 55.7617 Q416.786 55.2113 416.464 54.5379 Q415.674 52.9041 415.674 50.7961 Z" fill="#000000" fill-rule="evenodd" fill-opacity="1" /><path clip-path="url(#clip760)" d="M 0 0 M426.25 49.2854 Q426.25 49.6133 426.045 49.8007 Q425.84 49.9822 425.606 49.9822 Q425.384 49.9822 425.266 49.8534 Q425.149 49.7245 425.149 49.5606 Q425.149 49.3381 425.313 49.1448 Q425.477 48.9516 425.723 48.9106 Q425.483 48.7584 425.126 48.7584 Q424.892 48.7584 424.687 48.8813 Q424.488 49.0043 424.365 49.1624 Q424.248 49.3205 424.142 49.5489 Q424.043 49.7714 424.002 49.9061 Q423.966 50.0349 423.937 50.1754 L423.527 51.815 Q423.328 52.5938 423.328 52.869 Q423.328 53.2086 423.492 53.437 Q423.656 53.6595 423.984 53.6595 Q424.113 53.6595 424.259 53.6244 Q424.406 53.5834 424.593 53.478 Q424.786 53.3667 424.956 53.2028 Q425.132 53.033 425.302 52.746 Q425.471 52.4591 425.583 52.0902 Q425.618 51.9614 425.735 51.9614 Q425.881 51.9614 425.881 52.0785 Q425.881 52.178 425.799 52.3888 Q425.723 52.5938 425.553 52.8632 Q425.389 53.1267 425.173 53.3667 Q424.956 53.601 424.634 53.7649 Q424.312 53.9289 423.961 53.9289 Q423.457 53.9289 423.123 53.6595 Q422.789 53.3902 422.667 53.0154 Q422.637 53.0681 422.596 53.1384 Q422.555 53.2086 422.432 53.3667 Q422.315 53.519 422.18 53.6361 Q422.046 53.7473 421.835 53.8352 Q421.63 53.9289 421.408 53.9289 Q421.126 53.9289 420.875 53.8469 Q420.629 53.7649 420.453 53.5775 Q420.277 53.3902 420.277 53.1325 Q420.277 52.8456 420.471 52.6465 Q420.67 52.4415 420.939 52.4415 Q421.109 52.4415 421.244 52.5411 Q421.384 52.6406 421.384 52.8573 Q421.384 53.0974 421.22 53.2789 Q421.056 53.4604 420.822 53.5073 Q421.062 53.6595 421.419 53.6595 Q421.806 53.6595 422.11 53.3199 Q422.415 52.9803 422.561 52.4123 Q422.924 51.0479 423.065 50.4389 Q423.205 49.8241 423.205 49.5606 Q423.205 49.3147 423.141 49.1448 Q423.076 48.975 422.965 48.8989 Q422.86 48.8169 422.76 48.7876 Q422.667 48.7584 422.561 48.7584 Q422.385 48.7584 422.186 48.8286 Q421.993 48.8989 421.759 49.0629 Q421.531 49.221 421.314 49.5489 Q421.097 49.8768 420.951 50.3277 Q420.922 50.4624 420.793 50.4624 Q420.652 50.4565 420.652 50.3394 Q420.652 50.2398 420.728 50.0349 Q420.81 49.8241 420.974 49.5606 Q421.144 49.2971 421.361 49.0629 Q421.583 48.8228 421.905 48.6588 Q422.233 48.4949 422.585 48.4949 Q422.743 48.4949 422.895 48.53 Q423.053 48.5593 423.24 48.6471 Q423.434 48.7349 423.603 48.9282 Q423.773 49.1214 423.879 49.4025 Q423.949 49.2678 424.043 49.139 Q424.142 49.0102 424.294 48.8521 Q424.452 48.6881 424.669 48.5944 Q424.892 48.4949 425.138 48.4949 Q425.378 48.4949 425.612 48.5593 Q425.846 48.6178 426.045 48.8111 Q426.25 48.9984 426.25 49.2854 Z" fill="#000000" fill-rule="evenodd" fill-opacity="1" /><path clip-path="url(#clip760)" d="M 0 0 M427.067 56.6752 Q427.067 56.6166 427.22 56.4702 Q429.152 54.5027 429.152 50.7961 Q429.152 47.0778 427.296 45.1982 Q427.067 44.9815 427.067 44.9171 Q427.067 44.8 427.184 44.8 Q427.266 44.8 427.553 45.0401 Q427.846 45.2801 428.285 45.8306 Q428.73 46.381 429.058 47.0544 Q429.849 48.6881 429.849 50.7961 Q429.849 52.8222 429.093 54.4559 Q428.771 55.141 428.32 55.7148 Q427.869 56.2887 427.571 56.5405 Q427.272 56.7923 427.184 56.7923 Q427.067 56.7923 427.067 56.6752 Z" fill="#000000" fill-rule="evenodd" fill-opacity="1" /><polyline clip-path="url(#clip760)" style="stroke:#e26f46; stroke-width:1; stroke-opacity:1; fill:none" points="
  375.688,65.9642 405.111,65.9642 
  "/>
<path clip-path="url(#clip760)" d="M 0 0 M415.519 64.2854 Q415.519 64.2912 415.483 64.502 L414.148 69.8248 Q414.078 70.1058 413.879 70.3869 Q413.686 70.6738 413.375 70.9198 Q413.071 71.1716 412.603 71.3238 Q412.14 71.4819 411.607 71.4819 Q410.758 71.4819 410.383 71.3004 Q410.014 71.1247 410.014 70.75 Q410.014 70.422 410.219 70.2347 Q410.424 70.0531 410.658 70.0531 Q410.881 70.0531 410.998 70.182 Q411.115 70.3108 411.115 70.4747 Q411.115 70.6563 410.992 70.8378 Q410.869 71.0252 410.623 71.0954 Q411.016 71.2184 411.584 71.2184 Q412.784 71.2184 413.299 69.9477 Q413.311 69.9302 413.311 69.9243 L413.709 68.3374 L413.692 68.3257 Q413.592 68.4428 413.434 68.5775 Q413.282 68.7063 412.954 68.8645 Q412.626 69.0226 412.304 69.0226 Q411.63 69.0226 411.168 68.5073 Q410.711 67.9861 410.711 67.1253 Q410.711 66.4988 410.963 65.8722 Q411.221 65.2398 411.619 64.7772 Q412.023 64.3088 412.538 64.016 Q413.059 63.7232 413.563 63.7232 Q413.914 63.7232 414.213 63.934 Q414.511 64.139 414.675 64.4786 Q414.705 64.1975 414.863 64.0804 Q415.027 63.9633 415.167 63.9633 Q415.325 63.9633 415.419 64.0511 Q415.519 64.1331 415.519 64.2854 M414.535 65.0173 Q414.535 64.9822 414.511 64.8885 Q414.488 64.7889 414.418 64.6308 Q414.353 64.4727 414.254 64.3322 Q414.154 64.1917 413.973 64.0921 Q413.797 63.9867 413.575 63.9867 Q413.212 63.9867 412.848 64.2912 Q412.485 64.5899 412.234 65.0524 Q411.999 65.4975 411.777 66.3582 Q411.56 67.219 411.56 67.6582 Q411.56 68.0915 411.748 68.4253 Q411.935 68.7591 412.339 68.7591 Q412.807 68.7591 413.311 68.3257 Q413.832 67.8749 413.92 67.4884 L414.5 65.1988 Q414.535 65.0583 414.535 65.0173 Z" fill="#000000" fill-rule="evenodd" fill-opacity="1" /><path clip-path="url(#clip760)" d="M 0 0 M422.286 63.2399 Q422.335 63.2891 422.335 63.3587 Q422.335 63.4284 422.286 63.4776 Q422.237 63.5268 422.167 63.5268 L416.912 63.5268 Q416.843 63.5268 416.794 63.4776 Q416.744 63.4284 416.744 63.3587 Q416.744 63.2891 416.794 63.2399 Q416.843 63.1907 416.912 63.1907 L422.167 63.1907 Q422.237 63.1907 422.286 63.2399 Z" fill="#000000" fill-rule="evenodd" fill-opacity="1" /><path clip-path="url(#clip760)" d="M 0 0 M423.21 60.6657 L423.21 60.4034 Q424.218 60.4034 424.739 59.8665 Q424.882 59.8665 424.907 59.8993 Q424.932 59.932 424.932 60.0837 L424.932 64.7934 Q424.932 65.0434 425.055 65.1213 Q425.178 65.1992 425.715 65.1992 L425.981 65.1992 L425.981 65.4574 Q425.686 65.4328 424.62 65.4328 Q423.554 65.4328 423.263 65.4574 L423.263 65.1992 L423.53 65.1992 Q424.059 65.1992 424.186 65.1254 Q424.313 65.0475 424.313 64.7934 L424.313 60.4444 Q423.874 60.6657 423.21 60.6657 Z" fill="#000000" fill-rule="evenodd" fill-opacity="1" /><path clip-path="url(#clip760)" d="M 0 0 M428.646 66.0245 Q428.646 63.9984 429.402 62.3647 Q429.724 61.6796 430.175 61.1058 Q430.626 60.5319 430.924 60.2801 Q431.223 60.0283 431.305 60.0283 Q431.422 60.0283 431.428 60.1454 Q431.428 60.204 431.27 60.3504 Q429.337 62.3179 429.343 66.0245 Q429.343 69.7428 431.223 71.6342 Q431.428 71.8391 431.428 71.9035 Q431.428 72.0206 431.305 72.0206 Q431.223 72.0206 430.936 71.7805 Q430.649 71.5405 430.204 70.99 Q429.759 70.4396 429.437 69.7662 Q428.646 68.1325 428.646 66.0245 Z" fill="#000000" fill-rule="evenodd" fill-opacity="1" /><path clip-path="url(#clip760)" d="M 0 0 M438.784 64.18 Q438.784 64.2619 438.731 64.4552 L437.583 69.0343 Q437.332 70.0531 436.512 70.7675 Q435.698 71.4819 434.773 71.4819 Q434.216 71.4819 433.859 71.1833 Q433.502 70.8905 433.502 70.4396 Q433.502 70.0414 433.713 69.8482 Q433.924 69.6608 434.175 69.6608 Q434.257 69.6608 434.345 69.6842 Q434.433 69.7077 434.527 69.8072 Q434.62 69.9068 434.62 70.0766 Q434.62 70.3518 434.38 70.5684 Q434.263 70.668 434.152 70.6914 Q434.047 70.7148 433.865 70.7148 Q433.935 70.8788 434.064 70.99 Q434.193 71.1013 434.339 71.1423 Q434.486 71.1891 434.579 71.2008 Q434.679 71.2184 434.773 71.2184 Q435.522 71.2184 436.096 70.463 Q436.266 70.2347 436.389 70.0063 Q436.518 69.7838 436.611 69.5086 Q436.705 69.2392 436.746 69.0928 Q436.793 68.9464 436.875 68.6127 Q436.33 69.1572 435.663 69.1572 Q435.382 69.1572 435.13 69.0811 Q434.884 69.005 434.667 68.8469 Q434.451 68.6829 434.322 68.396 Q434.199 68.1091 434.199 67.7285 Q434.199 67.3244 434.357 66.774 Q434.515 66.2236 434.896 65.2105 Q435.101 64.6426 435.101 64.3673 Q435.101 64.2327 435.071 64.1507 Q435.042 64.0629 434.983 64.0336 Q434.925 63.9984 434.89 63.9926 Q434.861 63.9867 434.802 63.9867 Q434.456 63.9867 434.134 64.3381 Q433.812 64.6894 433.59 65.4741 Q433.543 65.6204 433.514 65.6556 Q433.484 65.6907 433.397 65.6907 Q433.25 65.6849 433.25 65.5677 Q433.25 65.5209 433.303 65.3394 Q433.356 65.152 433.479 64.8768 Q433.607 64.5957 433.783 64.3439 Q433.959 64.0863 434.234 63.9047 Q434.515 63.7232 434.837 63.7232 Q435.276 63.7232 435.546 64.0101 Q435.821 64.2912 435.821 64.707 Q435.821 64.8768 435.774 65.029 Q435.733 65.1754 435.581 65.5677 Q434.966 67.1488 434.966 67.9217 Q434.966 68.1091 434.995 68.2672 Q435.03 68.4194 435.106 68.5717 Q435.183 68.7181 435.335 68.8059 Q435.493 68.8879 435.71 68.8879 Q435.985 68.8879 436.242 68.7591 Q436.506 68.6244 436.67 68.4428 Q436.84 68.2613 436.939 68.1091 Q437.045 67.951 437.068 67.869 L437.607 65.7141 L437.847 64.7538 Q437.958 64.2327 438.011 64.1038 Q438.081 63.9809 438.204 63.9165 Q438.327 63.852 438.432 63.852 Q438.579 63.852 438.678 63.9399 Q438.784 64.0277 438.784 64.18 Z" fill="#000000" fill-rule="evenodd" fill-opacity="1" /><path clip-path="url(#clip760)" d="M 0 0 M439.066 71.9035 Q439.066 71.845 439.218 71.6986 Q441.151 69.7311 441.151 66.0245 Q441.151 62.3062 439.294 60.4265 Q439.066 60.2099 439.066 60.1454 Q439.066 60.0283 439.183 60.0283 Q439.265 60.0283 439.552 60.2684 Q439.845 60.5085 440.284 61.0589 Q440.729 61.6093 441.057 62.2827 Q441.847 63.9165 441.847 66.0245 Q441.847 68.0505 441.092 69.6842 Q440.77 70.3693 440.319 70.9432 Q439.868 71.517 439.57 71.7688 Q439.271 72.0206 439.183 72.0206 Q439.066 72.0206 439.066 71.9035 Z" fill="#000000" fill-rule="evenodd" fill-opacity="1" /></svg>
