<?xml version="1.0" encoding="utf-8"?>
<svg xmlns="http://www.w3.org/2000/svg" xmlns:xlink="http://www.w3.org/1999/xlink" width="120" height="75" viewBox="0 0 480 300">
<defs>
  <clipPath id="clip740">
    <rect x="0" y="0" width="480" height="300"/>
  </clipPath>
</defs>
<path clip-path="url(#clip740)" d="
M0 300 L480 300 L480 0 L0 0  Z
  " fill="#ffffff" fill-rule="evenodd" fill-opacity="1"/>
<defs>
  <clipPath id="clip741">
    <rect x="96" y="0" width="337" height="300"/>
  </clipPath>
</defs>
<path clip-path="url(#clip740)" d="
M50.5057 258.408 L468.189 258.408 L468.189 11.811 L50.5057 11.811  Z
  " fill="#ffffff" fill-rule="evenodd" fill-opacity="1"/>
<defs>
  <clipPath id="clip742">
    <rect x="50" y="11" width="419" height="248"/>
  </clipPath>
</defs>
<polyline clip-path="url(#clip742)" style="stroke:#000000; stroke-width:0.5; stroke-opacity:0.1; fill:none" points="
  62.3269,258.408 62.3269,11.811 
  "/>
<polyline clip-path="url(#clip742)" style="stroke:#000000; stroke-width:0.5; stroke-opacity:0.1; fill:none" points="
  128,258.408 128,11.811 
  "/>
<polyline clip-path="url(#clip742)" style="stroke:#000000; stroke-width:0.5; stroke-opacity:0.1; fill:none" points="
  193.674,258.408 193.674,11.811 
  "/>
<polyline clip-path="url(#clip742)" style="stroke:#000000; stroke-width:0.5; stroke-opacity:0.1; fill:none" points="
  259.347,258.408 259.347,11.811 
  "/>
<polyline clip-path="url(#clip742)" style="stroke:#000000; stroke-width:0.5; stroke-opacity:0.1; fill:none" points="
  325.021,258.408 325.021,11.811 
  "/>
<polyline clip-path="url(#clip742)" style="stroke:#000000; stroke-width:0.5; stroke-opacity:0.1; fill:none" points="
  390.694,258.408 390.694,11.811 
  "/>
<polyline clip-path="url(#clip742)" style="stroke:#000000; stroke-width:0.5; stroke-opacity:0.1; fill:none" points="
  456.368,258.408 456.368,11.811 
  "/>
<polyline clip-path="url(#clip740)" style="stroke:#000000; stroke-width:1; stroke-opacity:1; fill:none" points="
  50.5057,258.408 468.189,258.408 
  "/>
<polyline clip-path="url(#clip740)" style="stroke:#000000; stroke-width:1; stroke-opacity:1; fill:none" points="
  62.3269,258.408 62.3269,255.449 
  "/>
<polyline clip-path="url(#clip740)" style="stroke:#000000; stroke-width:1; stroke-opacity:1; fill:none" points="
  128,258.408 128,255.449 
  "/>
<polyline clip-path="url(#clip740)" style="stroke:#000000; stroke-width:1; stroke-opacity:1; fill:none" points="
  193.674,258.408 193.674,255.449 
  "/>
<polyline clip-path="url(#clip740)" style="stroke:#000000; stroke-width:1; stroke-opacity:1; fill:none" points="
  259.347,258.408 259.347,255.449 
  "/>
<polyline clip-path="url(#clip740)" style="stroke:#000000; stroke-width:1; stroke-opacity:1; fill:none" points="
  325.021,258.408 325.021,255.449 
  "/>
<polyline clip-path="url(#clip740)" style="stroke:#000000; stroke-width:1; stroke-opacity:1; fill:none" points="
  390.694,258.408 390.694,255.449 
  "/>
<polyline clip-path="url(#clip740)" style="stroke:#000000; stroke-width:1; stroke-opacity:1; fill:none" points="
  456.368,258.408 456.368,255.449 
  "/>
<path clip-path="url(#clip740)" d="M 0 0 M62.3269 264.746 Q61.4241 264.746 60.9669 265.637 Q60.5156 266.523 60.5156 268.305 Q60.5156 270.082 60.9669 270.973 Q61.4241 271.858 62.3269 271.858 Q63.2354 271.858 63.6868 270.973 Q64.144 270.082 64.144 268.305 Q64.144 266.523 63.6868 265.637 Q63.2354 264.746 62.3269 264.746 M62.3269 263.82 Q63.7794 263.82 64.5433 264.972 Q65.313 266.118 65.313 268.305 Q65.313 270.487 64.5433 271.638 Q63.7794 272.784 62.3269 272.784 Q60.8743 272.784 60.1047 271.638 Q59.3408 270.487 59.3408 268.305 Q59.3408 266.118 60.1047 264.972 Q60.8743 263.82 62.3269 263.82 Z" fill="#000000" fill-rule="evenodd" fill-opacity="1" /><path clip-path="url(#clip740)" d="M 0 0 M125.596 271.633 L127.506 271.633 L127.506 265.041 L125.428 265.458 L125.428 264.393 L127.494 263.976 L128.663 263.976 L128.663 271.633 L130.573 271.633 L130.573 272.616 L125.596 272.616 L125.596 271.633 Z" fill="#000000" fill-rule="evenodd" fill-opacity="1" /><path clip-path="url(#clip740)" d="M 0 0 M192.337 271.633 L196.417 271.633 L196.417 272.616 L190.931 272.616 L190.931 271.633 Q191.596 270.944 192.742 269.787 Q193.894 268.623 194.189 268.288 Q194.75 267.657 194.97 267.223 Q195.196 266.783 195.196 266.361 Q195.196 265.672 194.71 265.238 Q194.229 264.804 193.454 264.804 Q192.904 264.804 192.291 264.995 Q191.683 265.186 190.989 265.574 L190.989 264.393 Q191.695 264.109 192.308 263.965 Q192.922 263.82 193.431 263.82 Q194.773 263.82 195.572 264.491 Q196.371 265.163 196.371 266.285 Q196.371 266.818 196.168 267.298 Q195.971 267.773 195.445 268.421 Q195.3 268.589 194.525 269.393 Q193.749 270.192 192.337 271.633 Z" fill="#000000" fill-rule="evenodd" fill-opacity="1" /><path clip-path="url(#clip740)" d="M 0 0 M260.409 267.958 Q261.248 268.137 261.717 268.704 Q262.192 269.271 262.192 270.105 Q262.192 271.384 261.312 272.084 Q260.432 272.784 258.812 272.784 Q258.268 272.784 257.689 272.674 Q257.116 272.57 256.503 272.356 L256.503 271.227 Q256.989 271.511 257.568 271.656 Q258.147 271.8 258.777 271.8 Q259.877 271.8 260.45 271.366 Q261.028 270.932 261.028 270.105 Q261.028 269.341 260.49 268.913 Q259.958 268.479 259.003 268.479 L257.996 268.479 L257.996 267.518 L259.049 267.518 Q259.912 267.518 260.369 267.177 Q260.826 266.829 260.826 266.181 Q260.826 265.516 260.351 265.163 Q259.883 264.804 259.003 264.804 Q258.523 264.804 257.973 264.908 Q257.423 265.012 256.763 265.232 L256.763 264.19 Q257.429 264.005 258.008 263.913 Q258.592 263.82 259.107 263.82 Q260.438 263.82 261.214 264.428 Q261.989 265.03 261.989 266.06 Q261.989 266.777 261.578 267.275 Q261.167 267.767 260.409 267.958 Z" fill="#000000" fill-rule="evenodd" fill-opacity="1" /><path clip-path="url(#clip740)" d="M 0 0 M325.773 264.995 L322.822 269.607 L325.773 269.607 L325.773 264.995 M325.466 263.976 L326.936 263.976 L326.936 269.607 L328.169 269.607 L328.169 270.579 L326.936 270.579 L326.936 272.616 L325.773 272.616 L325.773 270.579 L321.873 270.579 L321.873 269.451 L325.466 263.976 Z" fill="#000000" fill-rule="evenodd" fill-opacity="1" /><path clip-path="url(#clip740)" d="M 0 0 M388.264 263.976 L392.853 263.976 L392.853 264.96 L389.334 264.96 L389.334 267.078 Q389.589 266.991 389.844 266.951 Q390.098 266.905 390.353 266.905 Q391.8 266.905 392.644 267.697 Q393.489 268.49 393.489 269.844 Q393.489 271.239 392.621 272.015 Q391.753 272.784 390.173 272.784 Q389.629 272.784 389.062 272.692 Q388.501 272.599 387.899 272.414 L387.899 271.239 Q388.42 271.523 388.976 271.662 Q389.531 271.8 390.15 271.8 Q391.151 271.8 391.736 271.274 Q392.32 270.747 392.32 269.844 Q392.32 268.942 391.736 268.415 Q391.151 267.888 390.15 267.888 Q389.682 267.888 389.213 267.993 Q388.75 268.097 388.264 268.317 L388.264 263.976 Z" fill="#000000" fill-rule="evenodd" fill-opacity="1" /><path clip-path="url(#clip740)" d="M 0 0 M456.469 267.831 Q455.682 267.831 455.219 268.369 Q454.762 268.907 454.762 269.844 Q454.762 270.776 455.219 271.32 Q455.682 271.858 456.469 271.858 Q457.256 271.858 457.713 271.32 Q458.176 270.776 458.176 269.844 Q458.176 268.907 457.713 268.369 Q457.256 267.831 456.469 267.831 M458.79 264.167 L458.79 265.232 Q458.35 265.024 457.898 264.914 Q457.453 264.804 457.013 264.804 Q455.856 264.804 455.242 265.585 Q454.635 266.366 454.548 267.946 Q454.889 267.443 455.404 267.177 Q455.919 266.905 456.538 266.905 Q457.841 266.905 458.593 267.697 Q459.351 268.484 459.351 269.844 Q459.351 271.175 458.564 271.98 Q457.777 272.784 456.469 272.784 Q454.97 272.784 454.177 271.638 Q453.385 270.487 453.385 268.305 Q453.385 266.256 454.357 265.041 Q455.329 263.82 456.967 263.82 Q457.407 263.82 457.852 263.907 Q458.304 263.994 458.79 264.167 Z" fill="#000000" fill-rule="evenodd" fill-opacity="1" /><g clip-path="url(#clip740)">
<text style="fill:#000000; fill-opacity:1; font-family:Arial,Helvetica Neue,Helvetica,sans-serif; font-size:16px; text-anchor:middle;" transform="rotate(0, 259.347, 293.459)" x="259.347" y="293.459">s</text>
</g>
<polyline clip-path="url(#clip742)" style="stroke:#000000; stroke-width:0.5; stroke-opacity:0.1; fill:none" points="
  50.5057,251.429 468.189,251.429 
  "/>
<polyline clip-path="url(#clip742)" style="stroke:#000000; stroke-width:0.5; stroke-opacity:0.1; fill:none" points="
  50.5057,191.934 468.189,191.934 
  "/>
<polyline clip-path="url(#clip742)" style="stroke:#000000; stroke-width:0.5; stroke-opacity:0.1; fill:none" points="
  50.5057,132.438 468.189,132.438 
  "/>
<polyline clip-path="url(#clip742)" style="stroke:#000000; stroke-width:0.5; stroke-opacity:0.1; fill:none" points="
  50.5057,72.943 468.189,72.943 
  "/>
<polyline clip-path="url(#clip742)" style="stroke:#000000; stroke-width:0.5; stroke-opacity:0.1; fill:none" points="
  50.5057,13.4477 468.189,13.4477 
  "/>
<polyline clip-path="url(#clip740)" style="stroke:#000000; stroke-width:1; stroke-opacity:1; fill:none" points="
  50.5057,258.408 50.5057,11.811 
  "/>
<polyline clip-path="url(#clip740)" style="stroke:#000000; stroke-width:1; stroke-opacity:1; fill:none" points="
  50.5057,251.429 55.5179,251.429 
  "/>
<polyline clip-path="url(#clip740)" style="stroke:#000000; stroke-width:1; stroke-opacity:1; fill:none" points="
  50.5057,191.934 55.5179,191.934 
  "/>
<polyline clip-path="url(#clip740)" style="stroke:#000000; stroke-width:1; stroke-opacity:1; fill:none" points="
  50.5057,132.438 55.5179,132.438 
  "/>
<polyline clip-path="url(#clip740)" style="stroke:#000000; stroke-width:1; stroke-opacity:1; fill:none" points="
  50.5057,72.943 55.5179,72.943 
  "/>
<polyline clip-path="url(#clip740)" style="stroke:#000000; stroke-width:1; stroke-opacity:1; fill:none" points="
  50.5057,13.4477 55.5179,13.4477 
  "/>
<path clip-path="url(#clip740)" d="M 0 0 M31.0777 247.879 Q30.1749 247.879 29.7178 248.77 Q29.2664 249.655 29.2664 251.438 Q29.2664 253.215 29.7178 254.106 Q30.1749 254.991 31.0777 254.991 Q31.9863 254.991 32.4377 254.106 Q32.8948 253.215 32.8948 251.438 Q32.8948 249.655 32.4377 248.77 Q31.9863 247.879 31.0777 247.879 M31.0777 246.953 Q32.5303 246.953 33.2941 248.105 Q34.0638 249.25 34.0638 251.438 Q34.0638 253.62 33.2941 254.771 Q32.5303 255.917 31.0777 255.917 Q29.6252 255.917 28.8555 254.771 Q28.0916 253.62 28.0916 251.438 Q28.0916 249.25 28.8555 248.105 Q29.6252 246.953 31.0777 246.953 Z" fill="#000000" fill-rule="evenodd" fill-opacity="1" /><path clip-path="url(#clip740)" d="M 0 0 M35.3312 254.279 L36.5522 254.279 L36.5522 255.749 L35.3312 255.749 L35.3312 254.279 Z" fill="#000000" fill-rule="evenodd" fill-opacity="1" /><path clip-path="url(#clip740)" d="M 0 0 M40.3196 247.879 Q39.4168 247.879 38.9596 248.77 Q38.5082 249.655 38.5082 251.438 Q38.5082 253.215 38.9596 254.106 Q39.4168 254.991 40.3196 254.991 Q41.2281 254.991 41.6795 254.106 Q42.1367 253.215 42.1367 251.438 Q42.1367 249.655 41.6795 248.77 Q41.2281 247.879 40.3196 247.879 M40.3196 246.953 Q41.7721 246.953 42.536 248.105 Q43.3057 249.25 43.3057 251.438 Q43.3057 253.62 42.536 254.771 Q41.7721 255.917 40.3196 255.917 Q38.867 255.917 38.0974 254.771 Q37.3335 253.62 37.3335 251.438 Q37.3335 249.25 38.0974 248.105 Q38.867 246.953 40.3196 246.953 Z" fill="#000000" fill-rule="evenodd" fill-opacity="1" /><path clip-path="url(#clip740)" d="M 0 0 M31.3266 188.383 Q30.4238 188.383 29.9666 189.275 Q29.5152 190.16 29.5152 191.943 Q29.5152 193.719 29.9666 194.61 Q30.4238 195.496 31.3266 195.496 Q32.2351 195.496 32.6865 194.61 Q33.1437 193.719 33.1437 191.943 Q33.1437 190.16 32.6865 189.275 Q32.2351 188.383 31.3266 188.383 M31.3266 187.458 Q32.7791 187.458 33.543 188.609 Q34.3127 189.755 34.3127 191.943 Q34.3127 194.124 33.543 195.276 Q32.7791 196.422 31.3266 196.422 Q29.874 196.422 29.1043 195.276 Q28.3405 194.124 28.3405 191.943 Q28.3405 189.755 29.1043 188.609 Q29.874 187.458 31.3266 187.458 Z" fill="#000000" fill-rule="evenodd" fill-opacity="1" /><path clip-path="url(#clip740)" d="M 0 0 M35.58 194.784 L36.8011 194.784 L36.8011 196.254 L35.58 196.254 L35.58 194.784 Z" fill="#000000" fill-rule="evenodd" fill-opacity="1" /><path clip-path="url(#clip740)" d="M 0 0 M38.08 187.614 L42.6691 187.614 L42.6691 188.598 L39.1506 188.598 L39.1506 190.716 Q39.4052 190.629 39.6598 190.588 Q39.9145 190.542 40.1691 190.542 Q41.6159 190.542 42.4608 191.335 Q43.3057 192.128 43.3057 193.482 Q43.3057 194.877 42.4376 195.652 Q41.5696 196.422 39.9897 196.422 Q39.4457 196.422 38.8786 196.329 Q38.3173 196.236 37.7154 196.051 L37.7154 194.877 Q38.2362 195.16 38.7918 195.299 Q39.3473 195.438 39.9666 195.438 Q40.9677 195.438 41.5522 194.911 Q42.1367 194.385 42.1367 193.482 Q42.1367 192.579 41.5522 192.052 Q40.9677 191.526 39.9666 191.526 Q39.4978 191.526 39.0291 191.63 Q38.5661 191.734 38.08 191.954 L38.08 187.614 Z" fill="#000000" fill-rule="evenodd" fill-opacity="1" /><path clip-path="url(#clip740)" d="M 0 0 M29.087 135.775 L30.9967 135.775 L30.9967 129.183 L28.9192 129.6 L28.9192 128.535 L30.9851 128.118 L32.1541 128.118 L32.1541 135.775 L34.0638 135.775 L34.0638 136.758 L29.087 136.758 L29.087 135.775 Z" fill="#000000" fill-rule="evenodd" fill-opacity="1" /><path clip-path="url(#clip740)" d="M 0 0 M35.3312 135.289 L36.5522 135.289 L36.5522 136.758 L35.3312 136.758 L35.3312 135.289 Z" fill="#000000" fill-rule="evenodd" fill-opacity="1" /><path clip-path="url(#clip740)" d="M 0 0 M40.3196 128.888 Q39.4168 128.888 38.9596 129.779 Q38.5082 130.665 38.5082 132.447 Q38.5082 134.224 38.9596 135.115 Q39.4168 136 40.3196 136 Q41.2281 136 41.6795 135.115 Q42.1367 134.224 42.1367 132.447 Q42.1367 130.665 41.6795 129.779 Q41.2281 128.888 40.3196 128.888 M40.3196 127.962 Q41.7721 127.962 42.536 129.114 Q43.3057 130.26 43.3057 132.447 Q43.3057 134.629 42.536 135.78 Q41.7721 136.926 40.3196 136.926 Q38.867 136.926 38.0974 135.78 Q37.3335 134.629 37.3335 132.447 Q37.3335 130.26 38.0974 129.114 Q38.867 127.962 40.3196 127.962 Z" fill="#000000" fill-rule="evenodd" fill-opacity="1" /><path clip-path="url(#clip740)" d="M 0 0 M29.3358 76.2793 L31.2455 76.2793 L31.2455 69.6879 L29.168 70.1045 L29.168 69.0397 L31.234 68.623 L32.4029 68.623 L32.4029 76.2793 L34.3127 76.2793 L34.3127 77.263 L29.3358 77.263 L29.3358 76.2793 Z" fill="#000000" fill-rule="evenodd" fill-opacity="1" /><path clip-path="url(#clip740)" d="M 0 0 M35.58 75.7931 L36.8011 75.7931 L36.8011 77.263 L35.58 77.263 L35.58 75.7931 Z" fill="#000000" fill-rule="evenodd" fill-opacity="1" /><path clip-path="url(#clip740)" d="M 0 0 M38.08 68.623 L42.6691 68.623 L42.6691 69.6068 L39.1506 69.6068 L39.1506 71.7249 Q39.4052 71.6381 39.6598 71.5976 Q39.9145 71.5513 40.1691 71.5513 Q41.6159 71.5513 42.4608 72.3441 Q43.3057 73.1369 43.3057 74.4911 Q43.3057 75.8857 42.4376 76.6612 Q41.5696 77.4309 39.9897 77.4309 Q39.4457 77.4309 38.8786 77.3383 Q38.3173 77.2457 37.7154 77.0605 L37.7154 75.8857 Q38.2362 76.1693 38.7918 76.3082 Q39.3473 76.4471 39.9666 76.4471 Q40.9677 76.4471 41.5522 75.9205 Q42.1367 75.3938 42.1367 74.4911 Q42.1367 73.5883 41.5522 73.0617 Q40.9677 72.5351 39.9666 72.5351 Q39.4978 72.5351 39.0291 72.6392 Q38.5661 72.7434 38.08 72.9633 L38.08 68.623 Z" fill="#000000" fill-rule="evenodd" fill-opacity="1" /><path clip-path="url(#clip740)" d="M 0 0 M29.984 16.7839 L34.0638 16.7839 L34.0638 17.7677 L28.5777 17.7677 L28.5777 16.7839 Q29.2432 16.0952 30.3891 14.9378 Q31.5407 13.7746 31.8358 13.439 Q32.3972 12.8082 32.6171 12.3742 Q32.8428 11.9344 32.8428 11.5119 Q32.8428 10.8233 32.3566 10.3892 Q31.8763 9.9552 31.1009 9.9552 Q30.5511 9.9552 29.9377 10.1462 Q29.33 10.3371 28.6356 10.7249 L28.6356 9.54432 Q29.3416 9.26076 29.955 9.11608 Q30.5685 8.97141 31.0777 8.97141 Q32.4203 8.97141 33.2189 9.6427 Q34.0175 10.314 34.0175 11.4367 Q34.0175 11.9691 33.815 12.4494 Q33.6182 12.9239 33.0916 13.5721 Q32.9469 13.7399 32.1715 14.5443 Q31.396 15.3429 29.984 16.7839 Z" fill="#000000" fill-rule="evenodd" fill-opacity="1" /><path clip-path="url(#clip740)" d="M 0 0 M35.3312 16.2978 L36.5522 16.2978 L36.5522 17.7677 L35.3312 17.7677 L35.3312 16.2978 Z" fill="#000000" fill-rule="evenodd" fill-opacity="1" /><path clip-path="url(#clip740)" d="M 0 0 M40.3196 9.89733 Q39.4168 9.89733 38.9596 10.7885 Q38.5082 11.6739 38.5082 13.4563 Q38.5082 15.2329 38.9596 16.1241 Q39.4168 17.0096 40.3196 17.0096 Q41.2281 17.0096 41.6795 16.1241 Q42.1367 15.2329 42.1367 13.4563 Q42.1367 11.6739 41.6795 10.7885 Q41.2281 9.89733 40.3196 9.89733 M40.3196 8.97141 Q41.7721 8.97141 42.536 10.123 Q43.3057 11.2689 43.3057 13.4563 Q43.3057 15.638 42.536 16.7897 Q41.7721 17.9355 40.3196 17.9355 Q38.867 17.9355 38.0974 16.7897 Q37.3335 15.638 37.3335 13.4563 Q37.3335 11.2689 38.0974 10.123 Q38.867 8.97141 40.3196 8.97141 Z" fill="#000000" fill-rule="evenodd" fill-opacity="1" /><g clip-path="url(#clip740)">
<text style="fill:#000000; fill-opacity:1; font-family:Arial,Helvetica Neue,Helvetica,sans-serif; font-size:16px; text-anchor:middle;" transform="rotate(-90, 18.0011, 135.11)" x="18.0011" y="135.11">v</text>
</g>
<circle clip-path="url(#clip742)" cx="65.6106" cy="212.036" r="3" fill="#009af9" fill-rule="evenodd" fill-opacity="1" stroke="#000000" stroke-opacity="1" stroke-width="0.6"/>
<circle clip-path="url(#clip742)" cx="81.8921" cy="147.915" r="3" fill="#009af9" fill-rule="evenodd" fill-opacity="1" stroke="#000000" stroke-opacity="1" stroke-width="0.6"/>
<circle clip-path="url(#clip742)" cx="98.1737" cy="119.601" r="3" fill="#009af9" fill-rule="evenodd" fill-opacity="1" stroke="#000000" stroke-opacity="1" stroke-width="0.6"/>
<circle clip-path="url(#clip742)" cx="114.455" cy="107.158" r="3" fill="#009af9" fill-rule="evenodd" fill-opacity="1" stroke="#000000" stroke-opacity="1" stroke-width="0.6"/>
<circle clip-path="url(#clip742)" cx="130.737" cy="101.471" r="3" fill="#009af9" fill-rule="evenodd" fill-opacity="1" stroke="#000000" stroke-opacity="1" stroke-width="0.6"/>
<circle clip-path="url(#clip742)" cx="147.018" cy="96.7296" r="3" fill="#009af9" fill-rule="evenodd" fill-opacity="1" stroke="#000000" stroke-opacity="1" stroke-width="0.6"/>
<circle clip-path="url(#clip742)" cx="163.3" cy="89.1699" r="3" fill="#009af9" fill-rule="evenodd" fill-opacity="1" stroke="#000000" stroke-opacity="1" stroke-width="0.6"/>
<circle clip-path="url(#clip742)" cx="179.581" cy="77.2821" r="3" fill="#009af9" fill-rule="evenodd" fill-opacity="1" stroke="#000000" stroke-opacity="1" stroke-width="0.6"/>
<circle clip-path="url(#clip742)" cx="195.863" cy="62.1044" r="3" fill="#009af9" fill-rule="evenodd" fill-opacity="1" stroke="#000000" stroke-opacity="1" stroke-width="0.6"/>
<circle clip-path="url(#clip742)" cx="212.145" cy="46.9125" r="3" fill="#009af9" fill-rule="evenodd" fill-opacity="1" stroke="#000000" stroke-opacity="1" stroke-width="0.6"/>
<circle clip-path="url(#clip742)" cx="228.426" cy="36.0161" r="3" fill="#009af9" fill-rule="evenodd" fill-opacity="1" stroke="#000000" stroke-opacity="1" stroke-width="0.6"/>
<circle clip-path="url(#clip742)" cx="244.708" cy="32.8361" r="3" fill="#009af9" fill-rule="evenodd" fill-opacity="1" stroke="#000000" stroke-opacity="1" stroke-width="0.6"/>
<circle clip-path="url(#clip742)" cx="260.989" cy="37.9527" r="3" fill="#009af9" fill-rule="evenodd" fill-opacity="1" stroke="#000000" stroke-opacity="1" stroke-width="0.6"/>
<circle clip-path="url(#clip742)" cx="277.271" cy="48.1397" r="3" fill="#009af9" fill-rule="evenodd" fill-opacity="1" stroke="#000000" stroke-opacity="1" stroke-width="0.6"/>
<circle clip-path="url(#clip742)" cx="293.552" cy="57.2517" r="3" fill="#009af9" fill-rule="evenodd" fill-opacity="1" stroke="#000000" stroke-opacity="1" stroke-width="0.6"/>
<circle clip-path="url(#clip742)" cx="309.834" cy="59.0539" r="3" fill="#009af9" fill-rule="evenodd" fill-opacity="1" stroke="#000000" stroke-opacity="1" stroke-width="0.6"/>
<circle clip-path="url(#clip742)" cx="326.115" cy="50.8737" r="3" fill="#009af9" fill-rule="evenodd" fill-opacity="1" stroke="#000000" stroke-opacity="1" stroke-width="0.6"/>
<circle clip-path="url(#clip742)" cx="342.397" cy="35.954" r="3" fill="#009af9" fill-rule="evenodd" fill-opacity="1" stroke="#000000" stroke-opacity="1" stroke-width="0.6"/>
<circle clip-path="url(#clip742)" cx="358.678" cy="22.4639" r="3" fill="#009af9" fill-rule="evenodd" fill-opacity="1" stroke="#000000" stroke-opacity="1" stroke-width="0.6"/>
<circle clip-path="url(#clip742)" cx="374.96" cy="18.7902" r="3" fill="#009af9" fill-rule="evenodd" fill-opacity="1" stroke="#000000" stroke-opacity="1" stroke-width="0.6"/>
<circle clip-path="url(#clip742)" cx="391.242" cy="27.4654" r="3" fill="#009af9" fill-rule="evenodd" fill-opacity="1" stroke="#000000" stroke-opacity="1" stroke-width="0.6"/>
<circle clip-path="url(#clip742)" cx="407.523" cy="42.1022" r="3" fill="#009af9" fill-rule="evenodd" fill-opacity="1" stroke="#000000" stroke-opacity="1" stroke-width="0.6"/>
<circle clip-path="url(#clip742)" cx="423.805" cy="50.827" r="3" fill="#009af9" fill-rule="evenodd" fill-opacity="1" stroke="#000000" stroke-opacity="1" stroke-width="0.6"/>
<circle clip-path="url(#clip742)" cx="440.086" cy="45.2545" r="3" fill="#009af9" fill-rule="evenodd" fill-opacity="1" stroke="#000000" stroke-opacity="1" stroke-width="0.6"/>
<circle clip-path="url(#clip742)" cx="456.368" cy="28.5385" r="3" fill="#009af9" fill-rule="evenodd" fill-opacity="1" stroke="#000000" stroke-opacity="1" stroke-width="0.6"/>
<polyline clip-path="url(#clip742)" style="stroke:#e26f46; stroke-width:2; stroke-opacity:1; fill:none" stroke-dasharray="8, 5" points="
  65.6106,229.795 81.8921,162.574 98.1737,127.224 114.455,105.421 130.737,90.6309 147.018,79.9384 163.3,71.848 179.581,65.5129 195.863,60.4177 212.145,56.2309 
  228.426,52.7293 244.708,49.7576 260.989,47.2039 277.271,44.9858 293.552,43.0412 309.834,41.3225 326.115,39.7925 342.397,38.4217 358.678,37.1865 374.96,36.0677 
  391.242,35.0496 407.523,34.1192 423.805,33.2657 440.086,32.4798 456.368,31.7539 
  "/>
<polyline clip-path="url(#clip742)" style="stroke:#3da44d; stroke-width:2; stroke-opacity:1; fill:none" points="
  62.3269,251.429 63.2889,244.339 64.251,237.665 65.213,231.372 66.175,225.428 68.3989,212.875 70.6227,201.749 72.8466,191.821 75.0704,182.906 79.5181,167.553 
  83.9658,154.804 88.4135,144.047 92.8612,134.85 97.3089,126.897 101.757,119.95 107.102,112.683 112.448,106.375 117.794,100.849 123.14,95.9679 132.179,88.8932 
  141.219,82.9844 160.858,72.9932 178.963,66.14 198.374,60.4444 220.863,55.3058 240.849,51.6657 258.375,49.0015 277.483,46.5293 296.704,44.402 317.956,42.3822 
  338.177,40.7203 359.201,39.2098 376.899,38.0809 398.507,36.8502 418.819,35.8185 451.36,34.3737 456.368,34.1711 
  "/>
<path clip-path="url(#clip740)" d="
M344.402 250.188 L454.266 250.188 L454.266 189.708 L344.402 189.708  Z
  " fill="#ffffff" fill-rule="evenodd" fill-opacity="1"/>
<polyline clip-path="url(#clip740)" style="stroke:#000000; stroke-width:1; stroke-opacity:1; fill:none" points="
  344.402,250.188 454.266,250.188 454.266,189.708 344.402,189.708 344.402,250.188 
  "/>
<circle clip-path="url(#clip740)" cx="362.966" cy="204.828" r="5" fill="#009af9" fill-rule="evenodd" fill-opacity="1" stroke="#000000" stroke-opacity="1" stroke-width="0.96"/>
<path clip-path="url(#clip740)" d="M 0 0 M386.958 205.236 L386.958 209.148 L385.893 209.148 L385.893 205.271 Q385.893 204.351 385.534 203.894 Q385.176 203.437 384.458 203.437 Q383.596 203.437 383.098 203.986 Q382.6 204.536 382.6 205.485 L382.6 209.148 L381.53 209.148 L381.53 202.667 L382.6 202.667 L382.6 203.674 Q382.982 203.089 383.497 202.8 Q384.018 202.511 384.695 202.511 Q385.812 202.511 386.385 203.205 Q386.958 203.894 386.958 205.236 Z" fill="#000000" fill-rule="evenodd" fill-opacity="1" /><path clip-path="url(#clip740)" d="M 0 0 M390.586 203.414 Q389.73 203.414 389.232 204.085 Q388.735 204.75 388.735 205.914 Q388.735 207.077 389.227 207.748 Q389.724 208.414 390.586 208.414 Q391.437 208.414 391.935 207.742 Q392.433 207.071 392.433 205.914 Q392.433 204.762 391.935 204.091 Q391.437 203.414 390.586 203.414 M390.586 202.511 Q391.975 202.511 392.768 203.414 Q393.561 204.316 393.561 205.914 Q393.561 207.505 392.768 208.414 Q391.975 209.316 390.586 209.316 Q389.192 209.316 388.399 208.414 Q387.612 207.505 387.612 205.914 Q387.612 204.316 388.399 203.414 Q389.192 202.511 390.586 202.511 Z" fill="#000000" fill-rule="evenodd" fill-opacity="1" /><path clip-path="url(#clip740)" d="M 0 0 M394.678 202.667 L395.743 202.667 L395.743 209.148 L394.678 209.148 L394.678 202.667 M394.678 200.144 L395.743 200.144 L395.743 201.492 L394.678 201.492 L394.678 200.144 Z" fill="#000000" fill-rule="evenodd" fill-opacity="1" /><path clip-path="url(#clip740)" d="M 0 0 M400.992 202.858 L400.992 203.865 Q400.54 203.633 400.054 203.518 Q399.568 203.402 399.047 203.402 Q398.254 203.402 397.855 203.645 Q397.461 203.888 397.461 204.374 Q397.461 204.745 397.745 204.959 Q398.029 205.167 398.885 205.358 L399.25 205.439 Q400.384 205.682 400.858 206.128 Q401.339 206.567 401.339 207.36 Q401.339 208.263 400.621 208.79 Q399.909 209.316 398.659 209.316 Q398.139 209.316 397.571 209.212 Q397.01 209.114 396.385 208.911 L396.385 207.812 Q396.975 208.118 397.548 208.275 Q398.121 208.425 398.683 208.425 Q399.435 208.425 399.84 208.17 Q400.245 207.91 400.245 207.441 Q400.245 207.007 399.95 206.776 Q399.661 206.544 398.671 206.33 L398.301 206.243 Q397.311 206.035 396.871 205.607 Q396.431 205.173 396.431 204.42 Q396.431 203.506 397.08 203.008 Q397.728 202.511 398.92 202.511 Q399.51 202.511 400.031 202.598 Q400.552 202.684 400.992 202.858 Z" fill="#000000" fill-rule="evenodd" fill-opacity="1" /><path clip-path="url(#clip740)" d="M 0 0 M405.152 209.75 Q404.701 210.908 404.273 211.261 Q403.845 211.614 403.127 211.614 L402.276 211.614 L402.276 210.723 L402.901 210.723 Q403.341 210.723 403.584 210.514 Q403.827 210.306 404.122 209.53 L404.313 209.044 L401.692 202.667 L402.82 202.667 L404.846 207.736 L406.871 202.667 L408 202.667 L405.152 209.75 Z" fill="#000000" fill-rule="evenodd" fill-opacity="1" /><path clip-path="url(#clip740)" d="M 0 0 M417.149 203.651 L417.149 200.144 L418.214 200.144 L418.214 209.148 L417.149 209.148 L417.149 208.176 Q416.813 208.755 416.298 209.039 Q415.789 209.316 415.071 209.316 Q413.897 209.316 413.156 208.379 Q412.421 207.441 412.421 205.914 Q412.421 204.386 413.156 203.448 Q413.897 202.511 415.071 202.511 Q415.789 202.511 416.298 202.794 Q416.813 203.072 417.149 203.651 M413.52 205.914 Q413.52 207.088 414.001 207.76 Q414.487 208.425 415.332 208.425 Q416.177 208.425 416.663 207.76 Q417.149 207.088 417.149 205.914 Q417.149 204.739 416.663 204.073 Q416.177 203.402 415.332 203.402 Q414.487 203.402 414.001 204.073 Q413.52 204.739 413.52 205.914 Z" fill="#000000" fill-rule="evenodd" fill-opacity="1" /><path clip-path="url(#clip740)" d="M 0 0 M422.276 205.89 Q420.986 205.89 420.488 206.186 Q419.99 206.481 419.99 207.192 Q419.99 207.76 420.361 208.095 Q420.737 208.425 421.379 208.425 Q422.265 208.425 422.797 207.8 Q423.335 207.169 423.335 206.128 L423.335 205.89 L422.276 205.89 M424.4 205.451 L424.4 209.148 L423.335 209.148 L423.335 208.165 Q422.971 208.755 422.427 209.039 Q421.883 209.316 421.096 209.316 Q420.1 209.316 419.51 208.761 Q418.925 208.199 418.925 207.262 Q418.925 206.168 419.655 205.613 Q420.39 205.057 421.842 205.057 L423.335 205.057 L423.335 204.953 Q423.335 204.218 422.849 203.819 Q422.369 203.414 421.495 203.414 Q420.939 203.414 420.413 203.547 Q419.886 203.68 419.4 203.946 L419.4 202.962 Q419.984 202.736 420.534 202.627 Q421.084 202.511 421.605 202.511 Q423.011 202.511 423.706 203.24 Q424.4 203.969 424.4 205.451 Z" fill="#000000" fill-rule="evenodd" fill-opacity="1" /><path clip-path="url(#clip740)" d="M 0 0 M426.57 200.827 L426.57 202.667 L428.763 202.667 L428.763 203.495 L426.57 203.495 L426.57 207.013 Q426.57 207.806 426.784 208.032 Q427.004 208.257 427.67 208.257 L428.763 208.257 L428.763 209.148 L427.67 209.148 Q426.437 209.148 425.968 208.691 Q425.499 208.228 425.499 207.013 L425.499 203.495 L424.718 203.495 L424.718 202.667 L425.499 202.667 L425.499 200.827 L426.57 200.827 Z" fill="#000000" fill-rule="evenodd" fill-opacity="1" /><path clip-path="url(#clip740)" d="M 0 0 M432.826 205.89 Q431.535 205.89 431.038 206.186 Q430.54 206.481 430.54 207.192 Q430.54 207.76 430.91 208.095 Q431.287 208.425 431.929 208.425 Q432.814 208.425 433.347 207.8 Q433.885 207.169 433.885 206.128 L433.885 205.89 L432.826 205.89 M434.95 205.451 L434.95 209.148 L433.885 209.148 L433.885 208.165 Q433.52 208.755 432.976 209.039 Q432.432 209.316 431.645 209.316 Q430.65 209.316 430.06 208.761 Q429.475 208.199 429.475 207.262 Q429.475 206.168 430.204 205.613 Q430.939 205.057 432.392 205.057 L433.885 205.057 L433.885 204.953 Q433.885 204.218 433.399 203.819 Q432.918 203.414 432.045 203.414 Q431.489 203.414 430.962 203.547 Q430.436 203.68 429.95 203.946 L429.95 202.962 Q430.534 202.736 431.084 202.627 Q431.634 202.511 432.155 202.511 Q433.561 202.511 434.255 203.24 Q434.95 203.969 434.95 205.451 Z" fill="#000000" fill-rule="evenodd" fill-opacity="1" /><polyline clip-path="url(#clip740)" style="stroke:#e26f46; stroke-width:1; stroke-opacity:1; fill:none" stroke-dasharray="8, 5" points="
  349.043,219.948 376.889,219.948 
  "/>
<path clip-path="url(#clip740)" d="M 0 0 M384.504 218.534 Q383.648 218.534 383.15 219.205 Q382.653 219.87 382.653 221.034 Q382.653 222.197 383.144 222.868 Q383.642 223.534 384.504 223.534 Q385.355 223.534 385.853 222.862 Q386.35 222.191 386.35 221.034 Q386.35 219.882 385.853 219.211 Q385.355 218.534 384.504 218.534 M384.504 217.631 Q385.893 217.631 386.686 218.534 Q387.479 219.436 387.479 221.034 Q387.479 222.625 386.686 223.534 Q385.893 224.436 384.504 224.436 Q383.11 224.436 382.317 223.534 Q381.53 222.625 381.53 221.034 Q381.53 219.436 382.317 218.534 Q383.11 217.631 384.504 217.631 Z" fill="#000000" fill-rule="evenodd" fill-opacity="1" /><path clip-path="url(#clip740)" d="M 0 0 M392.352 218.782 Q392.172 218.678 391.958 218.632 Q391.75 218.58 391.495 218.58 Q390.592 218.58 390.106 219.17 Q389.626 219.755 389.626 220.854 L389.626 224.268 L388.555 224.268 L388.555 217.787 L389.626 217.787 L389.626 218.794 Q389.961 218.204 390.5 217.92 Q391.038 217.631 391.808 217.631 Q391.918 217.631 392.051 217.648 Q392.184 217.66 392.346 217.689 L392.352 218.782 Z" fill="#000000" fill-rule="evenodd" fill-opacity="1" /><path clip-path="url(#clip740)" d="M 0 0 M393.468 217.787 L394.533 217.787 L394.533 224.268 L393.468 224.268 L393.468 217.787 M393.468 215.264 L394.533 215.264 L394.533 216.612 L393.468 216.612 L393.468 215.264 Z" fill="#000000" fill-rule="evenodd" fill-opacity="1" /><path clip-path="url(#clip740)" d="M 0 0 M399.915 220.953 Q399.915 219.795 399.435 219.159 Q398.96 218.522 398.098 218.522 Q397.242 218.522 396.761 219.159 Q396.287 219.795 396.287 220.953 Q396.287 222.104 396.761 222.741 Q397.242 223.377 398.098 223.377 Q398.96 223.377 399.435 222.741 Q399.915 222.104 399.915 220.953 M400.98 223.464 Q400.98 225.119 400.245 225.924 Q399.51 226.734 397.994 226.734 Q397.433 226.734 396.935 226.647 Q396.437 226.566 395.968 226.392 L395.968 225.356 Q396.437 225.611 396.894 225.733 Q397.352 225.854 397.826 225.854 Q398.873 225.854 399.394 225.304 Q399.915 224.76 399.915 223.655 L399.915 223.128 Q399.585 223.701 399.07 223.985 Q398.555 224.268 397.838 224.268 Q396.645 224.268 395.916 223.36 Q395.187 222.451 395.187 220.953 Q395.187 219.448 395.916 218.539 Q396.645 217.631 397.838 217.631 Q398.555 217.631 399.07 217.914 Q399.585 218.198 399.915 218.771 L399.915 217.787 L400.98 217.787 L400.98 223.464 Z" fill="#000000" fill-rule="evenodd" fill-opacity="1" /><path clip-path="url(#clip740)" d="M 0 0 M402.097 217.787 L403.162 217.787 L403.162 224.268 L402.097 224.268 L402.097 217.787 M402.097 215.264 L403.162 215.264 L403.162 216.612 L402.097 216.612 L402.097 215.264 Z" fill="#000000" fill-rule="evenodd" fill-opacity="1" /><path clip-path="url(#clip740)" d="M 0 0 M409.666 220.356 L409.666 224.268 L408.601 224.268 L408.601 220.391 Q408.601 219.471 408.243 219.014 Q407.884 218.557 407.166 218.557 Q406.304 218.557 405.806 219.106 Q405.309 219.656 405.309 220.605 L405.309 224.268 L404.238 224.268 L404.238 217.787 L405.309 217.787 L405.309 218.794 Q405.691 218.209 406.206 217.92 Q406.726 217.631 407.404 217.631 Q408.52 217.631 409.093 218.325 Q409.666 219.014 409.666 220.356 Z" fill="#000000" fill-rule="evenodd" fill-opacity="1" /><path clip-path="url(#clip740)" d="M 0 0 M413.729 221.01 Q412.438 221.01 411.941 221.306 Q411.443 221.601 411.443 222.312 Q411.443 222.88 411.813 223.215 Q412.189 223.545 412.832 223.545 Q413.717 223.545 414.25 222.92 Q414.788 222.289 414.788 221.248 L414.788 221.01 L413.729 221.01 M415.853 220.571 L415.853 224.268 L414.788 224.268 L414.788 223.285 Q414.423 223.875 413.879 224.159 Q413.335 224.436 412.548 224.436 Q411.553 224.436 410.963 223.881 Q410.378 223.319 410.378 222.382 Q410.378 221.288 411.107 220.733 Q411.842 220.177 413.295 220.177 L414.788 220.177 L414.788 220.073 Q414.788 219.338 414.302 218.939 Q413.821 218.534 412.947 218.534 Q412.392 218.534 411.865 218.667 Q411.339 218.8 410.853 219.066 L410.853 218.082 Q411.437 217.856 411.987 217.747 Q412.537 217.631 413.057 217.631 Q414.464 217.631 415.158 218.36 Q415.853 219.089 415.853 220.571 Z" fill="#000000" fill-rule="evenodd" fill-opacity="1" /><path clip-path="url(#clip740)" d="M 0 0 M416.969 215.264 L418.034 215.264 L418.034 224.268 L416.969 224.268 L416.969 215.264 Z" fill="#000000" fill-rule="evenodd" fill-opacity="1" /><path clip-path="url(#clip740)" d="M 0 0 M427.184 218.771 L427.184 215.264 L428.248 215.264 L428.248 224.268 L427.184 224.268 L427.184 223.296 Q426.848 223.875 426.333 224.159 Q425.824 224.436 425.106 224.436 Q423.931 224.436 423.19 223.499 Q422.456 222.561 422.456 221.034 Q422.456 219.506 423.19 218.568 Q423.931 217.631 425.106 217.631 Q425.824 217.631 426.333 217.914 Q426.848 218.192 427.184 218.771 M423.555 221.034 Q423.555 222.208 424.035 222.88 Q424.521 223.545 425.366 223.545 Q426.211 223.545 426.697 222.88 Q427.184 222.208 427.184 221.034 Q427.184 219.859 426.697 219.193 Q426.211 218.522 425.366 218.522 Q424.521 218.522 424.035 219.193 Q423.555 219.859 423.555 221.034 Z" fill="#000000" fill-rule="evenodd" fill-opacity="1" /><path clip-path="url(#clip740)" d="M 0 0 M432.311 221.01 Q431.02 221.01 430.523 221.306 Q430.025 221.601 430.025 222.312 Q430.025 222.88 430.395 223.215 Q430.771 223.545 431.414 223.545 Q432.299 223.545 432.832 222.92 Q433.37 222.289 433.37 221.248 L433.37 221.01 L432.311 221.01 M434.435 220.571 L434.435 224.268 L433.37 224.268 L433.37 223.285 Q433.005 223.875 432.461 224.159 Q431.917 224.436 431.13 224.436 Q430.135 224.436 429.545 223.881 Q428.96 223.319 428.96 222.382 Q428.96 221.288 429.689 220.733 Q430.424 220.177 431.877 220.177 L433.37 220.177 L433.37 220.073 Q433.37 219.338 432.884 218.939 Q432.403 218.534 431.53 218.534 Q430.974 218.534 430.447 218.667 Q429.921 218.8 429.435 219.066 L429.435 218.082 Q430.019 217.856 430.569 217.747 Q431.119 217.631 431.64 217.631 Q433.046 217.631 433.74 218.36 Q434.435 219.089 434.435 220.571 Z" fill="#000000" fill-rule="evenodd" fill-opacity="1" /><path clip-path="url(#clip740)" d="M 0 0 M436.605 215.947 L436.605 217.787 L438.798 217.787 L438.798 218.615 L436.605 218.615 L436.605 222.133 Q436.605 222.926 436.819 223.152 Q437.039 223.377 437.704 223.377 L438.798 223.377 L438.798 224.268 L437.704 224.268 Q436.472 224.268 436.003 223.811 Q435.534 223.348 435.534 222.133 L435.534 218.615 L434.753 218.615 L434.753 217.787 L435.534 217.787 L435.534 215.947 L436.605 215.947 Z" fill="#000000" fill-rule="evenodd" fill-opacity="1" /><path clip-path="url(#clip740)" d="M 0 0 M442.861 221.01 Q441.57 221.01 441.072 221.306 Q440.575 221.601 440.575 222.312 Q440.575 222.88 440.945 223.215 Q441.321 223.545 441.964 223.545 Q442.849 223.545 443.381 222.92 Q443.92 222.289 443.92 221.248 L443.92 221.01 L442.861 221.01 M444.984 220.571 L444.984 224.268 L443.92 224.268 L443.92 223.285 Q443.555 223.875 443.011 224.159 Q442.467 224.436 441.68 224.436 Q440.685 224.436 440.094 223.881 Q439.51 223.319 439.51 222.382 Q439.51 221.288 440.239 220.733 Q440.974 220.177 442.426 220.177 L443.92 220.177 L443.92 220.073 Q443.92 219.338 443.433 218.939 Q442.953 218.534 442.079 218.534 Q441.524 218.534 440.997 218.667 Q440.47 218.8 439.984 219.066 L439.984 218.082 Q440.569 217.856 441.119 217.747 Q441.668 217.631 442.189 217.631 Q443.595 217.631 444.29 218.36 Q444.984 219.089 444.984 220.571 Z" fill="#000000" fill-rule="evenodd" fill-opacity="1" /><polyline clip-path="url(#clip740)" style="stroke:#3da44d; stroke-width:1; stroke-opacity:1; fill:none" points="
  349.043,235.068 376.889,235.068 
  "/>
<path clip-path="url(#clip740)" d="M 0 0 M386.958 235.476 L386.958 239.388 L385.893 239.388 L385.893 235.511 Q385.893 234.591 385.534 234.134 Q385.176 233.677 384.458 233.677 Q383.596 233.677 383.098 234.226 Q382.6 234.776 382.6 235.725 L382.6 239.388 L381.53 239.388 L381.53 232.907 L382.6 232.907 L382.6 233.914 Q382.982 233.329 383.497 233.04 Q384.018 232.751 384.695 232.751 Q385.812 232.751 386.385 233.445 Q386.958 234.134 386.958 235.476 Z" fill="#000000" fill-rule="evenodd" fill-opacity="1" /><path clip-path="url(#clip740)" d="M 0 0 M390.586 233.654 Q389.73 233.654 389.232 234.325 Q388.735 234.99 388.735 236.154 Q388.735 237.317 389.227 237.988 Q389.724 238.654 390.586 238.654 Q391.437 238.654 391.935 237.982 Q392.433 237.311 392.433 236.154 Q392.433 235.002 391.935 234.331 Q391.437 233.654 390.586 233.654 M390.586 232.751 Q391.975 232.751 392.768 233.654 Q393.561 234.556 393.561 236.154 Q393.561 237.745 392.768 238.654 Q391.975 239.556 390.586 239.556 Q389.192 239.556 388.399 238.654 Q387.612 237.745 387.612 236.154 Q387.612 234.556 388.399 233.654 Q389.192 232.751 390.586 232.751 Z" fill="#000000" fill-rule="evenodd" fill-opacity="1" /><path clip-path="url(#clip740)" d="M 0 0 M400.066 235.476 L400.066 239.388 L399.001 239.388 L399.001 235.511 Q399.001 234.591 398.642 234.134 Q398.283 233.677 397.566 233.677 Q396.703 233.677 396.206 234.226 Q395.708 234.776 395.708 235.725 L395.708 239.388 L394.637 239.388 L394.637 232.907 L395.708 232.907 L395.708 233.914 Q396.09 233.329 396.605 233.04 Q397.126 232.751 397.803 232.751 Q398.92 232.751 399.493 233.445 Q400.066 234.134 400.066 235.476 Z" fill="#000000" fill-rule="evenodd" fill-opacity="1" /><path clip-path="url(#clip740)" d="M 0 0 M401.182 230.384 L402.247 230.384 L402.247 239.388 L401.182 239.388 L401.182 230.384 Z" fill="#000000" fill-rule="evenodd" fill-opacity="1" /><path clip-path="url(#clip740)" d="M 0 0 M403.364 232.907 L404.429 232.907 L404.429 239.388 L403.364 239.388 L403.364 232.907 M403.364 230.384 L404.429 230.384 L404.429 231.732 L403.364 231.732 L403.364 230.384 Z" fill="#000000" fill-rule="evenodd" fill-opacity="1" /><path clip-path="url(#clip740)" d="M 0 0 M410.934 235.476 L410.934 239.388 L409.869 239.388 L409.869 235.511 Q409.869 234.591 409.51 234.134 Q409.151 233.677 408.434 233.677 Q407.571 233.677 407.074 234.226 Q406.576 234.776 406.576 235.725 L406.576 239.388 L405.505 239.388 L405.505 232.907 L406.576 232.907 L406.576 233.914 Q406.958 233.329 407.473 233.04 Q407.994 232.751 408.671 232.751 Q409.788 232.751 410.361 233.445 Q410.934 234.134 410.934 235.476 Z" fill="#000000" fill-rule="evenodd" fill-opacity="1" /><path clip-path="url(#clip740)" d="M 0 0 M417.594 235.882 L417.594 236.402 L412.699 236.402 Q412.768 237.502 413.358 238.081 Q413.954 238.654 415.013 238.654 Q415.627 238.654 416.2 238.503 Q416.778 238.353 417.346 238.052 L417.346 239.059 Q416.773 239.302 416.171 239.429 Q415.569 239.556 414.95 239.556 Q413.399 239.556 412.49 238.654 Q411.588 237.751 411.588 236.211 Q411.588 234.62 412.444 233.688 Q413.306 232.751 414.765 232.751 Q416.072 232.751 416.831 233.596 Q417.594 234.435 417.594 235.882 M416.53 235.569 Q416.518 234.695 416.038 234.174 Q415.563 233.654 414.776 233.654 Q413.885 233.654 413.347 234.157 Q412.814 234.66 412.733 235.575 L416.53 235.569 Z" fill="#000000" fill-rule="evenodd" fill-opacity="1" /><path clip-path="url(#clip740)" d="M 0 0 M421.657 236.13 Q420.366 236.13 419.869 236.426 Q419.371 236.721 419.371 237.432 Q419.371 238 419.741 238.335 Q420.118 238.665 420.76 238.665 Q421.645 238.665 422.178 238.04 Q422.716 237.409 422.716 236.368 L422.716 236.13 L421.657 236.13 M423.781 235.691 L423.781 239.388 L422.716 239.388 L422.716 238.405 Q422.351 238.995 421.807 239.279 Q421.263 239.556 420.476 239.556 Q419.481 239.556 418.891 239.001 Q418.306 238.439 418.306 237.502 Q418.306 236.408 419.035 235.853 Q419.77 235.297 421.223 235.297 L422.716 235.297 L422.716 235.193 Q422.716 234.458 422.23 234.059 Q421.75 233.654 420.876 233.654 Q420.32 233.654 419.794 233.787 Q419.267 233.92 418.781 234.186 L418.781 233.202 Q419.365 232.976 419.915 232.867 Q420.465 232.751 420.986 232.751 Q422.392 232.751 423.086 233.48 Q423.781 234.209 423.781 235.691 Z" fill="#000000" fill-rule="evenodd" fill-opacity="1" /><path clip-path="url(#clip740)" d="M 0 0 M428.653 233.902 Q428.474 233.798 428.26 233.752 Q428.052 233.7 427.797 233.7 Q426.894 233.7 426.408 234.29 Q425.928 234.875 425.928 235.974 L425.928 239.388 L424.857 239.388 L424.857 232.907 L425.928 232.907 L425.928 233.914 Q426.263 233.324 426.802 233.04 Q427.34 232.751 428.109 232.751 Q428.219 232.751 428.352 232.768 Q428.486 232.78 428.648 232.809 L428.653 233.902 Z" fill="#000000" fill-rule="evenodd" fill-opacity="1" /><path clip-path="url(#clip740)" d="M 0 0 M436.819 230.384 L436.819 231.269 L435.8 231.269 Q435.227 231.269 435.002 231.501 Q434.782 231.732 434.782 232.334 L434.782 232.907 L436.535 232.907 L436.535 233.735 L434.782 233.735 L434.782 239.388 L433.711 239.388 L433.711 233.735 L432.693 233.735 L432.693 232.907 L433.711 232.907 L433.711 232.456 Q433.711 231.373 434.215 230.882 Q434.718 230.384 435.812 230.384 L436.819 230.384 Z" fill="#000000" fill-rule="evenodd" fill-opacity="1" /><path clip-path="url(#clip740)" d="M 0 0 M437.936 232.907 L439.001 232.907 L439.001 239.388 L437.936 239.388 L437.936 232.907 M437.936 230.384 L439.001 230.384 L439.001 231.732 L437.936 231.732 L437.936 230.384 Z" fill="#000000" fill-rule="evenodd" fill-opacity="1" /><path clip-path="url(#clip740)" d="M 0 0 M441.171 231.067 L441.171 232.907 L443.364 232.907 L443.364 233.735 L441.171 233.735 L441.171 237.253 Q441.171 238.046 441.385 238.272 Q441.605 238.497 442.27 238.497 L443.364 238.497 L443.364 239.388 L442.27 239.388 Q441.038 239.388 440.569 238.931 Q440.1 238.468 440.1 237.253 L440.1 233.735 L439.319 233.735 L439.319 232.907 L440.1 232.907 L440.1 231.067 L441.171 231.067 Z" fill="#000000" fill-rule="evenodd" fill-opacity="1" /></svg>
