<?xml version="1.0" encoding="utf-8"?>
<svg xmlns="http://www.w3.org/2000/svg" xmlns:xlink="http://www.w3.org/1999/xlink" width="120" height="75" viewBox="0 0 480 300">
<defs>
  <clipPath id="clip660">
    <rect x="0" y="0" width="480" height="300"/>
  </clipPath>
</defs>
<path clip-path="url(#clip660)" d="
M0 300 L480 300 L480 0 L0 0  Z
  " fill="#ffffff" fill-rule="evenodd" fill-opacity="1"/>
<defs>
  <clipPath id="clip661">
    <rect x="96" y="0" width="337" height="300"/>
  </clipPath>
</defs>
<path clip-path="url(#clip660)" d="
M58.8035 258.408 L468.189 258.408 L468.189 27.537 L58.8035 27.537  Z
  " fill="#ffffff" fill-rule="evenodd" fill-opacity="1"/>
<defs>
  <clipPath id="clip662">
    <rect x="58" y="27" width="410" height="232"/>
  </clipPath>
</defs>
<polyline clip-path="url(#clip662)" style="stroke:#000000; stroke-width:0.5; stroke-opacity:0.1; fill:none" points="
  140.61,258.408 140.61,27.537 
  "/>
<polyline clip-path="url(#clip662)" style="stroke:#000000; stroke-width:0.5; stroke-opacity:0.1; fill:none" points="
  228.386,258.408 228.386,27.537 
  "/>
<polyline clip-path="url(#clip662)" style="stroke:#000000; stroke-width:0.5; stroke-opacity:0.1; fill:none" points="
  316.162,258.408 316.162,27.537 
  "/>
<polyline clip-path="url(#clip662)" style="stroke:#000000; stroke-width:0.5; stroke-opacity:0.1; fill:none" points="
  403.937,258.408 403.937,27.537 
  "/>
<polyline clip-path="url(#clip660)" style="stroke:#000000; stroke-width:1; stroke-opacity:1; fill:none" points="
  58.8035,258.408 468.189,258.408 
  "/>
<polyline clip-path="url(#clip660)" style="stroke:#000000; stroke-width:1; stroke-opacity:1; fill:none" points="
  140.61,258.408 140.61,255.638 
  "/>
<polyline clip-path="url(#clip660)" style="stroke:#000000; stroke-width:1; stroke-opacity:1; fill:none" points="
  228.386,258.408 228.386,255.638 
  "/>
<polyline clip-path="url(#clip660)" style="stroke:#000000; stroke-width:1; stroke-opacity:1; fill:none" points="
  316.162,258.408 316.162,255.638 
  "/>
<polyline clip-path="url(#clip660)" style="stroke:#000000; stroke-width:1; stroke-opacity:1; fill:none" points="
  403.937,258.408 403.937,255.638 
  "/>
<path clip-path="url(#clip660)" d="M 0 0 M138.18 263.976 L142.769 263.976 L142.769 264.96 L139.25 264.96 L139.25 267.078 Q139.505 266.991 139.76 266.951 Q140.014 266.905 140.269 266.905 Q141.716 266.905 142.561 267.697 Q143.406 268.49 143.406 269.844 Q143.406 271.239 142.537 272.015 Q141.669 272.784 140.09 272.784 Q139.546 272.784 138.978 272.692 Q138.417 272.599 137.815 272.414 L137.815 271.239 Q138.336 271.523 138.892 271.662 Q139.447 271.8 140.066 271.8 Q141.068 271.8 141.652 271.274 Q142.237 270.747 142.237 269.844 Q142.237 268.942 141.652 268.415 Q141.068 267.888 140.066 267.888 Q139.598 267.888 139.129 267.993 Q138.666 268.097 138.18 268.317 L138.18 263.976 Z" fill="#000000" fill-rule="evenodd" fill-opacity="1" /><path clip-path="url(#clip660)" d="M 0 0 M222.605 271.633 L224.514 271.633 L224.514 265.041 L222.437 265.458 L222.437 264.393 L224.503 263.976 L225.672 263.976 L225.672 271.633 L227.582 271.633 L227.582 272.616 L222.605 272.616 L222.605 271.633 Z" fill="#000000" fill-rule="evenodd" fill-opacity="1" /><path clip-path="url(#clip660)" d="M 0 0 M231.349 264.746 Q230.446 264.746 229.989 265.637 Q229.538 266.523 229.538 268.305 Q229.538 270.082 229.989 270.973 Q230.446 271.858 231.349 271.858 Q232.257 271.858 232.709 270.973 Q233.166 270.082 233.166 268.305 Q233.166 266.523 232.709 265.637 Q232.257 264.746 231.349 264.746 M231.349 263.82 Q232.801 263.82 233.565 264.972 Q234.335 266.118 234.335 268.305 Q234.335 270.487 233.565 271.638 Q232.801 272.784 231.349 272.784 Q229.896 272.784 229.127 271.638 Q228.363 270.487 228.363 268.305 Q228.363 266.118 229.127 264.972 Q229.896 263.82 231.349 263.82 Z" fill="#000000" fill-rule="evenodd" fill-opacity="1" /><path clip-path="url(#clip660)" d="M 0 0 M310.505 271.633 L312.415 271.633 L312.415 265.041 L310.337 265.458 L310.337 264.393 L312.403 263.976 L313.572 263.976 L313.572 271.633 L315.482 271.633 L315.482 272.616 L310.505 272.616 L310.505 271.633 Z" fill="#000000" fill-rule="evenodd" fill-opacity="1" /><path clip-path="url(#clip660)" d="M 0 0 M316.761 263.976 L321.35 263.976 L321.35 264.96 L317.831 264.96 L317.831 267.078 Q318.086 266.991 318.34 266.951 Q318.595 266.905 318.85 266.905 Q320.296 266.905 321.141 267.697 Q321.986 268.49 321.986 269.844 Q321.986 271.239 321.118 272.015 Q320.25 272.784 318.67 272.784 Q318.126 272.784 317.559 272.692 Q316.998 272.599 316.396 272.414 L316.396 271.239 Q316.917 271.523 317.472 271.662 Q318.028 271.8 318.647 271.8 Q319.648 271.8 320.233 271.274 Q320.817 270.747 320.817 269.844 Q320.817 268.942 320.233 268.415 Q319.648 267.888 318.647 267.888 Q318.178 267.888 317.71 267.993 Q317.247 268.097 316.761 268.317 L316.761 263.976 Z" fill="#000000" fill-rule="evenodd" fill-opacity="1" /><path clip-path="url(#clip660)" d="M 0 0 M399.224 271.633 L403.304 271.633 L403.304 272.616 L397.817 272.616 L397.817 271.633 Q398.483 270.944 399.629 269.787 Q400.78 268.623 401.076 268.288 Q401.637 267.657 401.857 267.223 Q402.082 266.783 402.082 266.361 Q402.082 265.672 401.596 265.238 Q401.116 264.804 400.341 264.804 Q399.791 264.804 399.177 264.995 Q398.57 265.186 397.875 265.574 L397.875 264.393 Q398.581 264.109 399.195 263.965 Q399.808 263.82 400.317 263.82 Q401.66 263.82 402.459 264.491 Q403.257 265.163 403.257 266.285 Q403.257 266.818 403.055 267.298 Q402.858 267.773 402.331 268.421 Q402.187 268.589 401.411 269.393 Q400.636 270.192 399.224 271.633 Z" fill="#000000" fill-rule="evenodd" fill-opacity="1" /><path clip-path="url(#clip660)" d="M 0 0 M407.071 264.746 Q406.168 264.746 405.711 265.637 Q405.26 266.523 405.26 268.305 Q405.26 270.082 405.711 270.973 Q406.168 271.858 407.071 271.858 Q407.979 271.858 408.431 270.973 Q408.888 270.082 408.888 268.305 Q408.888 266.523 408.431 265.637 Q407.979 264.746 407.071 264.746 M407.071 263.82 Q408.523 263.82 409.287 264.972 Q410.057 266.118 410.057 268.305 Q410.057 270.487 409.287 271.638 Q408.523 272.784 407.071 272.784 Q405.618 272.784 404.849 271.638 Q404.085 270.487 404.085 268.305 Q404.085 266.118 404.849 264.972 Q405.618 263.82 407.071 263.82 Z" fill="#000000" fill-rule="evenodd" fill-opacity="1" /><g clip-path="url(#clip660)">
<text style="fill:#000000; fill-opacity:1; font-family:Arial,Helvetica Neue,Helvetica,sans-serif; font-size:16px; text-anchor:middle;" transform="rotate(0, 263.496, 293.459)" x="263.496" y="293.459">iteration</text>
</g>
<polyline clip-path="url(#clip662)" style="stroke:#000000; stroke-width:0.5; stroke-opacity:0.1; fill:none" points="
  58.8035,227.832 468.189,227.832 
  "/>
<polyline clip-path="url(#clip662)" style="stroke:#000000; stroke-width:0.5; stroke-opacity:0.1; fill:none" points="
  58.8035,179.199 468.189,179.199 
  "/>
<polyline clip-path="url(#clip662)" style="stroke:#000000; stroke-width:0.5; stroke-opacity:0.1; fill:none" points="
  58.8035,130.566 468.189,130.566 
  "/>
<polyline clip-path="url(#clip662)" style="stroke:#000000; stroke-width:0.5; stroke-opacity:0.1; fill:none" points="
  58.8035,81.9331 468.189,81.9331 
  "/>
<polyline clip-path="url(#clip662)" style="stroke:#000000; stroke-width:0.5; stroke-opacity:0.1; fill:none" points="
  58.8035,33.3001 468.189,33.3001 
  "/>
<polyline clip-path="url(#clip660)" style="stroke:#000000; stroke-width:1; stroke-opacity:1; fill:none" points="
  58.8035,258.408 58.8035,27.537 
  "/>
<polyline clip-path="url(#clip660)" style="stroke:#000000; stroke-width:1; stroke-opacity:1; fill:none" points="
  58.8035,227.832 63.7161,227.832 
  "/>
<polyline clip-path="url(#clip660)" style="stroke:#000000; stroke-width:1; stroke-opacity:1; fill:none" points="
  58.8035,179.199 63.7161,179.199 
  "/>
<polyline clip-path="url(#clip660)" style="stroke:#000000; stroke-width:1; stroke-opacity:1; fill:none" points="
  58.8035,130.566 63.7161,130.566 
  "/>
<polyline clip-path="url(#clip660)" style="stroke:#000000; stroke-width:1; stroke-opacity:1; fill:none" points="
  58.8035,81.9331 63.7161,81.9331 
  "/>
<polyline clip-path="url(#clip660)" style="stroke:#000000; stroke-width:1; stroke-opacity:1; fill:none" points="
  58.8035,33.3001 63.7161,33.3001 
  "/>
<path clip-path="url(#clip660)" d="M 0 0 M28.377 232.781 L30.2867 232.781 L30.2867 226.189 L28.2092 226.606 L28.2092 225.541 L30.2751 225.124 L31.4441 225.124 L31.4441 232.781 L33.3538 232.781 L33.3538 233.764 L28.377 233.764 L28.377 232.781 Z" fill="#000000" fill-rule="evenodd" fill-opacity="1" /><path clip-path="url(#clip660)" d="M 0 0 M37.1212 225.894 Q36.2184 225.894 35.7612 226.785 Q35.3098 227.671 35.3098 229.453 Q35.3098 231.23 35.7612 232.121 Q36.2184 233.006 37.1212 233.006 Q38.0297 233.006 38.4811 232.121 Q38.9383 231.23 38.9383 229.453 Q38.9383 227.671 38.4811 226.785 Q38.0297 225.894 37.1212 225.894 M37.1212 224.968 Q38.5737 224.968 39.3376 226.12 Q40.1073 227.266 40.1073 229.453 Q40.1073 231.635 39.3376 232.786 Q38.5737 233.932 37.1212 233.932 Q35.6686 233.932 34.8989 232.786 Q34.1351 231.635 34.1351 229.453 Q34.1351 227.266 34.8989 226.12 Q35.6686 224.968 37.1212 224.968 Z" fill="#000000" fill-rule="evenodd" fill-opacity="1" /><path clip-path="url(#clip660)" d="M 0 0 M40.1073 223.493 L46.1351 223.493 L46.1351 224.293 L40.1073 224.293 L40.1073 223.493 Z" fill="#000000" fill-rule="evenodd" fill-opacity="1" /><path clip-path="url(#clip660)" d="M 0 0 M49.1961 223.578 Q48.519 223.578 48.1288 223.94 Q47.7432 224.302 47.7432 224.937 Q47.7432 225.572 48.1288 225.934 Q48.519 226.296 49.1961 226.296 Q49.8732 226.296 50.2634 225.934 Q50.6537 225.567 50.6537 224.937 Q50.6537 224.302 50.2634 223.94 Q49.8779 223.578 49.1961 223.578 M48.2463 223.174 Q47.6351 223.023 47.2918 222.605 Q46.9533 222.186 46.9533 221.584 Q46.9533 220.743 47.5504 220.254 Q48.1523 219.765 49.1961 219.765 Q50.2446 219.765 50.8418 220.254 Q51.4389 220.743 51.4389 221.584 Q51.4389 222.186 51.0957 222.605 Q50.7572 223.023 50.1506 223.174 Q50.8371 223.334 51.2179 223.799 Q51.6035 224.265 51.6035 224.937 Q51.6035 225.957 50.9781 226.503 Q50.3575 227.048 49.1961 227.048 Q48.0347 227.048 47.4094 226.503 Q46.7887 225.957 46.7887 224.937 Q46.7887 224.265 47.1743 223.799 Q47.5598 223.334 48.2463 223.174 M47.8984 221.674 Q47.8984 222.219 48.2369 222.525 Q48.5802 222.83 49.1961 222.83 Q49.8074 222.83 50.1506 222.525 Q50.4985 222.219 50.4985 221.674 Q50.4985 221.128 50.1506 220.823 Q49.8074 220.517 49.1961 220.517 Q48.5802 220.517 48.2369 220.823 Q47.8984 221.128 47.8984 221.674 Z" fill="#000000" fill-rule="evenodd" fill-opacity="1" /><path clip-path="url(#clip660)" d="M 0 0 M28.3253 184.147 L30.235 184.147 L30.235 177.556 L28.1574 177.973 L28.1574 176.908 L30.2234 176.491 L31.3924 176.491 L31.3924 184.147 L33.3021 184.147 L33.3021 185.131 L28.3253 185.131 L28.3253 184.147 Z" fill="#000000" fill-rule="evenodd" fill-opacity="1" /><path clip-path="url(#clip660)" d="M 0 0 M37.0694 177.261 Q36.1667 177.261 35.7095 178.152 Q35.2581 179.038 35.2581 180.82 Q35.2581 182.597 35.7095 183.488 Q36.1667 184.373 37.0694 184.373 Q37.978 184.373 38.4294 183.488 Q38.8866 182.597 38.8866 180.82 Q38.8866 179.038 38.4294 178.152 Q37.978 177.261 37.0694 177.261 M37.0694 176.335 Q38.522 176.335 39.2859 177.487 Q40.0555 178.632 40.0555 180.82 Q40.0555 183.002 39.2859 184.153 Q38.522 185.299 37.0694 185.299 Q35.6169 185.299 34.8472 184.153 Q34.0833 183.002 34.0833 180.82 Q34.0833 178.632 34.8472 177.487 Q35.6169 176.335 37.0694 176.335 Z" fill="#000000" fill-rule="evenodd" fill-opacity="1" /><path clip-path="url(#clip660)" d="M 0 0 M40.0555 174.86 L46.0834 174.86 L46.0834 175.66 L40.0555 175.66 L40.0555 174.86 Z" fill="#000000" fill-rule="evenodd" fill-opacity="1" /><path clip-path="url(#clip660)" d="M 0 0 M49.2619 174.39 Q48.6225 174.39 48.2463 174.827 Q47.8749 175.265 47.8749 176.026 Q47.8749 176.783 48.2463 177.225 Q48.6225 177.663 49.2619 177.663 Q49.9014 177.663 50.2729 177.225 Q50.649 176.783 50.649 176.026 Q50.649 175.265 50.2729 174.827 Q49.9014 174.39 49.2619 174.39 M51.1474 171.414 L51.1474 172.279 Q50.7901 172.11 50.4233 172.02 Q50.0613 171.931 49.7039 171.931 Q48.7635 171.931 48.2651 172.566 Q47.7714 173.201 47.7009 174.484 Q47.9783 174.075 48.3968 173.859 Q48.8153 173.638 49.3184 173.638 Q50.3763 173.638 50.9875 174.282 Q51.6035 174.921 51.6035 176.026 Q51.6035 177.108 50.964 177.761 Q50.3246 178.415 49.2619 178.415 Q48.0441 178.415 47.4 177.484 Q46.7558 176.548 46.7558 174.776 Q46.7558 173.111 47.5457 172.124 Q48.3357 171.132 49.6663 171.132 Q50.0236 171.132 50.3857 171.202 Q50.7525 171.273 51.1474 171.414 Z" fill="#000000" fill-rule="evenodd" fill-opacity="1" /><path clip-path="url(#clip660)" d="M 0 0 M28.2594 135.514 L30.1692 135.514 L30.1692 128.923 L28.0916 129.34 L28.0916 128.275 L30.1576 127.858 L31.3266 127.858 L31.3266 135.514 L33.2363 135.514 L33.2363 136.498 L28.2594 136.498 L28.2594 135.514 Z" fill="#000000" fill-rule="evenodd" fill-opacity="1" /><path clip-path="url(#clip660)" d="M 0 0 M37.0036 128.628 Q36.1008 128.628 35.6437 129.519 Q35.1923 130.404 35.1923 132.187 Q35.1923 133.963 35.6437 134.855 Q36.1008 135.74 37.0036 135.74 Q37.9122 135.74 38.3636 134.855 Q38.8207 133.963 38.8207 132.187 Q38.8207 130.404 38.3636 129.519 Q37.9122 128.628 37.0036 128.628 M37.0036 127.702 Q38.4561 127.702 39.22 128.854 Q39.9897 129.999 39.9897 132.187 Q39.9897 134.369 39.22 135.52 Q38.4561 136.666 37.0036 136.666 Q35.5511 136.666 34.7814 135.52 Q34.0175 134.369 34.0175 132.187 Q34.0175 129.999 34.7814 128.854 Q35.5511 127.702 37.0036 127.702 Z" fill="#000000" fill-rule="evenodd" fill-opacity="1" /><path clip-path="url(#clip660)" d="M 0 0 M39.9897 126.227 L46.0176 126.227 L46.0176 127.027 L39.9897 127.027 L39.9897 126.227 Z" fill="#000000" fill-rule="evenodd" fill-opacity="1" /><path clip-path="url(#clip660)" d="M 0 0 M49.6569 123.453 L47.2589 127.201 L49.6569 127.201 L49.6569 123.453 M49.4077 122.626 L50.602 122.626 L50.602 127.201 L51.6035 127.201 L51.6035 127.99 L50.602 127.99 L50.602 129.646 L49.6569 129.646 L49.6569 127.99 L46.4878 127.99 L46.4878 127.074 L49.4077 122.626 Z" fill="#000000" fill-rule="evenodd" fill-opacity="1" /><path clip-path="url(#clip660)" d="M 0 0 M28.6826 86.8813 L30.5923 86.8813 L30.5923 80.2899 L28.5148 80.7065 L28.5148 79.6417 L30.5808 79.225 L31.7497 79.225 L31.7497 86.8813 L33.6594 86.8813 L33.6594 87.865 L28.6826 87.865 L28.6826 86.8813 Z" fill="#000000" fill-rule="evenodd" fill-opacity="1" /><path clip-path="url(#clip660)" d="M 0 0 M37.4268 79.9947 Q36.524 79.9947 36.0668 80.8859 Q35.6155 81.7713 35.6155 83.5537 Q35.6155 85.3303 36.0668 86.2215 Q36.524 87.1069 37.4268 87.1069 Q38.3353 87.1069 38.7867 86.2215 Q39.2439 85.3303 39.2439 83.5537 Q39.2439 81.7713 38.7867 80.8859 Q38.3353 79.9947 37.4268 79.9947 M37.4268 79.0688 Q38.8793 79.0688 39.6432 80.2204 Q40.4129 81.3662 40.4129 83.5537 Q40.4129 85.7354 39.6432 86.887 Q38.8793 88.0329 37.4268 88.0329 Q35.9742 88.0329 35.2046 86.887 Q34.4407 85.7354 34.4407 83.5537 Q34.4407 81.3662 35.2046 80.2204 Q35.9742 79.0688 37.4268 79.0688 Z" fill="#000000" fill-rule="evenodd" fill-opacity="1" /><path clip-path="url(#clip660)" d="M 0 0 M40.4129 77.5941 L46.4408 77.5941 L46.4408 78.3935 L40.4129 78.3935 L40.4129 77.5941 Z" fill="#000000" fill-rule="evenodd" fill-opacity="1" /><path clip-path="url(#clip660)" d="M 0 0 M48.2886 80.2131 L51.6035 80.2131 L51.6035 81.0124 L47.1461 81.0124 L47.1461 80.2131 Q47.6868 79.6536 48.6178 78.7132 Q49.5535 77.7681 49.7933 77.4954 Q50.2493 76.9829 50.428 76.6302 Q50.6114 76.2729 50.6114 75.9296 Q50.6114 75.3701 50.2164 75.0175 Q49.8262 74.6648 49.1961 74.6648 Q48.7494 74.6648 48.251 74.82 Q47.7573 74.9752 47.1931 75.2902 L47.1931 74.331 Q47.7667 74.1006 48.2651 73.983 Q48.7635 73.8655 49.1773 73.8655 Q50.2682 73.8655 50.917 74.4109 Q51.5659 74.9563 51.5659 75.8685 Q51.5659 76.3011 51.4013 76.6914 Q51.2415 77.0769 50.8136 77.6035 Q50.696 77.7399 50.066 78.3935 Q49.4359 79.0423 48.2886 80.2131 Z" fill="#000000" fill-rule="evenodd" fill-opacity="1" /><path clip-path="url(#clip660)" d="M 0 0 M35.0208 38.2482 L36.9305 38.2482 L36.9305 31.6568 L34.853 32.0734 L34.853 31.0086 L36.919 30.592 L38.0879 30.592 L38.0879 38.2482 L39.9977 38.2482 L39.9977 39.232 L35.0208 39.232 L35.0208 38.2482 Z" fill="#000000" fill-rule="evenodd" fill-opacity="1" /><path clip-path="url(#clip660)" d="M 0 0 M43.765 31.3616 Q42.8622 31.3616 42.4051 32.2528 Q41.9537 33.1382 41.9537 34.9206 Q41.9537 36.6972 42.4051 37.5884 Q42.8622 38.4739 43.765 38.4739 Q44.6736 38.4739 45.1249 37.5884 Q45.5821 36.6972 45.5821 34.9206 Q45.5821 33.1382 45.1249 32.2528 Q44.6736 31.3616 43.765 31.3616 M43.765 30.4357 Q45.2175 30.4357 45.9814 31.5873 Q46.7511 32.7331 46.7511 34.9206 Q46.7511 37.1023 45.9814 38.2539 Q45.2175 39.3998 43.765 39.3998 Q42.3125 39.3998 41.5428 38.2539 Q40.7789 37.1023 40.7789 34.9206 Q40.7789 32.7331 41.5428 31.5873 Q42.3125 30.4357 43.765 30.4357 Z" fill="#000000" fill-rule="evenodd" fill-opacity="1" /><path clip-path="url(#clip660)" d="M 0 0 M49.1773 25.9847 Q48.4438 25.9847 48.0723 26.7088 Q47.7056 27.4282 47.7056 28.8764 Q47.7056 30.3199 48.0723 31.044 Q48.4438 31.7634 49.1773 31.7634 Q49.9155 31.7634 50.2823 31.044 Q50.6537 30.3199 50.6537 28.8764 Q50.6537 27.4282 50.2823 26.7088 Q49.9155 25.9847 49.1773 25.9847 M49.1773 25.2324 Q50.3575 25.2324 50.9781 26.1681 Q51.6035 27.0991 51.6035 28.8764 Q51.6035 30.649 50.9781 31.5847 Q50.3575 32.5157 49.1773 32.5157 Q47.9971 32.5157 47.3718 31.5847 Q46.7511 30.649 46.7511 28.8764 Q46.7511 27.0991 47.3718 26.1681 Q47.9971 25.2324 49.1773 25.2324 Z" fill="#000000" fill-rule="evenodd" fill-opacity="1" /><g clip-path="url(#clip660)">
<text style="fill:#000000; fill-opacity:1; font-family:Arial,Helvetica Neue,Helvetica,sans-serif; font-size:16px; text-anchor:middle;" transform="rotate(-90, 18.0011, 142.973)" x="18.0011" y="142.973">error</text>
</g>
<g clip-path="url(#clip660)">
<text style="fill:#000000; fill-opacity:1; font-family:Arial,Helvetica Neue,Helvetica,sans-serif; font-size:18px; font-weight:bold; text-anchor:middle;" transform="rotate(0, 263.496, 15.6)" x="263.496" y="15.6">Convergence of Gauss–Newton</text>
</g>
<polyline clip-path="url(#clip662)" style="stroke:#009af9; stroke-width:2; stroke-opacity:1; fill:none" points="
  70.3899,35.5487 87.945,37.0519 105.5,44.6057 123.055,55.3319 140.61,68.4612 158.165,88.429 175.721,119.653 193.276,170.218 210.831,251.874 
  "/>
<polyline clip-path="url(#clip662)" style="stroke:#e26f46; stroke-width:2; stroke-opacity:1; fill:none" points="
  70.3899,35.4319 87.945,36.9265 105.5,44.4128 123.055,54.9583 140.61,67.7867 158.165,87.191 175.721,117.434 193.276,145.844 210.831,145.951 228.386,145.951 
  245.941,145.951 263.496,145.951 281.051,145.951 298.606,145.951 316.162,145.951 333.717,145.951 351.272,200.63 368.827,207.855 386.382,222.895 403.937,222.944 
  421.492,226.272 439.047,245.324 456.603,247.402 
  "/>
<polyline clip-path="url(#clip662)" style="stroke:#3da44d; stroke-width:2; stroke-opacity:1; fill:none" points="
  70.3899,34.0711 87.945,35.4548 105.5,42.1129 123.055,50.6019 140.61,60.0184 158.165,72.9375 175.721,90.7831 193.276,98.4692 210.831,98.5347 228.386,131.206 
  245.941,137.166 263.496,170.154 281.051,159.571 298.606,164.998 316.162,175.607 333.717,175.72 351.272,175.72 368.827,175.72 386.382,208.094 403.937,214.931 
  421.492,222.747 439.047,243.454 456.603,242.257 
  "/>
<path clip-path="url(#clip660)" d="
M350.913 95.7127 L454.543 95.7127 L454.543 35.2327 L350.913 35.2327  Z
  " fill="#ffffff" fill-rule="evenodd" fill-opacity="1"/>
<polyline clip-path="url(#clip660)" style="stroke:#000000; stroke-width:1; stroke-opacity:1; fill:none" points="
  350.913,95.7127 454.543,95.7127 454.543,35.2327 350.913,35.2327 350.913,95.7127 
  "/>
<polyline clip-path="url(#clip660)" style="stroke:#009af9; stroke-width:1; stroke-opacity:1; fill:none" points="
  355.462,50.3527 382.755,50.3527 
  "/>
<path clip-path="url(#clip660)" d="M 0 0 M391.4 50.6218 Q391.777 50.7492 392.13 51.1658 Q392.488 51.5825 392.847 52.3116 L394.034 54.6727 L392.778 54.6727 L391.672 52.4563 Q391.244 51.5883 390.839 51.3047 Q390.44 51.0211 389.745 51.0211 L388.472 51.0211 L388.472 54.6727 L387.303 54.6727 L387.303 46.0327 L389.942 46.0327 Q391.424 46.0327 392.153 46.652 Q392.882 47.2712 392.882 48.5212 Q392.882 49.3371 392.5 49.8753 Q392.124 50.4135 391.4 50.6218 M388.472 46.9934 L388.472 50.0605 L389.942 50.0605 Q390.787 50.0605 391.215 49.6728 Q391.649 49.2793 391.649 48.5212 Q391.649 47.7631 391.215 47.3811 Q390.787 46.9934 389.942 46.9934 L388.472 46.9934 Z" fill="#000000" fill-rule="evenodd" fill-opacity="1" /><path clip-path="url(#clip660)" d="M 0 0 M395.289 49.2908 L402.708 49.2908 L402.708 50.263 L395.289 50.263 L395.289 49.2908 M395.289 51.6519 L402.708 51.6519 L402.708 52.6357 L395.289 52.6357 L395.289 51.6519 Z" fill="#000000" fill-rule="evenodd" fill-opacity="1" /><path clip-path="url(#clip660)" d="M 0 0 M406.476 46.8024 Q405.573 46.8024 405.116 47.6936 Q404.664 48.579 404.664 50.3614 Q404.664 52.138 405.116 53.0292 Q405.573 53.9146 406.476 53.9146 Q407.384 53.9146 407.836 53.0292 Q408.293 52.138 408.293 50.3614 Q408.293 48.579 407.836 47.6936 Q407.384 46.8024 406.476 46.8024 M406.476 45.8765 Q407.928 45.8765 408.692 47.0281 Q409.462 48.1739 409.462 50.3614 Q409.462 52.5431 408.692 53.6947 Q407.928 54.8406 406.476 54.8406 Q405.023 54.8406 404.253 53.6947 Q403.49 52.5431 403.49 50.3614 Q403.49 48.1739 404.253 47.0281 Q405.023 45.8765 406.476 45.8765 Z" fill="#000000" fill-rule="evenodd" fill-opacity="1" /><path clip-path="url(#clip660)" d="M 0 0 M410.729 53.2028 L411.95 53.2028 L411.95 54.6727 L410.729 54.6727 L410.729 53.2028 Z" fill="#000000" fill-rule="evenodd" fill-opacity="1" /><path clip-path="url(#clip660)" d="M 0 0 M415.717 46.8024 Q414.815 46.8024 414.358 47.6936 Q413.906 48.579 413.906 50.3614 Q413.906 52.138 414.358 53.0292 Q414.815 53.9146 415.717 53.9146 Q416.626 53.9146 417.077 53.0292 Q417.535 52.138 417.535 50.3614 Q417.535 48.579 417.077 47.6936 Q416.626 46.8024 415.717 46.8024 M415.717 45.8765 Q417.17 45.8765 417.934 47.0281 Q418.704 48.1739 418.704 50.3614 Q418.704 52.5431 417.934 53.6947 Q417.17 54.8406 415.717 54.8406 Q414.265 54.8406 413.495 53.6947 Q412.731 52.5431 412.731 50.3614 Q412.731 48.1739 413.495 47.0281 Q414.265 45.8765 415.717 45.8765 Z" fill="#000000" fill-rule="evenodd" fill-opacity="1" /><path clip-path="url(#clip660)" d="M 0 0 M422.471 46.8024 Q421.568 46.8024 421.111 47.6936 Q420.66 48.579 420.66 50.3614 Q420.66 52.138 421.111 53.0292 Q421.568 53.9146 422.471 53.9146 Q423.379 53.9146 423.831 53.0292 Q424.288 52.138 424.288 50.3614 Q424.288 48.579 423.831 47.6936 Q423.379 46.8024 422.471 46.8024 M422.471 45.8765 Q423.923 45.8765 424.687 47.0281 Q425.457 48.1739 425.457 50.3614 Q425.457 52.5431 424.687 53.6947 Q423.923 54.8406 422.471 54.8406 Q421.018 54.8406 420.249 53.6947 Q419.485 52.5431 419.485 50.3614 Q419.485 48.1739 420.249 47.0281 Q421.018 45.8765 422.471 45.8765 Z" fill="#000000" fill-rule="evenodd" fill-opacity="1" /><path clip-path="url(#clip660)" d="M 0 0 M429.224 46.8024 Q428.322 46.8024 427.864 47.6936 Q427.413 48.579 427.413 50.3614 Q427.413 52.138 427.864 53.0292 Q428.322 53.9146 429.224 53.9146 Q430.133 53.9146 430.584 53.0292 Q431.041 52.138 431.041 50.3614 Q431.041 48.579 430.584 47.6936 Q430.133 46.8024 429.224 46.8024 M429.224 45.8765 Q430.677 45.8765 431.441 47.0281 Q432.21 48.1739 432.21 50.3614 Q432.21 52.5431 431.441 53.6947 Q430.677 54.8406 429.224 54.8406 Q427.772 54.8406 427.002 53.6947 Q426.238 52.5431 426.238 50.3614 Q426.238 48.1739 427.002 47.0281 Q427.772 45.8765 429.224 45.8765 Z" fill="#000000" fill-rule="evenodd" fill-opacity="1" /><path clip-path="url(#clip660)" d="M 0 0 M433.489 46.0327 L438.078 46.0327 L438.078 47.0165 L434.56 47.0165 L434.56 49.1346 Q434.815 49.0478 435.069 49.0073 Q435.324 48.961 435.578 48.961 Q437.025 48.961 437.87 49.7538 Q438.715 50.5466 438.715 51.9008 Q438.715 53.2954 437.847 54.0709 Q436.979 54.8406 435.399 54.8406 Q434.855 54.8406 434.288 54.748 Q433.727 54.6554 433.125 54.4702 L433.125 53.2954 Q433.646 53.579 434.201 53.7179 Q434.757 53.8568 435.376 53.8568 Q436.377 53.8568 436.962 53.3302 Q437.546 52.8035 437.546 51.9008 Q437.546 50.998 436.962 50.4714 Q436.377 49.9448 435.376 49.9448 Q434.907 49.9448 434.438 50.0489 Q433.975 50.1531 433.489 50.373 L433.489 46.0327 Z" fill="#000000" fill-rule="evenodd" fill-opacity="1" /><path clip-path="url(#clip660)" d="M 0 0 M442.482 50.5698 Q441.649 50.5698 441.169 51.0154 Q440.694 51.461 440.694 52.2422 Q440.694 53.0234 441.169 53.469 Q441.649 53.9146 442.482 53.9146 Q443.316 53.9146 443.796 53.469 Q444.276 53.0177 444.276 52.2422 Q444.276 51.461 443.796 51.0154 Q443.322 50.5698 442.482 50.5698 M441.313 50.0721 Q440.561 49.8869 440.139 49.3718 Q439.722 48.8568 439.722 48.1161 Q439.722 47.0802 440.457 46.4783 Q441.198 45.8765 442.482 45.8765 Q443.773 45.8765 444.508 46.4783 Q445.243 47.0802 445.243 48.1161 Q445.243 48.8568 444.82 49.3718 Q444.404 49.8869 443.657 50.0721 Q444.502 50.2688 444.971 50.8417 Q445.445 51.4147 445.445 52.2422 Q445.445 53.498 444.676 54.1693 Q443.912 54.8406 442.482 54.8406 Q441.053 54.8406 440.283 54.1693 Q439.519 53.498 439.519 52.2422 Q439.519 51.4147 439.994 50.8417 Q440.469 50.2688 441.313 50.0721 M440.885 48.226 Q440.885 48.8973 441.302 49.2735 Q441.724 49.6496 442.482 49.6496 Q443.235 49.6496 443.657 49.2735 Q444.085 48.8973 444.085 48.226 Q444.085 47.5547 443.657 47.1786 Q443.235 46.8024 442.482 46.8024 Q441.724 46.8024 441.302 47.1786 Q440.885 47.5547 440.885 48.226 Z" fill="#000000" fill-rule="evenodd" fill-opacity="1" /><polyline clip-path="url(#clip660)" style="stroke:#e26f46; stroke-width:1; stroke-opacity:1; fill:none" points="
  355.462,65.4727 382.755,65.4727 
  "/>
<path clip-path="url(#clip660)" d="M 0 0 M391.4 65.7418 Q391.777 65.8692 392.13 66.2858 Q392.488 66.7025 392.847 67.4316 L394.034 69.7927 L392.778 69.7927 L391.672 67.5763 Q391.244 66.7083 390.839 66.4247 Q390.44 66.1411 389.745 66.1411 L388.472 66.1411 L388.472 69.7927 L387.303 69.7927 L387.303 61.1527 L389.942 61.1527 Q391.424 61.1527 392.153 61.772 Q392.882 62.3912 392.882 63.6412 Q392.882 64.4571 392.5 64.9953 Q392.124 65.5335 391.4 65.7418 M388.472 62.1134 L388.472 65.1805 L389.942 65.1805 Q390.787 65.1805 391.215 64.7928 Q391.649 64.3993 391.649 63.6412 Q391.649 62.8831 391.215 62.5011 Q390.787 62.1134 389.942 62.1134 L388.472 62.1134 Z" fill="#000000" fill-rule="evenodd" fill-opacity="1" /><path clip-path="url(#clip660)" d="M 0 0 M395.289 64.4108 L402.708 64.4108 L402.708 65.383 L395.289 65.383 L395.289 64.4108 M395.289 66.7719 L402.708 66.7719 L402.708 67.7557 L395.289 67.7557 L395.289 66.7719 Z" fill="#000000" fill-rule="evenodd" fill-opacity="1" /><path clip-path="url(#clip660)" d="M 0 0 M406.476 61.9224 Q405.573 61.9224 405.116 62.8136 Q404.664 63.699 404.664 65.4814 Q404.664 67.258 405.116 68.1492 Q405.573 69.0346 406.476 69.0346 Q407.384 69.0346 407.836 68.1492 Q408.293 67.258 408.293 65.4814 Q408.293 63.699 407.836 62.8136 Q407.384 61.9224 406.476 61.9224 M406.476 60.9965 Q407.928 60.9965 408.692 62.1481 Q409.462 63.2939 409.462 65.4814 Q409.462 67.6631 408.692 68.8147 Q407.928 69.9606 406.476 69.9606 Q405.023 69.9606 404.253 68.8147 Q403.49 67.6631 403.49 65.4814 Q403.49 63.2939 404.253 62.1481 Q405.023 60.9965 406.476 60.9965 Z" fill="#000000" fill-rule="evenodd" fill-opacity="1" /><path clip-path="url(#clip660)" d="M 0 0 M410.729 68.3228 L411.95 68.3228 L411.95 69.7927 L410.729 69.7927 L410.729 68.3228 Z" fill="#000000" fill-rule="evenodd" fill-opacity="1" /><path clip-path="url(#clip660)" d="M 0 0 M415.717 61.9224 Q414.815 61.9224 414.358 62.8136 Q413.906 63.699 413.906 65.4814 Q413.906 67.258 414.358 68.1492 Q414.815 69.0346 415.717 69.0346 Q416.626 69.0346 417.077 68.1492 Q417.535 67.258 417.535 65.4814 Q417.535 63.699 417.077 62.8136 Q416.626 61.9224 415.717 61.9224 M415.717 60.9965 Q417.17 60.9965 417.934 62.1481 Q418.704 63.2939 418.704 65.4814 Q418.704 67.6631 417.934 68.8147 Q417.17 69.9606 415.717 69.9606 Q414.265 69.9606 413.495 68.8147 Q412.731 67.6631 412.731 65.4814 Q412.731 63.2939 413.495 62.1481 Q414.265 60.9965 415.717 60.9965 Z" fill="#000000" fill-rule="evenodd" fill-opacity="1" /><path clip-path="url(#clip660)" d="M 0 0 M422.471 61.9224 Q421.568 61.9224 421.111 62.8136 Q420.66 63.699 420.66 65.4814 Q420.66 67.258 421.111 68.1492 Q421.568 69.0346 422.471 69.0346 Q423.379 69.0346 423.831 68.1492 Q424.288 67.258 424.288 65.4814 Q424.288 63.699 423.831 62.8136 Q423.379 61.9224 422.471 61.9224 M422.471 60.9965 Q423.923 60.9965 424.687 62.1481 Q425.457 63.2939 425.457 65.4814 Q425.457 67.6631 424.687 68.8147 Q423.923 69.9606 422.471 69.9606 Q421.018 69.9606 420.249 68.8147 Q419.485 67.6631 419.485 65.4814 Q419.485 63.2939 420.249 62.1481 Q421.018 60.9965 422.471 60.9965 Z" fill="#000000" fill-rule="evenodd" fill-opacity="1" /><path clip-path="url(#clip660)" d="M 0 0 M426.736 61.1527 L431.325 61.1527 L431.325 62.1365 L427.807 62.1365 L427.807 64.2546 Q428.061 64.1678 428.316 64.1273 Q428.57 64.081 428.825 64.081 Q430.272 64.081 431.117 64.8738 Q431.962 65.6666 431.962 67.0208 Q431.962 68.4154 431.094 69.1909 Q430.226 69.9606 428.646 69.9606 Q428.102 69.9606 427.535 69.868 Q426.973 69.7754 426.371 69.5902 L426.371 68.4154 Q426.892 68.699 427.448 68.8379 Q428.003 68.9768 428.623 68.9768 Q429.624 68.9768 430.208 68.4502 Q430.793 67.9235 430.793 67.0208 Q430.793 66.118 430.208 65.5914 Q429.624 65.0648 428.623 65.0648 Q428.154 65.0648 427.685 65.1689 Q427.222 65.2731 426.736 65.493 L426.736 61.1527 Z" fill="#000000" fill-rule="evenodd" fill-opacity="1" /><path clip-path="url(#clip660)" d="M 0 0 M435.729 65.6898 Q434.896 65.6898 434.415 66.1354 Q433.941 66.581 433.941 67.3622 Q433.941 68.1434 434.415 68.589 Q434.896 69.0346 435.729 69.0346 Q436.562 69.0346 437.043 68.589 Q437.523 68.1377 437.523 67.3622 Q437.523 66.581 437.043 66.1354 Q436.568 65.6898 435.729 65.6898 M434.56 65.1921 Q433.808 65.0069 433.385 64.4918 Q432.969 63.9768 432.969 63.2361 Q432.969 62.2002 433.704 61.5983 Q434.444 60.9965 435.729 60.9965 Q437.019 60.9965 437.754 61.5983 Q438.489 62.2002 438.489 63.2361 Q438.489 63.9768 438.067 64.4918 Q437.65 65.0069 436.904 65.1921 Q437.749 65.3888 438.217 65.9617 Q438.692 66.5347 438.692 67.3622 Q438.692 68.618 437.922 69.2893 Q437.158 69.9606 435.729 69.9606 Q434.3 69.9606 433.53 69.2893 Q432.766 68.618 432.766 67.3622 Q432.766 66.5347 433.241 65.9617 Q433.715 65.3888 434.56 65.1921 M434.132 63.346 Q434.132 64.0173 434.548 64.3935 Q434.971 64.7696 435.729 64.7696 Q436.481 64.7696 436.904 64.3935 Q437.332 64.0173 437.332 63.346 Q437.332 62.6747 436.904 62.2986 Q436.481 61.9224 435.729 61.9224 Q434.971 61.9224 434.548 62.2986 Q434.132 62.6747 434.132 63.346 Z" fill="#000000" fill-rule="evenodd" fill-opacity="1" /><polyline clip-path="url(#clip660)" style="stroke:#3da44d; stroke-width:1; stroke-opacity:1; fill:none" points="
  355.462,80.5927 382.755,80.5927 
  "/>
<path clip-path="url(#clip660)" d="M 0 0 M391.4 80.8618 Q391.777 80.9892 392.13 81.4058 Q392.488 81.8225 392.847 82.5516 L394.034 84.9127 L392.778 84.9127 L391.672 82.6963 Q391.244 81.8283 390.839 81.5447 Q390.44 81.2611 389.745 81.2611 L388.472 81.2611 L388.472 84.9127 L387.303 84.9127 L387.303 76.2727 L389.942 76.2727 Q391.424 76.2727 392.153 76.892 Q392.882 77.5112 392.882 78.7612 Q392.882 79.5771 392.5 80.1153 Q392.124 80.6535 391.4 80.8618 M388.472 77.2334 L388.472 80.3005 L389.942 80.3005 Q390.787 80.3005 391.215 79.9128 Q391.649 79.5193 391.649 78.7612 Q391.649 78.0031 391.215 77.6211 Q390.787 77.2334 389.942 77.2334 L388.472 77.2334 Z" fill="#000000" fill-rule="evenodd" fill-opacity="1" /><path clip-path="url(#clip660)" d="M 0 0 M395.289 79.5308 L402.708 79.5308 L402.708 80.503 L395.289 80.503 L395.289 79.5308 M395.289 81.8919 L402.708 81.8919 L402.708 82.8757 L395.289 82.8757 L395.289 81.8919 Z" fill="#000000" fill-rule="evenodd" fill-opacity="1" /><path clip-path="url(#clip660)" d="M 0 0 M406.476 77.0424 Q405.573 77.0424 405.116 77.9336 Q404.664 78.819 404.664 80.6014 Q404.664 82.378 405.116 83.2692 Q405.573 84.1546 406.476 84.1546 Q407.384 84.1546 407.836 83.2692 Q408.293 82.378 408.293 80.6014 Q408.293 78.819 407.836 77.9336 Q407.384 77.0424 406.476 77.0424 M406.476 76.1165 Q407.928 76.1165 408.692 77.2681 Q409.462 78.4139 409.462 80.6014 Q409.462 82.7831 408.692 83.9347 Q407.928 85.0806 406.476 85.0806 Q405.023 85.0806 404.253 83.9347 Q403.49 82.7831 403.49 80.6014 Q403.49 78.4139 404.253 77.2681 Q405.023 76.1165 406.476 76.1165 Z" fill="#000000" fill-rule="evenodd" fill-opacity="1" /><path clip-path="url(#clip660)" d="M 0 0 M410.729 83.4428 L411.95 83.4428 L411.95 84.9127 L410.729 84.9127 L410.729 83.4428 Z" fill="#000000" fill-rule="evenodd" fill-opacity="1" /><path clip-path="url(#clip660)" d="M 0 0 M415.717 77.0424 Q414.815 77.0424 414.358 77.9336 Q413.906 78.819 413.906 80.6014 Q413.906 82.378 414.358 83.2692 Q414.815 84.1546 415.717 84.1546 Q416.626 84.1546 417.077 83.2692 Q417.535 82.378 417.535 80.6014 Q417.535 78.819 417.077 77.9336 Q416.626 77.0424 415.717 77.0424 M415.717 76.1165 Q417.17 76.1165 417.934 77.2681 Q418.704 78.4139 418.704 80.6014 Q418.704 82.7831 417.934 83.9347 Q417.17 85.0806 415.717 85.0806 Q414.265 85.0806 413.495 83.9347 Q412.731 82.7831 412.731 80.6014 Q412.731 78.4139 413.495 77.2681 Q414.265 76.1165 415.717 76.1165 Z" fill="#000000" fill-rule="evenodd" fill-opacity="1" /><path clip-path="url(#clip660)" d="M 0 0 M419.983 76.2727 L424.572 76.2727 L424.572 77.2565 L421.053 77.2565 L421.053 79.3746 Q421.308 79.2878 421.562 79.2473 Q421.817 79.201 422.072 79.201 Q423.518 79.201 424.363 79.9938 Q425.208 80.7866 425.208 82.1408 Q425.208 83.5354 424.34 84.3109 Q423.472 85.0806 421.892 85.0806 Q421.348 85.0806 420.781 84.988 Q420.22 84.8954 419.618 84.7102 L419.618 83.5354 Q420.139 83.819 420.694 83.9579 Q421.25 84.0968 421.869 84.0968 Q422.87 84.0968 423.455 83.5702 Q424.039 83.0435 424.039 82.1408 Q424.039 81.238 423.455 80.7114 Q422.87 80.1848 421.869 80.1848 Q421.4 80.1848 420.932 80.2889 Q420.469 80.3931 419.983 80.613 L419.983 76.2727 Z" fill="#000000" fill-rule="evenodd" fill-opacity="1" /><path clip-path="url(#clip660)" d="M 0 0 M429.12 80.1269 Q428.333 80.1269 427.87 80.6651 Q427.413 81.2033 427.413 82.1408 Q427.413 83.0725 427.87 83.6165 Q428.333 84.1546 429.12 84.1546 Q429.907 84.1546 430.364 83.6165 Q430.827 83.0725 430.827 82.1408 Q430.827 81.2033 430.364 80.6651 Q429.907 80.1269 429.12 80.1269 M431.441 76.4637 L431.441 77.5285 Q431.001 77.3202 430.55 77.2102 Q430.104 77.1003 429.664 77.1003 Q428.507 77.1003 427.893 77.8815 Q427.286 78.6628 427.199 80.2426 Q427.54 79.7392 428.055 79.473 Q428.57 79.201 429.19 79.201 Q430.492 79.201 431.244 79.9938 Q432.002 80.7808 432.002 82.1408 Q432.002 83.4718 431.215 84.2762 Q430.428 85.0806 429.12 85.0806 Q427.621 85.0806 426.829 83.9347 Q426.036 82.7831 426.036 80.6014 Q426.036 78.5528 427.008 77.3375 Q427.98 76.1165 429.618 76.1165 Q430.058 76.1165 430.503 76.2033 Q430.955 76.2901 431.441 76.4637 Z" fill="#000000" fill-rule="evenodd" fill-opacity="1" /></svg>
