<?xml version="1.0" encoding="utf-8"?>
<svg xmlns="http://www.w3.org/2000/svg" xmlns:xlink="http://www.w3.org/1999/xlink" width="120" height="75" viewBox="0 0 480 300">
<defs>
  <clipPath id="clip700">
    <rect x="0" y="0" width="480" height="300"/>
  </clipPath>
</defs>
<path clip-path="url(#clip700)" d="
M0 300 L480 300 L480 0 L0 0  Z
  " fill="#ffffff" fill-rule="evenodd" fill-opacity="1"/>
<defs>
  <clipPath id="clip701">
    <rect x="96" y="0" width="337" height="300"/>
  </clipPath>
</defs>
<path clip-path="url(#clip700)" d="
M50.2568 258.408 L468.189 258.408 L468.189 11.811 L50.2568 11.811  Z
  " fill="#ffffff" fill-rule="evenodd" fill-opacity="1"/>
<defs>
  <clipPath id="clip702">
    <rect x="50" y="11" width="419" height="248"/>
  </clipPath>
</defs>
<polyline clip-path="url(#clip702)" style="stroke:#000000; stroke-width:0.5; stroke-opacity:0.1; fill:none" points="
  58.7718,258.408 58.7718,11.811 
  "/>
<polyline clip-path="url(#clip702)" style="stroke:#000000; stroke-width:0.5; stroke-opacity:0.1; fill:none" points="
  125.037,258.408 125.037,11.811 
  "/>
<polyline clip-path="url(#clip702)" style="stroke:#000000; stroke-width:0.5; stroke-opacity:0.1; fill:none" points="
  191.301,258.408 191.301,11.811 
  "/>
<polyline clip-path="url(#clip702)" style="stroke:#000000; stroke-width:0.5; stroke-opacity:0.1; fill:none" points="
  257.566,258.408 257.566,11.811 
  "/>
<polyline clip-path="url(#clip702)" style="stroke:#000000; stroke-width:0.5; stroke-opacity:0.1; fill:none" points="
  323.831,258.408 323.831,11.811 
  "/>
<polyline clip-path="url(#clip702)" style="stroke:#000000; stroke-width:0.5; stroke-opacity:0.1; fill:none" points="
  390.096,258.408 390.096,11.811 
  "/>
<polyline clip-path="url(#clip702)" style="stroke:#000000; stroke-width:0.5; stroke-opacity:0.1; fill:none" points="
  456.361,258.408 456.361,11.811 
  "/>
<polyline clip-path="url(#clip700)" style="stroke:#000000; stroke-width:1; stroke-opacity:1; fill:none" points="
  50.2568,258.408 468.189,258.408 
  "/>
<polyline clip-path="url(#clip700)" style="stroke:#000000; stroke-width:1; stroke-opacity:1; fill:none" points="
  58.7718,258.408 58.7718,255.449 
  "/>
<polyline clip-path="url(#clip700)" style="stroke:#000000; stroke-width:1; stroke-opacity:1; fill:none" points="
  125.037,258.408 125.037,255.449 
  "/>
<polyline clip-path="url(#clip700)" style="stroke:#000000; stroke-width:1; stroke-opacity:1; fill:none" points="
  191.301,258.408 191.301,255.449 
  "/>
<polyline clip-path="url(#clip700)" style="stroke:#000000; stroke-width:1; stroke-opacity:1; fill:none" points="
  257.566,258.408 257.566,255.449 
  "/>
<polyline clip-path="url(#clip700)" style="stroke:#000000; stroke-width:1; stroke-opacity:1; fill:none" points="
  323.831,258.408 323.831,255.449 
  "/>
<polyline clip-path="url(#clip700)" style="stroke:#000000; stroke-width:1; stroke-opacity:1; fill:none" points="
  390.096,258.408 390.096,255.449 
  "/>
<polyline clip-path="url(#clip700)" style="stroke:#000000; stroke-width:1; stroke-opacity:1; fill:none" points="
  456.361,258.408 456.361,255.449 
  "/>
<path clip-path="url(#clip700)" d="M 0 0 M58.7718 264.746 Q57.8691 264.746 57.4119 265.637 Q56.9605 266.523 56.9605 268.305 Q56.9605 270.082 57.4119 270.973 Q57.8691 271.858 58.7718 271.858 Q59.6804 271.858 60.1318 270.973 Q60.589 270.082 60.589 268.305 Q60.589 266.523 60.1318 265.637 Q59.6804 264.746 58.7718 264.746 M58.7718 263.82 Q60.2244 263.82 60.9883 264.972 Q61.7579 266.118 61.7579 268.305 Q61.7579 270.487 60.9883 271.638 Q60.2244 272.784 58.7718 272.784 Q57.3193 272.784 56.5496 271.638 Q55.7858 270.487 55.7858 268.305 Q55.7858 266.118 56.5496 264.972 Q57.3193 263.82 58.7718 263.82 Z" fill="#000000" fill-rule="evenodd" fill-opacity="1" /><path clip-path="url(#clip700)" d="M 0 0 M122.632 271.633 L124.542 271.633 L124.542 265.041 L122.464 265.458 L122.464 264.393 L124.53 263.976 L125.699 263.976 L125.699 271.633 L127.609 271.633 L127.609 272.616 L122.632 272.616 L122.632 271.633 Z" fill="#000000" fill-rule="evenodd" fill-opacity="1" /><path clip-path="url(#clip700)" d="M 0 0 M189.965 271.633 L194.045 271.633 L194.045 272.616 L188.558 272.616 L188.558 271.633 Q189.224 270.944 190.37 269.787 Q191.521 268.623 191.817 268.288 Q192.378 267.657 192.598 267.223 Q192.823 266.783 192.823 266.361 Q192.823 265.672 192.337 265.238 Q191.857 264.804 191.082 264.804 Q190.532 264.804 189.918 264.995 Q189.311 265.186 188.616 265.574 L188.616 264.393 Q189.322 264.109 189.936 263.965 Q190.549 263.82 191.058 263.82 Q192.401 263.82 193.2 264.491 Q193.998 265.163 193.998 266.285 Q193.998 266.818 193.796 267.298 Q193.599 267.773 193.072 268.421 Q192.928 268.589 192.152 269.393 Q191.377 270.192 189.965 271.633 Z" fill="#000000" fill-rule="evenodd" fill-opacity="1" /><path clip-path="url(#clip700)" d="M 0 0 M258.628 267.958 Q259.467 268.137 259.936 268.704 Q260.411 269.271 260.411 270.105 Q260.411 271.384 259.531 272.084 Q258.651 272.784 257.031 272.784 Q256.487 272.784 255.908 272.674 Q255.335 272.57 254.722 272.356 L254.722 271.227 Q255.208 271.511 255.787 271.656 Q256.365 271.8 256.996 271.8 Q258.096 271.8 258.669 271.366 Q259.247 270.932 259.247 270.105 Q259.247 269.341 258.709 268.913 Q258.177 268.479 257.222 268.479 L256.215 268.479 L256.215 267.518 L257.268 267.518 Q258.131 267.518 258.588 267.177 Q259.045 266.829 259.045 266.181 Q259.045 265.516 258.57 265.163 Q258.102 264.804 257.222 264.804 Q256.742 264.804 256.192 264.908 Q255.642 265.012 254.982 265.232 L254.982 264.19 Q255.648 264.005 256.227 263.913 Q256.811 263.82 257.326 263.82 Q258.657 263.82 259.433 264.428 Q260.208 265.03 260.208 266.06 Q260.208 266.777 259.797 267.275 Q259.386 267.767 258.628 267.958 Z" fill="#000000" fill-rule="evenodd" fill-opacity="1" /><path clip-path="url(#clip700)" d="M 0 0 M324.583 264.995 L321.632 269.607 L324.583 269.607 L324.583 264.995 M324.277 263.976 L325.747 263.976 L325.747 269.607 L326.979 269.607 L326.979 270.579 L325.747 270.579 L325.747 272.616 L324.583 272.616 L324.583 270.579 L320.683 270.579 L320.683 269.451 L324.277 263.976 Z" fill="#000000" fill-rule="evenodd" fill-opacity="1" /><path clip-path="url(#clip700)" d="M 0 0 M387.665 263.976 L392.254 263.976 L392.254 264.96 L388.736 264.96 L388.736 267.078 Q388.991 266.991 389.245 266.951 Q389.5 266.905 389.754 266.905 Q391.201 266.905 392.046 267.697 Q392.891 268.49 392.891 269.844 Q392.891 271.239 392.023 272.015 Q391.155 272.784 389.575 272.784 Q389.031 272.784 388.464 272.692 Q387.903 272.599 387.301 272.414 L387.301 271.239 Q387.822 271.523 388.377 271.662 Q388.933 271.8 389.552 271.8 Q390.553 271.8 391.138 271.274 Q391.722 270.747 391.722 269.844 Q391.722 268.942 391.138 268.415 Q390.553 267.888 389.552 267.888 Q389.083 267.888 388.614 267.993 Q388.151 268.097 387.665 268.317 L387.665 263.976 Z" fill="#000000" fill-rule="evenodd" fill-opacity="1" /><path clip-path="url(#clip700)" d="M 0 0 M456.462 267.831 Q455.675 267.831 455.212 268.369 Q454.755 268.907 454.755 269.844 Q454.755 270.776 455.212 271.32 Q455.675 271.858 456.462 271.858 Q457.249 271.858 457.706 271.32 Q458.169 270.776 458.169 269.844 Q458.169 268.907 457.706 268.369 Q457.249 267.831 456.462 267.831 M458.783 264.167 L458.783 265.232 Q458.343 265.024 457.891 264.914 Q457.446 264.804 457.006 264.804 Q455.849 264.804 455.235 265.585 Q454.627 266.366 454.541 267.946 Q454.882 267.443 455.397 267.177 Q455.912 266.905 456.531 266.905 Q457.834 266.905 458.586 267.697 Q459.344 268.484 459.344 269.844 Q459.344 271.175 458.557 271.98 Q457.77 272.784 456.462 272.784 Q454.963 272.784 454.17 271.638 Q453.378 270.487 453.378 268.305 Q453.378 266.256 454.35 265.041 Q455.322 263.82 456.96 263.82 Q457.399 263.82 457.845 263.907 Q458.296 263.994 458.783 264.167 Z" fill="#000000" fill-rule="evenodd" fill-opacity="1" /><g clip-path="url(#clip700)">
<text style="fill:#000000; fill-opacity:1; font-family:Arial,Helvetica Neue,Helvetica,sans-serif; font-size:16px; text-anchor:middle;" transform="rotate(0, 259.223, 293.459)" x="259.223" y="293.459">s</text>
</g>
<polyline clip-path="url(#clip702)" style="stroke:#000000; stroke-width:0.5; stroke-opacity:0.1; fill:none" points="
  50.2568,209.687 468.189,209.687 
  "/>
<polyline clip-path="url(#clip702)" style="stroke:#000000; stroke-width:0.5; stroke-opacity:0.1; fill:none" points="
  50.2568,144.091 468.189,144.091 
  "/>
<polyline clip-path="url(#clip702)" style="stroke:#000000; stroke-width:0.5; stroke-opacity:0.1; fill:none" points="
  50.2568,78.4954 468.189,78.4954 
  "/>
<polyline clip-path="url(#clip702)" style="stroke:#000000; stroke-width:0.5; stroke-opacity:0.1; fill:none" points="
  50.2568,12.8999 468.189,12.8999 
  "/>
<polyline clip-path="url(#clip700)" style="stroke:#000000; stroke-width:1; stroke-opacity:1; fill:none" points="
  50.2568,258.408 50.2568,11.811 
  "/>
<polyline clip-path="url(#clip700)" style="stroke:#000000; stroke-width:1; stroke-opacity:1; fill:none" points="
  50.2568,209.687 55.272,209.687 
  "/>
<polyline clip-path="url(#clip700)" style="stroke:#000000; stroke-width:1; stroke-opacity:1; fill:none" points="
  50.2568,144.091 55.272,144.091 
  "/>
<polyline clip-path="url(#clip700)" style="stroke:#000000; stroke-width:1; stroke-opacity:1; fill:none" points="
  50.2568,78.4954 55.272,78.4954 
  "/>
<polyline clip-path="url(#clip700)" style="stroke:#000000; stroke-width:1; stroke-opacity:1; fill:none" points="
  50.2568,12.8999 55.272,12.8999 
  "/>
<path clip-path="url(#clip700)" d="M 0 0 M31.0777 206.136 Q30.1749 206.136 29.7178 207.027 Q29.2664 207.913 29.2664 209.695 Q29.2664 211.472 29.7178 212.363 Q30.1749 213.248 31.0777 213.248 Q31.9863 213.248 32.4377 212.363 Q32.8948 211.472 32.8948 209.695 Q32.8948 207.913 32.4377 207.027 Q31.9863 206.136 31.0777 206.136 M31.0777 205.21 Q32.5303 205.21 33.2941 206.362 Q34.0638 207.508 34.0638 209.695 Q34.0638 211.877 33.2941 213.029 Q32.5303 214.174 31.0777 214.174 Q29.6252 214.174 28.8555 213.029 Q28.0916 211.877 28.0916 209.695 Q28.0916 207.508 28.8555 206.362 Q29.6252 205.21 31.0777 205.21 Z" fill="#000000" fill-rule="evenodd" fill-opacity="1" /><path clip-path="url(#clip700)" d="M 0 0 M35.3312 212.537 L36.5522 212.537 L36.5522 214.007 L35.3312 214.007 L35.3312 212.537 Z" fill="#000000" fill-rule="evenodd" fill-opacity="1" /><path clip-path="url(#clip700)" d="M 0 0 M37.8312 205.367 L42.4202 205.367 L42.4202 206.35 L38.9017 206.35 L38.9017 208.468 Q39.1564 208.382 39.411 208.341 Q39.6656 208.295 39.9203 208.295 Q41.367 208.295 42.2119 209.088 Q43.0568 209.88 43.0568 211.235 Q43.0568 212.629 42.1888 213.405 Q41.3207 214.174 39.7409 214.174 Q39.1969 214.174 38.6298 214.082 Q38.0684 213.989 37.4666 213.804 L37.4666 212.629 Q37.9874 212.913 38.543 213.052 Q39.0985 213.191 39.7177 213.191 Q40.7189 213.191 41.3034 212.664 Q41.8878 212.137 41.8878 211.235 Q41.8878 210.332 41.3034 209.805 Q40.7189 209.279 39.7177 209.279 Q39.249 209.279 38.7802 209.383 Q38.3173 209.487 37.8312 209.707 L37.8312 205.367 Z" fill="#000000" fill-rule="evenodd" fill-opacity="1" /><path clip-path="url(#clip700)" d="M 0 0 M28.8381 147.427 L30.7479 147.427 L30.7479 140.836 L28.6703 141.252 L28.6703 140.188 L30.7363 139.771 L31.9053 139.771 L31.9053 147.427 L33.815 147.427 L33.815 148.411 L28.8381 148.411 L28.8381 147.427 Z" fill="#000000" fill-rule="evenodd" fill-opacity="1" /><path clip-path="url(#clip700)" d="M 0 0 M35.0823 146.941 L36.3034 146.941 L36.3034 148.411 L35.0823 148.411 L35.0823 146.941 Z" fill="#000000" fill-rule="evenodd" fill-opacity="1" /><path clip-path="url(#clip700)" d="M 0 0 M40.0707 140.541 Q39.1679 140.541 38.7108 141.432 Q38.2594 142.317 38.2594 144.1 Q38.2594 145.876 38.7108 146.768 Q39.1679 147.653 40.0707 147.653 Q40.9793 147.653 41.4307 146.768 Q41.8878 145.876 41.8878 144.1 Q41.8878 142.317 41.4307 141.432 Q40.9793 140.541 40.0707 140.541 M40.0707 139.615 Q41.5233 139.615 42.2871 140.766 Q43.0568 141.912 43.0568 144.1 Q43.0568 146.281 42.2871 147.433 Q41.5233 148.579 40.0707 148.579 Q38.6182 148.579 37.8485 147.433 Q37.0846 146.281 37.0846 144.1 Q37.0846 141.912 37.8485 140.766 Q38.6182 139.615 40.0707 139.615 Z" fill="#000000" fill-rule="evenodd" fill-opacity="1" /><path clip-path="url(#clip700)" d="M 0 0 M29.087 81.8317 L30.9967 81.8317 L30.9967 75.2403 L28.9192 75.6569 L28.9192 74.5921 L30.9851 74.1754 L32.1541 74.1754 L32.1541 81.8317 L34.0638 81.8317 L34.0638 82.8154 L29.087 82.8154 L29.087 81.8317 Z" fill="#000000" fill-rule="evenodd" fill-opacity="1" /><path clip-path="url(#clip700)" d="M 0 0 M35.3312 81.3455 L36.5522 81.3455 L36.5522 82.8154 L35.3312 82.8154 L35.3312 81.3455 Z" fill="#000000" fill-rule="evenodd" fill-opacity="1" /><path clip-path="url(#clip700)" d="M 0 0 M37.8312 74.1754 L42.4202 74.1754 L42.4202 75.1592 L38.9017 75.1592 L38.9017 77.2773 Q39.1564 77.1905 39.411 77.15 Q39.6656 77.1037 39.9203 77.1037 Q41.367 77.1037 42.2119 77.8965 Q43.0568 78.6893 43.0568 80.0435 Q43.0568 81.4381 42.1888 82.2136 Q41.3207 82.9833 39.7409 82.9833 Q39.1969 82.9833 38.6298 82.8907 Q38.0684 82.7981 37.4666 82.6129 L37.4666 81.4381 Q37.9874 81.7217 38.543 81.8606 Q39.0985 81.9995 39.7177 81.9995 Q40.7189 81.9995 41.3034 81.4729 Q41.8878 80.9462 41.8878 80.0435 Q41.8878 79.1407 41.3034 78.6141 Q40.7189 78.0875 39.7177 78.0875 Q39.249 78.0875 38.7802 78.1916 Q38.3173 78.2958 37.8312 78.5157 L37.8312 74.1754 Z" fill="#000000" fill-rule="evenodd" fill-opacity="1" /><path clip-path="url(#clip700)" d="M 0 0 M29.7351 16.2361 L33.815 16.2361 L33.815 17.2199 L28.3289 17.2199 L28.3289 16.2361 Q28.9944 15.5474 30.1402 14.39 Q31.2918 13.2268 31.587 12.8912 Q32.1483 12.2604 32.3682 11.8264 Q32.5939 11.3866 32.5939 10.9641 Q32.5939 10.2755 32.1078 9.84144 Q31.6275 9.40742 30.852 9.40742 Q30.3023 9.40742 29.6888 9.59839 Q29.0812 9.78936 28.3868 10.1771 L28.3868 8.99654 Q29.0928 8.71298 29.7062 8.5683 Q30.3196 8.42363 30.8289 8.42363 Q32.1715 8.42363 32.9701 9.09492 Q33.7687 9.76621 33.7687 10.8889 Q33.7687 11.4213 33.5661 11.9016 Q33.3694 12.3762 32.8428 13.0243 Q32.6981 13.1921 31.9226 13.9965 Q31.1472 14.7951 29.7351 16.2361 Z" fill="#000000" fill-rule="evenodd" fill-opacity="1" /><path clip-path="url(#clip700)" d="M 0 0 M35.0823 15.75 L36.3034 15.75 L36.3034 17.2199 L35.0823 17.2199 L35.0823 15.75 Z" fill="#000000" fill-rule="evenodd" fill-opacity="1" /><path clip-path="url(#clip700)" d="M 0 0 M40.0707 9.34955 Q39.1679 9.34955 38.7108 10.2407 Q38.2594 11.1262 38.2594 12.9086 Q38.2594 14.6852 38.7108 15.5764 Q39.1679 16.4618 40.0707 16.4618 Q40.9793 16.4618 41.4307 15.5764 Q41.8878 14.6852 41.8878 12.9086 Q41.8878 11.1262 41.4307 10.2407 Q40.9793 9.34955 40.0707 9.34955 M40.0707 8.42363 Q41.5233 8.42363 42.2871 9.57524 Q43.0568 10.7211 43.0568 12.9086 Q43.0568 15.0903 42.2871 16.2419 Q41.5233 17.3877 40.0707 17.3877 Q38.6182 17.3877 37.8485 16.2419 Q37.0846 15.0903 37.0846 12.9086 Q37.0846 10.7211 37.8485 9.57524 Q38.6182 8.42363 40.0707 8.42363 Z" fill="#000000" fill-rule="evenodd" fill-opacity="1" /><g clip-path="url(#clip700)">
<text style="fill:#000000; fill-opacity:1; font-family:Arial,Helvetica Neue,Helvetica,sans-serif; font-size:16px; text-anchor:middle;" transform="rotate(-90, 18.0011, 135.11)" x="18.0011" y="135.11">v</text>
</g>
<circle clip-path="url(#clip702)" cx="62.0851" cy="231.849" r="3" fill="#009af9" fill-rule="evenodd" fill-opacity="1" stroke="#000000" stroke-opacity="1" stroke-width="0.6"/>
<circle clip-path="url(#clip702)" cx="78.5132" cy="161.154" r="3" fill="#009af9" fill-rule="evenodd" fill-opacity="1" stroke="#000000" stroke-opacity="1" stroke-width="0.6"/>
<circle clip-path="url(#clip702)" cx="94.9414" cy="129.938" r="3" fill="#009af9" fill-rule="evenodd" fill-opacity="1" stroke="#000000" stroke-opacity="1" stroke-width="0.6"/>
<circle clip-path="url(#clip702)" cx="111.37" cy="116.218" r="3" fill="#009af9" fill-rule="evenodd" fill-opacity="1" stroke="#000000" stroke-opacity="1" stroke-width="0.6"/>
<circle clip-path="url(#clip702)" cx="127.798" cy="109.948" r="3" fill="#009af9" fill-rule="evenodd" fill-opacity="1" stroke="#000000" stroke-opacity="1" stroke-width="0.6"/>
<circle clip-path="url(#clip702)" cx="144.226" cy="104.721" r="3" fill="#009af9" fill-rule="evenodd" fill-opacity="1" stroke="#000000" stroke-opacity="1" stroke-width="0.6"/>
<circle clip-path="url(#clip702)" cx="160.654" cy="96.386" r="3" fill="#009af9" fill-rule="evenodd" fill-opacity="1" stroke="#000000" stroke-opacity="1" stroke-width="0.6"/>
<circle clip-path="url(#clip702)" cx="177.082" cy="83.2794" r="3" fill="#009af9" fill-rule="evenodd" fill-opacity="1" stroke="#000000" stroke-opacity="1" stroke-width="0.6"/>
<circle clip-path="url(#clip702)" cx="193.51" cy="66.5455" r="3" fill="#009af9" fill-rule="evenodd" fill-opacity="1" stroke="#000000" stroke-opacity="1" stroke-width="0.6"/>
<circle clip-path="url(#clip702)" cx="209.938" cy="49.796" r="3" fill="#009af9" fill-rule="evenodd" fill-opacity="1" stroke="#000000" stroke-opacity="1" stroke-width="0.6"/>
<circle clip-path="url(#clip702)" cx="226.367" cy="37.7823" r="3" fill="#009af9" fill-rule="evenodd" fill-opacity="1" stroke="#000000" stroke-opacity="1" stroke-width="0.6"/>
<circle clip-path="url(#clip702)" cx="242.795" cy="34.2763" r="3" fill="#009af9" fill-rule="evenodd" fill-opacity="1" stroke="#000000" stroke-opacity="1" stroke-width="0.6"/>
<circle clip-path="url(#clip702)" cx="259.223" cy="39.9175" r="3" fill="#009af9" fill-rule="evenodd" fill-opacity="1" stroke="#000000" stroke-opacity="1" stroke-width="0.6"/>
<circle clip-path="url(#clip702)" cx="275.651" cy="51.149" r="3" fill="#009af9" fill-rule="evenodd" fill-opacity="1" stroke="#000000" stroke-opacity="1" stroke-width="0.6"/>
<circle clip-path="url(#clip702)" cx="292.079" cy="61.1952" r="3" fill="#009af9" fill-rule="evenodd" fill-opacity="1" stroke="#000000" stroke-opacity="1" stroke-width="0.6"/>
<circle clip-path="url(#clip702)" cx="308.507" cy="63.1822" r="3" fill="#009af9" fill-rule="evenodd" fill-opacity="1" stroke="#000000" stroke-opacity="1" stroke-width="0.6"/>
<circle clip-path="url(#clip702)" cx="324.936" cy="54.1633" r="3" fill="#009af9" fill-rule="evenodd" fill-opacity="1" stroke="#000000" stroke-opacity="1" stroke-width="0.6"/>
<circle clip-path="url(#clip702)" cx="341.364" cy="37.7138" r="3" fill="#009af9" fill-rule="evenodd" fill-opacity="1" stroke="#000000" stroke-opacity="1" stroke-width="0.6"/>
<circle clip-path="url(#clip702)" cx="357.792" cy="22.8405" r="3" fill="#009af9" fill-rule="evenodd" fill-opacity="1" stroke="#000000" stroke-opacity="1" stroke-width="0.6"/>
<circle clip-path="url(#clip702)" cx="374.22" cy="18.7902" r="3" fill="#009af9" fill-rule="evenodd" fill-opacity="1" stroke="#000000" stroke-opacity="1" stroke-width="0.6"/>
<circle clip-path="url(#clip702)" cx="390.648" cy="28.3549" r="3" fill="#009af9" fill-rule="evenodd" fill-opacity="1" stroke="#000000" stroke-opacity="1" stroke-width="0.6"/>
<circle clip-path="url(#clip702)" cx="407.076" cy="44.4924" r="3" fill="#009af9" fill-rule="evenodd" fill-opacity="1" stroke="#000000" stroke-opacity="1" stroke-width="0.6"/>
<circle clip-path="url(#clip702)" cx="423.504" cy="54.1117" r="3" fill="#009af9" fill-rule="evenodd" fill-opacity="1" stroke="#000000" stroke-opacity="1" stroke-width="0.6"/>
<circle clip-path="url(#clip702)" cx="439.933" cy="47.9679" r="3" fill="#009af9" fill-rule="evenodd" fill-opacity="1" stroke="#000000" stroke-opacity="1" stroke-width="0.6"/>
<circle clip-path="url(#clip702)" cx="456.361" cy="29.538" r="3" fill="#009af9" fill-rule="evenodd" fill-opacity="1" stroke="#000000" stroke-opacity="1" stroke-width="0.6"/>
<polyline clip-path="url(#clip702)" style="stroke:#e26f46; stroke-width:2; stroke-opacity:1; fill:none" stroke-dasharray="8, 5" points="
  62.0851,251.429 78.5132,177.317 94.9414,138.342 111.37,114.304 127.798,97.9968 144.226,86.2081 160.654,77.2882 177.082,70.3035 193.51,64.6859 209.938,60.0697 
  226.367,56.2092 242.795,52.9328 259.223,50.1172 275.651,47.6717 292.079,45.5277 308.507,43.6328 324.936,41.9459 341.364,40.4345 357.792,39.0727 374.22,37.8392 
  390.648,36.7167 407.076,35.691 423.504,34.7499 439.933,33.8835 456.361,33.0831 
  "/>
<path clip-path="url(#clip700)" d="
M344.366 250.188 L454.258 250.188 L454.258 204.828 L344.366 204.828  Z
  " fill="#ffffff" fill-rule="evenodd" fill-opacity="1"/>
<polyline clip-path="url(#clip700)" style="stroke:#000000; stroke-width:1; stroke-opacity:1; fill:none" points="
  344.366,250.188 454.258,250.188 454.258,204.828 344.366,204.828 344.366,250.188 
  "/>
<circle clip-path="url(#clip700)" cx="362.941" cy="219.948" r="5" fill="#009af9" fill-rule="evenodd" fill-opacity="1" stroke="#000000" stroke-opacity="1" stroke-width="0.96"/>
<path clip-path="url(#clip700)" d="M 0 0 M386.944 220.356 L386.944 224.268 L385.879 224.268 L385.879 220.391 Q385.879 219.471 385.521 219.014 Q385.162 218.557 384.444 218.557 Q383.582 218.557 383.084 219.106 Q382.587 219.656 382.587 220.605 L382.587 224.268 L381.516 224.268 L381.516 217.787 L382.587 217.787 L382.587 218.794 Q382.969 218.209 383.484 217.92 Q384.004 217.631 384.681 217.631 Q385.798 217.631 386.371 218.325 Q386.944 219.014 386.944 220.356 Z" fill="#000000" fill-rule="evenodd" fill-opacity="1" /><path clip-path="url(#clip700)" d="M 0 0 M390.573 218.534 Q389.716 218.534 389.219 219.205 Q388.721 219.87 388.721 221.034 Q388.721 222.197 389.213 222.868 Q389.71 223.534 390.573 223.534 Q391.423 223.534 391.921 222.862 Q392.419 222.191 392.419 221.034 Q392.419 219.882 391.921 219.211 Q391.423 218.534 390.573 218.534 M390.573 217.631 Q391.962 217.631 392.754 218.534 Q393.547 219.436 393.547 221.034 Q393.547 222.625 392.754 223.534 Q391.962 224.436 390.573 224.436 Q389.178 224.436 388.385 223.534 Q387.598 222.625 387.598 221.034 Q387.598 219.436 388.385 218.534 Q389.178 217.631 390.573 217.631 Z" fill="#000000" fill-rule="evenodd" fill-opacity="1" /><path clip-path="url(#clip700)" d="M 0 0 M394.664 217.787 L395.729 217.787 L395.729 224.268 L394.664 224.268 L394.664 217.787 M394.664 215.264 L395.729 215.264 L395.729 216.612 L394.664 216.612 L394.664 215.264 Z" fill="#000000" fill-rule="evenodd" fill-opacity="1" /><path clip-path="url(#clip700)" d="M 0 0 M400.978 217.978 L400.978 218.985 Q400.526 218.753 400.04 218.638 Q399.554 218.522 399.033 218.522 Q398.24 218.522 397.841 218.765 Q397.448 219.008 397.448 219.494 Q397.448 219.865 397.731 220.079 Q398.015 220.287 398.871 220.478 L399.236 220.559 Q400.37 220.802 400.845 221.248 Q401.325 221.687 401.325 222.48 Q401.325 223.383 400.607 223.91 Q399.896 224.436 398.646 224.436 Q398.125 224.436 397.558 224.332 Q396.996 224.234 396.371 224.031 L396.371 222.932 Q396.962 223.238 397.534 223.395 Q398.107 223.545 398.669 223.545 Q399.421 223.545 399.826 223.29 Q400.231 223.03 400.231 222.561 Q400.231 222.127 399.936 221.896 Q399.647 221.664 398.657 221.45 L398.287 221.363 Q397.297 221.155 396.857 220.727 Q396.418 220.293 396.418 219.54 Q396.418 218.626 397.066 218.128 Q397.714 217.631 398.906 217.631 Q399.496 217.631 400.017 217.718 Q400.538 217.804 400.978 217.978 Z" fill="#000000" fill-rule="evenodd" fill-opacity="1" /><path clip-path="url(#clip700)" d="M 0 0 M405.139 224.87 Q404.687 226.028 404.259 226.381 Q403.831 226.734 403.113 226.734 L402.262 226.734 L402.262 225.843 L402.887 225.843 Q403.327 225.843 403.57 225.634 Q403.813 225.426 404.108 224.65 L404.299 224.164 L401.678 217.787 L402.806 217.787 L404.832 222.856 L406.857 217.787 L407.986 217.787 L405.139 224.87 Z" fill="#000000" fill-rule="evenodd" fill-opacity="1" /><path clip-path="url(#clip700)" d="M 0 0 M417.135 218.771 L417.135 215.264 L418.2 215.264 L418.2 224.268 L417.135 224.268 L417.135 223.296 Q416.799 223.875 416.284 224.159 Q415.775 224.436 415.057 224.436 Q413.883 224.436 413.142 223.499 Q412.407 222.561 412.407 221.034 Q412.407 219.506 413.142 218.568 Q413.883 217.631 415.057 217.631 Q415.775 217.631 416.284 217.914 Q416.799 218.192 417.135 218.771 M413.507 221.034 Q413.507 222.208 413.987 222.88 Q414.473 223.545 415.318 223.545 Q416.163 223.545 416.649 222.88 Q417.135 222.208 417.135 221.034 Q417.135 219.859 416.649 219.193 Q416.163 218.522 415.318 218.522 Q414.473 218.522 413.987 219.193 Q413.507 219.859 413.507 221.034 Z" fill="#000000" fill-rule="evenodd" fill-opacity="1" /><path clip-path="url(#clip700)" d="M 0 0 M422.262 221.01 Q420.972 221.01 420.474 221.306 Q419.976 221.601 419.976 222.312 Q419.976 222.88 420.347 223.215 Q420.723 223.545 421.365 223.545 Q422.251 223.545 422.783 222.92 Q423.321 222.289 423.321 221.248 L423.321 221.01 L422.262 221.01 M424.386 220.571 L424.386 224.268 L423.321 224.268 L423.321 223.285 Q422.957 223.875 422.413 224.159 Q421.869 224.436 421.082 224.436 Q420.086 224.436 419.496 223.881 Q418.912 223.319 418.912 222.382 Q418.912 221.288 419.641 220.733 Q420.376 220.177 421.828 220.177 L423.321 220.177 L423.321 220.073 Q423.321 219.338 422.835 218.939 Q422.355 218.534 421.481 218.534 Q420.926 218.534 420.399 218.667 Q419.872 218.8 419.386 219.066 L419.386 218.082 Q419.971 217.856 420.52 217.747 Q421.07 217.631 421.591 217.631 Q422.997 217.631 423.692 218.36 Q424.386 219.089 424.386 220.571 Z" fill="#000000" fill-rule="evenodd" fill-opacity="1" /><path clip-path="url(#clip700)" d="M 0 0 M426.556 215.947 L426.556 217.787 L428.75 217.787 L428.75 218.615 L426.556 218.615 L426.556 222.133 Q426.556 222.926 426.77 223.152 Q426.99 223.377 427.656 223.377 L428.75 223.377 L428.75 224.268 L427.656 224.268 Q426.423 224.268 425.954 223.811 Q425.486 223.348 425.486 222.133 L425.486 218.615 L424.704 218.615 L424.704 217.787 L425.486 217.787 L425.486 215.947 L426.556 215.947 Z" fill="#000000" fill-rule="evenodd" fill-opacity="1" /><path clip-path="url(#clip700)" d="M 0 0 M432.812 221.01 Q431.522 221.01 431.024 221.306 Q430.526 221.601 430.526 222.312 Q430.526 222.88 430.897 223.215 Q431.273 223.545 431.915 223.545 Q432.8 223.545 433.333 222.92 Q433.871 222.289 433.871 221.248 L433.871 221.01 L432.812 221.01 M434.936 220.571 L434.936 224.268 L433.871 224.268 L433.871 223.285 Q433.506 223.875 432.962 224.159 Q432.419 224.436 431.631 224.436 Q430.636 224.436 430.046 223.881 Q429.461 223.319 429.461 222.382 Q429.461 221.288 430.191 220.733 Q430.925 220.177 432.378 220.177 L433.871 220.177 L433.871 220.073 Q433.871 219.338 433.385 218.939 Q432.905 218.534 432.031 218.534 Q431.475 218.534 430.949 218.667 Q430.422 218.8 429.936 219.066 L429.936 218.082 Q430.52 217.856 431.07 217.747 Q431.62 217.631 432.141 217.631 Q433.547 217.631 434.241 218.36 Q434.936 219.089 434.936 220.571 Z" fill="#000000" fill-rule="evenodd" fill-opacity="1" /><polyline clip-path="url(#clip700)" style="stroke:#e26f46; stroke-width:1; stroke-opacity:1; fill:none" stroke-dasharray="8, 5" points="
  349.01,235.068 376.872,235.068 
  "/>
<path clip-path="url(#clip700)" d="M 0 0 M384.491 233.654 Q383.634 233.654 383.136 234.325 Q382.639 234.99 382.639 236.154 Q382.639 237.317 383.131 237.988 Q383.628 238.654 384.491 238.654 Q385.341 238.654 385.839 237.982 Q386.337 237.311 386.337 236.154 Q386.337 235.002 385.839 234.331 Q385.341 233.654 384.491 233.654 M384.491 232.751 Q385.879 232.751 386.672 233.654 Q387.465 234.556 387.465 236.154 Q387.465 237.745 386.672 238.654 Q385.879 239.556 384.491 239.556 Q383.096 239.556 382.303 238.654 Q381.516 237.745 381.516 236.154 Q381.516 234.556 382.303 233.654 Q383.096 232.751 384.491 232.751 Z" fill="#000000" fill-rule="evenodd" fill-opacity="1" /><path clip-path="url(#clip700)" d="M 0 0 M392.338 233.902 Q392.158 233.798 391.944 233.752 Q391.736 233.7 391.481 233.7 Q390.578 233.7 390.092 234.29 Q389.612 234.875 389.612 235.974 L389.612 239.388 L388.541 239.388 L388.541 232.907 L389.612 232.907 L389.612 233.914 Q389.948 233.324 390.486 233.04 Q391.024 232.751 391.794 232.751 Q391.904 232.751 392.037 232.768 Q392.17 232.78 392.332 232.809 L392.338 233.902 Z" fill="#000000" fill-rule="evenodd" fill-opacity="1" /><path clip-path="url(#clip700)" d="M 0 0 M393.455 232.907 L394.519 232.907 L394.519 239.388 L393.455 239.388 L393.455 232.907 M393.455 230.384 L394.519 230.384 L394.519 231.732 L393.455 231.732 L393.455 230.384 Z" fill="#000000" fill-rule="evenodd" fill-opacity="1" /><path clip-path="url(#clip700)" d="M 0 0 M399.901 236.073 Q399.901 234.915 399.421 234.279 Q398.946 233.642 398.084 233.642 Q397.228 233.642 396.747 234.279 Q396.273 234.915 396.273 236.073 Q396.273 237.224 396.747 237.861 Q397.228 238.497 398.084 238.497 Q398.946 238.497 399.421 237.861 Q399.901 237.224 399.901 236.073 M400.966 238.584 Q400.966 240.239 400.231 241.044 Q399.496 241.854 397.98 241.854 Q397.419 241.854 396.921 241.767 Q396.423 241.686 395.955 241.512 L395.955 240.476 Q396.423 240.731 396.881 240.853 Q397.338 240.974 397.812 240.974 Q398.86 240.974 399.38 240.424 Q399.901 239.88 399.901 238.775 L399.901 238.248 Q399.571 238.821 399.056 239.105 Q398.541 239.388 397.824 239.388 Q396.632 239.388 395.902 238.48 Q395.173 237.571 395.173 236.073 Q395.173 234.568 395.902 233.659 Q396.632 232.751 397.824 232.751 Q398.541 232.751 399.056 233.034 Q399.571 233.318 399.901 233.891 L399.901 232.907 L400.966 232.907 L400.966 238.584 Z" fill="#000000" fill-rule="evenodd" fill-opacity="1" /><path clip-path="url(#clip700)" d="M 0 0 M402.083 232.907 L403.148 232.907 L403.148 239.388 L402.083 239.388 L402.083 232.907 M402.083 230.384 L403.148 230.384 L403.148 231.732 L402.083 231.732 L402.083 230.384 Z" fill="#000000" fill-rule="evenodd" fill-opacity="1" /><path clip-path="url(#clip700)" d="M 0 0 M409.652 235.476 L409.652 239.388 L408.588 239.388 L408.588 235.511 Q408.588 234.591 408.229 234.134 Q407.87 233.677 407.152 233.677 Q406.29 233.677 405.792 234.226 Q405.295 234.776 405.295 235.725 L405.295 239.388 L404.224 239.388 L404.224 232.907 L405.295 232.907 L405.295 233.914 Q405.677 233.329 406.192 233.04 Q406.713 232.751 407.39 232.751 Q408.507 232.751 409.08 233.445 Q409.652 234.134 409.652 235.476 Z" fill="#000000" fill-rule="evenodd" fill-opacity="1" /><path clip-path="url(#clip700)" d="M 0 0 M413.715 236.13 Q412.424 236.13 411.927 236.426 Q411.429 236.721 411.429 237.432 Q411.429 238 411.799 238.335 Q412.176 238.665 412.818 238.665 Q413.703 238.665 414.236 238.04 Q414.774 237.409 414.774 236.368 L414.774 236.13 L413.715 236.13 M415.839 235.691 L415.839 239.388 L414.774 239.388 L414.774 238.405 Q414.409 238.995 413.865 239.279 Q413.321 239.556 412.534 239.556 Q411.539 239.556 410.949 239.001 Q410.364 238.439 410.364 237.502 Q410.364 236.408 411.093 235.853 Q411.828 235.297 413.281 235.297 L414.774 235.297 L414.774 235.193 Q414.774 234.458 414.288 234.059 Q413.807 233.654 412.934 233.654 Q412.378 233.654 411.851 233.787 Q411.325 233.92 410.839 234.186 L410.839 233.202 Q411.423 232.976 411.973 232.867 Q412.523 232.751 413.044 232.751 Q414.45 232.751 415.144 233.48 Q415.839 234.209 415.839 235.691 Z" fill="#000000" fill-rule="evenodd" fill-opacity="1" /><path clip-path="url(#clip700)" d="M 0 0 M416.956 230.384 L418.02 230.384 L418.02 239.388 L416.956 239.388 L416.956 230.384 Z" fill="#000000" fill-rule="evenodd" fill-opacity="1" /><path clip-path="url(#clip700)" d="M 0 0 M427.17 233.891 L427.17 230.384 L428.235 230.384 L428.235 239.388 L427.17 239.388 L427.17 238.416 Q426.834 238.995 426.319 239.279 Q425.81 239.556 425.092 239.556 Q423.917 239.556 423.177 238.619 Q422.442 237.681 422.442 236.154 Q422.442 234.626 423.177 233.688 Q423.917 232.751 425.092 232.751 Q425.81 232.751 426.319 233.034 Q426.834 233.312 427.17 233.891 M423.541 236.154 Q423.541 237.328 424.022 238 Q424.508 238.665 425.353 238.665 Q426.197 238.665 426.684 238 Q427.17 237.328 427.17 236.154 Q427.17 234.979 426.684 234.313 Q426.197 233.642 425.353 233.642 Q424.508 233.642 424.022 234.313 Q423.541 234.979 423.541 236.154 Z" fill="#000000" fill-rule="evenodd" fill-opacity="1" /><path clip-path="url(#clip700)" d="M 0 0 M432.297 236.13 Q431.006 236.13 430.509 236.426 Q430.011 236.721 430.011 237.432 Q430.011 238 430.381 238.335 Q430.758 238.665 431.4 238.665 Q432.285 238.665 432.818 238.04 Q433.356 237.409 433.356 236.368 L433.356 236.13 L432.297 236.13 M434.421 235.691 L434.421 239.388 L433.356 239.388 L433.356 238.405 Q432.991 238.995 432.447 239.279 Q431.903 239.556 431.116 239.556 Q430.121 239.556 429.531 239.001 Q428.946 238.439 428.946 237.502 Q428.946 236.408 429.675 235.853 Q430.41 235.297 431.863 235.297 L433.356 235.297 L433.356 235.193 Q433.356 234.458 432.87 234.059 Q432.39 233.654 431.516 233.654 Q430.96 233.654 430.434 233.787 Q429.907 233.92 429.421 234.186 L429.421 233.202 Q430.005 232.976 430.555 232.867 Q431.105 232.751 431.626 232.751 Q433.032 232.751 433.726 233.48 Q434.421 234.209 434.421 235.691 Z" fill="#000000" fill-rule="evenodd" fill-opacity="1" /><path clip-path="url(#clip700)" d="M 0 0 M436.591 231.067 L436.591 232.907 L438.784 232.907 L438.784 233.735 L436.591 233.735 L436.591 237.253 Q436.591 238.046 436.805 238.272 Q437.025 238.497 437.69 238.497 L438.784 238.497 L438.784 239.388 L437.69 239.388 Q436.458 239.388 435.989 238.931 Q435.52 238.468 435.52 237.253 L435.52 233.735 L434.739 233.735 L434.739 232.907 L435.52 232.907 L435.52 231.067 L436.591 231.067 Z" fill="#000000" fill-rule="evenodd" fill-opacity="1" /><path clip-path="url(#clip700)" d="M 0 0 M442.847 236.13 Q441.556 236.13 441.059 236.426 Q440.561 236.721 440.561 237.432 Q440.561 238 440.931 238.335 Q441.307 238.665 441.95 238.665 Q442.835 238.665 443.368 238.04 Q443.906 237.409 443.906 236.368 L443.906 236.13 L442.847 236.13 M444.971 235.691 L444.971 239.388 L443.906 239.388 L443.906 238.405 Q443.541 238.995 442.997 239.279 Q442.453 239.556 441.666 239.556 Q440.671 239.556 440.081 239.001 Q439.496 238.439 439.496 237.502 Q439.496 236.408 440.225 235.853 Q440.96 235.297 442.413 235.297 L443.906 235.297 L443.906 235.193 Q443.906 234.458 443.42 234.059 Q442.939 233.654 442.065 233.654 Q441.51 233.654 440.983 233.787 Q440.457 233.92 439.971 234.186 L439.971 233.202 Q440.555 232.976 441.105 232.867 Q441.655 232.751 442.175 232.751 Q443.582 232.751 444.276 233.48 Q444.971 234.209 444.971 235.691 Z" fill="#000000" fill-rule="evenodd" fill-opacity="1" /></svg>
