<?xml version="1.0" encoding="utf-8"?>
<svg xmlns="http://www.w3.org/2000/svg" xmlns:xlink="http://www.w3.org/1999/xlink" width="120" height="75" viewBox="0 0 480 300">
<defs>
  <clipPath id="clip780">
    <rect x="0" y="0" width="480" height="300"/>
  </clipPath>
</defs>
<path clip-path="url(#clip780)" d="
M0 300 L480 300 L480 0 L0 0  Z
  " fill="#ffffff" fill-rule="evenodd" fill-opacity="1"/>
<defs>
  <clipPath id="clip781">
    <rect x="96" y="0" width="337" height="300"/>
  </clipPath>
</defs>
<path clip-path="url(#clip780)" d="
M50.5057 258.408 L468.189 258.408 L468.189 11.811 L50.5057 11.811  Z
  " fill="#ffffff" fill-rule="evenodd" fill-opacity="1"/>
<defs>
  <clipPath id="clip782">
    <rect x="50" y="11" width="419" height="248"/>
  </clipPath>
</defs>
<polyline clip-path="url(#clip782)" style="stroke:#000000; stroke-width:0.5; stroke-opacity:0.1; fill:none" points="
  62.3269,258.408 62.3269,11.811 
  "/>
<polyline clip-path="url(#clip782)" style="stroke:#000000; stroke-width:0.5; stroke-opacity:0.1; fill:none" points="
  128,258.408 128,11.811 
  "/>
<polyline clip-path="url(#clip782)" style="stroke:#000000; stroke-width:0.5; stroke-opacity:0.1; fill:none" points="
  193.674,258.408 193.674,11.811 
  "/>
<polyline clip-path="url(#clip782)" style="stroke:#000000; stroke-width:0.5; stroke-opacity:0.1; fill:none" points="
  259.347,258.408 259.347,11.811 
  "/>
<polyline clip-path="url(#clip782)" style="stroke:#000000; stroke-width:0.5; stroke-opacity:0.1; fill:none" points="
  325.021,258.408 325.021,11.811 
  "/>
<polyline clip-path="url(#clip782)" style="stroke:#000000; stroke-width:0.5; stroke-opacity:0.1; fill:none" points="
  390.694,258.408 390.694,11.811 
  "/>
<polyline clip-path="url(#clip782)" style="stroke:#000000; stroke-width:0.5; stroke-opacity:0.1; fill:none" points="
  456.368,258.408 456.368,11.811 
  "/>
<polyline clip-path="url(#clip780)" style="stroke:#000000; stroke-width:1; stroke-opacity:1; fill:none" points="
  50.5057,258.408 468.189,258.408 
  "/>
<polyline clip-path="url(#clip780)" style="stroke:#000000; stroke-width:1; stroke-opacity:1; fill:none" points="
  62.3269,258.408 62.3269,255.449 
  "/>
<polyline clip-path="url(#clip780)" style="stroke:#000000; stroke-width:1; stroke-opacity:1; fill:none" points="
  128,258.408 128,255.449 
  "/>
<polyline clip-path="url(#clip780)" style="stroke:#000000; stroke-width:1; stroke-opacity:1; fill:none" points="
  193.674,258.408 193.674,255.449 
  "/>
<polyline clip-path="url(#clip780)" style="stroke:#000000; stroke-width:1; stroke-opacity:1; fill:none" points="
  259.347,258.408 259.347,255.449 
  "/>
<polyline clip-path="url(#clip780)" style="stroke:#000000; stroke-width:1; stroke-opacity:1; fill:none" points="
  325.021,258.408 325.021,255.449 
  "/>
<polyline clip-path="url(#clip780)" style="stroke:#000000; stroke-width:1; stroke-opacity:1; fill:none" points="
  390.694,258.408 390.694,255.449 
  "/>
<polyline clip-path="url(#clip780)" style="stroke:#000000; stroke-width:1; stroke-opacity:1; fill:none" points="
  456.368,258.408 456.368,255.449 
  "/>
<path clip-path="url(#clip780)" d="M 0 0 M62.3269 264.746 Q61.4241 264.746 60.9669 265.637 Q60.5156 266.523 60.5156 268.305 Q60.5156 270.082 60.9669 270.973 Q61.4241 271.858 62.3269 271.858 Q63.2354 271.858 63.6868 270.973 Q64.144 270.082 64.144 268.305 Q64.144 266.523 63.6868 265.637 Q63.2354 264.746 62.3269 264.746 M62.3269 263.82 Q63.7794 263.82 64.5433 264.972 Q65.313 266.118 65.313 268.305 Q65.313 270.487 64.5433 271.638 Q63.7794 272.784 62.3269 272.784 Q60.8743 272.784 60.1047 271.638 Q59.3408 270.487 59.3408 268.305 Q59.3408 266.118 60.1047 264.972 Q60.8743 263.82 62.3269 263.82 Z" fill="#000000" fill-rule="evenodd" fill-opacity="1" /><path clip-path="url(#clip780)" d="M 0 0 M125.596 271.633 L127.506 271.633 L127.506 265.041 L125.428 265.458 L125.428 264.393 L127.494 263.976 L128.663 263.976 L128.663 271.633 L130.573 271.633 L130.573 272.616 L125.596 272.616 L125.596 271.633 Z" fill="#000000" fill-rule="evenodd" fill-opacity="1" /><path clip-path="url(#clip780)" d="M 0 0 M192.337 271.633 L196.417 271.633 L196.417 272.616 L190.931 272.616 L190.931 271.633 Q191.596 270.944 192.742 269.787 Q193.894 268.623 194.189 268.288 Q194.75 267.657 194.97 267.223 Q195.196 266.783 195.196 266.361 Q195.196 265.672 194.71 265.238 Q194.229 264.804 193.454 264.804 Q192.904 264.804 192.291 264.995 Q191.683 265.186 190.989 265.574 L190.989 264.393 Q191.695 264.109 192.308 263.965 Q192.922 263.82 193.431 263.82 Q194.773 263.82 195.572 264.491 Q196.371 265.163 196.371 266.285 Q196.371 266.818 196.168 267.298 Q195.971 267.773 195.445 268.421 Q195.3 268.589 194.525 269.393 Q193.749 270.192 192.337 271.633 Z" fill="#000000" fill-rule="evenodd" fill-opacity="1" /><path clip-path="url(#clip780)" d="M 0 0 M260.409 267.958 Q261.248 268.137 261.717 268.704 Q262.192 269.271 262.192 270.105 Q262.192 271.384 261.312 272.084 Q260.432 272.784 258.812 272.784 Q258.268 272.784 257.689 272.674 Q257.116 272.57 256.503 272.356 L256.503 271.227 Q256.989 271.511 257.568 271.656 Q258.147 271.8 258.777 271.8 Q259.877 271.8 260.45 271.366 Q261.028 270.932 261.028 270.105 Q261.028 269.341 260.49 268.913 Q259.958 268.479 259.003 268.479 L257.996 268.479 L257.996 267.518 L259.049 267.518 Q259.912 267.518 260.369 267.177 Q260.826 266.829 260.826 266.181 Q260.826 265.516 260.351 265.163 Q259.883 264.804 259.003 264.804 Q258.523 264.804 257.973 264.908 Q257.423 265.012 256.763 265.232 L256.763 264.19 Q257.429 264.005 258.008 263.913 Q258.592 263.82 259.107 263.82 Q260.438 263.82 261.214 264.428 Q261.989 265.03 261.989 266.06 Q261.989 266.777 261.578 267.275 Q261.167 267.767 260.409 267.958 Z" fill="#000000" fill-rule="evenodd" fill-opacity="1" /><path clip-path="url(#clip780)" d="M 0 0 M325.773 264.995 L322.822 269.607 L325.773 269.607 L325.773 264.995 M325.466 263.976 L326.936 263.976 L326.936 269.607 L328.169 269.607 L328.169 270.579 L326.936 270.579 L326.936 272.616 L325.773 272.616 L325.773 270.579 L321.873 270.579 L321.873 269.451 L325.466 263.976 Z" fill="#000000" fill-rule="evenodd" fill-opacity="1" /><path clip-path="url(#clip780)" d="M 0 0 M388.264 263.976 L392.853 263.976 L392.853 264.96 L389.334 264.96 L389.334 267.078 Q389.589 266.991 389.844 266.951 Q390.098 266.905 390.353 266.905 Q391.8 266.905 392.644 267.697 Q393.489 268.49 393.489 269.844 Q393.489 271.239 392.621 272.015 Q391.753 272.784 390.173 272.784 Q389.629 272.784 389.062 272.692 Q388.501 272.599 387.899 272.414 L387.899 271.239 Q388.42 271.523 388.976 271.662 Q389.531 271.8 390.15 271.8 Q391.151 271.8 391.736 271.274 Q392.32 270.747 392.32 269.844 Q392.32 268.942 391.736 268.415 Q391.151 267.888 390.15 267.888 Q389.682 267.888 389.213 267.993 Q388.75 268.097 388.264 268.317 L388.264 263.976 Z" fill="#000000" fill-rule="evenodd" fill-opacity="1" /><path clip-path="url(#clip780)" d="M 0 0 M456.469 267.831 Q455.682 267.831 455.219 268.369 Q454.762 268.907 454.762 269.844 Q454.762 270.776 455.219 271.32 Q455.682 271.858 456.469 271.858 Q457.256 271.858 457.713 271.32 Q458.176 270.776 458.176 269.844 Q458.176 268.907 457.713 268.369 Q457.256 267.831 456.469 267.831 M458.79 264.167 L458.79 265.232 Q458.35 265.024 457.898 264.914 Q457.453 264.804 457.013 264.804 Q455.856 264.804 455.242 265.585 Q454.635 266.366 454.548 267.946 Q454.889 267.443 455.404 267.177 Q455.919 266.905 456.538 266.905 Q457.841 266.905 458.593 267.697 Q459.351 268.484 459.351 269.844 Q459.351 271.175 458.564 271.98 Q457.777 272.784 456.469 272.784 Q454.97 272.784 454.177 271.638 Q453.385 270.487 453.385 268.305 Q453.385 266.256 454.357 265.041 Q455.329 263.82 456.967 263.82 Q457.407 263.82 457.852 263.907 Q458.304 263.994 458.79 264.167 Z" fill="#000000" fill-rule="evenodd" fill-opacity="1" /><g clip-path="url(#clip780)">
<text style="fill:#000000; fill-opacity:1; font-family:Arial,Helvetica Neue,Helvetica,sans-serif; font-size:16px; text-anchor:middle;" transform="rotate(0, 259.347, 293.459)" x="259.347" y="293.459">s</text>
</g>
<polyline clip-path="url(#clip782)" style="stroke:#000000; stroke-width:0.5; stroke-opacity:0.1; fill:none" points="
  50.5057,251.429 468.189,251.429 
  "/>
<polyline clip-path="url(#clip782)" style="stroke:#000000; stroke-width:0.5; stroke-opacity:0.1; fill:none" points="
  50.5057,191.934 468.189,191.934 
  "/>
<polyline clip-path="url(#clip782)" style="stroke:#000000; stroke-width:0.5; stroke-opacity:0.1; fill:none" points="
  50.5057,132.438 468.189,132.438 
  "/>
<polyline clip-path="url(#clip782)" style="stroke:#000000; stroke-width:0.5; stroke-opacity:0.1; fill:none" points="
  50.5057,72.943 468.189,72.943 
  "/>
<polyline clip-path="url(#clip782)" style="stroke:#000000; stroke-width:0.5; stroke-opacity:0.1; fill:none" points="
  50.5057,13.4477 468.189,13.4477 
  "/>
<polyline clip-path="url(#clip780)" style="stroke:#000000; stroke-width:1; stroke-opacity:1; fill:none" points="
  50.5057,258.408 50.5057,11.811 
  "/>
<polyline clip-path="url(#clip780)" style="stroke:#000000; stroke-width:1; stroke-opacity:1; fill:none" points="
  50.5057,251.429 55.5179,251.429 
  "/>
<polyline clip-path="url(#clip780)" style="stroke:#000000; stroke-width:1; stroke-opacity:1; fill:none" points="
  50.5057,191.934 55.5179,191.934 
  "/>
<polyline clip-path="url(#clip780)" style="stroke:#000000; stroke-width:1; stroke-opacity:1; fill:none" points="
  50.5057,132.438 55.5179,132.438 
  "/>
<polyline clip-path="url(#clip780)" style="stroke:#000000; stroke-width:1; stroke-opacity:1; fill:none" points="
  50.5057,72.943 55.5179,72.943 
  "/>
<polyline clip-path="url(#clip780)" style="stroke:#000000; stroke-width:1; stroke-opacity:1; fill:none" points="
  50.5057,13.4477 55.5179,13.4477 
  "/>
<path clip-path="url(#clip780)" d="M 0 0 M31.0777 247.879 Q30.1749 247.879 29.7178 248.77 Q29.2664 249.655 29.2664 251.438 Q29.2664 253.215 29.7178 254.106 Q30.1749 254.991 31.0777 254.991 Q31.9863 254.991 32.4377 254.106 Q32.8948 253.215 32.8948 251.438 Q32.8948 249.655 32.4377 248.77 Q31.9863 247.879 31.0777 247.879 M31.0777 246.953 Q32.5303 246.953 33.2941 248.105 Q34.0638 249.25 34.0638 251.438 Q34.0638 253.62 33.2941 254.771 Q32.5303 255.917 31.0777 255.917 Q29.6252 255.917 28.8555 254.771 Q28.0916 253.62 28.0916 251.438 Q28.0916 249.25 28.8555 248.105 Q29.6252 246.953 31.0777 246.953 Z" fill="#000000" fill-rule="evenodd" fill-opacity="1" /><path clip-path="url(#clip780)" d="M 0 0 M35.3312 254.279 L36.5522 254.279 L36.5522 255.749 L35.3312 255.749 L35.3312 254.279 Z" fill="#000000" fill-rule="evenodd" fill-opacity="1" /><path clip-path="url(#clip780)" d="M 0 0 M40.3196 247.879 Q39.4168 247.879 38.9596 248.77 Q38.5082 249.655 38.5082 251.438 Q38.5082 253.215 38.9596 254.106 Q39.4168 254.991 40.3196 254.991 Q41.2281 254.991 41.6795 254.106 Q42.1367 253.215 42.1367 251.438 Q42.1367 249.655 41.6795 248.77 Q41.2281 247.879 40.3196 247.879 M40.3196 246.953 Q41.7721 246.953 42.536 248.105 Q43.3057 249.25 43.3057 251.438 Q43.3057 253.62 42.536 254.771 Q41.7721 255.917 40.3196 255.917 Q38.867 255.917 38.0974 254.771 Q37.3335 253.62 37.3335 251.438 Q37.3335 249.25 38.0974 248.105 Q38.867 246.953 40.3196 246.953 Z" fill="#000000" fill-rule="evenodd" fill-opacity="1" /><path clip-path="url(#clip780)" d="M 0 0 M31.3266 188.383 Q30.4238 188.383 29.9666 189.275 Q29.5152 190.16 29.5152 191.943 Q29.5152 193.719 29.9666 194.61 Q30.4238 195.496 31.3266 195.496 Q32.2351 195.496 32.6865 194.61 Q33.1437 193.719 33.1437 191.943 Q33.1437 190.16 32.6865 189.275 Q32.2351 188.383 31.3266 188.383 M31.3266 187.458 Q32.7791 187.458 33.543 188.609 Q34.3127 189.755 34.3127 191.943 Q34.3127 194.124 33.543 195.276 Q32.7791 196.422 31.3266 196.422 Q29.874 196.422 29.1043 195.276 Q28.3405 194.124 28.3405 191.943 Q28.3405 189.755 29.1043 188.609 Q29.874 187.458 31.3266 187.458 Z" fill="#000000" fill-rule="evenodd" fill-opacity="1" /><path clip-path="url(#clip780)" d="M 0 0 M35.58 194.784 L36.8011 194.784 L36.8011 196.254 L35.58 196.254 L35.58 194.784 Z" fill="#000000" fill-rule="evenodd" fill-opacity="1" /><path clip-path="url(#clip780)" d="M 0 0 M38.08 187.614 L42.6691 187.614 L42.6691 188.598 L39.1506 188.598 L39.1506 190.716 Q39.4052 190.629 39.6598 190.588 Q39.9145 190.542 40.1691 190.542 Q41.6159 190.542 42.4608 191.335 Q43.3057 192.128 43.3057 193.482 Q43.3057 194.877 42.4376 195.652 Q41.5696 196.422 39.9897 196.422 Q39.4457 196.422 38.8786 196.329 Q38.3173 196.236 37.7154 196.051 L37.7154 194.877 Q38.2362 195.16 38.7918 195.299 Q39.3473 195.438 39.9666 195.438 Q40.9677 195.438 41.5522 194.911 Q42.1367 194.385 42.1367 193.482 Q42.1367 192.579 41.5522 192.052 Q40.9677 191.526 39.9666 191.526 Q39.4978 191.526 39.0291 191.63 Q38.5661 191.734 38.08 191.954 L38.08 187.614 Z" fill="#000000" fill-rule="evenodd" fill-opacity="1" /><path clip-path="url(#clip780)" d="M 0 0 M29.087 135.775 L30.9967 135.775 L30.9967 129.183 L28.9192 129.6 L28.9192 128.535 L30.9851 128.118 L32.1541 128.118 L32.1541 135.775 L34.0638 135.775 L34.0638 136.758 L29.087 136.758 L29.087 135.775 Z" fill="#000000" fill-rule="evenodd" fill-opacity="1" /><path clip-path="url(#clip780)" d="M 0 0 M35.3312 135.289 L36.5522 135.289 L36.5522 136.758 L35.3312 136.758 L35.3312 135.289 Z" fill="#000000" fill-rule="evenodd" fill-opacity="1" /><path clip-path="url(#clip780)" d="M 0 0 M40.3196 128.888 Q39.4168 128.888 38.9596 129.779 Q38.5082 130.665 38.5082 132.447 Q38.5082 134.224 38.9596 135.115 Q39.4168 136 40.3196 136 Q41.2281 136 41.6795 135.115 Q42.1367 134.224 42.1367 132.447 Q42.1367 130.665 41.6795 129.779 Q41.2281 128.888 40.3196 128.888 M40.3196 127.962 Q41.7721 127.962 42.536 129.114 Q43.3057 130.26 43.3057 132.447 Q43.3057 134.629 42.536 135.78 Q41.7721 136.926 40.3196 136.926 Q38.867 136.926 38.0974 135.78 Q37.3335 134.629 37.3335 132.447 Q37.3335 130.26 38.0974 129.114 Q38.867 127.962 40.3196 127.962 Z" fill="#000000" fill-rule="evenodd" fill-opacity="1" /><path clip-path="url(#clip780)" d="M 0 0 M29.3358 76.2793 L31.2455 76.2793 L31.2455 69.6879 L29.168 70.1045 L29.168 69.0397 L31.234 68.623 L32.4029 68.623 L32.4029 76.2793 L34.3127 76.2793 L34.3127 77.263 L29.3358 77.263 L29.3358 76.2793 Z" fill="#000000" fill-rule="evenodd" fill-opacity="1" /><path clip-path="url(#clip780)" d="M 0 0 M35.58 75.7931 L36.8011 75.7931 L36.8011 77.263 L35.58 77.263 L35.58 75.7931 Z" fill="#000000" fill-rule="evenodd" fill-opacity="1" /><path clip-path="url(#clip780)" d="M 0 0 M38.08 68.623 L42.6691 68.623 L42.6691 69.6068 L39.1506 69.6068 L39.1506 71.7249 Q39.4052 71.6381 39.6598 71.5976 Q39.9145 71.5513 40.1691 71.5513 Q41.6159 71.5513 42.4608 72.3441 Q43.3057 73.1369 43.3057 74.4911 Q43.3057 75.8857 42.4376 76.6612 Q41.5696 77.4309 39.9897 77.4309 Q39.4457 77.4309 38.8786 77.3383 Q38.3173 77.2457 37.7154 77.0605 L37.7154 75.8857 Q38.2362 76.1693 38.7918 76.3082 Q39.3473 76.4471 39.9666 76.4471 Q40.9677 76.4471 41.5522 75.9205 Q42.1367 75.3938 42.1367 74.4911 Q42.1367 73.5883 41.5522 73.0617 Q40.9677 72.5351 39.9666 72.5351 Q39.4978 72.5351 39.0291 72.6392 Q38.5661 72.7434 38.08 72.9633 L38.08 68.623 Z" fill="#000000" fill-rule="evenodd" fill-opacity="1" /><path clip-path="url(#clip780)" d="M 0 0 M29.984 16.7839 L34.0638 16.7839 L34.0638 17.7677 L28.5777 17.7677 L28.5777 16.7839 Q29.2432 16.0952 30.3891 14.9378 Q31.5407 13.7746 31.8358 13.439 Q32.3972 12.8082 32.6171 12.3742 Q32.8428 11.9344 32.8428 11.5119 Q32.8428 10.8233 32.3566 10.3892 Q31.8763 9.9552 31.1009 9.9552 Q30.5511 9.9552 29.9377 10.1462 Q29.33 10.3371 28.6356 10.7249 L28.6356 9.54432 Q29.3416 9.26076 29.955 9.11608 Q30.5685 8.97141 31.0777 8.97141 Q32.4203 8.97141 33.2189 9.6427 Q34.0175 10.314 34.0175 11.4367 Q34.0175 11.9691 33.815 12.4494 Q33.6182 12.9239 33.0916 13.5721 Q32.9469 13.7399 32.1715 14.5443 Q31.396 15.3429 29.984 16.7839 Z" fill="#000000" fill-rule="evenodd" fill-opacity="1" /><path clip-path="url(#clip780)" d="M 0 0 M35.3312 16.2978 L36.5522 16.2978 L36.5522 17.7677 L35.3312 17.7677 L35.3312 16.2978 Z" fill="#000000" fill-rule="evenodd" fill-opacity="1" /><path clip-path="url(#clip780)" d="M 0 0 M40.3196 9.89733 Q39.4168 9.89733 38.9596 10.7885 Q38.5082 11.6739 38.5082 13.4563 Q38.5082 15.2329 38.9596 16.1241 Q39.4168 17.0096 40.3196 17.0096 Q41.2281 17.0096 41.6795 16.1241 Q42.1367 15.2329 42.1367 13.4563 Q42.1367 11.6739 41.6795 10.7885 Q41.2281 9.89733 40.3196 9.89733 M40.3196 8.97141 Q41.7721 8.97141 42.536 10.123 Q43.3057 11.2689 43.3057 13.4563 Q43.3057 15.638 42.536 16.7897 Q41.7721 17.9355 40.3196 17.9355 Q38.867 17.9355 38.0974 16.7897 Q37.3335 15.638 37.3335 13.4563 Q37.3335 11.2689 38.0974 10.123 Q38.867 8.97141 40.3196 8.97141 Z" fill="#000000" fill-rule="evenodd" fill-opacity="1" /><g clip-path="url(#clip780)">
<text style="fill:#000000; fill-opacity:1; font-family:Arial,Helvetica Neue,Helvetica,sans-serif; font-size:16px; text-anchor:middle;" transform="rotate(-90, 18.0011, 135.11)" x="18.0011" y="135.11">v</text>
</g>
<circle clip-path="url(#clip782)" cx="65.6106" cy="212.036" r="3" fill="#009af9" fill-rule="evenodd" fill-opacity="1" stroke="#000000" stroke-opacity="1" stroke-width="0.6"/>
<circle clip-path="url(#clip782)" cx="81.8921" cy="147.915" r="3" fill="#009af9" fill-rule="evenodd" fill-opacity="1" stroke="#000000" stroke-opacity="1" stroke-width="0.6"/>
<circle clip-path="url(#clip782)" cx="98.1737" cy="119.601" r="3" fill="#009af9" fill-rule="evenodd" fill-opacity="1" stroke="#000000" stroke-opacity="1" stroke-width="0.6"/>
<circle clip-path="url(#clip782)" cx="114.455" cy="107.158" r="3" fill="#009af9" fill-rule="evenodd" fill-opacity="1" stroke="#000000" stroke-opacity="1" stroke-width="0.6"/>
<circle clip-path="url(#clip782)" cx="130.737" cy="101.471" r="3" fill="#009af9" fill-rule="evenodd" fill-opacity="1" stroke="#000000" stroke-opacity="1" stroke-width="0.6"/>
<circle clip-path="url(#clip782)" cx="147.018" cy="96.7296" r="3" fill="#009af9" fill-rule="evenodd" fill-opacity="1" stroke="#000000" stroke-opacity="1" stroke-width="0.6"/>
<circle clip-path="url(#clip782)" cx="163.3" cy="89.1699" r="3" fill="#009af9" fill-rule="evenodd" fill-opacity="1" stroke="#000000" stroke-opacity="1" stroke-width="0.6"/>
<circle clip-path="url(#clip782)" cx="179.581" cy="77.2821" r="3" fill="#009af9" fill-rule="evenodd" fill-opacity="1" stroke="#000000" stroke-opacity="1" stroke-width="0.6"/>
<circle clip-path="url(#clip782)" cx="195.863" cy="62.1044" r="3" fill="#009af9" fill-rule="evenodd" fill-opacity="1" stroke="#000000" stroke-opacity="1" stroke-width="0.6"/>
<circle clip-path="url(#clip782)" cx="212.145" cy="46.9125" r="3" fill="#009af9" fill-rule="evenodd" fill-opacity="1" stroke="#000000" stroke-opacity="1" stroke-width="0.6"/>
<circle clip-path="url(#clip782)" cx="228.426" cy="36.0161" r="3" fill="#009af9" fill-rule="evenodd" fill-opacity="1" stroke="#000000" stroke-opacity="1" stroke-width="0.6"/>
<circle clip-path="url(#clip782)" cx="244.708" cy="32.8361" r="3" fill="#009af9" fill-rule="evenodd" fill-opacity="1" stroke="#000000" stroke-opacity="1" stroke-width="0.6"/>
<circle clip-path="url(#clip782)" cx="260.989" cy="37.9527" r="3" fill="#009af9" fill-rule="evenodd" fill-opacity="1" stroke="#000000" stroke-opacity="1" stroke-width="0.6"/>
<circle clip-path="url(#clip782)" cx="277.271" cy="48.1397" r="3" fill="#009af9" fill-rule="evenodd" fill-opacity="1" stroke="#000000" stroke-opacity="1" stroke-width="0.6"/>
<circle clip-path="url(#clip782)" cx="293.552" cy="57.2517" r="3" fill="#009af9" fill-rule="evenodd" fill-opacity="1" stroke="#000000" stroke-opacity="1" stroke-width="0.6"/>
<circle clip-path="url(#clip782)" cx="309.834" cy="59.0539" r="3" fill="#009af9" fill-rule="evenodd" fill-opacity="1" stroke="#000000" stroke-opacity="1" stroke-width="0.6"/>
<circle clip-path="url(#clip782)" cx="326.115" cy="50.8737" r="3" fill="#009af9" fill-rule="evenodd" fill-opacity="1" stroke="#000000" stroke-opacity="1" stroke-width="0.6"/>
<circle clip-path="url(#clip782)" cx="342.397" cy="35.954" r="3" fill="#009af9" fill-rule="evenodd" fill-opacity="1" stroke="#000000" stroke-opacity="1" stroke-width="0.6"/>
<circle clip-path="url(#clip782)" cx="358.678" cy="22.4639" r="3" fill="#009af9" fill-rule="evenodd" fill-opacity="1" stroke="#000000" stroke-opacity="1" stroke-width="0.6"/>
<circle clip-path="url(#clip782)" cx="374.96" cy="18.7902" r="3" fill="#009af9" fill-rule="evenodd" fill-opacity="1" stroke="#000000" stroke-opacity="1" stroke-width="0.6"/>
<circle clip-path="url(#clip782)" cx="391.242" cy="27.4654" r="3" fill="#009af9" fill-rule="evenodd" fill-opacity="1" stroke="#000000" stroke-opacity="1" stroke-width="0.6"/>
<circle clip-path="url(#clip782)" cx="407.523" cy="42.1022" r="3" fill="#009af9" fill-rule="evenodd" fill-opacity="1" stroke="#000000" stroke-opacity="1" stroke-width="0.6"/>
<circle clip-path="url(#clip782)" cx="423.805" cy="50.827" r="3" fill="#009af9" fill-rule="evenodd" fill-opacity="1" stroke="#000000" stroke-opacity="1" stroke-width="0.6"/>
<circle clip-path="url(#clip782)" cx="440.086" cy="45.2545" r="3" fill="#009af9" fill-rule="evenodd" fill-opacity="1" stroke="#000000" stroke-opacity="1" stroke-width="0.6"/>
<circle clip-path="url(#clip782)" cx="456.368" cy="28.5385" r="3" fill="#009af9" fill-rule="evenodd" fill-opacity="1" stroke="#000000" stroke-opacity="1" stroke-width="0.6"/>
<polyline clip-path="url(#clip782)" style="stroke:#e26f46; stroke-width:2; stroke-opacity:1; fill:none" stroke-dasharray="8, 5" points="
  65.6106,229.795 81.8921,162.574 98.1737,127.224 114.455,105.421 130.737,90.6309 147.018,79.9384 163.3,71.848 179.581,65.5129 195.863,60.4177 212.145,56.2309 
  228.426,52.7293 244.708,49.7576 260.989,47.2039 277.271,44.9858 293.552,43.0412 309.834,41.3225 326.115,39.7925 342.397,38.4217 358.678,37.1865 374.96,36.0677 
  391.242,35.0496 407.523,34.1192 423.805,33.2657 440.086,32.4798 456.368,31.7539 
  "/>
<polyline clip-path="url(#clip782)" style="stroke:#3da44d; stroke-width:2; stroke-opacity:1; fill:none" points="
  62.3269,251.429 63.2889,244.339 64.251,237.665 65.213,231.372 66.175,225.428 68.3989,212.875 70.6227,201.749 72.8466,191.821 75.0704,182.906 79.5181,167.553 
  83.9658,154.804 88.4135,144.047 92.8612,134.85 97.3089,126.897 101.757,119.95 107.102,112.683 112.448,106.375 117.794,100.849 123.14,95.9679 132.179,88.8932 
  141.219,82.9844 160.858,72.9932 178.963,66.14 198.374,60.4444 220.863,55.3058 240.849,51.6657 258.375,49.0015 277.483,46.5293 296.704,44.402 317.956,42.3822 
  338.177,40.7203 359.201,39.2098 376.899,38.0809 398.507,36.8502 418.819,35.8185 451.36,34.3737 456.368,34.1711 
  "/>
<polyline clip-path="url(#clip782)" style="stroke:#c271d2; stroke-width:2; stroke-opacity:1; fill:none" points="
  62.3269,251.429 62.8079,244.67 63.2889,238.337 63.7699,232.389 64.251,226.793 64.732,221.518 65.213,216.539 65.694,211.829 66.175,207.369 67.2869,197.91 
  68.3989,189.481 69.5108,181.923 70.6227,175.108 72.8466,163.306 75.0704,153.443 77.2942,145.076 79.5181,137.89 81.7419,131.65 83.9658,126.182 88.4135,117.051 
  92.8612,109.729 97.3089,103.728 101.757,98.7203 107.102,93.6981 112.448,89.5089 117.794,85.9613 123.14,82.9185 132.179,78.6522 141.219,75.2132 160.858,69.6402 
  178.963,65.9829 198.374,63.0401 220.863,60.457 240.849,58.667 258.375,57.3771 277.483,56.1954 296.704,55.1898 317.956,54.2447 338.177,53.4739 359.201,52.7787 
  376.899,52.2624 398.507,51.7027 418.819,51.2361 451.36,50.5865 456.368,50.4957 
  "/>
<path clip-path="url(#clip780)" d="
M344.402 250.188 L454.266 250.188 L454.266 174.588 L344.402 174.588  Z
  " fill="#ffffff" fill-rule="evenodd" fill-opacity="1"/>
<polyline clip-path="url(#clip780)" style="stroke:#000000; stroke-width:1; stroke-opacity:1; fill:none" points="
  344.402,250.188 454.266,250.188 454.266,174.588 344.402,174.588 344.402,250.188 
  "/>
<circle clip-path="url(#clip780)" cx="362.966" cy="189.708" r="5" fill="#009af9" fill-rule="evenodd" fill-opacity="1" stroke="#000000" stroke-opacity="1" stroke-width="0.96"/>
<path clip-path="url(#clip780)" d="M 0 0 M386.958 190.116 L386.958 194.028 L385.893 194.028 L385.893 190.151 Q385.893 189.231 385.534 188.774 Q385.176 188.317 384.458 188.317 Q383.596 188.317 383.098 188.866 Q382.6 189.416 382.6 190.365 L382.6 194.028 L381.53 194.028 L381.53 187.547 L382.6 187.547 L382.6 188.554 Q382.982 187.969 383.497 187.68 Q384.018 187.391 384.695 187.391 Q385.812 187.391 386.385 188.085 Q386.958 188.774 386.958 190.116 Z" fill="#000000" fill-rule="evenodd" fill-opacity="1" /><path clip-path="url(#clip780)" d="M 0 0 M390.586 188.294 Q389.73 188.294 389.232 188.965 Q388.735 189.63 388.735 190.794 Q388.735 191.957 389.227 192.628 Q389.724 193.294 390.586 193.294 Q391.437 193.294 391.935 192.622 Q392.433 191.951 392.433 190.794 Q392.433 189.642 391.935 188.971 Q391.437 188.294 390.586 188.294 M390.586 187.391 Q391.975 187.391 392.768 188.294 Q393.561 189.196 393.561 190.794 Q393.561 192.385 392.768 193.294 Q391.975 194.196 390.586 194.196 Q389.192 194.196 388.399 193.294 Q387.612 192.385 387.612 190.794 Q387.612 189.196 388.399 188.294 Q389.192 187.391 390.586 187.391 Z" fill="#000000" fill-rule="evenodd" fill-opacity="1" /><path clip-path="url(#clip780)" d="M 0 0 M394.678 187.547 L395.743 187.547 L395.743 194.028 L394.678 194.028 L394.678 187.547 M394.678 185.024 L395.743 185.024 L395.743 186.372 L394.678 186.372 L394.678 185.024 Z" fill="#000000" fill-rule="evenodd" fill-opacity="1" /><path clip-path="url(#clip780)" d="M 0 0 M400.992 187.738 L400.992 188.745 Q400.54 188.513 400.054 188.398 Q399.568 188.282 399.047 188.282 Q398.254 188.282 397.855 188.525 Q397.461 188.768 397.461 189.254 Q397.461 189.625 397.745 189.839 Q398.029 190.047 398.885 190.238 L399.25 190.319 Q400.384 190.562 400.858 191.008 Q401.339 191.447 401.339 192.24 Q401.339 193.143 400.621 193.67 Q399.909 194.196 398.659 194.196 Q398.139 194.196 397.571 194.092 Q397.01 193.994 396.385 193.791 L396.385 192.692 Q396.975 192.998 397.548 193.155 Q398.121 193.305 398.683 193.305 Q399.435 193.305 399.84 193.05 Q400.245 192.79 400.245 192.321 Q400.245 191.887 399.95 191.656 Q399.661 191.424 398.671 191.21 L398.301 191.123 Q397.311 190.915 396.871 190.487 Q396.431 190.053 396.431 189.3 Q396.431 188.386 397.08 187.888 Q397.728 187.391 398.92 187.391 Q399.51 187.391 400.031 187.478 Q400.552 187.564 400.992 187.738 Z" fill="#000000" fill-rule="evenodd" fill-opacity="1" /><path clip-path="url(#clip780)" d="M 0 0 M405.152 194.63 Q404.701 195.788 404.273 196.141 Q403.845 196.494 403.127 196.494 L402.276 196.494 L402.276 195.603 L402.901 195.603 Q403.341 195.603 403.584 195.394 Q403.827 195.186 404.122 194.41 L404.313 193.924 L401.692 187.547 L402.82 187.547 L404.846 192.616 L406.871 187.547 L408 187.547 L405.152 194.63 Z" fill="#000000" fill-rule="evenodd" fill-opacity="1" /><path clip-path="url(#clip780)" d="M 0 0 M417.149 188.531 L417.149 185.024 L418.214 185.024 L418.214 194.028 L417.149 194.028 L417.149 193.056 Q416.813 193.635 416.298 193.919 Q415.789 194.196 415.071 194.196 Q413.897 194.196 413.156 193.259 Q412.421 192.321 412.421 190.794 Q412.421 189.266 413.156 188.328 Q413.897 187.391 415.071 187.391 Q415.789 187.391 416.298 187.674 Q416.813 187.952 417.149 188.531 M413.52 190.794 Q413.52 191.968 414.001 192.64 Q414.487 193.305 415.332 193.305 Q416.177 193.305 416.663 192.64 Q417.149 191.968 417.149 190.794 Q417.149 189.619 416.663 188.953 Q416.177 188.282 415.332 188.282 Q414.487 188.282 414.001 188.953 Q413.52 189.619 413.52 190.794 Z" fill="#000000" fill-rule="evenodd" fill-opacity="1" /><path clip-path="url(#clip780)" d="M 0 0 M422.276 190.77 Q420.986 190.77 420.488 191.066 Q419.99 191.361 419.99 192.072 Q419.99 192.64 420.361 192.975 Q420.737 193.305 421.379 193.305 Q422.265 193.305 422.797 192.68 Q423.335 192.049 423.335 191.008 L423.335 190.77 L422.276 190.77 M424.4 190.331 L424.4 194.028 L423.335 194.028 L423.335 193.045 Q422.971 193.635 422.427 193.919 Q421.883 194.196 421.096 194.196 Q420.1 194.196 419.51 193.641 Q418.925 193.079 418.925 192.142 Q418.925 191.048 419.655 190.493 Q420.39 189.937 421.842 189.937 L423.335 189.937 L423.335 189.833 Q423.335 189.098 422.849 188.699 Q422.369 188.294 421.495 188.294 Q420.939 188.294 420.413 188.427 Q419.886 188.56 419.4 188.826 L419.4 187.842 Q419.984 187.616 420.534 187.507 Q421.084 187.391 421.605 187.391 Q423.011 187.391 423.706 188.12 Q424.4 188.849 424.4 190.331 Z" fill="#000000" fill-rule="evenodd" fill-opacity="1" /><path clip-path="url(#clip780)" d="M 0 0 M426.57 185.707 L426.57 187.547 L428.763 187.547 L428.763 188.375 L426.57 188.375 L426.57 191.893 Q426.57 192.686 426.784 192.912 Q427.004 193.137 427.67 193.137 L428.763 193.137 L428.763 194.028 L427.67 194.028 Q426.437 194.028 425.968 193.571 Q425.499 193.108 425.499 191.893 L425.499 188.375 L424.718 188.375 L424.718 187.547 L425.499 187.547 L425.499 185.707 L426.57 185.707 Z" fill="#000000" fill-rule="evenodd" fill-opacity="1" /><path clip-path="url(#clip780)" d="M 0 0 M432.826 190.77 Q431.535 190.77 431.038 191.066 Q430.54 191.361 430.54 192.072 Q430.54 192.64 430.91 192.975 Q431.287 193.305 431.929 193.305 Q432.814 193.305 433.347 192.68 Q433.885 192.049 433.885 191.008 L433.885 190.77 L432.826 190.77 M434.95 190.331 L434.95 194.028 L433.885 194.028 L433.885 193.045 Q433.52 193.635 432.976 193.919 Q432.432 194.196 431.645 194.196 Q430.65 194.196 430.06 193.641 Q429.475 193.079 429.475 192.142 Q429.475 191.048 430.204 190.493 Q430.939 189.937 432.392 189.937 L433.885 189.937 L433.885 189.833 Q433.885 189.098 433.399 188.699 Q432.918 188.294 432.045 188.294 Q431.489 188.294 430.962 188.427 Q430.436 188.56 429.95 188.826 L429.95 187.842 Q430.534 187.616 431.084 187.507 Q431.634 187.391 432.155 187.391 Q433.561 187.391 434.255 188.12 Q434.95 188.849 434.95 190.331 Z" fill="#000000" fill-rule="evenodd" fill-opacity="1" /><polyline clip-path="url(#clip780)" style="stroke:#e26f46; stroke-width:1; stroke-opacity:1; fill:none" stroke-dasharray="8, 5" points="
  349.043,204.828 376.889,204.828 
  "/>
<path clip-path="url(#clip780)" d="M 0 0 M384.504 203.414 Q383.648 203.414 383.15 204.085 Q382.653 204.75 382.653 205.914 Q382.653 207.077 383.144 207.748 Q383.642 208.414 384.504 208.414 Q385.355 208.414 385.853 207.742 Q386.35 207.071 386.35 205.914 Q386.35 204.762 385.853 204.091 Q385.355 203.414 384.504 203.414 M384.504 202.511 Q385.893 202.511 386.686 203.414 Q387.479 204.316 387.479 205.914 Q387.479 207.505 386.686 208.414 Q385.893 209.316 384.504 209.316 Q383.11 209.316 382.317 208.414 Q381.53 207.505 381.53 205.914 Q381.53 204.316 382.317 203.414 Q383.11 202.511 384.504 202.511 Z" fill="#000000" fill-rule="evenodd" fill-opacity="1" /><path clip-path="url(#clip780)" d="M 0 0 M392.352 203.662 Q392.172 203.558 391.958 203.512 Q391.75 203.46 391.495 203.46 Q390.592 203.46 390.106 204.05 Q389.626 204.635 389.626 205.734 L389.626 209.148 L388.555 209.148 L388.555 202.667 L389.626 202.667 L389.626 203.674 Q389.961 203.084 390.5 202.8 Q391.038 202.511 391.808 202.511 Q391.918 202.511 392.051 202.528 Q392.184 202.54 392.346 202.569 L392.352 203.662 Z" fill="#000000" fill-rule="evenodd" fill-opacity="1" /><path clip-path="url(#clip780)" d="M 0 0 M393.468 202.667 L394.533 202.667 L394.533 209.148 L393.468 209.148 L393.468 202.667 M393.468 200.144 L394.533 200.144 L394.533 201.492 L393.468 201.492 L393.468 200.144 Z" fill="#000000" fill-rule="evenodd" fill-opacity="1" /><path clip-path="url(#clip780)" d="M 0 0 M399.915 205.833 Q399.915 204.675 399.435 204.039 Q398.96 203.402 398.098 203.402 Q397.242 203.402 396.761 204.039 Q396.287 204.675 396.287 205.833 Q396.287 206.984 396.761 207.621 Q397.242 208.257 398.098 208.257 Q398.96 208.257 399.435 207.621 Q399.915 206.984 399.915 205.833 M400.98 208.344 Q400.98 209.999 400.245 210.804 Q399.51 211.614 397.994 211.614 Q397.433 211.614 396.935 211.527 Q396.437 211.446 395.968 211.272 L395.968 210.236 Q396.437 210.491 396.894 210.613 Q397.352 210.734 397.826 210.734 Q398.873 210.734 399.394 210.184 Q399.915 209.64 399.915 208.535 L399.915 208.008 Q399.585 208.581 399.07 208.865 Q398.555 209.148 397.838 209.148 Q396.645 209.148 395.916 208.24 Q395.187 207.331 395.187 205.833 Q395.187 204.328 395.916 203.419 Q396.645 202.511 397.838 202.511 Q398.555 202.511 399.07 202.794 Q399.585 203.078 399.915 203.651 L399.915 202.667 L400.98 202.667 L400.98 208.344 Z" fill="#000000" fill-rule="evenodd" fill-opacity="1" /><path clip-path="url(#clip780)" d="M 0 0 M402.097 202.667 L403.162 202.667 L403.162 209.148 L402.097 209.148 L402.097 202.667 M402.097 200.144 L403.162 200.144 L403.162 201.492 L402.097 201.492 L402.097 200.144 Z" fill="#000000" fill-rule="evenodd" fill-opacity="1" /><path clip-path="url(#clip780)" d="M 0 0 M409.666 205.236 L409.666 209.148 L408.601 209.148 L408.601 205.271 Q408.601 204.351 408.243 203.894 Q407.884 203.437 407.166 203.437 Q406.304 203.437 405.806 203.986 Q405.309 204.536 405.309 205.485 L405.309 209.148 L404.238 209.148 L404.238 202.667 L405.309 202.667 L405.309 203.674 Q405.691 203.089 406.206 202.8 Q406.726 202.511 407.404 202.511 Q408.52 202.511 409.093 203.205 Q409.666 203.894 409.666 205.236 Z" fill="#000000" fill-rule="evenodd" fill-opacity="1" /><path clip-path="url(#clip780)" d="M 0 0 M413.729 205.89 Q412.438 205.89 411.941 206.186 Q411.443 206.481 411.443 207.192 Q411.443 207.76 411.813 208.095 Q412.189 208.425 412.832 208.425 Q413.717 208.425 414.25 207.8 Q414.788 207.169 414.788 206.128 L414.788 205.89 L413.729 205.89 M415.853 205.451 L415.853 209.148 L414.788 209.148 L414.788 208.165 Q414.423 208.755 413.879 209.039 Q413.335 209.316 412.548 209.316 Q411.553 209.316 410.963 208.761 Q410.378 208.199 410.378 207.262 Q410.378 206.168 411.107 205.613 Q411.842 205.057 413.295 205.057 L414.788 205.057 L414.788 204.953 Q414.788 204.218 414.302 203.819 Q413.821 203.414 412.947 203.414 Q412.392 203.414 411.865 203.547 Q411.339 203.68 410.853 203.946 L410.853 202.962 Q411.437 202.736 411.987 202.627 Q412.537 202.511 413.057 202.511 Q414.464 202.511 415.158 203.24 Q415.853 203.969 415.853 205.451 Z" fill="#000000" fill-rule="evenodd" fill-opacity="1" /><path clip-path="url(#clip780)" d="M 0 0 M416.969 200.144 L418.034 200.144 L418.034 209.148 L416.969 209.148 L416.969 200.144 Z" fill="#000000" fill-rule="evenodd" fill-opacity="1" /><path clip-path="url(#clip780)" d="M 0 0 M427.184 203.651 L427.184 200.144 L428.248 200.144 L428.248 209.148 L427.184 209.148 L427.184 208.176 Q426.848 208.755 426.333 209.039 Q425.824 209.316 425.106 209.316 Q423.931 209.316 423.19 208.379 Q422.456 207.441 422.456 205.914 Q422.456 204.386 423.19 203.448 Q423.931 202.511 425.106 202.511 Q425.824 202.511 426.333 202.794 Q426.848 203.072 427.184 203.651 M423.555 205.914 Q423.555 207.088 424.035 207.76 Q424.521 208.425 425.366 208.425 Q426.211 208.425 426.697 207.76 Q427.184 207.088 427.184 205.914 Q427.184 204.739 426.697 204.073 Q426.211 203.402 425.366 203.402 Q424.521 203.402 424.035 204.073 Q423.555 204.739 423.555 205.914 Z" fill="#000000" fill-rule="evenodd" fill-opacity="1" /><path clip-path="url(#clip780)" d="M 0 0 M432.311 205.89 Q431.02 205.89 430.523 206.186 Q430.025 206.481 430.025 207.192 Q430.025 207.76 430.395 208.095 Q430.771 208.425 431.414 208.425 Q432.299 208.425 432.832 207.8 Q433.37 207.169 433.37 206.128 L433.37 205.89 L432.311 205.89 M434.435 205.451 L434.435 209.148 L433.37 209.148 L433.37 208.165 Q433.005 208.755 432.461 209.039 Q431.917 209.316 431.13 209.316 Q430.135 209.316 429.545 208.761 Q428.96 208.199 428.96 207.262 Q428.96 206.168 429.689 205.613 Q430.424 205.057 431.877 205.057 L433.37 205.057 L433.37 204.953 Q433.37 204.218 432.884 203.819 Q432.403 203.414 431.53 203.414 Q430.974 203.414 430.447 203.547 Q429.921 203.68 429.435 203.946 L429.435 202.962 Q430.019 202.736 430.569 202.627 Q431.119 202.511 431.64 202.511 Q433.046 202.511 433.74 203.24 Q434.435 203.969 434.435 205.451 Z" fill="#000000" fill-rule="evenodd" fill-opacity="1" /><path clip-path="url(#clip780)" d="M 0 0 M436.605 200.827 L436.605 202.667 L438.798 202.667 L438.798 203.495 L436.605 203.495 L436.605 207.013 Q436.605 207.806 436.819 208.032 Q437.039 208.257 437.704 208.257 L438.798 208.257 L438.798 209.148 L437.704 209.148 Q436.472 209.148 436.003 208.691 Q435.534 208.228 435.534 207.013 L435.534 203.495 L434.753 203.495 L434.753 202.667 L435.534 202.667 L435.534 200.827 L436.605 200.827 Z" fill="#000000" fill-rule="evenodd" fill-opacity="1" /><path clip-path="url(#clip780)" d="M 0 0 M442.861 205.89 Q441.57 205.89 441.072 206.186 Q440.575 206.481 440.575 207.192 Q440.575 207.76 440.945 208.095 Q441.321 208.425 441.964 208.425 Q442.849 208.425 443.381 207.8 Q443.92 207.169 443.92 206.128 L443.92 205.89 L442.861 205.89 M444.984 205.451 L444.984 209.148 L443.92 209.148 L443.92 208.165 Q443.555 208.755 443.011 209.039 Q442.467 209.316 441.68 209.316 Q440.685 209.316 440.094 208.761 Q439.51 208.199 439.51 207.262 Q439.51 206.168 440.239 205.613 Q440.974 205.057 442.426 205.057 L443.92 205.057 L443.92 204.953 Q443.92 204.218 443.433 203.819 Q442.953 203.414 442.079 203.414 Q441.524 203.414 440.997 203.547 Q440.47 203.68 439.984 203.946 L439.984 202.962 Q440.569 202.736 441.119 202.627 Q441.668 202.511 442.189 202.511 Q443.595 202.511 444.29 203.24 Q444.984 203.969 444.984 205.451 Z" fill="#000000" fill-rule="evenodd" fill-opacity="1" /><polyline clip-path="url(#clip780)" style="stroke:#3da44d; stroke-width:1; stroke-opacity:1; fill:none" points="
  349.043,219.948 376.889,219.948 
  "/>
<path clip-path="url(#clip780)" d="M 0 0 M386.958 220.356 L386.958 224.268 L385.893 224.268 L385.893 220.391 Q385.893 219.471 385.534 219.014 Q385.176 218.557 384.458 218.557 Q383.596 218.557 383.098 219.106 Q382.6 219.656 382.6 220.605 L382.6 224.268 L381.53 224.268 L381.53 217.787 L382.6 217.787 L382.6 218.794 Q382.982 218.209 383.497 217.92 Q384.018 217.631 384.695 217.631 Q385.812 217.631 386.385 218.325 Q386.958 219.014 386.958 220.356 Z" fill="#000000" fill-rule="evenodd" fill-opacity="1" /><path clip-path="url(#clip780)" d="M 0 0 M390.586 218.534 Q389.73 218.534 389.232 219.205 Q388.735 219.87 388.735 221.034 Q388.735 222.197 389.227 222.868 Q389.724 223.534 390.586 223.534 Q391.437 223.534 391.935 222.862 Q392.433 222.191 392.433 221.034 Q392.433 219.882 391.935 219.211 Q391.437 218.534 390.586 218.534 M390.586 217.631 Q391.975 217.631 392.768 218.534 Q393.561 219.436 393.561 221.034 Q393.561 222.625 392.768 223.534 Q391.975 224.436 390.586 224.436 Q389.192 224.436 388.399 223.534 Q387.612 222.625 387.612 221.034 Q387.612 219.436 388.399 218.534 Q389.192 217.631 390.586 217.631 Z" fill="#000000" fill-rule="evenodd" fill-opacity="1" /><path clip-path="url(#clip780)" d="M 0 0 M400.066 220.356 L400.066 224.268 L399.001 224.268 L399.001 220.391 Q399.001 219.471 398.642 219.014 Q398.283 218.557 397.566 218.557 Q396.703 218.557 396.206 219.106 Q395.708 219.656 395.708 220.605 L395.708 224.268 L394.637 224.268 L394.637 217.787 L395.708 217.787 L395.708 218.794 Q396.09 218.209 396.605 217.92 Q397.126 217.631 397.803 217.631 Q398.92 217.631 399.493 218.325 Q400.066 219.014 400.066 220.356 Z" fill="#000000" fill-rule="evenodd" fill-opacity="1" /><path clip-path="url(#clip780)" d="M 0 0 M401.182 215.264 L402.247 215.264 L402.247 224.268 L401.182 224.268 L401.182 215.264 Z" fill="#000000" fill-rule="evenodd" fill-opacity="1" /><path clip-path="url(#clip780)" d="M 0 0 M403.364 217.787 L404.429 217.787 L404.429 224.268 L403.364 224.268 L403.364 217.787 M403.364 215.264 L404.429 215.264 L404.429 216.612 L403.364 216.612 L403.364 215.264 Z" fill="#000000" fill-rule="evenodd" fill-opacity="1" /><path clip-path="url(#clip780)" d="M 0 0 M410.934 220.356 L410.934 224.268 L409.869 224.268 L409.869 220.391 Q409.869 219.471 409.51 219.014 Q409.151 218.557 408.434 218.557 Q407.571 218.557 407.074 219.106 Q406.576 219.656 406.576 220.605 L406.576 224.268 L405.505 224.268 L405.505 217.787 L406.576 217.787 L406.576 218.794 Q406.958 218.209 407.473 217.92 Q407.994 217.631 408.671 217.631 Q409.788 217.631 410.361 218.325 Q410.934 219.014 410.934 220.356 Z" fill="#000000" fill-rule="evenodd" fill-opacity="1" /><path clip-path="url(#clip780)" d="M 0 0 M417.594 220.762 L417.594 221.282 L412.699 221.282 Q412.768 222.382 413.358 222.961 Q413.954 223.534 415.013 223.534 Q415.627 223.534 416.2 223.383 Q416.778 223.233 417.346 222.932 L417.346 223.939 Q416.773 224.182 416.171 224.309 Q415.569 224.436 414.95 224.436 Q413.399 224.436 412.49 223.534 Q411.588 222.631 411.588 221.091 Q411.588 219.5 412.444 218.568 Q413.306 217.631 414.765 217.631 Q416.072 217.631 416.831 218.476 Q417.594 219.315 417.594 220.762 M416.53 220.449 Q416.518 219.575 416.038 219.054 Q415.563 218.534 414.776 218.534 Q413.885 218.534 413.347 219.037 Q412.814 219.54 412.733 220.455 L416.53 220.449 Z" fill="#000000" fill-rule="evenodd" fill-opacity="1" /><path clip-path="url(#clip780)" d="M 0 0 M421.657 221.01 Q420.366 221.01 419.869 221.306 Q419.371 221.601 419.371 222.312 Q419.371 222.88 419.741 223.215 Q420.118 223.545 420.76 223.545 Q421.645 223.545 422.178 222.92 Q422.716 222.289 422.716 221.248 L422.716 221.01 L421.657 221.01 M423.781 220.571 L423.781 224.268 L422.716 224.268 L422.716 223.285 Q422.351 223.875 421.807 224.159 Q421.263 224.436 420.476 224.436 Q419.481 224.436 418.891 223.881 Q418.306 223.319 418.306 222.382 Q418.306 221.288 419.035 220.733 Q419.77 220.177 421.223 220.177 L422.716 220.177 L422.716 220.073 Q422.716 219.338 422.23 218.939 Q421.75 218.534 420.876 218.534 Q420.32 218.534 419.794 218.667 Q419.267 218.8 418.781 219.066 L418.781 218.082 Q419.365 217.856 419.915 217.747 Q420.465 217.631 420.986 217.631 Q422.392 217.631 423.086 218.36 Q423.781 219.089 423.781 220.571 Z" fill="#000000" fill-rule="evenodd" fill-opacity="1" /><path clip-path="url(#clip780)" d="M 0 0 M428.653 218.782 Q428.474 218.678 428.26 218.632 Q428.052 218.58 427.797 218.58 Q426.894 218.58 426.408 219.17 Q425.928 219.755 425.928 220.854 L425.928 224.268 L424.857 224.268 L424.857 217.787 L425.928 217.787 L425.928 218.794 Q426.263 218.204 426.802 217.92 Q427.34 217.631 428.109 217.631 Q428.219 217.631 428.352 217.648 Q428.486 217.66 428.648 217.689 L428.653 218.782 Z" fill="#000000" fill-rule="evenodd" fill-opacity="1" /><path clip-path="url(#clip780)" d="M 0 0 M436.819 215.264 L436.819 216.149 L435.8 216.149 Q435.227 216.149 435.002 216.381 Q434.782 216.612 434.782 217.214 L434.782 217.787 L436.535 217.787 L436.535 218.615 L434.782 218.615 L434.782 224.268 L433.711 224.268 L433.711 218.615 L432.693 218.615 L432.693 217.787 L433.711 217.787 L433.711 217.336 Q433.711 216.253 434.215 215.762 Q434.718 215.264 435.812 215.264 L436.819 215.264 Z" fill="#000000" fill-rule="evenodd" fill-opacity="1" /><path clip-path="url(#clip780)" d="M 0 0 M437.936 217.787 L439.001 217.787 L439.001 224.268 L437.936 224.268 L437.936 217.787 M437.936 215.264 L439.001 215.264 L439.001 216.612 L437.936 216.612 L437.936 215.264 Z" fill="#000000" fill-rule="evenodd" fill-opacity="1" /><path clip-path="url(#clip780)" d="M 0 0 M441.171 215.947 L441.171 217.787 L443.364 217.787 L443.364 218.615 L441.171 218.615 L441.171 222.133 Q441.171 222.926 441.385 223.152 Q441.605 223.377 442.27 223.377 L443.364 223.377 L443.364 224.268 L442.27 224.268 Q441.038 224.268 440.569 223.811 Q440.1 223.348 440.1 222.133 L440.1 218.615 L439.319 218.615 L439.319 217.787 L440.1 217.787 L440.1 215.947 L441.171 215.947 Z" fill="#000000" fill-rule="evenodd" fill-opacity="1" /><polyline clip-path="url(#clip780)" style="stroke:#c271d2; stroke-width:1; stroke-opacity:1; fill:none" points="
  349.043,235.068 376.889,235.068 
  "/>
<path clip-path="url(#clip780)" d="M 0 0 M381.53 230.384 L382.595 230.384 L382.595 239.388 L381.53 239.388 L381.53 230.384 Z" fill="#000000" fill-rule="evenodd" fill-opacity="1" /><path clip-path="url(#clip780)" d="M 0 0 M383.712 232.907 L384.776 232.907 L384.776 239.388 L383.712 239.388 L383.712 232.907 M383.712 230.384 L384.776 230.384 L384.776 231.732 L383.712 231.732 L383.712 230.384 Z" fill="#000000" fill-rule="evenodd" fill-opacity="1" /><path clip-path="url(#clip780)" d="M 0 0 M391.281 235.476 L391.281 239.388 L390.216 239.388 L390.216 235.511 Q390.216 234.591 389.857 234.134 Q389.499 233.677 388.781 233.677 Q387.919 233.677 387.421 234.226 Q386.923 234.776 386.923 235.725 L386.923 239.388 L385.853 239.388 L385.853 232.907 L386.923 232.907 L386.923 233.914 Q387.305 233.329 387.82 233.04 Q388.341 232.751 389.018 232.751 Q390.135 232.751 390.708 233.445 Q391.281 234.134 391.281 235.476 Z" fill="#000000" fill-rule="evenodd" fill-opacity="1" /><path clip-path="url(#clip780)" d="M 0 0 M397.942 235.882 L397.942 236.402 L393.046 236.402 Q393.115 237.502 393.706 238.081 Q394.302 238.654 395.361 238.654 Q395.974 238.654 396.547 238.503 Q397.126 238.353 397.693 238.052 L397.693 239.059 Q397.12 239.302 396.518 239.429 Q395.916 239.556 395.297 239.556 Q393.746 239.556 392.838 238.654 Q391.935 237.751 391.935 236.211 Q391.935 234.62 392.791 233.688 Q393.654 232.751 395.112 232.751 Q396.42 232.751 397.178 233.596 Q397.942 234.435 397.942 235.882 M396.877 235.569 Q396.865 234.695 396.385 234.174 Q395.911 233.654 395.124 233.654 Q394.232 233.654 393.694 234.157 Q393.162 234.66 393.081 235.575 L396.877 235.569 Z" fill="#000000" fill-rule="evenodd" fill-opacity="1" /><path clip-path="url(#clip780)" d="M 0 0 M402.004 236.13 Q400.714 236.13 400.216 236.426 Q399.718 236.721 399.718 237.432 Q399.718 238 400.089 238.335 Q400.465 238.665 401.107 238.665 Q401.993 238.665 402.525 238.04 Q403.063 237.409 403.063 236.368 L403.063 236.13 L402.004 236.13 M404.128 235.691 L404.128 239.388 L403.063 239.388 L403.063 238.405 Q402.699 238.995 402.155 239.279 Q401.611 239.556 400.824 239.556 Q399.828 239.556 399.238 239.001 Q398.654 238.439 398.654 237.502 Q398.654 236.408 399.383 235.853 Q400.118 235.297 401.57 235.297 L403.063 235.297 L403.063 235.193 Q403.063 234.458 402.577 234.059 Q402.097 233.654 401.223 233.654 Q400.667 233.654 400.141 233.787 Q399.614 233.92 399.128 234.186 L399.128 233.202 Q399.713 232.976 400.262 232.867 Q400.812 232.751 401.333 232.751 Q402.739 232.751 403.434 233.48 Q404.128 234.209 404.128 235.691 Z" fill="#000000" fill-rule="evenodd" fill-opacity="1" /><path clip-path="url(#clip780)" d="M 0 0 M409.001 233.902 Q408.821 233.798 408.607 233.752 Q408.399 233.7 408.144 233.7 Q407.241 233.7 406.755 234.29 Q406.275 234.875 406.275 235.974 L406.275 239.388 L405.204 239.388 L405.204 232.907 L406.275 232.907 L406.275 233.914 Q406.611 233.324 407.149 233.04 Q407.687 232.751 408.457 232.751 Q408.567 232.751 408.7 232.768 Q408.833 232.78 408.995 232.809 L409.001 233.902 Z" fill="#000000" fill-rule="evenodd" fill-opacity="1" /><path clip-path="url(#clip780)" d="M 0 0 M410.118 232.907 L411.182 232.907 L411.182 239.388 L410.118 239.388 L410.118 232.907 M410.118 230.384 L411.182 230.384 L411.182 231.732 L410.118 231.732 L410.118 230.384 Z" fill="#000000" fill-rule="evenodd" fill-opacity="1" /><path clip-path="url(#clip780)" d="M 0 0 M411.836 232.907 L416.894 232.907 L416.894 233.879 L412.89 238.538 L416.894 238.538 L416.894 239.388 L411.692 239.388 L411.692 238.416 L415.696 233.758 L411.836 233.758 L411.836 232.907 Z" fill="#000000" fill-rule="evenodd" fill-opacity="1" /><path clip-path="url(#clip780)" d="M 0 0 M423.555 235.882 L423.555 236.402 L418.659 236.402 Q418.729 237.502 419.319 238.081 Q419.915 238.654 420.974 238.654 Q421.587 238.654 422.16 238.503 Q422.739 238.353 423.306 238.052 L423.306 239.059 Q422.733 239.302 422.131 239.429 Q421.53 239.556 420.91 239.556 Q419.359 239.556 418.451 238.654 Q417.548 237.751 417.548 236.211 Q417.548 234.62 418.405 233.688 Q419.267 232.751 420.725 232.751 Q422.033 232.751 422.791 233.596 Q423.555 234.435 423.555 235.882 M422.49 235.569 Q422.479 234.695 421.998 234.174 Q421.524 233.654 420.737 233.654 Q419.846 233.654 419.307 234.157 Q418.775 234.66 418.694 235.575 L422.49 235.569 Z" fill="#000000" fill-rule="evenodd" fill-opacity="1" /><path clip-path="url(#clip780)" d="M 0 0 M428.937 233.891 L428.937 230.384 L430.002 230.384 L430.002 239.388 L428.937 239.388 L428.937 238.416 Q428.601 238.995 428.086 239.279 Q427.577 239.556 426.859 239.556 Q425.685 239.556 424.944 238.619 Q424.209 237.681 424.209 236.154 Q424.209 234.626 424.944 233.688 Q425.685 232.751 426.859 232.751 Q427.577 232.751 428.086 233.034 Q428.601 233.312 428.937 233.891 M425.309 236.154 Q425.309 237.328 425.789 238 Q426.275 238.665 427.12 238.665 Q427.965 238.665 428.451 238 Q428.937 237.328 428.937 236.154 Q428.937 234.979 428.451 234.313 Q427.965 233.642 427.12 233.642 Q426.275 233.642 425.789 234.313 Q425.309 234.979 425.309 236.154 Z" fill="#000000" fill-rule="evenodd" fill-opacity="1" /><path clip-path="url(#clip780)" d="M 0 0 M438.167 230.384 L438.167 231.269 L437.149 231.269 Q436.576 231.269 436.35 231.501 Q436.13 231.732 436.13 232.334 L436.13 232.907 L437.884 232.907 L437.884 233.735 L436.13 233.735 L436.13 239.388 L435.06 239.388 L435.06 233.735 L434.041 233.735 L434.041 232.907 L435.06 232.907 L435.06 232.456 Q435.06 231.373 435.563 230.882 Q436.067 230.384 437.16 230.384 L438.167 230.384 Z" fill="#000000" fill-rule="evenodd" fill-opacity="1" /><path clip-path="url(#clip780)" d="M 0 0 M439.284 232.907 L440.349 232.907 L440.349 239.388 L439.284 239.388 L439.284 232.907 M439.284 230.384 L440.349 230.384 L440.349 231.732 L439.284 231.732 L439.284 230.384 Z" fill="#000000" fill-rule="evenodd" fill-opacity="1" /><path clip-path="url(#clip780)" d="M 0 0 M442.519 231.067 L442.519 232.907 L444.712 232.907 L444.712 233.735 L442.519 233.735 L442.519 237.253 Q442.519 238.046 442.733 238.272 Q442.953 238.497 443.619 238.497 L444.712 238.497 L444.712 239.388 L443.619 239.388 Q442.386 239.388 441.917 238.931 Q441.448 238.468 441.448 237.253 L441.448 233.735 L440.667 233.735 L440.667 232.907 L441.448 232.907 L441.448 231.067 L442.519 231.067 Z" fill="#000000" fill-rule="evenodd" fill-opacity="1" /></svg>
