<?xml version="1.0" encoding="utf-8"?>
<svg xmlns="http://www.w3.org/2000/svg" xmlns:xlink="http://www.w3.org/1999/xlink" width="120" height="75" viewBox="0 0 480 300">
<defs>
  <clipPath id="clip770">
    <rect x="0" y="0" width="480" height="300"/>
  </clipPath>
</defs>
<path clip-path="url(#clip770)" d="
M0 300 L480 300 L480 0 L0 0  Z
  " fill="#ffffff" fill-rule="evenodd" fill-opacity="1"/>
<defs>
  <clipPath id="clip771">
    <rect x="96" y="0" width="337" height="300"/>
  </clipPath>
</defs>
<path clip-path="url(#clip770)" d="
M50.2568 258.408 L468.189 258.408 L468.189 27.537 L50.2568 27.537  Z
  " fill="#ffffff" fill-rule="evenodd" fill-opacity="1"/>
<defs>
  <clipPath id="clip772">
    <rect x="50" y="27" width="419" height="232"/>
  </clipPath>
</defs>
<polyline clip-path="url(#clip772)" style="stroke:#000000; stroke-width:0.5; stroke-opacity:0.1; fill:none" points="
  62.0851,258.408 62.0851,27.537 
  "/>
<polyline clip-path="url(#clip772)" style="stroke:#000000; stroke-width:0.5; stroke-opacity:0.1; fill:none" points="
  160.654,258.408 160.654,27.537 
  "/>
<polyline clip-path="url(#clip772)" style="stroke:#000000; stroke-width:0.5; stroke-opacity:0.1; fill:none" points="
  259.223,258.408 259.223,27.537 
  "/>
<polyline clip-path="url(#clip772)" style="stroke:#000000; stroke-width:0.5; stroke-opacity:0.1; fill:none" points="
  357.792,258.408 357.792,27.537 
  "/>
<polyline clip-path="url(#clip772)" style="stroke:#000000; stroke-width:0.5; stroke-opacity:0.1; fill:none" points="
  456.361,258.408 456.361,27.537 
  "/>
<polyline clip-path="url(#clip770)" style="stroke:#000000; stroke-width:1; stroke-opacity:1; fill:none" points="
  50.2568,258.408 468.189,258.408 
  "/>
<polyline clip-path="url(#clip770)" style="stroke:#000000; stroke-width:1; stroke-opacity:1; fill:none" points="
  62.0851,258.408 62.0851,255.638 
  "/>
<polyline clip-path="url(#clip770)" style="stroke:#000000; stroke-width:1; stroke-opacity:1; fill:none" points="
  160.654,258.408 160.654,255.638 
  "/>
<polyline clip-path="url(#clip770)" style="stroke:#000000; stroke-width:1; stroke-opacity:1; fill:none" points="
  259.223,258.408 259.223,255.638 
  "/>
<polyline clip-path="url(#clip770)" style="stroke:#000000; stroke-width:1; stroke-opacity:1; fill:none" points="
  357.792,258.408 357.792,255.638 
  "/>
<polyline clip-path="url(#clip770)" style="stroke:#000000; stroke-width:1; stroke-opacity:1; fill:none" points="
  456.361,258.408 456.361,255.638 
  "/>
<path clip-path="url(#clip770)" d="M 0 0 M50.5313 268.409 L57.9503 268.409 L57.9503 269.393 L50.5313 269.393 L50.5313 268.409 Z" fill="#000000" fill-rule="evenodd" fill-opacity="1" /><path clip-path="url(#clip770)" d="M 0 0 M59.4202 271.633 L61.3299 271.633 L61.3299 265.041 L59.2523 265.458 L59.2523 264.393 L61.3183 263.976 L62.4873 263.976 L62.4873 271.633 L64.397 271.633 L64.397 272.616 L59.4202 272.616 L59.4202 271.633 Z" fill="#000000" fill-rule="evenodd" fill-opacity="1" /><path clip-path="url(#clip770)" d="M 0 0 M65.6643 271.146 L66.8854 271.146 L66.8854 272.616 L65.6643 272.616 L65.6643 271.146 Z" fill="#000000" fill-rule="evenodd" fill-opacity="1" /><path clip-path="url(#clip770)" d="M 0 0 M70.6527 264.746 Q69.75 264.746 69.2928 265.637 Q68.8414 266.523 68.8414 268.305 Q68.8414 270.082 69.2928 270.973 Q69.75 271.858 70.6527 271.858 Q71.5613 271.858 72.0127 270.973 Q72.4699 270.082 72.4699 268.305 Q72.4699 266.523 72.0127 265.637 Q71.5613 264.746 70.6527 264.746 M70.6527 263.82 Q72.1053 263.82 72.8692 264.972 Q73.6388 266.118 73.6388 268.305 Q73.6388 270.487 72.8692 271.638 Q72.1053 272.784 70.6527 272.784 Q69.2002 272.784 68.4305 271.638 Q67.6667 270.487 67.6667 268.305 Q67.6667 266.118 68.4305 264.972 Q69.2002 263.82 70.6527 263.82 Z" fill="#000000" fill-rule="evenodd" fill-opacity="1" /><path clip-path="url(#clip770)" d="M 0 0 M149.071 268.409 L156.49 268.409 L156.49 269.393 L149.071 269.393 L149.071 268.409 Z" fill="#000000" fill-rule="evenodd" fill-opacity="1" /><path clip-path="url(#clip770)" d="M 0 0 M160.258 264.746 Q159.355 264.746 158.898 265.637 Q158.446 266.523 158.446 268.305 Q158.446 270.082 158.898 270.973 Q159.355 271.858 160.258 271.858 Q161.166 271.858 161.618 270.973 Q162.075 270.082 162.075 268.305 Q162.075 266.523 161.618 265.637 Q161.166 264.746 160.258 264.746 M160.258 263.82 Q161.71 263.82 162.474 264.972 Q163.244 266.118 163.244 268.305 Q163.244 270.487 162.474 271.638 Q161.71 272.784 160.258 272.784 Q158.805 272.784 158.035 271.638 Q157.271 270.487 157.271 268.305 Q157.271 266.118 158.035 264.972 Q158.805 263.82 160.258 263.82 Z" fill="#000000" fill-rule="evenodd" fill-opacity="1" /><path clip-path="url(#clip770)" d="M 0 0 M164.511 271.146 L165.732 271.146 L165.732 272.616 L164.511 272.616 L164.511 271.146 Z" fill="#000000" fill-rule="evenodd" fill-opacity="1" /><path clip-path="url(#clip770)" d="M 0 0 M167.011 263.976 L171.6 263.976 L171.6 264.96 L168.082 264.96 L168.082 267.078 Q168.336 266.991 168.591 266.951 Q168.845 266.905 169.1 266.905 Q170.547 266.905 171.392 267.697 Q172.237 268.49 172.237 269.844 Q172.237 271.239 171.369 272.015 Q170.501 272.784 168.921 272.784 Q168.377 272.784 167.81 272.692 Q167.248 272.599 166.646 272.414 L166.646 271.239 Q167.167 271.523 167.723 271.662 Q168.278 271.8 168.898 271.8 Q169.899 271.8 170.483 271.274 Q171.068 270.747 171.068 269.844 Q171.068 268.942 170.483 268.415 Q169.899 267.888 168.898 267.888 Q168.429 267.888 167.96 267.993 Q167.497 268.097 167.011 268.317 L167.011 263.976 Z" fill="#000000" fill-rule="evenodd" fill-opacity="1" /><path clip-path="url(#clip770)" d="M 0 0 M254.602 264.746 Q253.699 264.746 253.242 265.637 Q252.791 266.523 252.791 268.305 Q252.791 270.082 253.242 270.973 Q253.699 271.858 254.602 271.858 Q255.511 271.858 255.962 270.973 Q256.419 270.082 256.419 268.305 Q256.419 266.523 255.962 265.637 Q255.511 264.746 254.602 264.746 M254.602 263.82 Q256.055 263.82 256.818 264.972 Q257.588 266.118 257.588 268.305 Q257.588 270.487 256.818 271.638 Q256.055 272.784 254.602 272.784 Q253.149 272.784 252.38 271.638 Q251.616 270.487 251.616 268.305 Q251.616 266.118 252.38 264.972 Q253.149 263.82 254.602 263.82 Z" fill="#000000" fill-rule="evenodd" fill-opacity="1" /><path clip-path="url(#clip770)" d="M 0 0 M258.855 271.146 L260.076 271.146 L260.076 272.616 L258.855 272.616 L258.855 271.146 Z" fill="#000000" fill-rule="evenodd" fill-opacity="1" /><path clip-path="url(#clip770)" d="M 0 0 M263.844 264.746 Q262.941 264.746 262.484 265.637 Q262.032 266.523 262.032 268.305 Q262.032 270.082 262.484 270.973 Q262.941 271.858 263.844 271.858 Q264.752 271.858 265.204 270.973 Q265.661 270.082 265.661 268.305 Q265.661 266.523 265.204 265.637 Q264.752 264.746 263.844 264.746 M263.844 263.82 Q265.296 263.82 266.06 264.972 Q266.83 266.118 266.83 268.305 Q266.83 270.487 266.06 271.638 Q265.296 272.784 263.844 272.784 Q262.391 272.784 261.622 271.638 Q260.858 270.487 260.858 268.305 Q260.858 266.118 261.622 264.972 Q262.391 263.82 263.844 263.82 Z" fill="#000000" fill-rule="evenodd" fill-opacity="1" /><path clip-path="url(#clip770)" d="M 0 0 M353.295 264.746 Q352.393 264.746 351.935 265.637 Q351.484 266.523 351.484 268.305 Q351.484 270.082 351.935 270.973 Q352.393 271.858 353.295 271.858 Q354.204 271.858 354.655 270.973 Q355.112 270.082 355.112 268.305 Q355.112 266.523 354.655 265.637 Q354.204 264.746 353.295 264.746 M353.295 263.82 Q354.748 263.82 355.512 264.972 Q356.281 266.118 356.281 268.305 Q356.281 270.487 355.512 271.638 Q354.748 272.784 353.295 272.784 Q351.843 272.784 351.073 271.638 Q350.309 270.487 350.309 268.305 Q350.309 266.118 351.073 264.972 Q351.843 263.82 353.295 263.82 Z" fill="#000000" fill-rule="evenodd" fill-opacity="1" /><path clip-path="url(#clip770)" d="M 0 0 M357.549 271.146 L358.77 271.146 L358.77 272.616 L357.549 272.616 L357.549 271.146 Z" fill="#000000" fill-rule="evenodd" fill-opacity="1" /><path clip-path="url(#clip770)" d="M 0 0 M360.049 263.976 L364.638 263.976 L364.638 264.96 L361.119 264.96 L361.119 267.078 Q361.374 266.991 361.629 266.951 Q361.883 266.905 362.138 266.905 Q363.585 266.905 364.429 267.697 Q365.274 268.49 365.274 269.844 Q365.274 271.239 364.406 272.015 Q363.538 272.784 361.958 272.784 Q361.414 272.784 360.847 272.692 Q360.286 272.599 359.684 272.414 L359.684 271.239 Q360.205 271.523 360.761 271.662 Q361.316 271.8 361.935 271.8 Q362.936 271.8 363.521 271.274 Q364.105 270.747 364.105 269.844 Q364.105 268.942 363.521 268.415 Q362.936 267.888 361.935 267.888 Q361.467 267.888 360.998 267.993 Q360.535 268.097 360.049 268.317 L360.049 263.976 Z" fill="#000000" fill-rule="evenodd" fill-opacity="1" /><path clip-path="url(#clip770)" d="M 0 0 M449.335 271.633 L451.245 271.633 L451.245 265.041 L449.167 265.458 L449.167 264.393 L451.233 263.976 L452.402 263.976 L452.402 271.633 L454.312 271.633 L454.312 272.616 L449.335 272.616 L449.335 271.633 Z" fill="#000000" fill-rule="evenodd" fill-opacity="1" /><path clip-path="url(#clip770)" d="M 0 0 M455.579 271.146 L456.801 271.146 L456.801 272.616 L455.579 272.616 L455.579 271.146 Z" fill="#000000" fill-rule="evenodd" fill-opacity="1" /><path clip-path="url(#clip770)" d="M 0 0 M460.568 264.746 Q459.665 264.746 459.208 265.637 Q458.757 266.523 458.757 268.305 Q458.757 270.082 459.208 270.973 Q459.665 271.858 460.568 271.858 Q461.476 271.858 461.928 270.973 Q462.385 270.082 462.385 268.305 Q462.385 266.523 461.928 265.637 Q461.476 264.746 460.568 264.746 M460.568 263.82 Q462.02 263.82 462.784 264.972 Q463.554 266.118 463.554 268.305 Q463.554 270.487 462.784 271.638 Q462.02 272.784 460.568 272.784 Q459.115 272.784 458.346 271.638 Q457.582 270.487 457.582 268.305 Q457.582 266.118 458.346 264.972 Q459.115 263.82 460.568 263.82 Z" fill="#000000" fill-rule="evenodd" fill-opacity="1" /><g clip-path="url(#clip770)">
<text style="fill:#000000; fill-opacity:1; font-family:Arial,Helvetica Neue,Helvetica,sans-serif; font-size:16px; text-anchor:middle;" transform="rotate(0, 259.223, 293.459)" x="259.223" y="293.459">x</text>
</g>
<polyline clip-path="url(#clip772)" style="stroke:#000000; stroke-width:0.5; stroke-opacity:0.1; fill:none" points="
  50.2568,217.205 468.189,217.205 
  "/>
<polyline clip-path="url(#clip772)" style="stroke:#000000; stroke-width:0.5; stroke-opacity:0.1; fill:none" points="
  50.2568,175.927 468.189,175.927 
  "/>
<polyline clip-path="url(#clip772)" style="stroke:#000000; stroke-width:0.5; stroke-opacity:0.1; fill:none" points="
  50.2568,134.649 468.189,134.649 
  "/>
<polyline clip-path="url(#clip772)" style="stroke:#000000; stroke-width:0.5; stroke-opacity:0.1; fill:none" points="
  50.2568,93.3702 468.189,93.3702 
  "/>
<polyline clip-path="url(#clip772)" style="stroke:#000000; stroke-width:0.5; stroke-opacity:0.1; fill:none" points="
  50.2568,52.0918 468.189,52.0918 
  "/>
<polyline clip-path="url(#clip770)" style="stroke:#000000; stroke-width:1; stroke-opacity:1; fill:none" points="
  50.2568,258.408 50.2568,27.537 
  "/>
<polyline clip-path="url(#clip770)" style="stroke:#000000; stroke-width:1; stroke-opacity:1; fill:none" points="
  50.2568,217.205 55.272,217.205 
  "/>
<polyline clip-path="url(#clip770)" style="stroke:#000000; stroke-width:1; stroke-opacity:1; fill:none" points="
  50.2568,175.927 55.272,175.927 
  "/>
<polyline clip-path="url(#clip770)" style="stroke:#000000; stroke-width:1; stroke-opacity:1; fill:none" points="
  50.2568,134.649 55.272,134.649 
  "/>
<polyline clip-path="url(#clip770)" style="stroke:#000000; stroke-width:1; stroke-opacity:1; fill:none" points="
  50.2568,93.3702 55.272,93.3702 
  "/>
<polyline clip-path="url(#clip770)" style="stroke:#000000; stroke-width:1; stroke-opacity:1; fill:none" points="
  50.2568,52.0918 55.272,52.0918 
  "/>
<path clip-path="url(#clip770)" d="M 0 0 M31.0777 213.655 Q30.1749 213.655 29.7178 214.546 Q29.2664 215.432 29.2664 217.214 Q29.2664 218.991 29.7178 219.882 Q30.1749 220.767 31.0777 220.767 Q31.9863 220.767 32.4377 219.882 Q32.8948 218.991 32.8948 217.214 Q32.8948 215.432 32.4377 214.546 Q31.9863 213.655 31.0777 213.655 M31.0777 212.729 Q32.5303 212.729 33.2941 213.881 Q34.0638 215.027 34.0638 217.214 Q34.0638 219.396 33.2941 220.547 Q32.5303 221.693 31.0777 221.693 Q29.6252 221.693 28.8555 220.547 Q28.0916 219.396 28.0916 217.214 Q28.0916 215.027 28.8555 213.881 Q29.6252 212.729 31.0777 212.729 Z" fill="#000000" fill-rule="evenodd" fill-opacity="1" /><path clip-path="url(#clip770)" d="M 0 0 M35.3312 220.056 L36.5522 220.056 L36.5522 221.525 L35.3312 221.525 L35.3312 220.056 Z" fill="#000000" fill-rule="evenodd" fill-opacity="1" /><path clip-path="url(#clip770)" d="M 0 0 M37.8312 212.885 L42.4202 212.885 L42.4202 213.869 L38.9017 213.869 L38.9017 215.987 Q39.1564 215.9 39.411 215.86 Q39.6656 215.814 39.9203 215.814 Q41.367 215.814 42.2119 216.606 Q43.0568 217.399 43.0568 218.753 Q43.0568 220.148 42.1888 220.924 Q41.3207 221.693 39.7409 221.693 Q39.1969 221.693 38.6298 221.601 Q38.0684 221.508 37.4666 221.323 L37.4666 220.148 Q37.9874 220.432 38.543 220.571 Q39.0985 220.709 39.7177 220.709 Q40.7189 220.709 41.3034 220.183 Q41.8878 219.656 41.8878 218.753 Q41.8878 217.851 41.3034 217.324 Q40.7189 216.797 39.7177 216.797 Q39.249 216.797 38.7802 216.902 Q38.3173 217.006 37.8312 217.226 L37.8312 212.885 Z" fill="#000000" fill-rule="evenodd" fill-opacity="1" /><path clip-path="url(#clip770)" d="M 0 0 M28.8381 179.263 L30.7479 179.263 L30.7479 172.672 L28.6703 173.089 L28.6703 172.024 L30.7363 171.607 L31.9053 171.607 L31.9053 179.263 L33.815 179.263 L33.815 180.247 L28.8381 180.247 L28.8381 179.263 Z" fill="#000000" fill-rule="evenodd" fill-opacity="1" /><path clip-path="url(#clip770)" d="M 0 0 M35.0823 178.777 L36.3034 178.777 L36.3034 180.247 L35.0823 180.247 L35.0823 178.777 Z" fill="#000000" fill-rule="evenodd" fill-opacity="1" /><path clip-path="url(#clip770)" d="M 0 0 M40.0707 172.377 Q39.1679 172.377 38.7108 173.268 Q38.2594 174.153 38.2594 175.936 Q38.2594 177.712 38.7108 178.604 Q39.1679 179.489 40.0707 179.489 Q40.9793 179.489 41.4307 178.604 Q41.8878 177.712 41.8878 175.936 Q41.8878 174.153 41.4307 173.268 Q40.9793 172.377 40.0707 172.377 M40.0707 171.451 Q41.5233 171.451 42.2871 172.602 Q43.0568 173.748 43.0568 175.936 Q43.0568 178.117 42.2871 179.269 Q41.5233 180.415 40.0707 180.415 Q38.6182 180.415 37.8485 179.269 Q37.0846 178.117 37.0846 175.936 Q37.0846 173.748 37.8485 172.602 Q38.6182 171.451 40.0707 171.451 Z" fill="#000000" fill-rule="evenodd" fill-opacity="1" /><path clip-path="url(#clip770)" d="M 0 0 M29.087 137.985 L30.9967 137.985 L30.9967 131.393 L28.9192 131.81 L28.9192 130.745 L30.9851 130.329 L32.1541 130.329 L32.1541 137.985 L34.0638 137.985 L34.0638 138.969 L29.087 138.969 L29.087 137.985 Z" fill="#000000" fill-rule="evenodd" fill-opacity="1" /><path clip-path="url(#clip770)" d="M 0 0 M35.3312 137.499 L36.5522 137.499 L36.5522 138.969 L35.3312 138.969 L35.3312 137.499 Z" fill="#000000" fill-rule="evenodd" fill-opacity="1" /><path clip-path="url(#clip770)" d="M 0 0 M37.8312 130.329 L42.4202 130.329 L42.4202 131.312 L38.9017 131.312 L38.9017 133.43 Q39.1564 133.344 39.411 133.303 Q39.6656 133.257 39.9203 133.257 Q41.367 133.257 42.2119 134.05 Q43.0568 134.842 43.0568 136.197 Q43.0568 137.591 42.1888 138.367 Q41.3207 139.136 39.7409 139.136 Q39.1969 139.136 38.6298 139.044 Q38.0684 138.951 37.4666 138.766 L37.4666 137.591 Q37.9874 137.875 38.543 138.014 Q39.0985 138.153 39.7177 138.153 Q40.7189 138.153 41.3034 137.626 Q41.8878 137.099 41.8878 136.197 Q41.8878 135.294 41.3034 134.767 Q40.7189 134.241 39.7177 134.241 Q39.249 134.241 38.7802 134.345 Q38.3173 134.449 37.8312 134.669 L37.8312 130.329 Z" fill="#000000" fill-rule="evenodd" fill-opacity="1" /><path clip-path="url(#clip770)" d="M 0 0 M29.7351 96.7064 L33.815 96.7064 L33.815 97.6902 L28.3289 97.6902 L28.3289 96.7064 Q28.9944 96.0178 30.1402 94.8604 Q31.2918 93.6972 31.587 93.3615 Q32.1483 92.7307 32.3682 92.2967 Q32.5939 91.8569 32.5939 91.4344 Q32.5939 90.7458 32.1078 90.3118 Q31.6275 89.8777 30.852 89.8777 Q30.3023 89.8777 29.6888 90.0687 Q29.0812 90.2597 28.3868 90.6474 L28.3868 89.4669 Q29.0928 89.1833 29.7062 89.0386 Q30.3196 88.8939 30.8289 88.8939 Q32.1715 88.8939 32.9701 89.5652 Q33.7687 90.2365 33.7687 91.3592 Q33.7687 91.8916 33.5661 92.3719 Q33.3694 92.8465 32.8428 93.4946 Q32.6981 93.6624 31.9226 94.4668 Q31.1472 95.2654 29.7351 96.7064 Z" fill="#000000" fill-rule="evenodd" fill-opacity="1" /><path clip-path="url(#clip770)" d="M 0 0 M35.0823 96.2203 L36.3034 96.2203 L36.3034 97.6902 L35.0823 97.6902 L35.0823 96.2203 Z" fill="#000000" fill-rule="evenodd" fill-opacity="1" /><path clip-path="url(#clip770)" d="M 0 0 M40.0707 89.8199 Q39.1679 89.8199 38.7108 90.7111 Q38.2594 91.5965 38.2594 93.3789 Q38.2594 95.1555 38.7108 96.0467 Q39.1679 96.9321 40.0707 96.9321 Q40.9793 96.9321 41.4307 96.0467 Q41.8878 95.1555 41.8878 93.3789 Q41.8878 91.5965 41.4307 90.7111 Q40.9793 89.8199 40.0707 89.8199 M40.0707 88.8939 Q41.5233 88.8939 42.2871 90.0456 Q43.0568 91.1914 43.0568 93.3789 Q43.0568 95.5606 42.2871 96.7122 Q41.5233 97.858 40.0707 97.858 Q38.6182 97.858 37.8485 96.7122 Q37.0846 95.5606 37.0846 93.3789 Q37.0846 91.1914 37.8485 90.0456 Q38.6182 88.8939 40.0707 88.8939 Z" fill="#000000" fill-rule="evenodd" fill-opacity="1" /><path clip-path="url(#clip770)" d="M 0 0 M29.984 55.428 L34.0638 55.428 L34.0638 56.4118 L28.5777 56.4118 L28.5777 55.428 Q29.2432 54.7393 30.3891 53.5819 Q31.5407 52.4187 31.8358 52.0831 Q32.3972 51.4523 32.6171 51.0183 Q32.8428 50.5785 32.8428 50.156 Q32.8428 49.4674 32.3566 49.0333 Q31.8763 48.5993 31.1009 48.5993 Q30.5511 48.5993 29.9377 48.7903 Q29.33 48.9813 28.6356 49.369 L28.6356 48.1884 Q29.3416 47.9049 29.955 47.7602 Q30.5685 47.6155 31.0777 47.6155 Q32.4203 47.6155 33.2189 48.2868 Q34.0175 48.9581 34.0175 50.0808 Q34.0175 50.6132 33.815 51.0935 Q33.6182 51.5681 33.0916 52.2162 Q32.9469 52.384 32.1715 53.1884 Q31.396 53.987 29.984 55.428 Z" fill="#000000" fill-rule="evenodd" fill-opacity="1" /><path clip-path="url(#clip770)" d="M 0 0 M35.3312 54.9419 L36.5522 54.9419 L36.5522 56.4118 L35.3312 56.4118 L35.3312 54.9419 Z" fill="#000000" fill-rule="evenodd" fill-opacity="1" /><path clip-path="url(#clip770)" d="M 0 0 M37.8312 47.7718 L42.4202 47.7718 L42.4202 48.7556 L38.9017 48.7556 L38.9017 50.8736 Q39.1564 50.7868 39.411 50.7463 Q39.6656 50.7 39.9203 50.7 Q41.367 50.7 42.2119 51.4928 Q43.0568 52.2856 43.0568 53.6398 Q43.0568 55.0345 42.1888 55.8099 Q41.3207 56.5796 39.7409 56.5796 Q39.1969 56.5796 38.6298 56.487 Q38.0684 56.3944 37.4666 56.2092 L37.4666 55.0345 Q37.9874 55.318 38.543 55.4569 Q39.0985 55.5958 39.7177 55.5958 Q40.7189 55.5958 41.3034 55.0692 Q41.8878 54.5426 41.8878 53.6398 Q41.8878 52.737 41.3034 52.2104 Q40.7189 51.6838 39.7177 51.6838 Q39.249 51.6838 38.7802 51.788 Q38.3173 51.8921 37.8312 52.112 L37.8312 47.7718 Z" fill="#000000" fill-rule="evenodd" fill-opacity="1" /><g clip-path="url(#clip770)">
<text style="fill:#000000; fill-opacity:1; font-family:Arial,Helvetica Neue,Helvetica,sans-serif; font-size:16px; text-anchor:middle;" transform="rotate(-90, 18.0011, 142.973)" x="18.0011" y="142.973">value</text>
</g>
<g clip-path="url(#clip770)">
<text style="fill:#000000; fill-opacity:1; font-family:Arial,Helvetica Neue,Helvetica,sans-serif; font-size:18px; font-weight:bold; text-anchor:middle;" transform="rotate(0, 259.223, 15.6)" x="259.223" y="15.6">Least squares fit of exp(x)</text>
</g>
<polyline clip-path="url(#clip772)" style="stroke:#009af9; stroke-width:2; stroke-opacity:1; fill:none" points="
  62.0851,228.113 65.9355,227.514 101.538,221.384 122.934,217.131 141.024,213.156 160.674,208.405 178.791,203.585 198.213,197.901 220.716,190.576 240.714,183.326 
  258.25,176.333 277.369,167.967 296.602,158.691 317.867,147.325 338.099,135.31 359.136,121.439 376.845,108.559 398.466,91.1806 418.789,73.012 451.35,39.7034 
  456.361,34.0711 
  "/>
<polyline clip-path="url(#clip772)" style="stroke:#e26f46; stroke-width:2; stroke-opacity:1; fill:none" points="
  62.0851,251.874 65.9355,250.077 101.538,233.459 122.934,223.473 141.024,215.029 160.674,205.857 178.791,197.401 198.213,188.336 220.716,177.833 240.714,168.499 
  258.25,160.313 277.369,151.389 296.602,142.412 317.867,132.487 338.099,123.044 359.136,113.224 376.845,104.959 398.466,94.8672 418.789,85.381 451.35,70.1833 
  456.361,67.8444 
  "/>
<path clip-path="url(#clip770)" d="
M293.232 250.713 L454.258 250.713 L454.258 205.353 L293.232 205.353  Z
  " fill="#ffffff" fill-rule="evenodd" fill-opacity="1"/>
<polyline clip-path="url(#clip770)" style="stroke:#000000; stroke-width:1; stroke-opacity:1; fill:none" points="
  293.232,250.713 454.258,250.713 454.258,205.353 293.232,205.353 293.232,250.713 
  "/>
<polyline clip-path="url(#clip770)" style="stroke:#009af9; stroke-width:1; stroke-opacity:1; fill:none" points="
  297.876,220.473 325.738,220.473 
  "/>
<path clip-path="url(#clip770)" d="M 0 0 M334.508 215.788 L334.508 216.673 L333.49 216.673 Q332.917 216.673 332.691 216.905 Q332.471 217.136 332.471 217.738 L332.471 218.311 L334.225 218.311 L334.225 219.139 L332.471 219.139 L332.471 224.793 L331.401 224.793 L331.401 219.139 L330.382 219.139 L330.382 218.311 L331.401 218.311 L331.401 217.86 Q331.401 216.778 331.904 216.286 Q332.407 215.788 333.501 215.788 L334.508 215.788 Z" fill="#000000" fill-rule="evenodd" fill-opacity="1" /><path clip-path="url(#clip770)" d="M 0 0 M335.515 222.235 L335.515 218.311 L336.58 218.311 L336.58 222.194 Q336.58 223.114 336.939 223.577 Q337.297 224.035 338.015 224.035 Q338.877 224.035 339.375 223.485 Q339.878 222.935 339.878 221.986 L339.878 218.311 L340.943 218.311 L340.943 224.793 L339.878 224.793 L339.878 223.797 Q339.491 224.388 338.976 224.677 Q338.466 224.96 337.789 224.96 Q336.672 224.96 336.094 224.266 Q335.515 223.572 335.515 222.235 M338.194 218.155 L338.194 218.155 Z" fill="#000000" fill-rule="evenodd" fill-opacity="1" /><path clip-path="url(#clip770)" d="M 0 0 M347.448 220.881 L347.448 224.793 L346.383 224.793 L346.383 220.915 Q346.383 219.995 346.024 219.538 Q345.665 219.081 344.948 219.081 Q344.086 219.081 343.588 219.631 Q343.09 220.18 343.09 221.129 L343.09 224.793 L342.02 224.793 L342.02 218.311 L343.09 218.311 L343.09 219.318 Q343.472 218.734 343.987 218.444 Q344.508 218.155 345.185 218.155 Q346.302 218.155 346.875 218.849 Q347.448 219.538 347.448 220.881 Z" fill="#000000" fill-rule="evenodd" fill-opacity="1" /><path clip-path="url(#clip770)" d="M 0 0 M353.229 218.56 L353.229 219.555 Q352.778 219.307 352.321 219.185 Q351.869 219.058 351.406 219.058 Q350.37 219.058 349.797 219.717 Q349.225 220.371 349.225 221.558 Q349.225 222.744 349.797 223.404 Q350.37 224.058 351.406 224.058 Q351.869 224.058 352.321 223.936 Q352.778 223.809 353.229 223.56 L353.229 224.544 Q352.784 224.752 352.303 224.856 Q351.829 224.96 351.29 224.96 Q349.826 224.96 348.964 224.04 Q348.102 223.12 348.102 221.558 Q348.102 219.972 348.97 219.064 Q349.844 218.155 351.36 218.155 Q351.852 218.155 352.321 218.259 Q352.789 218.358 353.229 218.56 Z" fill="#000000" fill-rule="evenodd" fill-opacity="1" /><path clip-path="url(#clip770)" d="M 0 0 M355.399 216.471 L355.399 218.311 L357.593 218.311 L357.593 219.139 L355.399 219.139 L355.399 222.657 Q355.399 223.45 355.613 223.676 Q355.833 223.901 356.499 223.901 L357.593 223.901 L357.593 224.793 L356.499 224.793 Q355.266 224.793 354.797 224.335 Q354.329 223.873 354.329 222.657 L354.329 219.139 L353.547 219.139 L353.547 218.311 L354.329 218.311 L354.329 216.471 L355.399 216.471 Z" fill="#000000" fill-rule="evenodd" fill-opacity="1" /><path clip-path="url(#clip770)" d="M 0 0 M358.709 218.311 L359.774 218.311 L359.774 224.793 L358.709 224.793 L358.709 218.311 M358.709 215.788 L359.774 215.788 L359.774 217.136 L358.709 217.136 L358.709 215.788 Z" fill="#000000" fill-rule="evenodd" fill-opacity="1" /><path clip-path="url(#clip770)" d="M 0 0 M363.403 219.058 Q362.546 219.058 362.049 219.729 Q361.551 220.395 361.551 221.558 Q361.551 222.721 362.043 223.392 Q362.54 224.058 363.403 224.058 Q364.253 224.058 364.751 223.386 Q365.249 222.715 365.249 221.558 Q365.249 220.406 364.751 219.735 Q364.253 219.058 363.403 219.058 M363.403 218.155 Q364.792 218.155 365.584 219.058 Q366.377 219.961 366.377 221.558 Q366.377 223.149 365.584 224.058 Q364.792 224.96 363.403 224.96 Q362.008 224.96 361.215 224.058 Q360.428 223.149 360.428 221.558 Q360.428 219.961 361.215 219.058 Q362.008 218.155 363.403 218.155 Z" fill="#000000" fill-rule="evenodd" fill-opacity="1" /><path clip-path="url(#clip770)" d="M 0 0 M372.882 220.881 L372.882 224.793 L371.817 224.793 L371.817 220.915 Q371.817 219.995 371.458 219.538 Q371.099 219.081 370.382 219.081 Q369.52 219.081 369.022 219.631 Q368.524 220.18 368.524 221.129 L368.524 224.793 L367.454 224.793 L367.454 218.311 L368.524 218.311 L368.524 219.318 Q368.906 218.734 369.421 218.444 Q369.942 218.155 370.619 218.155 Q371.736 218.155 372.309 218.849 Q372.882 219.538 372.882 220.881 Z" fill="#000000" fill-rule="evenodd" fill-opacity="1" /><polyline clip-path="url(#clip770)" style="stroke:#e26f46; stroke-width:1; stroke-opacity:1; fill:none" points="
  297.876,235.593 325.738,235.593 
  "/>
<path clip-path="url(#clip770)" d="M 0 0 M330.382 230.908 L331.447 230.908 L331.447 239.913 L330.382 239.913 L330.382 230.908 Z" fill="#000000" fill-rule="evenodd" fill-opacity="1" /><path clip-path="url(#clip770)" d="M 0 0 M332.564 233.431 L333.629 233.431 L333.629 239.913 L332.564 239.913 L332.564 233.431 M332.564 230.908 L333.629 230.908 L333.629 232.256 L332.564 232.256 L332.564 230.908 Z" fill="#000000" fill-rule="evenodd" fill-opacity="1" /><path clip-path="url(#clip770)" d="M 0 0 M340.133 236.001 L340.133 239.913 L339.068 239.913 L339.068 236.035 Q339.068 235.115 338.71 234.658 Q338.351 234.201 337.633 234.201 Q336.771 234.201 336.273 234.751 Q335.776 235.3 335.776 236.249 L335.776 239.913 L334.705 239.913 L334.705 233.431 L335.776 233.431 L335.776 234.438 Q336.157 233.854 336.672 233.564 Q337.193 233.275 337.87 233.275 Q338.987 233.275 339.56 233.969 Q340.133 234.658 340.133 236.001 Z" fill="#000000" fill-rule="evenodd" fill-opacity="1" /><path clip-path="url(#clip770)" d="M 0 0 M346.794 236.406 L346.794 236.927 L341.898 236.927 Q341.968 238.026 342.558 238.605 Q343.154 239.178 344.213 239.178 Q344.826 239.178 345.399 239.027 Q345.978 238.877 346.545 238.576 L346.545 239.583 Q345.972 239.826 345.37 239.953 Q344.769 240.08 344.149 240.08 Q342.598 240.08 341.69 239.178 Q340.787 238.275 340.787 236.736 Q340.787 235.144 341.644 234.212 Q342.506 233.275 343.964 233.275 Q345.272 233.275 346.03 234.12 Q346.794 234.959 346.794 236.406 M345.729 236.093 Q345.718 235.219 345.237 234.699 Q344.763 234.178 343.976 234.178 Q343.084 234.178 342.546 234.681 Q342.014 235.185 341.933 236.099 L345.729 236.093 Z" fill="#000000" fill-rule="evenodd" fill-opacity="1" /><path clip-path="url(#clip770)" d="M 0 0 M350.856 236.655 Q349.566 236.655 349.068 236.95 Q348.571 237.245 348.571 237.957 Q348.571 238.524 348.941 238.859 Q349.317 239.189 349.959 239.189 Q350.845 239.189 351.377 238.564 Q351.915 237.934 351.915 236.892 L351.915 236.655 L350.856 236.655 M352.98 236.215 L352.98 239.913 L351.915 239.913 L351.915 238.929 Q351.551 239.519 351.007 239.803 Q350.463 240.08 349.676 240.08 Q348.681 240.08 348.09 239.525 Q347.506 238.964 347.506 238.026 Q347.506 236.932 348.235 236.377 Q348.97 235.821 350.422 235.821 L351.915 235.821 L351.915 235.717 Q351.915 234.982 351.429 234.583 Q350.949 234.178 350.075 234.178 Q349.52 234.178 348.993 234.311 Q348.466 234.444 347.98 234.71 L347.98 233.726 Q348.565 233.501 349.115 233.391 Q349.664 233.275 350.185 233.275 Q351.591 233.275 352.286 234.004 Q352.98 234.733 352.98 236.215 Z" fill="#000000" fill-rule="evenodd" fill-opacity="1" /><path clip-path="url(#clip770)" d="M 0 0 M357.853 234.427 Q357.674 234.322 357.459 234.276 Q357.251 234.224 356.996 234.224 Q356.094 234.224 355.608 234.814 Q355.127 235.399 355.127 236.498 L355.127 239.913 L354.057 239.913 L354.057 233.431 L355.127 233.431 L355.127 234.438 Q355.463 233.848 356.001 233.564 Q356.539 233.275 357.309 233.275 Q357.419 233.275 357.552 233.292 Q357.685 233.304 357.847 233.333 L357.853 234.427 Z" fill="#000000" fill-rule="evenodd" fill-opacity="1" /><path clip-path="url(#clip770)" d="M 0 0 M366.018 230.908 L366.018 231.793 L365 231.793 Q364.427 231.793 364.201 232.025 Q363.981 232.256 363.981 232.858 L363.981 233.431 L365.735 233.431 L365.735 234.259 L363.981 234.259 L363.981 239.913 L362.911 239.913 L362.911 234.259 L361.892 234.259 L361.892 233.431 L362.911 233.431 L362.911 232.98 Q362.911 231.898 363.414 231.406 Q363.918 230.908 365.011 230.908 L366.018 230.908 Z" fill="#000000" fill-rule="evenodd" fill-opacity="1" /><path clip-path="url(#clip770)" d="M 0 0 M367.135 233.431 L368.2 233.431 L368.2 239.913 L367.135 239.913 L367.135 233.431 M367.135 230.908 L368.2 230.908 L368.2 232.256 L367.135 232.256 L367.135 230.908 Z" fill="#000000" fill-rule="evenodd" fill-opacity="1" /><path clip-path="url(#clip770)" d="M 0 0 M370.37 231.591 L370.37 233.431 L372.564 233.431 L372.564 234.259 L370.37 234.259 L370.37 237.777 Q370.37 238.57 370.584 238.796 Q370.804 239.021 371.47 239.021 L372.564 239.021 L372.564 239.913 L371.47 239.913 Q370.237 239.913 369.768 239.455 Q369.3 238.993 369.3 237.777 L369.3 234.259 L368.518 234.259 L368.518 233.431 L369.3 233.431 L369.3 231.591 L370.37 231.591 Z" fill="#000000" fill-rule="evenodd" fill-opacity="1" /><path clip-path="url(#clip770)" d="M 0 0 M380.729 230.908 L380.729 231.793 L379.71 231.793 Q379.138 231.793 378.912 232.025 Q378.692 232.256 378.692 232.858 L378.692 233.431 L380.445 233.431 L380.445 234.259 L378.692 234.259 L378.692 239.913 L377.621 239.913 L377.621 234.259 L376.603 234.259 L376.603 233.431 L377.621 233.431 L377.621 232.98 Q377.621 231.898 378.125 231.406 Q378.628 230.908 379.722 230.908 L380.729 230.908 Z" fill="#000000" fill-rule="evenodd" fill-opacity="1" /><path clip-path="url(#clip770)" d="M 0 0 M384.357 234.178 Q383.501 234.178 383.003 234.849 Q382.506 235.515 382.506 236.678 Q382.506 237.841 382.997 238.512 Q383.495 239.178 384.357 239.178 Q385.208 239.178 385.706 238.506 Q386.203 237.835 386.203 236.678 Q386.203 235.526 385.706 234.855 Q385.208 234.178 384.357 234.178 M384.357 233.275 Q385.746 233.275 386.539 234.178 Q387.332 235.081 387.332 236.678 Q387.332 238.269 386.539 239.178 Q385.746 240.08 384.357 240.08 Q382.963 240.08 382.17 239.178 Q381.383 238.269 381.383 236.678 Q381.383 235.081 382.17 234.178 Q382.963 233.275 384.357 233.275 Z" fill="#000000" fill-rule="evenodd" fill-opacity="1" /><path clip-path="url(#clip770)" d="M 0 0 M392.205 234.427 Q392.025 234.322 391.811 234.276 Q391.603 234.224 391.348 234.224 Q390.445 234.224 389.959 234.814 Q389.479 235.399 389.479 236.498 L389.479 239.913 L388.408 239.913 L388.408 233.431 L389.479 233.431 L389.479 234.438 Q389.815 233.848 390.353 233.564 Q390.891 233.275 391.661 233.275 Q391.771 233.275 391.904 233.292 Q392.037 233.304 392.199 233.333 L392.205 234.427 Z" fill="#000000" fill-rule="evenodd" fill-opacity="1" /><path clip-path="url(#clip770)" d="M 0 0 M398.246 238.929 L402.326 238.929 L402.326 239.913 L396.84 239.913 L396.84 238.929 Q397.505 238.24 398.651 237.083 Q399.803 235.92 400.098 235.584 Q400.659 234.953 400.879 234.519 Q401.105 234.079 401.105 233.657 Q401.105 232.968 400.619 232.534 Q400.139 232.1 399.363 232.1 Q398.813 232.1 398.2 232.291 Q397.592 232.482 396.898 232.87 L396.898 231.689 Q397.604 231.406 398.217 231.261 Q398.831 231.116 399.34 231.116 Q400.683 231.116 401.481 231.788 Q402.28 232.459 402.28 233.582 Q402.28 234.114 402.077 234.594 Q401.88 235.069 401.354 235.717 Q401.209 235.885 400.434 236.689 Q399.658 237.488 398.246 238.929 Z" fill="#000000" fill-rule="evenodd" fill-opacity="1" /><path clip-path="url(#clip770)" d="M 0 0 M406.093 232.042 Q405.191 232.042 404.733 232.934 Q404.282 233.819 404.282 235.601 Q404.282 237.378 404.733 238.269 Q405.191 239.155 406.093 239.155 Q407.002 239.155 407.453 238.269 Q407.911 237.378 407.911 235.601 Q407.911 233.819 407.453 232.934 Q407.002 232.042 406.093 232.042 M406.093 231.116 Q407.546 231.116 408.31 232.268 Q409.08 233.414 409.08 235.601 Q409.08 237.783 408.31 238.935 Q407.546 240.08 406.093 240.08 Q404.641 240.08 403.871 238.935 Q403.107 237.783 403.107 235.601 Q403.107 233.414 403.871 232.268 Q404.641 231.116 406.093 231.116 Z" fill="#000000" fill-rule="evenodd" fill-opacity="1" /><path clip-path="url(#clip770)" d="M 0 0 M414.994 238.94 L414.994 242.378 L413.923 242.378 L413.923 233.431 L414.994 233.431 L414.994 234.415 Q415.329 233.836 415.839 233.559 Q416.354 233.275 417.066 233.275 Q418.246 233.275 418.981 234.212 Q419.722 235.15 419.722 236.678 Q419.722 238.206 418.981 239.143 Q418.246 240.08 417.066 240.08 Q416.354 240.08 415.839 239.803 Q415.329 239.519 414.994 238.94 M418.616 236.678 Q418.616 235.503 418.13 234.837 Q417.65 234.166 416.805 234.166 Q415.96 234.166 415.474 234.837 Q414.994 235.503 414.994 236.678 Q414.994 237.852 415.474 238.524 Q415.96 239.189 416.805 239.189 Q417.65 239.189 418.13 238.524 Q418.616 237.852 418.616 236.678 Z" fill="#000000" fill-rule="evenodd" fill-opacity="1" /><path clip-path="url(#clip770)" d="M 0 0 M423.35 234.178 Q422.494 234.178 421.996 234.849 Q421.498 235.515 421.498 236.678 Q421.498 237.841 421.99 238.512 Q422.488 239.178 423.35 239.178 Q424.201 239.178 424.699 238.506 Q425.196 237.835 425.196 236.678 Q425.196 235.526 424.699 234.855 Q424.201 234.178 423.35 234.178 M423.35 233.275 Q424.739 233.275 425.532 234.178 Q426.325 235.081 426.325 236.678 Q426.325 238.269 425.532 239.178 Q424.739 240.08 423.35 240.08 Q421.956 240.08 421.163 239.178 Q420.376 238.269 420.376 236.678 Q420.376 235.081 421.163 234.178 Q421.956 233.275 423.35 233.275 Z" fill="#000000" fill-rule="evenodd" fill-opacity="1" /><path clip-path="url(#clip770)" d="M 0 0 M427.442 233.431 L428.506 233.431 L428.506 239.913 L427.442 239.913 L427.442 233.431 M427.442 230.908 L428.506 230.908 L428.506 232.256 L427.442 232.256 L427.442 230.908 Z" fill="#000000" fill-rule="evenodd" fill-opacity="1" /><path clip-path="url(#clip770)" d="M 0 0 M435.011 236.001 L435.011 239.913 L433.946 239.913 L433.946 236.035 Q433.946 235.115 433.587 234.658 Q433.229 234.201 432.511 234.201 Q431.649 234.201 431.151 234.751 Q430.653 235.3 430.653 236.249 L430.653 239.913 L429.583 239.913 L429.583 233.431 L430.653 233.431 L430.653 234.438 Q431.035 233.854 431.55 233.564 Q432.071 233.275 432.748 233.275 Q433.865 233.275 434.438 233.969 Q435.011 234.658 435.011 236.001 Z" fill="#000000" fill-rule="evenodd" fill-opacity="1" /><path clip-path="url(#clip770)" d="M 0 0 M437.181 231.591 L437.181 233.431 L439.374 233.431 L439.374 234.259 L437.181 234.259 L437.181 237.777 Q437.181 238.57 437.395 238.796 Q437.615 239.021 438.281 239.021 L439.374 239.021 L439.374 239.913 L438.281 239.913 Q437.048 239.913 436.579 239.455 Q436.111 238.993 436.111 237.777 L436.111 234.259 L435.329 234.259 L435.329 233.431 L436.111 233.431 L436.111 231.591 L437.181 231.591 Z" fill="#000000" fill-rule="evenodd" fill-opacity="1" /><path clip-path="url(#clip770)" d="M 0 0 M444.623 233.622 L444.623 234.629 Q444.172 234.398 443.686 234.282 Q443.2 234.166 442.679 234.166 Q441.886 234.166 441.487 234.409 Q441.093 234.652 441.093 235.138 Q441.093 235.509 441.377 235.723 Q441.66 235.931 442.517 236.122 L442.881 236.203 Q444.016 236.446 444.49 236.892 Q444.971 237.332 444.971 238.124 Q444.971 239.027 444.253 239.554 Q443.541 240.08 442.291 240.08 Q441.77 240.08 441.203 239.976 Q440.642 239.878 440.017 239.675 L440.017 238.576 Q440.607 238.883 441.18 239.039 Q441.753 239.189 442.314 239.189 Q443.067 239.189 443.472 238.935 Q443.877 238.674 443.877 238.206 Q443.877 237.771 443.582 237.54 Q443.292 237.309 442.303 237.094 L441.932 237.008 Q440.943 236.799 440.503 236.371 Q440.063 235.937 440.063 235.185 Q440.063 234.27 440.711 233.773 Q441.359 233.275 442.552 233.275 Q443.142 233.275 443.663 233.362 Q444.183 233.449 444.623 233.622 Z" fill="#000000" fill-rule="evenodd" fill-opacity="1" /></svg>
