<?xml version="1.0" encoding="utf-8"?>
<svg xmlns="http://www.w3.org/2000/svg" xmlns:xlink="http://www.w3.org/1999/xlink" width="120" height="75" viewBox="0 0 480 300">
<defs>
  <clipPath id="clip810">
    <rect x="0" y="0" width="480" height="300"/>
  </clipPath>
</defs>
<path clip-path="url(#clip810)" d="
M0 300 L480 300 L480 0 L0 0  Z
  " fill="#ffffff" fill-rule="evenodd" fill-opacity="1"/>
<defs>
  <clipPath id="clip811">
    <rect x="96" y="0" width="337" height="300"/>
  </clipPath>
</defs>
<path clip-path="url(#clip810)" d="
M50.5057 258.408 L468.189 258.408 L468.189 27.537 L50.5057 27.537  Z
  " fill="#ffffff" fill-rule="evenodd" fill-opacity="1"/>
<defs>
  <clipPath id="clip812">
    <rect x="50" y="27" width="419" height="232"/>
  </clipPath>
</defs>
<polyline clip-path="url(#clip812)" style="stroke:#000000; stroke-width:0.5; stroke-opacity:0.1; fill:none" points="
  62.3269,258.408 62.3269,27.537 
  "/>
<polyline clip-path="url(#clip812)" style="stroke:#000000; stroke-width:0.5; stroke-opacity:0.1; fill:none" points="
  160.837,258.408 160.837,27.537 
  "/>
<polyline clip-path="url(#clip812)" style="stroke:#000000; stroke-width:0.5; stroke-opacity:0.1; fill:none" points="
  259.347,258.408 259.347,27.537 
  "/>
<polyline clip-path="url(#clip812)" style="stroke:#000000; stroke-width:0.5; stroke-opacity:0.1; fill:none" points="
  357.858,258.408 357.858,27.537 
  "/>
<polyline clip-path="url(#clip812)" style="stroke:#000000; stroke-width:0.5; stroke-opacity:0.1; fill:none" points="
  456.368,258.408 456.368,27.537 
  "/>
<polyline clip-path="url(#clip810)" style="stroke:#000000; stroke-width:1; stroke-opacity:1; fill:none" points="
  50.5057,258.408 468.189,258.408 
  "/>
<polyline clip-path="url(#clip810)" style="stroke:#000000; stroke-width:1; stroke-opacity:1; fill:none" points="
  62.3269,258.408 62.3269,255.638 
  "/>
<polyline clip-path="url(#clip810)" style="stroke:#000000; stroke-width:1; stroke-opacity:1; fill:none" points="
  160.837,258.408 160.837,255.638 
  "/>
<polyline clip-path="url(#clip810)" style="stroke:#000000; stroke-width:1; stroke-opacity:1; fill:none" points="
  259.347,258.408 259.347,255.638 
  "/>
<polyline clip-path="url(#clip810)" style="stroke:#000000; stroke-width:1; stroke-opacity:1; fill:none" points="
  357.858,258.408 357.858,255.638 
  "/>
<polyline clip-path="url(#clip810)" style="stroke:#000000; stroke-width:1; stroke-opacity:1; fill:none" points="
  456.368,258.408 456.368,255.638 
  "/>
<path clip-path="url(#clip810)" d="M 0 0 M50.7731 268.409 L58.1921 268.409 L58.1921 269.393 L50.7731 269.393 L50.7731 268.409 Z" fill="#000000" fill-rule="evenodd" fill-opacity="1" /><path clip-path="url(#clip810)" d="M 0 0 M59.662 271.633 L61.5717 271.633 L61.5717 265.041 L59.4941 265.458 L59.4941 264.393 L61.5601 263.976 L62.7291 263.976 L62.7291 271.633 L64.6388 271.633 L64.6388 272.616 L59.662 272.616 L59.662 271.633 Z" fill="#000000" fill-rule="evenodd" fill-opacity="1" /><path clip-path="url(#clip810)" d="M 0 0 M65.9061 271.146 L67.1272 271.146 L67.1272 272.616 L65.9061 272.616 L65.9061 271.146 Z" fill="#000000" fill-rule="evenodd" fill-opacity="1" /><path clip-path="url(#clip810)" d="M 0 0 M70.8945 264.746 Q69.9918 264.746 69.5346 265.637 Q69.0832 266.523 69.0832 268.305 Q69.0832 270.082 69.5346 270.973 Q69.9918 271.858 70.8945 271.858 Q71.8031 271.858 72.2545 270.973 Q72.7117 270.082 72.7117 268.305 Q72.7117 266.523 72.2545 265.637 Q71.8031 264.746 70.8945 264.746 M70.8945 263.82 Q72.3471 263.82 73.111 264.972 Q73.8806 266.118 73.8806 268.305 Q73.8806 270.487 73.111 271.638 Q72.3471 272.784 70.8945 272.784 Q69.442 272.784 68.6723 271.638 Q67.9085 270.487 67.9085 268.305 Q67.9085 266.118 68.6723 264.972 Q69.442 263.82 70.8945 263.82 Z" fill="#000000" fill-rule="evenodd" fill-opacity="1" /><path clip-path="url(#clip810)" d="M 0 0 M149.254 268.409 L156.673 268.409 L156.673 269.393 L149.254 269.393 L149.254 268.409 Z" fill="#000000" fill-rule="evenodd" fill-opacity="1" /><path clip-path="url(#clip810)" d="M 0 0 M160.441 264.746 Q159.538 264.746 159.081 265.637 Q158.629 266.523 158.629 268.305 Q158.629 270.082 159.081 270.973 Q159.538 271.858 160.441 271.858 Q161.349 271.858 161.801 270.973 Q162.258 270.082 162.258 268.305 Q162.258 266.523 161.801 265.637 Q161.349 264.746 160.441 264.746 M160.441 263.82 Q161.893 263.82 162.657 264.972 Q163.427 266.118 163.427 268.305 Q163.427 270.487 162.657 271.638 Q161.893 272.784 160.441 272.784 Q158.988 272.784 158.218 271.638 Q157.455 270.487 157.455 268.305 Q157.455 266.118 158.218 264.972 Q158.988 263.82 160.441 263.82 Z" fill="#000000" fill-rule="evenodd" fill-opacity="1" /><path clip-path="url(#clip810)" d="M 0 0 M164.694 271.146 L165.915 271.146 L165.915 272.616 L164.694 272.616 L164.694 271.146 Z" fill="#000000" fill-rule="evenodd" fill-opacity="1" /><path clip-path="url(#clip810)" d="M 0 0 M167.194 263.976 L171.783 263.976 L171.783 264.96 L168.265 264.96 L168.265 267.078 Q168.519 266.991 168.774 266.951 Q169.029 266.905 169.283 266.905 Q170.73 266.905 171.575 267.697 Q172.42 268.49 172.42 269.844 Q172.42 271.239 171.552 272.015 Q170.684 272.784 169.104 272.784 Q168.56 272.784 167.993 272.692 Q167.431 272.599 166.83 272.414 L166.83 271.239 Q167.35 271.523 167.906 271.662 Q168.461 271.8 169.081 271.8 Q170.082 271.8 170.666 271.274 Q171.251 270.747 171.251 269.844 Q171.251 268.942 170.666 268.415 Q170.082 267.888 169.081 267.888 Q168.612 267.888 168.143 267.993 Q167.68 268.097 167.194 268.317 L167.194 263.976 Z" fill="#000000" fill-rule="evenodd" fill-opacity="1" /><path clip-path="url(#clip810)" d="M 0 0 M254.726 264.746 Q253.824 264.746 253.366 265.637 Q252.915 266.523 252.915 268.305 Q252.915 270.082 253.366 270.973 Q253.824 271.858 254.726 271.858 Q255.635 271.858 256.086 270.973 Q256.544 270.082 256.544 268.305 Q256.544 266.523 256.086 265.637 Q255.635 264.746 254.726 264.746 M254.726 263.82 Q256.179 263.82 256.943 264.972 Q257.712 266.118 257.712 268.305 Q257.712 270.487 256.943 271.638 Q256.179 272.784 254.726 272.784 Q253.274 272.784 252.504 271.638 Q251.74 270.487 251.74 268.305 Q251.74 266.118 252.504 264.972 Q253.274 263.82 254.726 263.82 Z" fill="#000000" fill-rule="evenodd" fill-opacity="1" /><path clip-path="url(#clip810)" d="M 0 0 M258.98 271.146 L260.201 271.146 L260.201 272.616 L258.98 272.616 L258.98 271.146 Z" fill="#000000" fill-rule="evenodd" fill-opacity="1" /><path clip-path="url(#clip810)" d="M 0 0 M263.968 264.746 Q263.065 264.746 262.608 265.637 Q262.157 266.523 262.157 268.305 Q262.157 270.082 262.608 270.973 Q263.065 271.858 263.968 271.858 Q264.877 271.858 265.328 270.973 Q265.785 270.082 265.785 268.305 Q265.785 266.523 265.328 265.637 Q264.877 264.746 263.968 264.746 M263.968 263.82 Q265.421 263.82 266.185 264.972 Q266.954 266.118 266.954 268.305 Q266.954 270.487 266.185 271.638 Q265.421 272.784 263.968 272.784 Q262.516 272.784 261.746 271.638 Q260.982 270.487 260.982 268.305 Q260.982 266.118 261.746 264.972 Q262.516 263.82 263.968 263.82 Z" fill="#000000" fill-rule="evenodd" fill-opacity="1" /><path clip-path="url(#clip810)" d="M 0 0 M353.361 264.746 Q352.458 264.746 352.001 265.637 Q351.55 266.523 351.55 268.305 Q351.55 270.082 352.001 270.973 Q352.458 271.858 353.361 271.858 Q354.27 271.858 354.721 270.973 Q355.178 270.082 355.178 268.305 Q355.178 266.523 354.721 265.637 Q354.27 264.746 353.361 264.746 M353.361 263.82 Q354.814 263.82 355.577 264.972 Q356.347 266.118 356.347 268.305 Q356.347 270.487 355.577 271.638 Q354.814 272.784 353.361 272.784 Q351.908 272.784 351.139 271.638 Q350.375 270.487 350.375 268.305 Q350.375 266.118 351.139 264.972 Q351.908 263.82 353.361 263.82 Z" fill="#000000" fill-rule="evenodd" fill-opacity="1" /><path clip-path="url(#clip810)" d="M 0 0 M357.614 271.146 L358.836 271.146 L358.836 272.616 L357.614 272.616 L357.614 271.146 Z" fill="#000000" fill-rule="evenodd" fill-opacity="1" /><path clip-path="url(#clip810)" d="M 0 0 M360.114 263.976 L364.704 263.976 L364.704 264.96 L361.185 264.96 L361.185 267.078 Q361.44 266.991 361.694 266.951 Q361.949 266.905 362.204 266.905 Q363.65 266.905 364.495 267.697 Q365.34 268.49 365.34 269.844 Q365.34 271.239 364.472 272.015 Q363.604 272.784 362.024 272.784 Q361.48 272.784 360.913 272.692 Q360.352 272.599 359.75 272.414 L359.75 271.239 Q360.271 271.523 360.826 271.662 Q361.382 271.8 362.001 271.8 Q363.002 271.8 363.587 271.274 Q364.171 270.747 364.171 269.844 Q364.171 268.942 363.587 268.415 Q363.002 267.888 362.001 267.888 Q361.532 267.888 361.064 267.993 Q360.601 268.097 360.114 268.317 L360.114 263.976 Z" fill="#000000" fill-rule="evenodd" fill-opacity="1" /><path clip-path="url(#clip810)" d="M 0 0 M449.342 271.633 L451.252 271.633 L451.252 265.041 L449.175 265.458 L449.175 264.393 L451.24 263.976 L452.409 263.976 L452.409 271.633 L454.319 271.633 L454.319 272.616 L449.342 272.616 L449.342 271.633 Z" fill="#000000" fill-rule="evenodd" fill-opacity="1" /><path clip-path="url(#clip810)" d="M 0 0 M455.587 271.146 L456.808 271.146 L456.808 272.616 L455.587 272.616 L455.587 271.146 Z" fill="#000000" fill-rule="evenodd" fill-opacity="1" /><path clip-path="url(#clip810)" d="M 0 0 M460.575 264.746 Q459.672 264.746 459.215 265.637 Q458.764 266.523 458.764 268.305 Q458.764 270.082 459.215 270.973 Q459.672 271.858 460.575 271.858 Q461.483 271.858 461.935 270.973 Q462.392 270.082 462.392 268.305 Q462.392 266.523 461.935 265.637 Q461.483 264.746 460.575 264.746 M460.575 263.82 Q462.027 263.82 462.791 264.972 Q463.561 266.118 463.561 268.305 Q463.561 270.487 462.791 271.638 Q462.027 272.784 460.575 272.784 Q459.122 272.784 458.353 271.638 Q457.589 270.487 457.589 268.305 Q457.589 266.118 458.353 264.972 Q459.122 263.82 460.575 263.82 Z" fill="#000000" fill-rule="evenodd" fill-opacity="1" /><g clip-path="url(#clip810)">
<text style="fill:#000000; fill-opacity:1; font-family:Arial,Helvetica Neue,Helvetica,sans-serif; font-size:16px; text-anchor:middle;" transform="rotate(0, 259.347, 293.459)" x="259.347" y="293.459">x</text>
</g>
<polyline clip-path="url(#clip812)" style="stroke:#000000; stroke-width:0.5; stroke-opacity:0.1; fill:none" points="
  50.5057,257.829 468.189,257.829 
  "/>
<polyline clip-path="url(#clip812)" style="stroke:#000000; stroke-width:0.5; stroke-opacity:0.1; fill:none" points="
  50.5057,216.671 468.189,216.671 
  "/>
<polyline clip-path="url(#clip812)" style="stroke:#000000; stroke-width:0.5; stroke-opacity:0.1; fill:none" points="
  50.5057,175.513 468.189,175.513 
  "/>
<polyline clip-path="url(#clip812)" style="stroke:#000000; stroke-width:0.5; stroke-opacity:0.1; fill:none" points="
  50.5057,134.355 468.189,134.355 
  "/>
<polyline clip-path="url(#clip812)" style="stroke:#000000; stroke-width:0.5; stroke-opacity:0.1; fill:none" points="
  50.5057,93.1971 468.189,93.1971 
  "/>
<polyline clip-path="url(#clip812)" style="stroke:#000000; stroke-width:0.5; stroke-opacity:0.1; fill:none" points="
  50.5057,52.0392 468.189,52.0392 
  "/>
<polyline clip-path="url(#clip810)" style="stroke:#000000; stroke-width:1; stroke-opacity:1; fill:none" points="
  50.5057,258.408 50.5057,27.537 
  "/>
<polyline clip-path="url(#clip810)" style="stroke:#000000; stroke-width:1; stroke-opacity:1; fill:none" points="
  50.5057,257.829 55.5179,257.829 
  "/>
<polyline clip-path="url(#clip810)" style="stroke:#000000; stroke-width:1; stroke-opacity:1; fill:none" points="
  50.5057,216.671 55.5179,216.671 
  "/>
<polyline clip-path="url(#clip810)" style="stroke:#000000; stroke-width:1; stroke-opacity:1; fill:none" points="
  50.5057,175.513 55.5179,175.513 
  "/>
<polyline clip-path="url(#clip810)" style="stroke:#000000; stroke-width:1; stroke-opacity:1; fill:none" points="
  50.5057,134.355 55.5179,134.355 
  "/>
<polyline clip-path="url(#clip810)" style="stroke:#000000; stroke-width:1; stroke-opacity:1; fill:none" points="
  50.5057,93.1971 55.5179,93.1971 
  "/>
<polyline clip-path="url(#clip810)" style="stroke:#000000; stroke-width:1; stroke-opacity:1; fill:none" points="
  50.5057,52.0392 55.5179,52.0392 
  "/>
<path clip-path="url(#clip810)" d="M 0 0 M31.0777 254.278 Q30.1749 254.278 29.7178 255.17 Q29.2664 256.055 29.2664 257.837 Q29.2664 259.614 29.7178 260.505 Q30.1749 261.391 31.0777 261.391 Q31.9863 261.391 32.4377 260.505 Q32.8948 259.614 32.8948 257.837 Q32.8948 256.055 32.4377 255.17 Q31.9863 254.278 31.0777 254.278 M31.0777 253.352 Q32.5303 253.352 33.2941 254.504 Q34.0638 255.65 34.0638 257.837 Q34.0638 260.019 33.2941 261.171 Q32.5303 262.317 31.0777 262.317 Q29.6252 262.317 28.8555 261.171 Q28.0916 260.019 28.0916 257.837 Q28.0916 255.65 28.8555 254.504 Q29.6252 253.352 31.0777 253.352 Z" fill="#000000" fill-rule="evenodd" fill-opacity="1" /><path clip-path="url(#clip810)" d="M 0 0 M35.3312 260.679 L36.5522 260.679 L36.5522 262.149 L35.3312 262.149 L35.3312 260.679 Z" fill="#000000" fill-rule="evenodd" fill-opacity="1" /><path clip-path="url(#clip810)" d="M 0 0 M40.3196 254.278 Q39.4168 254.278 38.9596 255.17 Q38.5082 256.055 38.5082 257.837 Q38.5082 259.614 38.9596 260.505 Q39.4168 261.391 40.3196 261.391 Q41.2281 261.391 41.6795 260.505 Q42.1367 259.614 42.1367 257.837 Q42.1367 256.055 41.6795 255.17 Q41.2281 254.278 40.3196 254.278 M40.3196 253.352 Q41.7721 253.352 42.536 254.504 Q43.3057 255.65 43.3057 257.837 Q43.3057 260.019 42.536 261.171 Q41.7721 262.317 40.3196 262.317 Q38.867 262.317 38.0974 261.171 Q37.3335 260.019 37.3335 257.837 Q37.3335 255.65 38.0974 254.504 Q38.867 253.352 40.3196 253.352 Z" fill="#000000" fill-rule="evenodd" fill-opacity="1" /><path clip-path="url(#clip810)" d="M 0 0 M31.3266 213.12 Q30.4238 213.12 29.9666 214.012 Q29.5152 214.897 29.5152 216.68 Q29.5152 218.456 29.9666 219.347 Q30.4238 220.233 31.3266 220.233 Q32.2351 220.233 32.6865 219.347 Q33.1437 218.456 33.1437 216.68 Q33.1437 214.897 32.6865 214.012 Q32.2351 213.12 31.3266 213.12 M31.3266 212.195 Q32.7791 212.195 33.543 213.346 Q34.3127 214.492 34.3127 216.68 Q34.3127 218.861 33.543 220.013 Q32.7791 221.159 31.3266 221.159 Q29.874 221.159 29.1043 220.013 Q28.3405 218.861 28.3405 216.68 Q28.3405 214.492 29.1043 213.346 Q29.874 212.195 31.3266 212.195 Z" fill="#000000" fill-rule="evenodd" fill-opacity="1" /><path clip-path="url(#clip810)" d="M 0 0 M35.58 219.521 L36.8011 219.521 L36.8011 220.991 L35.58 220.991 L35.58 219.521 Z" fill="#000000" fill-rule="evenodd" fill-opacity="1" /><path clip-path="url(#clip810)" d="M 0 0 M38.08 212.351 L42.6691 212.351 L42.6691 213.335 L39.1506 213.335 L39.1506 215.453 Q39.4052 215.366 39.6598 215.325 Q39.9145 215.279 40.1691 215.279 Q41.6159 215.279 42.4608 216.072 Q43.3057 216.865 43.3057 218.219 Q43.3057 219.614 42.4376 220.389 Q41.5696 221.159 39.9897 221.159 Q39.4457 221.159 38.8786 221.066 Q38.3173 220.973 37.7154 220.788 L37.7154 219.614 Q38.2362 219.897 38.7918 220.036 Q39.3473 220.175 39.9666 220.175 Q40.9677 220.175 41.5522 219.648 Q42.1367 219.122 42.1367 218.219 Q42.1367 217.316 41.5522 216.789 Q40.9677 216.263 39.9666 216.263 Q39.4978 216.263 39.0291 216.367 Q38.5661 216.471 38.08 216.691 L38.08 212.351 Z" fill="#000000" fill-rule="evenodd" fill-opacity="1" /><path clip-path="url(#clip810)" d="M 0 0 M29.087 178.849 L30.9967 178.849 L30.9967 172.258 L28.9192 172.674 L28.9192 171.61 L30.9851 171.193 L32.1541 171.193 L32.1541 178.849 L34.0638 178.849 L34.0638 179.833 L29.087 179.833 L29.087 178.849 Z" fill="#000000" fill-rule="evenodd" fill-opacity="1" /><path clip-path="url(#clip810)" d="M 0 0 M35.3312 178.363 L36.5522 178.363 L36.5522 179.833 L35.3312 179.833 L35.3312 178.363 Z" fill="#000000" fill-rule="evenodd" fill-opacity="1" /><path clip-path="url(#clip810)" d="M 0 0 M40.3196 171.963 Q39.4168 171.963 38.9596 172.854 Q38.5082 173.739 38.5082 175.522 Q38.5082 177.298 38.9596 178.189 Q39.4168 179.075 40.3196 179.075 Q41.2281 179.075 41.6795 178.189 Q42.1367 177.298 42.1367 175.522 Q42.1367 173.739 41.6795 172.854 Q41.2281 171.963 40.3196 171.963 M40.3196 171.037 Q41.7721 171.037 42.536 172.188 Q43.3057 173.334 43.3057 175.522 Q43.3057 177.703 42.536 178.855 Q41.7721 180.001 40.3196 180.001 Q38.867 180.001 38.0974 178.855 Q37.3335 177.703 37.3335 175.522 Q37.3335 173.334 38.0974 172.188 Q38.867 171.037 40.3196 171.037 Z" fill="#000000" fill-rule="evenodd" fill-opacity="1" /><path clip-path="url(#clip810)" d="M 0 0 M29.3358 137.691 L31.2455 137.691 L31.2455 131.1 L29.168 131.516 L29.168 130.452 L31.234 130.035 L32.4029 130.035 L32.4029 137.691 L34.3127 137.691 L34.3127 138.675 L29.3358 138.675 L29.3358 137.691 Z" fill="#000000" fill-rule="evenodd" fill-opacity="1" /><path clip-path="url(#clip810)" d="M 0 0 M35.58 137.205 L36.8011 137.205 L36.8011 138.675 L35.58 138.675 L35.58 137.205 Z" fill="#000000" fill-rule="evenodd" fill-opacity="1" /><path clip-path="url(#clip810)" d="M 0 0 M38.08 130.035 L42.6691 130.035 L42.6691 131.019 L39.1506 131.019 L39.1506 133.137 Q39.4052 133.05 39.6598 133.01 Q39.9145 132.963 40.1691 132.963 Q41.6159 132.963 42.4608 133.756 Q43.3057 134.549 43.3057 135.903 Q43.3057 137.298 42.4376 138.073 Q41.5696 138.843 39.9897 138.843 Q39.4457 138.843 38.8786 138.75 Q38.3173 138.658 37.7154 138.472 L37.7154 137.298 Q38.2362 137.581 38.7918 137.72 Q39.3473 137.859 39.9666 137.859 Q40.9677 137.859 41.5522 137.332 Q42.1367 136.806 42.1367 135.903 Q42.1367 135 41.5522 134.474 Q40.9677 133.947 39.9666 133.947 Q39.4978 133.947 39.0291 134.051 Q38.5661 134.155 38.08 134.375 L38.08 130.035 Z" fill="#000000" fill-rule="evenodd" fill-opacity="1" /><path clip-path="url(#clip810)" d="M 0 0 M29.984 96.5333 L34.0638 96.5333 L34.0638 97.5171 L28.5777 97.5171 L28.5777 96.5333 Q29.2432 95.8446 30.3891 94.6872 Q31.5407 93.5241 31.8358 93.1884 Q32.3972 92.5576 32.6171 92.1236 Q32.8428 91.6838 32.8428 91.2613 Q32.8428 90.5727 32.3566 90.1387 Q31.8763 89.7046 31.1009 89.7046 Q30.5511 89.7046 29.9377 89.8956 Q29.33 90.0866 28.6356 90.4743 L28.6356 89.2937 Q29.3416 89.0102 29.955 88.8655 Q30.5685 88.7208 31.0777 88.7208 Q32.4203 88.7208 33.2189 89.3921 Q34.0175 90.0634 34.0175 91.1861 Q34.0175 91.7185 33.815 92.1988 Q33.6182 92.6734 33.0916 93.3215 Q32.9469 93.4893 32.1715 94.2937 Q31.396 95.0923 29.984 96.5333 Z" fill="#000000" fill-rule="evenodd" fill-opacity="1" /><path clip-path="url(#clip810)" d="M 0 0 M35.3312 96.0472 L36.5522 96.0472 L36.5522 97.5171 L35.3312 97.5171 L35.3312 96.0472 Z" fill="#000000" fill-rule="evenodd" fill-opacity="1" /><path clip-path="url(#clip810)" d="M 0 0 M40.3196 89.6468 Q39.4168 89.6468 38.9596 90.538 Q38.5082 91.4234 38.5082 93.2058 Q38.5082 94.9824 38.9596 95.8736 Q39.4168 96.759 40.3196 96.759 Q41.2281 96.759 41.6795 95.8736 Q42.1367 94.9824 42.1367 93.2058 Q42.1367 91.4234 41.6795 90.538 Q41.2281 89.6468 40.3196 89.6468 M40.3196 88.7208 Q41.7721 88.7208 42.536 89.8724 Q43.3057 91.0183 43.3057 93.2058 Q43.3057 95.3875 42.536 96.5391 Q41.7721 97.6849 40.3196 97.6849 Q38.867 97.6849 38.0974 96.5391 Q37.3335 95.3875 37.3335 93.2058 Q37.3335 91.0183 38.0974 89.8724 Q38.867 88.7208 40.3196 88.7208 Z" fill="#000000" fill-rule="evenodd" fill-opacity="1" /><path clip-path="url(#clip810)" d="M 0 0 M30.2328 55.3754 L34.3127 55.3754 L34.3127 56.3592 L28.8266 56.3592 L28.8266 55.3754 Q29.4921 54.6867 30.6379 53.5293 Q31.7895 52.3661 32.0847 52.0305 Q32.646 51.3997 32.8659 50.9657 Q33.0916 50.5259 33.0916 50.1034 Q33.0916 49.4148 32.6055 48.9807 Q32.1252 48.5467 31.3497 48.5467 Q30.7999 48.5467 30.1865 48.7377 Q29.5789 48.9287 28.8844 49.3164 L28.8844 48.1358 Q29.5905 47.8523 30.2039 47.7076 Q30.8173 47.5629 31.3266 47.5629 Q32.6691 47.5629 33.4677 48.2342 Q34.2664 48.9055 34.2664 50.0282 Q34.2664 50.5606 34.0638 51.0409 Q33.8671 51.5154 33.3404 52.1636 Q33.1958 52.3314 32.4203 53.1358 Q31.6448 53.9344 30.2328 55.3754 Z" fill="#000000" fill-rule="evenodd" fill-opacity="1" /><path clip-path="url(#clip810)" d="M 0 0 M35.58 54.8893 L36.8011 54.8893 L36.8011 56.3592 L35.58 56.3592 L35.58 54.8893 Z" fill="#000000" fill-rule="evenodd" fill-opacity="1" /><path clip-path="url(#clip810)" d="M 0 0 M38.08 47.7192 L42.6691 47.7192 L42.6691 48.703 L39.1506 48.703 L39.1506 50.821 Q39.4052 50.7342 39.6598 50.6937 Q39.9145 50.6474 40.1691 50.6474 Q41.6159 50.6474 42.4608 51.4402 Q43.3057 52.233 43.3057 53.5872 Q43.3057 54.9819 42.4376 55.7573 Q41.5696 56.527 39.9897 56.527 Q39.4457 56.527 38.8786 56.4344 Q38.3173 56.3418 37.7154 56.1566 L37.7154 54.9819 Q38.2362 55.2654 38.7918 55.4043 Q39.3473 55.5432 39.9666 55.5432 Q40.9677 55.5432 41.5522 55.0166 Q42.1367 54.49 42.1367 53.5872 Q42.1367 52.6844 41.5522 52.1578 Q40.9677 51.6312 39.9666 51.6312 Q39.4978 51.6312 39.0291 51.7354 Q38.5661 51.8395 38.08 52.0594 L38.08 47.7192 Z" fill="#000000" fill-rule="evenodd" fill-opacity="1" /><g clip-path="url(#clip810)">
<text style="fill:#000000; fill-opacity:1; font-family:Arial,Helvetica Neue,Helvetica,sans-serif; font-size:16px; text-anchor:middle;" transform="rotate(-90, 18.0011, 142.973)" x="18.0011" y="142.973">value</text>
</g>
<g clip-path="url(#clip810)">
<text style="fill:#000000; fill-opacity:1; font-family:Arial,Helvetica Neue,Helvetica,sans-serif; font-size:18px; font-weight:bold; text-anchor:middle;" transform="rotate(0, 259.347, 15.6)" x="259.347" y="15.6">Least squares fit of exp(x)</text>
</g>
<polyline clip-path="url(#clip812)" style="stroke:#009af9; stroke-width:2; stroke-opacity:1; fill:none" points="
  62.3269,227.546 66.175,226.949 101.757,220.837 123.14,216.596 141.219,212.634 160.858,207.896 178.963,203.09 198.374,197.423 220.863,190.119 240.849,182.89 
  258.375,175.918 277.483,167.576 296.704,158.327 317.956,146.994 338.177,135.015 359.201,121.184 376.899,108.341 398.507,91.0139 418.819,72.8984 451.36,39.687 
  456.368,34.0711 
  "/>
<polyline clip-path="url(#clip812)" style="stroke:#e26f46; stroke-width:2; stroke-opacity:1; fill:none" points="
  62.3269,251.238 66.175,249.446 101.757,232.877 123.14,222.92 141.219,214.501 160.858,205.356 178.963,196.925 198.374,187.886 220.863,177.413 240.849,168.106 
  258.375,159.945 277.483,151.047 296.704,142.096 317.956,132.2 338.177,122.784 359.201,112.993 376.899,104.752 398.507,94.6897 418.819,85.2312 451.36,70.0778 
  456.368,67.7458 
  "/>
<polyline clip-path="url(#clip812)" style="stroke:#3da44d; stroke-width:2; stroke-opacity:1; fill:none" points="
  62.3269,251.874 66.175,250.098 101.757,233.675 123.14,223.806 141.219,215.462 160.858,206.397 178.963,198.041 198.374,189.081 220.863,178.701 240.849,169.477 
  258.375,161.388 277.483,152.568 296.704,143.697 317.956,133.888 338.177,124.555 359.201,114.851 376.899,106.682 398.507,96.7092 418.819,87.3343 451.36,72.3149 
  456.368,70.0034 
  "/>
<path clip-path="url(#clip810)" d="
M286.515 250.713 L454.266 250.713 L454.266 190.233 L286.515 190.233  Z
  " fill="#ffffff" fill-rule="evenodd" fill-opacity="1"/>
<polyline clip-path="url(#clip810)" style="stroke:#000000; stroke-width:1; stroke-opacity:1; fill:none" points="
  286.515,250.713 454.266,250.713 454.266,190.233 286.515,190.233 286.515,250.713 
  "/>
<polyline clip-path="url(#clip810)" style="stroke:#009af9; stroke-width:1; stroke-opacity:1; fill:none" points="
  291.156,205.353 319.001,205.353 
  "/>
<path clip-path="url(#clip810)" d="M 0 0 M327.769 200.668 L327.769 201.553 L326.75 201.553 Q326.177 201.553 325.951 201.785 Q325.732 202.016 325.732 202.618 L325.732 203.191 L327.485 203.191 L327.485 204.019 L325.732 204.019 L325.732 209.673 L324.661 209.673 L324.661 204.019 L323.642 204.019 L323.642 203.191 L324.661 203.191 L324.661 202.74 Q324.661 201.658 325.164 201.166 Q325.668 200.668 326.762 200.668 L327.769 200.668 Z" fill="#000000" fill-rule="evenodd" fill-opacity="1" /><path clip-path="url(#clip810)" d="M 0 0 M328.775 207.115 L328.775 203.191 L329.84 203.191 L329.84 207.074 Q329.84 207.994 330.199 208.457 Q330.558 208.915 331.275 208.915 Q332.138 208.915 332.635 208.365 Q333.139 207.815 333.139 206.866 L333.139 203.191 L334.204 203.191 L334.204 209.673 L333.139 209.673 L333.139 208.677 Q332.751 209.268 332.236 209.557 Q331.727 209.84 331.05 209.84 Q329.933 209.84 329.354 209.146 Q328.775 208.452 328.775 207.115 M331.455 203.035 L331.455 203.035 Z" fill="#000000" fill-rule="evenodd" fill-opacity="1" /><path clip-path="url(#clip810)" d="M 0 0 M340.708 205.761 L340.708 209.673 L339.643 209.673 L339.643 205.795 Q339.643 204.875 339.285 204.418 Q338.926 203.961 338.208 203.961 Q337.346 203.961 336.848 204.511 Q336.351 205.06 336.351 206.009 L336.351 209.673 L335.28 209.673 L335.28 203.191 L336.351 203.191 L336.351 204.198 Q336.733 203.614 337.248 203.324 Q337.768 203.035 338.446 203.035 Q339.562 203.035 340.135 203.729 Q340.708 204.418 340.708 205.761 Z" fill="#000000" fill-rule="evenodd" fill-opacity="1" /><path clip-path="url(#clip810)" d="M 0 0 M346.49 203.44 L346.49 204.435 Q346.038 204.187 345.581 204.065 Q345.13 203.938 344.667 203.938 Q343.631 203.938 343.058 204.597 Q342.485 205.251 342.485 206.438 Q342.485 207.624 343.058 208.284 Q343.631 208.938 344.667 208.938 Q345.13 208.938 345.581 208.816 Q346.038 208.689 346.49 208.44 L346.49 209.424 Q346.044 209.632 345.564 209.736 Q345.089 209.84 344.551 209.84 Q343.087 209.84 342.224 208.92 Q341.362 208 341.362 206.438 Q341.362 204.852 342.23 203.944 Q343.104 203.035 344.62 203.035 Q345.112 203.035 345.581 203.139 Q346.05 203.238 346.49 203.44 Z" fill="#000000" fill-rule="evenodd" fill-opacity="1" /><path clip-path="url(#clip810)" d="M 0 0 M348.66 201.351 L348.66 203.191 L350.853 203.191 L350.853 204.019 L348.66 204.019 L348.66 207.537 Q348.66 208.33 348.874 208.556 Q349.094 208.781 349.759 208.781 L350.853 208.781 L350.853 209.673 L349.759 209.673 Q348.527 209.673 348.058 209.215 Q347.589 208.753 347.589 207.537 L347.589 204.019 L346.808 204.019 L346.808 203.191 L347.589 203.191 L347.589 201.351 L348.66 201.351 Z" fill="#000000" fill-rule="evenodd" fill-opacity="1" /><path clip-path="url(#clip810)" d="M 0 0 M351.97 203.191 L353.035 203.191 L353.035 209.673 L351.97 209.673 L351.97 203.191 M351.97 200.668 L353.035 200.668 L353.035 202.016 L351.97 202.016 L351.97 200.668 Z" fill="#000000" fill-rule="evenodd" fill-opacity="1" /><path clip-path="url(#clip810)" d="M 0 0 M356.663 203.938 Q355.807 203.938 355.309 204.609 Q354.811 205.275 354.811 206.438 Q354.811 207.601 355.303 208.272 Q355.801 208.938 356.663 208.938 Q357.514 208.938 358.011 208.266 Q358.509 207.595 358.509 206.438 Q358.509 205.286 358.011 204.615 Q357.514 203.938 356.663 203.938 M356.663 203.035 Q358.052 203.035 358.845 203.938 Q359.638 204.841 359.638 206.438 Q359.638 208.029 358.845 208.938 Q358.052 209.84 356.663 209.84 Q355.268 209.84 354.476 208.938 Q353.689 208.029 353.689 206.438 Q353.689 204.841 354.476 203.938 Q355.268 203.035 356.663 203.035 Z" fill="#000000" fill-rule="evenodd" fill-opacity="1" /><path clip-path="url(#clip810)" d="M 0 0 M366.142 205.761 L366.142 209.673 L365.077 209.673 L365.077 205.795 Q365.077 204.875 364.719 204.418 Q364.36 203.961 363.642 203.961 Q362.78 203.961 362.282 204.511 Q361.785 205.06 361.785 206.009 L361.785 209.673 L360.714 209.673 L360.714 203.191 L361.785 203.191 L361.785 204.198 Q362.167 203.614 362.682 203.324 Q363.202 203.035 363.879 203.035 Q364.996 203.035 365.569 203.729 Q366.142 204.418 366.142 205.761 Z" fill="#000000" fill-rule="evenodd" fill-opacity="1" /><polyline clip-path="url(#clip810)" style="stroke:#e26f46; stroke-width:1; stroke-opacity:1; fill:none" points="
  291.156,220.473 319.001,220.473 
  "/>
<path clip-path="url(#clip810)" d="M 0 0 M323.642 215.788 L324.707 215.788 L324.707 224.793 L323.642 224.793 L323.642 215.788 Z" fill="#000000" fill-rule="evenodd" fill-opacity="1" /><path clip-path="url(#clip810)" d="M 0 0 M325.824 218.311 L326.889 218.311 L326.889 224.793 L325.824 224.793 L325.824 218.311 M325.824 215.788 L326.889 215.788 L326.889 217.136 L325.824 217.136 L325.824 215.788 Z" fill="#000000" fill-rule="evenodd" fill-opacity="1" /><path clip-path="url(#clip810)" d="M 0 0 M333.394 220.881 L333.394 224.793 L332.329 224.793 L332.329 220.915 Q332.329 219.995 331.97 219.538 Q331.611 219.081 330.894 219.081 Q330.031 219.081 329.534 219.631 Q329.036 220.18 329.036 221.129 L329.036 224.793 L327.965 224.793 L327.965 218.311 L329.036 218.311 L329.036 219.318 Q329.418 218.734 329.933 218.444 Q330.454 218.155 331.131 218.155 Q332.248 218.155 332.821 218.849 Q333.394 219.538 333.394 220.881 Z" fill="#000000" fill-rule="evenodd" fill-opacity="1" /><path clip-path="url(#clip810)" d="M 0 0 M340.054 221.286 L340.054 221.807 L335.159 221.807 Q335.228 222.906 335.818 223.485 Q336.414 224.058 337.473 224.058 Q338.087 224.058 338.66 223.907 Q339.238 223.757 339.806 223.456 L339.806 224.463 Q339.233 224.706 338.631 224.833 Q338.029 224.96 337.41 224.96 Q335.859 224.96 334.95 224.058 Q334.047 223.155 334.047 221.616 Q334.047 220.024 334.904 219.092 Q335.766 218.155 337.225 218.155 Q338.532 218.155 339.29 219 Q340.054 219.839 340.054 221.286 M338.99 220.973 Q338.978 220.099 338.498 219.579 Q338.023 219.058 337.236 219.058 Q336.345 219.058 335.807 219.561 Q335.274 220.065 335.193 220.979 L338.99 220.973 Z" fill="#000000" fill-rule="evenodd" fill-opacity="1" /><path clip-path="url(#clip810)" d="M 0 0 M344.117 221.535 Q342.826 221.535 342.329 221.83 Q341.831 222.125 341.831 222.837 Q341.831 223.404 342.201 223.739 Q342.577 224.069 343.22 224.069 Q344.105 224.069 344.638 223.444 Q345.176 222.814 345.176 221.772 L345.176 221.535 L344.117 221.535 M346.241 221.095 L346.241 224.793 L345.176 224.793 L345.176 223.809 Q344.811 224.399 344.267 224.683 Q343.723 224.96 342.936 224.96 Q341.941 224.96 341.351 224.405 Q340.766 223.844 340.766 222.906 Q340.766 221.812 341.495 221.257 Q342.23 220.701 343.683 220.701 L345.176 220.701 L345.176 220.597 Q345.176 219.862 344.69 219.463 Q344.209 219.058 343.336 219.058 Q342.78 219.058 342.253 219.191 Q341.727 219.324 341.241 219.59 L341.241 218.606 Q341.825 218.381 342.375 218.271 Q342.925 218.155 343.446 218.155 Q344.852 218.155 345.546 218.884 Q346.241 219.613 346.241 221.095 Z" fill="#000000" fill-rule="evenodd" fill-opacity="1" /><path clip-path="url(#clip810)" d="M 0 0 M351.113 219.307 Q350.934 219.202 350.72 219.156 Q350.511 219.104 350.257 219.104 Q349.354 219.104 348.868 219.694 Q348.388 220.279 348.388 221.378 L348.388 224.793 L347.317 224.793 L347.317 218.311 L348.388 218.311 L348.388 219.318 Q348.723 218.728 349.261 218.444 Q349.8 218.155 350.569 218.155 Q350.679 218.155 350.812 218.172 Q350.945 218.184 351.108 218.213 L351.113 219.307 Z" fill="#000000" fill-rule="evenodd" fill-opacity="1" /><path clip-path="url(#clip810)" d="M 0 0 M359.279 215.788 L359.279 216.673 L358.26 216.673 Q357.687 216.673 357.462 216.905 Q357.242 217.136 357.242 217.738 L357.242 218.311 L358.995 218.311 L358.995 219.139 L357.242 219.139 L357.242 224.793 L356.171 224.793 L356.171 219.139 L355.153 219.139 L355.153 218.311 L356.171 218.311 L356.171 217.86 Q356.171 216.778 356.675 216.286 Q357.178 215.788 358.272 215.788 L359.279 215.788 Z" fill="#000000" fill-rule="evenodd" fill-opacity="1" /><path clip-path="url(#clip810)" d="M 0 0 M360.396 218.311 L361.46 218.311 L361.46 224.793 L360.396 224.793 L360.396 218.311 M360.396 215.788 L361.46 215.788 L361.46 217.136 L360.396 217.136 L360.396 215.788 Z" fill="#000000" fill-rule="evenodd" fill-opacity="1" /><path clip-path="url(#clip810)" d="M 0 0 M363.631 216.471 L363.631 218.311 L365.824 218.311 L365.824 219.139 L363.631 219.139 L363.631 222.657 Q363.631 223.45 363.845 223.676 Q364.065 223.901 364.73 223.901 L365.824 223.901 L365.824 224.793 L364.73 224.793 Q363.498 224.793 363.029 224.335 Q362.56 223.873 362.56 222.657 L362.56 219.139 L361.779 219.139 L361.779 218.311 L362.56 218.311 L362.56 216.471 L363.631 216.471 Z" fill="#000000" fill-rule="evenodd" fill-opacity="1" /><path clip-path="url(#clip810)" d="M 0 0 M373.989 215.788 L373.989 216.673 L372.971 216.673 Q372.398 216.673 372.172 216.905 Q371.952 217.136 371.952 217.738 L371.952 218.311 L373.706 218.311 L373.706 219.139 L371.952 219.139 L371.952 224.793 L370.882 224.793 L370.882 219.139 L369.863 219.139 L369.863 218.311 L370.882 218.311 L370.882 217.86 Q370.882 216.778 371.385 216.286 Q371.889 215.788 372.982 215.788 L373.989 215.788 Z" fill="#000000" fill-rule="evenodd" fill-opacity="1" /><path clip-path="url(#clip810)" d="M 0 0 M377.618 219.058 Q376.761 219.058 376.264 219.729 Q375.766 220.395 375.766 221.558 Q375.766 222.721 376.258 223.392 Q376.756 224.058 377.618 224.058 Q378.469 224.058 378.966 223.386 Q379.464 222.715 379.464 221.558 Q379.464 220.406 378.966 219.735 Q378.469 219.058 377.618 219.058 M377.618 218.155 Q379.007 218.155 379.8 219.058 Q380.592 219.961 380.592 221.558 Q380.592 223.149 379.8 224.058 Q379.007 224.96 377.618 224.96 Q376.223 224.96 375.43 224.058 Q374.643 223.149 374.643 221.558 Q374.643 219.961 375.43 219.058 Q376.223 218.155 377.618 218.155 Z" fill="#000000" fill-rule="evenodd" fill-opacity="1" /><path clip-path="url(#clip810)" d="M 0 0 M385.465 219.307 Q385.286 219.202 385.071 219.156 Q384.863 219.104 384.609 219.104 Q383.706 219.104 383.22 219.694 Q382.739 220.279 382.739 221.378 L382.739 224.793 L381.669 224.793 L381.669 218.311 L382.739 218.311 L382.739 219.318 Q383.075 218.728 383.613 218.444 Q384.151 218.155 384.921 218.155 Q385.031 218.155 385.164 218.172 Q385.297 218.184 385.459 218.213 L385.465 219.307 Z" fill="#000000" fill-rule="evenodd" fill-opacity="1" /><path clip-path="url(#clip810)" d="M 0 0 M391.507 223.809 L395.586 223.809 L395.586 224.793 L390.1 224.793 L390.1 223.809 Q390.766 223.12 391.912 221.963 Q393.063 220.8 393.358 220.464 Q393.92 219.833 394.14 219.399 Q394.365 218.959 394.365 218.537 Q394.365 217.848 393.879 217.414 Q393.399 216.98 392.624 216.98 Q392.074 216.98 391.46 217.171 Q390.853 217.362 390.158 217.75 L390.158 216.569 Q390.864 216.286 391.478 216.141 Q392.091 215.996 392.6 215.996 Q393.943 215.996 394.742 216.668 Q395.54 217.339 395.54 218.462 Q395.54 218.994 395.338 219.474 Q395.141 219.949 394.614 220.597 Q394.47 220.765 393.694 221.569 Q392.919 222.368 391.507 223.809 Z" fill="#000000" fill-rule="evenodd" fill-opacity="1" /><path clip-path="url(#clip810)" d="M 0 0 M399.354 216.922 Q398.451 216.922 397.994 217.814 Q397.542 218.699 397.542 220.481 Q397.542 222.258 397.994 223.149 Q398.451 224.035 399.354 224.035 Q400.262 224.035 400.714 223.149 Q401.171 222.258 401.171 220.481 Q401.171 218.699 400.714 217.814 Q400.262 216.922 399.354 216.922 M399.354 215.996 Q400.806 215.996 401.57 217.148 Q402.34 218.294 402.34 220.481 Q402.34 222.663 401.57 223.815 Q400.806 224.96 399.354 224.96 Q397.901 224.96 397.132 223.815 Q396.368 222.663 396.368 220.481 Q396.368 218.294 397.132 217.148 Q397.901 215.996 399.354 215.996 Z" fill="#000000" fill-rule="evenodd" fill-opacity="1" /><path clip-path="url(#clip810)" d="M 0 0 M408.254 223.82 L408.254 227.258 L407.184 227.258 L407.184 218.311 L408.254 218.311 L408.254 219.295 Q408.59 218.716 409.099 218.439 Q409.614 218.155 410.326 218.155 Q411.507 218.155 412.241 219.092 Q412.982 220.03 412.982 221.558 Q412.982 223.086 412.241 224.023 Q411.507 224.96 410.326 224.96 Q409.614 224.96 409.099 224.683 Q408.59 224.399 408.254 223.82 M411.877 221.558 Q411.877 220.383 411.391 219.717 Q410.91 219.046 410.066 219.046 Q409.221 219.046 408.735 219.717 Q408.254 220.383 408.254 221.558 Q408.254 222.732 408.735 223.404 Q409.221 224.069 410.066 224.069 Q410.91 224.069 411.391 223.404 Q411.877 222.732 411.877 221.558 Z" fill="#000000" fill-rule="evenodd" fill-opacity="1" /><path clip-path="url(#clip810)" d="M 0 0 M416.611 219.058 Q415.754 219.058 415.256 219.729 Q414.759 220.395 414.759 221.558 Q414.759 222.721 415.251 223.392 Q415.748 224.058 416.611 224.058 Q417.461 224.058 417.959 223.386 Q418.457 222.715 418.457 221.558 Q418.457 220.406 417.959 219.735 Q417.461 219.058 416.611 219.058 M416.611 218.155 Q418 218.155 418.792 219.058 Q419.585 219.961 419.585 221.558 Q419.585 223.149 418.792 224.058 Q418 224.96 416.611 224.96 Q415.216 224.96 414.423 224.058 Q413.636 223.149 413.636 221.558 Q413.636 219.961 414.423 219.058 Q415.216 218.155 416.611 218.155 Z" fill="#000000" fill-rule="evenodd" fill-opacity="1" /><path clip-path="url(#clip810)" d="M 0 0 M420.702 218.311 L421.767 218.311 L421.767 224.793 L420.702 224.793 L420.702 218.311 M420.702 215.788 L421.767 215.788 L421.767 217.136 L420.702 217.136 L420.702 215.788 Z" fill="#000000" fill-rule="evenodd" fill-opacity="1" /><path clip-path="url(#clip810)" d="M 0 0 M428.271 220.881 L428.271 224.793 L427.207 224.793 L427.207 220.915 Q427.207 219.995 426.848 219.538 Q426.489 219.081 425.771 219.081 Q424.909 219.081 424.412 219.631 Q423.914 220.18 423.914 221.129 L423.914 224.793 L422.843 224.793 L422.843 218.311 L423.914 218.311 L423.914 219.318 Q424.296 218.734 424.811 218.444 Q425.332 218.155 426.009 218.155 Q427.126 218.155 427.699 218.849 Q428.271 219.538 428.271 220.881 Z" fill="#000000" fill-rule="evenodd" fill-opacity="1" /><path clip-path="url(#clip810)" d="M 0 0 M430.442 216.471 L430.442 218.311 L432.635 218.311 L432.635 219.139 L430.442 219.139 L430.442 222.657 Q430.442 223.45 430.656 223.676 Q430.876 223.901 431.541 223.901 L432.635 223.901 L432.635 224.793 L431.541 224.793 Q430.309 224.793 429.84 224.335 Q429.371 223.873 429.371 222.657 L429.371 219.139 L428.59 219.139 L428.59 218.311 L429.371 218.311 L429.371 216.471 L430.442 216.471 Z" fill="#000000" fill-rule="evenodd" fill-opacity="1" /><path clip-path="url(#clip810)" d="M 0 0 M437.884 218.502 L437.884 219.509 Q437.432 219.278 436.946 219.162 Q436.46 219.046 435.939 219.046 Q435.146 219.046 434.747 219.289 Q434.354 219.532 434.354 220.018 Q434.354 220.389 434.637 220.603 Q434.921 220.811 435.777 221.002 L436.142 221.083 Q437.276 221.326 437.751 221.772 Q438.231 222.212 438.231 223.004 Q438.231 223.907 437.513 224.434 Q436.802 224.96 435.552 224.96 Q435.031 224.96 434.464 224.856 Q433.902 224.758 433.277 224.555 L433.277 223.456 Q433.868 223.763 434.44 223.919 Q435.013 224.069 435.575 224.069 Q436.327 224.069 436.732 223.815 Q437.137 223.554 437.137 223.086 Q437.137 222.651 436.842 222.42 Q436.553 222.189 435.563 221.974 L435.193 221.888 Q434.203 221.679 433.763 221.251 Q433.324 220.817 433.324 220.065 Q433.324 219.15 433.972 218.653 Q434.62 218.155 435.812 218.155 Q436.402 218.155 436.923 218.242 Q437.444 218.329 437.884 218.502 Z" fill="#000000" fill-rule="evenodd" fill-opacity="1" /><polyline clip-path="url(#clip810)" style="stroke:#3da44d; stroke-width:1; stroke-opacity:1; fill:none" points="
  291.156,235.593 319.001,235.593 
  "/>
<path clip-path="url(#clip810)" d="M 0 0 M323.642 230.908 L324.707 230.908 L324.707 239.913 L323.642 239.913 L323.642 230.908 Z" fill="#000000" fill-rule="evenodd" fill-opacity="1" /><path clip-path="url(#clip810)" d="M 0 0 M325.824 233.431 L326.889 233.431 L326.889 239.913 L325.824 239.913 L325.824 233.431 M325.824 230.908 L326.889 230.908 L326.889 232.256 L325.824 232.256 L325.824 230.908 Z" fill="#000000" fill-rule="evenodd" fill-opacity="1" /><path clip-path="url(#clip810)" d="M 0 0 M333.394 236.001 L333.394 239.913 L332.329 239.913 L332.329 236.035 Q332.329 235.115 331.97 234.658 Q331.611 234.201 330.894 234.201 Q330.031 234.201 329.534 234.751 Q329.036 235.3 329.036 236.249 L329.036 239.913 L327.965 239.913 L327.965 233.431 L329.036 233.431 L329.036 234.438 Q329.418 233.854 329.933 233.564 Q330.454 233.275 331.131 233.275 Q332.248 233.275 332.821 233.969 Q333.394 234.658 333.394 236.001 Z" fill="#000000" fill-rule="evenodd" fill-opacity="1" /><path clip-path="url(#clip810)" d="M 0 0 M340.054 236.406 L340.054 236.927 L335.159 236.927 Q335.228 238.026 335.818 238.605 Q336.414 239.178 337.473 239.178 Q338.087 239.178 338.66 239.027 Q339.238 238.877 339.806 238.576 L339.806 239.583 Q339.233 239.826 338.631 239.953 Q338.029 240.08 337.41 240.08 Q335.859 240.08 334.95 239.178 Q334.047 238.275 334.047 236.736 Q334.047 235.144 334.904 234.212 Q335.766 233.275 337.225 233.275 Q338.532 233.275 339.29 234.12 Q340.054 234.959 340.054 236.406 M338.99 236.093 Q338.978 235.219 338.498 234.699 Q338.023 234.178 337.236 234.178 Q336.345 234.178 335.807 234.681 Q335.274 235.185 335.193 236.099 L338.99 236.093 Z" fill="#000000" fill-rule="evenodd" fill-opacity="1" /><path clip-path="url(#clip810)" d="M 0 0 M344.117 236.655 Q342.826 236.655 342.329 236.95 Q341.831 237.245 341.831 237.957 Q341.831 238.524 342.201 238.859 Q342.577 239.189 343.22 239.189 Q344.105 239.189 344.638 238.564 Q345.176 237.934 345.176 236.892 L345.176 236.655 L344.117 236.655 M346.241 236.215 L346.241 239.913 L345.176 239.913 L345.176 238.929 Q344.811 239.519 344.267 239.803 Q343.723 240.08 342.936 240.08 Q341.941 240.08 341.351 239.525 Q340.766 238.964 340.766 238.026 Q340.766 236.932 341.495 236.377 Q342.23 235.821 343.683 235.821 L345.176 235.821 L345.176 235.717 Q345.176 234.982 344.69 234.583 Q344.209 234.178 343.336 234.178 Q342.78 234.178 342.253 234.311 Q341.727 234.444 341.241 234.71 L341.241 233.726 Q341.825 233.501 342.375 233.391 Q342.925 233.275 343.446 233.275 Q344.852 233.275 345.546 234.004 Q346.241 234.733 346.241 236.215 Z" fill="#000000" fill-rule="evenodd" fill-opacity="1" /><path clip-path="url(#clip810)" d="M 0 0 M351.113 234.427 Q350.934 234.322 350.72 234.276 Q350.511 234.224 350.257 234.224 Q349.354 234.224 348.868 234.814 Q348.388 235.399 348.388 236.498 L348.388 239.913 L347.317 239.913 L347.317 233.431 L348.388 233.431 L348.388 234.438 Q348.723 233.848 349.261 233.564 Q349.8 233.275 350.569 233.275 Q350.679 233.275 350.812 233.292 Q350.945 233.304 351.108 233.333 L351.113 234.427 Z" fill="#000000" fill-rule="evenodd" fill-opacity="1" /><path clip-path="url(#clip810)" d="M 0 0 M359.279 230.908 L359.279 231.793 L358.26 231.793 Q357.687 231.793 357.462 232.025 Q357.242 232.256 357.242 232.858 L357.242 233.431 L358.995 233.431 L358.995 234.259 L357.242 234.259 L357.242 239.913 L356.171 239.913 L356.171 234.259 L355.153 234.259 L355.153 233.431 L356.171 233.431 L356.171 232.98 Q356.171 231.898 356.675 231.406 Q357.178 230.908 358.272 230.908 L359.279 230.908 Z" fill="#000000" fill-rule="evenodd" fill-opacity="1" /><path clip-path="url(#clip810)" d="M 0 0 M360.396 233.431 L361.46 233.431 L361.46 239.913 L360.396 239.913 L360.396 233.431 M360.396 230.908 L361.46 230.908 L361.46 232.256 L360.396 232.256 L360.396 230.908 Z" fill="#000000" fill-rule="evenodd" fill-opacity="1" /><path clip-path="url(#clip810)" d="M 0 0 M363.631 231.591 L363.631 233.431 L365.824 233.431 L365.824 234.259 L363.631 234.259 L363.631 237.777 Q363.631 238.57 363.845 238.796 Q364.065 239.021 364.73 239.021 L365.824 239.021 L365.824 239.913 L364.73 239.913 Q363.498 239.913 363.029 239.455 Q362.56 238.993 362.56 237.777 L362.56 234.259 L361.779 234.259 L361.779 233.431 L362.56 233.431 L362.56 231.591 L363.631 231.591 Z" fill="#000000" fill-rule="evenodd" fill-opacity="1" /><path clip-path="url(#clip810)" d="M 0 0 M373.989 230.908 L373.989 231.793 L372.971 231.793 Q372.398 231.793 372.172 232.025 Q371.952 232.256 371.952 232.858 L371.952 233.431 L373.706 233.431 L373.706 234.259 L371.952 234.259 L371.952 239.913 L370.882 239.913 L370.882 234.259 L369.863 234.259 L369.863 233.431 L370.882 233.431 L370.882 232.98 Q370.882 231.898 371.385 231.406 Q371.889 230.908 372.982 230.908 L373.989 230.908 Z" fill="#000000" fill-rule="evenodd" fill-opacity="1" /><path clip-path="url(#clip810)" d="M 0 0 M377.618 234.178 Q376.761 234.178 376.264 234.849 Q375.766 235.515 375.766 236.678 Q375.766 237.841 376.258 238.512 Q376.756 239.178 377.618 239.178 Q378.469 239.178 378.966 238.506 Q379.464 237.835 379.464 236.678 Q379.464 235.526 378.966 234.855 Q378.469 234.178 377.618 234.178 M377.618 233.275 Q379.007 233.275 379.8 234.178 Q380.592 235.081 380.592 236.678 Q380.592 238.269 379.8 239.178 Q379.007 240.08 377.618 240.08 Q376.223 240.08 375.43 239.178 Q374.643 238.269 374.643 236.678 Q374.643 235.081 375.43 234.178 Q376.223 233.275 377.618 233.275 Z" fill="#000000" fill-rule="evenodd" fill-opacity="1" /><path clip-path="url(#clip810)" d="M 0 0 M385.465 234.427 Q385.286 234.322 385.071 234.276 Q384.863 234.224 384.609 234.224 Q383.706 234.224 383.22 234.814 Q382.739 235.399 382.739 236.498 L382.739 239.913 L381.669 239.913 L381.669 233.431 L382.739 233.431 L382.739 234.438 Q383.075 233.848 383.613 233.564 Q384.151 233.275 384.921 233.275 Q385.031 233.275 385.164 233.292 Q385.297 233.304 385.459 233.333 L385.465 234.427 Z" fill="#000000" fill-rule="evenodd" fill-opacity="1" /><path clip-path="url(#clip810)" d="M 0 0 M391.507 238.929 L395.586 238.929 L395.586 239.913 L390.1 239.913 L390.1 238.929 Q390.766 238.24 391.912 237.083 Q393.063 235.92 393.358 235.584 Q393.92 234.953 394.14 234.519 Q394.365 234.079 394.365 233.657 Q394.365 232.968 393.879 232.534 Q393.399 232.1 392.624 232.1 Q392.074 232.1 391.46 232.291 Q390.853 232.482 390.158 232.87 L390.158 231.689 Q390.864 231.406 391.478 231.261 Q392.091 231.116 392.6 231.116 Q393.943 231.116 394.742 231.788 Q395.54 232.459 395.54 233.582 Q395.54 234.114 395.338 234.594 Q395.141 235.069 394.614 235.717 Q394.47 235.885 393.694 236.689 Q392.919 237.488 391.507 238.929 Z" fill="#000000" fill-rule="evenodd" fill-opacity="1" /><path clip-path="url(#clip810)" d="M 0 0 M399.354 232.042 Q398.451 232.042 397.994 232.934 Q397.542 233.819 397.542 235.601 Q397.542 237.378 397.994 238.269 Q398.451 239.155 399.354 239.155 Q400.262 239.155 400.714 238.269 Q401.171 237.378 401.171 235.601 Q401.171 233.819 400.714 232.934 Q400.262 232.042 399.354 232.042 M399.354 231.116 Q400.806 231.116 401.57 232.268 Q402.34 233.414 402.34 235.601 Q402.34 237.783 401.57 238.935 Q400.806 240.08 399.354 240.08 Q397.901 240.08 397.132 238.935 Q396.368 237.783 396.368 235.601 Q396.368 233.414 397.132 232.268 Q397.901 231.116 399.354 231.116 Z" fill="#000000" fill-rule="evenodd" fill-opacity="1" /><path clip-path="url(#clip810)" d="M 0 0 M406.107 232.042 Q405.204 232.042 404.747 232.934 Q404.296 233.819 404.296 235.601 Q404.296 237.378 404.747 238.269 Q405.204 239.155 406.107 239.155 Q407.016 239.155 407.467 238.269 Q407.924 237.378 407.924 235.601 Q407.924 233.819 407.467 232.934 Q407.016 232.042 406.107 232.042 M406.107 231.116 Q407.56 231.116 408.324 232.268 Q409.093 233.414 409.093 235.601 Q409.093 237.783 408.324 238.935 Q407.56 240.08 406.107 240.08 Q404.655 240.08 403.885 238.935 Q403.121 237.783 403.121 235.601 Q403.121 233.414 403.885 232.268 Q404.655 231.116 406.107 231.116 Z" fill="#000000" fill-rule="evenodd" fill-opacity="1" /><path clip-path="url(#clip810)" d="M 0 0 M415.008 238.94 L415.008 242.378 L413.937 242.378 L413.937 233.431 L415.008 233.431 L415.008 234.415 Q415.343 233.836 415.853 233.559 Q416.368 233.275 417.079 233.275 Q418.26 233.275 418.995 234.212 Q419.736 235.15 419.736 236.678 Q419.736 238.206 418.995 239.143 Q418.26 240.08 417.079 240.08 Q416.368 240.08 415.853 239.803 Q415.343 239.519 415.008 238.94 M418.63 236.678 Q418.63 235.503 418.144 234.837 Q417.664 234.166 416.819 234.166 Q415.974 234.166 415.488 234.837 Q415.008 235.503 415.008 236.678 Q415.008 237.852 415.488 238.524 Q415.974 239.189 416.819 239.189 Q417.664 239.189 418.144 238.524 Q418.63 237.852 418.63 236.678 Z" fill="#000000" fill-rule="evenodd" fill-opacity="1" /><path clip-path="url(#clip810)" d="M 0 0 M423.364 234.178 Q422.508 234.178 422.01 234.849 Q421.512 235.515 421.512 236.678 Q421.512 237.841 422.004 238.512 Q422.502 239.178 423.364 239.178 Q424.215 239.178 424.712 238.506 Q425.21 237.835 425.21 236.678 Q425.21 235.526 424.712 234.855 Q424.215 234.178 423.364 234.178 M423.364 233.275 Q424.753 233.275 425.546 234.178 Q426.339 235.081 426.339 236.678 Q426.339 238.269 425.546 239.178 Q424.753 240.08 423.364 240.08 Q421.969 240.08 421.177 239.178 Q420.39 238.269 420.39 236.678 Q420.39 235.081 421.177 234.178 Q421.969 233.275 423.364 233.275 Z" fill="#000000" fill-rule="evenodd" fill-opacity="1" /><path clip-path="url(#clip810)" d="M 0 0 M427.456 233.431 L428.52 233.431 L428.52 239.913 L427.456 239.913 L427.456 233.431 M427.456 230.908 L428.52 230.908 L428.52 232.256 L427.456 232.256 L427.456 230.908 Z" fill="#000000" fill-rule="evenodd" fill-opacity="1" /><path clip-path="url(#clip810)" d="M 0 0 M435.025 236.001 L435.025 239.913 L433.96 239.913 L433.96 236.035 Q433.96 235.115 433.601 234.658 Q433.243 234.201 432.525 234.201 Q431.663 234.201 431.165 234.751 Q430.667 235.3 430.667 236.249 L430.667 239.913 L429.597 239.913 L429.597 233.431 L430.667 233.431 L430.667 234.438 Q431.049 233.854 431.564 233.564 Q432.085 233.275 432.762 233.275 Q433.879 233.275 434.452 233.969 Q435.025 234.658 435.025 236.001 Z" fill="#000000" fill-rule="evenodd" fill-opacity="1" /><path clip-path="url(#clip810)" d="M 0 0 M437.195 231.591 L437.195 233.431 L439.388 233.431 L439.388 234.259 L437.195 234.259 L437.195 237.777 Q437.195 238.57 437.409 238.796 Q437.629 239.021 438.295 239.021 L439.388 239.021 L439.388 239.913 L438.295 239.913 Q437.062 239.913 436.593 239.455 Q436.124 238.993 436.124 237.777 L436.124 234.259 L435.343 234.259 L435.343 233.431 L436.124 233.431 L436.124 231.591 L437.195 231.591 Z" fill="#000000" fill-rule="evenodd" fill-opacity="1" /><path clip-path="url(#clip810)" d="M 0 0 M444.637 233.622 L444.637 234.629 Q444.186 234.398 443.7 234.282 Q443.214 234.166 442.693 234.166 Q441.9 234.166 441.501 234.409 Q441.107 234.652 441.107 235.138 Q441.107 235.509 441.391 235.723 Q441.674 235.931 442.531 236.122 L442.895 236.203 Q444.029 236.446 444.504 236.892 Q444.984 237.332 444.984 238.124 Q444.984 239.027 444.267 239.554 Q443.555 240.08 442.305 240.08 Q441.784 240.08 441.217 239.976 Q440.656 239.878 440.031 239.675 L440.031 238.576 Q440.621 238.883 441.194 239.039 Q441.767 239.189 442.328 239.189 Q443.08 239.189 443.486 238.935 Q443.891 238.674 443.891 238.206 Q443.891 237.771 443.595 237.54 Q443.306 237.309 442.317 237.094 L441.946 237.008 Q440.957 236.799 440.517 236.371 Q440.077 235.937 440.077 235.185 Q440.077 234.27 440.725 233.773 Q441.373 233.275 442.565 233.275 Q443.156 233.275 443.676 233.362 Q444.197 233.449 444.637 233.622 Z" fill="#000000" fill-rule="evenodd" fill-opacity="1" /></svg>
