<?xml version="1.0" encoding="utf-8"?>
<svg xmlns="http://www.w3.org/2000/svg" xmlns:xlink="http://www.w3.org/1999/xlink" width="120" height="75" viewBox="0 0 480 300">
<defs>
  <clipPath id="clip510">
    <rect x="0" y="0" width="480" height="300"/>
  </clipPath>
</defs>
<path clip-path="url(#clip510)" d="
M0 300 L480 300 L480 0 L0 0  Z
  " fill="#ffffff" fill-rule="evenodd" fill-opacity="1"/>
<defs>
  <clipPath id="clip511">
    <rect x="96" y="0" width="337" height="300"/>
  </clipPath>
</defs>
<path clip-path="url(#clip510)" d="
M60.6966 258.408 L468.189 258.408 L468.189 27.537 L60.6966 27.537  Z
  " fill="#ffffff" fill-rule="evenodd" fill-opacity="1"/>
<defs>
  <clipPath id="clip512">
    <rect x="60" y="27" width="408" height="232"/>
  </clipPath>
</defs>
<polyline clip-path="url(#clip512)" style="stroke:#000000; stroke-width:0.5; stroke-opacity:0.1; fill:none" points="
  72.2294,258.408 72.2294,27.537 
  "/>
<polyline clip-path="url(#clip512)" style="stroke:#000000; stroke-width:0.5; stroke-opacity:0.1; fill:none" points="
  182.066,258.408 182.066,27.537 
  "/>
<polyline clip-path="url(#clip512)" style="stroke:#000000; stroke-width:0.5; stroke-opacity:0.1; fill:none" points="
  291.902,258.408 291.902,27.537 
  "/>
<polyline clip-path="url(#clip512)" style="stroke:#000000; stroke-width:0.5; stroke-opacity:0.1; fill:none" points="
  401.738,258.408 401.738,27.537 
  "/>
<polyline clip-path="url(#clip510)" style="stroke:#000000; stroke-width:1; stroke-opacity:1; fill:none" points="
  60.6966,258.408 468.189,258.408 
  "/>
<polyline clip-path="url(#clip510)" style="stroke:#000000; stroke-width:1; stroke-opacity:1; fill:none" points="
  72.2294,258.408 72.2294,255.638 
  "/>
<polyline clip-path="url(#clip510)" style="stroke:#000000; stroke-width:1; stroke-opacity:1; fill:none" points="
  182.066,258.408 182.066,255.638 
  "/>
<polyline clip-path="url(#clip510)" style="stroke:#000000; stroke-width:1; stroke-opacity:1; fill:none" points="
  291.902,258.408 291.902,255.638 
  "/>
<polyline clip-path="url(#clip510)" style="stroke:#000000; stroke-width:1; stroke-opacity:1; fill:none" points="
  401.738,258.408 401.738,255.638 
  "/>
<path clip-path="url(#clip510)" d="M 0 0 M72.2294 264.746 Q71.3266 264.746 70.8694 265.637 Q70.418 266.523 70.418 268.305 Q70.418 270.082 70.8694 270.973 Q71.3266 271.858 72.2294 271.858 Q73.1379 271.858 73.5893 270.973 Q74.0465 270.082 74.0465 268.305 Q74.0465 266.523 73.5893 265.637 Q73.1379 264.746 72.2294 264.746 M72.2294 263.82 Q73.6819 263.82 74.4458 264.972 Q75.2155 266.118 75.2155 268.305 Q75.2155 270.487 74.4458 271.638 Q73.6819 272.784 72.2294 272.784 Q70.7768 272.784 70.0072 271.638 Q69.2433 270.487 69.2433 268.305 Q69.2433 266.118 70.0072 264.972 Q70.7768 263.82 72.2294 263.82 Z" fill="#000000" fill-rule="evenodd" fill-opacity="1" /><path clip-path="url(#clip510)" d="M 0 0 M176.284 271.633 L178.194 271.633 L178.194 265.041 L176.117 265.458 L176.117 264.393 L178.183 263.976 L179.352 263.976 L179.352 271.633 L181.261 271.633 L181.261 272.616 L176.284 272.616 L176.284 271.633 Z" fill="#000000" fill-rule="evenodd" fill-opacity="1" /><path clip-path="url(#clip510)" d="M 0 0 M185.029 264.746 Q184.126 264.746 183.669 265.637 Q183.217 266.523 183.217 268.305 Q183.217 270.082 183.669 270.973 Q184.126 271.858 185.029 271.858 Q185.937 271.858 186.389 270.973 Q186.846 270.082 186.846 268.305 Q186.846 266.523 186.389 265.637 Q185.937 264.746 185.029 264.746 M185.029 263.82 Q186.481 263.82 187.245 264.972 Q188.015 266.118 188.015 268.305 Q188.015 270.487 187.245 271.638 Q186.481 272.784 185.029 272.784 Q183.576 272.784 182.806 271.638 Q182.042 270.487 182.042 268.305 Q182.042 266.118 182.806 264.972 Q183.576 263.82 185.029 263.82 Z" fill="#000000" fill-rule="evenodd" fill-opacity="1" /><path clip-path="url(#clip510)" d="M 0 0 M287.188 271.633 L291.268 271.633 L291.268 272.616 L285.782 272.616 L285.782 271.633 Q286.448 270.944 287.593 269.787 Q288.745 268.623 289.04 268.288 Q289.601 267.657 289.821 267.223 Q290.047 266.783 290.047 266.361 Q290.047 265.672 289.561 265.238 Q289.081 264.804 288.305 264.804 Q287.755 264.804 287.142 264.995 Q286.534 265.186 285.84 265.574 L285.84 264.393 Q286.546 264.109 287.159 263.965 Q287.773 263.82 288.282 263.82 Q289.625 263.82 290.423 264.491 Q291.222 265.163 291.222 266.285 Q291.222 266.818 291.019 267.298 Q290.823 267.773 290.296 268.421 Q290.151 268.589 289.376 269.393 Q288.6 270.192 287.188 271.633 Z" fill="#000000" fill-rule="evenodd" fill-opacity="1" /><path clip-path="url(#clip510)" d="M 0 0 M295.035 264.746 Q294.133 264.746 293.676 265.637 Q293.224 266.523 293.224 268.305 Q293.224 270.082 293.676 270.973 Q294.133 271.858 295.035 271.858 Q295.944 271.858 296.395 270.973 Q296.853 270.082 296.853 268.305 Q296.853 266.523 296.395 265.637 Q295.944 264.746 295.035 264.746 M295.035 263.82 Q296.488 263.82 297.252 264.972 Q298.022 266.118 298.022 268.305 Q298.022 270.487 297.252 271.638 Q296.488 272.784 295.035 272.784 Q293.583 272.784 292.813 271.638 Q292.049 270.487 292.049 268.305 Q292.049 266.118 292.813 264.972 Q293.583 263.82 295.035 263.82 Z" fill="#000000" fill-rule="evenodd" fill-opacity="1" /><path clip-path="url(#clip510)" d="M 0 0 M399.423 267.958 Q400.262 268.137 400.731 268.704 Q401.206 269.271 401.206 270.105 Q401.206 271.384 400.326 272.084 Q399.446 272.784 397.826 272.784 Q397.282 272.784 396.703 272.674 Q396.13 272.57 395.517 272.356 L395.517 271.227 Q396.003 271.511 396.582 271.656 Q397.161 271.8 397.791 271.8 Q398.891 271.8 399.464 271.366 Q400.042 270.932 400.042 270.105 Q400.042 269.341 399.504 268.913 Q398.972 268.479 398.017 268.479 L397.01 268.479 L397.01 267.518 L398.063 267.518 Q398.926 267.518 399.383 267.177 Q399.84 266.829 399.84 266.181 Q399.84 265.516 399.365 265.163 Q398.897 264.804 398.017 264.804 Q397.537 264.804 396.987 264.908 Q396.437 265.012 395.777 265.232 L395.777 264.19 Q396.443 264.005 397.022 263.913 Q397.606 263.82 398.121 263.82 Q399.452 263.82 400.228 264.428 Q401.003 265.03 401.003 266.06 Q401.003 266.777 400.592 267.275 Q400.181 267.767 399.423 267.958 Z" fill="#000000" fill-rule="evenodd" fill-opacity="1" /><path clip-path="url(#clip510)" d="M 0 0 M404.973 264.746 Q404.07 264.746 403.613 265.637 Q403.162 266.523 403.162 268.305 Q403.162 270.082 403.613 270.973 Q404.07 271.858 404.973 271.858 Q405.882 271.858 406.333 270.973 Q406.79 270.082 406.79 268.305 Q406.79 266.523 406.333 265.637 Q405.882 264.746 404.973 264.746 M404.973 263.82 Q406.426 263.82 407.189 264.972 Q407.959 266.118 407.959 268.305 Q407.959 270.487 407.189 271.638 Q406.426 272.784 404.973 272.784 Q403.52 272.784 402.751 271.638 Q401.987 270.487 401.987 268.305 Q401.987 266.118 402.751 264.972 Q403.52 263.82 404.973 263.82 Z" fill="#000000" fill-rule="evenodd" fill-opacity="1" /><g clip-path="url(#clip510)">
<text style="fill:#000000; fill-opacity:1; font-family:Arial,Helvetica Neue,Helvetica,sans-serif; font-size:16px; text-anchor:middle;" transform="rotate(0, 264.443, 293.459)" x="264.443" y="293.459">years since 1980</text>
</g>
<polyline clip-path="url(#clip512)" style="stroke:#000000; stroke-width:0.5; stroke-opacity:0.1; fill:none" points="
  60.6966,231.93 468.189,231.93 
  "/>
<polyline clip-path="url(#clip512)" style="stroke:#000000; stroke-width:0.5; stroke-opacity:0.1; fill:none" points="
  60.6966,179.114 468.189,179.114 
  "/>
<polyline clip-path="url(#clip512)" style="stroke:#000000; stroke-width:0.5; stroke-opacity:0.1; fill:none" points="
  60.6966,126.298 468.189,126.298 
  "/>
<polyline clip-path="url(#clip512)" style="stroke:#000000; stroke-width:0.5; stroke-opacity:0.1; fill:none" points="
  60.6966,73.4824 468.189,73.4824 
  "/>
<polyline clip-path="url(#clip510)" style="stroke:#000000; stroke-width:1; stroke-opacity:1; fill:none" points="
  60.6966,258.408 60.6966,27.537 
  "/>
<polyline clip-path="url(#clip510)" style="stroke:#000000; stroke-width:1; stroke-opacity:1; fill:none" points="
  60.6966,231.93 65.5865,231.93 
  "/>
<polyline clip-path="url(#clip510)" style="stroke:#000000; stroke-width:1; stroke-opacity:1; fill:none" points="
  60.6966,179.114 65.5865,179.114 
  "/>
<polyline clip-path="url(#clip510)" style="stroke:#000000; stroke-width:1; stroke-opacity:1; fill:none" points="
  60.6966,126.298 65.5865,126.298 
  "/>
<polyline clip-path="url(#clip510)" style="stroke:#000000; stroke-width:1; stroke-opacity:1; fill:none" points="
  60.6966,73.4824 65.5865,73.4824 
  "/>
<path clip-path="url(#clip510)" d="M 0 0 M28.2594 235.267 L30.1692 235.267 L30.1692 228.675 L28.0916 229.092 L28.0916 228.027 L30.1576 227.61 L31.3266 227.61 L31.3266 235.267 L33.2363 235.267 L33.2363 236.25 L28.2594 236.25 L28.2594 235.267 Z" fill="#000000" fill-rule="evenodd" fill-opacity="1" /><path clip-path="url(#clip510)" d="M 0 0 M37.0036 228.38 Q36.1008 228.38 35.6437 229.271 Q35.1923 230.157 35.1923 231.939 Q35.1923 233.716 35.6437 234.607 Q36.1008 235.492 37.0036 235.492 Q37.9122 235.492 38.3636 234.607 Q38.8207 233.716 38.8207 231.939 Q38.8207 230.157 38.3636 229.271 Q37.9122 228.38 37.0036 228.38 M37.0036 227.454 Q38.4561 227.454 39.22 228.606 Q39.9897 229.752 39.9897 231.939 Q39.9897 234.121 39.22 235.272 Q38.4561 236.418 37.0036 236.418 Q35.5511 236.418 34.7814 235.272 Q34.0175 234.121 34.0175 231.939 Q34.0175 229.752 34.7814 228.606 Q35.5511 227.454 37.0036 227.454 Z" fill="#000000" fill-rule="evenodd" fill-opacity="1" /><path clip-path="url(#clip510)" d="M 0 0 M43.757 228.38 Q42.8543 228.38 42.3971 229.271 Q41.9457 230.157 41.9457 231.939 Q41.9457 233.716 42.3971 234.607 Q42.8543 235.492 43.757 235.492 Q44.6656 235.492 45.117 234.607 Q45.5742 233.716 45.5742 231.939 Q45.5742 230.157 45.117 229.271 Q44.6656 228.38 43.757 228.38 M43.757 227.454 Q45.2096 227.454 45.9735 228.606 Q46.7431 229.752 46.7431 231.939 Q46.7431 234.121 45.9735 235.272 Q45.2096 236.418 43.757 236.418 Q42.3045 236.418 41.5348 235.272 Q40.771 234.121 40.771 231.939 Q40.771 229.752 41.5348 228.606 Q42.3045 227.454 43.757 227.454 Z" fill="#000000" fill-rule="evenodd" fill-opacity="1" /><path clip-path="url(#clip510)" d="M 0 0 M50.5105 228.38 Q49.6077 228.38 49.1505 229.271 Q48.6991 230.157 48.6991 231.939 Q48.6991 233.716 49.1505 234.607 Q49.6077 235.492 50.5105 235.492 Q51.419 235.492 51.8704 234.607 Q52.3276 233.716 52.3276 231.939 Q52.3276 230.157 51.8704 229.271 Q51.419 228.38 50.5105 228.38 M50.5105 227.454 Q51.963 227.454 52.7269 228.606 Q53.4966 229.752 53.4966 231.939 Q53.4966 234.121 52.7269 235.272 Q51.963 236.418 50.5105 236.418 Q49.0579 236.418 48.2883 235.272 Q47.5244 234.121 47.5244 231.939 Q47.5244 229.752 48.2883 228.606 Q49.0579 227.454 50.5105 227.454 Z" fill="#000000" fill-rule="evenodd" fill-opacity="1" /><path clip-path="url(#clip510)" d="M 0 0 M28.5662 182.451 L30.4759 182.451 L30.4759 175.859 L28.3983 176.276 L28.3983 175.211 L30.4643 174.794 L31.6333 174.794 L31.6333 182.451 L33.543 182.451 L33.543 183.434 L28.5662 183.434 L28.5662 182.451 Z" fill="#000000" fill-rule="evenodd" fill-opacity="1" /><path clip-path="url(#clip510)" d="M 0 0 M35.0129 182.451 L36.9226 182.451 L36.9226 175.859 L34.8451 176.276 L34.8451 175.211 L36.911 174.794 L38.08 174.794 L38.08 182.451 L39.9897 182.451 L39.9897 183.434 L35.0129 183.434 L35.0129 182.451 Z" fill="#000000" fill-rule="evenodd" fill-opacity="1" /><path clip-path="url(#clip510)" d="M 0 0 M43.757 175.564 Q42.8543 175.564 42.3971 176.455 Q41.9457 177.341 41.9457 179.123 Q41.9457 180.9 42.3971 181.791 Q42.8543 182.676 43.757 182.676 Q44.6656 182.676 45.117 181.791 Q45.5742 180.9 45.5742 179.123 Q45.5742 177.341 45.117 176.455 Q44.6656 175.564 43.757 175.564 M43.757 174.638 Q45.2096 174.638 45.9735 175.79 Q46.7431 176.936 46.7431 179.123 Q46.7431 181.305 45.9735 182.456 Q45.2096 183.602 43.757 183.602 Q42.3045 183.602 41.5348 182.456 Q40.771 181.305 40.771 179.123 Q40.771 176.936 41.5348 175.79 Q42.3045 174.638 43.757 174.638 Z" fill="#000000" fill-rule="evenodd" fill-opacity="1" /><path clip-path="url(#clip510)" d="M 0 0 M50.5105 175.564 Q49.6077 175.564 49.1505 176.455 Q48.6991 177.341 48.6991 179.123 Q48.6991 180.9 49.1505 181.791 Q49.6077 182.676 50.5105 182.676 Q51.419 182.676 51.8704 181.791 Q52.3276 180.9 52.3276 179.123 Q52.3276 177.341 51.8704 176.455 Q51.419 175.564 50.5105 175.564 M50.5105 174.638 Q51.963 174.638 52.7269 175.79 Q53.4966 176.936 53.4966 179.123 Q53.4966 181.305 52.7269 182.456 Q51.963 183.602 50.5105 183.602 Q49.0579 183.602 48.2883 182.456 Q47.5244 181.305 47.5244 179.123 Q47.5244 176.936 48.2883 175.79 Q49.0579 174.638 50.5105 174.638 Z" fill="#000000" fill-rule="evenodd" fill-opacity="1" /><path clip-path="url(#clip510)" d="M 0 0 M28.6587 129.635 L30.5685 129.635 L30.5685 123.043 L28.4909 123.46 L28.4909 122.395 L30.5569 121.978 L31.7259 121.978 L31.7259 129.635 L33.6356 129.635 L33.6356 130.618 L28.6587 130.618 L28.6587 129.635 Z" fill="#000000" fill-rule="evenodd" fill-opacity="1" /><path clip-path="url(#clip510)" d="M 0 0 M35.9099 129.635 L39.9897 129.635 L39.9897 130.618 L34.5036 130.618 L34.5036 129.635 Q35.1691 128.946 36.315 127.789 Q37.4666 126.625 37.7617 126.29 Q38.323 125.659 38.543 125.225 Q38.7686 124.785 38.7686 124.363 Q38.7686 123.674 38.2825 123.24 Q37.8022 122.806 37.0268 122.806 Q36.477 122.806 35.8636 122.997 Q35.2559 123.188 34.5615 123.576 L34.5615 122.395 Q35.2675 122.111 35.8809 121.967 Q36.4944 121.822 37.0036 121.822 Q38.3462 121.822 39.1448 122.493 Q39.9434 123.165 39.9434 124.287 Q39.9434 124.82 39.7409 125.3 Q39.5441 125.775 39.0175 126.423 Q38.8728 126.591 38.0974 127.395 Q37.3219 128.194 35.9099 129.635 Z" fill="#000000" fill-rule="evenodd" fill-opacity="1" /><path clip-path="url(#clip510)" d="M 0 0 M43.757 122.748 Q42.8543 122.748 42.3971 123.639 Q41.9457 124.525 41.9457 126.307 Q41.9457 128.084 42.3971 128.975 Q42.8543 129.86 43.757 129.86 Q44.6656 129.86 45.117 128.975 Q45.5742 128.084 45.5742 126.307 Q45.5742 124.525 45.117 123.639 Q44.6656 122.748 43.757 122.748 M43.757 121.822 Q45.2096 121.822 45.9735 122.974 Q46.7431 124.12 46.7431 126.307 Q46.7431 128.489 45.9735 129.64 Q45.2096 130.786 43.757 130.786 Q42.3045 130.786 41.5348 129.64 Q40.771 128.489 40.771 126.307 Q40.771 124.12 41.5348 122.974 Q42.3045 121.822 43.757 121.822 Z" fill="#000000" fill-rule="evenodd" fill-opacity="1" /><path clip-path="url(#clip510)" d="M 0 0 M50.5105 122.748 Q49.6077 122.748 49.1505 123.639 Q48.6991 124.525 48.6991 126.307 Q48.6991 128.084 49.1505 128.975 Q49.6077 129.86 50.5105 129.86 Q51.419 129.86 51.8704 128.975 Q52.3276 128.084 52.3276 126.307 Q52.3276 124.525 51.8704 123.639 Q51.419 122.748 50.5105 122.748 M50.5105 121.822 Q51.963 121.822 52.7269 122.974 Q53.4966 124.12 53.4966 126.307 Q53.4966 128.489 52.7269 129.64 Q51.963 130.786 50.5105 130.786 Q49.0579 130.786 48.2883 129.64 Q47.5244 128.489 47.5244 126.307 Q47.5244 124.12 48.2883 122.974 Q49.0579 121.822 50.5105 121.822 Z" fill="#000000" fill-rule="evenodd" fill-opacity="1" /><path clip-path="url(#clip510)" d="M 0 0 M28.4215 76.8186 L30.3312 76.8186 L30.3312 70.2272 L28.2537 70.6439 L28.2537 69.5791 L30.3196 69.1624 L31.4886 69.1624 L31.4886 76.8186 L33.3983 76.8186 L33.3983 77.8024 L28.4215 77.8024 L28.4215 76.8186 Z" fill="#000000" fill-rule="evenodd" fill-opacity="1" /><path clip-path="url(#clip510)" d="M 0 0 M38.2073 73.1439 Q39.0464 73.3233 39.5152 73.8904 Q39.9897 74.4575 39.9897 75.2908 Q39.9897 76.5698 39.1101 77.27 Q38.2305 77.9702 36.6101 77.9702 Q36.0661 77.9702 35.4874 77.8603 Q34.9145 77.7561 34.3011 77.542 L34.3011 76.4135 Q34.7872 76.6971 35.3659 76.8418 Q35.9446 76.9864 36.5754 76.9864 Q37.6749 76.9864 38.2478 76.5524 Q38.8265 76.1184 38.8265 75.2908 Q38.8265 74.527 38.2883 74.0987 Q37.7559 73.6647 36.8011 73.6647 L35.7941 73.6647 L35.7941 72.7041 L36.8474 72.7041 Q37.7096 72.7041 38.1668 72.3626 Q38.624 72.0154 38.624 71.3673 Q38.624 70.7017 38.1494 70.3487 Q37.6807 69.9899 36.8011 69.9899 Q36.3207 69.9899 35.771 70.0941 Q35.2212 70.1983 34.5615 70.4182 L34.5615 69.3765 Q35.227 69.1913 35.8057 69.0987 Q36.3902 69.0062 36.9052 69.0062 Q38.2362 69.0062 39.0117 69.6138 Q39.7872 70.2156 39.7872 71.2457 Q39.7872 71.9633 39.3763 72.461 Q38.9654 72.9529 38.2073 73.1439 Z" fill="#000000" fill-rule="evenodd" fill-opacity="1" /><path clip-path="url(#clip510)" d="M 0 0 M43.757 69.9321 Q42.8543 69.9321 42.3971 70.8233 Q41.9457 71.7087 41.9457 73.4911 Q41.9457 75.2677 42.3971 76.1589 Q42.8543 77.0443 43.757 77.0443 Q44.6656 77.0443 45.117 76.1589 Q45.5742 75.2677 45.5742 73.4911 Q45.5742 71.7087 45.117 70.8233 Q44.6656 69.9321 43.757 69.9321 M43.757 69.0062 Q45.2096 69.0062 45.9735 70.1578 Q46.7431 71.3036 46.7431 73.4911 Q46.7431 75.6728 45.9735 76.8244 Q45.2096 77.9702 43.757 77.9702 Q42.3045 77.9702 41.5348 76.8244 Q40.771 75.6728 40.771 73.4911 Q40.771 71.3036 41.5348 70.1578 Q42.3045 69.0062 43.757 69.0062 Z" fill="#000000" fill-rule="evenodd" fill-opacity="1" /><path clip-path="url(#clip510)" d="M 0 0 M50.5105 69.9321 Q49.6077 69.9321 49.1505 70.8233 Q48.6991 71.7087 48.6991 73.4911 Q48.6991 75.2677 49.1505 76.1589 Q49.6077 77.0443 50.5105 77.0443 Q51.419 77.0443 51.8704 76.1589 Q52.3276 75.2677 52.3276 73.4911 Q52.3276 71.7087 51.8704 70.8233 Q51.419 69.9321 50.5105 69.9321 M50.5105 69.0062 Q51.963 69.0062 52.7269 70.1578 Q53.4966 71.3036 53.4966 73.4911 Q53.4966 75.6728 52.7269 76.8244 Q51.963 77.9702 50.5105 77.9702 Q49.0579 77.9702 48.2883 76.8244 Q47.5244 75.6728 47.5244 73.4911 Q47.5244 71.3036 48.2883 70.1578 Q49.0579 69.0062 50.5105 69.0062 Z" fill="#000000" fill-rule="evenodd" fill-opacity="1" /><g clip-path="url(#clip510)">
<text style="fill:#000000; fill-opacity:1; font-family:Arial,Helvetica Neue,Helvetica,sans-serif; font-size:16px; text-anchor:middle;" transform="rotate(-90, 18.0011, 142.973)" x="18.0011" y="142.973">population (millions)</text>
</g>
<g clip-path="url(#clip510)">
<text style="fill:#000000; fill-opacity:1; font-family:Arial,Helvetica Neue,Helvetica,sans-serif; font-size:18px; font-weight:bold; text-anchor:middle;" transform="rotate(0, 264.443, 15.6)" x="264.443" y="15.6">Population of China</text>
</g>
<circle clip-path="url(#clip512)" cx="94.1966" cy="227.61" r="3" fill="#009af9" fill-rule="evenodd" fill-opacity="1" stroke="#000000" stroke-opacity="1" stroke-width="0.6"/>
<circle clip-path="url(#clip512)" cx="291.902" cy="93.2145" r="3" fill="#009af9" fill-rule="evenodd" fill-opacity="1" stroke="#000000" stroke-opacity="1" stroke-width="0.6"/>
<circle clip-path="url(#clip512)" cx="401.738" cy="53.5074" r="3" fill="#009af9" fill-rule="evenodd" fill-opacity="1" stroke="#000000" stroke-opacity="1" stroke-width="0.6"/>
<circle clip-path="url(#clip512)" cx="456.656" cy="34.0711" r="3" fill="#009af9" fill-rule="evenodd" fill-opacity="1" stroke="#000000" stroke-opacity="1" stroke-width="0.6"/>
<polyline clip-path="url(#clip512)" style="stroke:#e26f46; stroke-width:2; stroke-opacity:1; fill:none" points="
  72.2294,251.874 72.9998,250.982 73.7702,250.093 74.5406,249.207 75.311,248.324 76.0814,247.444 76.8517,246.567 77.6221,245.693 78.3925,244.822 79.1629,243.954 
  79.9333,243.089 80.7037,242.227 81.4741,241.368 82.2445,240.512 83.0149,239.659 83.7853,238.809 84.5557,237.962 85.3261,237.118 86.0965,236.277 86.8669,235.439 
  87.6373,234.603 88.4077,233.771 89.1781,232.942 89.9485,232.115 90.7188,231.292 91.4892,230.471 92.2596,229.653 93.03,228.838 93.8004,228.026 94.5708,227.217 
  95.3412,226.411 96.1116,225.608 96.882,224.807 97.6524,224.009 98.4228,223.214 99.1932,222.422 99.9636,221.633 100.734,220.847 101.504,220.063 102.275,219.282 
  103.045,218.504 103.816,217.729 104.586,216.956 105.356,216.186 106.127,215.419 106.897,214.655 107.668,213.894 108.438,213.135 109.208,212.379 109.979,211.625 
  110.749,210.875 111.519,210.127 112.29,209.382 113.06,208.639 113.831,207.899 114.601,207.162 115.371,206.427 116.142,205.696 116.912,204.966 117.683,204.24 
  118.453,203.516 119.223,202.794 119.994,202.076 120.764,201.36 121.535,200.646 122.305,199.935 123.075,199.227 123.846,198.521 124.616,197.818 125.387,197.118 
  126.157,196.42 126.927,195.724 127.698,195.031 128.468,194.341 129.239,193.653 130.009,192.968 130.779,192.285 131.55,191.605 132.32,190.927 133.091,190.252 
  133.861,189.579 134.631,188.909 135.402,188.241 136.172,187.576 136.943,186.913 137.713,186.252 138.483,185.594 139.254,184.939 140.024,184.286 140.794,183.635 
  141.565,182.986 142.335,182.341 143.106,181.697 143.876,181.056 144.646,180.417 145.417,179.781 146.187,179.147 146.958,178.515 147.728,177.886 148.498,177.259 
  149.269,176.634 150.039,176.012 150.81,175.392 151.58,174.774 152.35,174.159 153.121,173.546 153.891,172.935 154.662,172.327 155.432,171.72 156.202,171.117 
  156.973,170.515 157.743,169.915 158.514,169.318 159.284,168.723 160.054,168.131 160.825,167.54 161.595,166.952 162.366,166.366 163.136,165.782 163.906,165.2 
  164.677,164.621 165.447,164.044 166.217,163.469 166.988,162.896 167.758,162.325 168.529,161.756 169.299,161.19 170.069,160.625 170.84,160.063 171.61,159.503 
  172.381,158.945 173.151,158.389 173.921,157.835 174.692,157.284 175.462,156.734 176.233,156.187 177.003,155.641 177.773,155.098 178.544,154.556 179.314,154.017 
  180.085,153.48 180.855,152.944 181.625,152.411 182.396,151.88 183.166,151.351 183.937,150.824 184.707,150.298 185.477,149.775 186.248,149.254 187.018,148.735 
  187.789,148.217 188.559,147.702 189.329,147.189 190.1,146.677 190.87,146.168 191.641,145.66 192.411,145.154 193.181,144.65 193.952,144.149 194.722,143.649 
  195.492,143.15 196.263,142.654 197.033,142.16 197.804,141.667 198.574,141.177 199.344,140.688 200.115,140.201 200.885,139.716 201.656,139.233 202.426,138.751 
  203.196,138.272 203.967,137.794 204.737,137.318 205.508,136.844 206.278,136.371 207.048,135.9 207.819,135.432 208.589,134.964 209.36,134.499 210.13,134.035 
  210.9,133.573 211.671,133.113 212.441,132.655 213.212,132.198 213.982,131.743 214.752,131.29 215.523,130.838 216.293,130.388 217.064,129.94 217.834,129.493 
  218.604,129.048 219.375,128.605 220.145,128.163 220.915,127.723 221.686,127.285 222.456,126.848 223.227,126.413 223.997,125.98 224.767,125.548 225.538,125.117 
  226.308,124.689 227.079,124.261 227.849,123.836 228.619,123.412 229.39,122.989 230.16,122.569 230.931,122.149 231.701,121.731 232.471,121.315 233.242,120.9 
  234.012,120.487 234.783,120.075 235.553,119.665 236.323,119.256 237.094,118.849 237.864,118.443 238.635,118.039 239.405,117.636 240.175,117.235 240.946,116.835 
  241.716,116.436 242.487,116.039 243.257,115.643 244.027,115.249 244.798,114.856 245.568,114.465 246.339,114.075 247.109,113.686 247.879,113.299 248.65,112.913 
  249.42,112.529 250.19,112.145 250.961,111.764 251.731,111.383 252.502,111.004 253.272,110.626 254.042,110.249 254.813,109.874 255.583,109.5 256.354,109.128 
  257.124,108.756 257.894,108.386 258.665,108.018 259.435,107.65 260.206,107.284 260.976,106.919 261.746,106.555 262.517,106.193 263.287,105.831 264.058,105.471 
  264.828,105.113 265.598,104.755 266.369,104.399 267.139,104.043 267.91,103.689 268.68,103.336 269.45,102.985 270.221,102.634 270.991,102.285 271.762,101.936 
  272.532,101.589 273.302,101.243 274.073,100.899 274.843,100.555 275.613,100.212 276.384,99.8707 277.154,99.5303 277.925,99.1909 278.695,98.8527 279.465,98.5155 
  280.236,98.1794 281.006,97.8443 281.777,97.5103 282.547,97.1773 283.317,96.8454 284.088,96.5145 284.858,96.1846 285.629,95.8557 286.399,95.5278 287.169,95.201 
  287.94,94.8751 288.71,94.5502 289.481,94.2262 290.251,93.9033 291.021,93.5813 291.792,93.2602 292.562,92.9401 293.333,92.621 294.103,92.3027 294.873,91.9854 
  295.644,91.669 296.414,91.3535 297.185,91.039 297.955,90.7253 298.725,90.4124 299.496,90.1005 300.266,89.7894 301.037,89.4792 301.807,89.1699 302.577,88.8614 
  303.348,88.5537 304.118,88.2469 304.888,87.9409 305.659,87.6357 306.429,87.3314 307.2,87.0278 307.97,86.725 308.74,86.423 309.511,86.1218 310.281,85.8214 
  311.052,85.5217 311.822,85.2228 312.592,84.9246 313.363,84.6272 314.133,84.3305 314.904,84.0346 315.674,83.7394 316.444,83.4448 317.215,83.151 317.985,82.8579 
  318.756,82.5655 319.526,82.2737 320.296,81.9827 321.067,81.6923 321.837,81.4025 322.608,81.1134 323.378,80.825 324.148,80.5372 324.919,80.25 325.689,79.9635 
  326.46,79.6775 327.23,79.3922 328,79.1075 328.771,78.8234 329.541,78.5398 330.311,78.2569 331.082,77.9745 331.852,77.6926 332.623,77.4113 333.393,77.1306 
  334.163,76.8504 334.934,76.5708 335.704,76.2916 336.475,76.013 337.245,75.7349 338.015,75.4573 338.786,75.1802 339.556,74.9036 340.327,74.6275 341.097,74.3518 
  341.867,74.0766 342.638,73.8019 343.408,73.5276 344.179,73.2538 344.949,72.9804 345.719,72.7074 346.49,72.4349 347.26,72.1627 348.031,71.891 348.801,71.6197 
  349.571,71.3487 350.342,71.0782 351.112,70.808 351.883,70.5382 352.653,70.2687 353.423,69.9996 354.194,69.7309 354.964,69.4624 355.735,69.1944 356.505,68.9266 
  357.275,68.6591 358.046,68.392 358.816,68.1252 359.586,67.8586 360.357,67.5924 361.127,67.3264 361.898,67.0607 362.668,66.7953 363.438,66.5301 364.209,66.2652 
  364.979,66.0005 365.75,65.736 366.52,65.4718 367.29,65.2078 368.061,64.944 368.831,64.6804 369.602,64.417 370.372,64.1538 371.142,63.8907 371.913,63.6279 
  372.683,63.3652 373.454,63.1027 374.224,62.8403 374.994,62.578 375.765,62.3159 376.535,62.054 377.306,61.7921 378.076,61.5304 378.846,61.2688 379.617,61.0073 
  380.387,60.7458 381.158,60.4845 381.928,60.2232 382.698,59.962 383.469,59.7009 384.239,59.4398 385.009,59.1787 385.78,58.9177 386.55,58.6568 387.321,58.3958 
  388.091,58.1349 388.861,57.874 389.632,57.6131 390.402,57.3521 391.173,57.0912 391.943,56.8302 392.713,56.5693 393.484,56.3082 394.254,56.0472 395.025,55.7861 
  395.795,55.5249 396.565,55.2637 397.336,55.0024 398.106,54.741 398.877,54.4795 399.647,54.2179 400.417,53.9562 401.188,53.6945 401.958,53.4326 402.729,53.1705 
  403.499,52.9084 404.269,52.6461 405.04,52.3836 405.81,52.121 406.581,51.8583 407.351,51.5953 408.121,51.3322 408.892,51.0689 409.662,50.8054 410.433,50.5417 
  411.203,50.2778 411.973,50.0137 412.744,49.7494 413.514,49.4848 414.284,49.22 415.055,48.955 415.825,48.6897 416.596,48.4241 417.366,48.1583 418.136,47.8922 
  418.907,47.6258 419.677,47.3591 420.448,47.0921 421.218,46.8249 421.988,46.5573 422.759,46.2894 423.529,46.0211 424.3,45.7526 425.07,45.4836 425.84,45.2144 
  426.611,44.9448 427.381,44.6748 428.152,44.4044 428.922,44.1337 429.692,43.8625 430.463,43.591 431.233,43.3191 432.004,43.0468 432.774,42.774 433.544,42.5009 
  434.315,42.2273 435.085,41.9532 435.856,41.6787 436.626,41.4038 437.396,41.1284 438.167,40.8525 438.937,40.5761 439.707,40.2993 440.478,40.022 441.248,39.7441 
  442.019,39.4658 442.789,39.1869 443.559,38.9076 444.33,38.6277 445.1,38.3472 445.871,38.0662 446.641,37.7847 447.411,37.5026 448.182,37.2199 448.952,36.9367 
  449.723,36.6529 450.493,36.3685 451.263,36.0835 452.034,35.7979 452.804,35.5117 453.575,35.2248 454.345,34.9374 455.115,34.6493 455.886,34.3605 456.656,34.0711 
  
  "/>
<path clip-path="url(#clip510)" d="
M74.2797 80.5927 L175.737 80.5927 L175.737 35.2327 L74.2797 35.2327  Z
  " fill="#ffffff" fill-rule="evenodd" fill-opacity="1"/>
<polyline clip-path="url(#clip510)" style="stroke:#000000; stroke-width:1; stroke-opacity:1; fill:none" points="
  74.2797,80.5927 175.737,80.5927 175.737,35.2327 74.2797,35.2327 74.2797,80.5927 
  "/>
<circle clip-path="url(#clip510)" cx="92.3904" cy="50.3527" r="5" fill="#009af9" fill-rule="evenodd" fill-opacity="1" stroke="#000000" stroke-opacity="1" stroke-width="0.96"/>
<path clip-path="url(#clip510)" d="M 0 0 M113.852 51.4147 Q112.561 51.4147 112.064 51.7098 Q111.566 52.0049 111.566 52.7167 Q111.566 53.2839 111.936 53.6195 Q112.313 53.9494 112.955 53.9494 Q113.84 53.9494 114.373 53.3244 Q114.911 52.6936 114.911 51.6519 L114.911 51.4147 L113.852 51.4147 M115.976 50.9748 L115.976 54.6727 L114.911 54.6727 L114.911 53.6889 Q114.546 54.2792 114.002 54.5628 Q113.458 54.8406 112.671 54.8406 Q111.676 54.8406 111.086 54.285 Q110.501 53.7237 110.501 52.7862 Q110.501 51.6924 111.23 51.1369 Q111.965 50.5813 113.418 50.5813 L114.911 50.5813 L114.911 50.4772 Q114.911 49.7422 114.425 49.3429 Q113.944 48.9378 113.071 48.9378 Q112.515 48.9378 111.988 49.0709 Q111.462 49.204 110.976 49.4702 L110.976 48.4864 Q111.56 48.2607 112.11 48.1508 Q112.66 48.035 113.181 48.035 Q114.587 48.035 115.281 48.7642 Q115.976 49.4934 115.976 50.9748 Z" fill="#000000" fill-rule="evenodd" fill-opacity="1" /><path clip-path="url(#clip510)" d="M 0 0 M121.757 48.4401 L121.757 49.4355 Q121.306 49.1867 120.848 49.0651 Q120.397 48.9378 119.934 48.9378 Q118.898 48.9378 118.325 49.5975 Q117.752 50.2515 117.752 51.4378 Q117.752 52.6241 118.325 53.2839 Q118.898 53.9378 119.934 53.9378 Q120.397 53.9378 120.848 53.8163 Q121.306 53.6889 121.757 53.4401 L121.757 54.4239 Q121.311 54.6322 120.831 54.7364 Q120.356 54.8406 119.818 54.8406 Q118.354 54.8406 117.492 53.9204 Q116.63 53.0003 116.63 51.4378 Q116.63 49.8522 117.498 48.9436 Q118.372 48.035 119.888 48.035 Q120.38 48.035 120.848 48.1392 Q121.317 48.2376 121.757 48.4401 Z" fill="#000000" fill-rule="evenodd" fill-opacity="1" /><path clip-path="url(#clip510)" d="M 0 0 M123.927 46.351 L123.927 48.1913 L126.12 48.1913 L126.12 49.0188 L123.927 49.0188 L123.927 52.5373 Q123.927 53.3302 124.141 53.5558 Q124.361 53.7815 125.027 53.7815 L126.12 53.7815 L126.12 54.6727 L125.027 54.6727 Q123.794 54.6727 123.325 54.2156 Q122.856 53.7526 122.856 52.5373 L122.856 49.0188 L122.075 49.0188 L122.075 48.1913 L122.856 48.1913 L122.856 46.351 L123.927 46.351 Z" fill="#000000" fill-rule="evenodd" fill-opacity="1" /><path clip-path="url(#clip510)" d="M 0 0 M127.127 52.1149 L127.127 48.1913 L128.192 48.1913 L128.192 52.0744 Q128.192 52.9945 128.551 53.4575 Q128.91 53.9146 129.627 53.9146 Q130.49 53.9146 130.987 53.3649 Q131.491 52.8151 131.491 51.866 L131.491 48.1913 L132.555 48.1913 L132.555 54.6727 L131.491 54.6727 L131.491 53.6774 Q131.103 54.2676 130.588 54.557 Q130.079 54.8406 129.402 54.8406 Q128.285 54.8406 127.706 54.1461 Q127.127 53.4517 127.127 52.1149 M129.807 48.035 L129.807 48.035 Z" fill="#000000" fill-rule="evenodd" fill-opacity="1" /><path clip-path="url(#clip510)" d="M 0 0 M136.618 51.4147 Q135.327 51.4147 134.83 51.7098 Q134.332 52.0049 134.332 52.7167 Q134.332 53.2839 134.702 53.6195 Q135.079 53.9494 135.721 53.9494 Q136.606 53.9494 137.139 53.3244 Q137.677 52.6936 137.677 51.6519 L137.677 51.4147 L136.618 51.4147 M138.742 50.9748 L138.742 54.6727 L137.677 54.6727 L137.677 53.6889 Q137.312 54.2792 136.768 54.5628 Q136.224 54.8406 135.437 54.8406 Q134.442 54.8406 133.852 54.285 Q133.267 53.7237 133.267 52.7862 Q133.267 51.6924 133.996 51.1369 Q134.731 50.5813 136.184 50.5813 L137.677 50.5813 L137.677 50.4772 Q137.677 49.7422 137.191 49.3429 Q136.711 48.9378 135.837 48.9378 Q135.281 48.9378 134.755 49.0709 Q134.228 49.204 133.742 49.4702 L133.742 48.4864 Q134.326 48.2607 134.876 48.1508 Q135.426 48.035 135.947 48.035 Q137.353 48.035 138.047 48.7642 Q138.742 49.4934 138.742 50.9748 Z" fill="#000000" fill-rule="evenodd" fill-opacity="1" /><path clip-path="url(#clip510)" d="M 0 0 M139.859 45.6682 L140.923 45.6682 L140.923 54.6727 L139.859 54.6727 L139.859 45.6682 Z" fill="#000000" fill-rule="evenodd" fill-opacity="1" /><polyline clip-path="url(#clip510)" style="stroke:#e26f46; stroke-width:1; stroke-opacity:1; fill:none" points="
  78.8073,65.4727 105.974,65.4727 
  "/>
<path clip-path="url(#clip510)" d="M 0 0 M110.501 63.3113 L111.566 63.3113 L111.566 69.7927 L110.501 69.7927 L110.501 63.3113 M110.501 60.7882 L111.566 60.7882 L111.566 62.1365 L110.501 62.1365 L110.501 60.7882 Z" fill="#000000" fill-rule="evenodd" fill-opacity="1" /><path clip-path="url(#clip510)" d="M 0 0 M118.071 65.8807 L118.071 69.7927 L117.006 69.7927 L117.006 65.9154 Q117.006 64.9953 116.647 64.5381 Q116.288 64.081 115.571 64.081 Q114.708 64.081 114.211 64.6307 Q113.713 65.1805 113.713 66.1296 L113.713 69.7927 L112.642 69.7927 L112.642 63.3113 L113.713 63.3113 L113.713 64.3182 Q114.095 63.7337 114.61 63.4444 Q115.131 63.155 115.808 63.155 Q116.925 63.155 117.498 63.8495 Q118.071 64.5381 118.071 65.8807 Z" fill="#000000" fill-rule="evenodd" fill-opacity="1" /><path clip-path="url(#clip510)" d="M 0 0 M120.241 61.471 L120.241 63.3113 L122.434 63.3113 L122.434 64.1388 L120.241 64.1388 L120.241 67.6573 Q120.241 68.4502 120.455 68.6758 Q120.675 68.9015 121.34 68.9015 L122.434 68.9015 L122.434 69.7927 L121.34 69.7927 Q120.108 69.7927 119.639 69.3356 Q119.17 68.8726 119.17 67.6573 L119.17 64.1388 L118.389 64.1388 L118.389 63.3113 L119.17 63.3113 L119.17 61.471 L120.241 61.471 Z" fill="#000000" fill-rule="evenodd" fill-opacity="1" /><path clip-path="url(#clip510)" d="M 0 0 M129.095 66.2858 L129.095 66.8066 L124.199 66.8066 Q124.268 67.9062 124.859 68.4849 Q125.455 69.0578 126.514 69.0578 Q127.127 69.0578 127.7 68.9073 Q128.279 68.7569 128.846 68.4559 L128.846 69.4629 Q128.273 69.7059 127.671 69.8332 Q127.069 69.9606 126.45 69.9606 Q124.899 69.9606 123.991 69.0578 Q123.088 68.155 123.088 66.6157 Q123.088 65.0242 123.944 64.0925 Q124.807 63.155 126.265 63.155 Q127.573 63.155 128.331 63.9999 Q129.095 64.8391 129.095 66.2858 M128.03 65.9733 Q128.018 65.0995 127.538 64.5786 Q127.064 64.0578 126.277 64.0578 Q125.385 64.0578 124.847 64.5613 Q124.315 65.0648 124.234 65.9791 L128.03 65.9733 Z" fill="#000000" fill-rule="evenodd" fill-opacity="1" /><path clip-path="url(#clip510)" d="M 0 0 M133.968 64.3067 Q133.788 64.2025 133.574 64.1562 Q133.366 64.1041 133.111 64.1041 Q132.208 64.1041 131.722 64.6944 Q131.242 65.2789 131.242 66.3784 L131.242 69.7927 L130.171 69.7927 L130.171 63.3113 L131.242 63.3113 L131.242 64.3182 Q131.577 63.728 132.116 63.4444 Q132.654 63.155 133.424 63.155 Q133.533 63.155 133.667 63.1724 Q133.8 63.184 133.962 63.2129 L133.968 64.3067 Z" fill="#000000" fill-rule="evenodd" fill-opacity="1" /><path clip-path="url(#clip510)" d="M 0 0 M136.114 68.8205 L136.114 72.258 L135.044 72.258 L135.044 63.3113 L136.114 63.3113 L136.114 64.2951 Q136.45 63.7164 136.959 63.4386 Q137.474 63.155 138.186 63.155 Q139.367 63.155 140.102 64.0925 Q140.842 65.03 140.842 66.5578 Q140.842 68.0856 140.102 69.0231 Q139.367 69.9606 138.186 69.9606 Q137.474 69.9606 136.959 69.6828 Q136.45 69.3992 136.114 68.8205 M139.737 66.5578 Q139.737 65.383 139.251 64.7175 Q138.771 64.0462 137.926 64.0462 Q137.081 64.0462 136.595 64.7175 Q136.114 65.383 136.114 66.5578 Q136.114 67.7326 136.595 68.4039 Q137.081 69.0694 137.926 69.0694 Q138.771 69.0694 139.251 68.4039 Q139.737 67.7326 139.737 66.5578 Z" fill="#000000" fill-rule="evenodd" fill-opacity="1" /><path clip-path="url(#clip510)" d="M 0 0 M144.471 64.0578 Q143.614 64.0578 143.117 64.7291 Q142.619 65.3946 142.619 66.5578 Q142.619 67.721 143.111 68.3923 Q143.609 69.0578 144.471 69.0578 Q145.322 69.0578 145.819 68.3865 Q146.317 67.7152 146.317 66.5578 Q146.317 65.4062 145.819 64.7349 Q145.322 64.0578 144.471 64.0578 M144.471 63.155 Q145.86 63.155 146.653 64.0578 Q147.445 64.9606 147.445 66.5578 Q147.445 68.1492 146.653 69.0578 Q145.86 69.9606 144.471 69.9606 Q143.076 69.9606 142.283 69.0578 Q141.496 68.1492 141.496 66.5578 Q141.496 64.9606 142.283 64.0578 Q143.076 63.155 144.471 63.155 Z" fill="#000000" fill-rule="evenodd" fill-opacity="1" /><path clip-path="url(#clip510)" d="M 0 0 M148.562 60.7882 L149.627 60.7882 L149.627 69.7927 L148.562 69.7927 L148.562 60.7882 Z" fill="#000000" fill-rule="evenodd" fill-opacity="1" /><path clip-path="url(#clip510)" d="M 0 0 M153.69 66.5347 Q152.399 66.5347 151.901 66.8298 Q151.404 67.1249 151.404 67.8367 Q151.404 68.4039 151.774 68.7395 Q152.15 69.0694 152.793 69.0694 Q153.678 69.0694 154.21 68.4444 Q154.749 67.8136 154.749 66.7719 L154.749 66.5347 L153.69 66.5347 M155.813 66.0948 L155.813 69.7927 L154.749 69.7927 L154.749 68.8089 Q154.384 69.3992 153.84 69.6828 Q153.296 69.9606 152.509 69.9606 Q151.514 69.9606 150.923 69.405 Q150.339 68.8437 150.339 67.9062 Q150.339 66.8124 151.068 66.2569 Q151.803 65.7013 153.256 65.7013 L154.749 65.7013 L154.749 65.5972 Q154.749 64.8622 154.263 64.4629 Q153.782 64.0578 152.908 64.0578 Q152.353 64.0578 151.826 64.1909 Q151.3 64.324 150.813 64.5902 L150.813 63.6064 Q151.398 63.3807 151.948 63.2708 Q152.498 63.155 153.018 63.155 Q154.425 63.155 155.119 63.8842 Q155.813 64.6134 155.813 66.0948 Z" fill="#000000" fill-rule="evenodd" fill-opacity="1" /><path clip-path="url(#clip510)" d="M 0 0 M162.318 65.8807 L162.318 69.7927 L161.253 69.7927 L161.253 65.9154 Q161.253 64.9953 160.894 64.5381 Q160.536 64.081 159.818 64.081 Q158.956 64.081 158.458 64.6307 Q157.96 65.1805 157.96 66.1296 L157.96 69.7927 L156.89 69.7927 L156.89 63.3113 L157.96 63.3113 L157.96 64.3182 Q158.342 63.7337 158.857 63.4444 Q159.378 63.155 160.055 63.155 Q161.172 63.155 161.745 63.8495 Q162.318 64.5381 162.318 65.8807 Z" fill="#000000" fill-rule="evenodd" fill-opacity="1" /><path clip-path="url(#clip510)" d="M 0 0 M164.488 61.471 L164.488 63.3113 L166.681 63.3113 L166.681 64.1388 L164.488 64.1388 L164.488 67.6573 Q164.488 68.4502 164.702 68.6758 Q164.922 68.9015 165.588 68.9015 L166.681 68.9015 L166.681 69.7927 L165.588 69.7927 Q164.355 69.7927 163.886 69.3356 Q163.418 68.8726 163.418 67.6573 L163.418 64.1388 L162.636 64.1388 L162.636 63.3113 L163.418 63.3113 L163.418 61.471 L164.488 61.471 Z" fill="#000000" fill-rule="evenodd" fill-opacity="1" /></svg>
