<?xml version="1.0" encoding="utf-8"?>
<svg xmlns="http://www.w3.org/2000/svg" xmlns:xlink="http://www.w3.org/1999/xlink" width="120" height="75" viewBox="0 0 480 300">
<defs>
  <clipPath id="clip470">
    <rect x="0" y="0" width="480" height="300"/>
  </clipPath>
</defs>
<path clip-path="url(#clip470)" d="
M0 300 L480 300 L480 0 L0 0  Z
  " fill="#ffffff" fill-rule="evenodd" fill-opacity="1"/>
<defs>
  <clipPath id="clip471">
    <rect x="96" y="0" width="337" height="300"/>
  </clipPath>
</defs>
<path clip-path="url(#clip470)" d="
M60.6966 258.408 L468.189 258.408 L468.189 27.537 L60.6966 27.537  Z
  " fill="#ffffff" fill-rule="evenodd" fill-opacity="1"/>
<defs>
  <clipPath id="clip472">
    <rect x="60" y="27" width="408" height="232"/>
  </clipPath>
</defs>
<polyline clip-path="url(#clip472)" style="stroke:#000000; stroke-width:0.5; stroke-opacity:0.1; fill:none" points="
  107.177,258.408 107.177,27.537 
  "/>
<polyline clip-path="url(#clip472)" style="stroke:#000000; stroke-width:0.5; stroke-opacity:0.1; fill:none" points="
  165.424,258.408 165.424,27.537 
  "/>
<polyline clip-path="url(#clip472)" style="stroke:#000000; stroke-width:0.5; stroke-opacity:0.1; fill:none" points="
  223.67,258.408 223.67,27.537 
  "/>
<polyline clip-path="url(#clip472)" style="stroke:#000000; stroke-width:0.5; stroke-opacity:0.1; fill:none" points="
  281.917,258.408 281.917,27.537 
  "/>
<polyline clip-path="url(#clip472)" style="stroke:#000000; stroke-width:0.5; stroke-opacity:0.1; fill:none" points="
  340.163,258.408 340.163,27.537 
  "/>
<polyline clip-path="url(#clip472)" style="stroke:#000000; stroke-width:0.5; stroke-opacity:0.1; fill:none" points="
  398.41,258.408 398.41,27.537 
  "/>
<polyline clip-path="url(#clip472)" style="stroke:#000000; stroke-width:0.5; stroke-opacity:0.1; fill:none" points="
  456.656,258.408 456.656,27.537 
  "/>
<polyline clip-path="url(#clip470)" style="stroke:#000000; stroke-width:1; stroke-opacity:1; fill:none" points="
  60.6966,258.408 468.189,258.408 
  "/>
<polyline clip-path="url(#clip470)" style="stroke:#000000; stroke-width:1; stroke-opacity:1; fill:none" points="
  107.177,258.408 107.177,255.638 
  "/>
<polyline clip-path="url(#clip470)" style="stroke:#000000; stroke-width:1; stroke-opacity:1; fill:none" points="
  165.424,258.408 165.424,255.638 
  "/>
<polyline clip-path="url(#clip470)" style="stroke:#000000; stroke-width:1; stroke-opacity:1; fill:none" points="
  223.67,258.408 223.67,255.638 
  "/>
<polyline clip-path="url(#clip470)" style="stroke:#000000; stroke-width:1; stroke-opacity:1; fill:none" points="
  281.917,258.408 281.917,255.638 
  "/>
<polyline clip-path="url(#clip470)" style="stroke:#000000; stroke-width:1; stroke-opacity:1; fill:none" points="
  340.163,258.408 340.163,255.638 
  "/>
<polyline clip-path="url(#clip470)" style="stroke:#000000; stroke-width:1; stroke-opacity:1; fill:none" points="
  398.41,258.408 398.41,255.638 
  "/>
<polyline clip-path="url(#clip470)" style="stroke:#000000; stroke-width:1; stroke-opacity:1; fill:none" points="
  456.656,258.408 456.656,255.638 
  "/>
<path clip-path="url(#clip470)" d="M 0 0 M104.747 263.976 L109.336 263.976 L109.336 264.96 L105.817 264.96 L105.817 267.078 Q106.072 266.991 106.327 266.951 Q106.581 266.905 106.836 266.905 Q108.283 266.905 109.127 267.697 Q109.972 268.49 109.972 269.844 Q109.972 271.239 109.104 272.015 Q108.236 272.784 106.656 272.784 Q106.112 272.784 105.545 272.692 Q104.984 272.599 104.382 272.414 L104.382 271.239 Q104.903 271.523 105.459 271.662 Q106.014 271.8 106.633 271.8 Q107.634 271.8 108.219 271.274 Q108.803 270.747 108.803 269.844 Q108.803 268.942 108.219 268.415 Q107.634 267.888 106.633 267.888 Q106.165 267.888 105.696 267.993 Q105.233 268.097 104.747 268.317 L104.747 263.976 Z" fill="#000000" fill-rule="evenodd" fill-opacity="1" /><path clip-path="url(#clip470)" d="M 0 0 M159.643 271.633 L161.552 271.633 L161.552 265.041 L159.475 265.458 L159.475 264.393 L161.541 263.976 L162.71 263.976 L162.71 271.633 L164.619 271.633 L164.619 272.616 L159.643 272.616 L159.643 271.633 Z" fill="#000000" fill-rule="evenodd" fill-opacity="1" /><path clip-path="url(#clip470)" d="M 0 0 M168.387 264.746 Q167.484 264.746 167.027 265.637 Q166.575 266.523 166.575 268.305 Q166.575 270.082 167.027 270.973 Q167.484 271.858 168.387 271.858 Q169.295 271.858 169.747 270.973 Q170.204 270.082 170.204 268.305 Q170.204 266.523 169.747 265.637 Q169.295 264.746 168.387 264.746 M168.387 263.82 Q169.839 263.82 170.603 264.972 Q171.373 266.118 171.373 268.305 Q171.373 270.487 170.603 271.638 Q169.839 272.784 168.387 272.784 Q166.934 272.784 166.164 271.638 Q165.401 270.487 165.401 268.305 Q165.401 266.118 166.164 264.972 Q166.934 263.82 168.387 263.82 Z" fill="#000000" fill-rule="evenodd" fill-opacity="1" /><path clip-path="url(#clip470)" d="M 0 0 M218.013 271.633 L219.923 271.633 L219.923 265.041 L217.846 265.458 L217.846 264.393 L219.912 263.976 L221.081 263.976 L221.081 271.633 L222.99 271.633 L222.99 272.616 L218.013 272.616 L218.013 271.633 Z" fill="#000000" fill-rule="evenodd" fill-opacity="1" /><path clip-path="url(#clip470)" d="M 0 0 M224.269 263.976 L228.858 263.976 L228.858 264.96 L225.34 264.96 L225.34 267.078 Q225.594 266.991 225.849 266.951 Q226.104 266.905 226.358 266.905 Q227.805 266.905 228.65 267.697 Q229.495 268.49 229.495 269.844 Q229.495 271.239 228.627 272.015 Q227.759 272.784 226.179 272.784 Q225.635 272.784 225.068 272.692 Q224.506 272.599 223.905 272.414 L223.905 271.239 Q224.425 271.523 224.981 271.662 Q225.537 271.8 226.156 271.8 Q227.157 271.8 227.741 271.274 Q228.326 270.747 228.326 269.844 Q228.326 268.942 227.741 268.415 Q227.157 267.888 226.156 267.888 Q225.687 267.888 225.218 267.993 Q224.755 268.097 224.269 268.317 L224.269 263.976 Z" fill="#000000" fill-rule="evenodd" fill-opacity="1" /><path clip-path="url(#clip470)" d="M 0 0 M277.203 271.633 L281.283 271.633 L281.283 272.616 L275.797 272.616 L275.797 271.633 Q276.462 270.944 277.608 269.787 Q278.76 268.623 279.055 268.288 Q279.616 267.657 279.836 267.223 Q280.062 266.783 280.062 266.361 Q280.062 265.672 279.576 265.238 Q279.096 264.804 278.32 264.804 Q277.77 264.804 277.157 264.995 Q276.549 265.186 275.855 265.574 L275.855 264.393 Q276.561 264.109 277.174 263.965 Q277.788 263.82 278.297 263.82 Q279.64 263.82 280.438 264.491 Q281.237 265.163 281.237 266.285 Q281.237 266.818 281.034 267.298 Q280.837 267.773 280.311 268.421 Q280.166 268.589 279.391 269.393 Q278.615 270.192 277.203 271.633 Z" fill="#000000" fill-rule="evenodd" fill-opacity="1" /><path clip-path="url(#clip470)" d="M 0 0 M285.05 264.746 Q284.148 264.746 283.69 265.637 Q283.239 266.523 283.239 268.305 Q283.239 270.082 283.69 270.973 Q284.148 271.858 285.05 271.858 Q285.959 271.858 286.41 270.973 Q286.868 270.082 286.868 268.305 Q286.868 266.523 286.41 265.637 Q285.959 264.746 285.05 264.746 M285.05 263.82 Q286.503 263.82 287.267 264.972 Q288.036 266.118 288.036 268.305 Q288.036 270.487 287.267 271.638 Q286.503 272.784 285.05 272.784 Q283.598 272.784 282.828 271.638 Q282.064 270.487 282.064 268.305 Q282.064 266.118 282.828 264.972 Q283.598 263.82 285.05 263.82 Z" fill="#000000" fill-rule="evenodd" fill-opacity="1" /><path clip-path="url(#clip470)" d="M 0 0 M335.574 271.633 L339.654 271.633 L339.654 272.616 L334.168 272.616 L334.168 271.633 Q334.833 270.944 335.979 269.787 Q337.131 268.623 337.426 268.288 Q337.987 267.657 338.207 267.223 Q338.433 266.783 338.433 266.361 Q338.433 265.672 337.947 265.238 Q337.466 264.804 336.691 264.804 Q336.141 264.804 335.528 264.995 Q334.92 265.186 334.226 265.574 L334.226 264.393 Q334.932 264.109 335.545 263.965 Q336.159 263.82 336.668 263.82 Q338.01 263.82 338.809 264.491 Q339.608 265.163 339.608 266.285 Q339.608 266.818 339.405 267.298 Q339.208 267.773 338.682 268.421 Q338.537 268.589 337.762 269.393 Q336.986 270.192 335.574 271.633 Z" fill="#000000" fill-rule="evenodd" fill-opacity="1" /><path clip-path="url(#clip470)" d="M 0 0 M340.933 263.976 L345.522 263.976 L345.522 264.96 L342.003 264.96 L342.003 267.078 Q342.258 266.991 342.513 266.951 Q342.767 266.905 343.022 266.905 Q344.469 266.905 345.314 267.697 Q346.159 268.49 346.159 269.844 Q346.159 271.239 345.29 272.015 Q344.422 272.784 342.843 272.784 Q342.299 272.784 341.731 272.692 Q341.17 272.599 340.568 272.414 L340.568 271.239 Q341.089 271.523 341.645 271.662 Q342.2 271.8 342.819 271.8 Q343.821 271.8 344.405 271.274 Q344.99 270.747 344.99 269.844 Q344.99 268.942 344.405 268.415 Q343.821 267.888 342.819 267.888 Q342.351 267.888 341.882 267.993 Q341.419 268.097 340.933 268.317 L340.933 263.976 Z" fill="#000000" fill-rule="evenodd" fill-opacity="1" /><path clip-path="url(#clip470)" d="M 0 0 M396.095 267.958 Q396.934 268.137 397.403 268.704 Q397.877 269.271 397.877 270.105 Q397.877 271.384 396.998 272.084 Q396.118 272.784 394.498 272.784 Q393.954 272.784 393.375 272.674 Q392.802 272.57 392.189 272.356 L392.189 271.227 Q392.675 271.511 393.253 271.656 Q393.832 271.8 394.463 271.8 Q395.562 271.8 396.135 271.366 Q396.714 270.932 396.714 270.105 Q396.714 269.341 396.176 268.913 Q395.644 268.479 394.689 268.479 L393.682 268.479 L393.682 267.518 L394.735 267.518 Q395.597 267.518 396.054 267.177 Q396.512 266.829 396.512 266.181 Q396.512 265.516 396.037 265.163 Q395.568 264.804 394.689 264.804 Q394.208 264.804 393.659 264.908 Q393.109 265.012 392.449 265.232 L392.449 264.19 Q393.115 264.005 393.693 263.913 Q394.278 263.82 394.793 263.82 Q396.124 263.82 396.899 264.428 Q397.675 265.03 397.675 266.06 Q397.675 266.777 397.264 267.275 Q396.853 267.767 396.095 267.958 Z" fill="#000000" fill-rule="evenodd" fill-opacity="1" /><path clip-path="url(#clip470)" d="M 0 0 M401.645 264.746 Q400.742 264.746 400.285 265.637 Q399.833 266.523 399.833 268.305 Q399.833 270.082 400.285 270.973 Q400.742 271.858 401.645 271.858 Q402.553 271.858 403.005 270.973 Q403.462 270.082 403.462 268.305 Q403.462 266.523 403.005 265.637 Q402.553 264.746 401.645 264.746 M401.645 263.82 Q403.097 263.82 403.861 264.972 Q404.631 266.118 404.631 268.305 Q404.631 270.487 403.861 271.638 Q403.097 272.784 401.645 272.784 Q400.192 272.784 399.422 271.638 Q398.659 270.487 398.659 268.305 Q398.659 266.118 399.422 264.972 Q400.192 263.82 401.645 263.82 Z" fill="#000000" fill-rule="evenodd" fill-opacity="1" /><path clip-path="url(#clip470)" d="M 0 0 M454.466 267.958 Q455.305 268.137 455.774 268.704 Q456.248 269.271 456.248 270.105 Q456.248 271.384 455.369 272.084 Q454.489 272.784 452.869 272.784 Q452.325 272.784 451.746 272.674 Q451.173 272.57 450.56 272.356 L450.56 271.227 Q451.046 271.511 451.624 271.656 Q452.203 271.8 452.834 271.8 Q453.933 271.8 454.506 271.366 Q455.085 270.932 455.085 270.105 Q455.085 269.341 454.547 268.913 Q454.014 268.479 453.06 268.479 L452.053 268.479 L452.053 267.518 L453.106 267.518 Q453.968 267.518 454.425 267.177 Q454.882 266.829 454.882 266.181 Q454.882 265.516 454.408 265.163 Q453.939 264.804 453.06 264.804 Q452.579 264.804 452.029 264.908 Q451.48 265.012 450.82 265.232 L450.82 264.19 Q451.485 264.005 452.064 263.913 Q452.649 263.82 453.164 263.82 Q454.495 263.82 455.27 264.428 Q456.046 265.03 456.046 266.06 Q456.046 266.777 455.635 267.275 Q455.224 267.767 454.466 267.958 Z" fill="#000000" fill-rule="evenodd" fill-opacity="1" /><path clip-path="url(#clip470)" d="M 0 0 M457.527 263.976 L462.116 263.976 L462.116 264.96 L458.598 264.96 L458.598 267.078 Q458.852 266.991 459.107 266.951 Q459.362 266.905 459.616 266.905 Q461.063 266.905 461.908 267.697 Q462.753 268.49 462.753 269.844 Q462.753 271.239 461.885 272.015 Q461.017 272.784 459.437 272.784 Q458.893 272.784 458.326 272.692 Q457.764 272.599 457.163 272.414 L457.163 271.239 Q457.683 271.523 458.239 271.662 Q458.794 271.8 459.414 271.8 Q460.415 271.8 460.999 271.274 Q461.584 270.747 461.584 269.844 Q461.584 268.942 460.999 268.415 Q460.415 267.888 459.414 267.888 Q458.945 267.888 458.476 267.993 Q458.013 268.097 457.527 268.317 L457.527 263.976 Z" fill="#000000" fill-rule="evenodd" fill-opacity="1" /><g clip-path="url(#clip470)">
<text style="fill:#000000; fill-opacity:1; font-family:Arial,Helvetica Neue,Helvetica,sans-serif; font-size:16px; text-anchor:middle;" transform="rotate(0, 264.443, 293.459)" x="264.443" y="293.459">years since 1980</text>
</g>
<polyline clip-path="url(#clip472)" style="stroke:#000000; stroke-width:0.5; stroke-opacity:0.1; fill:none" points="
  60.6966,256.736 468.189,256.736 
  "/>
<polyline clip-path="url(#clip472)" style="stroke:#000000; stroke-width:0.5; stroke-opacity:0.1; fill:none" points="
  60.6966,197.299 468.189,197.299 
  "/>
<polyline clip-path="url(#clip472)" style="stroke:#000000; stroke-width:0.5; stroke-opacity:0.1; fill:none" points="
  60.6966,137.861 468.189,137.861 
  "/>
<polyline clip-path="url(#clip472)" style="stroke:#000000; stroke-width:0.5; stroke-opacity:0.1; fill:none" points="
  60.6966,78.4235 468.189,78.4235 
  "/>
<polyline clip-path="url(#clip470)" style="stroke:#000000; stroke-width:1; stroke-opacity:1; fill:none" points="
  60.6966,258.408 60.6966,27.537 
  "/>
<polyline clip-path="url(#clip470)" style="stroke:#000000; stroke-width:1; stroke-opacity:1; fill:none" points="
  60.6966,256.736 65.5865,256.736 
  "/>
<polyline clip-path="url(#clip470)" style="stroke:#000000; stroke-width:1; stroke-opacity:1; fill:none" points="
  60.6966,197.299 65.5865,197.299 
  "/>
<polyline clip-path="url(#clip470)" style="stroke:#000000; stroke-width:1; stroke-opacity:1; fill:none" points="
  60.6966,137.861 65.5865,137.861 
  "/>
<polyline clip-path="url(#clip470)" style="stroke:#000000; stroke-width:1; stroke-opacity:1; fill:none" points="
  60.6966,78.4235 65.5865,78.4235 
  "/>
<path clip-path="url(#clip470)" d="M 0 0 M28.2594 260.072 L30.1692 260.072 L30.1692 253.481 L28.0916 253.898 L28.0916 252.833 L30.1576 252.416 L31.3266 252.416 L31.3266 260.072 L33.2363 260.072 L33.2363 261.056 L28.2594 261.056 L28.2594 260.072 Z" fill="#000000" fill-rule="evenodd" fill-opacity="1" /><path clip-path="url(#clip470)" d="M 0 0 M37.0036 253.186 Q36.1008 253.186 35.6437 254.077 Q35.1923 254.963 35.1923 256.745 Q35.1923 258.522 35.6437 259.413 Q36.1008 260.298 37.0036 260.298 Q37.9122 260.298 38.3636 259.413 Q38.8207 258.522 38.8207 256.745 Q38.8207 254.963 38.3636 254.077 Q37.9122 253.186 37.0036 253.186 M37.0036 252.26 Q38.4561 252.26 39.22 253.412 Q39.9897 254.557 39.9897 256.745 Q39.9897 258.927 39.22 260.078 Q38.4561 261.224 37.0036 261.224 Q35.5511 261.224 34.7814 260.078 Q34.0175 258.927 34.0175 256.745 Q34.0175 254.557 34.7814 253.412 Q35.5511 252.26 37.0036 252.26 Z" fill="#000000" fill-rule="evenodd" fill-opacity="1" /><path clip-path="url(#clip470)" d="M 0 0 M43.757 253.186 Q42.8543 253.186 42.3971 254.077 Q41.9457 254.963 41.9457 256.745 Q41.9457 258.522 42.3971 259.413 Q42.8543 260.298 43.757 260.298 Q44.6656 260.298 45.117 259.413 Q45.5742 258.522 45.5742 256.745 Q45.5742 254.963 45.117 254.077 Q44.6656 253.186 43.757 253.186 M43.757 252.26 Q45.2096 252.26 45.9735 253.412 Q46.7431 254.557 46.7431 256.745 Q46.7431 258.927 45.9735 260.078 Q45.2096 261.224 43.757 261.224 Q42.3045 261.224 41.5348 260.078 Q40.771 258.927 40.771 256.745 Q40.771 254.557 41.5348 253.412 Q42.3045 252.26 43.757 252.26 Z" fill="#000000" fill-rule="evenodd" fill-opacity="1" /><path clip-path="url(#clip470)" d="M 0 0 M50.5105 253.186 Q49.6077 253.186 49.1505 254.077 Q48.6991 254.963 48.6991 256.745 Q48.6991 258.522 49.1505 259.413 Q49.6077 260.298 50.5105 260.298 Q51.419 260.298 51.8704 259.413 Q52.3276 258.522 52.3276 256.745 Q52.3276 254.963 51.8704 254.077 Q51.419 253.186 50.5105 253.186 M50.5105 252.26 Q51.963 252.26 52.7269 253.412 Q53.4966 254.557 53.4966 256.745 Q53.4966 258.927 52.7269 260.078 Q51.963 261.224 50.5105 261.224 Q49.0579 261.224 48.2883 260.078 Q47.5244 258.927 47.5244 256.745 Q47.5244 254.557 48.2883 253.412 Q49.0579 252.26 50.5105 252.26 Z" fill="#000000" fill-rule="evenodd" fill-opacity="1" /><path clip-path="url(#clip470)" d="M 0 0 M28.5662 200.635 L30.4759 200.635 L30.4759 194.043 L28.3983 194.46 L28.3983 193.395 L30.4643 192.979 L31.6333 192.979 L31.6333 200.635 L33.543 200.635 L33.543 201.619 L28.5662 201.619 L28.5662 200.635 Z" fill="#000000" fill-rule="evenodd" fill-opacity="1" /><path clip-path="url(#clip470)" d="M 0 0 M35.0129 200.635 L36.9226 200.635 L36.9226 194.043 L34.8451 194.46 L34.8451 193.395 L36.911 192.979 L38.08 192.979 L38.08 200.635 L39.9897 200.635 L39.9897 201.619 L35.0129 201.619 L35.0129 200.635 Z" fill="#000000" fill-rule="evenodd" fill-opacity="1" /><path clip-path="url(#clip470)" d="M 0 0 M43.757 193.748 Q42.8543 193.748 42.3971 194.64 Q41.9457 195.525 41.9457 197.307 Q41.9457 199.084 42.3971 199.975 Q42.8543 200.861 43.757 200.861 Q44.6656 200.861 45.117 199.975 Q45.5742 199.084 45.5742 197.307 Q45.5742 195.525 45.117 194.64 Q44.6656 193.748 43.757 193.748 M43.757 192.822 Q45.2096 192.822 45.9735 193.974 Q46.7431 195.12 46.7431 197.307 Q46.7431 199.489 45.9735 200.641 Q45.2096 201.786 43.757 201.786 Q42.3045 201.786 41.5348 200.641 Q40.771 199.489 40.771 197.307 Q40.771 195.12 41.5348 193.974 Q42.3045 192.822 43.757 192.822 Z" fill="#000000" fill-rule="evenodd" fill-opacity="1" /><path clip-path="url(#clip470)" d="M 0 0 M50.5105 193.748 Q49.6077 193.748 49.1505 194.64 Q48.6991 195.525 48.6991 197.307 Q48.6991 199.084 49.1505 199.975 Q49.6077 200.861 50.5105 200.861 Q51.419 200.861 51.8704 199.975 Q52.3276 199.084 52.3276 197.307 Q52.3276 195.525 51.8704 194.64 Q51.419 193.748 50.5105 193.748 M50.5105 192.822 Q51.963 192.822 52.7269 193.974 Q53.4966 195.12 53.4966 197.307 Q53.4966 199.489 52.7269 200.641 Q51.963 201.786 50.5105 201.786 Q49.0579 201.786 48.2883 200.641 Q47.5244 199.489 47.5244 197.307 Q47.5244 195.12 48.2883 193.974 Q49.0579 192.822 50.5105 192.822 Z" fill="#000000" fill-rule="evenodd" fill-opacity="1" /><path clip-path="url(#clip470)" d="M 0 0 M28.6587 141.197 L30.5685 141.197 L30.5685 134.606 L28.4909 135.023 L28.4909 133.958 L30.5569 133.541 L31.7259 133.541 L31.7259 141.197 L33.6356 141.197 L33.6356 142.181 L28.6587 142.181 L28.6587 141.197 Z" fill="#000000" fill-rule="evenodd" fill-opacity="1" /><path clip-path="url(#clip470)" d="M 0 0 M35.9099 141.197 L39.9897 141.197 L39.9897 142.181 L34.5036 142.181 L34.5036 141.197 Q35.1691 140.509 36.315 139.351 Q37.4666 138.188 37.7617 137.852 Q38.323 137.222 38.543 136.788 Q38.7686 136.348 38.7686 135.925 Q38.7686 135.237 38.2825 134.803 Q37.8022 134.369 37.0268 134.369 Q36.477 134.369 35.8636 134.56 Q35.2559 134.751 34.5615 135.138 L34.5615 133.958 Q35.2675 133.674 35.8809 133.529 Q36.4944 133.385 37.0036 133.385 Q38.3462 133.385 39.1448 134.056 Q39.9434 134.727 39.9434 135.85 Q39.9434 136.382 39.7409 136.863 Q39.5441 137.337 39.0175 137.985 Q38.8728 138.153 38.0974 138.958 Q37.3219 139.756 35.9099 141.197 Z" fill="#000000" fill-rule="evenodd" fill-opacity="1" /><path clip-path="url(#clip470)" d="M 0 0 M43.757 134.311 Q42.8543 134.311 42.3971 135.202 Q41.9457 136.087 41.9457 137.87 Q41.9457 139.646 42.3971 140.538 Q42.8543 141.423 43.757 141.423 Q44.6656 141.423 45.117 140.538 Q45.5742 139.646 45.5742 137.87 Q45.5742 136.087 45.117 135.202 Q44.6656 134.311 43.757 134.311 M43.757 133.385 Q45.2096 133.385 45.9735 134.536 Q46.7431 135.682 46.7431 137.87 Q46.7431 140.051 45.9735 141.203 Q45.2096 142.349 43.757 142.349 Q42.3045 142.349 41.5348 141.203 Q40.771 140.051 40.771 137.87 Q40.771 135.682 41.5348 134.536 Q42.3045 133.385 43.757 133.385 Z" fill="#000000" fill-rule="evenodd" fill-opacity="1" /><path clip-path="url(#clip470)" d="M 0 0 M50.5105 134.311 Q49.6077 134.311 49.1505 135.202 Q48.6991 136.087 48.6991 137.87 Q48.6991 139.646 49.1505 140.538 Q49.6077 141.423 50.5105 141.423 Q51.419 141.423 51.8704 140.538 Q52.3276 139.646 52.3276 137.87 Q52.3276 136.087 51.8704 135.202 Q51.419 134.311 50.5105 134.311 M50.5105 133.385 Q51.963 133.385 52.7269 134.536 Q53.4966 135.682 53.4966 137.87 Q53.4966 140.051 52.7269 141.203 Q51.963 142.349 50.5105 142.349 Q49.0579 142.349 48.2883 141.203 Q47.5244 140.051 47.5244 137.87 Q47.5244 135.682 48.2883 134.536 Q49.0579 133.385 50.5105 133.385 Z" fill="#000000" fill-rule="evenodd" fill-opacity="1" /><path clip-path="url(#clip470)" d="M 0 0 M28.4215 81.7597 L30.3312 81.7597 L30.3312 75.1683 L28.2537 75.5849 L28.2537 74.5201 L30.3196 74.1035 L31.4886 74.1035 L31.4886 81.7597 L33.3983 81.7597 L33.3983 82.7435 L28.4215 82.7435 L28.4215 81.7597 Z" fill="#000000" fill-rule="evenodd" fill-opacity="1" /><path clip-path="url(#clip470)" d="M 0 0 M38.2073 78.0849 Q39.0464 78.2643 39.5152 78.8314 Q39.9897 79.3986 39.9897 80.2319 Q39.9897 81.5108 39.1101 82.2111 Q38.2305 82.9113 36.6101 82.9113 Q36.0661 82.9113 35.4874 82.8013 Q34.9145 82.6972 34.3011 82.483 L34.3011 81.3546 Q34.7872 81.6381 35.3659 81.7828 Q35.9446 81.9275 36.5754 81.9275 Q37.6749 81.9275 38.2478 81.4935 Q38.8265 81.0594 38.8265 80.2319 Q38.8265 79.468 38.2883 79.0398 Q37.7559 78.6058 36.8011 78.6058 L35.7941 78.6058 L35.7941 77.6451 L36.8474 77.6451 Q37.7096 77.6451 38.1668 77.3037 Q38.624 76.9565 38.624 76.3083 Q38.624 75.6428 38.1494 75.2898 Q37.6807 74.931 36.8011 74.931 Q36.3207 74.931 35.771 75.0352 Q35.2212 75.1393 34.5615 75.3592 L34.5615 74.3176 Q35.227 74.1324 35.8057 74.0398 Q36.3902 73.9472 36.9052 73.9472 Q38.2362 73.9472 39.0117 74.5549 Q39.7872 75.1567 39.7872 76.1868 Q39.7872 76.9044 39.3763 77.4021 Q38.9654 77.894 38.2073 78.0849 Z" fill="#000000" fill-rule="evenodd" fill-opacity="1" /><path clip-path="url(#clip470)" d="M 0 0 M43.757 74.8731 Q42.8543 74.8731 42.3971 75.7643 Q41.9457 76.6497 41.9457 78.4321 Q41.9457 80.2088 42.3971 81.1 Q42.8543 81.9854 43.757 81.9854 Q44.6656 81.9854 45.117 81.1 Q45.5742 80.2088 45.5742 78.4321 Q45.5742 76.6497 45.117 75.7643 Q44.6656 74.8731 43.757 74.8731 M43.757 73.9472 Q45.2096 73.9472 45.9735 75.0988 Q46.7431 76.2447 46.7431 78.4321 Q46.7431 80.6138 45.9735 81.7655 Q45.2096 82.9113 43.757 82.9113 Q42.3045 82.9113 41.5348 81.7655 Q40.771 80.6138 40.771 78.4321 Q40.771 76.2447 41.5348 75.0988 Q42.3045 73.9472 43.757 73.9472 Z" fill="#000000" fill-rule="evenodd" fill-opacity="1" /><path clip-path="url(#clip470)" d="M 0 0 M50.5105 74.8731 Q49.6077 74.8731 49.1505 75.7643 Q48.6991 76.6497 48.6991 78.4321 Q48.6991 80.2088 49.1505 81.1 Q49.6077 81.9854 50.5105 81.9854 Q51.419 81.9854 51.8704 81.1 Q52.3276 80.2088 52.3276 78.4321 Q52.3276 76.6497 51.8704 75.7643 Q51.419 74.8731 50.5105 74.8731 M50.5105 73.9472 Q51.963 73.9472 52.7269 75.0988 Q53.4966 76.2447 53.4966 78.4321 Q53.4966 80.6138 52.7269 81.7655 Q51.963 82.9113 50.5105 82.9113 Q49.0579 82.9113 48.2883 81.7655 Q47.5244 80.6138 47.5244 78.4321 Q47.5244 76.2447 48.2883 75.0988 Q49.0579 73.9472 50.5105 73.9472 Z" fill="#000000" fill-rule="evenodd" fill-opacity="1" /><g clip-path="url(#clip470)">
<text style="fill:#000000; fill-opacity:1; font-family:Arial,Helvetica Neue,Helvetica,sans-serif; font-size:16px; text-anchor:middle;" transform="rotate(-90, 18.0011, 142.973)" x="18.0011" y="142.973">population (millions)</text>
</g>
<g clip-path="url(#clip470)">
<text style="fill:#000000; fill-opacity:1; font-family:Arial,Helvetica Neue,Helvetica,sans-serif; font-size:18px; font-weight:bold; text-anchor:middle;" transform="rotate(0, 264.443, 15.6)" x="264.443" y="15.6">Population of China</text>
</g>
<circle clip-path="url(#clip472)" cx="72.2294" cy="251.874" r="3" fill="#009af9" fill-rule="evenodd" fill-opacity="1" stroke="#000000" stroke-opacity="1" stroke-width="0.6"/>
<circle clip-path="url(#clip472)" cx="281.917" cy="100.629" r="3" fill="#009af9" fill-rule="evenodd" fill-opacity="1" stroke="#000000" stroke-opacity="1" stroke-width="0.6"/>
<circle clip-path="url(#clip472)" cx="398.41" cy="55.9442" r="3" fill="#009af9" fill-rule="evenodd" fill-opacity="1" stroke="#000000" stroke-opacity="1" stroke-width="0.6"/>
<circle clip-path="url(#clip472)" cx="456.656" cy="34.0711" r="3" fill="#009af9" fill-rule="evenodd" fill-opacity="1" stroke="#000000" stroke-opacity="1" stroke-width="0.6"/>
<path clip-path="url(#clip470)" d="
M74.2797 65.4727 L149.979 65.4727 L149.979 35.2327 L74.2797 35.2327  Z
  " fill="#ffffff" fill-rule="evenodd" fill-opacity="1"/>
<polyline clip-path="url(#clip470)" style="stroke:#000000; stroke-width:1; stroke-opacity:1; fill:none" points="
  74.2797,65.4727 149.979,65.4727 149.979,35.2327 74.2797,35.2327 74.2797,65.4727 
  "/>
<circle clip-path="url(#clip470)" cx="92.3904" cy="50.3527" r="5" fill="#009af9" fill-rule="evenodd" fill-opacity="1" stroke="#000000" stroke-opacity="1" stroke-width="0.96"/>
<path clip-path="url(#clip470)" d="M 0 0 M113.852 51.4147 Q112.561 51.4147 112.064 51.7098 Q111.566 52.0049 111.566 52.7167 Q111.566 53.2839 111.936 53.6195 Q112.313 53.9494 112.955 53.9494 Q113.84 53.9494 114.373 53.3244 Q114.911 52.6936 114.911 51.6519 L114.911 51.4147 L113.852 51.4147 M115.976 50.9748 L115.976 54.6727 L114.911 54.6727 L114.911 53.6889 Q114.546 54.2792 114.002 54.5628 Q113.458 54.8406 112.671 54.8406 Q111.676 54.8406 111.086 54.285 Q110.501 53.7237 110.501 52.7862 Q110.501 51.6924 111.23 51.1369 Q111.965 50.5813 113.418 50.5813 L114.911 50.5813 L114.911 50.4772 Q114.911 49.7422 114.425 49.3429 Q113.944 48.9378 113.071 48.9378 Q112.515 48.9378 111.988 49.0709 Q111.462 49.204 110.976 49.4702 L110.976 48.4864 Q111.56 48.2607 112.11 48.1508 Q112.66 48.035 113.181 48.035 Q114.587 48.035 115.281 48.7642 Q115.976 49.4934 115.976 50.9748 Z" fill="#000000" fill-rule="evenodd" fill-opacity="1" /><path clip-path="url(#clip470)" d="M 0 0 M121.757 48.4401 L121.757 49.4355 Q121.306 49.1867 120.848 49.0651 Q120.397 48.9378 119.934 48.9378 Q118.898 48.9378 118.325 49.5975 Q117.752 50.2515 117.752 51.4378 Q117.752 52.6241 118.325 53.2839 Q118.898 53.9378 119.934 53.9378 Q120.397 53.9378 120.848 53.8163 Q121.306 53.6889 121.757 53.4401 L121.757 54.4239 Q121.311 54.6322 120.831 54.7364 Q120.356 54.8406 119.818 54.8406 Q118.354 54.8406 117.492 53.9204 Q116.63 53.0003 116.63 51.4378 Q116.63 49.8522 117.498 48.9436 Q118.372 48.035 119.888 48.035 Q120.38 48.035 120.848 48.1392 Q121.317 48.2376 121.757 48.4401 Z" fill="#000000" fill-rule="evenodd" fill-opacity="1" /><path clip-path="url(#clip470)" d="M 0 0 M123.927 46.351 L123.927 48.1913 L126.12 48.1913 L126.12 49.0188 L123.927 49.0188 L123.927 52.5373 Q123.927 53.3302 124.141 53.5558 Q124.361 53.7815 125.027 53.7815 L126.12 53.7815 L126.12 54.6727 L125.027 54.6727 Q123.794 54.6727 123.325 54.2156 Q122.856 53.7526 122.856 52.5373 L122.856 49.0188 L122.075 49.0188 L122.075 48.1913 L122.856 48.1913 L122.856 46.351 L123.927 46.351 Z" fill="#000000" fill-rule="evenodd" fill-opacity="1" /><path clip-path="url(#clip470)" d="M 0 0 M127.127 52.1149 L127.127 48.1913 L128.192 48.1913 L128.192 52.0744 Q128.192 52.9945 128.551 53.4575 Q128.91 53.9146 129.627 53.9146 Q130.49 53.9146 130.987 53.3649 Q131.491 52.8151 131.491 51.866 L131.491 48.1913 L132.555 48.1913 L132.555 54.6727 L131.491 54.6727 L131.491 53.6774 Q131.103 54.2676 130.588 54.557 Q130.079 54.8406 129.402 54.8406 Q128.285 54.8406 127.706 54.1461 Q127.127 53.4517 127.127 52.1149 M129.807 48.035 L129.807 48.035 Z" fill="#000000" fill-rule="evenodd" fill-opacity="1" /><path clip-path="url(#clip470)" d="M 0 0 M136.618 51.4147 Q135.327 51.4147 134.83 51.7098 Q134.332 52.0049 134.332 52.7167 Q134.332 53.2839 134.702 53.6195 Q135.079 53.9494 135.721 53.9494 Q136.606 53.9494 137.139 53.3244 Q137.677 52.6936 137.677 51.6519 L137.677 51.4147 L136.618 51.4147 M138.742 50.9748 L138.742 54.6727 L137.677 54.6727 L137.677 53.6889 Q137.312 54.2792 136.768 54.5628 Q136.224 54.8406 135.437 54.8406 Q134.442 54.8406 133.852 54.285 Q133.267 53.7237 133.267 52.7862 Q133.267 51.6924 133.996 51.1369 Q134.731 50.5813 136.184 50.5813 L137.677 50.5813 L137.677 50.4772 Q137.677 49.7422 137.191 49.3429 Q136.711 48.9378 135.837 48.9378 Q135.281 48.9378 134.755 49.0709 Q134.228 49.204 133.742 49.4702 L133.742 48.4864 Q134.326 48.2607 134.876 48.1508 Q135.426 48.035 135.947 48.035 Q137.353 48.035 138.047 48.7642 Q138.742 49.4934 138.742 50.9748 Z" fill="#000000" fill-rule="evenodd" fill-opacity="1" /><path clip-path="url(#clip470)" d="M 0 0 M139.859 45.6682 L140.923 45.6682 L140.923 54.6727 L139.859 54.6727 L139.859 45.6682 Z" fill="#000000" fill-rule="evenodd" fill-opacity="1" /></svg>
