<?xml version="1.0" encoding="utf-8"?>
<svg xmlns="http://www.w3.org/2000/svg" xmlns:xlink="http://www.w3.org/1999/xlink" width="120" height="75" viewBox="0 0 480 300">
<defs>
  <clipPath id="clip310">
    <rect x="0" y="0" width="480" height="300"/>
  </clipPath>
</defs>
<path clip-path="url(#clip310)" d="
M0 300 L480 300 L480 0 L0 0  Z
  " fill="#ffffff" fill-rule="evenodd" fill-opacity="1"/>
<defs>
  <clipPath id="clip311">
    <rect x="96" y="0" width="337" height="300"/>
  </clipPath>
</defs>
<path clip-path="url(#clip310)" d="
M44.0599 273.152 L468.189 273.152 L468.189 27.537 L44.0599 27.537  Z
  " fill="#ffffff" fill-rule="evenodd" fill-opacity="1"/>
<defs>
  <clipPath id="clip312">
    <rect x="44" y="27" width="425" height="247"/>
  </clipPath>
</defs>
<polyline clip-path="url(#clip312)" style="stroke:#000000; stroke-width:0.5; stroke-opacity:0.1; fill:none" points="
  56.0636,273.152 56.0636,27.537 
  "/>
<polyline clip-path="url(#clip312)" style="stroke:#000000; stroke-width:0.5; stroke-opacity:0.1; fill:none" points="
  143.047,273.152 143.047,27.537 
  "/>
<polyline clip-path="url(#clip312)" style="stroke:#000000; stroke-width:0.5; stroke-opacity:0.1; fill:none" points="
  230.03,273.152 230.03,27.537 
  "/>
<polyline clip-path="url(#clip312)" style="stroke:#000000; stroke-width:0.5; stroke-opacity:0.1; fill:none" points="
  317.013,273.152 317.013,27.537 
  "/>
<polyline clip-path="url(#clip312)" style="stroke:#000000; stroke-width:0.5; stroke-opacity:0.1; fill:none" points="
  403.996,273.152 403.996,27.537 
  "/>
<polyline clip-path="url(#clip310)" style="stroke:#000000; stroke-width:1; stroke-opacity:1; fill:none" points="
  44.0599,273.152 468.189,273.152 
  "/>
<polyline clip-path="url(#clip310)" style="stroke:#000000; stroke-width:1; stroke-opacity:1; fill:none" points="
  56.0636,273.152 56.0636,270.205 
  "/>
<polyline clip-path="url(#clip310)" style="stroke:#000000; stroke-width:1; stroke-opacity:1; fill:none" points="
  143.047,273.152 143.047,270.205 
  "/>
<polyline clip-path="url(#clip310)" style="stroke:#000000; stroke-width:1; stroke-opacity:1; fill:none" points="
  230.03,273.152 230.03,270.205 
  "/>
<polyline clip-path="url(#clip310)" style="stroke:#000000; stroke-width:1; stroke-opacity:1; fill:none" points="
  317.013,273.152 317.013,270.205 
  "/>
<polyline clip-path="url(#clip310)" style="stroke:#000000; stroke-width:1; stroke-opacity:1; fill:none" points="
  403.996,273.152 403.996,270.205 
  "/>
<path clip-path="url(#clip310)" d="M 0 0 M56.0636 279.49 Q55.1608 279.49 54.7036 280.381 Q54.2522 281.266 54.2522 283.049 Q54.2522 284.825 54.7036 285.716 Q55.1608 286.602 56.0636 286.602 Q56.9721 286.602 57.4235 285.716 Q57.8807 284.825 57.8807 283.049 Q57.8807 281.266 57.4235 280.381 Q56.9721 279.49 56.0636 279.49 M56.0636 278.564 Q57.5161 278.564 58.28 279.715 Q59.0497 280.861 59.0497 283.049 Q59.0497 285.23 58.28 286.382 Q57.5161 287.528 56.0636 287.528 Q54.611 287.528 53.8414 286.382 Q53.0775 285.23 53.0775 283.049 Q53.0775 280.861 53.8414 279.715 Q54.611 278.564 56.0636 278.564 Z" fill="#000000" fill-rule="evenodd" fill-opacity="1" /><path clip-path="url(#clip310)" d="M 0 0 M138.457 286.376 L142.537 286.376 L142.537 287.36 L137.051 287.36 L137.051 286.376 Q137.717 285.688 138.863 284.53 Q140.014 283.367 140.309 283.031 Q140.871 282.401 141.091 281.966 Q141.316 281.527 141.316 281.104 Q141.316 280.416 140.83 279.982 Q140.35 279.548 139.574 279.548 Q139.025 279.548 138.411 279.738 Q137.804 279.929 137.109 280.317 L137.109 279.137 Q137.815 278.853 138.429 278.708 Q139.042 278.564 139.551 278.564 Q140.894 278.564 141.692 279.235 Q142.491 279.906 142.491 281.029 Q142.491 281.561 142.288 282.042 Q142.092 282.516 141.565 283.164 Q141.42 283.332 140.645 284.137 Q139.869 284.935 138.457 286.376 Z" fill="#000000" fill-rule="evenodd" fill-opacity="1" /><path clip-path="url(#clip310)" d="M 0 0 M143.816 278.72 L148.405 278.72 L148.405 279.704 L144.887 279.704 L144.887 281.822 Q145.141 281.735 145.396 281.694 Q145.651 281.648 145.905 281.648 Q147.352 281.648 148.197 282.441 Q149.042 283.234 149.042 284.588 Q149.042 285.983 148.174 286.758 Q147.306 287.528 145.726 287.528 Q145.182 287.528 144.615 287.435 Q144.053 287.343 143.452 287.157 L143.452 285.983 Q143.972 286.266 144.528 286.405 Q145.084 286.544 145.703 286.544 Q146.704 286.544 147.288 286.017 Q147.873 285.491 147.873 284.588 Q147.873 283.685 147.288 283.159 Q146.704 282.632 145.703 282.632 Q145.234 282.632 144.765 282.736 Q144.302 282.84 143.816 283.06 L143.816 278.72 Z" fill="#000000" fill-rule="evenodd" fill-opacity="1" /><path clip-path="url(#clip310)" d="M 0 0 M224.222 278.72 L228.811 278.72 L228.811 279.704 L225.293 279.704 L225.293 281.822 Q225.548 281.735 225.802 281.694 Q226.057 281.648 226.311 281.648 Q227.758 281.648 228.603 282.441 Q229.448 283.234 229.448 284.588 Q229.448 285.983 228.58 286.758 Q227.712 287.528 226.132 287.528 Q225.588 287.528 225.021 287.435 Q224.46 287.343 223.858 287.157 L223.858 285.983 Q224.379 286.266 224.934 286.405 Q225.49 286.544 226.109 286.544 Q227.11 286.544 227.694 286.017 Q228.279 285.491 228.279 284.588 Q228.279 283.685 227.694 283.159 Q227.11 282.632 226.109 282.632 Q225.64 282.632 225.171 282.736 Q224.708 282.84 224.222 283.06 L224.222 278.72 Z" fill="#000000" fill-rule="evenodd" fill-opacity="1" /><path clip-path="url(#clip310)" d="M 0 0 M233.215 279.49 Q232.313 279.49 231.855 280.381 Q231.404 281.266 231.404 283.049 Q231.404 284.825 231.855 285.716 Q232.313 286.602 233.215 286.602 Q234.124 286.602 234.575 285.716 Q235.032 284.825 235.032 283.049 Q235.032 281.266 234.575 280.381 Q234.124 279.49 233.215 279.49 M233.215 278.564 Q234.668 278.564 235.432 279.715 Q236.201 280.861 236.201 283.049 Q236.201 285.23 235.432 286.382 Q234.668 287.528 233.215 287.528 Q231.763 287.528 230.993 286.382 Q230.229 285.23 230.229 283.049 Q230.229 280.861 230.993 279.715 Q231.763 278.564 233.215 278.564 Z" fill="#000000" fill-rule="evenodd" fill-opacity="1" /><path clip-path="url(#clip310)" d="M 0 0 M310.982 278.72 L316.538 278.72 L316.538 279.218 L313.401 287.36 L312.18 287.36 L315.132 279.704 L310.982 279.704 L310.982 278.72 Z" fill="#000000" fill-rule="evenodd" fill-opacity="1" /><path clip-path="url(#clip310)" d="M 0 0 M317.817 278.72 L322.406 278.72 L322.406 279.704 L318.888 279.704 L318.888 281.822 Q319.142 281.735 319.397 281.694 Q319.651 281.648 319.906 281.648 Q321.353 281.648 322.198 282.441 Q323.043 283.234 323.043 284.588 Q323.043 285.983 322.175 286.758 Q321.306 287.528 319.727 287.528 Q319.183 287.528 318.616 287.435 Q318.054 287.343 317.452 287.157 L317.452 285.983 Q317.973 286.266 318.529 286.405 Q319.084 286.544 319.703 286.544 Q320.705 286.544 321.289 286.017 Q321.874 285.491 321.874 284.588 Q321.874 283.685 321.289 283.159 Q320.705 282.632 319.703 282.632 Q319.235 282.632 318.766 282.736 Q318.303 282.84 317.817 283.06 L317.817 278.72 Z" fill="#000000" fill-rule="evenodd" fill-opacity="1" /><path clip-path="url(#clip310)" d="M 0 0 M394.838 286.376 L396.747 286.376 L396.747 279.785 L394.67 280.201 L394.67 279.137 L396.736 278.72 L397.905 278.72 L397.905 286.376 L399.814 286.376 L399.814 287.36 L394.838 287.36 L394.838 286.376 Z" fill="#000000" fill-rule="evenodd" fill-opacity="1" /><path clip-path="url(#clip310)" d="M 0 0 M403.582 279.49 Q402.679 279.49 402.222 280.381 Q401.77 281.266 401.77 283.049 Q401.77 284.825 402.222 285.716 Q402.679 286.602 403.582 286.602 Q404.49 286.602 404.942 285.716 Q405.399 284.825 405.399 283.049 Q405.399 281.266 404.942 280.381 Q404.49 279.49 403.582 279.49 M403.582 278.564 Q405.034 278.564 405.798 279.715 Q406.568 280.861 406.568 283.049 Q406.568 285.23 405.798 286.382 Q405.034 287.528 403.582 287.528 Q402.129 287.528 401.36 286.382 Q400.596 285.23 400.596 283.049 Q400.596 280.861 401.36 279.715 Q402.129 278.564 403.582 278.564 Z" fill="#000000" fill-rule="evenodd" fill-opacity="1" /><path clip-path="url(#clip310)" d="M 0 0 M410.335 279.49 Q409.432 279.49 408.975 280.381 Q408.524 281.266 408.524 283.049 Q408.524 284.825 408.975 285.716 Q409.432 286.602 410.335 286.602 Q411.244 286.602 411.695 285.716 Q412.152 284.825 412.152 283.049 Q412.152 281.266 411.695 280.381 Q411.244 279.49 410.335 279.49 M410.335 278.564 Q411.788 278.564 412.552 279.715 Q413.321 280.861 413.321 283.049 Q413.321 285.23 412.552 286.382 Q411.788 287.528 410.335 287.528 Q408.883 287.528 408.113 286.382 Q407.349 285.23 407.349 283.049 Q407.349 280.861 408.113 279.715 Q408.883 278.564 410.335 278.564 Z" fill="#000000" fill-rule="evenodd" fill-opacity="1" /><polyline clip-path="url(#clip312)" style="stroke:#000000; stroke-width:0.5; stroke-opacity:0.1; fill:none" points="
  44.0599,253.458 468.189,253.458 
  "/>
<polyline clip-path="url(#clip312)" style="stroke:#000000; stroke-width:0.5; stroke-opacity:0.1; fill:none" points="
  44.0599,198.715 468.189,198.715 
  "/>
<polyline clip-path="url(#clip312)" style="stroke:#000000; stroke-width:0.5; stroke-opacity:0.1; fill:none" points="
  44.0599,143.973 468.189,143.973 
  "/>
<polyline clip-path="url(#clip312)" style="stroke:#000000; stroke-width:0.5; stroke-opacity:0.1; fill:none" points="
  44.0599,89.2307 468.189,89.2307 
  "/>
<polyline clip-path="url(#clip312)" style="stroke:#000000; stroke-width:0.5; stroke-opacity:0.1; fill:none" points="
  44.0599,34.4884 468.189,34.4884 
  "/>
<polyline clip-path="url(#clip310)" style="stroke:#000000; stroke-width:1; stroke-opacity:1; fill:none" points="
  44.0599,273.152 44.0599,27.537 
  "/>
<polyline clip-path="url(#clip310)" style="stroke:#000000; stroke-width:1; stroke-opacity:1; fill:none" points="
  44.0599,253.458 49.1495,253.458 
  "/>
<polyline clip-path="url(#clip310)" style="stroke:#000000; stroke-width:1; stroke-opacity:1; fill:none" points="
  44.0599,198.715 49.1495,198.715 
  "/>
<polyline clip-path="url(#clip310)" style="stroke:#000000; stroke-width:1; stroke-opacity:1; fill:none" points="
  44.0599,143.973 49.1495,143.973 
  "/>
<polyline clip-path="url(#clip310)" style="stroke:#000000; stroke-width:1; stroke-opacity:1; fill:none" points="
  44.0599,89.2307 49.1495,89.2307 
  "/>
<polyline clip-path="url(#clip310)" style="stroke:#000000; stroke-width:1; stroke-opacity:1; fill:none" points="
  44.0599,34.4884 49.1495,34.4884 
  "/>
<path clip-path="url(#clip310)" d="M 0 0 M13.5159 258.406 L15.4256 258.406 L15.4256 251.814 L13.348 252.231 L13.348 251.166 L15.414 250.75 L16.583 250.75 L16.583 258.406 L18.4927 258.406 L18.4927 259.39 L13.5159 259.39 L13.5159 258.406 Z" fill="#000000" fill-rule="evenodd" fill-opacity="1" /><path clip-path="url(#clip310)" d="M 0 0 M22.26 251.519 Q21.3572 251.519 20.9001 252.41 Q20.4487 253.296 20.4487 255.078 Q20.4487 256.855 20.9001 257.746 Q21.3572 258.632 22.26 258.632 Q23.1686 258.632 23.62 257.746 Q24.0771 256.855 24.0771 255.078 Q24.0771 253.296 23.62 252.41 Q23.1686 251.519 22.26 251.519 M22.26 250.593 Q23.7126 250.593 24.4764 251.745 Q25.2461 252.891 25.2461 255.078 Q25.2461 257.26 24.4764 258.412 Q23.7126 259.557 22.26 259.557 Q20.8075 259.557 20.0378 258.412 Q19.2739 257.26 19.2739 255.078 Q19.2739 252.891 20.0378 251.745 Q20.8075 250.593 22.26 250.593 Z" fill="#000000" fill-rule="evenodd" fill-opacity="1" /><path clip-path="url(#clip310)" d="M 0 0 M25.2461 249.119 L31.274 249.119 L31.274 249.918 L25.2461 249.918 L25.2461 249.119 Z" fill="#000000" fill-rule="evenodd" fill-opacity="1" /><path clip-path="url(#clip310)" d="M 0 0 M34.9133 246.345 L32.5153 250.092 L34.9133 250.092 L34.9133 246.345 M34.6641 245.517 L35.8584 245.517 L35.8584 250.092 L36.8599 250.092 L36.8599 250.882 L35.8584 250.882 L35.8584 252.537 L34.9133 252.537 L34.9133 250.882 L31.7442 250.882 L31.7442 249.965 L34.6641 245.517 Z" fill="#000000" fill-rule="evenodd" fill-opacity="1" /><path clip-path="url(#clip310)" d="M 0 0 M13.7462 203.663 L15.656 203.663 L15.656 197.072 L13.5784 197.489 L13.5784 196.424 L15.6444 196.007 L16.8134 196.007 L16.8134 203.663 L18.7231 203.663 L18.7231 204.647 L13.7462 204.647 L13.7462 203.663 Z" fill="#000000" fill-rule="evenodd" fill-opacity="1" /><path clip-path="url(#clip310)" d="M 0 0 M22.4904 196.777 Q21.5876 196.777 21.1305 197.668 Q20.6791 198.554 20.6791 200.336 Q20.6791 202.113 21.1305 203.004 Q21.5876 203.889 22.4904 203.889 Q23.399 203.889 23.8504 203.004 Q24.3075 202.113 24.3075 200.336 Q24.3075 198.554 23.8504 197.668 Q23.399 196.777 22.4904 196.777 M22.4904 195.851 Q23.943 195.851 24.7068 197.003 Q25.4765 198.148 25.4765 200.336 Q25.4765 202.518 24.7068 203.669 Q23.943 204.815 22.4904 204.815 Q21.0379 204.815 20.2682 203.669 Q19.5043 202.518 19.5043 200.336 Q19.5043 198.148 20.2682 197.003 Q21.0379 195.851 22.4904 195.851 Z" fill="#000000" fill-rule="evenodd" fill-opacity="1" /><path clip-path="url(#clip310)" d="M 0 0 M25.4765 194.376 L31.5044 194.376 L31.5044 195.176 L25.4765 195.176 L25.4765 194.376 Z" fill="#000000" fill-rule="evenodd" fill-opacity="1" /><path clip-path="url(#clip310)" d="M 0 0 M35.4117 194.01 Q36.0935 194.155 36.4744 194.616 Q36.8599 195.077 36.8599 195.754 Q36.8599 196.793 36.1452 197.362 Q35.4305 197.931 34.114 197.931 Q33.672 197.931 33.2018 197.842 Q32.7363 197.757 32.2379 197.583 L32.2379 196.666 Q32.6329 196.897 33.1031 197.014 Q33.5733 197.132 34.0858 197.132 Q34.9791 197.132 35.4446 196.779 Q35.9148 196.426 35.9148 195.754 Q35.9148 195.133 35.4775 194.785 Q35.045 194.433 34.2691 194.433 L33.451 194.433 L33.451 193.652 L34.3068 193.652 Q35.0073 193.652 35.3788 193.375 Q35.7503 193.093 35.7503 192.566 Q35.7503 192.025 35.3647 191.739 Q34.9838 191.447 34.2691 191.447 Q33.8789 191.447 33.4322 191.532 Q32.9855 191.616 32.4495 191.795 L32.4495 190.949 Q32.9902 190.798 33.4604 190.723 Q33.9353 190.648 34.3538 190.648 Q35.4352 190.648 36.0653 191.141 Q36.6953 191.63 36.6953 192.467 Q36.6953 193.05 36.3615 193.455 Q36.0277 193.854 35.4117 194.01 Z" fill="#000000" fill-rule="evenodd" fill-opacity="1" /><path clip-path="url(#clip310)" d="M 0 0 M13.939 148.921 L15.8487 148.921 L15.8487 142.33 L13.7712 142.746 L13.7712 141.682 L15.8372 141.265 L17.0061 141.265 L17.0061 148.921 L18.9159 148.921 L18.9159 149.905 L13.939 149.905 L13.939 148.921 Z" fill="#000000" fill-rule="evenodd" fill-opacity="1" /><path clip-path="url(#clip310)" d="M 0 0 M22.6832 142.035 Q21.7804 142.035 21.3232 142.926 Q20.8719 143.811 20.8719 145.594 Q20.8719 147.37 21.3232 148.261 Q21.7804 149.147 22.6832 149.147 Q23.5918 149.147 24.0431 148.261 Q24.5003 147.37 24.5003 145.594 Q24.5003 143.811 24.0431 142.926 Q23.5918 142.035 22.6832 142.035 M22.6832 141.109 Q24.1357 141.109 24.8996 142.26 Q25.6693 143.406 25.6693 145.594 Q25.6693 147.775 24.8996 148.927 Q24.1357 150.073 22.6832 150.073 Q21.2307 150.073 20.461 148.927 Q19.6971 147.775 19.6971 145.594 Q19.6971 143.406 20.461 142.26 Q21.2307 141.109 22.6832 141.109 Z" fill="#000000" fill-rule="evenodd" fill-opacity="1" /><path clip-path="url(#clip310)" d="M 0 0 M25.6693 139.634 L31.6972 139.634 L31.6972 140.433 L25.6693 140.433 L25.6693 139.634 Z" fill="#000000" fill-rule="evenodd" fill-opacity="1" /><path clip-path="url(#clip310)" d="M 0 0 M33.545 142.253 L36.8599 142.253 L36.8599 143.052 L32.4025 143.052 L32.4025 142.253 Q32.9432 141.693 33.8742 140.753 Q34.8099 139.808 35.0497 139.535 Q35.5058 139.023 35.6844 138.67 Q35.8678 138.313 35.8678 137.97 Q35.8678 137.41 35.4728 137.057 Q35.0826 136.705 34.4525 136.705 Q34.0058 136.705 33.5074 136.86 Q33.0137 137.015 32.4495 137.33 L32.4495 136.371 Q33.0231 136.14 33.5215 136.023 Q34.0199 135.905 34.4337 135.905 Q35.5246 135.905 36.1734 136.451 Q36.8223 136.996 36.8223 137.908 Q36.8223 138.341 36.6577 138.731 Q36.4979 139.117 36.07 139.643 Q35.9524 139.78 35.3224 140.433 Q34.6923 141.082 33.545 142.253 Z" fill="#000000" fill-rule="evenodd" fill-opacity="1" /><path clip-path="url(#clip310)" d="M 0 0 M13.8638 94.1788 L15.7735 94.1788 L15.7735 87.5874 L13.696 88.0041 L13.696 86.9393 L15.7619 86.5226 L16.9309 86.5226 L16.9309 94.1788 L18.8406 94.1788 L18.8406 95.1626 L13.8638 95.1626 L13.8638 94.1788 Z" fill="#000000" fill-rule="evenodd" fill-opacity="1" /><path clip-path="url(#clip310)" d="M 0 0 M22.608 87.2923 Q21.7052 87.2923 21.248 88.1835 Q20.7966 89.0689 20.7966 90.8513 Q20.7966 92.6279 21.248 93.5191 Q21.7052 94.4045 22.608 94.4045 Q23.5165 94.4045 23.9679 93.5191 Q24.4251 92.6279 24.4251 90.8513 Q24.4251 89.0689 23.9679 88.1835 Q23.5165 87.2923 22.608 87.2923 M22.608 86.3664 Q24.0605 86.3664 24.8244 87.518 Q25.5941 88.6638 25.5941 90.8513 Q25.5941 93.033 24.8244 94.1846 Q24.0605 95.3304 22.608 95.3304 Q21.1554 95.3304 20.3858 94.1846 Q19.6219 93.033 19.6219 90.8513 Q19.6219 88.6638 20.3858 87.518 Q21.1554 86.3664 22.608 86.3664 Z" fill="#000000" fill-rule="evenodd" fill-opacity="1" /><path clip-path="url(#clip310)" d="M 0 0 M25.5941 84.8917 L31.6219 84.8917 L31.6219 85.691 L25.5941 85.691 L25.5941 84.8917 Z" fill="#000000" fill-rule="evenodd" fill-opacity="1" /><path clip-path="url(#clip310)" d="M 0 0 M32.8162 87.5107 L34.3679 87.5107 L34.3679 82.1552 L32.6799 82.4937 L32.6799 81.6286 L34.3585 81.29 L35.3083 81.29 L35.3083 87.5107 L36.8599 87.5107 L36.8599 88.31 L32.8162 88.31 L32.8162 87.5107 Z" fill="#000000" fill-rule="evenodd" fill-opacity="1" /><path clip-path="url(#clip310)" d="M 0 0 M20.2772 39.4365 L22.187 39.4365 L22.187 32.8451 L20.1094 33.2618 L20.1094 32.197 L22.1754 31.7803 L23.3444 31.7803 L23.3444 39.4365 L25.2541 39.4365 L25.2541 40.4203 L20.2772 40.4203 L20.2772 39.4365 Z" fill="#000000" fill-rule="evenodd" fill-opacity="1" /><path clip-path="url(#clip310)" d="M 0 0 M29.0214 32.55 Q28.1186 32.55 27.6615 33.4412 Q27.2101 34.3266 27.2101 36.109 Q27.2101 37.8856 27.6615 38.7768 Q28.1186 39.6622 29.0214 39.6622 Q29.93 39.6622 30.3814 38.7768 Q30.8385 37.8856 30.8385 36.109 Q30.8385 34.3266 30.3814 33.4412 Q29.93 32.55 29.0214 32.55 M29.0214 31.624 Q30.474 31.624 31.2378 32.7757 Q32.0075 33.9215 32.0075 36.109 Q32.0075 38.2907 31.2378 39.4423 Q30.474 40.5881 29.0214 40.5881 Q27.5689 40.5881 26.7992 39.4423 Q26.0353 38.2907 26.0353 36.109 Q26.0353 33.9215 26.7992 32.7757 Q27.5689 31.624 29.0214 31.624 Z" fill="#000000" fill-rule="evenodd" fill-opacity="1" /><path clip-path="url(#clip310)" d="M 0 0 M34.4337 27.1731 Q33.7002 27.1731 33.3288 27.8972 Q32.962 28.6165 32.962 30.0647 Q32.962 31.5082 33.3288 32.2323 Q33.7002 32.9517 34.4337 32.9517 Q35.1719 32.9517 35.5387 32.2323 Q35.9101 31.5082 35.9101 30.0647 Q35.9101 28.6165 35.5387 27.8972 Q35.1719 27.1731 34.4337 27.1731 M34.4337 26.4207 Q35.6139 26.4207 36.2346 27.3564 Q36.8599 28.2874 36.8599 30.0647 Q36.8599 31.8374 36.2346 32.7731 Q35.6139 33.7041 34.4337 33.7041 Q33.2535 33.7041 32.6282 32.7731 Q32.0075 31.8374 32.0075 30.0647 Q32.0075 28.2874 32.6282 27.3564 Q33.2535 26.4207 34.4337 26.4207 Z" fill="#000000" fill-rule="evenodd" fill-opacity="1" /><g clip-path="url(#clip310)">
<text style="fill:#000000; fill-opacity:1; font-family:Arial,Helvetica Neue,Helvetica,sans-serif; font-size:18px; font-weight:bold; text-anchor:middle;" transform="rotate(0, 256.124, 15.6)" x="256.124" y="15.6">Diagonal preconditioning in CG</text>
</g>
<polyline clip-path="url(#clip312)" style="stroke:#009af9; stroke-width:2; stroke-opacity:1; fill:none" points="
  56.0636,34.4884 59.5429,42.962 63.0222,59.7595 66.5015,67.5887 69.9808,67.9834 73.4602,68.4452 76.9395,73.5804 80.4188,80.9061 83.8981,85.3414 87.3774,86.3093 
  90.8568,87.4104 94.3361,89.142 97.8154,92.8947 101.295,94.8945 104.774,96.0951 108.253,96.6711 111.733,97.7523 115.212,99.0079 118.691,100.907 122.171,102.021 
  125.65,102.997 129.129,104.057 132.609,105.625 136.088,106.855 139.567,108.494 143.047,109.728 146.526,111.121 150.005,112.525 153.485,114.302 156.964,115.613 
  160.443,117.362 163.922,118.202 167.402,119.866 170.881,121.235 174.36,122.348 177.84,123.738 181.319,124.8 184.798,126.085 188.278,127.471 191.757,129.3 
  195.236,131.415 198.716,133.155 202.195,134.998 205.674,136.956 209.154,138.655 212.633,141.243 216.112,143.411 219.592,145.417 223.071,147.95 226.55,150.033 
  230.03,151.916 233.509,153.854 236.988,156.189 240.468,157.923 243.947,159.333 247.426,161.181 250.905,162.909 254.385,164.103 257.864,165.674 261.343,167.091 
  264.823,168.572 268.302,169.848 271.781,170.859 275.261,173.115 278.74,174.592 282.219,175.895 285.699,177.901 289.178,179.835 292.657,181.289 296.137,182.875 
  299.616,185.377 303.095,186.541 306.575,188.716 310.054,190.794 313.533,191.913 317.013,194.026 320.492,195.529 323.971,197.364 327.45,198.714 330.93,200.924 
  334.409,203.144 337.888,204.73 341.368,206.928 344.847,208.875 348.326,210.739 351.806,212.561 355.285,214.012 358.764,215.82 362.244,217.676 365.723,218.979 
  369.202,220.725 372.682,222.176 376.161,223.634 379.64,225.179 383.12,226.633 386.599,228.33 390.078,230.229 393.558,231.815 397.037,233.478 400.516,235.545 
  403.996,237.115 407.475,238.196 410.954,239.646 414.433,240.546 417.913,242.451 421.392,244.624 424.871,246.619 428.351,248.333 431.83,249.972 435.309,252.191 
  438.789,254.129 442.268,256.491 445.747,258.961 449.227,261.293 452.706,263.635 456.185,266.201 
  "/>
<polyline clip-path="url(#clip312)" style="stroke:#e26f46; stroke-width:2; stroke-opacity:1; fill:none" points="
  56.0636,34.4884 59.5429,48.2228 63.0222,65.5542 66.5015,80.1722 69.9808,92.278 73.4602,104.644 76.9395,116.484 80.4188,127.21 83.8981,135.458 87.3774,143.935 
  90.8568,158.369 94.3361,173.288 97.8154,186.409 101.295,197.377 104.774,208.163 108.253,219.792 111.733,227.579 115.212,237.467 118.691,250.204 
  "/>
<path clip-path="url(#clip310)" d="
M329.577 81.0842 L454.051 81.0842 L454.051 35.7242 L329.577 35.7242  Z
  " fill="#ffffff" fill-rule="evenodd" fill-opacity="1"/>
<polyline clip-path="url(#clip310)" style="stroke:#000000; stroke-width:1; stroke-opacity:1; fill:none" points="
  329.577,81.0842 454.051,81.0842 454.051,35.7242 329.577,35.7242 329.577,81.0842 
  "/>
<polyline clip-path="url(#clip310)" style="stroke:#009af9; stroke-width:1; stroke-opacity:1; fill:none" points="
  334.289,50.8442 362.565,50.8442 
  "/>
<path clip-path="url(#clip310)" d="M 0 0 M368.348 54.192 L368.348 57.6295 L367.277 57.6295 L367.277 48.6827 L368.348 48.6827 L368.348 49.6665 Q368.683 49.0878 369.193 48.8101 Q369.708 48.5265 370.419 48.5265 Q371.6 48.5265 372.335 49.464 Q373.076 50.4015 373.076 51.9293 Q373.076 53.457 372.335 54.3945 Q371.6 55.332 370.419 55.332 Q369.708 55.332 369.193 55.0542 Q368.683 54.7707 368.348 54.192 M371.97 51.9293 Q371.97 50.7545 371.484 50.089 Q371.004 49.4177 370.159 49.4177 Q369.314 49.4177 368.828 50.089 Q368.348 50.7545 368.348 51.9293 Q368.348 53.104 368.828 53.7753 Q369.314 54.4408 370.159 54.4408 Q371.004 54.4408 371.484 53.7753 Q371.97 53.104 371.97 51.9293 Z" fill="#000000" fill-rule="evenodd" fill-opacity="1" /><path clip-path="url(#clip310)" d="M 0 0 M374.193 46.1596 L375.257 46.1596 L375.257 55.1642 L374.193 55.1642 L374.193 46.1596 Z" fill="#000000" fill-rule="evenodd" fill-opacity="1" /><path clip-path="url(#clip310)" d="M 0 0 M379.32 51.9061 Q378.029 51.9061 377.532 52.2012 Q377.034 52.4964 377.034 53.2082 Q377.034 53.7753 377.404 54.111 Q377.781 54.4408 378.423 54.4408 Q379.308 54.4408 379.841 53.8158 Q380.379 53.185 380.379 52.1434 L380.379 51.9061 L379.32 51.9061 M381.444 51.4663 L381.444 55.1642 L380.379 55.1642 L380.379 54.1804 Q380.014 54.7707 379.47 55.0542 Q378.926 55.332 378.139 55.332 Q377.144 55.332 376.554 54.7765 Q375.969 54.2151 375.969 53.2776 Q375.969 52.1839 376.698 51.6283 Q377.433 51.0728 378.886 51.0728 L380.379 51.0728 L380.379 50.9686 Q380.379 50.2337 379.893 49.8344 Q379.412 49.4293 378.539 49.4293 Q377.983 49.4293 377.456 49.5624 Q376.93 49.6955 376.444 49.9617 L376.444 48.9779 Q377.028 48.7522 377.578 48.6422 Q378.128 48.5265 378.649 48.5265 Q380.055 48.5265 380.749 49.2557 Q381.444 49.9848 381.444 51.4663 Z" fill="#000000" fill-rule="evenodd" fill-opacity="1" /><path clip-path="url(#clip310)" d="M 0 0 M382.561 48.6827 L383.625 48.6827 L383.625 55.1642 L382.561 55.1642 L382.561 48.6827 M382.561 46.1596 L383.625 46.1596 L383.625 47.508 L382.561 47.508 L382.561 46.1596 Z" fill="#000000" fill-rule="evenodd" fill-opacity="1" /><path clip-path="url(#clip310)" d="M 0 0 M390.13 51.2522 L390.13 55.1642 L389.065 55.1642 L389.065 51.2869 Q389.065 50.3668 388.706 49.9096 Q388.348 49.4524 387.63 49.4524 Q386.768 49.4524 386.27 50.0022 Q385.772 50.5519 385.772 51.501 L385.772 55.1642 L384.702 55.1642 L384.702 48.6827 L385.772 48.6827 L385.772 49.6897 Q386.154 49.1052 386.669 48.8158 Q387.19 48.5265 387.867 48.5265 Q388.984 48.5265 389.557 49.2209 Q390.13 49.9096 390.13 51.2522 Z" fill="#000000" fill-rule="evenodd" fill-opacity="1" /><polyline clip-path="url(#clip310)" style="stroke:#e26f46; stroke-width:1; stroke-opacity:1; fill:none" points="
  334.289,65.9642 362.565,65.9642 
  "/>
<path clip-path="url(#clip310)" d="M 0 0 M368.348 69.312 L368.348 72.7495 L367.277 72.7495 L367.277 63.8027 L368.348 63.8027 L368.348 64.7865 Q368.683 64.2078 369.193 63.9301 Q369.708 63.6465 370.419 63.6465 Q371.6 63.6465 372.335 64.584 Q373.076 65.5215 373.076 67.0493 Q373.076 68.577 372.335 69.5145 Q371.6 70.452 370.419 70.452 Q369.708 70.452 369.193 70.1742 Q368.683 69.8907 368.348 69.312 M371.97 67.0493 Q371.97 65.8745 371.484 65.209 Q371.004 64.5377 370.159 64.5377 Q369.314 64.5377 368.828 65.209 Q368.348 65.8745 368.348 67.0493 Q368.348 68.224 368.828 68.8953 Q369.314 69.5608 370.159 69.5608 Q371.004 69.5608 371.484 68.8953 Q371.97 68.224 371.97 67.0493 Z" fill="#000000" fill-rule="evenodd" fill-opacity="1" /><path clip-path="url(#clip310)" d="M 0 0 M377.948 64.7981 Q377.769 64.6939 377.555 64.6476 Q377.347 64.5956 377.092 64.5956 Q376.189 64.5956 375.703 65.1858 Q375.223 65.7703 375.223 66.8699 L375.223 70.2842 L374.152 70.2842 L374.152 63.8027 L375.223 63.8027 L375.223 64.8097 Q375.558 64.2194 376.097 63.9358 Q376.635 63.6465 377.404 63.6465 Q377.514 63.6465 377.647 63.6639 Q377.781 63.6754 377.943 63.7044 L377.948 64.7981 Z" fill="#000000" fill-rule="evenodd" fill-opacity="1" /><path clip-path="url(#clip310)" d="M 0 0 M384.349 66.7773 L384.349 67.2981 L379.453 67.2981 Q379.522 68.3976 380.113 68.9763 Q380.709 69.5492 381.768 69.5492 Q382.381 69.5492 382.954 69.3988 Q383.533 69.2483 384.1 68.9474 L384.1 69.9543 Q383.527 70.1974 382.925 70.3247 Q382.323 70.452 381.704 70.452 Q380.153 70.452 379.245 69.5492 Q378.342 68.6465 378.342 67.1071 Q378.342 65.5157 379.198 64.584 Q380.061 63.6465 381.519 63.6465 Q382.827 63.6465 383.585 64.4914 Q384.349 65.3305 384.349 66.7773 M383.284 66.4648 Q383.272 65.5909 382.792 65.0701 Q382.318 64.5493 381.531 64.5493 Q380.639 64.5493 380.101 65.0527 Q379.569 65.5562 379.488 66.4706 L383.284 66.4648 Z" fill="#000000" fill-rule="evenodd" fill-opacity="1" /><path clip-path="url(#clip310)" d="M 0 0 M390.13 64.0516 L390.13 65.047 Q389.679 64.7981 389.221 64.6766 Q388.77 64.5493 388.307 64.5493 Q387.271 64.5493 386.698 65.209 Q386.125 65.8629 386.125 67.0493 Q386.125 68.2356 386.698 68.8953 Q387.271 69.5492 388.307 69.5492 Q388.77 69.5492 389.221 69.4277 Q389.679 69.3004 390.13 69.0516 L390.13 70.0354 Q389.684 70.2437 389.204 70.3479 Q388.73 70.452 388.191 70.452 Q386.727 70.452 385.865 69.5319 Q385.003 68.6117 385.003 67.0493 Q385.003 65.4636 385.871 64.5551 Q386.745 63.6465 388.261 63.6465 Q388.753 63.6465 389.221 63.7507 Q389.69 63.849 390.13 64.0516 Z" fill="#000000" fill-rule="evenodd" fill-opacity="1" /><path clip-path="url(#clip310)" d="M 0 0 M393.758 64.5493 Q392.902 64.5493 392.404 65.2206 Q391.907 65.8861 391.907 67.0493 Q391.907 68.2124 392.399 68.8837 Q392.896 69.5492 393.758 69.5492 Q394.609 69.5492 395.107 68.878 Q395.605 68.2067 395.605 67.0493 Q395.605 65.8976 395.107 65.2264 Q394.609 64.5493 393.758 64.5493 M393.758 63.6465 Q395.147 63.6465 395.94 64.5493 Q396.733 65.452 396.733 67.0493 Q396.733 68.6407 395.94 69.5492 Q395.147 70.452 393.758 70.452 Q392.364 70.452 391.571 69.5492 Q390.784 68.6407 390.784 67.0493 Q390.784 65.452 391.571 64.5493 Q392.364 63.6465 393.758 63.6465 Z" fill="#000000" fill-rule="evenodd" fill-opacity="1" /><path clip-path="url(#clip310)" d="M 0 0 M403.238 66.3722 L403.238 70.2842 L402.173 70.2842 L402.173 66.4069 Q402.173 65.4868 401.814 65.0296 Q401.455 64.5724 400.738 64.5724 Q399.875 64.5724 399.378 65.1222 Q398.88 65.6719 398.88 66.621 L398.88 70.2842 L397.809 70.2842 L397.809 63.8027 L398.88 63.8027 L398.88 64.8097 Q399.262 64.2252 399.777 63.9358 Q400.298 63.6465 400.975 63.6465 Q402.092 63.6465 402.665 64.3409 Q403.238 65.0296 403.238 66.3722 Z" fill="#000000" fill-rule="evenodd" fill-opacity="1" /><path clip-path="url(#clip310)" d="M 0 0 M408.619 64.7865 L408.619 61.2796 L409.684 61.2796 L409.684 70.2842 L408.619 70.2842 L408.619 69.312 Q408.284 69.8907 407.769 70.1742 Q407.26 70.452 406.542 70.452 Q405.367 70.452 404.626 69.5145 Q403.892 68.577 403.892 67.0493 Q403.892 65.5215 404.626 64.584 Q405.367 63.6465 406.542 63.6465 Q407.26 63.6465 407.769 63.9301 Q408.284 64.2078 408.619 64.7865 M404.991 67.0493 Q404.991 68.224 405.471 68.8953 Q405.957 69.5608 406.802 69.5608 Q407.647 69.5608 408.133 68.8953 Q408.619 68.224 408.619 67.0493 Q408.619 65.8745 408.133 65.209 Q407.647 64.5377 406.802 64.5377 Q405.957 64.5377 405.471 65.209 Q404.991 65.8745 404.991 67.0493 Z" fill="#000000" fill-rule="evenodd" fill-opacity="1" /><path clip-path="url(#clip310)" d="M 0 0 M410.801 63.8027 L411.866 63.8027 L411.866 70.2842 L410.801 70.2842 L410.801 63.8027 M410.801 61.2796 L411.866 61.2796 L411.866 62.628 L410.801 62.628 L410.801 61.2796 Z" fill="#000000" fill-rule="evenodd" fill-opacity="1" /><path clip-path="url(#clip310)" d="M 0 0 M414.036 61.9625 L414.036 63.8027 L416.229 63.8027 L416.229 64.6303 L414.036 64.6303 L414.036 68.1488 Q414.036 68.9416 414.25 69.1673 Q414.47 69.393 415.136 69.393 L416.229 69.393 L416.229 70.2842 L415.136 70.2842 Q413.903 70.2842 413.434 69.827 Q412.966 69.3641 412.966 68.1488 L412.966 64.6303 L412.184 64.6303 L412.184 63.8027 L412.966 63.8027 L412.966 61.9625 L414.036 61.9625 Z" fill="#000000" fill-rule="evenodd" fill-opacity="1" /><path clip-path="url(#clip310)" d="M 0 0 M417.346 63.8027 L418.411 63.8027 L418.411 70.2842 L417.346 70.2842 L417.346 63.8027 M417.346 61.2796 L418.411 61.2796 L418.411 62.628 L417.346 62.628 L417.346 61.2796 Z" fill="#000000" fill-rule="evenodd" fill-opacity="1" /><path clip-path="url(#clip310)" d="M 0 0 M422.04 64.5493 Q421.183 64.5493 420.685 65.2206 Q420.188 65.8861 420.188 67.0493 Q420.188 68.2124 420.68 68.8837 Q421.177 69.5492 422.04 69.5492 Q422.89 69.5492 423.388 68.878 Q423.886 68.2067 423.886 67.0493 Q423.886 65.8976 423.388 65.2264 Q422.89 64.5493 422.04 64.5493 M422.04 63.6465 Q423.428 63.6465 424.221 64.5493 Q425.014 65.452 425.014 67.0493 Q425.014 68.6407 424.221 69.5492 Q423.428 70.452 422.04 70.452 Q420.645 70.452 419.852 69.5492 Q419.065 68.6407 419.065 67.0493 Q419.065 65.452 419.852 64.5493 Q420.645 63.6465 422.04 63.6465 Z" fill="#000000" fill-rule="evenodd" fill-opacity="1" /><path clip-path="url(#clip310)" d="M 0 0 M431.519 66.3722 L431.519 70.2842 L430.454 70.2842 L430.454 66.4069 Q430.454 65.4868 430.095 65.0296 Q429.736 64.5724 429.019 64.5724 Q428.156 64.5724 427.659 65.1222 Q427.161 65.6719 427.161 66.621 L427.161 70.2842 L426.09 70.2842 L426.09 63.8027 L427.161 63.8027 L427.161 64.8097 Q427.543 64.2252 428.058 63.9358 Q428.579 63.6465 429.256 63.6465 Q430.373 63.6465 430.946 64.3409 Q431.519 65.0296 431.519 66.3722 Z" fill="#000000" fill-rule="evenodd" fill-opacity="1" /><path clip-path="url(#clip310)" d="M 0 0 M438.18 66.7773 L438.18 67.2981 L433.284 67.2981 Q433.353 68.3976 433.943 68.9763 Q434.539 69.5492 435.599 69.5492 Q436.212 69.5492 436.785 69.3988 Q437.364 69.2483 437.931 68.9474 L437.931 69.9543 Q437.358 70.1974 436.756 70.3247 Q436.154 70.452 435.535 70.452 Q433.984 70.452 433.075 69.5492 Q432.173 68.6465 432.173 67.1071 Q432.173 65.5157 433.029 64.584 Q433.891 63.6465 435.35 63.6465 Q436.658 63.6465 437.416 64.4914 Q438.18 65.3305 438.18 66.7773 M437.115 66.4648 Q437.103 65.5909 436.623 65.0701 Q436.148 64.5493 435.361 64.5493 Q434.47 64.5493 433.932 65.0527 Q433.399 65.5562 433.318 66.4706 L437.115 66.4648 Z" fill="#000000" fill-rule="evenodd" fill-opacity="1" /><path clip-path="url(#clip310)" d="M 0 0 M443.561 64.7865 L443.561 61.2796 L444.626 61.2796 L444.626 70.2842 L443.561 70.2842 L443.561 69.312 Q443.226 69.8907 442.711 70.1742 Q442.201 70.452 441.484 70.452 Q440.309 70.452 439.568 69.5145 Q438.833 68.577 438.833 67.0493 Q438.833 65.5215 439.568 64.584 Q440.309 63.6465 441.484 63.6465 Q442.201 63.6465 442.711 63.9301 Q443.226 64.2078 443.561 64.7865 M439.933 67.0493 Q439.933 68.224 440.413 68.8953 Q440.899 69.5608 441.744 69.5608 Q442.589 69.5608 443.075 68.8953 Q443.561 68.224 443.561 67.0493 Q443.561 65.8745 443.075 65.209 Q442.589 64.5377 441.744 64.5377 Q440.899 64.5377 440.413 65.209 Q439.933 65.8745 439.933 67.0493 Z" fill="#000000" fill-rule="evenodd" fill-opacity="1" /></svg>
