<?xml version="1.0" encoding="utf-8"?>
<svg xmlns="http://www.w3.org/2000/svg" xmlns:xlink="http://www.w3.org/1999/xlink" width="120" height="75" viewBox="0 0 480 300">
<defs>
  <clipPath id="clip350">
    <rect x="0" y="0" width="480" height="300"/>
  </clipPath>
</defs>
<path clip-path="url(#clip350)" d="
M0 300 L480 300 L480 0 L0 0  Z
  " fill="#ffffff" fill-rule="evenodd" fill-opacity="1"/>
<defs>
  <clipPath id="clip351">
    <rect x="96" y="0" width="337" height="300"/>
  </clipPath>
</defs>
<path clip-path="url(#clip350)" d="
M58.8035 258.408 L468.189 258.408 L468.189 27.537 L58.8035 27.537  Z
  " fill="#ffffff" fill-rule="evenodd" fill-opacity="1"/>
<defs>
  <clipPath id="clip352">
    <rect x="58" y="27" width="410" height="232"/>
  </clipPath>
</defs>
<polyline clip-path="url(#clip352)" style="stroke:#000000; stroke-width:0.5; stroke-opacity:0.1; fill:none" points="
  70.3899,258.408 70.3899,27.537 
  "/>
<polyline clip-path="url(#clip352)" style="stroke:#000000; stroke-width:0.5; stroke-opacity:0.1; fill:none" points="
  166.943,258.408 166.943,27.537 
  "/>
<polyline clip-path="url(#clip352)" style="stroke:#000000; stroke-width:0.5; stroke-opacity:0.1; fill:none" points="
  263.496,258.408 263.496,27.537 
  "/>
<polyline clip-path="url(#clip352)" style="stroke:#000000; stroke-width:0.5; stroke-opacity:0.1; fill:none" points="
  360.049,258.408 360.049,27.537 
  "/>
<polyline clip-path="url(#clip352)" style="stroke:#000000; stroke-width:0.5; stroke-opacity:0.1; fill:none" points="
  456.603,258.408 456.603,27.537 
  "/>
<polyline clip-path="url(#clip350)" style="stroke:#000000; stroke-width:1; stroke-opacity:1; fill:none" points="
  58.8035,258.408 468.189,258.408 
  "/>
<polyline clip-path="url(#clip350)" style="stroke:#000000; stroke-width:1; stroke-opacity:1; fill:none" points="
  70.3899,258.408 70.3899,255.638 
  "/>
<polyline clip-path="url(#clip350)" style="stroke:#000000; stroke-width:1; stroke-opacity:1; fill:none" points="
  166.943,258.408 166.943,255.638 
  "/>
<polyline clip-path="url(#clip350)" style="stroke:#000000; stroke-width:1; stroke-opacity:1; fill:none" points="
  263.496,258.408 263.496,255.638 
  "/>
<polyline clip-path="url(#clip350)" style="stroke:#000000; stroke-width:1; stroke-opacity:1; fill:none" points="
  360.049,258.408 360.049,255.638 
  "/>
<polyline clip-path="url(#clip350)" style="stroke:#000000; stroke-width:1; stroke-opacity:1; fill:none" points="
  456.603,258.408 456.603,255.638 
  "/>
<path clip-path="url(#clip350)" d="M 0 0 M70.3899 264.746 Q69.4871 264.746 69.0299 265.637 Q68.5786 266.523 68.5786 268.305 Q68.5786 270.082 69.0299 270.973 Q69.4871 271.858 70.3899 271.858 Q71.2984 271.858 71.7498 270.973 Q72.207 270.082 72.207 268.305 Q72.207 266.523 71.7498 265.637 Q71.2984 264.746 70.3899 264.746 M70.3899 263.82 Q71.8424 263.82 72.6063 264.972 Q73.376 266.118 73.376 268.305 Q73.376 270.487 72.6063 271.638 Q71.8424 272.784 70.3899 272.784 Q68.9373 272.784 68.1677 271.638 Q67.4038 270.487 67.4038 268.305 Q67.4038 266.118 68.1677 264.972 Q68.9373 263.82 70.3899 263.82 Z" fill="#000000" fill-rule="evenodd" fill-opacity="1" /><path clip-path="url(#clip350)" d="M 0 0 M161.162 271.633 L163.072 271.633 L163.072 265.041 L160.994 265.458 L160.994 264.393 L163.06 263.976 L164.229 263.976 L164.229 271.633 L166.139 271.633 L166.139 272.616 L161.162 272.616 L161.162 271.633 Z" fill="#000000" fill-rule="evenodd" fill-opacity="1" /><path clip-path="url(#clip350)" d="M 0 0 M169.906 264.746 Q169.003 264.746 168.546 265.637 Q168.095 266.523 168.095 268.305 Q168.095 270.082 168.546 270.973 Q169.003 271.858 169.906 271.858 Q170.815 271.858 171.266 270.973 Q171.723 270.082 171.723 268.305 Q171.723 266.523 171.266 265.637 Q170.815 264.746 169.906 264.746 M169.906 263.82 Q171.359 263.82 172.122 264.972 Q172.892 266.118 172.892 268.305 Q172.892 270.487 172.122 271.638 Q171.359 272.784 169.906 272.784 Q168.453 272.784 167.684 271.638 Q166.92 270.487 166.92 268.305 Q166.92 266.118 167.684 264.972 Q168.453 263.82 169.906 263.82 Z" fill="#000000" fill-rule="evenodd" fill-opacity="1" /><path clip-path="url(#clip350)" d="M 0 0 M258.783 271.633 L262.863 271.633 L262.863 272.616 L257.376 272.616 L257.376 271.633 Q258.042 270.944 259.188 269.787 Q260.339 268.623 260.635 268.288 Q261.196 267.657 261.416 267.223 Q261.642 266.783 261.642 266.361 Q261.642 265.672 261.155 265.238 Q260.675 264.804 259.9 264.804 Q259.35 264.804 258.736 264.995 Q258.129 265.186 257.434 265.574 L257.434 264.393 Q258.14 264.109 258.754 263.965 Q259.367 263.82 259.876 263.82 Q261.219 263.82 262.018 264.491 Q262.816 265.163 262.816 266.285 Q262.816 266.818 262.614 267.298 Q262.417 267.773 261.89 268.421 Q261.746 268.589 260.97 269.393 Q260.195 270.192 258.783 271.633 Z" fill="#000000" fill-rule="evenodd" fill-opacity="1" /><path clip-path="url(#clip350)" d="M 0 0 M266.63 264.746 Q265.727 264.746 265.27 265.637 Q264.819 266.523 264.819 268.305 Q264.819 270.082 265.27 270.973 Q265.727 271.858 266.63 271.858 Q267.538 271.858 267.99 270.973 Q268.447 270.082 268.447 268.305 Q268.447 266.523 267.99 265.637 Q267.538 264.746 266.63 264.746 M266.63 263.82 Q268.082 263.82 268.846 264.972 Q269.616 266.118 269.616 268.305 Q269.616 270.487 268.846 271.638 Q268.082 272.784 266.63 272.784 Q265.177 272.784 264.408 271.638 Q263.644 270.487 263.644 268.305 Q263.644 266.118 264.408 264.972 Q265.177 263.82 266.63 263.82 Z" fill="#000000" fill-rule="evenodd" fill-opacity="1" /><path clip-path="url(#clip350)" d="M 0 0 M357.735 267.958 Q358.574 268.137 359.042 268.704 Q359.517 269.271 359.517 270.105 Q359.517 271.384 358.637 272.084 Q357.758 272.784 356.137 272.784 Q355.593 272.784 355.015 272.674 Q354.442 272.57 353.828 272.356 L353.828 271.227 Q354.314 271.511 354.893 271.656 Q355.472 271.8 356.103 271.8 Q357.202 271.8 357.775 271.366 Q358.354 270.932 358.354 270.105 Q358.354 269.341 357.816 268.913 Q357.283 268.479 356.328 268.479 L355.321 268.479 L355.321 267.518 L356.375 267.518 Q357.237 267.518 357.694 267.177 Q358.151 266.829 358.151 266.181 Q358.151 265.516 357.677 265.163 Q357.208 264.804 356.328 264.804 Q355.848 264.804 355.298 264.908 Q354.749 265.012 354.089 265.232 L354.089 264.19 Q354.754 264.005 355.333 263.913 Q355.917 263.82 356.433 263.82 Q357.764 263.82 358.539 264.428 Q359.314 265.03 359.314 266.06 Q359.314 266.777 358.904 267.275 Q358.493 267.767 357.735 267.958 Z" fill="#000000" fill-rule="evenodd" fill-opacity="1" /><path clip-path="url(#clip350)" d="M 0 0 M363.284 264.746 Q362.382 264.746 361.924 265.637 Q361.473 266.523 361.473 268.305 Q361.473 270.082 361.924 270.973 Q362.382 271.858 363.284 271.858 Q364.193 271.858 364.644 270.973 Q365.101 270.082 365.101 268.305 Q365.101 266.523 364.644 265.637 Q364.193 264.746 363.284 264.746 M363.284 263.82 Q364.737 263.82 365.501 264.972 Q366.27 266.118 366.27 268.305 Q366.27 270.487 365.501 271.638 Q364.737 272.784 363.284 272.784 Q361.832 272.784 361.062 271.638 Q360.298 270.487 360.298 268.305 Q360.298 266.118 361.062 264.972 Q361.832 263.82 363.284 263.82 Z" fill="#000000" fill-rule="evenodd" fill-opacity="1" /><path clip-path="url(#clip350)" d="M 0 0 M453.978 264.995 L451.027 269.607 L453.978 269.607 L453.978 264.995 M453.671 263.976 L455.141 263.976 L455.141 269.607 L456.374 269.607 L456.374 270.579 L455.141 270.579 L455.141 272.616 L453.978 272.616 L453.978 270.579 L450.078 270.579 L450.078 269.451 L453.671 263.976 Z" fill="#000000" fill-rule="evenodd" fill-opacity="1" /><path clip-path="url(#clip350)" d="M 0 0 M460.141 264.746 Q459.239 264.746 458.781 265.637 Q458.33 266.523 458.33 268.305 Q458.33 270.082 458.781 270.973 Q459.239 271.858 460.141 271.858 Q461.05 271.858 461.501 270.973 Q461.958 270.082 461.958 268.305 Q461.958 266.523 461.501 265.637 Q461.05 264.746 460.141 264.746 M460.141 263.82 Q461.594 263.82 462.358 264.972 Q463.127 266.118 463.127 268.305 Q463.127 270.487 462.358 271.638 Q461.594 272.784 460.141 272.784 Q458.689 272.784 457.919 271.638 Q457.155 270.487 457.155 268.305 Q457.155 266.118 457.919 264.972 Q458.689 263.82 460.141 263.82 Z" fill="#000000" fill-rule="evenodd" fill-opacity="1" /><g clip-path="url(#clip350)">
<text style="fill:#000000; fill-opacity:1; font-family:Arial,Helvetica Neue,Helvetica,sans-serif; font-size:16px; text-anchor:middle;" transform="rotate(0, 263.496, 293.459)" x="263.496" y="293.459">iteration number</text>
</g>
<polyline clip-path="url(#clip352)" style="stroke:#000000; stroke-width:0.5; stroke-opacity:0.1; fill:none" points="
  58.8035,239.594 468.189,239.594 
  "/>
<polyline clip-path="url(#clip352)" style="stroke:#000000; stroke-width:0.5; stroke-opacity:0.1; fill:none" points="
  58.8035,198.49 468.189,198.49 
  "/>
<polyline clip-path="url(#clip352)" style="stroke:#000000; stroke-width:0.5; stroke-opacity:0.1; fill:none" points="
  58.8035,157.385 468.189,157.385 
  "/>
<polyline clip-path="url(#clip352)" style="stroke:#000000; stroke-width:0.5; stroke-opacity:0.1; fill:none" points="
  58.8035,116.28 468.189,116.28 
  "/>
<polyline clip-path="url(#clip352)" style="stroke:#000000; stroke-width:0.5; stroke-opacity:0.1; fill:none" points="
  58.8035,75.1758 468.189,75.1758 
  "/>
<polyline clip-path="url(#clip352)" style="stroke:#000000; stroke-width:0.5; stroke-opacity:0.1; fill:none" points="
  58.8035,34.0711 468.189,34.0711 
  "/>
<polyline clip-path="url(#clip350)" style="stroke:#000000; stroke-width:1; stroke-opacity:1; fill:none" points="
  58.8035,258.408 58.8035,27.537 
  "/>
<polyline clip-path="url(#clip350)" style="stroke:#000000; stroke-width:1; stroke-opacity:1; fill:none" points="
  58.8035,239.594 63.7161,239.594 
  "/>
<polyline clip-path="url(#clip350)" style="stroke:#000000; stroke-width:1; stroke-opacity:1; fill:none" points="
  58.8035,198.49 63.7161,198.49 
  "/>
<polyline clip-path="url(#clip350)" style="stroke:#000000; stroke-width:1; stroke-opacity:1; fill:none" points="
  58.8035,157.385 63.7161,157.385 
  "/>
<polyline clip-path="url(#clip350)" style="stroke:#000000; stroke-width:1; stroke-opacity:1; fill:none" points="
  58.8035,116.28 63.7161,116.28 
  "/>
<polyline clip-path="url(#clip350)" style="stroke:#000000; stroke-width:1; stroke-opacity:1; fill:none" points="
  58.8035,75.1758 63.7161,75.1758 
  "/>
<polyline clip-path="url(#clip350)" style="stroke:#000000; stroke-width:1; stroke-opacity:1; fill:none" points="
  58.8035,34.0711 63.7161,34.0711 
  "/>
<path clip-path="url(#clip350)" d="M 0 0 M28.5604 244.542 L30.4701 244.542 L30.4701 237.951 L28.3925 238.368 L28.3925 237.303 L30.4585 236.886 L31.6275 236.886 L31.6275 244.542 L33.5372 244.542 L33.5372 245.526 L28.5604 245.526 L28.5604 244.542 Z" fill="#000000" fill-rule="evenodd" fill-opacity="1" /><path clip-path="url(#clip350)" d="M 0 0 M37.3045 237.656 Q36.4018 237.656 35.9446 238.547 Q35.4932 239.433 35.4932 241.215 Q35.4932 242.992 35.9446 243.883 Q36.4018 244.768 37.3045 244.768 Q38.2131 244.768 38.6645 243.883 Q39.1217 242.992 39.1217 241.215 Q39.1217 239.433 38.6645 238.547 Q38.2131 237.656 37.3045 237.656 M37.3045 236.73 Q38.7571 236.73 39.521 237.882 Q40.2906 239.027 40.2906 241.215 Q40.2906 243.397 39.521 244.548 Q38.7571 245.694 37.3045 245.694 Q35.852 245.694 35.0823 244.548 Q34.3184 243.397 34.3184 241.215 Q34.3184 239.027 35.0823 237.882 Q35.852 236.73 37.3045 236.73 Z" fill="#000000" fill-rule="evenodd" fill-opacity="1" /><path clip-path="url(#clip350)" d="M 0 0 M40.2906 235.255 L46.3185 235.255 L46.3185 236.055 L40.2906 236.055 L40.2906 235.255 Z" fill="#000000" fill-rule="evenodd" fill-opacity="1" /><path clip-path="url(#clip350)" d="M 0 0 M47.3576 231.654 L51.0863 231.654 L51.0863 232.453 L48.2275 232.453 L48.2275 234.174 Q48.4344 234.103 48.6413 234.07 Q48.8482 234.033 49.055 234.033 Q50.2305 234.033 50.917 234.677 Q51.6035 235.321 51.6035 236.421 Q51.6035 237.555 50.8982 238.185 Q50.1929 238.81 48.9093 238.81 Q48.4673 238.81 48.0065 238.735 Q47.5504 238.66 47.0614 238.509 L47.0614 237.555 Q47.4846 237.785 47.936 237.898 Q48.3874 238.011 48.8905 238.011 Q49.7039 238.011 50.1788 237.583 Q50.6537 237.155 50.6537 236.421 Q50.6537 235.688 50.1788 235.26 Q49.7039 234.832 48.8905 234.832 Q48.5096 234.832 48.1288 234.917 Q47.7526 235.001 47.3576 235.18 L47.3576 231.654 Z" fill="#000000" fill-rule="evenodd" fill-opacity="1" /><path clip-path="url(#clip350)" d="M 0 0 M28.2594 203.438 L30.1692 203.438 L30.1692 196.846 L28.0916 197.263 L28.0916 196.198 L30.1576 195.782 L31.3266 195.782 L31.3266 203.438 L33.2363 203.438 L33.2363 204.422 L28.2594 204.422 L28.2594 203.438 Z" fill="#000000" fill-rule="evenodd" fill-opacity="1" /><path clip-path="url(#clip350)" d="M 0 0 M37.0036 196.551 Q36.1008 196.551 35.6437 197.442 Q35.1923 198.328 35.1923 200.11 Q35.1923 201.887 35.6437 202.778 Q36.1008 203.664 37.0036 203.664 Q37.9122 203.664 38.3636 202.778 Q38.8207 201.887 38.8207 200.11 Q38.8207 198.328 38.3636 197.442 Q37.9122 196.551 37.0036 196.551 M37.0036 195.625 Q38.4561 195.625 39.22 196.777 Q39.9897 197.923 39.9897 200.11 Q39.9897 202.292 39.22 203.444 Q38.4561 204.589 37.0036 204.589 Q35.5511 204.589 34.7814 203.444 Q34.0175 202.292 34.0175 200.11 Q34.0175 197.923 34.7814 196.777 Q35.5511 195.625 37.0036 195.625 Z" fill="#000000" fill-rule="evenodd" fill-opacity="1" /><path clip-path="url(#clip350)" d="M 0 0 M39.9897 194.151 L46.0176 194.151 L46.0176 194.95 L39.9897 194.95 L39.9897 194.151 Z" fill="#000000" fill-rule="evenodd" fill-opacity="1" /><path clip-path="url(#clip350)" d="M 0 0 M49.6569 191.377 L47.2589 195.124 L49.6569 195.124 L49.6569 191.377 M49.4077 190.549 L50.602 190.549 L50.602 195.124 L51.6035 195.124 L51.6035 195.914 L50.602 195.914 L50.602 197.569 L49.6569 197.569 L49.6569 195.914 L46.4878 195.914 L46.4878 194.997 L49.4077 190.549 Z" fill="#000000" fill-rule="evenodd" fill-opacity="1" /><path clip-path="url(#clip350)" d="M 0 0 M28.4898 162.333 L30.3996 162.333 L30.3996 155.742 L28.322 156.158 L28.322 155.094 L30.388 154.677 L31.557 154.677 L31.557 162.333 L33.4667 162.333 L33.4667 163.317 L28.4898 163.317 L28.4898 162.333 Z" fill="#000000" fill-rule="evenodd" fill-opacity="1" /><path clip-path="url(#clip350)" d="M 0 0 M37.234 155.447 Q36.3312 155.447 35.8741 156.338 Q35.4227 157.223 35.4227 159.006 Q35.4227 160.782 35.8741 161.673 Q36.3312 162.559 37.234 162.559 Q38.1426 162.559 38.594 161.673 Q39.0511 160.782 39.0511 159.006 Q39.0511 157.223 38.594 156.338 Q38.1426 155.447 37.234 155.447 M37.234 154.521 Q38.6865 154.521 39.4504 155.672 Q40.2201 156.818 40.2201 159.006 Q40.2201 161.187 39.4504 162.339 Q38.6865 163.485 37.234 163.485 Q35.7815 163.485 35.0118 162.339 Q34.2479 161.187 34.2479 159.006 Q34.2479 156.818 35.0118 155.672 Q35.7815 154.521 37.234 154.521 Z" fill="#000000" fill-rule="evenodd" fill-opacity="1" /><path clip-path="url(#clip350)" d="M 0 0 M40.2201 153.046 L46.248 153.046 L46.248 153.845 L40.2201 153.845 L40.2201 153.046 Z" fill="#000000" fill-rule="evenodd" fill-opacity="1" /><path clip-path="url(#clip350)" d="M 0 0 M50.1553 152.679 Q50.8371 152.825 51.2179 153.286 Q51.6035 153.747 51.6035 154.424 Q51.6035 155.463 50.8888 156.032 Q50.1741 156.601 48.8576 156.601 Q48.4156 156.601 47.9454 156.511 Q47.4799 156.427 46.9815 156.253 L46.9815 155.336 Q47.3765 155.566 47.8467 155.684 Q48.3168 155.801 48.8294 155.801 Q49.7227 155.801 50.1882 155.449 Q50.6584 155.096 50.6584 154.424 Q50.6584 153.803 50.2211 153.455 Q49.7886 153.102 49.0127 153.102 L48.1946 153.102 L48.1946 152.322 L49.0503 152.322 Q49.7509 152.322 50.1224 152.045 Q50.4938 151.762 50.4938 151.236 Q50.4938 150.695 50.1083 150.408 Q49.7274 150.117 49.0127 150.117 Q48.6225 150.117 48.1758 150.201 Q47.7291 150.286 47.1931 150.465 L47.1931 149.618 Q47.7338 149.468 48.204 149.393 Q48.6789 149.317 49.0974 149.317 Q50.1788 149.317 50.8089 149.811 Q51.4389 150.3 51.4389 151.137 Q51.4389 151.72 51.1051 152.124 Q50.7713 152.524 50.1553 152.679 Z" fill="#000000" fill-rule="evenodd" fill-opacity="1" /><path clip-path="url(#clip350)" d="M 0 0 M28.6826 121.229 L30.5923 121.229 L30.5923 114.637 L28.5148 115.054 L28.5148 113.989 L30.5808 113.572 L31.7497 113.572 L31.7497 121.229 L33.6594 121.229 L33.6594 122.212 L28.6826 122.212 L28.6826 121.229 Z" fill="#000000" fill-rule="evenodd" fill-opacity="1" /><path clip-path="url(#clip350)" d="M 0 0 M37.4268 114.342 Q36.524 114.342 36.0668 115.233 Q35.6155 116.119 35.6155 117.901 Q35.6155 119.678 36.0668 120.569 Q36.524 121.454 37.4268 121.454 Q38.3353 121.454 38.7867 120.569 Q39.2439 119.678 39.2439 117.901 Q39.2439 116.119 38.7867 115.233 Q38.3353 114.342 37.4268 114.342 M37.4268 113.416 Q38.8793 113.416 39.6432 114.568 Q40.4129 115.714 40.4129 117.901 Q40.4129 120.083 39.6432 121.234 Q38.8793 122.38 37.4268 122.38 Q35.9742 122.38 35.2046 121.234 Q34.4407 120.083 34.4407 117.901 Q34.4407 115.714 35.2046 114.568 Q35.9742 113.416 37.4268 113.416 Z" fill="#000000" fill-rule="evenodd" fill-opacity="1" /><path clip-path="url(#clip350)" d="M 0 0 M40.4129 111.941 L46.4408 111.941 L46.4408 112.741 L40.4129 112.741 L40.4129 111.941 Z" fill="#000000" fill-rule="evenodd" fill-opacity="1" /><path clip-path="url(#clip350)" d="M 0 0 M48.2886 114.56 L51.6035 114.56 L51.6035 115.36 L47.1461 115.36 L47.1461 114.56 Q47.6868 114.001 48.6178 113.06 Q49.5535 112.115 49.7933 111.843 Q50.2493 111.33 50.428 110.978 Q50.6114 110.62 50.6114 110.277 Q50.6114 109.717 50.2164 109.365 Q49.8262 109.012 49.1961 109.012 Q48.7494 109.012 48.251 109.167 Q47.7573 109.322 47.1931 109.637 L47.1931 108.678 Q47.7667 108.448 48.2651 108.33 Q48.7635 108.213 49.1773 108.213 Q50.2682 108.213 50.917 108.758 Q51.5659 109.304 51.5659 110.216 Q51.5659 110.648 51.4013 111.039 Q51.2415 111.424 50.8136 111.951 Q50.696 112.087 50.066 112.741 Q49.4359 113.39 48.2886 114.56 Z" fill="#000000" fill-rule="evenodd" fill-opacity="1" /><path clip-path="url(#clip350)" d="M 0 0 M28.6074 80.1239 L30.5171 80.1239 L30.5171 73.5325 L28.4396 73.9491 L28.4396 72.8843 L30.5055 72.4677 L31.6745 72.4677 L31.6745 80.1239 L33.5842 80.1239 L33.5842 81.1077 L28.6074 81.1077 L28.6074 80.1239 Z" fill="#000000" fill-rule="evenodd" fill-opacity="1" /><path clip-path="url(#clip350)" d="M 0 0 M37.3516 73.2373 Q36.4488 73.2373 35.9916 74.1285 Q35.5402 75.014 35.5402 76.7964 Q35.5402 78.573 35.9916 79.4642 Q36.4488 80.3496 37.3516 80.3496 Q38.2601 80.3496 38.7115 79.4642 Q39.1687 78.573 39.1687 76.7964 Q39.1687 75.014 38.7115 74.1285 Q38.2601 73.2373 37.3516 73.2373 M37.3516 72.3114 Q38.8041 72.3114 39.568 73.463 Q40.3376 74.6089 40.3376 76.7964 Q40.3376 78.9781 39.568 80.1297 Q38.8041 81.2755 37.3516 81.2755 Q35.899 81.2755 35.1293 80.1297 Q34.3655 78.9781 34.3655 76.7964 Q34.3655 74.6089 35.1293 73.463 Q35.899 72.3114 37.3516 72.3114 Z" fill="#000000" fill-rule="evenodd" fill-opacity="1" /><path clip-path="url(#clip350)" d="M 0 0 M40.3376 70.8368 L46.3655 70.8368 L46.3655 71.6361 L40.3376 71.6361 L40.3376 70.8368 Z" fill="#000000" fill-rule="evenodd" fill-opacity="1" /><path clip-path="url(#clip350)" d="M 0 0 M47.5598 73.4557 L49.1115 73.4557 L49.1115 68.1002 L47.4235 68.4388 L47.4235 67.5736 L49.1021 67.2351 L50.0519 67.2351 L50.0519 73.4557 L51.6035 73.4557 L51.6035 74.2551 L47.5598 74.2551 L47.5598 73.4557 Z" fill="#000000" fill-rule="evenodd" fill-opacity="1" /><path clip-path="url(#clip350)" d="M 0 0 M35.0208 39.0192 L36.9305 39.0192 L36.9305 32.4278 L34.853 32.8445 L34.853 31.7797 L36.919 31.363 L38.0879 31.363 L38.0879 39.0192 L39.9977 39.0192 L39.9977 40.003 L35.0208 40.003 L35.0208 39.0192 Z" fill="#000000" fill-rule="evenodd" fill-opacity="1" /><path clip-path="url(#clip350)" d="M 0 0 M43.765 32.1327 Q42.8622 32.1327 42.4051 33.0239 Q41.9537 33.9093 41.9537 35.6917 Q41.9537 37.4683 42.4051 38.3595 Q42.8622 39.2449 43.765 39.2449 Q44.6736 39.2449 45.1249 38.3595 Q45.5821 37.4683 45.5821 35.6917 Q45.5821 33.9093 45.1249 33.0239 Q44.6736 32.1327 43.765 32.1327 M43.765 31.2068 Q45.2175 31.2068 45.9814 32.3584 Q46.7511 33.5042 46.7511 35.6917 Q46.7511 37.8734 45.9814 39.025 Q45.2175 40.1708 43.765 40.1708 Q42.3125 40.1708 41.5428 39.025 Q40.7789 37.8734 40.7789 35.6917 Q40.7789 33.5042 41.5428 32.3584 Q42.3125 31.2068 43.765 31.2068 Z" fill="#000000" fill-rule="evenodd" fill-opacity="1" /><path clip-path="url(#clip350)" d="M 0 0 M49.1773 26.7558 Q48.4438 26.7558 48.0723 27.4799 Q47.7056 28.1993 47.7056 29.6475 Q47.7056 31.091 48.0723 31.8151 Q48.4438 32.5345 49.1773 32.5345 Q49.9155 32.5345 50.2823 31.8151 Q50.6537 31.091 50.6537 29.6475 Q50.6537 28.1993 50.2823 27.4799 Q49.9155 26.7558 49.1773 26.7558 M49.1773 26.0035 Q50.3575 26.0035 50.9781 26.9392 Q51.6035 27.8701 51.6035 29.6475 Q51.6035 31.4201 50.9781 32.3558 Q50.3575 33.2868 49.1773 33.2868 Q47.9971 33.2868 47.3718 32.3558 Q46.7511 31.4201 46.7511 29.6475 Q46.7511 27.8701 47.3718 26.9392 Q47.9971 26.0035 49.1773 26.0035 Z" fill="#000000" fill-rule="evenodd" fill-opacity="1" /><g clip-path="url(#clip350)">
<text style="fill:#000000; fill-opacity:1; font-family:Arial,Helvetica Neue,Helvetica,sans-serif; font-size:16px; text-anchor:middle;" transform="rotate(-90, 18.0011, 142.973)" x="18.0011" y="142.973">residual norm</text>
</g>
<g clip-path="url(#clip350)">
<text style="fill:#000000; fill-opacity:1; font-family:Arial,Helvetica Neue,Helvetica,sans-serif; font-size:18px; font-weight:bold; text-anchor:middle;" transform="rotate(0, 263.496, 15.6)" x="263.496" y="15.6">Incomplete LU preconditioning</text>
</g>
<polyline clip-path="url(#clip352)" style="stroke:#009af9; stroke-width:2; stroke-opacity:1; fill:none" points="
  70.3899,34.0711 80.0452,34.4353 89.7005,34.5478 99.3558,34.5918 109.011,34.6115 118.666,34.6213 128.322,34.6266 137.977,34.6297 147.632,34.6317 157.288,34.6333 
  166.943,34.6347 176.598,34.6358 186.254,34.6369 195.909,34.6378 205.564,34.6387 215.22,34.6394 224.875,34.6401 234.53,34.6408 244.186,34.6415 253.841,34.6422 
  263.496,34.6422 273.152,34.6422 282.807,34.6422 292.462,34.6423 302.118,34.6423 311.773,34.6423 321.428,34.6423 331.083,34.6423 340.739,34.6423 350.394,34.6424 
  360.049,34.6424 369.705,34.6424 379.36,34.6425 389.015,34.6426 398.671,34.6429 408.326,34.6434 417.981,34.6443 427.637,34.6453 437.292,34.6465 446.947,34.6475 
  456.603,34.6475 
  "/>
<polyline clip-path="url(#clip352)" style="stroke:#e26f46; stroke-width:2; stroke-opacity:1; fill:none" points="
  70.3899,34.0711 80.0452,37.8325 89.7005,44.3828 99.3558,55.7294 109.011,61.2234 118.666,70.7684 128.322,81.9981 137.977,95.1648 147.632,110.588 157.288,123.519 
  166.943,135.801 176.598,147.298 186.254,161.972 195.909,177.004 205.564,189.888 215.22,206.353 224.875,229.333 234.53,251.874 
  "/>
<polyline clip-path="url(#clip352)" style="stroke:#3da44d; stroke-width:2; stroke-opacity:1; fill:none" points="
  70.3899,34.0711 80.0452,49.2917 89.7005,63.0188 99.3558,73.2125 109.011,87.3821 118.666,106.733 128.322,125.92 137.977,144.211 147.632,159.013 157.288,178.777 
  166.943,201.227 176.598,221.778 186.254,249.764 
  "/>
<polyline clip-path="url(#clip352)" style="stroke:#c271d2; stroke-width:2; stroke-opacity:1; fill:none" points="
  70.3899,34.0711 80.0452,59.8901 89.7005,93.0134 99.3558,128.47 109.011,152.603 118.666,188.16 128.322,231.383 
  "/>
<polyline clip-path="url(#clip352)" style="stroke:#ac8d18; stroke-width:2; stroke-opacity:1; fill:none" points="
  70.3899,34.0711 80.0452,67.2072 89.7005,119.158 99.3558,158.904 109.011,206.202 
  "/>
<path clip-path="url(#clip350)" d="
M289.079 250.713 L454.543 250.713 L454.543 159.993 L289.079 159.993  Z
  " fill="#ffffff" fill-rule="evenodd" fill-opacity="1"/>
<polyline clip-path="url(#clip350)" style="stroke:#000000; stroke-width:1; stroke-opacity:1; fill:none" points="
  289.079,250.713 454.543,250.713 454.543,159.993 289.079,159.993 289.079,250.713 
  "/>
<polyline clip-path="url(#clip350)" style="stroke:#009af9; stroke-width:1; stroke-opacity:1; fill:none" points="
  293.628,175.113 320.92,175.113 
  "/>
<path clip-path="url(#clip350)" d="M 0 0 M330.897 175.521 L330.897 179.433 L329.833 179.433 L329.833 175.555 Q329.833 174.635 329.474 174.178 Q329.115 173.721 328.397 173.721 Q327.535 173.721 327.037 174.271 Q326.54 174.82 326.54 175.769 L326.54 179.433 L325.469 179.433 L325.469 172.951 L326.54 172.951 L326.54 173.958 Q326.922 173.374 327.437 173.084 Q327.958 172.795 328.635 172.795 Q329.752 172.795 330.324 173.489 Q330.897 174.178 330.897 175.521 Z" fill="#000000" fill-rule="evenodd" fill-opacity="1" /><path clip-path="url(#clip350)" d="M 0 0 M334.526 173.698 Q333.669 173.698 333.172 174.369 Q332.674 175.035 332.674 176.198 Q332.674 177.361 333.166 178.032 Q333.664 178.698 334.526 178.698 Q335.376 178.698 335.874 178.026 Q336.372 177.355 336.372 176.198 Q336.372 175.046 335.874 174.375 Q335.376 173.698 334.526 173.698 M334.526 172.795 Q335.915 172.795 336.707 173.698 Q337.5 174.601 337.5 176.198 Q337.5 177.789 336.707 178.698 Q335.915 179.6 334.526 179.6 Q333.131 179.6 332.338 178.698 Q331.551 177.789 331.551 176.198 Q331.551 174.601 332.338 173.698 Q333.131 172.795 334.526 172.795 Z" fill="#000000" fill-rule="evenodd" fill-opacity="1" /><path clip-path="url(#clip350)" d="M 0 0 M343.415 178.46 L343.415 181.898 L342.344 181.898 L342.344 172.951 L343.415 172.951 L343.415 173.935 Q343.75 173.356 344.26 173.079 Q344.775 172.795 345.486 172.795 Q346.667 172.795 347.402 173.732 Q348.143 174.67 348.143 176.198 Q348.143 177.726 347.402 178.663 Q346.667 179.6 345.486 179.6 Q344.775 179.6 344.26 179.323 Q343.75 179.039 343.415 178.46 M347.037 176.198 Q347.037 175.023 346.551 174.357 Q346.071 173.686 345.226 173.686 Q344.381 173.686 343.895 174.357 Q343.415 175.023 343.415 176.198 Q343.415 177.372 343.895 178.044 Q344.381 178.709 345.226 178.709 Q346.071 178.709 346.551 178.044 Q347.037 177.372 347.037 176.198 Z" fill="#000000" fill-rule="evenodd" fill-opacity="1" /><path clip-path="url(#clip350)" d="M 0 0 M353.015 173.947 Q352.836 173.842 352.622 173.796 Q352.413 173.744 352.159 173.744 Q351.256 173.744 350.77 174.334 Q350.29 174.919 350.29 176.018 L350.29 179.433 L349.219 179.433 L349.219 172.951 L350.29 172.951 L350.29 173.958 Q350.625 173.368 351.163 173.084 Q351.702 172.795 352.471 172.795 Q352.581 172.795 352.714 172.812 Q352.847 172.824 353.009 172.853 L353.015 173.947 Z" fill="#000000" fill-rule="evenodd" fill-opacity="1" /><path clip-path="url(#clip350)" d="M 0 0 M359.416 175.926 L359.416 176.447 L354.52 176.447 Q354.589 177.546 355.18 178.125 Q355.776 178.698 356.835 178.698 Q357.448 178.698 358.021 178.547 Q358.6 178.397 359.167 178.096 L359.167 179.103 Q358.594 179.346 357.992 179.473 Q357.39 179.6 356.771 179.6 Q355.22 179.6 354.312 178.698 Q353.409 177.795 353.409 176.256 Q353.409 174.664 354.265 173.732 Q355.128 172.795 356.586 172.795 Q357.894 172.795 358.652 173.64 Q359.416 174.479 359.416 175.926 M358.351 175.613 Q358.339 174.739 357.859 174.219 Q357.384 173.698 356.597 173.698 Q355.706 173.698 355.168 174.201 Q354.636 174.705 354.555 175.619 L358.351 175.613 Z" fill="#000000" fill-rule="evenodd" fill-opacity="1" /><path clip-path="url(#clip350)" d="M 0 0 M365.197 173.2 L365.197 174.195 Q364.746 173.947 364.288 173.825 Q363.837 173.698 363.374 173.698 Q362.338 173.698 361.765 174.357 Q361.192 175.011 361.192 176.198 Q361.192 177.384 361.765 178.044 Q362.338 178.698 363.374 178.698 Q363.837 178.698 364.288 178.576 Q364.746 178.449 365.197 178.2 L365.197 179.184 Q364.751 179.392 364.271 179.496 Q363.796 179.6 363.258 179.6 Q361.794 179.6 360.932 178.68 Q360.07 177.76 360.07 176.198 Q360.07 174.612 360.938 173.704 Q361.812 172.795 363.328 172.795 Q363.82 172.795 364.288 172.899 Q364.757 172.998 365.197 173.2 Z" fill="#000000" fill-rule="evenodd" fill-opacity="1" /><path clip-path="url(#clip350)" d="M 0 0 M368.825 173.698 Q367.969 173.698 367.471 174.369 Q366.974 175.035 366.974 176.198 Q366.974 177.361 367.465 178.032 Q367.963 178.698 368.825 178.698 Q369.676 178.698 370.174 178.026 Q370.671 177.355 370.671 176.198 Q370.671 175.046 370.174 174.375 Q369.676 173.698 368.825 173.698 M368.825 172.795 Q370.214 172.795 371.007 173.698 Q371.8 174.601 371.8 176.198 Q371.8 177.789 371.007 178.698 Q370.214 179.6 368.825 179.6 Q367.431 179.6 366.638 178.698 Q365.851 177.789 365.851 176.198 Q365.851 174.601 366.638 173.698 Q367.431 172.795 368.825 172.795 Z" fill="#000000" fill-rule="evenodd" fill-opacity="1" /><path clip-path="url(#clip350)" d="M 0 0 M378.304 175.521 L378.304 179.433 L377.24 179.433 L377.24 175.555 Q377.24 174.635 376.881 174.178 Q376.522 173.721 375.805 173.721 Q374.942 173.721 374.445 174.271 Q373.947 174.82 373.947 175.769 L373.947 179.433 L372.876 179.433 L372.876 172.951 L373.947 172.951 L373.947 173.958 Q374.329 173.374 374.844 173.084 Q375.365 172.795 376.042 172.795 Q377.159 172.795 377.732 173.489 Q378.304 174.178 378.304 175.521 Z" fill="#000000" fill-rule="evenodd" fill-opacity="1" /><path clip-path="url(#clip350)" d="M 0 0 M383.686 173.935 L383.686 170.428 L384.751 170.428 L384.751 179.433 L383.686 179.433 L383.686 178.46 Q383.351 179.039 382.836 179.323 Q382.326 179.6 381.609 179.6 Q380.434 179.6 379.693 178.663 Q378.958 177.726 378.958 176.198 Q378.958 174.67 379.693 173.732 Q380.434 172.795 381.609 172.795 Q382.326 172.795 382.836 173.079 Q383.351 173.356 383.686 173.935 M380.058 176.198 Q380.058 177.372 380.538 178.044 Q381.024 178.709 381.869 178.709 Q382.714 178.709 383.2 178.044 Q383.686 177.372 383.686 176.198 Q383.686 175.023 383.2 174.357 Q382.714 173.686 381.869 173.686 Q381.024 173.686 380.538 174.357 Q380.058 175.023 380.058 176.198 Z" fill="#000000" fill-rule="evenodd" fill-opacity="1" /><path clip-path="url(#clip350)" d="M 0 0 M385.868 172.951 L386.933 172.951 L386.933 179.433 L385.868 179.433 L385.868 172.951 M385.868 170.428 L386.933 170.428 L386.933 171.776 L385.868 171.776 L385.868 170.428 Z" fill="#000000" fill-rule="evenodd" fill-opacity="1" /><path clip-path="url(#clip350)" d="M 0 0 M389.103 171.111 L389.103 172.951 L391.296 172.951 L391.296 173.779 L389.103 173.779 L389.103 177.297 Q389.103 178.09 389.317 178.316 Q389.537 178.541 390.203 178.541 L391.296 178.541 L391.296 179.433 L390.203 179.433 Q388.97 179.433 388.501 178.975 Q388.032 178.513 388.032 177.297 L388.032 173.779 L387.251 173.779 L387.251 172.951 L388.032 172.951 L388.032 171.111 L389.103 171.111 Z" fill="#000000" fill-rule="evenodd" fill-opacity="1" /><path clip-path="url(#clip350)" d="M 0 0 M392.413 172.951 L393.478 172.951 L393.478 179.433 L392.413 179.433 L392.413 172.951 M392.413 170.428 L393.478 170.428 L393.478 171.776 L392.413 171.776 L392.413 170.428 Z" fill="#000000" fill-rule="evenodd" fill-opacity="1" /><path clip-path="url(#clip350)" d="M 0 0 M397.106 173.698 Q396.25 173.698 395.752 174.369 Q395.255 175.035 395.255 176.198 Q395.255 177.361 395.747 178.032 Q396.244 178.698 397.106 178.698 Q397.957 178.698 398.455 178.026 Q398.953 177.355 398.953 176.198 Q398.953 175.046 398.455 174.375 Q397.957 173.698 397.106 173.698 M397.106 172.795 Q398.495 172.795 399.288 173.698 Q400.081 174.601 400.081 176.198 Q400.081 177.789 399.288 178.698 Q398.495 179.6 397.106 179.6 Q395.712 179.6 394.919 178.698 Q394.132 177.789 394.132 176.198 Q394.132 174.601 394.919 173.698 Q395.712 172.795 397.106 172.795 Z" fill="#000000" fill-rule="evenodd" fill-opacity="1" /><path clip-path="url(#clip350)" d="M 0 0 M406.586 175.521 L406.586 179.433 L405.521 179.433 L405.521 175.555 Q405.521 174.635 405.162 174.178 Q404.803 173.721 404.086 173.721 Q403.223 173.721 402.726 174.271 Q402.228 174.82 402.228 175.769 L402.228 179.433 L401.157 179.433 L401.157 172.951 L402.228 172.951 L402.228 173.958 Q402.61 173.374 403.125 173.084 Q403.646 172.795 404.323 172.795 Q405.44 172.795 406.013 173.489 Q406.586 174.178 406.586 175.521 Z" fill="#000000" fill-rule="evenodd" fill-opacity="1" /><path clip-path="url(#clip350)" d="M 0 0 M407.702 172.951 L408.767 172.951 L408.767 179.433 L407.702 179.433 L407.702 172.951 M407.702 170.428 L408.767 170.428 L408.767 171.776 L407.702 171.776 L407.702 170.428 Z" fill="#000000" fill-rule="evenodd" fill-opacity="1" /><path clip-path="url(#clip350)" d="M 0 0 M415.272 175.521 L415.272 179.433 L414.207 179.433 L414.207 175.555 Q414.207 174.635 413.848 174.178 Q413.489 173.721 412.772 173.721 Q411.91 173.721 411.412 174.271 Q410.914 174.82 410.914 175.769 L410.914 179.433 L409.844 179.433 L409.844 172.951 L410.914 172.951 L410.914 173.958 Q411.296 173.374 411.811 173.084 Q412.332 172.795 413.009 172.795 Q414.126 172.795 414.699 173.489 Q415.272 174.178 415.272 175.521 Z" fill="#000000" fill-rule="evenodd" fill-opacity="1" /><path clip-path="url(#clip350)" d="M 0 0 M420.654 176.117 Q420.654 174.959 420.173 174.323 Q419.699 173.686 418.837 173.686 Q417.98 173.686 417.5 174.323 Q417.025 174.959 417.025 176.117 Q417.025 177.268 417.5 177.905 Q417.98 178.541 418.837 178.541 Q419.699 178.541 420.173 177.905 Q420.654 177.268 420.654 176.117 M421.719 178.628 Q421.719 180.283 420.984 181.088 Q420.249 181.898 418.733 181.898 Q418.171 181.898 417.673 181.811 Q417.176 181.73 416.707 181.556 L416.707 180.521 Q417.176 180.775 417.633 180.897 Q418.09 181.018 418.565 181.018 Q419.612 181.018 420.133 180.469 Q420.654 179.925 420.654 178.819 L420.654 178.293 Q420.324 178.866 419.809 179.149 Q419.294 179.433 418.576 179.433 Q417.384 179.433 416.655 178.524 Q415.926 177.616 415.926 176.117 Q415.926 174.612 416.655 173.704 Q417.384 172.795 418.576 172.795 Q419.294 172.795 419.809 173.079 Q420.324 173.362 420.654 173.935 L420.654 172.951 L421.719 172.951 L421.719 178.628 Z" fill="#000000" fill-rule="evenodd" fill-opacity="1" /><polyline clip-path="url(#clip350)" style="stroke:#e26f46; stroke-width:1; stroke-opacity:1; fill:none" points="
  293.628,190.233 320.92,190.233 
  "/>
<path clip-path="url(#clip350)" d="M 0 0 M329.184 193.372 Q329.393 193.65 330.018 193.65 L330.533 193.65 L330.533 194.553 L329.89 194.553 Q328.849 194.553 328.374 193.997 Q327.9 193.43 327.9 192.203 L327.9 189.136 L325.469 189.136 L325.469 188.071 L331.447 188.071 L331.447 189.136 L328.988 189.136 L328.988 192.267 Q328.988 193.106 329.184 193.372 Z" fill="#000000" fill-rule="evenodd" fill-opacity="1" /><path clip-path="url(#clip350)" d="M 0 0 M336.47 189.171 L343.889 189.171 L343.889 190.143 L336.47 190.143 L336.47 189.171 M336.47 191.532 L343.889 191.532 L343.889 192.516 L336.47 192.516 L336.47 191.532 Z" fill="#000000" fill-rule="evenodd" fill-opacity="1" /><path clip-path="url(#clip350)" d="M 0 0 M349.931 193.569 L354.011 193.569 L354.011 194.553 L348.525 194.553 L348.525 193.569 Q349.19 192.88 350.336 191.723 Q351.488 190.56 351.783 190.224 Q352.344 189.593 352.564 189.159 Q352.79 188.719 352.79 188.297 Q352.79 187.608 352.303 187.174 Q351.823 186.74 351.048 186.74 Q350.498 186.74 349.885 186.931 Q349.277 187.122 348.582 187.51 L348.582 186.329 Q349.288 186.046 349.902 185.901 Q350.515 185.756 351.025 185.756 Q352.367 185.756 353.166 186.428 Q353.964 187.099 353.964 188.222 Q353.964 188.754 353.762 189.234 Q353.565 189.709 353.038 190.357 Q352.894 190.525 352.118 191.329 Q351.343 192.128 349.931 193.569 Z" fill="#000000" fill-rule="evenodd" fill-opacity="1" /><path clip-path="url(#clip350)" d="M 0 0 M355.278 193.083 L356.499 193.083 L356.499 194.553 L355.278 194.553 L355.278 193.083 Z" fill="#000000" fill-rule="evenodd" fill-opacity="1" /><path clip-path="url(#clip350)" d="M 0 0 M360.266 186.682 Q359.364 186.682 358.906 187.574 Q358.455 188.459 358.455 190.241 Q358.455 192.018 358.906 192.909 Q359.364 193.795 360.266 193.795 Q361.175 193.795 361.626 192.909 Q362.084 192.018 362.084 190.241 Q362.084 188.459 361.626 187.574 Q361.175 186.682 360.266 186.682 M360.266 185.756 Q361.719 185.756 362.483 186.908 Q363.252 188.054 363.252 190.241 Q363.252 192.423 362.483 193.575 Q361.719 194.72 360.266 194.72 Q358.814 194.72 358.044 193.575 Q357.28 192.423 357.28 190.241 Q357.28 188.054 358.044 186.908 Q358.814 185.756 360.266 185.756 Z" fill="#000000" fill-rule="evenodd" fill-opacity="1" /><path clip-path="url(#clip350)" d="M 0 0 M364.641 193.083 L365.862 193.083 L365.862 194.078 L364.913 195.93 L364.167 195.93 L364.641 194.078 L364.641 193.083 Z" fill="#000000" fill-rule="evenodd" fill-opacity="1" /><path clip-path="url(#clip350)" d="M 0 0 M371.8 186.231 L371.8 188.071 L373.993 188.071 L373.993 188.899 L371.8 188.899 L371.8 192.417 Q371.8 193.21 372.014 193.436 Q372.234 193.661 372.899 193.661 L373.993 193.661 L373.993 194.553 L372.899 194.553 Q371.667 194.553 371.198 194.095 Q370.729 193.633 370.729 192.417 L370.729 188.899 L369.948 188.899 L369.948 188.071 L370.729 188.071 L370.729 186.231 L371.8 186.231 Z" fill="#000000" fill-rule="evenodd" fill-opacity="1" /><path clip-path="url(#clip350)" d="M 0 0 M375.11 188.071 L376.175 188.071 L376.175 194.553 L375.11 194.553 L375.11 188.071 M375.11 185.548 L376.175 185.548 L376.175 186.896 L375.11 186.896 L375.11 185.548 Z" fill="#000000" fill-rule="evenodd" fill-opacity="1" /><path clip-path="url(#clip350)" d="M 0 0 M382.338 189.315 Q382.737 188.598 383.293 188.256 Q383.848 187.915 384.601 187.915 Q385.613 187.915 386.163 188.627 Q386.713 189.333 386.713 190.641 L386.713 194.553 L385.642 194.553 L385.642 190.675 Q385.642 189.744 385.313 189.292 Q384.983 188.841 384.306 188.841 Q383.478 188.841 382.998 189.391 Q382.517 189.94 382.517 190.889 L382.517 194.553 L381.447 194.553 L381.447 190.675 Q381.447 189.738 381.117 189.292 Q380.787 188.841 380.098 188.841 Q379.282 188.841 378.802 189.396 Q378.322 189.946 378.322 190.889 L378.322 194.553 L377.251 194.553 L377.251 188.071 L378.322 188.071 L378.322 189.078 Q378.686 188.482 379.196 188.199 Q379.705 187.915 380.405 187.915 Q381.111 187.915 381.603 188.274 Q382.101 188.633 382.338 189.315 Z" fill="#000000" fill-rule="evenodd" fill-opacity="1" /><path clip-path="url(#clip350)" d="M 0 0 M393.374 191.046 L393.374 191.567 L388.478 191.567 Q388.547 192.666 389.138 193.245 Q389.734 193.818 390.793 193.818 Q391.406 193.818 391.979 193.667 Q392.558 193.517 393.125 193.216 L393.125 194.223 Q392.552 194.466 391.95 194.593 Q391.348 194.72 390.729 194.72 Q389.178 194.72 388.27 193.818 Q387.367 192.915 387.367 191.376 Q387.367 189.784 388.223 188.852 Q389.086 187.915 390.544 187.915 Q391.852 187.915 392.61 188.76 Q393.374 189.599 393.374 191.046 M392.309 190.733 Q392.297 189.859 391.817 189.339 Q391.343 188.818 390.556 188.818 Q389.664 188.818 389.126 189.321 Q388.594 189.825 388.513 190.739 L392.309 190.733 Z" fill="#000000" fill-rule="evenodd" fill-opacity="1" /><path clip-path="url(#clip350)" d="M 0 0 M398.397 189.171 L405.816 189.171 L405.816 190.143 L398.397 190.143 L398.397 189.171 M398.397 191.532 L405.816 191.532 L405.816 192.516 L398.397 192.516 L398.397 191.532 Z" fill="#000000" fill-rule="evenodd" fill-opacity="1" /><path clip-path="url(#clip350)" d="M 0 0 M413.351 186.682 Q412.448 186.682 411.991 187.574 Q411.539 188.459 411.539 190.241 Q411.539 192.018 411.991 192.909 Q412.448 193.795 413.351 193.795 Q414.259 193.795 414.711 192.909 Q415.168 192.018 415.168 190.241 Q415.168 188.459 414.711 187.574 Q414.259 186.682 413.351 186.682 M413.351 185.756 Q414.803 185.756 415.567 186.908 Q416.337 188.054 416.337 190.241 Q416.337 192.423 415.567 193.575 Q414.803 194.72 413.351 194.72 Q411.898 194.72 411.128 193.575 Q410.365 192.423 410.365 190.241 Q410.365 188.054 411.128 186.908 Q411.898 185.756 413.351 185.756 Z" fill="#000000" fill-rule="evenodd" fill-opacity="1" /><path clip-path="url(#clip350)" d="M 0 0 M417.604 193.083 L418.825 193.083 L418.825 194.553 L417.604 194.553 L417.604 193.083 Z" fill="#000000" fill-rule="evenodd" fill-opacity="1" /><path clip-path="url(#clip350)" d="M 0 0 M420.295 193.569 L422.205 193.569 L422.205 186.977 L420.127 187.394 L420.127 186.329 L422.193 185.913 L423.362 185.913 L423.362 193.569 L425.272 193.569 L425.272 194.553 L420.295 194.553 L420.295 193.569 Z" fill="#000000" fill-rule="evenodd" fill-opacity="1" /><path clip-path="url(#clip350)" d="M 0 0 M427.546 193.569 L431.626 193.569 L431.626 194.553 L426.14 194.553 L426.14 193.569 Q426.805 192.88 427.951 191.723 Q429.103 190.56 429.398 190.224 Q429.959 189.593 430.179 189.159 Q430.405 188.719 430.405 188.297 Q430.405 187.608 429.919 187.174 Q429.438 186.74 428.663 186.74 Q428.113 186.74 427.5 186.931 Q426.892 187.122 426.198 187.51 L426.198 186.329 Q426.904 186.046 427.517 185.901 Q428.131 185.756 428.64 185.756 Q429.982 185.756 430.781 186.428 Q431.58 187.099 431.58 188.222 Q431.58 188.754 431.377 189.234 Q431.18 189.709 430.654 190.357 Q430.509 190.525 429.734 191.329 Q428.958 192.128 427.546 193.569 Z" fill="#000000" fill-rule="evenodd" fill-opacity="1" /><path clip-path="url(#clip350)" d="M 0 0 M432.928 194.373 L432.928 193.308 Q433.368 193.517 433.819 193.627 Q434.271 193.737 434.705 193.737 Q435.862 193.737 436.47 192.961 Q437.083 192.18 437.17 190.594 Q436.834 191.092 436.319 191.358 Q435.804 191.624 435.179 191.624 Q433.883 191.624 433.125 190.843 Q432.372 190.056 432.372 188.696 Q432.372 187.365 433.16 186.561 Q433.947 185.756 435.254 185.756 Q436.753 185.756 437.54 186.908 Q438.333 188.054 438.333 190.241 Q438.333 192.284 437.361 193.505 Q436.394 194.72 434.757 194.72 Q434.317 194.72 433.866 194.634 Q433.414 194.547 432.928 194.373 M435.254 190.71 Q436.041 190.71 436.499 190.172 Q436.962 189.634 436.962 188.696 Q436.962 187.765 436.499 187.226 Q436.041 186.682 435.254 186.682 Q434.467 186.682 434.004 187.226 Q433.547 187.765 433.547 188.696 Q433.547 189.634 434.004 190.172 Q434.467 190.71 435.254 190.71 Z" fill="#000000" fill-rule="evenodd" fill-opacity="1" /><polyline clip-path="url(#clip350)" style="stroke:#3da44d; stroke-width:1; stroke-opacity:1; fill:none" points="
  293.628,205.353 320.92,205.353 
  "/>
<path clip-path="url(#clip350)" d="M 0 0 M329.184 208.492 Q329.393 208.77 330.018 208.77 L330.533 208.77 L330.533 209.673 L329.89 209.673 Q328.849 209.673 328.374 209.117 Q327.9 208.55 327.9 207.323 L327.9 204.256 L325.469 204.256 L325.469 203.191 L331.447 203.191 L331.447 204.256 L328.988 204.256 L328.988 207.387 Q328.988 208.226 329.184 208.492 Z" fill="#000000" fill-rule="evenodd" fill-opacity="1" /><path clip-path="url(#clip350)" d="M 0 0 M336.47 204.291 L343.889 204.291 L343.889 205.263 L336.47 205.263 L336.47 204.291 M336.47 206.652 L343.889 206.652 L343.889 207.636 L336.47 207.636 L336.47 206.652 Z" fill="#000000" fill-rule="evenodd" fill-opacity="1" /><path clip-path="url(#clip350)" d="M 0 0 M349.126 208.689 L351.036 208.689 L351.036 202.097 L348.959 202.514 L348.959 201.449 L351.025 201.033 L352.194 201.033 L352.194 208.689 L354.103 208.689 L354.103 209.673 L349.126 209.673 L349.126 208.689 Z" fill="#000000" fill-rule="evenodd" fill-opacity="1" /><path clip-path="url(#clip350)" d="M 0 0 M355.371 208.203 L356.592 208.203 L356.592 209.673 L355.371 209.673 L355.371 208.203 Z" fill="#000000" fill-rule="evenodd" fill-opacity="1" /><path clip-path="url(#clip350)" d="M 0 0 M360.359 201.802 Q359.456 201.802 358.999 202.694 Q358.548 203.579 358.548 205.361 Q358.548 207.138 358.999 208.029 Q359.456 208.915 360.359 208.915 Q361.268 208.915 361.719 208.029 Q362.176 207.138 362.176 205.361 Q362.176 203.579 361.719 202.694 Q361.268 201.802 360.359 201.802 M360.359 200.876 Q361.812 200.876 362.575 202.028 Q363.345 203.174 363.345 205.361 Q363.345 207.543 362.575 208.695 Q361.812 209.84 360.359 209.84 Q358.906 209.84 358.137 208.695 Q357.373 207.543 357.373 205.361 Q357.373 203.174 358.137 202.028 Q358.906 200.876 360.359 200.876 Z" fill="#000000" fill-rule="evenodd" fill-opacity="1" /><path clip-path="url(#clip350)" d="M 0 0 M364.734 208.203 L365.955 208.203 L365.955 209.198 L365.006 211.05 L364.259 211.05 L364.734 209.198 L364.734 208.203 Z" fill="#000000" fill-rule="evenodd" fill-opacity="1" /><path clip-path="url(#clip350)" d="M 0 0 M371.892 201.351 L371.892 203.191 L374.086 203.191 L374.086 204.019 L371.892 204.019 L371.892 207.537 Q371.892 208.33 372.107 208.556 Q372.327 208.781 372.992 208.781 L374.086 208.781 L374.086 209.673 L372.992 209.673 Q371.759 209.673 371.291 209.215 Q370.822 208.753 370.822 207.537 L370.822 204.019 L370.041 204.019 L370.041 203.191 L370.822 203.191 L370.822 201.351 L371.892 201.351 Z" fill="#000000" fill-rule="evenodd" fill-opacity="1" /><path clip-path="url(#clip350)" d="M 0 0 M375.203 203.191 L376.267 203.191 L376.267 209.673 L375.203 209.673 L375.203 203.191 M375.203 200.668 L376.267 200.668 L376.267 202.016 L375.203 202.016 L375.203 200.668 Z" fill="#000000" fill-rule="evenodd" fill-opacity="1" /><path clip-path="url(#clip350)" d="M 0 0 M382.431 204.435 Q382.83 203.718 383.385 203.376 Q383.941 203.035 384.693 203.035 Q385.706 203.035 386.256 203.747 Q386.806 204.453 386.806 205.761 L386.806 209.673 L385.735 209.673 L385.735 205.795 Q385.735 204.864 385.405 204.412 Q385.075 203.961 384.398 203.961 Q383.571 203.961 383.09 204.511 Q382.61 205.06 382.61 206.009 L382.61 209.673 L381.539 209.673 L381.539 205.795 Q381.539 204.858 381.21 204.412 Q380.88 203.961 380.191 203.961 Q379.375 203.961 378.895 204.516 Q378.414 205.066 378.414 206.009 L378.414 209.673 L377.344 209.673 L377.344 203.191 L378.414 203.191 L378.414 204.198 Q378.779 203.602 379.288 203.319 Q379.798 203.035 380.498 203.035 Q381.204 203.035 381.696 203.394 Q382.193 203.753 382.431 204.435 Z" fill="#000000" fill-rule="evenodd" fill-opacity="1" /><path clip-path="url(#clip350)" d="M 0 0 M393.466 206.166 L393.466 206.687 L388.571 206.687 Q388.64 207.786 389.23 208.365 Q389.826 208.938 390.885 208.938 Q391.499 208.938 392.072 208.787 Q392.65 208.637 393.218 208.336 L393.218 209.343 Q392.645 209.586 392.043 209.713 Q391.441 209.84 390.822 209.84 Q389.271 209.84 388.362 208.938 Q387.46 208.035 387.46 206.496 Q387.46 204.904 388.316 203.972 Q389.178 203.035 390.637 203.035 Q391.944 203.035 392.703 203.88 Q393.466 204.719 393.466 206.166 M392.402 205.853 Q392.39 204.979 391.91 204.459 Q391.435 203.938 390.648 203.938 Q389.757 203.938 389.219 204.441 Q388.686 204.945 388.605 205.859 L392.402 205.853 Z" fill="#000000" fill-rule="evenodd" fill-opacity="1" /><path clip-path="url(#clip350)" d="M 0 0 M398.49 204.291 L405.909 204.291 L405.909 205.263 L398.49 205.263 L398.49 204.291 M398.49 206.652 L405.909 206.652 L405.909 207.636 L398.49 207.636 L398.49 206.652 Z" fill="#000000" fill-rule="evenodd" fill-opacity="1" /><path clip-path="url(#clip350)" d="M 0 0 M413.443 201.802 Q412.54 201.802 412.083 202.694 Q411.632 203.579 411.632 205.361 Q411.632 207.138 412.083 208.029 Q412.54 208.915 413.443 208.915 Q414.352 208.915 414.803 208.029 Q415.26 207.138 415.26 205.361 Q415.26 203.579 414.803 202.694 Q414.352 201.802 413.443 201.802 M413.443 200.876 Q414.896 200.876 415.66 202.028 Q416.429 203.174 416.429 205.361 Q416.429 207.543 415.66 208.695 Q414.896 209.84 413.443 209.84 Q411.991 209.84 411.221 208.695 Q410.457 207.543 410.457 205.361 Q410.457 203.174 411.221 202.028 Q411.991 200.876 413.443 200.876 Z" fill="#000000" fill-rule="evenodd" fill-opacity="1" /><path clip-path="url(#clip350)" d="M 0 0 M417.697 208.203 L418.918 208.203 L418.918 209.673 L417.697 209.673 L417.697 208.203 Z" fill="#000000" fill-rule="evenodd" fill-opacity="1" /><path clip-path="url(#clip350)" d="M 0 0 M420.388 208.689 L422.297 208.689 L422.297 202.097 L420.22 202.514 L420.22 201.449 L422.286 201.033 L423.455 201.033 L423.455 208.689 L425.364 208.689 L425.364 209.673 L420.388 209.673 L420.388 208.689 Z" fill="#000000" fill-rule="evenodd" fill-opacity="1" /><path clip-path="url(#clip350)" d="M 0 0 M427.639 208.689 L431.719 208.689 L431.719 209.673 L426.232 209.673 L426.232 208.689 Q426.898 208 428.044 206.843 Q429.195 205.68 429.491 205.344 Q430.052 204.713 430.272 204.279 Q430.498 203.839 430.498 203.417 Q430.498 202.728 430.011 202.294 Q429.531 201.86 428.756 201.86 Q428.206 201.86 427.592 202.051 Q426.985 202.242 426.29 202.63 L426.29 201.449 Q426.996 201.166 427.61 201.021 Q428.223 200.876 428.732 200.876 Q430.075 200.876 430.874 201.548 Q431.672 202.219 431.672 203.342 Q431.672 203.874 431.47 204.354 Q431.273 204.829 430.746 205.477 Q430.602 205.645 429.826 206.449 Q429.051 207.248 427.639 208.689 Z" fill="#000000" fill-rule="evenodd" fill-opacity="1" /><path clip-path="url(#clip350)" d="M 0 0 M433.021 209.493 L433.021 208.428 Q433.46 208.637 433.912 208.747 Q434.363 208.857 434.797 208.857 Q435.955 208.857 436.562 208.081 Q437.176 207.3 437.263 205.714 Q436.927 206.212 436.412 206.478 Q435.897 206.744 435.272 206.744 Q433.975 206.744 433.217 205.963 Q432.465 205.176 432.465 203.816 Q432.465 202.485 433.252 201.681 Q434.039 200.876 435.347 200.876 Q436.846 200.876 437.633 202.028 Q438.426 203.174 438.426 205.361 Q438.426 207.404 437.453 208.625 Q436.487 209.84 434.849 209.84 Q434.41 209.84 433.958 209.754 Q433.507 209.667 433.021 209.493 M435.347 205.83 Q436.134 205.83 436.591 205.292 Q437.054 204.754 437.054 203.816 Q437.054 202.885 436.591 202.346 Q436.134 201.802 435.347 201.802 Q434.56 201.802 434.097 202.346 Q433.64 202.885 433.64 203.816 Q433.64 204.754 434.097 205.292 Q434.56 205.83 435.347 205.83 Z" fill="#000000" fill-rule="evenodd" fill-opacity="1" /><polyline clip-path="url(#clip350)" style="stroke:#c271d2; stroke-width:1; stroke-opacity:1; fill:none" points="
  293.628,220.473 320.92,220.473 
  "/>
<path clip-path="url(#clip350)" d="M 0 0 M329.184 223.612 Q329.393 223.89 330.018 223.89 L330.533 223.89 L330.533 224.793 L329.89 224.793 Q328.849 224.793 328.374 224.237 Q327.9 223.67 327.9 222.443 L327.9 219.376 L325.469 219.376 L325.469 218.311 L331.447 218.311 L331.447 219.376 L328.988 219.376 L328.988 222.507 Q328.988 223.346 329.184 223.612 Z" fill="#000000" fill-rule="evenodd" fill-opacity="1" /><path clip-path="url(#clip350)" d="M 0 0 M336.47 219.411 L343.889 219.411 L343.889 220.383 L336.47 220.383 L336.47 219.411 M336.47 221.772 L343.889 221.772 L343.889 222.756 L336.47 222.756 L336.47 221.772 Z" fill="#000000" fill-rule="evenodd" fill-opacity="1" /><path clip-path="url(#clip350)" d="M 0 0 M351.424 216.922 Q350.521 216.922 350.064 217.814 Q349.613 218.699 349.613 220.481 Q349.613 222.258 350.064 223.149 Q350.521 224.035 351.424 224.035 Q352.332 224.035 352.784 223.149 Q353.241 222.258 353.241 220.481 Q353.241 218.699 352.784 217.814 Q352.332 216.922 351.424 216.922 M351.424 215.996 Q352.876 215.996 353.64 217.148 Q354.41 218.294 354.41 220.481 Q354.41 222.663 353.64 223.815 Q352.876 224.96 351.424 224.96 Q349.971 224.96 349.202 223.815 Q348.438 222.663 348.438 220.481 Q348.438 218.294 349.202 217.148 Q349.971 215.996 351.424 215.996 Z" fill="#000000" fill-rule="evenodd" fill-opacity="1" /><path clip-path="url(#clip350)" d="M 0 0 M355.677 223.323 L356.898 223.323 L356.898 224.793 L355.677 224.793 L355.677 223.323 Z" fill="#000000" fill-rule="evenodd" fill-opacity="1" /><path clip-path="url(#clip350)" d="M 0 0 M359.173 223.809 L363.252 223.809 L363.252 224.793 L357.766 224.793 L357.766 223.809 Q358.432 223.12 359.578 221.963 Q360.729 220.8 361.024 220.464 Q361.586 219.833 361.806 219.399 Q362.031 218.959 362.031 218.537 Q362.031 217.848 361.545 217.414 Q361.065 216.98 360.29 216.98 Q359.74 216.98 359.126 217.171 Q358.519 217.362 357.824 217.75 L357.824 216.569 Q358.53 216.286 359.144 216.141 Q359.757 215.996 360.266 215.996 Q361.609 215.996 362.408 216.668 Q363.206 217.339 363.206 218.462 Q363.206 218.994 363.004 219.474 Q362.807 219.949 362.28 220.597 Q362.136 220.765 361.36 221.569 Q360.585 222.368 359.173 223.809 Z" fill="#000000" fill-rule="evenodd" fill-opacity="1" /><path clip-path="url(#clip350)" d="M 0 0 M364.531 216.153 L369.121 216.153 L369.121 217.136 L365.602 217.136 L365.602 219.255 Q365.857 219.168 366.111 219.127 Q366.366 219.081 366.621 219.081 Q368.067 219.081 368.912 219.874 Q369.757 220.667 369.757 222.021 Q369.757 223.415 368.889 224.191 Q368.021 224.96 366.441 224.96 Q365.897 224.96 365.33 224.868 Q364.769 224.775 364.167 224.59 L364.167 223.415 Q364.688 223.699 365.243 223.838 Q365.799 223.977 366.418 223.977 Q367.419 223.977 368.004 223.45 Q368.588 222.923 368.588 222.021 Q368.588 221.118 368.004 220.591 Q367.419 220.065 366.418 220.065 Q365.949 220.065 365.48 220.169 Q365.018 220.273 364.531 220.493 L364.531 216.153 Z" fill="#000000" fill-rule="evenodd" fill-opacity="1" /><path clip-path="url(#clip350)" d="M 0 0 M371.146 223.323 L372.367 223.323 L372.367 224.318 L371.418 226.17 L370.671 226.17 L371.146 224.318 L371.146 223.323 Z" fill="#000000" fill-rule="evenodd" fill-opacity="1" /><path clip-path="url(#clip350)" d="M 0 0 M378.304 216.471 L378.304 218.311 L380.498 218.311 L380.498 219.139 L378.304 219.139 L378.304 222.657 Q378.304 223.45 378.519 223.676 Q378.739 223.901 379.404 223.901 L380.498 223.901 L380.498 224.793 L379.404 224.793 Q378.171 224.793 377.703 224.335 Q377.234 223.873 377.234 222.657 L377.234 219.139 L376.453 219.139 L376.453 218.311 L377.234 218.311 L377.234 216.471 L378.304 216.471 Z" fill="#000000" fill-rule="evenodd" fill-opacity="1" /><path clip-path="url(#clip350)" d="M 0 0 M381.615 218.311 L382.679 218.311 L382.679 224.793 L381.615 224.793 L381.615 218.311 M381.615 215.788 L382.679 215.788 L382.679 217.136 L381.615 217.136 L381.615 215.788 Z" fill="#000000" fill-rule="evenodd" fill-opacity="1" /><path clip-path="url(#clip350)" d="M 0 0 M388.843 219.555 Q389.242 218.838 389.797 218.496 Q390.353 218.155 391.105 218.155 Q392.118 218.155 392.668 218.867 Q393.218 219.573 393.218 220.881 L393.218 224.793 L392.147 224.793 L392.147 220.915 Q392.147 219.984 391.817 219.532 Q391.487 219.081 390.81 219.081 Q389.983 219.081 389.502 219.631 Q389.022 220.18 389.022 221.129 L389.022 224.793 L387.951 224.793 L387.951 220.915 Q387.951 219.978 387.622 219.532 Q387.292 219.081 386.603 219.081 Q385.787 219.081 385.307 219.636 Q384.826 220.186 384.826 221.129 L384.826 224.793 L383.756 224.793 L383.756 218.311 L384.826 218.311 L384.826 219.318 Q385.191 218.722 385.7 218.439 Q386.21 218.155 386.91 218.155 Q387.616 218.155 388.108 218.514 Q388.605 218.873 388.843 219.555 Z" fill="#000000" fill-rule="evenodd" fill-opacity="1" /><path clip-path="url(#clip350)" d="M 0 0 M399.878 221.286 L399.878 221.807 L394.983 221.807 Q395.052 222.906 395.642 223.485 Q396.238 224.058 397.297 224.058 Q397.911 224.058 398.484 223.907 Q399.062 223.757 399.63 223.456 L399.63 224.463 Q399.057 224.706 398.455 224.833 Q397.853 224.96 397.234 224.96 Q395.683 224.96 394.774 224.058 Q393.872 223.155 393.872 221.616 Q393.872 220.024 394.728 219.092 Q395.59 218.155 397.049 218.155 Q398.356 218.155 399.115 219 Q399.878 219.839 399.878 221.286 M398.814 220.973 Q398.802 220.099 398.322 219.579 Q397.847 219.058 397.06 219.058 Q396.169 219.058 395.631 219.561 Q395.098 220.065 395.017 220.979 L398.814 220.973 Z" fill="#000000" fill-rule="evenodd" fill-opacity="1" /><path clip-path="url(#clip350)" d="M 0 0 M404.902 219.411 L412.321 219.411 L412.321 220.383 L404.902 220.383 L404.902 219.411 M404.902 221.772 L412.321 221.772 L412.321 222.756 L404.902 222.756 L404.902 221.772 Z" fill="#000000" fill-rule="evenodd" fill-opacity="1" /><path clip-path="url(#clip350)" d="M 0 0 M419.855 216.922 Q418.952 216.922 418.495 217.814 Q418.044 218.699 418.044 220.481 Q418.044 222.258 418.495 223.149 Q418.952 224.035 419.855 224.035 Q420.764 224.035 421.215 223.149 Q421.672 222.258 421.672 220.481 Q421.672 218.699 421.215 217.814 Q420.764 216.922 419.855 216.922 M419.855 215.996 Q421.308 215.996 422.072 217.148 Q422.841 218.294 422.841 220.481 Q422.841 222.663 422.072 223.815 Q421.308 224.96 419.855 224.96 Q418.403 224.96 417.633 223.815 Q416.869 222.663 416.869 220.481 Q416.869 218.294 417.633 217.148 Q418.403 215.996 419.855 215.996 Z" fill="#000000" fill-rule="evenodd" fill-opacity="1" /><path clip-path="url(#clip350)" d="M 0 0 M424.109 223.323 L425.33 223.323 L425.33 224.793 L424.109 224.793 L424.109 223.323 Z" fill="#000000" fill-rule="evenodd" fill-opacity="1" /><path clip-path="url(#clip350)" d="M 0 0 M426.8 223.809 L428.709 223.809 L428.709 217.217 L426.632 217.634 L426.632 216.569 L428.698 216.153 L429.867 216.153 L429.867 223.809 L431.776 223.809 L431.776 224.793 L426.8 224.793 L426.8 223.809 Z" fill="#000000" fill-rule="evenodd" fill-opacity="1" /><path clip-path="url(#clip350)" d="M 0 0 M436.256 217.171 L433.304 221.783 L436.256 221.783 L436.256 217.171 M435.949 216.153 L437.419 216.153 L437.419 221.783 L438.651 221.783 L438.651 222.756 L437.419 222.756 L437.419 224.793 L436.256 224.793 L436.256 222.756 L432.355 222.756 L432.355 221.627 L435.949 216.153 Z" fill="#000000" fill-rule="evenodd" fill-opacity="1" /><path clip-path="url(#clip350)" d="M 0 0 M442.563 220.007 Q441.776 220.007 441.313 220.545 Q440.856 221.083 440.856 222.021 Q440.856 222.952 441.313 223.496 Q441.776 224.035 442.563 224.035 Q443.35 224.035 443.808 223.496 Q444.271 222.952 444.271 222.021 Q444.271 221.083 443.808 220.545 Q443.35 220.007 442.563 220.007 M444.884 216.344 L444.884 217.408 Q444.444 217.2 443.993 217.09 Q443.547 216.98 443.107 216.98 Q441.95 216.98 441.337 217.761 Q440.729 218.543 440.642 220.123 Q440.984 219.619 441.499 219.353 Q442.014 219.081 442.633 219.081 Q443.935 219.081 444.687 219.874 Q445.445 220.661 445.445 222.021 Q445.445 223.352 444.658 224.156 Q443.871 224.96 442.563 224.96 Q441.065 224.96 440.272 223.815 Q439.479 222.663 439.479 220.481 Q439.479 218.433 440.451 217.217 Q441.423 215.996 443.061 215.996 Q443.501 215.996 443.947 216.083 Q444.398 216.17 444.884 216.344 Z" fill="#000000" fill-rule="evenodd" fill-opacity="1" /><polyline clip-path="url(#clip350)" style="stroke:#ac8d18; stroke-width:1; stroke-opacity:1; fill:none" points="
  293.628,235.593 320.92,235.593 
  "/>
<path clip-path="url(#clip350)" d="M 0 0 M329.184 238.732 Q329.393 239.01 330.018 239.01 L330.533 239.01 L330.533 239.913 L329.89 239.913 Q328.849 239.913 328.374 239.357 Q327.9 238.79 327.9 237.563 L327.9 234.496 L325.469 234.496 L325.469 233.431 L331.447 233.431 L331.447 234.496 L328.988 234.496 L328.988 237.627 Q328.988 238.466 329.184 238.732 Z" fill="#000000" fill-rule="evenodd" fill-opacity="1" /><path clip-path="url(#clip350)" d="M 0 0 M336.47 234.531 L343.889 234.531 L343.889 235.503 L336.47 235.503 L336.47 234.531 M336.47 236.892 L343.889 236.892 L343.889 237.876 L336.47 237.876 L336.47 236.892 Z" fill="#000000" fill-rule="evenodd" fill-opacity="1" /><path clip-path="url(#clip350)" d="M 0 0 M351.424 232.042 Q350.521 232.042 350.064 232.934 Q349.613 233.819 349.613 235.601 Q349.613 237.378 350.064 238.269 Q350.521 239.155 351.424 239.155 Q352.332 239.155 352.784 238.269 Q353.241 237.378 353.241 235.601 Q353.241 233.819 352.784 232.934 Q352.332 232.042 351.424 232.042 M351.424 231.116 Q352.876 231.116 353.64 232.268 Q354.41 233.414 354.41 235.601 Q354.41 237.783 353.64 238.935 Q352.876 240.08 351.424 240.08 Q349.971 240.08 349.202 238.935 Q348.438 237.783 348.438 235.601 Q348.438 233.414 349.202 232.268 Q349.971 231.116 351.424 231.116 Z" fill="#000000" fill-rule="evenodd" fill-opacity="1" /><path clip-path="url(#clip350)" d="M 0 0 M355.677 238.443 L356.898 238.443 L356.898 239.913 L355.677 239.913 L355.677 238.443 Z" fill="#000000" fill-rule="evenodd" fill-opacity="1" /><path clip-path="url(#clip350)" d="M 0 0 M358.368 238.929 L360.278 238.929 L360.278 232.337 L358.2 232.754 L358.2 231.689 L360.266 231.273 L361.435 231.273 L361.435 238.929 L363.345 238.929 L363.345 239.913 L358.368 239.913 L358.368 238.929 Z" fill="#000000" fill-rule="evenodd" fill-opacity="1" /><path clip-path="url(#clip350)" d="M 0 0 M364.734 238.443 L365.955 238.443 L365.955 239.438 L365.006 241.29 L364.259 241.29 L364.734 239.438 L364.734 238.443 Z" fill="#000000" fill-rule="evenodd" fill-opacity="1" /><path clip-path="url(#clip350)" d="M 0 0 M371.892 231.591 L371.892 233.431 L374.086 233.431 L374.086 234.259 L371.892 234.259 L371.892 237.777 Q371.892 238.57 372.107 238.796 Q372.327 239.021 372.992 239.021 L374.086 239.021 L374.086 239.913 L372.992 239.913 Q371.759 239.913 371.291 239.455 Q370.822 238.993 370.822 237.777 L370.822 234.259 L370.041 234.259 L370.041 233.431 L370.822 233.431 L370.822 231.591 L371.892 231.591 Z" fill="#000000" fill-rule="evenodd" fill-opacity="1" /><path clip-path="url(#clip350)" d="M 0 0 M375.203 233.431 L376.267 233.431 L376.267 239.913 L375.203 239.913 L375.203 233.431 M375.203 230.908 L376.267 230.908 L376.267 232.256 L375.203 232.256 L375.203 230.908 Z" fill="#000000" fill-rule="evenodd" fill-opacity="1" /><path clip-path="url(#clip350)" d="M 0 0 M382.431 234.675 Q382.83 233.958 383.385 233.616 Q383.941 233.275 384.693 233.275 Q385.706 233.275 386.256 233.987 Q386.806 234.693 386.806 236.001 L386.806 239.913 L385.735 239.913 L385.735 236.035 Q385.735 235.104 385.405 234.652 Q385.075 234.201 384.398 234.201 Q383.571 234.201 383.09 234.751 Q382.61 235.3 382.61 236.249 L382.61 239.913 L381.539 239.913 L381.539 236.035 Q381.539 235.098 381.21 234.652 Q380.88 234.201 380.191 234.201 Q379.375 234.201 378.895 234.756 Q378.414 235.306 378.414 236.249 L378.414 239.913 L377.344 239.913 L377.344 233.431 L378.414 233.431 L378.414 234.438 Q378.779 233.842 379.288 233.559 Q379.798 233.275 380.498 233.275 Q381.204 233.275 381.696 233.634 Q382.193 233.993 382.431 234.675 Z" fill="#000000" fill-rule="evenodd" fill-opacity="1" /><path clip-path="url(#clip350)" d="M 0 0 M393.466 236.406 L393.466 236.927 L388.571 236.927 Q388.64 238.026 389.23 238.605 Q389.826 239.178 390.885 239.178 Q391.499 239.178 392.072 239.027 Q392.65 238.877 393.218 238.576 L393.218 239.583 Q392.645 239.826 392.043 239.953 Q391.441 240.08 390.822 240.08 Q389.271 240.08 388.362 239.178 Q387.46 238.275 387.46 236.736 Q387.46 235.144 388.316 234.212 Q389.178 233.275 390.637 233.275 Q391.944 233.275 392.703 234.12 Q393.466 234.959 393.466 236.406 M392.402 236.093 Q392.39 235.219 391.91 234.699 Q391.435 234.178 390.648 234.178 Q389.757 234.178 389.219 234.681 Q388.686 235.185 388.605 236.099 L392.402 236.093 Z" fill="#000000" fill-rule="evenodd" fill-opacity="1" /><path clip-path="url(#clip350)" d="M 0 0 M398.49 234.531 L405.909 234.531 L405.909 235.503 L398.49 235.503 L398.49 234.531 M398.49 236.892 L405.909 236.892 L405.909 237.876 L398.49 237.876 L398.49 236.892 Z" fill="#000000" fill-rule="evenodd" fill-opacity="1" /><path clip-path="url(#clip350)" d="M 0 0 M413.443 232.042 Q412.54 232.042 412.083 232.934 Q411.632 233.819 411.632 235.601 Q411.632 237.378 412.083 238.269 Q412.54 239.155 413.443 239.155 Q414.352 239.155 414.803 238.269 Q415.26 237.378 415.26 235.601 Q415.26 233.819 414.803 232.934 Q414.352 232.042 413.443 232.042 M413.443 231.116 Q414.896 231.116 415.66 232.268 Q416.429 233.414 416.429 235.601 Q416.429 237.783 415.66 238.935 Q414.896 240.08 413.443 240.08 Q411.991 240.08 411.221 238.935 Q410.457 237.783 410.457 235.601 Q410.457 233.414 411.221 232.268 Q411.991 231.116 413.443 231.116 Z" fill="#000000" fill-rule="evenodd" fill-opacity="1" /><path clip-path="url(#clip350)" d="M 0 0 M417.697 238.443 L418.918 238.443 L418.918 239.913 L417.697 239.913 L417.697 238.443 Z" fill="#000000" fill-rule="evenodd" fill-opacity="1" /><path clip-path="url(#clip350)" d="M 0 0 M420.388 238.929 L422.297 238.929 L422.297 232.337 L420.22 232.754 L420.22 231.689 L422.286 231.273 L423.455 231.273 L423.455 238.929 L425.364 238.929 L425.364 239.913 L420.388 239.913 L420.388 238.929 Z" fill="#000000" fill-rule="evenodd" fill-opacity="1" /><path clip-path="url(#clip350)" d="M 0 0 M429.132 235.81 Q428.298 235.81 427.818 236.255 Q427.344 236.701 427.344 237.482 Q427.344 238.263 427.818 238.709 Q428.298 239.155 429.132 239.155 Q429.965 239.155 430.445 238.709 Q430.926 238.258 430.926 237.482 Q430.926 236.701 430.445 236.255 Q429.971 235.81 429.132 235.81 M427.963 235.312 Q427.21 235.127 426.788 234.612 Q426.371 234.097 426.371 233.356 Q426.371 232.32 427.106 231.718 Q427.847 231.116 429.132 231.116 Q430.422 231.116 431.157 231.718 Q431.892 232.32 431.892 233.356 Q431.892 234.097 431.47 234.612 Q431.053 235.127 430.307 235.312 Q431.151 235.509 431.62 236.082 Q432.095 236.655 432.095 237.482 Q432.095 238.738 431.325 239.409 Q430.561 240.08 429.132 240.08 Q427.702 240.08 426.933 239.409 Q426.169 238.738 426.169 237.482 Q426.169 236.655 426.643 236.082 Q427.118 235.509 427.963 235.312 M427.535 233.466 Q427.535 234.137 427.951 234.513 Q428.374 234.89 429.132 234.89 Q429.884 234.89 430.307 234.513 Q430.735 234.137 430.735 233.466 Q430.735 232.795 430.307 232.418 Q429.884 232.042 429.132 232.042 Q428.374 232.042 427.951 232.418 Q427.535 232.795 427.535 233.466 Z" fill="#000000" fill-rule="evenodd" fill-opacity="1" /><path clip-path="url(#clip350)" d="M 0 0 M433.565 238.929 L435.474 238.929 L435.474 232.337 L433.397 232.754 L433.397 231.689 L435.463 231.273 L436.632 231.273 L436.632 238.929 L438.541 238.929 L438.541 239.913 L433.565 239.913 L433.565 238.929 Z" fill="#000000" fill-rule="evenodd" fill-opacity="1" /></svg>
