<?xml version="1.0" encoding="utf-8"?>
<svg xmlns="http://www.w3.org/2000/svg" xmlns:xlink="http://www.w3.org/1999/xlink" width="120" height="75" viewBox="0 0 480 300">
<defs>
  <clipPath id="clip060">
    <rect x="0" y="0" width="480" height="300"/>
  </clipPath>
</defs>
<path clip-path="url(#clip060)" d="
M0 300 L480 300 L480 0 L0 0  Z
  " fill="#ffffff" fill-rule="evenodd" fill-opacity="1"/>
<defs>
  <clipPath id="clip061">
    <rect x="96" y="0" width="337" height="300"/>
  </clipPath>
</defs>
<path clip-path="url(#clip060)" d="
M71.4517 255.53 L468.189 255.53 L468.189 27.537 L71.4517 27.537  Z
  " fill="#ffffff" fill-rule="evenodd" fill-opacity="1"/>
<defs>
  <clipPath id="clip062">
    <rect x="71" y="27" width="398" height="229"/>
  </clipPath>
</defs>
<polyline clip-path="url(#clip062)" style="stroke:#000000; stroke-width:0.5; stroke-opacity:0.1; fill:none" points="
  127.8,255.53 127.8,27.537 
  "/>
<polyline clip-path="url(#clip062)" style="stroke:#000000; stroke-width:0.5; stroke-opacity:0.1; fill:none" points="
  241.183,255.53 241.183,27.537 
  "/>
<polyline clip-path="url(#clip062)" style="stroke:#000000; stroke-width:0.5; stroke-opacity:0.1; fill:none" points="
  354.566,255.53 354.566,27.537 
  "/>
<polyline clip-path="url(#clip062)" style="stroke:#000000; stroke-width:0.5; stroke-opacity:0.1; fill:none" points="
  467.949,255.53 467.949,27.537 
  "/>
<polyline clip-path="url(#clip060)" style="stroke:#000000; stroke-width:1; stroke-opacity:1; fill:none" points="
  71.4517,255.53 468.189,255.53 
  "/>
<polyline clip-path="url(#clip060)" style="stroke:#000000; stroke-width:1; stroke-opacity:1; fill:none" points="
  127.8,255.53 127.8,252.794 
  "/>
<polyline clip-path="url(#clip060)" style="stroke:#000000; stroke-width:1; stroke-opacity:1; fill:none" points="
  241.183,255.53 241.183,252.794 
  "/>
<polyline clip-path="url(#clip060)" style="stroke:#000000; stroke-width:1; stroke-opacity:1; fill:none" points="
  354.566,255.53 354.566,252.794 
  "/>
<polyline clip-path="url(#clip060)" style="stroke:#000000; stroke-width:1; stroke-opacity:1; fill:none" points="
  467.949,255.53 467.949,252.794 
  "/>
<path clip-path="url(#clip060)" d="M 0 0 M119.929 274.138 L121.838 274.138 L121.838 267.546 L119.761 267.963 L119.761 266.898 L121.827 266.481 L122.996 266.481 L122.996 274.138 L124.905 274.138 L124.905 275.121 L119.929 275.121 L119.929 274.138 Z" fill="#000000" fill-rule="evenodd" fill-opacity="1" /><path clip-path="url(#clip060)" d="M 0 0 M128.673 267.251 Q127.77 267.251 127.313 268.142 Q126.861 269.028 126.861 270.81 Q126.861 272.587 127.313 273.478 Q127.77 274.363 128.673 274.363 Q129.581 274.363 130.033 273.478 Q130.49 272.587 130.49 270.81 Q130.49 269.028 130.033 268.142 Q129.581 267.251 128.673 267.251 M128.673 266.325 Q130.125 266.325 130.889 267.477 Q131.659 268.622 131.659 270.81 Q131.659 272.992 130.889 274.143 Q130.125 275.289 128.673 275.289 Q127.22 275.289 126.45 274.143 Q125.687 272.992 125.687 270.81 Q125.687 268.622 126.45 267.477 Q127.22 266.325 128.673 266.325 Z" fill="#000000" fill-rule="evenodd" fill-opacity="1" /><path clip-path="url(#clip060)" d="M 0 0 M131.795 267.469 L133.347 267.469 L133.347 262.114 L131.659 262.452 L131.659 261.587 L133.337 261.249 L134.287 261.249 L134.287 267.469 L135.839 267.469 L135.839 268.269 L131.795 268.269 L131.795 267.469 Z" fill="#000000" fill-rule="evenodd" fill-opacity="1" /><path clip-path="url(#clip060)" d="M 0 0 M233.173 274.138 L235.082 274.138 L235.082 267.546 L233.005 267.963 L233.005 266.898 L235.071 266.481 L236.24 266.481 L236.24 274.138 L238.15 274.138 L238.15 275.121 L233.173 275.121 L233.173 274.138 Z" fill="#000000" fill-rule="evenodd" fill-opacity="1" /><path clip-path="url(#clip060)" d="M 0 0 M241.917 267.251 Q241.014 267.251 240.557 268.142 Q240.106 269.028 240.106 270.81 Q240.106 272.587 240.557 273.478 Q241.014 274.363 241.917 274.363 Q242.825 274.363 243.277 273.478 Q243.734 272.587 243.734 270.81 Q243.734 269.028 243.277 268.142 Q242.825 267.251 241.917 267.251 M241.917 266.325 Q243.369 266.325 244.133 267.477 Q244.903 268.622 244.903 270.81 Q244.903 272.992 244.133 274.143 Q243.369 275.289 241.917 275.289 Q240.464 275.289 239.695 274.143 Q238.931 272.992 238.931 270.81 Q238.931 268.622 239.695 267.477 Q240.464 266.325 241.917 266.325 Z" fill="#000000" fill-rule="evenodd" fill-opacity="1" /><path clip-path="url(#clip060)" d="M 0 0 M246.046 267.469 L249.36 267.469 L249.36 268.269 L244.903 268.269 L244.903 267.469 Q245.444 266.91 246.375 265.969 Q247.31 265.024 247.55 264.752 Q248.006 264.239 248.185 263.886 Q248.368 263.529 248.368 263.186 Q248.368 262.626 247.973 262.274 Q247.583 261.921 246.953 261.921 Q246.506 261.921 246.008 262.076 Q245.514 262.231 244.95 262.546 L244.95 261.587 Q245.524 261.357 246.022 261.239 Q246.52 261.122 246.934 261.122 Q248.025 261.122 248.674 261.667 Q249.323 262.213 249.323 263.125 Q249.323 263.557 249.158 263.948 Q248.998 264.333 248.57 264.86 Q248.453 264.996 247.823 265.65 Q247.193 266.299 246.046 267.469 Z" fill="#000000" fill-rule="evenodd" fill-opacity="1" /><path clip-path="url(#clip060)" d="M 0 0 M346.473 274.138 L348.383 274.138 L348.383 267.546 L346.306 267.963 L346.306 266.898 L348.371 266.481 L349.54 266.481 L349.54 274.138 L351.45 274.138 L351.45 275.121 L346.473 275.121 L346.473 274.138 Z" fill="#000000" fill-rule="evenodd" fill-opacity="1" /><path clip-path="url(#clip060)" d="M 0 0 M355.218 267.251 Q354.315 267.251 353.858 268.142 Q353.406 269.028 353.406 270.81 Q353.406 272.587 353.858 273.478 Q354.315 274.363 355.218 274.363 Q356.126 274.363 356.577 273.478 Q357.035 272.587 357.035 270.81 Q357.035 269.028 356.577 268.142 Q356.126 267.251 355.218 267.251 M355.218 266.325 Q356.67 266.325 357.434 267.477 Q358.204 268.622 358.204 270.81 Q358.204 272.992 357.434 274.143 Q356.67 275.289 355.218 275.289 Q353.765 275.289 352.995 274.143 Q352.231 272.992 352.231 270.81 Q352.231 268.622 352.995 267.477 Q353.765 266.325 355.218 266.325 Z" fill="#000000" fill-rule="evenodd" fill-opacity="1" /><path clip-path="url(#clip060)" d="M 0 0 M361.377 264.484 Q362.059 264.629 362.44 265.09 Q362.826 265.551 362.826 266.228 Q362.826 267.267 362.111 267.836 Q361.396 268.405 360.08 268.405 Q359.638 268.405 359.168 268.316 Q358.702 268.231 358.204 268.057 L358.204 267.14 Q358.599 267.371 359.069 267.488 Q359.539 267.606 360.051 267.606 Q360.945 267.606 361.41 267.253 Q361.881 266.9 361.881 266.228 Q361.881 265.607 361.443 265.259 Q361.011 264.907 360.235 264.907 L359.417 264.907 L359.417 264.126 L360.272 264.126 Q360.973 264.126 361.345 263.849 Q361.716 263.567 361.716 263.04 Q361.716 262.499 361.33 262.213 Q360.95 261.921 360.235 261.921 Q359.845 261.921 359.398 262.006 Q358.951 262.09 358.415 262.269 L358.415 261.423 Q358.956 261.272 359.426 261.197 Q359.901 261.122 360.319 261.122 Q361.401 261.122 362.031 261.615 Q362.661 262.104 362.661 262.941 Q362.661 263.524 362.327 263.929 Q361.993 264.328 361.377 264.484 Z" fill="#000000" fill-rule="evenodd" fill-opacity="1" /><path clip-path="url(#clip060)" d="M 0 0 M459.609 274.138 L461.519 274.138 L461.519 267.546 L459.442 267.963 L459.442 266.898 L461.508 266.481 L462.677 266.481 L462.677 274.138 L464.586 274.138 L464.586 275.121 L459.609 275.121 L459.609 274.138 Z" fill="#000000" fill-rule="evenodd" fill-opacity="1" /><path clip-path="url(#clip060)" d="M 0 0 M468.354 267.251 Q467.451 267.251 466.994 268.142 Q466.542 269.028 466.542 270.81 Q466.542 272.587 466.994 273.478 Q467.451 274.363 468.354 274.363 Q469.262 274.363 469.714 273.478 Q470.171 272.587 470.171 270.81 Q470.171 269.028 469.714 268.142 Q469.262 267.251 468.354 267.251 M468.354 266.325 Q469.806 266.325 470.57 267.477 Q471.34 268.622 471.34 270.81 Q471.34 272.992 470.57 274.143 Q469.806 275.289 468.354 275.289 Q466.901 275.289 466.131 274.143 Q465.367 272.992 465.367 270.81 Q465.367 268.622 466.131 267.477 Q466.901 266.325 468.354 266.325 Z" fill="#000000" fill-rule="evenodd" fill-opacity="1" /><path clip-path="url(#clip060)" d="M 0 0 M474.509 262.076 L472.111 265.824 L474.509 265.824 L474.509 262.076 M474.26 261.249 L475.454 261.249 L475.454 265.824 L476.455 265.824 L476.455 266.614 L475.454 266.614 L475.454 268.269 L474.509 268.269 L474.509 266.614 L471.34 266.614 L471.34 265.697 L474.26 261.249 Z" fill="#000000" fill-rule="evenodd" fill-opacity="1" /><g clip-path="url(#clip060)">
<text style="fill:#000000; fill-opacity:1; font-family:Arial,Helvetica Neue,Helvetica,sans-serif; font-size:16px; text-anchor:middle;" transform="rotate(0, 269.82, 295.186)" x="269.82" y="295.186">f-evaluations</text>
</g>
<polyline clip-path="url(#clip062)" style="stroke:#000000; stroke-width:0.5; stroke-opacity:0.1; fill:none" points="
  71.4517,230.6 468.189,230.6 
  "/>
<polyline clip-path="url(#clip062)" style="stroke:#000000; stroke-width:0.5; stroke-opacity:0.1; fill:none" points="
  71.4517,189.639 468.189,189.639 
  "/>
<polyline clip-path="url(#clip062)" style="stroke:#000000; stroke-width:0.5; stroke-opacity:0.1; fill:none" points="
  71.4517,148.679 468.189,148.679 
  "/>
<polyline clip-path="url(#clip062)" style="stroke:#000000; stroke-width:0.5; stroke-opacity:0.1; fill:none" points="
  71.4517,107.718 468.189,107.718 
  "/>
<polyline clip-path="url(#clip062)" style="stroke:#000000; stroke-width:0.5; stroke-opacity:0.1; fill:none" points="
  71.4517,66.758 468.189,66.758 
  "/>
<polyline clip-path="url(#clip060)" style="stroke:#000000; stroke-width:1; stroke-opacity:1; fill:none" points="
  71.4517,255.53 71.4517,27.537 
  "/>
<polyline clip-path="url(#clip060)" style="stroke:#000000; stroke-width:1; stroke-opacity:1; fill:none" points="
  71.4517,230.6 76.2126,230.6 
  "/>
<polyline clip-path="url(#clip060)" style="stroke:#000000; stroke-width:1; stroke-opacity:1; fill:none" points="
  71.4517,189.639 76.2126,189.639 
  "/>
<polyline clip-path="url(#clip060)" style="stroke:#000000; stroke-width:1; stroke-opacity:1; fill:none" points="
  71.4517,148.679 76.2126,148.679 
  "/>
<polyline clip-path="url(#clip060)" style="stroke:#000000; stroke-width:1; stroke-opacity:1; fill:none" points="
  71.4517,107.718 76.2126,107.718 
  "/>
<polyline clip-path="url(#clip060)" style="stroke:#000000; stroke-width:1; stroke-opacity:1; fill:none" points="
  71.4517,66.758 76.2126,66.758 
  "/>
<path clip-path="url(#clip060)" d="M 0 0 M28.2594 235.548 L30.1692 235.548 L30.1692 228.956 L28.0916 229.373 L28.0916 228.308 L30.1576 227.892 L31.3266 227.892 L31.3266 235.548 L33.2363 235.548 L33.2363 236.532 L28.2594 236.532 L28.2594 235.548 Z" fill="#000000" fill-rule="evenodd" fill-opacity="1" /><path clip-path="url(#clip060)" d="M 0 0 M37.0036 228.661 Q36.1008 228.661 35.6437 229.553 Q35.1923 230.438 35.1923 232.22 Q35.1923 233.997 35.6437 234.888 Q36.1008 235.774 37.0036 235.774 Q37.9122 235.774 38.3636 234.888 Q38.8207 233.997 38.8207 232.22 Q38.8207 230.438 38.3636 229.553 Q37.9122 228.661 37.0036 228.661 M37.0036 227.735 Q38.4561 227.735 39.22 228.887 Q39.9897 230.033 39.9897 232.22 Q39.9897 234.402 39.22 235.554 Q38.4561 236.699 37.0036 236.699 Q35.5511 236.699 34.7814 235.554 Q34.0175 234.402 34.0175 232.22 Q34.0175 230.033 34.7814 228.887 Q35.5511 227.735 37.0036 227.735 Z" fill="#000000" fill-rule="evenodd" fill-opacity="1" /><path clip-path="url(#clip060)" d="M 0 0 M39.9897 226.261 L46.0176 226.261 L46.0176 227.06 L39.9897 227.06 L39.9897 226.261 Z" fill="#000000" fill-rule="evenodd" fill-opacity="1" /><path clip-path="url(#clip060)" d="M 0 0 M47.2119 228.88 L48.7635 228.88 L48.7635 223.524 L47.0755 223.863 L47.0755 222.998 L48.7541 222.659 L49.7039 222.659 L49.7039 228.88 L51.2556 228.88 L51.2556 229.679 L47.2119 229.679 L47.2119 228.88 Z" fill="#000000" fill-rule="evenodd" fill-opacity="1" /><path clip-path="url(#clip060)" d="M 0 0 M54.3165 223.284 Q53.583 223.284 53.2116 224.008 Q52.8448 224.728 52.8448 226.176 Q52.8448 227.62 53.2116 228.344 Q53.583 229.063 54.3165 229.063 Q55.0547 229.063 55.4215 228.344 Q55.7929 227.62 55.7929 226.176 Q55.7929 224.728 55.4215 224.008 Q55.0547 223.284 54.3165 223.284 M54.3165 222.532 Q55.4967 222.532 56.1174 223.468 Q56.7427 224.399 56.7427 226.176 Q56.7427 227.949 56.1174 228.884 Q55.4967 229.815 54.3165 229.815 Q53.1363 229.815 52.511 228.884 Q51.8903 227.949 51.8903 226.176 Q51.8903 224.399 52.511 223.468 Q53.1363 222.532 54.3165 222.532 Z" fill="#000000" fill-rule="evenodd" fill-opacity="1" /><path clip-path="url(#clip060)" d="M 0 0 M57.7725 228.485 L58.7646 228.485 L58.7646 229.679 L57.7725 229.679 L57.7725 228.485 Z" fill="#000000" fill-rule="evenodd" fill-opacity="1" /><path clip-path="url(#clip060)" d="M 0 0 M61.8255 223.284 Q61.092 223.284 60.7206 224.008 Q60.3538 224.728 60.3538 226.176 Q60.3538 227.62 60.7206 228.344 Q61.092 229.063 61.8255 229.063 Q62.5637 229.063 62.9305 228.344 Q63.3019 227.62 63.3019 226.176 Q63.3019 224.728 62.9305 224.008 Q62.5637 223.284 61.8255 223.284 M61.8255 222.532 Q63.0057 222.532 63.6264 223.468 Q64.2517 224.399 64.2517 226.176 Q64.2517 227.949 63.6264 228.884 Q63.0057 229.815 61.8255 229.815 Q60.6453 229.815 60.02 228.884 Q59.3993 227.949 59.3993 226.176 Q59.3993 224.399 60.02 223.468 Q60.6453 222.532 61.8255 222.532 Z" fill="#000000" fill-rule="evenodd" fill-opacity="1" /><path clip-path="url(#clip060)" d="M 0 0 M33.883 194.587 L35.7927 194.587 L35.7927 187.996 L33.7151 188.413 L33.7151 187.348 L35.7811 186.931 L36.9501 186.931 L36.9501 194.587 L38.8598 194.587 L38.8598 195.571 L33.883 195.571 L33.883 194.587 Z" fill="#000000" fill-rule="evenodd" fill-opacity="1" /><path clip-path="url(#clip060)" d="M 0 0 M42.6271 187.701 Q41.7244 187.701 41.2672 188.592 Q40.8158 189.477 40.8158 191.26 Q40.8158 193.036 41.2672 193.928 Q41.7244 194.813 42.6271 194.813 Q43.5357 194.813 43.9871 193.928 Q44.4443 193.036 44.4443 191.26 Q44.4443 189.477 43.9871 188.592 Q43.5357 187.701 42.6271 187.701 M42.6271 186.775 Q44.0797 186.775 44.8436 187.927 Q45.6132 189.072 45.6132 191.26 Q45.6132 193.442 44.8436 194.593 Q44.0797 195.739 42.6271 195.739 Q41.1746 195.739 40.4049 194.593 Q39.641 193.442 39.641 191.26 Q39.641 189.072 40.4049 187.927 Q41.1746 186.775 42.6271 186.775 Z" fill="#000000" fill-rule="evenodd" fill-opacity="1" /><path clip-path="url(#clip060)" d="M 0 0 M45.6132 185.3 L51.6411 185.3 L51.6411 186.1 L45.6132 186.1 L45.6132 185.3 Z" fill="#000000" fill-rule="evenodd" fill-opacity="1" /><path clip-path="url(#clip060)" d="M 0 0 M52.431 181.699 L56.9449 181.699 L56.9449 182.103 L54.3965 188.719 L53.4043 188.719 L55.8023 182.498 L52.431 182.498 L52.431 181.699 Z" fill="#000000" fill-rule="evenodd" fill-opacity="1" /><path clip-path="url(#clip060)" d="M 0 0 M57.9746 187.524 L58.9667 187.524 L58.9667 188.719 L57.9746 188.719 L57.9746 187.524 Z" fill="#000000" fill-rule="evenodd" fill-opacity="1" /><path clip-path="url(#clip060)" d="M 0 0 M60.0059 181.699 L63.7345 181.699 L63.7345 182.498 L60.8757 182.498 L60.8757 184.219 Q61.0826 184.148 61.2895 184.115 Q61.4964 184.078 61.7033 184.078 Q62.8788 184.078 63.5652 184.722 Q64.2517 185.366 64.2517 186.466 Q64.2517 187.6 63.5464 188.23 Q62.8411 188.855 61.5575 188.855 Q61.1155 188.855 60.6547 188.78 Q60.1987 188.704 59.7097 188.554 L59.7097 187.6 Q60.1328 187.83 60.5842 187.943 Q61.0356 188.056 61.5387 188.056 Q62.3521 188.056 62.827 187.628 Q63.3019 187.2 63.3019 186.466 Q63.3019 185.733 62.827 185.305 Q62.3521 184.877 61.5387 184.877 Q61.1578 184.877 60.777 184.962 Q60.4008 185.046 60.0059 185.225 L60.0059 181.699 Z" fill="#000000" fill-rule="evenodd" fill-opacity="1" /><path clip-path="url(#clip060)" d="M 0 0 M33.6996 153.627 L35.6093 153.627 L35.6093 147.036 L33.5318 147.452 L33.5318 146.387 L35.5977 145.971 L36.7667 145.971 L36.7667 153.627 L38.6764 153.627 L38.6764 154.611 L33.6996 154.611 L33.6996 153.627 Z" fill="#000000" fill-rule="evenodd" fill-opacity="1" /><path clip-path="url(#clip060)" d="M 0 0 M42.4438 146.74 Q41.541 146.74 41.0838 147.632 Q40.6324 148.517 40.6324 150.299 Q40.6324 152.076 41.0838 152.967 Q41.541 153.853 42.4438 153.853 Q43.3523 153.853 43.8037 152.967 Q44.2609 152.076 44.2609 150.299 Q44.2609 148.517 43.8037 147.632 Q43.3523 146.74 42.4438 146.74 M42.4438 145.815 Q43.8963 145.815 44.6602 146.966 Q45.4299 148.112 45.4299 150.299 Q45.4299 152.481 44.6602 153.633 Q43.8963 154.779 42.4438 154.779 Q40.9912 154.779 40.2215 153.633 Q39.4577 152.481 39.4577 150.299 Q39.4577 148.112 40.2215 146.966 Q40.9912 145.815 42.4438 145.815 Z" fill="#000000" fill-rule="evenodd" fill-opacity="1" /><path clip-path="url(#clip060)" d="M 0 0 M45.4299 144.34 L51.4577 144.34 L51.4577 145.139 L45.4299 145.139 L45.4299 144.34 Z" fill="#000000" fill-rule="evenodd" fill-opacity="1" /><path clip-path="url(#clip060)" d="M 0 0 M52.4969 140.738 L56.2255 140.738 L56.2255 141.537 L53.3667 141.537 L53.3667 143.258 Q53.5736 143.188 53.7805 143.155 Q53.9874 143.117 54.1943 143.117 Q55.3698 143.117 56.0562 143.762 Q56.7427 144.406 56.7427 145.506 Q56.7427 146.639 56.0374 147.269 Q55.3321 147.895 54.0485 147.895 Q53.6065 147.895 53.1457 147.819 Q52.6897 147.744 52.2006 147.594 L52.2006 146.639 Q52.6238 146.869 53.0752 146.982 Q53.5266 147.095 54.0297 147.095 Q54.8431 147.095 55.318 146.667 Q55.7929 146.239 55.7929 145.506 Q55.7929 144.772 55.318 144.345 Q54.8431 143.917 54.0297 143.917 Q53.6488 143.917 53.268 144.001 Q52.8918 144.086 52.4969 144.265 L52.4969 140.738 Z" fill="#000000" fill-rule="evenodd" fill-opacity="1" /><path clip-path="url(#clip060)" d="M 0 0 M57.7725 146.564 L58.7646 146.564 L58.7646 147.758 L57.7725 147.758 L57.7725 146.564 Z" fill="#000000" fill-rule="evenodd" fill-opacity="1" /><path clip-path="url(#clip060)" d="M 0 0 M61.8255 141.364 Q61.092 141.364 60.7206 142.088 Q60.3538 142.807 60.3538 144.255 Q60.3538 145.699 60.7206 146.423 Q61.092 147.142 61.8255 147.142 Q62.5637 147.142 62.9305 146.423 Q63.3019 145.699 63.3019 144.255 Q63.3019 142.807 62.9305 142.088 Q62.5637 141.364 61.8255 141.364 M61.8255 140.611 Q63.0057 140.611 63.6264 141.547 Q64.2517 142.478 64.2517 144.255 Q64.2517 146.028 63.6264 146.964 Q63.0057 147.895 61.8255 147.895 Q60.6453 147.895 60.02 146.964 Q59.3993 146.028 59.3993 144.255 Q59.3993 142.478 60.02 141.547 Q60.6453 140.611 61.8255 140.611 Z" fill="#000000" fill-rule="evenodd" fill-opacity="1" /><path clip-path="url(#clip060)" d="M 0 0 M34.024 112.667 L35.9337 112.667 L35.9337 106.075 L33.8562 106.492 L33.8562 105.427 L35.9222 105.01 L37.0911 105.01 L37.0911 112.667 L39.0008 112.667 L39.0008 113.65 L34.024 113.65 L34.024 112.667 Z" fill="#000000" fill-rule="evenodd" fill-opacity="1" /><path clip-path="url(#clip060)" d="M 0 0 M42.7682 105.78 Q41.8654 105.78 41.4082 106.671 Q40.9569 107.557 40.9569 109.339 Q40.9569 111.116 41.4082 112.007 Q41.8654 112.892 42.7682 112.892 Q43.6768 112.892 44.1281 112.007 Q44.5853 111.116 44.5853 109.339 Q44.5853 107.557 44.1281 106.671 Q43.6768 105.78 42.7682 105.78 M42.7682 104.854 Q44.2207 104.854 44.9846 106.006 Q45.7543 107.152 45.7543 109.339 Q45.7543 111.521 44.9846 112.672 Q44.2207 113.818 42.7682 113.818 Q41.3157 113.818 40.546 112.672 Q39.7821 111.521 39.7821 109.339 Q39.7821 107.152 40.546 106.006 Q41.3157 104.854 42.7682 104.854 Z" fill="#000000" fill-rule="evenodd" fill-opacity="1" /><path clip-path="url(#clip060)" d="M 0 0 M45.7543 103.379 L51.7822 103.379 L51.7822 104.179 L45.7543 104.179 L45.7543 103.379 Z" fill="#000000" fill-rule="evenodd" fill-opacity="1" /><path clip-path="url(#clip060)" d="M 0 0 M53.63 105.998 L56.9449 105.998 L56.9449 106.798 L52.4875 106.798 L52.4875 105.998 Q53.0282 105.439 53.9592 104.498 Q54.8949 103.553 55.1347 103.281 Q55.5907 102.768 55.7694 102.416 Q55.9528 102.058 55.9528 101.715 Q55.9528 101.155 55.5578 100.803 Q55.1676 100.45 54.5375 100.45 Q54.0908 100.45 53.5924 100.605 Q53.0987 100.76 52.5345 101.075 L52.5345 100.116 Q53.1081 99.8859 53.6065 99.7683 Q54.1049 99.6508 54.5187 99.6508 Q55.6096 99.6508 56.2584 100.196 Q56.9073 100.742 56.9073 101.654 Q56.9073 102.086 56.7427 102.477 Q56.5829 102.862 56.155 103.389 Q56.0374 103.525 55.4074 104.179 Q54.7773 104.828 53.63 105.998 Z" fill="#000000" fill-rule="evenodd" fill-opacity="1" /><path clip-path="url(#clip060)" d="M 0 0 M57.9746 105.603 L58.9667 105.603 L58.9667 106.798 L57.9746 106.798 L57.9746 105.603 Z" fill="#000000" fill-rule="evenodd" fill-opacity="1" /><path clip-path="url(#clip060)" d="M 0 0 M60.0059 99.7777 L63.7345 99.7777 L63.7345 100.577 L60.8757 100.577 L60.8757 102.298 Q61.0826 102.227 61.2895 102.195 Q61.4964 102.157 61.7033 102.157 Q62.8788 102.157 63.5652 102.801 Q64.2517 103.445 64.2517 104.545 Q64.2517 105.679 63.5464 106.309 Q62.8411 106.934 61.5575 106.934 Q61.1155 106.934 60.6547 106.859 Q60.1987 106.784 59.7097 106.633 L59.7097 105.679 Q60.1328 105.909 60.5842 106.022 Q61.0356 106.135 61.5387 106.135 Q62.3521 106.135 62.827 105.707 Q63.3019 105.279 63.3019 104.545 Q63.3019 103.812 62.827 103.384 Q62.3521 102.956 61.5387 102.956 Q61.1578 102.956 60.777 103.041 Q60.4008 103.126 60.0059 103.304 L60.0059 99.7777 Z" fill="#000000" fill-rule="evenodd" fill-opacity="1" /><path clip-path="url(#clip060)" d="M 0 0 M40.1601 71.7061 L42.0698 71.7061 L42.0698 65.1147 L39.9922 65.5314 L39.9922 64.4666 L42.0582 64.0499 L43.2272 64.0499 L43.2272 71.7061 L45.1369 71.7061 L45.1369 72.6899 L40.1601 72.6899 L40.1601 71.7061 Z" fill="#000000" fill-rule="evenodd" fill-opacity="1" /><path clip-path="url(#clip060)" d="M 0 0 M48.9042 64.8196 Q48.0015 64.8196 47.5443 65.7108 Q47.0929 66.5962 47.0929 68.3786 Q47.0929 70.1552 47.5443 71.0464 Q48.0015 71.9318 48.9042 71.9318 Q49.8128 71.9318 50.2642 71.0464 Q50.7213 70.1552 50.7213 68.3786 Q50.7213 66.5962 50.2642 65.7108 Q49.8128 64.8196 48.9042 64.8196 M48.9042 63.8936 Q50.3568 63.8936 51.1206 65.0453 Q51.8903 66.1911 51.8903 68.3786 Q51.8903 70.5603 51.1206 71.7119 Q50.3568 72.8577 48.9042 72.8577 Q47.4517 72.8577 46.682 71.7119 Q45.9181 70.5603 45.9181 68.3786 Q45.9181 66.1911 46.682 65.0453 Q47.4517 63.8936 48.9042 63.8936 Z" fill="#000000" fill-rule="evenodd" fill-opacity="1" /><path clip-path="url(#clip060)" d="M 0 0 M54.3165 59.4427 Q53.583 59.4427 53.2116 60.1668 Q52.8448 60.8861 52.8448 62.3343 Q52.8448 63.7778 53.2116 64.5019 Q53.583 65.2213 54.3165 65.2213 Q55.0547 65.2213 55.4215 64.5019 Q55.7929 63.7778 55.7929 62.3343 Q55.7929 60.8861 55.4215 60.1668 Q55.0547 59.4427 54.3165 59.4427 M54.3165 58.6903 Q55.4967 58.6903 56.1174 59.626 Q56.7427 60.557 56.7427 62.3343 Q56.7427 64.107 56.1174 65.0427 Q55.4967 65.9736 54.3165 65.9736 Q53.1363 65.9736 52.511 65.0427 Q51.8903 64.107 51.8903 62.3343 Q51.8903 60.557 52.511 59.626 Q53.1363 58.6903 54.3165 58.6903 Z" fill="#000000" fill-rule="evenodd" fill-opacity="1" /><path clip-path="url(#clip060)" d="M 0 0 M57.7725 64.643 L58.7646 64.643 L58.7646 65.8373 L57.7725 65.8373 L57.7725 64.643 Z" fill="#000000" fill-rule="evenodd" fill-opacity="1" /><path clip-path="url(#clip060)" d="M 0 0 M61.8255 59.4427 Q61.092 59.4427 60.7206 60.1668 Q60.3538 60.8861 60.3538 62.3343 Q60.3538 63.7778 60.7206 64.5019 Q61.092 65.2213 61.8255 65.2213 Q62.5637 65.2213 62.9305 64.5019 Q63.3019 63.7778 63.3019 62.3343 Q63.3019 60.8861 62.9305 60.1668 Q62.5637 59.4427 61.8255 59.4427 M61.8255 58.6903 Q63.0057 58.6903 63.6264 59.626 Q64.2517 60.557 64.2517 62.3343 Q64.2517 64.107 63.6264 65.0427 Q63.0057 65.9736 61.8255 65.9736 Q60.6453 65.9736 60.02 65.0427 Q59.3993 64.107 59.3993 62.3343 Q59.3993 60.557 60.02 59.626 Q60.6453 58.6903 61.8255 58.6903 Z" fill="#000000" fill-rule="evenodd" fill-opacity="1" /><g clip-path="url(#clip060)">
<text style="fill:#000000; fill-opacity:1; font-family:Arial,Helvetica Neue,Helvetica,sans-serif; font-size:16px; text-anchor:middle;" transform="rotate(-90, 18.0011, 141.533)" x="18.0011" y="141.533">inf-norm error</text>
</g>
<g clip-path="url(#clip060)">
<text style="fill:#000000; fill-opacity:1; font-family:Arial,Helvetica Neue,Helvetica,sans-serif; font-size:18px; font-weight:bold; text-anchor:middle;" transform="rotate(0, 269.82, 15.6)" x="269.82" y="15.6">Convergence of RK methods</text>
</g>
<polyline clip-path="url(#clip062)" style="stroke:#009af9; stroke-width:2; stroke-opacity:1; fill:none" points="
  82.6801,62.6991 136.778,71.5119 196.063,93.2793 252.563,110.13 309.446,126.607 366.102,142.987 422.829,159.383 
  "/>
<circle clip-path="url(#clip062)" cx="82.6801" cy="62.6991" r="2" fill="#009af9" fill-rule="evenodd" fill-opacity="1" stroke="#000000" stroke-opacity="1" stroke-width="0.6"/>
<circle clip-path="url(#clip062)" cx="136.778" cy="71.5119" r="2" fill="#009af9" fill-rule="evenodd" fill-opacity="1" stroke="#000000" stroke-opacity="1" stroke-width="0.6"/>
<circle clip-path="url(#clip062)" cx="196.063" cy="93.2793" r="2" fill="#009af9" fill-rule="evenodd" fill-opacity="1" stroke="#000000" stroke-opacity="1" stroke-width="0.6"/>
<circle clip-path="url(#clip062)" cx="252.563" cy="110.13" r="2" fill="#009af9" fill-rule="evenodd" fill-opacity="1" stroke="#000000" stroke-opacity="1" stroke-width="0.6"/>
<circle clip-path="url(#clip062)" cx="309.446" cy="126.607" r="2" fill="#009af9" fill-rule="evenodd" fill-opacity="1" stroke="#000000" stroke-opacity="1" stroke-width="0.6"/>
<circle clip-path="url(#clip062)" cx="366.102" cy="142.987" r="2" fill="#009af9" fill-rule="evenodd" fill-opacity="1" stroke="#000000" stroke-opacity="1" stroke-width="0.6"/>
<circle clip-path="url(#clip062)" cx="422.829" cy="159.383" r="2" fill="#009af9" fill-rule="evenodd" fill-opacity="1" stroke="#000000" stroke-opacity="1" stroke-width="0.6"/>
<polyline clip-path="url(#clip062)" style="stroke:#e26f46; stroke-width:2; stroke-opacity:1; fill:none" points="
  116.812,68.1644 170.909,68.418 230.195,117.386 286.695,150.212 343.578,183.394 400.234,216.25 456.961,249.077 
  "/>
<circle clip-path="url(#clip062)" cx="116.812" cy="68.1644" r="2" fill="#e26f46" fill-rule="evenodd" fill-opacity="1" stroke="#000000" stroke-opacity="1" stroke-width="0.6"/>
<circle clip-path="url(#clip062)" cx="170.909" cy="68.418" r="2" fill="#e26f46" fill-rule="evenodd" fill-opacity="1" stroke="#000000" stroke-opacity="1" stroke-width="0.6"/>
<circle clip-path="url(#clip062)" cx="230.195" cy="117.386" r="2" fill="#e26f46" fill-rule="evenodd" fill-opacity="1" stroke="#000000" stroke-opacity="1" stroke-width="0.6"/>
<circle clip-path="url(#clip062)" cx="286.695" cy="150.212" r="2" fill="#e26f46" fill-rule="evenodd" fill-opacity="1" stroke="#000000" stroke-opacity="1" stroke-width="0.6"/>
<circle clip-path="url(#clip062)" cx="343.578" cy="183.394" r="2" fill="#e26f46" fill-rule="evenodd" fill-opacity="1" stroke="#000000" stroke-opacity="1" stroke-width="0.6"/>
<circle clip-path="url(#clip062)" cx="400.234" cy="216.25" r="2" fill="#e26f46" fill-rule="evenodd" fill-opacity="1" stroke="#000000" stroke-opacity="1" stroke-width="0.6"/>
<circle clip-path="url(#clip062)" cx="456.961" cy="249.077" r="2" fill="#e26f46" fill-rule="evenodd" fill-opacity="1" stroke="#000000" stroke-opacity="1" stroke-width="0.6"/>
<polyline clip-path="url(#clip062)" style="stroke:#3da44d; stroke-width:2; stroke-opacity:1; fill:none" stroke-dasharray="8, 5" points="
  82.6801,50.3738 136.778,66.0083 196.063,83.1422 252.563,99.471 309.446,115.911 366.102,132.284 422.829,148.679 
  "/>
<polyline clip-path="url(#clip062)" style="stroke:#c271d2; stroke-width:2; stroke-opacity:1; fill:none" stroke-dasharray="8, 5" points="
  116.812,33.9896 170.909,65.2586 230.195,99.5263 286.695,132.184 343.578,165.063 400.234,197.811 456.961,230.6 
  "/>
<path clip-path="url(#clip060)" d="
M84.6763 247.93 L166.639 247.93 L166.639 172.33 L84.6763 172.33  Z
  " fill="#ffffff" fill-rule="evenodd" fill-opacity="1"/>
<polyline clip-path="url(#clip060)" style="stroke:#000000; stroke-width:1; stroke-opacity:1; fill:none" points="
  84.6763,247.93 166.639,247.93 166.639,172.33 84.6763,172.33 84.6763,247.93 
  "/>
<polyline clip-path="url(#clip060)" style="stroke:#009af9; stroke-width:1; stroke-opacity:1; fill:none" points="
  89.0845,187.45 115.534,187.45 
  "/>
<circle clip-path="url(#clip060)" cx="102.309" cy="187.45" r="5" fill="#009af9" fill-rule="evenodd" fill-opacity="1" stroke="#000000" stroke-opacity="1" stroke-width="1.28"/>
<path clip-path="url(#clip060)" d="M 0 0 M119.942 183.13 L121.111 183.13 L121.111 191.77 L119.942 191.77 L119.942 183.13 Z" fill="#000000" fill-rule="evenodd" fill-opacity="1" /><path clip-path="url(#clip060)" d="M 0 0 M122.274 183.13 L127.737 183.13 L127.737 184.114 L123.443 184.114 L123.443 186.671 L127.558 186.671 L127.558 187.655 L123.443 187.655 L123.443 190.786 L127.841 190.786 L127.841 191.77 L122.274 191.77 L122.274 183.13 Z" fill="#000000" fill-rule="evenodd" fill-opacity="1" /><path clip-path="url(#clip060)" d="M 0 0 M130.115 190.786 L134.195 190.786 L134.195 191.77 L128.709 191.77 L128.709 190.786 Q129.375 190.097 130.52 188.94 Q131.672 187.777 131.967 187.441 Q132.529 186.81 132.748 186.376 Q132.974 185.936 132.974 185.514 Q132.974 184.825 132.488 184.391 Q132.008 183.957 131.232 183.957 Q130.683 183.957 130.069 184.148 Q129.461 184.339 128.767 184.727 L128.767 183.546 Q129.473 183.263 130.086 183.118 Q130.7 182.974 131.209 182.974 Q132.552 182.974 133.35 183.645 Q134.149 184.316 134.149 185.439 Q134.149 185.971 133.946 186.451 Q133.75 186.926 133.223 187.574 Q133.078 187.742 132.303 188.546 Q131.527 189.345 130.115 190.786 Z" fill="#000000" fill-rule="evenodd" fill-opacity="1" /><polyline clip-path="url(#clip060)" style="stroke:#e26f46; stroke-width:1; stroke-opacity:1; fill:none" points="
  89.0845,202.57 115.534,202.57 
  "/>
<circle clip-path="url(#clip060)" cx="102.309" cy="202.57" r="5" fill="#e26f46" fill-rule="evenodd" fill-opacity="1" stroke="#000000" stroke-opacity="1" stroke-width="1.28"/>
<path clip-path="url(#clip060)" d="M 0 0 M124.039 202.839 Q124.415 202.966 124.768 203.383 Q125.127 203.799 125.486 204.529 L126.672 206.89 L125.416 206.89 L124.311 204.673 Q123.883 203.805 123.478 203.522 Q123.078 203.238 122.384 203.238 L121.111 203.238 L121.111 206.89 L119.942 206.89 L119.942 198.25 L122.581 198.25 Q124.062 198.25 124.791 198.869 Q125.521 199.488 125.521 200.738 Q125.521 201.554 125.139 202.092 Q124.762 202.631 124.039 202.839 M121.111 199.21 L121.111 202.278 L122.581 202.278 Q123.426 202.278 123.854 201.89 Q124.288 201.496 124.288 200.738 Q124.288 199.98 123.854 199.598 Q123.426 199.21 122.581 199.21 L121.111 199.21 Z" fill="#000000" fill-rule="evenodd" fill-opacity="1" /><path clip-path="url(#clip060)" d="M 0 0 M127.835 198.25 L129.004 198.25 L129.004 201.901 L132.882 198.25 L134.386 198.25 L130.098 202.278 L134.693 206.89 L133.154 206.89 L129.004 202.729 L129.004 206.89 L127.835 206.89 L127.835 198.25 Z" fill="#000000" fill-rule="evenodd" fill-opacity="1" /><path clip-path="url(#clip060)" d="M 0 0 M139.172 199.268 L136.221 203.881 L139.172 203.881 L139.172 199.268 M138.865 198.25 L140.335 198.25 L140.335 203.881 L141.568 203.881 L141.568 204.853 L140.335 204.853 L140.335 206.89 L139.172 206.89 L139.172 204.853 L135.272 204.853 L135.272 203.724 L138.865 198.25 Z" fill="#000000" fill-rule="evenodd" fill-opacity="1" /><polyline clip-path="url(#clip060)" style="stroke:#3da44d; stroke-width:1; stroke-opacity:1; fill:none" stroke-dasharray="8, 5" points="
  89.0845,217.69 115.534,217.69 
  "/>
<path clip-path="url(#clip060)" d="M 0 0 M128.233 215.519 Q128.233 216.356 127.935 217.188 Q127.642 218.014 127.127 218.693 Q126.611 219.372 125.956 219.899 Q125.3 220.426 124.533 220.719 Q123.766 221.012 123.016 221.012 Q121.687 221.012 120.814 220.139 Q119.942 219.267 119.942 217.809 Q119.942 216.79 120.399 215.777 Q120.855 214.758 121.581 214.002 Q122.308 213.241 123.262 212.767 Q124.222 212.293 125.171 212.293 Q126.518 212.293 127.373 213.189 Q128.233 214.079 128.233 215.519 M127.162 215.051 Q127.162 214.406 126.98 213.92 Q126.799 213.429 126.494 213.148 Q126.196 212.866 125.838 212.732 Q125.487 212.591 125.101 212.591 Q124.351 212.591 123.549 213.077 Q122.747 213.563 122.149 214.465 Q121.827 214.957 121.593 215.548 Q121.359 216.134 121.253 216.655 Q121.148 217.17 121.101 217.533 Q121.06 217.896 121.06 218.148 Q121.06 219.319 121.622 220.01 Q122.185 220.701 123.086 220.701 Q123.795 220.701 124.486 220.286 Q125.177 219.864 125.651 219.261 Q126.073 218.74 126.383 218.113 Q126.699 217.487 126.857 216.913 Q127.015 216.339 127.086 215.876 Q127.162 215.414 127.162 215.051 Z" fill="#000000" fill-rule="evenodd" fill-opacity="1" /><path clip-path="url(#clip060)" d="M 0 0 M128.999 217.75 Q128.999 215.724 129.754 214.09 Q130.076 213.405 130.527 212.831 Q130.978 212.257 131.277 212.006 Q131.575 211.754 131.657 211.754 Q131.774 211.754 131.78 211.871 Q131.78 211.93 131.622 212.076 Q129.69 214.043 129.696 217.75 Q129.696 221.468 131.575 223.36 Q131.78 223.565 131.78 223.629 Q131.78 223.746 131.657 223.746 Q131.575 223.746 131.288 223.506 Q131.001 223.266 130.556 222.716 Q130.111 222.165 129.789 221.492 Q128.999 219.858 128.999 217.75 Z" fill="#000000" fill-rule="evenodd" fill-opacity="1" /><path clip-path="url(#clip060)" d="M 0 0 M140.102 219.032 Q140.102 219.079 140.05 219.261 Q139.997 219.442 139.868 219.723 Q139.745 220.004 139.575 220.262 Q139.406 220.514 139.125 220.701 Q138.849 220.883 138.533 220.883 Q138.112 220.883 137.83 220.602 Q137.549 220.321 137.549 219.899 Q137.549 219.665 137.672 219.343 Q138.451 217.264 138.451 216.55 Q138.451 215.712 137.801 215.712 Q137.479 215.712 137.175 215.835 Q136.876 215.952 136.671 216.116 Q136.466 216.28 136.279 216.509 Q136.097 216.731 136.004 216.883 Q135.916 217.03 135.845 217.176 L135.693 217.773 Q135.658 217.937 135.488 218.576 L135.225 219.659 Q135.037 220.467 134.996 220.543 Q134.938 220.707 134.809 220.795 Q134.68 220.883 134.551 220.883 Q134.405 220.883 134.305 220.795 Q134.206 220.707 134.206 220.555 Q134.206 220.531 134.223 220.444 Q134.241 220.356 134.27 220.233 Q134.3 220.11 134.311 220.04 L135.008 217.27 Q135.137 216.766 135.166 216.608 Q135.201 216.444 135.201 216.263 Q135.201 215.712 134.827 215.712 Q134.522 215.712 134.323 216.075 Q134.124 216.438 133.954 217.141 Q133.901 217.334 133.866 217.375 Q133.837 217.416 133.749 217.416 Q133.603 217.41 133.603 217.293 Q133.603 217.264 133.65 217.071 Q133.696 216.878 133.784 216.602 Q133.878 216.321 133.966 216.134 Q134.042 215.993 134.083 215.929 Q134.13 215.859 134.241 215.724 Q134.358 215.583 134.51 215.519 Q134.668 215.449 134.862 215.449 Q135.295 215.449 135.611 215.73 Q135.927 216.005 135.968 216.491 Q136.747 215.449 137.836 215.449 Q138.48 215.449 138.849 215.788 Q139.218 216.128 139.218 216.731 Q139.218 216.872 139.189 217.053 Q139.166 217.229 139.107 217.451 Q139.054 217.674 139.007 217.844 Q138.961 218.014 138.867 218.289 Q138.773 218.558 138.732 218.675 Q138.691 218.792 138.592 219.068 Q138.498 219.337 138.486 219.366 Q138.27 219.911 138.27 220.221 Q138.27 220.426 138.334 220.52 Q138.404 220.613 138.557 220.613 Q138.966 220.613 139.271 220.209 Q139.581 219.8 139.78 219.132 Q139.827 218.986 139.851 218.95 Q139.88 218.915 139.962 218.915 Q140.102 218.915 140.102 219.032 Z" fill="#000000" fill-rule="evenodd" fill-opacity="1" /><path clip-path="url(#clip060)" d="M 0 0 M146.859 214.965 Q146.908 215.015 146.908 215.084 Q146.908 215.154 146.859 215.203 Q146.81 215.252 146.74 215.252 L141.485 215.252 Q141.415 215.252 141.366 215.203 Q141.317 215.154 141.317 215.084 Q141.317 215.015 141.366 214.965 Q141.415 214.916 141.485 214.916 L146.74 214.916 Q146.81 214.916 146.859 214.965 Z" fill="#000000" fill-rule="evenodd" fill-opacity="1" /><path clip-path="url(#clip060)" d="M 0 0 M147.783 217.183 Q147.783 217.031 147.795 216.986 Q147.812 216.941 147.877 216.871 L149.488 215.076 Q150.369 214.084 150.369 213.219 Q150.369 212.658 150.074 212.256 Q149.783 211.854 149.246 211.854 Q148.877 211.854 148.566 212.08 Q148.254 212.305 148.111 212.707 Q148.135 212.699 148.221 212.699 Q148.43 212.699 148.545 212.83 Q148.664 212.961 148.664 213.137 Q148.664 213.363 148.517 213.473 Q148.373 213.58 148.23 213.58 Q148.172 213.58 148.094 213.568 Q148.021 213.555 147.902 213.441 Q147.783 213.322 147.783 213.113 Q147.783 212.527 148.226 212.059 Q148.672 211.592 149.353 211.592 Q150.123 211.592 150.627 212.051 Q151.136 212.506 151.136 213.219 Q151.136 213.469 151.058 213.699 Q150.984 213.924 150.882 214.101 Q150.783 214.277 150.513 214.56 Q150.242 214.842 150.025 215.043 Q149.808 215.244 149.32 215.67 L148.43 216.535 L149.943 216.535 Q150.681 216.535 150.738 216.47 Q150.82 216.351 150.923 215.724 L151.136 215.724 L150.898 217.183 L147.783 217.183 Z" fill="#000000" fill-rule="evenodd" fill-opacity="1" /><path clip-path="url(#clip060)" d="M 0 0 M153.219 223.629 Q153.219 223.571 153.371 223.424 Q155.304 221.457 155.304 217.75 Q155.304 214.032 153.447 212.152 Q153.219 211.935 153.219 211.871 Q153.219 211.754 153.336 211.754 Q153.418 211.754 153.705 211.994 Q153.998 212.234 154.437 212.784 Q154.882 213.335 155.21 214.008 Q156 215.642 156 217.75 Q156 219.776 155.245 221.41 Q154.923 222.095 154.472 222.669 Q154.021 223.243 153.723 223.494 Q153.424 223.746 153.336 223.746 Q153.219 223.746 153.219 223.629 Z" fill="#000000" fill-rule="evenodd" fill-opacity="1" /><polyline clip-path="url(#clip060)" style="stroke:#c271d2; stroke-width:1; stroke-opacity:1; fill:none" stroke-dasharray="8, 5" points="
  89.0845,232.81 115.534,232.81 
  "/>
<path clip-path="url(#clip060)" d="M 0 0 M128.233 230.671 Q128.233 231.509 127.935 232.34 Q127.642 233.166 127.127 233.845 Q126.611 234.524 125.956 235.051 Q125.3 235.578 124.533 235.871 Q123.766 236.164 123.016 236.164 Q121.687 236.164 120.814 235.291 Q119.942 234.419 119.942 232.961 Q119.942 231.942 120.399 230.929 Q120.855 229.91 121.581 229.155 Q122.308 228.393 123.262 227.919 Q124.222 227.445 125.171 227.445 Q126.518 227.445 127.373 228.341 Q128.233 229.231 128.233 230.671 M127.162 230.203 Q127.162 229.559 126.98 229.073 Q126.799 228.581 126.494 228.3 Q126.196 228.019 125.838 227.884 Q125.487 227.743 125.101 227.743 Q124.351 227.743 123.549 228.229 Q122.747 228.715 122.149 229.617 Q121.827 230.109 121.593 230.7 Q121.359 231.286 121.253 231.807 Q121.148 232.322 121.101 232.686 Q121.06 233.049 121.06 233.3 Q121.06 234.472 121.622 235.162 Q122.185 235.853 123.086 235.853 Q123.795 235.853 124.486 235.438 Q125.177 235.016 125.651 234.413 Q126.073 233.892 126.383 233.265 Q126.699 232.639 126.857 232.065 Q127.015 231.491 127.086 231.028 Q127.162 230.566 127.162 230.203 Z" fill="#000000" fill-rule="evenodd" fill-opacity="1" /><path clip-path="url(#clip060)" d="M 0 0 M128.999 232.902 Q128.999 230.876 129.754 229.242 Q130.076 228.557 130.527 227.983 Q130.978 227.41 131.277 227.158 Q131.575 226.906 131.657 226.906 Q131.774 226.906 131.78 227.023 Q131.78 227.082 131.622 227.228 Q129.69 229.196 129.696 232.902 Q129.696 236.621 131.575 238.512 Q131.78 238.717 131.78 238.781 Q131.78 238.898 131.657 238.898 Q131.575 238.898 131.288 238.658 Q131.001 238.418 130.556 237.868 Q130.111 237.317 129.789 236.644 Q128.999 235.01 128.999 232.902 Z" fill="#000000" fill-rule="evenodd" fill-opacity="1" /><path clip-path="url(#clip060)" d="M 0 0 M140.102 234.185 Q140.102 234.231 140.05 234.413 Q139.997 234.594 139.868 234.876 Q139.745 235.157 139.575 235.414 Q139.406 235.666 139.125 235.853 Q138.849 236.035 138.533 236.035 Q138.112 236.035 137.83 235.754 Q137.549 235.473 137.549 235.051 Q137.549 234.817 137.672 234.495 Q138.451 232.416 138.451 231.702 Q138.451 230.864 137.801 230.864 Q137.479 230.864 137.175 230.987 Q136.876 231.105 136.671 231.268 Q136.466 231.432 136.279 231.661 Q136.097 231.883 136.004 232.036 Q135.916 232.182 135.845 232.328 L135.693 232.926 Q135.658 233.09 135.488 233.728 L135.225 234.811 Q135.037 235.619 134.996 235.695 Q134.938 235.859 134.809 235.947 Q134.68 236.035 134.551 236.035 Q134.405 236.035 134.305 235.947 Q134.206 235.859 134.206 235.707 Q134.206 235.684 134.223 235.596 Q134.241 235.508 134.27 235.385 Q134.3 235.262 134.311 235.192 L135.008 232.422 Q135.137 231.918 135.166 231.76 Q135.201 231.596 135.201 231.415 Q135.201 230.864 134.827 230.864 Q134.522 230.864 134.323 231.227 Q134.124 231.591 133.954 232.293 Q133.901 232.486 133.866 232.527 Q133.837 232.568 133.749 232.568 Q133.603 232.563 133.603 232.445 Q133.603 232.416 133.65 232.223 Q133.696 232.03 133.784 231.754 Q133.878 231.473 133.966 231.286 Q134.042 231.146 134.083 231.081 Q134.13 231.011 134.241 230.876 Q134.358 230.736 134.51 230.671 Q134.668 230.601 134.862 230.601 Q135.295 230.601 135.611 230.882 Q135.927 231.157 135.968 231.643 Q136.747 230.601 137.836 230.601 Q138.48 230.601 138.849 230.941 Q139.218 231.28 139.218 231.883 Q139.218 232.024 139.189 232.205 Q139.166 232.381 139.107 232.604 Q139.054 232.826 139.007 232.996 Q138.961 233.166 138.867 233.441 Q138.773 233.71 138.732 233.827 Q138.691 233.944 138.592 234.22 Q138.498 234.489 138.486 234.518 Q138.27 235.063 138.27 235.373 Q138.27 235.578 138.334 235.672 Q138.404 235.766 138.557 235.766 Q138.966 235.766 139.271 235.362 Q139.581 234.952 139.78 234.284 Q139.827 234.138 139.851 234.103 Q139.88 234.067 139.962 234.067 Q140.102 234.067 140.102 234.185 Z" fill="#000000" fill-rule="evenodd" fill-opacity="1" /><path clip-path="url(#clip060)" d="M 0 0 M146.859 230.145 Q146.908 230.194 146.908 230.264 Q146.908 230.334 146.859 230.383 Q146.81 230.432 146.74 230.432 L141.485 230.432 Q141.415 230.432 141.366 230.383 Q141.317 230.334 141.317 230.264 Q141.317 230.194 141.366 230.145 Q141.415 230.096 141.485 230.096 L146.74 230.096 Q146.81 230.096 146.859 230.145 Z" fill="#000000" fill-rule="evenodd" fill-opacity="1" /><path clip-path="url(#clip060)" d="M 0 0 M147.783 230.977 L147.783 230.719 L150.361 226.78 Q150.427 226.677 150.529 226.682 Q150.623 226.682 150.644 226.718 Q150.664 226.755 150.664 226.899 L150.664 230.719 L151.505 230.719 L151.505 230.977 L150.664 230.977 L150.664 231.707 Q150.664 231.949 150.763 232.027 Q150.865 232.104 151.3 232.104 L151.476 232.104 L151.476 232.363 Q151.132 232.338 150.336 232.338 Q149.545 232.338 149.201 232.363 L149.201 232.104 L149.377 232.104 Q149.812 232.104 149.914 232.031 Q150.017 231.953 150.017 231.707 L150.017 230.977 L147.783 230.977 M148.021 230.719 L150.066 230.719 L150.066 227.587 L148.021 230.719 Z" fill="#000000" fill-rule="evenodd" fill-opacity="1" /><path clip-path="url(#clip060)" d="M 0 0 M153.219 238.781 Q153.219 238.723 153.371 238.576 Q155.304 236.609 155.304 232.902 Q155.304 229.184 153.447 227.304 Q153.219 227.088 153.219 227.023 Q153.219 226.906 153.336 226.906 Q153.418 226.906 153.705 227.146 Q153.998 227.386 154.437 227.937 Q154.882 228.487 155.21 229.16 Q156 230.794 156 232.902 Q156 234.928 155.245 236.562 Q154.923 237.247 154.472 237.821 Q154.021 238.395 153.723 238.647 Q153.424 238.898 153.336 238.898 Q153.219 238.898 153.219 238.781 Z" fill="#000000" fill-rule="evenodd" fill-opacity="1" /></svg>
