<?xml version="1.0" encoding="utf-8"?>
<svg xmlns="http://www.w3.org/2000/svg" xmlns:xlink="http://www.w3.org/1999/xlink" width="500" height="320" viewBox="0 0 2000 1280">
<defs>
  <clipPath id="clip090">
    <rect x="0" y="0" width="2000" height="1280"/>
  </clipPath>
</defs>
<path clip-path="url(#clip090)" d="
M0 1280 L2000 1280 L2000 0 L0 0  Z
  " fill="#ffffff" fill-rule="evenodd" fill-opacity="1"/>
<defs>
  <clipPath id="clip091">
    <rect x="400" y="0" width="1401" height="1280"/>
  </clipPath>
</defs>
<path clip-path="url(#clip090)" d="
M212.436 1171.03 L1952.76 1171.03 L1952.76 107.256 L212.436 107.256  Z
  " fill="#ffffff" fill-rule="evenodd" fill-opacity="1"/>
<defs>
  <clipPath id="clip092">
    <rect x="212" y="107" width="1741" height="1065"/>
  </clipPath>
</defs>
<polyline clip-path="url(#clip092)" style="stroke:#000000; stroke-linecap:butt; stroke-linejoin:round; stroke-width:2; stroke-opacity:0.1; fill:none" points="
  261.69,1171.03 261.69,107.256 
  "/>
<polyline clip-path="url(#clip092)" style="stroke:#000000; stroke-linecap:butt; stroke-linejoin:round; stroke-width:2; stroke-opacity:0.1; fill:none" points="
  672.143,1171.03 672.143,107.256 
  "/>
<polyline clip-path="url(#clip092)" style="stroke:#000000; stroke-linecap:butt; stroke-linejoin:round; stroke-width:2; stroke-opacity:0.1; fill:none" points="
  1082.6,1171.03 1082.6,107.256 
  "/>
<polyline clip-path="url(#clip092)" style="stroke:#000000; stroke-linecap:butt; stroke-linejoin:round; stroke-width:2; stroke-opacity:0.1; fill:none" points="
  1493.05,1171.03 1493.05,107.256 
  "/>
<polyline clip-path="url(#clip092)" style="stroke:#000000; stroke-linecap:butt; stroke-linejoin:round; stroke-width:2; stroke-opacity:0.1; fill:none" points="
  1903.5,1171.03 1903.5,107.256 
  "/>
<polyline clip-path="url(#clip090)" style="stroke:#000000; stroke-linecap:butt; stroke-linejoin:round; stroke-width:4; stroke-opacity:1; fill:none" points="
  212.436,1171.03 1952.76,1171.03 
  "/>
<polyline clip-path="url(#clip090)" style="stroke:#000000; stroke-linecap:butt; stroke-linejoin:round; stroke-width:4; stroke-opacity:1; fill:none" points="
  261.69,1171.03 261.69,1158.26 
  "/>
<polyline clip-path="url(#clip090)" style="stroke:#000000; stroke-linecap:butt; stroke-linejoin:round; stroke-width:4; stroke-opacity:1; fill:none" points="
  672.143,1171.03 672.143,1158.26 
  "/>
<polyline clip-path="url(#clip090)" style="stroke:#000000; stroke-linecap:butt; stroke-linejoin:round; stroke-width:4; stroke-opacity:1; fill:none" points="
  1082.6,1171.03 1082.6,1158.26 
  "/>
<polyline clip-path="url(#clip090)" style="stroke:#000000; stroke-linecap:butt; stroke-linejoin:round; stroke-width:4; stroke-opacity:1; fill:none" points="
  1493.05,1171.03 1493.05,1158.26 
  "/>
<polyline clip-path="url(#clip090)" style="stroke:#000000; stroke-linecap:butt; stroke-linejoin:round; stroke-width:4; stroke-opacity:1; fill:none" points="
  1903.5,1171.03 1903.5,1158.26 
  "/>
<path clip-path="url(#clip090)" d="M208.218 1211.67 L237.894 1211.67 L237.894 1215.61 L208.218 1215.61 L208.218 1211.67 Z" fill="#000000" fill-rule="evenodd" fill-opacity="1" /><path clip-path="url(#clip090)" d="M248.797 1224.57 L256.436 1224.57 L256.436 1198.2 L248.125 1199.87 L248.125 1195.61 L256.389 1193.94 L261.065 1193.94 L261.065 1224.57 L268.704 1224.57 L268.704 1228.5 L248.797 1228.5 L248.797 1224.57 Z" fill="#000000" fill-rule="evenodd" fill-opacity="1" /><path clip-path="url(#clip090)" d="M278.148 1222.62 L283.033 1222.62 L283.033 1228.5 L278.148 1228.5 L278.148 1222.62 Z" fill="#000000" fill-rule="evenodd" fill-opacity="1" /><path clip-path="url(#clip090)" d="M303.218 1197.02 Q299.607 1197.02 297.778 1200.59 Q295.972 1204.13 295.972 1211.26 Q295.972 1218.36 297.778 1221.93 Q299.607 1225.47 303.218 1225.47 Q306.852 1225.47 308.658 1221.93 Q310.486 1218.36 310.486 1211.26 Q310.486 1204.13 308.658 1200.59 Q306.852 1197.02 303.218 1197.02 M303.218 1193.32 Q309.028 1193.32 312.083 1197.92 Q315.162 1202.51 315.162 1211.26 Q315.162 1219.98 312.083 1224.59 Q309.028 1229.17 303.218 1229.17 Q297.408 1229.17 294.329 1224.59 Q291.273 1219.98 291.273 1211.26 Q291.273 1202.51 294.329 1197.92 Q297.408 1193.32 303.218 1193.32 Z" fill="#000000" fill-rule="evenodd" fill-opacity="1" /><path clip-path="url(#clip090)" d="M619.169 1211.67 L648.845 1211.67 L648.845 1215.61 L619.169 1215.61 L619.169 1211.67 Z" fill="#000000" fill-rule="evenodd" fill-opacity="1" /><path clip-path="url(#clip090)" d="M668.937 1197.02 Q665.326 1197.02 663.497 1200.59 Q661.692 1204.13 661.692 1211.26 Q661.692 1218.36 663.497 1221.93 Q665.326 1225.47 668.937 1225.47 Q672.571 1225.47 674.377 1221.93 Q676.206 1218.36 676.206 1211.26 Q676.206 1204.13 674.377 1200.59 Q672.571 1197.02 668.937 1197.02 M668.937 1193.32 Q674.747 1193.32 677.803 1197.92 Q680.881 1202.51 680.881 1211.26 Q680.881 1219.98 677.803 1224.59 Q674.747 1229.17 668.937 1229.17 Q663.127 1229.17 660.048 1224.59 Q656.993 1219.98 656.993 1211.26 Q656.993 1202.51 660.048 1197.92 Q663.127 1193.32 668.937 1193.32 Z" fill="#000000" fill-rule="evenodd" fill-opacity="1" /><path clip-path="url(#clip090)" d="M689.099 1222.62 L693.983 1222.62 L693.983 1228.5 L689.099 1228.5 L689.099 1222.62 Z" fill="#000000" fill-rule="evenodd" fill-opacity="1" /><path clip-path="url(#clip090)" d="M704.215 1193.94 L722.571 1193.94 L722.571 1197.88 L708.497 1197.88 L708.497 1206.35 Q709.516 1206 710.534 1205.84 Q711.553 1205.66 712.571 1205.66 Q718.358 1205.66 721.738 1208.83 Q725.117 1212 725.117 1217.41 Q725.117 1222.99 721.645 1226.09 Q718.173 1229.17 711.853 1229.17 Q709.678 1229.17 707.409 1228.8 Q705.164 1228.43 702.756 1227.69 L702.756 1222.99 Q704.84 1224.13 707.062 1224.68 Q709.284 1225.24 711.761 1225.24 Q715.766 1225.24 718.103 1223.13 Q720.441 1221.03 720.441 1217.41 Q720.441 1213.8 718.103 1211.7 Q715.766 1209.59 711.761 1209.59 Q709.886 1209.59 708.011 1210.01 Q706.159 1210.42 704.215 1211.3 L704.215 1193.94 Z" fill="#000000" fill-rule="evenodd" fill-opacity="1" /><path clip-path="url(#clip090)" d="M1059.98 1197.02 Q1056.37 1197.02 1054.54 1200.59 Q1052.73 1204.13 1052.73 1211.26 Q1052.73 1218.36 1054.54 1221.93 Q1056.37 1225.47 1059.98 1225.47 Q1063.61 1225.47 1065.42 1221.93 Q1067.25 1218.36 1067.25 1211.26 Q1067.25 1204.13 1065.42 1200.59 Q1063.61 1197.02 1059.98 1197.02 M1059.98 1193.32 Q1065.79 1193.32 1068.85 1197.92 Q1071.92 1202.51 1071.92 1211.26 Q1071.92 1219.98 1068.85 1224.59 Q1065.79 1229.17 1059.98 1229.17 Q1054.17 1229.17 1051.09 1224.59 Q1048.04 1219.98 1048.04 1211.26 Q1048.04 1202.51 1051.09 1197.92 Q1054.17 1193.32 1059.98 1193.32 Z" fill="#000000" fill-rule="evenodd" fill-opacity="1" /><path clip-path="url(#clip090)" d="M1080.14 1222.62 L1085.03 1222.62 L1085.03 1228.5 L1080.14 1228.5 L1080.14 1222.62 Z" fill="#000000" fill-rule="evenodd" fill-opacity="1" /><path clip-path="url(#clip090)" d="M1105.21 1197.02 Q1101.6 1197.02 1099.77 1200.59 Q1097.97 1204.13 1097.97 1211.26 Q1097.97 1218.36 1099.77 1221.93 Q1101.6 1225.47 1105.21 1225.47 Q1108.85 1225.47 1110.65 1221.93 Q1112.48 1218.36 1112.48 1211.26 Q1112.48 1204.13 1110.65 1200.59 Q1108.85 1197.02 1105.21 1197.02 M1105.21 1193.32 Q1111.02 1193.32 1114.08 1197.92 Q1117.16 1202.51 1117.16 1211.26 Q1117.16 1219.98 1114.08 1224.59 Q1111.02 1229.17 1105.21 1229.17 Q1099.4 1229.17 1096.32 1224.59 Q1093.27 1219.98 1093.27 1211.26 Q1093.27 1202.51 1096.32 1197.92 Q1099.4 1193.32 1105.21 1193.32 Z" fill="#000000" fill-rule="evenodd" fill-opacity="1" /><path clip-path="url(#clip090)" d="M1470.93 1197.02 Q1467.32 1197.02 1465.49 1200.59 Q1463.69 1204.13 1463.69 1211.26 Q1463.69 1218.36 1465.49 1221.93 Q1467.32 1225.47 1470.93 1225.47 Q1474.57 1225.47 1476.37 1221.93 Q1478.2 1218.36 1478.2 1211.26 Q1478.2 1204.13 1476.37 1200.59 Q1474.57 1197.02 1470.93 1197.02 M1470.93 1193.32 Q1476.74 1193.32 1479.8 1197.92 Q1482.88 1202.51 1482.88 1211.26 Q1482.88 1219.98 1479.8 1224.59 Q1476.74 1229.17 1470.93 1229.17 Q1465.12 1229.17 1462.04 1224.59 Q1458.99 1219.98 1458.99 1211.26 Q1458.99 1202.51 1462.04 1197.92 Q1465.12 1193.32 1470.93 1193.32 Z" fill="#000000" fill-rule="evenodd" fill-opacity="1" /><path clip-path="url(#clip090)" d="M1491.09 1222.62 L1495.98 1222.62 L1495.98 1228.5 L1491.09 1228.5 L1491.09 1222.62 Z" fill="#000000" fill-rule="evenodd" fill-opacity="1" /><path clip-path="url(#clip090)" d="M1506.21 1193.94 L1524.56 1193.94 L1524.56 1197.88 L1510.49 1197.88 L1510.49 1206.35 Q1511.51 1206 1512.53 1205.84 Q1513.55 1205.66 1514.56 1205.66 Q1520.35 1205.66 1523.73 1208.83 Q1527.11 1212 1527.11 1217.41 Q1527.11 1222.99 1523.64 1226.09 Q1520.17 1229.17 1513.85 1229.17 Q1511.67 1229.17 1509.4 1228.8 Q1507.16 1228.43 1504.75 1227.69 L1504.75 1222.99 Q1506.83 1224.13 1509.06 1224.68 Q1511.28 1225.24 1513.75 1225.24 Q1517.76 1225.24 1520.1 1223.13 Q1522.44 1221.03 1522.44 1217.41 Q1522.44 1213.8 1520.1 1211.7 Q1517.76 1209.59 1513.75 1209.59 Q1511.88 1209.59 1510 1210.01 Q1508.15 1210.42 1506.21 1211.3 L1506.21 1193.94 Z" fill="#000000" fill-rule="evenodd" fill-opacity="1" /><path clip-path="url(#clip090)" d="M1870.65 1224.57 L1878.29 1224.57 L1878.29 1198.2 L1869.98 1199.87 L1869.98 1195.61 L1878.25 1193.94 L1882.92 1193.94 L1882.92 1224.57 L1890.56 1224.57 L1890.56 1228.5 L1870.65 1228.5 L1870.65 1224.57 Z" fill="#000000" fill-rule="evenodd" fill-opacity="1" /><path clip-path="url(#clip090)" d="M1900.01 1222.62 L1904.89 1222.62 L1904.89 1228.5 L1900.01 1228.5 L1900.01 1222.62 Z" fill="#000000" fill-rule="evenodd" fill-opacity="1" /><path clip-path="url(#clip090)" d="M1925.08 1197.02 Q1921.46 1197.02 1919.64 1200.59 Q1917.83 1204.13 1917.83 1211.26 Q1917.83 1218.36 1919.64 1221.93 Q1921.46 1225.47 1925.08 1225.47 Q1928.71 1225.47 1930.52 1221.93 Q1932.34 1218.36 1932.34 1211.26 Q1932.34 1204.13 1930.52 1200.59 Q1928.71 1197.02 1925.08 1197.02 M1925.08 1193.32 Q1930.89 1193.32 1933.94 1197.92 Q1937.02 1202.51 1937.02 1211.26 Q1937.02 1219.98 1933.94 1224.59 Q1930.89 1229.17 1925.08 1229.17 Q1919.27 1229.17 1916.19 1224.59 Q1913.13 1219.98 1913.13 1211.26 Q1913.13 1202.51 1916.19 1197.92 Q1919.27 1193.32 1925.08 1193.32 Z" fill="#000000" fill-rule="evenodd" fill-opacity="1" /><polyline clip-path="url(#clip092)" style="stroke:#000000; stroke-linecap:butt; stroke-linejoin:round; stroke-width:2; stroke-opacity:0.1; fill:none" points="
  212.436,1092.75 1952.76,1092.75 
  "/>
<polyline clip-path="url(#clip092)" style="stroke:#000000; stroke-linecap:butt; stroke-linejoin:round; stroke-width:2; stroke-opacity:0.1; fill:none" points="
  212.436,819.776 1952.76,819.776 
  "/>
<polyline clip-path="url(#clip092)" style="stroke:#000000; stroke-linecap:butt; stroke-linejoin:round; stroke-width:2; stroke-opacity:0.1; fill:none" points="
  212.436,546.8 1952.76,546.8 
  "/>
<polyline clip-path="url(#clip092)" style="stroke:#000000; stroke-linecap:butt; stroke-linejoin:round; stroke-width:2; stroke-opacity:0.1; fill:none" points="
  212.436,273.825 1952.76,273.825 
  "/>
<polyline clip-path="url(#clip090)" style="stroke:#000000; stroke-linecap:butt; stroke-linejoin:round; stroke-width:4; stroke-opacity:1; fill:none" points="
  212.436,1171.03 212.436,107.256 
  "/>
<polyline clip-path="url(#clip090)" style="stroke:#000000; stroke-linecap:butt; stroke-linejoin:round; stroke-width:4; stroke-opacity:1; fill:none" points="
  212.436,1092.75 233.32,1092.75 
  "/>
<polyline clip-path="url(#clip090)" style="stroke:#000000; stroke-linecap:butt; stroke-linejoin:round; stroke-width:4; stroke-opacity:1; fill:none" points="
  212.436,819.776 233.32,819.776 
  "/>
<polyline clip-path="url(#clip090)" style="stroke:#000000; stroke-linecap:butt; stroke-linejoin:round; stroke-width:4; stroke-opacity:1; fill:none" points="
  212.436,546.8 233.32,546.8 
  "/>
<polyline clip-path="url(#clip090)" style="stroke:#000000; stroke-linecap:butt; stroke-linejoin:round; stroke-width:4; stroke-opacity:1; fill:none" points="
  212.436,273.825 233.32,273.825 
  "/>
<path clip-path="url(#clip090)" d="M65.1217 1078.55 Q61.5106 1078.55 59.6819 1082.11 Q57.8764 1085.66 57.8764 1092.79 Q57.8764 1099.89 59.6819 1103.46 Q61.5106 1107 65.1217 1107 Q68.7559 1107 70.5615 1103.46 Q72.3902 1099.89 72.3902 1092.79 Q72.3902 1085.66 70.5615 1082.11 Q68.7559 1078.55 65.1217 1078.55 M65.1217 1074.85 Q70.9318 1074.85 73.9874 1079.45 Q77.0661 1084.04 77.0661 1092.79 Q77.0661 1101.51 73.9874 1106.12 Q70.9318 1110.7 65.1217 1110.7 Q59.3115 1110.7 56.2328 1106.12 Q53.1773 1101.51 53.1773 1092.79 Q53.1773 1084.04 56.2328 1079.45 Q59.3115 1074.85 65.1217 1074.85 Z" fill="#000000" fill-rule="evenodd" fill-opacity="1" /><path clip-path="url(#clip090)" d="M85.2836 1104.15 L90.1679 1104.15 L90.1679 1110.03 L85.2836 1110.03 L85.2836 1104.15 Z" fill="#000000" fill-rule="evenodd" fill-opacity="1" /><path clip-path="url(#clip090)" d="M110.353 1078.55 Q106.742 1078.55 104.913 1082.11 Q103.108 1085.66 103.108 1092.79 Q103.108 1099.89 104.913 1103.46 Q106.742 1107 110.353 1107 Q113.987 1107 115.793 1103.46 Q117.621 1099.89 117.621 1092.79 Q117.621 1085.66 115.793 1082.11 Q113.987 1078.55 110.353 1078.55 M110.353 1074.85 Q116.163 1074.85 119.219 1079.45 Q122.297 1084.04 122.297 1092.79 Q122.297 1101.51 119.219 1106.12 Q116.163 1110.7 110.353 1110.7 Q104.543 1110.7 101.464 1106.12 Q98.4085 1101.51 98.4085 1092.79 Q98.4085 1084.04 101.464 1079.45 Q104.543 1074.85 110.353 1074.85 Z" fill="#000000" fill-rule="evenodd" fill-opacity="1" /><path clip-path="url(#clip090)" d="M130.561 1075.47 L148.918 1075.47 L148.918 1079.41 L134.844 1079.41 L134.844 1087.88 Q135.862 1087.53 136.881 1087.37 Q137.899 1087.18 138.918 1087.18 Q144.705 1087.18 148.084 1090.36 Q151.464 1093.53 151.464 1098.94 Q151.464 1104.52 147.992 1107.62 Q144.519 1110.7 138.2 1110.7 Q136.024 1110.7 133.756 1110.33 Q131.51 1109.96 129.103 1109.22 L129.103 1104.52 Q131.186 1105.66 133.408 1106.21 Q135.631 1106.77 138.107 1106.77 Q142.112 1106.77 144.45 1104.66 Q146.788 1102.55 146.788 1098.94 Q146.788 1095.33 144.45 1093.23 Q142.112 1091.12 138.107 1091.12 Q136.232 1091.12 134.357 1091.54 Q132.506 1091.95 130.561 1092.83 L130.561 1075.47 Z" fill="#000000" fill-rule="evenodd" fill-opacity="1" /><path clip-path="url(#clip090)" d="M160.816 1109.31 L160.816 1105.05 Q162.575 1105.89 164.38 1106.33 Q166.186 1106.77 167.922 1106.77 Q172.552 1106.77 174.982 1103.67 Q177.436 1100.54 177.783 1094.2 Q176.441 1096.19 174.38 1097.25 Q172.32 1098.32 169.82 1098.32 Q164.635 1098.32 161.603 1095.19 Q158.593 1092.05 158.593 1086.61 Q158.593 1081.28 161.742 1078.06 Q164.89 1074.85 170.121 1074.85 Q176.116 1074.85 179.265 1079.45 Q182.436 1084.04 182.436 1092.79 Q182.436 1100.96 178.547 1105.84 Q174.681 1110.7 168.13 1110.7 Q166.371 1110.7 164.566 1110.36 Q162.76 1110.01 160.816 1109.31 M170.121 1094.66 Q173.269 1094.66 175.098 1092.51 Q176.95 1090.36 176.95 1086.61 Q176.95 1082.88 175.098 1080.73 Q173.269 1078.55 170.121 1078.55 Q166.973 1078.55 165.121 1080.73 Q163.292 1082.88 163.292 1086.61 Q163.292 1090.36 165.121 1092.51 Q166.973 1094.66 170.121 1094.66 Z" fill="#000000" fill-rule="evenodd" fill-opacity="1" /><path clip-path="url(#clip090)" d="M64.9365 805.574 Q61.3254 805.574 59.4967 809.139 Q57.6912 812.681 57.6912 819.81 Q57.6912 826.917 59.4967 830.482 Q61.3254 834.023 64.9365 834.023 Q68.5707 834.023 70.3763 830.482 Q72.205 826.917 72.205 819.81 Q72.205 812.681 70.3763 809.139 Q68.5707 805.574 64.9365 805.574 M64.9365 801.871 Q70.7467 801.871 73.8022 806.477 Q76.8809 811.06 76.8809 819.81 Q76.8809 828.537 73.8022 833.144 Q70.7467 837.727 64.9365 837.727 Q59.1264 837.727 56.0477 833.144 Q52.9921 828.537 52.9921 819.81 Q52.9921 811.06 56.0477 806.477 Q59.1264 801.871 64.9365 801.871 Z" fill="#000000" fill-rule="evenodd" fill-opacity="1" /><path clip-path="url(#clip090)" d="M85.0984 831.176 L89.9827 831.176 L89.9827 837.056 L85.0984 837.056 L85.0984 831.176 Z" fill="#000000" fill-rule="evenodd" fill-opacity="1" /><path clip-path="url(#clip090)" d="M110.168 805.574 Q106.557 805.574 104.728 809.139 Q102.922 812.681 102.922 819.81 Q102.922 826.917 104.728 830.482 Q106.557 834.023 110.168 834.023 Q113.802 834.023 115.608 830.482 Q117.436 826.917 117.436 819.81 Q117.436 812.681 115.608 809.139 Q113.802 805.574 110.168 805.574 M110.168 801.871 Q115.978 801.871 119.033 806.477 Q122.112 811.06 122.112 819.81 Q122.112 828.537 119.033 833.144 Q115.978 837.727 110.168 837.727 Q104.358 837.727 101.279 833.144 Q98.2234 828.537 98.2234 819.81 Q98.2234 811.06 101.279 806.477 Q104.358 801.871 110.168 801.871 Z" fill="#000000" fill-rule="evenodd" fill-opacity="1" /><path clip-path="url(#clip090)" d="M140.908 817.912 Q137.76 817.912 135.908 820.065 Q134.08 822.218 134.08 825.968 Q134.08 829.695 135.908 831.871 Q137.76 834.023 140.908 834.023 Q144.056 834.023 145.885 831.871 Q147.737 829.695 147.737 825.968 Q147.737 822.218 145.885 820.065 Q144.056 817.912 140.908 817.912 M150.191 803.26 L150.191 807.519 Q148.431 806.685 146.626 806.246 Q144.843 805.806 143.084 805.806 Q138.455 805.806 136.001 808.931 Q133.57 812.056 133.223 818.375 Q134.589 816.361 136.649 815.297 Q138.709 814.209 141.186 814.209 Q146.394 814.209 149.404 817.38 Q152.436 820.528 152.436 825.968 Q152.436 831.292 149.288 834.509 Q146.14 837.727 140.908 837.727 Q134.913 837.727 131.742 833.144 Q128.57 828.537 128.57 819.81 Q128.57 811.616 132.459 806.755 Q136.348 801.871 142.899 801.871 Q144.658 801.871 146.441 802.218 Q148.246 802.565 150.191 803.26 Z" fill="#000000" fill-rule="evenodd" fill-opacity="1" /><path clip-path="url(#clip090)" d="M170.491 805.574 Q166.88 805.574 165.052 809.139 Q163.246 812.681 163.246 819.81 Q163.246 826.917 165.052 830.482 Q166.88 834.023 170.491 834.023 Q174.126 834.023 175.931 830.482 Q177.76 826.917 177.76 819.81 Q177.76 812.681 175.931 809.139 Q174.126 805.574 170.491 805.574 M170.491 801.871 Q176.302 801.871 179.357 806.477 Q182.436 811.06 182.436 819.81 Q182.436 828.537 179.357 833.144 Q176.302 837.727 170.491 837.727 Q164.681 837.727 161.603 833.144 Q158.547 828.537 158.547 819.81 Q158.547 811.06 161.603 806.477 Q164.681 801.871 170.491 801.871 Z" fill="#000000" fill-rule="evenodd" fill-opacity="1" /><path clip-path="url(#clip090)" d="M66.1634 532.599 Q62.5523 532.599 60.7236 536.164 Q58.918 539.705 58.918 546.835 Q58.918 553.941 60.7236 557.506 Q62.5523 561.048 66.1634 561.048 Q69.7976 561.048 71.6031 557.506 Q73.4318 553.941 73.4318 546.835 Q73.4318 539.705 71.6031 536.164 Q69.7976 532.599 66.1634 532.599 M66.1634 528.895 Q71.9735 528.895 75.029 533.502 Q78.1077 538.085 78.1077 546.835 Q78.1077 555.562 75.029 560.168 Q71.9735 564.751 66.1634 564.751 Q60.3532 564.751 57.2745 560.168 Q54.219 555.562 54.219 546.835 Q54.219 538.085 57.2745 533.502 Q60.3532 528.895 66.1634 528.895 Z" fill="#000000" fill-rule="evenodd" fill-opacity="1" /><path clip-path="url(#clip090)" d="M86.3253 558.201 L91.2095 558.201 L91.2095 564.08 L86.3253 564.08 L86.3253 558.201 Z" fill="#000000" fill-rule="evenodd" fill-opacity="1" /><path clip-path="url(#clip090)" d="M111.395 532.599 Q107.783 532.599 105.955 536.164 Q104.149 539.705 104.149 546.835 Q104.149 553.941 105.955 557.506 Q107.783 561.048 111.395 561.048 Q115.029 561.048 116.834 557.506 Q118.663 553.941 118.663 546.835 Q118.663 539.705 116.834 536.164 Q115.029 532.599 111.395 532.599 M111.395 528.895 Q117.205 528.895 120.26 533.502 Q123.339 538.085 123.339 546.835 Q123.339 555.562 120.26 560.168 Q117.205 564.751 111.395 564.751 Q105.584 564.751 102.506 560.168 Q99.4502 555.562 99.4502 546.835 Q99.4502 538.085 102.506 533.502 Q105.584 528.895 111.395 528.895 Z" fill="#000000" fill-rule="evenodd" fill-opacity="1" /><path clip-path="url(#clip090)" d="M142.135 544.937 Q138.987 544.937 137.135 547.089 Q135.306 549.242 135.306 552.992 Q135.306 556.719 137.135 558.895 Q138.987 561.048 142.135 561.048 Q145.283 561.048 147.112 558.895 Q148.964 556.719 148.964 552.992 Q148.964 549.242 147.112 547.089 Q145.283 544.937 142.135 544.937 M151.418 530.284 L151.418 534.543 Q149.658 533.71 147.853 533.27 Q146.07 532.83 144.311 532.83 Q139.681 532.83 137.228 535.955 Q134.797 539.08 134.45 545.4 Q135.816 543.386 137.876 542.321 Q139.936 541.233 142.413 541.233 Q147.621 541.233 150.63 544.404 Q153.663 547.552 153.663 552.992 Q153.663 558.316 150.515 561.534 Q147.367 564.751 142.135 564.751 Q136.14 564.751 132.969 560.168 Q129.797 555.562 129.797 546.835 Q129.797 538.64 133.686 533.779 Q137.575 528.895 144.126 528.895 Q145.885 528.895 147.668 529.242 Q149.473 529.59 151.418 530.284 Z" fill="#000000" fill-rule="evenodd" fill-opacity="1" /><path clip-path="url(#clip090)" d="M162.529 560.145 L170.167 560.145 L170.167 533.779 L161.857 535.446 L161.857 531.187 L170.121 529.52 L174.797 529.52 L174.797 560.145 L182.436 560.145 L182.436 564.08 L162.529 564.08 L162.529 560.145 Z" fill="#000000" fill-rule="evenodd" fill-opacity="1" /><path clip-path="url(#clip090)" d="M66.5337 259.623 Q62.9226 259.623 61.0939 263.188 Q59.2884 266.73 59.2884 273.859 Q59.2884 280.966 61.0939 284.53 Q62.9226 288.072 66.5337 288.072 Q70.168 288.072 71.9735 284.53 Q73.8022 280.966 73.8022 273.859 Q73.8022 266.73 71.9735 263.188 Q70.168 259.623 66.5337 259.623 M66.5337 255.92 Q72.3439 255.92 75.3994 260.526 Q78.4781 265.109 78.4781 273.859 Q78.4781 282.586 75.3994 287.193 Q72.3439 291.776 66.5337 291.776 Q60.7236 291.776 57.6449 287.193 Q54.5893 282.586 54.5893 273.859 Q54.5893 265.109 57.6449 260.526 Q60.7236 255.92 66.5337 255.92 Z" fill="#000000" fill-rule="evenodd" fill-opacity="1" /><path clip-path="url(#clip090)" d="M86.6956 285.225 L91.5799 285.225 L91.5799 291.105 L86.6956 291.105 L86.6956 285.225 Z" fill="#000000" fill-rule="evenodd" fill-opacity="1" /><path clip-path="url(#clip090)" d="M111.765 259.623 Q108.154 259.623 106.325 263.188 Q104.52 266.73 104.52 273.859 Q104.52 280.966 106.325 284.53 Q108.154 288.072 111.765 288.072 Q115.399 288.072 117.205 284.53 Q119.033 280.966 119.033 273.859 Q119.033 266.73 117.205 263.188 Q115.399 259.623 111.765 259.623 M111.765 255.92 Q117.575 255.92 120.631 260.526 Q123.709 265.109 123.709 273.859 Q123.709 282.586 120.631 287.193 Q117.575 291.776 111.765 291.776 Q105.955 291.776 102.876 287.193 Q99.8206 282.586 99.8206 273.859 Q99.8206 265.109 102.876 260.526 Q105.955 255.92 111.765 255.92 Z" fill="#000000" fill-rule="evenodd" fill-opacity="1" /><path clip-path="url(#clip090)" d="M142.506 271.961 Q139.357 271.961 137.506 274.114 Q135.677 276.267 135.677 280.017 Q135.677 283.743 137.506 285.919 Q139.357 288.072 142.506 288.072 Q145.654 288.072 147.482 285.919 Q149.334 283.743 149.334 280.017 Q149.334 276.267 147.482 274.114 Q145.654 271.961 142.506 271.961 M151.788 257.308 L151.788 261.568 Q150.029 260.734 148.223 260.295 Q146.441 259.855 144.681 259.855 Q140.052 259.855 137.598 262.98 Q135.168 266.105 134.82 272.424 Q136.186 270.41 138.246 269.345 Q140.306 268.257 142.783 268.257 Q147.992 268.257 151.001 271.429 Q154.033 274.577 154.033 280.017 Q154.033 285.341 150.885 288.558 Q147.737 291.776 142.506 291.776 Q136.51 291.776 133.339 287.193 Q130.168 282.586 130.168 273.859 Q130.168 265.665 134.057 260.804 Q137.945 255.92 144.496 255.92 Q146.256 255.92 148.038 256.267 Q149.843 256.614 151.788 257.308 Z" fill="#000000" fill-rule="evenodd" fill-opacity="1" /><path clip-path="url(#clip090)" d="M166.117 287.169 L182.436 287.169 L182.436 291.105 L160.492 291.105 L160.492 287.169 Q163.154 284.415 167.737 279.785 Q172.343 275.132 173.524 273.79 Q175.769 271.267 176.649 269.531 Q177.552 267.771 177.552 266.082 Q177.552 263.327 175.607 261.591 Q173.686 259.855 170.584 259.855 Q168.385 259.855 165.931 260.619 Q163.501 261.382 160.723 262.933 L160.723 258.211 Q163.547 257.077 166.001 256.498 Q168.454 255.92 170.491 255.92 Q175.862 255.92 179.056 258.605 Q182.251 261.29 182.251 265.781 Q182.251 267.91 181.441 269.831 Q180.653 271.73 178.547 274.322 Q177.968 274.993 174.866 278.211 Q171.765 281.406 166.117 287.169 Z" fill="#000000" fill-rule="evenodd" fill-opacity="1" /><g clip-path="url(#clip090)">
<text style="fill:#000000; fill-opacity:1; font-family:Arial,Helvetica Neue,Helvetica,sans-serif; font-size:66px; text-anchor:middle;" transform="rotate(0, 1082.6, 57.6)" x="1082.6" y="57.6">Test function</text>
</g>
<polyline clip-path="url(#clip092)" style="stroke:#009af9; stroke-linecap:butt; stroke-linejoin:round; stroke-width:8; stroke-opacity:1; fill:none" points="
  261.69,1140.92 277.724,1104.3 425.978,793.323 470.525,710.221 515.072,632.196 552.737,570.304 590.401,512.243 631.315,453.612 672.228,399.706 709.947,354.276 
  747.666,313.012 788.105,273.469 828.544,238.857 875.396,205 922.248,177.924 963.885,159.606 1005.52,146.731 1042.03,139.94 1078.54,137.363 1118.35,139.359 
  1158.16,146.367 1198.2,158.459 1238.25,175.587 1282.52,200.349 1326.8,231.177 1368.92,266.08 1411.05,306.347 1454.85,353.819 1498.65,406.908 1535.52,455.873 
  1572.39,508.671 1617.4,578.219 1662.42,653.223 1704.73,728.564 1747.05,808.455 1814.84,945.567 1882.64,1093.38 1893.07,1117.03 1903.5,1140.92 
  "/>
</svg>
