<?xml version="1.0" encoding="utf-8"?>
<svg xmlns="http://www.w3.org/2000/svg" xmlns:xlink="http://www.w3.org/1999/xlink" width="500" height="320" viewBox="0 0 2000 1280">
<defs>
  <clipPath id="clip970">
    <rect x="0" y="0" width="2000" height="1280"/>
  </clipPath>
</defs>
<path clip-path="url(#clip970)" d="
M0 1280 L2000 1280 L2000 0 L0 0  Z
  " fill="#ffffff" fill-rule="evenodd" fill-opacity="1"/>
<defs>
  <clipPath id="clip971">
    <rect x="400" y="0" width="1401" height="1280"/>
  </clipPath>
</defs>
<path clip-path="url(#clip970)" d="
M189.936 1171.03 L1952.76 1171.03 L1952.76 107.256 L189.936 107.256  Z
  " fill="#ffffff" fill-rule="evenodd" fill-opacity="1"/>
<defs>
  <clipPath id="clip972">
    <rect x="189" y="107" width="1764" height="1065"/>
  </clipPath>
</defs>
<polyline clip-path="url(#clip972)" style="stroke:#000000; stroke-linecap:butt; stroke-linejoin:round; stroke-width:2; stroke-opacity:0.1; fill:none" points="
  239.827,1171.03 239.827,107.256 
  "/>
<polyline clip-path="url(#clip972)" style="stroke:#000000; stroke-linecap:butt; stroke-linejoin:round; stroke-width:2; stroke-opacity:0.1; fill:none" points="
  655.587,1171.03 655.587,107.256 
  "/>
<polyline clip-path="url(#clip972)" style="stroke:#000000; stroke-linecap:butt; stroke-linejoin:round; stroke-width:2; stroke-opacity:0.1; fill:none" points="
  1071.35,1171.03 1071.35,107.256 
  "/>
<polyline clip-path="url(#clip972)" style="stroke:#000000; stroke-linecap:butt; stroke-linejoin:round; stroke-width:2; stroke-opacity:0.1; fill:none" points="
  1487.11,1171.03 1487.11,107.256 
  "/>
<polyline clip-path="url(#clip972)" style="stroke:#000000; stroke-linecap:butt; stroke-linejoin:round; stroke-width:2; stroke-opacity:0.1; fill:none" points="
  1902.86,1171.03 1902.86,107.256 
  "/>
<polyline clip-path="url(#clip970)" style="stroke:#000000; stroke-linecap:butt; stroke-linejoin:round; stroke-width:4; stroke-opacity:1; fill:none" points="
  189.936,1171.03 1952.76,1171.03 
  "/>
<polyline clip-path="url(#clip970)" style="stroke:#000000; stroke-linecap:butt; stroke-linejoin:round; stroke-width:4; stroke-opacity:1; fill:none" points="
  239.827,1171.03 239.827,1158.26 
  "/>
<polyline clip-path="url(#clip970)" style="stroke:#000000; stroke-linecap:butt; stroke-linejoin:round; stroke-width:4; stroke-opacity:1; fill:none" points="
  655.587,1171.03 655.587,1158.26 
  "/>
<polyline clip-path="url(#clip970)" style="stroke:#000000; stroke-linecap:butt; stroke-linejoin:round; stroke-width:4; stroke-opacity:1; fill:none" points="
  1071.35,1171.03 1071.35,1158.26 
  "/>
<polyline clip-path="url(#clip970)" style="stroke:#000000; stroke-linecap:butt; stroke-linejoin:round; stroke-width:4; stroke-opacity:1; fill:none" points="
  1487.11,1171.03 1487.11,1158.26 
  "/>
<polyline clip-path="url(#clip970)" style="stroke:#000000; stroke-linecap:butt; stroke-linejoin:round; stroke-width:4; stroke-opacity:1; fill:none" points="
  1902.86,1171.03 1902.86,1158.26 
  "/>
<path clip-path="url(#clip970)" d="M202.131 1197.02 Q198.519 1197.02 196.691 1200.59 Q194.885 1204.13 194.885 1211.26 Q194.885 1218.36 196.691 1221.93 Q198.519 1225.47 202.131 1225.47 Q205.765 1225.47 207.57 1221.93 Q209.399 1218.36 209.399 1211.26 Q209.399 1204.13 207.57 1200.59 Q205.765 1197.02 202.131 1197.02 M202.131 1193.32 Q207.941 1193.32 210.996 1197.92 Q214.075 1202.51 214.075 1211.26 Q214.075 1219.98 210.996 1224.59 Q207.941 1229.17 202.131 1229.17 Q196.32 1229.17 193.242 1224.59 Q190.186 1219.98 190.186 1211.26 Q190.186 1202.51 193.242 1197.92 Q196.32 1193.32 202.131 1193.32 Z" fill="#000000" fill-rule="evenodd" fill-opacity="1" /><path clip-path="url(#clip970)" d="M222.292 1222.62 L227.177 1222.62 L227.177 1228.5 L222.292 1228.5 L222.292 1222.62 Z" fill="#000000" fill-rule="evenodd" fill-opacity="1" /><path clip-path="url(#clip970)" d="M247.362 1197.02 Q243.751 1197.02 241.922 1200.59 Q240.116 1204.13 240.116 1211.26 Q240.116 1218.36 241.922 1221.93 Q243.751 1225.47 247.362 1225.47 Q250.996 1225.47 252.802 1221.93 Q254.63 1218.36 254.63 1211.26 Q254.63 1204.13 252.802 1200.59 Q250.996 1197.02 247.362 1197.02 M247.362 1193.32 Q253.172 1193.32 256.228 1197.92 Q259.306 1202.51 259.306 1211.26 Q259.306 1219.98 256.228 1224.59 Q253.172 1229.17 247.362 1229.17 Q241.552 1229.17 238.473 1224.59 Q235.417 1219.98 235.417 1211.26 Q235.417 1202.51 238.473 1197.92 Q241.552 1193.32 247.362 1193.32 Z" fill="#000000" fill-rule="evenodd" fill-opacity="1" /><path clip-path="url(#clip970)" d="M277.524 1197.02 Q273.913 1197.02 272.084 1200.59 Q270.278 1204.13 270.278 1211.26 Q270.278 1218.36 272.084 1221.93 Q273.913 1225.47 277.524 1225.47 Q281.158 1225.47 282.963 1221.93 Q284.792 1218.36 284.792 1211.26 Q284.792 1204.13 282.963 1200.59 Q281.158 1197.02 277.524 1197.02 M277.524 1193.32 Q283.334 1193.32 286.389 1197.92 Q289.468 1202.51 289.468 1211.26 Q289.468 1219.98 286.389 1224.59 Q283.334 1229.17 277.524 1229.17 Q271.714 1229.17 268.635 1224.59 Q265.579 1219.98 265.579 1211.26 Q265.579 1202.51 268.635 1197.92 Q271.714 1193.32 277.524 1193.32 Z" fill="#000000" fill-rule="evenodd" fill-opacity="1" /><path clip-path="url(#clip970)" d="M618.388 1197.02 Q614.777 1197.02 612.948 1200.59 Q611.142 1204.13 611.142 1211.26 Q611.142 1218.36 612.948 1221.93 Q614.777 1225.47 618.388 1225.47 Q622.022 1225.47 623.827 1221.93 Q625.656 1218.36 625.656 1211.26 Q625.656 1204.13 623.827 1200.59 Q622.022 1197.02 618.388 1197.02 M618.388 1193.32 Q624.198 1193.32 627.253 1197.92 Q630.332 1202.51 630.332 1211.26 Q630.332 1219.98 627.253 1224.59 Q624.198 1229.17 618.388 1229.17 Q612.578 1229.17 609.499 1224.59 Q606.443 1219.98 606.443 1211.26 Q606.443 1202.51 609.499 1197.92 Q612.578 1193.32 618.388 1193.32 Z" fill="#000000" fill-rule="evenodd" fill-opacity="1" /><path clip-path="url(#clip970)" d="M638.55 1222.62 L643.434 1222.62 L643.434 1228.5 L638.55 1228.5 L638.55 1222.62 Z" fill="#000000" fill-rule="evenodd" fill-opacity="1" /><path clip-path="url(#clip970)" d="M657.647 1224.57 L673.966 1224.57 L673.966 1228.5 L652.022 1228.5 L652.022 1224.57 Q654.684 1221.81 659.267 1217.18 Q663.874 1212.53 665.054 1211.19 Q667.299 1208.66 668.179 1206.93 Q669.082 1205.17 669.082 1203.48 Q669.082 1200.72 667.137 1198.99 Q665.216 1197.25 662.114 1197.25 Q659.915 1197.25 657.462 1198.02 Q655.031 1198.78 652.253 1200.33 L652.253 1195.61 Q655.077 1194.47 657.531 1193.9 Q659.985 1193.32 662.022 1193.32 Q667.392 1193.32 670.586 1196 Q673.781 1198.69 673.781 1203.18 Q673.781 1205.31 672.971 1207.23 Q672.184 1209.13 670.077 1211.72 Q669.499 1212.39 666.397 1215.61 Q663.295 1218.8 657.647 1224.57 Z" fill="#000000" fill-rule="evenodd" fill-opacity="1" /><path clip-path="url(#clip970)" d="M683.827 1193.94 L702.184 1193.94 L702.184 1197.88 L688.11 1197.88 L688.11 1206.35 Q689.128 1206 690.147 1205.84 Q691.165 1205.66 692.184 1205.66 Q697.971 1205.66 701.35 1208.83 Q704.73 1212 704.73 1217.41 Q704.73 1222.99 701.258 1226.09 Q697.785 1229.17 691.466 1229.17 Q689.29 1229.17 687.022 1228.8 Q684.776 1228.43 682.369 1227.69 L682.369 1222.99 Q684.452 1224.13 686.674 1224.68 Q688.897 1225.24 691.373 1225.24 Q695.378 1225.24 697.716 1223.13 Q700.054 1221.03 700.054 1217.41 Q700.054 1213.8 697.716 1211.7 Q695.378 1209.59 691.373 1209.59 Q689.498 1209.59 687.623 1210.01 Q685.772 1210.42 683.827 1211.3 L683.827 1193.94 Z" fill="#000000" fill-rule="evenodd" fill-opacity="1" /><path clip-path="url(#clip970)" d="M1033.65 1197.02 Q1030.04 1197.02 1028.21 1200.59 Q1026.4 1204.13 1026.4 1211.26 Q1026.4 1218.36 1028.21 1221.93 Q1030.04 1225.47 1033.65 1225.47 Q1037.28 1225.47 1039.09 1221.93 Q1040.92 1218.36 1040.92 1211.26 Q1040.92 1204.13 1039.09 1200.59 Q1037.28 1197.02 1033.65 1197.02 M1033.65 1193.32 Q1039.46 1193.32 1042.52 1197.92 Q1045.59 1202.51 1045.59 1211.26 Q1045.59 1219.98 1042.52 1224.59 Q1039.46 1229.17 1033.65 1229.17 Q1027.84 1229.17 1024.76 1224.59 Q1021.71 1219.98 1021.71 1211.26 Q1021.71 1202.51 1024.76 1197.92 Q1027.84 1193.32 1033.65 1193.32 Z" fill="#000000" fill-rule="evenodd" fill-opacity="1" /><path clip-path="url(#clip970)" d="M1053.81 1222.62 L1058.7 1222.62 L1058.7 1228.5 L1053.81 1228.5 L1053.81 1222.62 Z" fill="#000000" fill-rule="evenodd" fill-opacity="1" /><path clip-path="url(#clip970)" d="M1068.93 1193.94 L1087.28 1193.94 L1087.28 1197.88 L1073.21 1197.88 L1073.21 1206.35 Q1074.23 1206 1075.25 1205.84 Q1076.26 1205.66 1077.28 1205.66 Q1083.07 1205.66 1086.45 1208.83 Q1089.83 1212 1089.83 1217.41 Q1089.83 1222.99 1086.36 1226.09 Q1082.89 1229.17 1076.57 1229.17 Q1074.39 1229.17 1072.12 1228.8 Q1069.88 1228.43 1067.47 1227.69 L1067.47 1222.99 Q1069.55 1224.13 1071.77 1224.68 Q1074 1225.24 1076.47 1225.24 Q1080.48 1225.24 1082.82 1223.13 Q1085.15 1221.03 1085.15 1217.41 Q1085.15 1213.8 1082.82 1211.7 Q1080.48 1209.59 1076.47 1209.59 Q1074.6 1209.59 1072.72 1210.01 Q1070.87 1210.42 1068.93 1211.3 L1068.93 1193.94 Z" fill="#000000" fill-rule="evenodd" fill-opacity="1" /><path clip-path="url(#clip970)" d="M1109.04 1197.02 Q1105.43 1197.02 1103.6 1200.59 Q1101.8 1204.13 1101.8 1211.26 Q1101.8 1218.36 1103.6 1221.93 Q1105.43 1225.47 1109.04 1225.47 Q1112.68 1225.47 1114.48 1221.93 Q1116.31 1218.36 1116.31 1211.26 Q1116.31 1204.13 1114.48 1200.59 Q1112.68 1197.02 1109.04 1197.02 M1109.04 1193.32 Q1114.85 1193.32 1117.91 1197.92 Q1120.99 1202.51 1120.99 1211.26 Q1120.99 1219.98 1117.91 1224.59 Q1114.85 1229.17 1109.04 1229.17 Q1103.23 1229.17 1100.15 1224.59 Q1097.1 1219.98 1097.1 1211.26 Q1097.1 1202.51 1100.15 1197.92 Q1103.23 1193.32 1109.04 1193.32 Z" fill="#000000" fill-rule="evenodd" fill-opacity="1" /><path clip-path="url(#clip970)" d="M1449.91 1197.02 Q1446.3 1197.02 1444.47 1200.59 Q1442.66 1204.13 1442.66 1211.26 Q1442.66 1218.36 1444.47 1221.93 Q1446.3 1225.47 1449.91 1225.47 Q1453.54 1225.47 1455.35 1221.93 Q1457.17 1218.36 1457.17 1211.26 Q1457.17 1204.13 1455.35 1200.59 Q1453.54 1197.02 1449.91 1197.02 M1449.91 1193.32 Q1455.72 1193.32 1458.77 1197.92 Q1461.85 1202.51 1461.85 1211.26 Q1461.85 1219.98 1458.77 1224.59 Q1455.72 1229.17 1449.91 1229.17 Q1444.1 1229.17 1441.02 1224.59 Q1437.96 1219.98 1437.96 1211.26 Q1437.96 1202.51 1441.02 1197.92 Q1444.1 1193.32 1449.91 1193.32 Z" fill="#000000" fill-rule="evenodd" fill-opacity="1" /><path clip-path="url(#clip970)" d="M1470.07 1222.62 L1474.95 1222.62 L1474.95 1228.5 L1470.07 1228.5 L1470.07 1222.62 Z" fill="#000000" fill-rule="evenodd" fill-opacity="1" /><path clip-path="url(#clip970)" d="M1483.96 1193.94 L1506.18 1193.94 L1506.18 1195.93 L1493.63 1228.5 L1488.75 1228.5 L1500.55 1197.88 L1483.96 1197.88 L1483.96 1193.94 Z" fill="#000000" fill-rule="evenodd" fill-opacity="1" /><path clip-path="url(#clip970)" d="M1515.35 1193.94 L1533.7 1193.94 L1533.7 1197.88 L1519.63 1197.88 L1519.63 1206.35 Q1520.65 1206 1521.67 1205.84 Q1522.68 1205.66 1523.7 1205.66 Q1529.49 1205.66 1532.87 1208.83 Q1536.25 1212 1536.25 1217.41 Q1536.25 1222.99 1532.78 1226.09 Q1529.3 1229.17 1522.98 1229.17 Q1520.81 1229.17 1518.54 1228.8 Q1516.3 1228.43 1513.89 1227.69 L1513.89 1222.99 Q1515.97 1224.13 1518.19 1224.68 Q1520.42 1225.24 1522.89 1225.24 Q1526.9 1225.24 1529.23 1223.13 Q1531.57 1221.03 1531.57 1217.41 Q1531.57 1213.8 1529.23 1211.7 Q1526.9 1209.59 1522.89 1209.59 Q1521.02 1209.59 1519.14 1210.01 Q1517.29 1210.42 1515.35 1211.3 L1515.35 1193.94 Z" fill="#000000" fill-rule="evenodd" fill-opacity="1" /><path clip-path="url(#clip970)" d="M1854.94 1224.57 L1862.58 1224.57 L1862.58 1198.2 L1854.27 1199.87 L1854.27 1195.61 L1862.53 1193.94 L1867.21 1193.94 L1867.21 1224.57 L1874.84 1224.57 L1874.84 1228.5 L1854.94 1228.5 L1854.94 1224.57 Z" fill="#000000" fill-rule="evenodd" fill-opacity="1" /><path clip-path="url(#clip970)" d="M1884.29 1222.62 L1889.17 1222.62 L1889.17 1228.5 L1884.29 1228.5 L1884.29 1222.62 Z" fill="#000000" fill-rule="evenodd" fill-opacity="1" /><path clip-path="url(#clip970)" d="M1909.36 1197.02 Q1905.75 1197.02 1903.92 1200.59 Q1902.11 1204.13 1902.11 1211.26 Q1902.11 1218.36 1903.92 1221.93 Q1905.75 1225.47 1909.36 1225.47 Q1912.99 1225.47 1914.8 1221.93 Q1916.63 1218.36 1916.63 1211.26 Q1916.63 1204.13 1914.8 1200.59 Q1912.99 1197.02 1909.36 1197.02 M1909.36 1193.32 Q1915.17 1193.32 1918.22 1197.92 Q1921.3 1202.51 1921.3 1211.26 Q1921.3 1219.98 1918.22 1224.59 Q1915.17 1229.17 1909.36 1229.17 Q1903.55 1229.17 1900.47 1224.59 Q1897.41 1219.98 1897.41 1211.26 Q1897.41 1202.51 1900.47 1197.92 Q1903.55 1193.32 1909.36 1193.32 Z" fill="#000000" fill-rule="evenodd" fill-opacity="1" /><path clip-path="url(#clip970)" d="M1939.52 1197.02 Q1935.91 1197.02 1934.08 1200.59 Q1932.27 1204.13 1932.27 1211.26 Q1932.27 1218.36 1934.08 1221.93 Q1935.91 1225.47 1939.52 1225.47 Q1943.15 1225.47 1944.96 1221.93 Q1946.79 1218.36 1946.79 1211.26 Q1946.79 1204.13 1944.96 1200.59 Q1943.15 1197.02 1939.52 1197.02 M1939.52 1193.32 Q1945.33 1193.32 1948.39 1197.92 Q1951.46 1202.51 1951.46 1211.26 Q1951.46 1219.98 1948.39 1224.59 Q1945.33 1229.17 1939.52 1229.17 Q1933.71 1229.17 1930.63 1224.59 Q1927.58 1219.98 1927.58 1211.26 Q1927.58 1202.51 1930.63 1197.92 Q1933.71 1193.32 1939.52 1193.32 Z" fill="#000000" fill-rule="evenodd" fill-opacity="1" /><polyline clip-path="url(#clip972)" style="stroke:#000000; stroke-linecap:butt; stroke-linejoin:round; stroke-width:2; stroke-opacity:0.1; fill:none" points="
  189.936,1140.94 1952.76,1140.94 
  "/>
<polyline clip-path="url(#clip972)" style="stroke:#000000; stroke-linecap:butt; stroke-linejoin:round; stroke-width:2; stroke-opacity:0.1; fill:none" points="
  189.936,889.66 1952.76,889.66 
  "/>
<polyline clip-path="url(#clip972)" style="stroke:#000000; stroke-linecap:butt; stroke-linejoin:round; stroke-width:2; stroke-opacity:0.1; fill:none" points="
  189.936,638.384 1952.76,638.384 
  "/>
<polyline clip-path="url(#clip972)" style="stroke:#000000; stroke-linecap:butt; stroke-linejoin:round; stroke-width:2; stroke-opacity:0.1; fill:none" points="
  189.936,387.107 1952.76,387.107 
  "/>
<polyline clip-path="url(#clip972)" style="stroke:#000000; stroke-linecap:butt; stroke-linejoin:round; stroke-width:2; stroke-opacity:0.1; fill:none" points="
  189.936,135.831 1952.76,135.831 
  "/>
<polyline clip-path="url(#clip970)" style="stroke:#000000; stroke-linecap:butt; stroke-linejoin:round; stroke-width:4; stroke-opacity:1; fill:none" points="
  189.936,1171.03 189.936,107.256 
  "/>
<polyline clip-path="url(#clip970)" style="stroke:#000000; stroke-linecap:butt; stroke-linejoin:round; stroke-width:4; stroke-opacity:1; fill:none" points="
  189.936,1140.94 211.09,1140.94 
  "/>
<polyline clip-path="url(#clip970)" style="stroke:#000000; stroke-linecap:butt; stroke-linejoin:round; stroke-width:4; stroke-opacity:1; fill:none" points="
  189.936,889.66 211.09,889.66 
  "/>
<polyline clip-path="url(#clip970)" style="stroke:#000000; stroke-linecap:butt; stroke-linejoin:round; stroke-width:4; stroke-opacity:1; fill:none" points="
  189.936,638.384 211.09,638.384 
  "/>
<polyline clip-path="url(#clip970)" style="stroke:#000000; stroke-linecap:butt; stroke-linejoin:round; stroke-width:4; stroke-opacity:1; fill:none" points="
  189.936,387.107 211.09,387.107 
  "/>
<polyline clip-path="url(#clip970)" style="stroke:#000000; stroke-linecap:butt; stroke-linejoin:round; stroke-width:4; stroke-opacity:1; fill:none" points="
  189.936,135.831 211.09,135.831 
  "/>
<path clip-path="url(#clip970)" d="M52.9921 1141.39 L82.6679 1141.39 L82.6679 1145.32 L52.9921 1145.32 L52.9921 1141.39 Z" fill="#000000" fill-rule="evenodd" fill-opacity="1" /><path clip-path="url(#clip970)" d="M93.5706 1154.28 L101.209 1154.28 L101.209 1127.92 L92.8993 1129.58 L92.8993 1125.32 L101.163 1123.66 L105.839 1123.66 L105.839 1154.28 L113.478 1154.28 L113.478 1158.22 L93.5706 1158.22 L93.5706 1154.28 Z" fill="#000000" fill-rule="evenodd" fill-opacity="1" /><path clip-path="url(#clip970)" d="M122.922 1152.34 L127.807 1152.34 L127.807 1158.22 L122.922 1158.22 L122.922 1152.34 Z" fill="#000000" fill-rule="evenodd" fill-opacity="1" /><path clip-path="url(#clip970)" d="M147.992 1126.74 Q144.381 1126.74 142.552 1130.3 Q140.746 1133.84 140.746 1140.97 Q140.746 1148.08 142.552 1151.64 Q144.381 1155.18 147.992 1155.18 Q151.626 1155.18 153.431 1151.64 Q155.26 1148.08 155.26 1140.97 Q155.26 1133.84 153.431 1130.3 Q151.626 1126.74 147.992 1126.74 M147.992 1123.03 Q153.802 1123.03 156.857 1127.64 Q159.936 1132.22 159.936 1140.97 Q159.936 1149.7 156.857 1154.3 Q153.802 1158.89 147.992 1158.89 Q142.181 1158.89 139.103 1154.3 Q136.047 1149.7 136.047 1140.97 Q136.047 1132.22 139.103 1127.64 Q142.181 1123.03 147.992 1123.03 Z" fill="#000000" fill-rule="evenodd" fill-opacity="1" /><path clip-path="url(#clip970)" d="M53.9875 890.112 L83.6633 890.112 L83.6633 894.047 L53.9875 894.047 L53.9875 890.112 Z" fill="#000000" fill-rule="evenodd" fill-opacity="1" /><path clip-path="url(#clip970)" d="M103.756 875.459 Q100.145 875.459 98.316 879.024 Q96.5104 882.565 96.5104 889.695 Q96.5104 896.801 98.316 900.366 Q100.145 903.908 103.756 903.908 Q107.39 903.908 109.196 900.366 Q111.024 896.801 111.024 889.695 Q111.024 882.565 109.196 879.024 Q107.39 875.459 103.756 875.459 M103.756 871.755 Q109.566 871.755 112.621 876.362 Q115.7 880.945 115.7 889.695 Q115.7 898.422 112.621 903.028 Q109.566 907.612 103.756 907.612 Q97.9456 907.612 94.8669 903.028 Q91.8114 898.422 91.8114 889.695 Q91.8114 880.945 94.8669 876.362 Q97.9456 871.755 103.756 871.755 Z" fill="#000000" fill-rule="evenodd" fill-opacity="1" /><path clip-path="url(#clip970)" d="M123.918 901.061 L128.802 901.061 L128.802 906.94 L123.918 906.94 L123.918 901.061 Z" fill="#000000" fill-rule="evenodd" fill-opacity="1" /><path clip-path="url(#clip970)" d="M139.033 872.38 L157.39 872.38 L157.39 876.315 L143.316 876.315 L143.316 884.788 Q144.334 884.44 145.353 884.278 Q146.371 884.093 147.39 884.093 Q153.177 884.093 156.556 887.264 Q159.936 890.436 159.936 895.852 Q159.936 901.431 156.464 904.533 Q152.992 907.612 146.672 907.612 Q144.496 907.612 142.228 907.241 Q139.982 906.871 137.575 906.13 L137.575 901.431 Q139.658 902.565 141.881 903.121 Q144.103 903.676 146.58 903.676 Q150.584 903.676 152.922 901.57 Q155.26 899.463 155.26 895.852 Q155.26 892.241 152.922 890.135 Q150.584 888.028 146.58 888.028 Q144.705 888.028 142.83 888.445 Q140.978 888.862 139.033 889.741 L139.033 872.38 Z" fill="#000000" fill-rule="evenodd" fill-opacity="1" /><path clip-path="url(#clip970)" d="M102.76 624.183 Q99.1493 624.183 97.3206 627.747 Q95.515 631.289 95.515 638.419 Q95.515 645.525 97.3206 649.09 Q99.1493 652.631 102.76 652.631 Q106.395 652.631 108.2 649.09 Q110.029 645.525 110.029 638.419 Q110.029 631.289 108.2 627.747 Q106.395 624.183 102.76 624.183 M102.76 620.479 Q108.571 620.479 111.626 625.085 Q114.705 629.669 114.705 638.419 Q114.705 647.145 111.626 651.752 Q108.571 656.335 102.76 656.335 Q96.9502 656.335 93.8715 651.752 Q90.816 647.145 90.816 638.419 Q90.816 629.669 93.8715 625.085 Q96.9502 620.479 102.76 620.479 Z" fill="#000000" fill-rule="evenodd" fill-opacity="1" /><path clip-path="url(#clip970)" d="M122.922 649.784 L127.807 649.784 L127.807 655.664 L122.922 655.664 L122.922 649.784 Z" fill="#000000" fill-rule="evenodd" fill-opacity="1" /><path clip-path="url(#clip970)" d="M147.992 624.183 Q144.381 624.183 142.552 627.747 Q140.746 631.289 140.746 638.419 Q140.746 645.525 142.552 649.09 Q144.381 652.631 147.992 652.631 Q151.626 652.631 153.431 649.09 Q155.26 645.525 155.26 638.419 Q155.26 631.289 153.431 627.747 Q151.626 624.183 147.992 624.183 M147.992 620.479 Q153.802 620.479 156.857 625.085 Q159.936 629.669 159.936 638.419 Q159.936 647.145 156.857 651.752 Q153.802 656.335 147.992 656.335 Q142.181 656.335 139.103 651.752 Q136.047 647.145 136.047 638.419 Q136.047 629.669 139.103 625.085 Q142.181 620.479 147.992 620.479 Z" fill="#000000" fill-rule="evenodd" fill-opacity="1" /><path clip-path="url(#clip970)" d="M103.756 372.906 Q100.145 372.906 98.316 376.471 Q96.5104 380.013 96.5104 387.142 Q96.5104 394.249 98.316 397.813 Q100.145 401.355 103.756 401.355 Q107.39 401.355 109.196 397.813 Q111.024 394.249 111.024 387.142 Q111.024 380.013 109.196 376.471 Q107.39 372.906 103.756 372.906 M103.756 369.202 Q109.566 369.202 112.621 373.809 Q115.7 378.392 115.7 387.142 Q115.7 395.869 112.621 400.475 Q109.566 405.059 103.756 405.059 Q97.9456 405.059 94.8669 400.475 Q91.8114 395.869 91.8114 387.142 Q91.8114 378.392 94.8669 373.809 Q97.9456 369.202 103.756 369.202 Z" fill="#000000" fill-rule="evenodd" fill-opacity="1" /><path clip-path="url(#clip970)" d="M123.918 398.508 L128.802 398.508 L128.802 404.387 L123.918 404.387 L123.918 398.508 Z" fill="#000000" fill-rule="evenodd" fill-opacity="1" /><path clip-path="url(#clip970)" d="M139.033 369.827 L157.39 369.827 L157.39 373.763 L143.316 373.763 L143.316 382.235 Q144.334 381.887 145.353 381.725 Q146.371 381.54 147.39 381.54 Q153.177 381.54 156.556 384.712 Q159.936 387.883 159.936 393.299 Q159.936 398.878 156.464 401.98 Q152.992 405.059 146.672 405.059 Q144.496 405.059 142.228 404.688 Q139.982 404.318 137.575 403.577 L137.575 398.878 Q139.658 400.012 141.881 400.568 Q144.103 401.124 146.58 401.124 Q150.584 401.124 152.922 399.017 Q155.26 396.911 155.26 393.299 Q155.26 389.688 152.922 387.582 Q150.584 385.475 146.58 385.475 Q144.705 385.475 142.83 385.892 Q140.978 386.309 139.033 387.188 L139.033 369.827 Z" fill="#000000" fill-rule="evenodd" fill-opacity="1" /><path clip-path="url(#clip970)" d="M93.5706 149.176 L101.209 149.176 L101.209 122.81 L92.8993 124.477 L92.8993 120.218 L101.163 118.551 L105.839 118.551 L105.839 149.176 L113.478 149.176 L113.478 153.111 L93.5706 153.111 L93.5706 149.176 Z" fill="#000000" fill-rule="evenodd" fill-opacity="1" /><path clip-path="url(#clip970)" d="M122.922 147.231 L127.807 147.231 L127.807 153.111 L122.922 153.111 L122.922 147.231 Z" fill="#000000" fill-rule="evenodd" fill-opacity="1" /><path clip-path="url(#clip970)" d="M147.992 121.63 Q144.381 121.63 142.552 125.194 Q140.746 128.736 140.746 135.866 Q140.746 142.972 142.552 146.537 Q144.381 150.079 147.992 150.079 Q151.626 150.079 153.431 146.537 Q155.26 142.972 155.26 135.866 Q155.26 128.736 153.431 125.194 Q151.626 121.63 147.992 121.63 M147.992 117.926 Q153.802 117.926 156.857 122.532 Q159.936 127.116 159.936 135.866 Q159.936 144.592 156.857 149.199 Q153.802 153.782 147.992 153.782 Q142.181 153.782 139.103 149.199 Q136.047 144.592 136.047 135.866 Q136.047 127.116 139.103 122.532 Q142.181 117.926 147.992 117.926 Z" fill="#000000" fill-rule="evenodd" fill-opacity="1" /><g clip-path="url(#clip970)">
<text style="fill:#000000; fill-opacity:1; font-family:Arial,Helvetica Neue,Helvetica,sans-serif; font-size:66px; text-anchor:middle;" transform="rotate(0, 1071.35, 57.6)" x="1071.35" y="57.6">Equispaced interpolant, n=6</text>
</g>
<polyline clip-path="url(#clip972)" style="stroke:#009af9; stroke-linecap:butt; stroke-linejoin:round; stroke-width:8; stroke-opacity:1; fill:none" points="
  239.827,215.5 256.068,210.227 406.239,166.168 496.485,146.787 572.787,137.372 655.673,137.363 732.086,149.856 773.048,162.635 814.009,180.323 861.467,207.629 
  908.925,242.966 951.1,281.641 993.275,327.522 1030.26,373.839 1067.24,425.831 1107.56,488.768 1147.89,557.714 1188.45,632.238 1229.01,710.604 1273.86,799.465 
  1318.7,887.417 1361.37,966.411 1404.04,1036.39 1426.23,1067.58 1448.41,1094.24 1470.59,1115.61 1492.78,1130.92 1511.45,1138.55 1530.12,1140.92 1548.8,1137.65 
  1567.47,1128.37 1590.27,1108.49 1613.07,1078.85 1635.87,1039.28 1658.67,989.858 1680.1,934.745 1701.53,871.843 1722.96,802.036 1744.39,726.528 1778.73,597.654 
  1813.06,466.33 1830.23,402.852 1847.39,342.701 1864.56,287.378 1881.73,238.424 1887.01,224.877 1892.3,212.124 1897.58,200.209 1902.86,189.174 
  "/>
<circle clip-path="url(#clip972)" cx="239.827" cy="215.5" r="10" fill="#e26f46" fill-rule="evenodd" fill-opacity="1" stroke="#000000" stroke-opacity="1" stroke-width="2.56"/>
<circle clip-path="url(#clip972)" cx="517" cy="143.523" r="10" fill="#e26f46" fill-rule="evenodd" fill-opacity="1" stroke="#000000" stroke-opacity="1" stroke-width="2.56"/>
<circle clip-path="url(#clip972)" cx="794.173" cy="171.112" r="10" fill="#e26f46" fill-rule="evenodd" fill-opacity="1" stroke="#000000" stroke-opacity="1" stroke-width="2.56"/>
<circle clip-path="url(#clip972)" cx="1071.35" cy="431.944" r="10" fill="#e26f46" fill-rule="evenodd" fill-opacity="1" stroke="#000000" stroke-opacity="1" stroke-width="2.56"/>
<circle clip-path="url(#clip972)" cx="1348.52" cy="943.352" r="10" fill="#e26f46" fill-rule="evenodd" fill-opacity="1" stroke="#000000" stroke-opacity="1" stroke-width="2.56"/>
<circle clip-path="url(#clip972)" cx="1625.69" cy="1058.17" r="10" fill="#e26f46" fill-rule="evenodd" fill-opacity="1" stroke="#000000" stroke-opacity="1" stroke-width="2.56"/>
<circle clip-path="url(#clip972)" cx="1902.86" cy="189.174" r="10" fill="#e26f46" fill-rule="evenodd" fill-opacity="1" stroke="#000000" stroke-opacity="1" stroke-width="2.56"/>
<polyline clip-path="url(#clip972)" style="stroke:#3da44d; stroke-linecap:butt; stroke-linejoin:round; stroke-width:8; stroke-opacity:1; fill:none" points="
  239.827,215.5 243.887,210.219 247.948,205.203 252.008,200.445 256.068,195.935 293.611,164.483 331.153,147.398 368.696,139.788 406.239,137.914 451.362,139.462 
  496.485,142.295 534.636,144.458 572.787,146.054 655.673,148.917 732.086,156.196 773.048,164.808 814.009,178.387 861.467,201.891 908.925,235.175 951.1,273.803 
  993.275,321.297 1030.26,370.173 1067.24,425.442 1147.89,564.687 1229.01,720.836 1273.86,808.093 1318.7,891.68 1361.37,964.313 1404.04,1026.7 1426.23,1053.93 
  1448.41,1076.95 1470.59,1095.29 1492.78,1108.49 1511.45,1115.3 1530.12,1117.92 1548.8,1116.12 1567.47,1109.69 1590.27,1095.32 1613.07,1073.52 1635.87,1044.08 
  1658.67,1006.89 1680.1,964.814 1701.53,915.905 1722.96,860.296 1744.39,798.215 1778.73,686.138 1813.06,560.303 1847.39,423.503 1881.73,279.449 1887.01,256.923 
  1892.3,234.355 1897.58,211.765 1902.86,189.174 
  "/>
<path clip-path="url(#clip970)" d="
M248.697 1135.57 L699.379 1135.57 L699.379 928.211 L248.697 928.211  Z
  " fill="#ffffff" fill-rule="evenodd" fill-opacity="1"/>
<polyline clip-path="url(#clip970)" style="stroke:#000000; stroke-linecap:butt; stroke-linejoin:round; stroke-width:4; stroke-opacity:1; fill:none" points="
  248.697,1135.57 699.379,1135.57 699.379,928.211 248.697,928.211 248.697,1135.57 
  "/>
<polyline clip-path="url(#clip970)" style="stroke:#009af9; stroke-linecap:butt; stroke-linejoin:round; stroke-width:4; stroke-opacity:1; fill:none" points="
  268.284,980.051 385.805,980.051 
  "/>
<path clip-path="url(#clip970)" d="M421.896 961.313 L421.896 964.854 L417.822 964.854 Q415.531 964.854 414.628 965.78 Q413.748 966.706 413.748 969.114 L413.748 971.405 L420.762 971.405 L420.762 974.716 L413.748 974.716 L413.748 997.331 L409.466 997.331 L409.466 974.716 L405.392 974.716 L405.392 971.405 L409.466 971.405 L409.466 969.6 Q409.466 965.271 411.48 963.304 Q413.494 961.313 417.869 961.313 L421.896 961.313 Z" fill="#000000" fill-rule="evenodd" fill-opacity="1" /><path clip-path="url(#clip970)" d="M425.021 987.1 L425.021 971.405 L429.281 971.405 L429.281 986.938 Q429.281 990.618 430.716 992.47 Q432.151 994.299 435.021 994.299 Q438.47 994.299 440.461 992.1 Q442.475 989.901 442.475 986.104 L442.475 971.405 L446.734 971.405 L446.734 997.331 L442.475 997.331 L442.475 993.35 Q440.924 995.711 438.864 996.868 Q436.827 998.002 434.118 998.002 Q429.651 998.002 427.336 995.225 Q425.021 992.447 425.021 987.1 M435.739 970.78 L435.739 970.78 Z" fill="#000000" fill-rule="evenodd" fill-opacity="1" /><path clip-path="url(#clip970)" d="M477.058 981.683 L477.058 997.331 L472.799 997.331 L472.799 981.822 Q472.799 978.141 471.364 976.313 Q469.928 974.484 467.058 974.484 Q463.609 974.484 461.618 976.683 Q459.628 978.882 459.628 982.678 L459.628 997.331 L455.345 997.331 L455.345 971.405 L459.628 971.405 L459.628 975.433 Q461.155 973.095 463.216 971.938 Q465.299 970.78 468.007 970.78 Q472.475 970.78 474.766 973.558 Q477.058 976.313 477.058 981.683 Z" fill="#000000" fill-rule="evenodd" fill-opacity="1" /><path clip-path="url(#clip970)" d="M504.211 972.401 L504.211 976.382 Q502.405 975.387 500.576 974.901 Q498.771 974.391 496.919 974.391 Q492.776 974.391 490.484 977.03 Q488.192 979.646 488.192 984.391 Q488.192 989.137 490.484 991.776 Q492.776 994.391 496.919 994.391 Q498.771 994.391 500.576 993.905 Q502.405 993.396 504.211 992.401 L504.211 996.336 Q502.428 997.169 500.507 997.586 Q498.609 998.002 496.456 998.002 Q490.6 998.002 487.151 994.322 Q483.702 990.641 483.702 984.391 Q483.702 978.049 487.174 974.415 Q490.669 970.78 496.734 970.78 Q498.701 970.78 500.576 971.197 Q502.451 971.591 504.211 972.401 Z" fill="#000000" fill-rule="evenodd" fill-opacity="1" /><path clip-path="url(#clip970)" d="M515.831 964.044 L515.831 971.405 L524.604 971.405 L524.604 974.716 L515.831 974.716 L515.831 988.79 Q515.831 991.961 516.687 992.864 Q517.567 993.766 520.229 993.766 L524.604 993.766 L524.604 997.331 L520.229 997.331 Q515.299 997.331 513.424 995.502 Q511.549 993.651 511.549 988.79 L511.549 974.716 L508.424 974.716 L508.424 971.405 L511.549 971.405 L511.549 964.044 L515.831 964.044 Z" fill="#000000" fill-rule="evenodd" fill-opacity="1" /><path clip-path="url(#clip970)" d="M530.206 971.405 L534.465 971.405 L534.465 997.331 L530.206 997.331 L530.206 971.405 M530.206 961.313 L534.465 961.313 L534.465 966.706 L530.206 966.706 L530.206 961.313 Z" fill="#000000" fill-rule="evenodd" fill-opacity="1" /><path clip-path="url(#clip970)" d="M553.423 974.391 Q549.997 974.391 548.007 977.077 Q546.016 979.739 546.016 984.391 Q546.016 989.044 547.984 991.729 Q549.974 994.391 553.423 994.391 Q556.826 994.391 558.817 991.706 Q560.808 989.021 560.808 984.391 Q560.808 979.785 558.817 977.1 Q556.826 974.391 553.423 974.391 M553.423 970.78 Q558.979 970.78 562.15 974.391 Q565.321 978.003 565.321 984.391 Q565.321 990.757 562.15 994.391 Q558.979 998.002 553.423 998.002 Q547.845 998.002 544.673 994.391 Q541.525 990.757 541.525 984.391 Q541.525 978.003 544.673 974.391 Q547.845 970.78 553.423 970.78 Z" fill="#000000" fill-rule="evenodd" fill-opacity="1" /><path clip-path="url(#clip970)" d="M593.932 981.683 L593.932 997.331 L589.673 997.331 L589.673 981.822 Q589.673 978.141 588.238 976.313 Q586.803 974.484 583.932 974.484 Q580.483 974.484 578.493 976.683 Q576.502 978.882 576.502 982.678 L576.502 997.331 L572.22 997.331 L572.22 971.405 L576.502 971.405 L576.502 975.433 Q578.03 973.095 580.09 971.938 Q582.173 970.78 584.882 970.78 Q589.349 970.78 591.641 973.558 Q593.932 976.313 593.932 981.683 Z" fill="#000000" fill-rule="evenodd" fill-opacity="1" /><circle clip-path="url(#clip970)" cx="327.044" cy="1031.89" r="23" fill="#e26f46" fill-rule="evenodd" fill-opacity="1" stroke="#000000" stroke-opacity="1" stroke-width="5.46133"/>
<path clip-path="url(#clip970)" d="M427.105 1033.52 L427.105 1049.17 L422.845 1049.17 L422.845 1033.66 Q422.845 1029.98 421.41 1028.15 Q419.975 1026.32 417.105 1026.32 Q413.656 1026.32 411.665 1028.52 Q409.674 1030.72 409.674 1034.52 L409.674 1049.17 L405.392 1049.17 L405.392 1023.25 L409.674 1023.25 L409.674 1027.27 Q411.202 1024.94 413.262 1023.78 Q415.345 1022.62 418.054 1022.62 Q422.521 1022.62 424.813 1025.4 Q427.105 1028.15 427.105 1033.52 Z" fill="#000000" fill-rule="evenodd" fill-opacity="1" /><path clip-path="url(#clip970)" d="M445.646 1026.23 Q442.22 1026.23 440.23 1028.92 Q438.239 1031.58 438.239 1036.23 Q438.239 1040.88 440.206 1043.57 Q442.197 1046.23 445.646 1046.23 Q449.049 1046.23 451.04 1043.55 Q453.03 1040.86 453.03 1036.23 Q453.03 1031.62 451.04 1028.94 Q449.049 1026.23 445.646 1026.23 M445.646 1022.62 Q451.202 1022.62 454.373 1026.23 Q457.544 1029.84 457.544 1036.23 Q457.544 1042.6 454.373 1046.23 Q451.202 1049.84 445.646 1049.84 Q440.068 1049.84 436.896 1046.23 Q433.748 1042.6 433.748 1036.23 Q433.748 1029.84 436.896 1026.23 Q440.068 1022.62 445.646 1022.62 Z" fill="#000000" fill-rule="evenodd" fill-opacity="1" /><path clip-path="url(#clip970)" d="M481.665 1027.18 L481.665 1013.15 L485.924 1013.15 L485.924 1049.17 L481.665 1049.17 L481.665 1045.28 Q480.322 1047.6 478.262 1048.73 Q476.225 1049.84 473.354 1049.84 Q468.655 1049.84 465.692 1046.09 Q462.753 1042.34 462.753 1036.23 Q462.753 1030.12 465.692 1026.37 Q468.655 1022.62 473.354 1022.62 Q476.225 1022.62 478.262 1023.75 Q480.322 1024.87 481.665 1027.18 M467.151 1036.23 Q467.151 1040.93 469.072 1043.62 Q471.016 1046.28 474.396 1046.28 Q477.776 1046.28 479.72 1043.62 Q481.665 1040.93 481.665 1036.23 Q481.665 1031.53 479.72 1028.87 Q477.776 1026.19 474.396 1026.19 Q471.016 1026.19 469.072 1028.87 Q467.151 1031.53 467.151 1036.23 Z" fill="#000000" fill-rule="evenodd" fill-opacity="1" /><path clip-path="url(#clip970)" d="M516.873 1035.14 L516.873 1037.23 L497.289 1037.23 Q497.567 1041.62 499.928 1043.94 Q502.313 1046.23 506.549 1046.23 Q509.002 1046.23 511.294 1045.63 Q513.609 1045.03 515.877 1043.82 L515.877 1047.85 Q513.586 1048.82 511.178 1049.33 Q508.771 1049.84 506.294 1049.84 Q500.09 1049.84 496.456 1046.23 Q492.845 1042.62 492.845 1036.46 Q492.845 1030.1 496.271 1026.37 Q499.72 1022.62 505.553 1022.62 Q510.785 1022.62 513.817 1026 Q516.873 1029.36 516.873 1035.14 M512.613 1033.89 Q512.567 1030.4 510.646 1028.31 Q508.748 1026.23 505.6 1026.23 Q502.035 1026.23 499.882 1028.25 Q497.752 1030.26 497.428 1033.92 L512.613 1033.89 Z" fill="#000000" fill-rule="evenodd" fill-opacity="1" /><path clip-path="url(#clip970)" d="M540.391 1024.01 L540.391 1028.04 Q538.585 1027.11 536.641 1026.65 Q534.697 1026.19 532.613 1026.19 Q529.442 1026.19 527.845 1027.16 Q526.271 1028.13 526.271 1030.07 Q526.271 1031.56 527.405 1032.41 Q528.539 1033.25 531.965 1034.01 L533.423 1034.33 Q537.96 1035.31 539.859 1037.09 Q541.78 1038.85 541.78 1042.02 Q541.78 1045.63 538.91 1047.74 Q536.062 1049.84 531.062 1049.84 Q528.979 1049.84 526.711 1049.43 Q524.465 1049.03 521.965 1048.22 L521.965 1043.82 Q524.326 1045.05 526.618 1045.68 Q528.91 1046.28 531.155 1046.28 Q534.164 1046.28 535.785 1045.26 Q537.405 1044.22 537.405 1042.34 Q537.405 1040.61 536.224 1039.68 Q535.067 1038.75 531.109 1037.9 L529.627 1037.55 Q525.669 1036.72 523.91 1035 Q522.15 1033.27 522.15 1030.26 Q522.15 1026.6 524.743 1024.61 Q527.336 1022.62 532.104 1022.62 Q534.465 1022.62 536.548 1022.97 Q538.632 1023.31 540.391 1024.01 Z" fill="#000000" fill-rule="evenodd" fill-opacity="1" /><polyline clip-path="url(#clip970)" style="stroke:#3da44d; stroke-linecap:butt; stroke-linejoin:round; stroke-width:4; stroke-opacity:1; fill:none" points="
  268.284,1083.73 385.805,1083.73 
  "/>
<path clip-path="url(#clip970)" d="M405.392 1075.09 L409.651 1075.09 L409.651 1101.01 L405.392 1101.01 L405.392 1075.09 M405.392 1064.99 L409.651 1064.99 L409.651 1070.39 L405.392 1070.39 L405.392 1064.99 Z" fill="#000000" fill-rule="evenodd" fill-opacity="1" /><path clip-path="url(#clip970)" d="M440.114 1085.36 L440.114 1101.01 L435.855 1101.01 L435.855 1085.5 Q435.855 1081.82 434.419 1079.99 Q432.984 1078.16 430.114 1078.16 Q426.665 1078.16 424.674 1080.36 Q422.683 1082.56 422.683 1086.36 L422.683 1101.01 L418.401 1101.01 L418.401 1075.09 L422.683 1075.09 L422.683 1079.11 Q424.211 1076.78 426.271 1075.62 Q428.355 1074.46 431.063 1074.46 Q435.53 1074.46 437.822 1077.24 Q440.114 1079.99 440.114 1085.36 Z" fill="#000000" fill-rule="evenodd" fill-opacity="1" /><path clip-path="url(#clip970)" d="M452.822 1067.72 L452.822 1075.09 L461.595 1075.09 L461.595 1078.4 L452.822 1078.4 L452.822 1092.47 Q452.822 1095.64 453.679 1096.54 Q454.558 1097.45 457.22 1097.45 L461.595 1097.45 L461.595 1101.01 L457.22 1101.01 Q452.29 1101.01 450.415 1099.18 Q448.54 1097.33 448.54 1092.47 L448.54 1078.4 L445.415 1078.4 L445.415 1075.09 L448.54 1075.09 L448.54 1067.72 L452.822 1067.72 Z" fill="#000000" fill-rule="evenodd" fill-opacity="1" /><path clip-path="url(#clip970)" d="M489.373 1086.98 L489.373 1089.07 L469.79 1089.07 Q470.067 1093.46 472.428 1095.78 Q474.813 1098.07 479.049 1098.07 Q481.502 1098.07 483.794 1097.47 Q486.109 1096.87 488.377 1095.66 L488.377 1099.69 Q486.086 1100.66 483.678 1101.17 Q481.271 1101.68 478.794 1101.68 Q472.59 1101.68 468.956 1098.07 Q465.345 1094.46 465.345 1088.3 Q465.345 1081.94 468.771 1078.21 Q472.22 1074.46 478.053 1074.46 Q483.285 1074.46 486.317 1077.84 Q489.373 1081.2 489.373 1086.98 M485.114 1085.73 Q485.067 1082.24 483.146 1080.15 Q481.248 1078.07 478.1 1078.07 Q474.535 1078.07 472.382 1080.09 Q470.253 1082.1 469.928 1085.76 L485.114 1085.73 Z" fill="#000000" fill-rule="evenodd" fill-opacity="1" /><path clip-path="url(#clip970)" d="M511.387 1079.07 Q510.669 1078.65 509.813 1078.46 Q508.979 1078.26 507.961 1078.26 Q504.35 1078.26 502.405 1080.62 Q500.484 1082.96 500.484 1087.35 L500.484 1101.01 L496.201 1101.01 L496.201 1075.09 L500.484 1075.09 L500.484 1079.11 Q501.826 1076.75 503.979 1075.62 Q506.132 1074.46 509.211 1074.46 Q509.65 1074.46 510.183 1074.53 Q510.715 1074.58 511.363 1074.69 L511.387 1079.07 Z" fill="#000000" fill-rule="evenodd" fill-opacity="1" /><path clip-path="url(#clip970)" d="M519.974 1097.12 L519.974 1110.87 L515.692 1110.87 L515.692 1075.09 L519.974 1075.09 L519.974 1079.02 Q521.317 1076.71 523.354 1075.59 Q525.414 1074.46 528.261 1074.46 Q532.984 1074.46 535.923 1078.21 Q538.886 1081.96 538.886 1088.07 Q538.886 1094.18 535.923 1097.93 Q532.984 1101.68 528.261 1101.68 Q525.414 1101.68 523.354 1100.57 Q521.317 1099.44 519.974 1097.12 M534.465 1088.07 Q534.465 1083.37 532.521 1080.71 Q530.599 1078.03 527.22 1078.03 Q523.84 1078.03 521.896 1080.71 Q519.974 1083.37 519.974 1088.07 Q519.974 1092.77 521.896 1095.46 Q523.84 1098.12 527.22 1098.12 Q530.599 1098.12 532.521 1095.46 Q534.465 1092.77 534.465 1088.07 Z" fill="#000000" fill-rule="evenodd" fill-opacity="1" /><path clip-path="url(#clip970)" d="M555.993 1078.07 Q552.567 1078.07 550.576 1080.76 Q548.585 1083.42 548.585 1088.07 Q548.585 1092.72 550.553 1095.41 Q552.544 1098.07 555.993 1098.07 Q559.396 1098.07 561.386 1095.39 Q563.377 1092.7 563.377 1088.07 Q563.377 1083.46 561.386 1080.78 Q559.396 1078.07 555.993 1078.07 M555.993 1074.46 Q561.548 1074.46 564.72 1078.07 Q567.891 1081.68 567.891 1088.07 Q567.891 1094.44 564.72 1098.07 Q561.548 1101.68 555.993 1101.68 Q550.414 1101.68 547.243 1098.07 Q544.095 1094.44 544.095 1088.07 Q544.095 1081.68 547.243 1078.07 Q550.414 1074.46 555.993 1074.46 Z" fill="#000000" fill-rule="evenodd" fill-opacity="1" /><path clip-path="url(#clip970)" d="M574.951 1064.99 L579.21 1064.99 L579.21 1101.01 L574.951 1101.01 L574.951 1064.99 Z" fill="#000000" fill-rule="evenodd" fill-opacity="1" /><path clip-path="url(#clip970)" d="M599.905 1087.98 Q594.743 1087.98 592.752 1089.16 Q590.761 1090.34 590.761 1093.19 Q590.761 1095.46 592.243 1096.8 Q593.747 1098.12 596.317 1098.12 Q599.858 1098.12 601.988 1095.62 Q604.141 1093.09 604.141 1088.93 L604.141 1087.98 L599.905 1087.98 M608.4 1086.22 L608.4 1101.01 L604.141 1101.01 L604.141 1097.08 Q602.682 1099.44 600.506 1100.57 Q598.331 1101.68 595.182 1101.68 Q591.201 1101.68 588.84 1099.46 Q586.502 1097.21 586.502 1093.46 Q586.502 1089.09 589.419 1086.87 Q592.358 1084.65 598.169 1084.65 L604.141 1084.65 L604.141 1084.23 Q604.141 1081.29 602.196 1079.69 Q600.275 1078.07 596.78 1078.07 Q594.557 1078.07 592.451 1078.6 Q590.344 1079.14 588.4 1080.2 L588.4 1076.27 Q590.738 1075.36 592.937 1074.92 Q595.136 1074.46 597.219 1074.46 Q602.844 1074.46 605.622 1077.38 Q608.4 1080.29 608.4 1086.22 Z" fill="#000000" fill-rule="evenodd" fill-opacity="1" /><path clip-path="url(#clip970)" d="M638.724 1085.36 L638.724 1101.01 L634.465 1101.01 L634.465 1085.5 Q634.465 1081.82 633.029 1079.99 Q631.594 1078.16 628.724 1078.16 Q625.275 1078.16 623.284 1080.36 Q621.293 1082.56 621.293 1086.36 L621.293 1101.01 L617.011 1101.01 L617.011 1075.09 L621.293 1075.09 L621.293 1079.11 Q622.821 1076.78 624.881 1075.62 Q626.965 1074.46 629.673 1074.46 Q634.141 1074.46 636.432 1077.24 Q638.724 1079.99 638.724 1085.36 Z" fill="#000000" fill-rule="evenodd" fill-opacity="1" /><path clip-path="url(#clip970)" d="M651.432 1067.72 L651.432 1075.09 L660.205 1075.09 L660.205 1078.4 L651.432 1078.4 L651.432 1092.47 Q651.432 1095.64 652.289 1096.54 Q653.168 1097.45 655.83 1097.45 L660.205 1097.45 L660.205 1101.01 L655.83 1101.01 Q650.9 1101.01 649.025 1099.18 Q647.15 1097.33 647.15 1092.47 L647.15 1078.4 L644.025 1078.4 L644.025 1075.09 L647.15 1075.09 L647.15 1067.72 L651.432 1067.72 Z" fill="#000000" fill-rule="evenodd" fill-opacity="1" /></svg>
