<?xml version="1.0" encoding="utf-8"?>
<svg xmlns="http://www.w3.org/2000/svg" xmlns:xlink="http://www.w3.org/1999/xlink" width="120" height="75" viewBox="0 0 480 300">
<defs>
  <clipPath id="clip510">
    <rect x="0" y="0" width="480" height="300"/>
  </clipPath>
</defs>
<path clip-path="url(#clip510)" d="
M0 300 L480 300 L480 0 L0 0  Z
  " fill="#ffffff" fill-rule="evenodd" fill-opacity="1"/>
<defs>
  <clipPath id="clip511">
    <rect x="96" y="0" width="337" height="300"/>
  </clipPath>
</defs>
<path clip-path="url(#clip510)" d="
M26.8443 258.408 L468.189 258.408 L468.189 27.537 L26.8443 27.537  Z
  " fill="#ffffff" fill-rule="evenodd" fill-opacity="1"/>
<defs>
  <clipPath id="clip512">
    <rect x="26" y="27" width="442" height="232"/>
  </clipPath>
</defs>
<polyline clip-path="url(#clip512)" style="stroke:#000000; stroke-width:0.5; stroke-opacity:0.1; fill:none" points="
  26.8443,258.408 26.8443,27.537 
  "/>
<polyline clip-path="url(#clip512)" style="stroke:#000000; stroke-width:0.5; stroke-opacity:0.1; fill:none" points="
  100.402,258.408 100.402,27.537 
  "/>
<polyline clip-path="url(#clip512)" style="stroke:#000000; stroke-width:0.5; stroke-opacity:0.1; fill:none" points="
  173.959,258.408 173.959,27.537 
  "/>
<polyline clip-path="url(#clip512)" style="stroke:#000000; stroke-width:0.5; stroke-opacity:0.1; fill:none" points="
  247.517,258.408 247.517,27.537 
  "/>
<polyline clip-path="url(#clip512)" style="stroke:#000000; stroke-width:0.5; stroke-opacity:0.1; fill:none" points="
  321.074,258.408 321.074,27.537 
  "/>
<polyline clip-path="url(#clip512)" style="stroke:#000000; stroke-width:0.5; stroke-opacity:0.1; fill:none" points="
  394.632,258.408 394.632,27.537 
  "/>
<polyline clip-path="url(#clip512)" style="stroke:#000000; stroke-width:0.5; stroke-opacity:0.1; fill:none" points="
  468.189,258.408 468.189,27.537 
  "/>
<polyline clip-path="url(#clip510)" style="stroke:#000000; stroke-width:1; stroke-opacity:1; fill:none" points="
  26.8443,258.408 468.189,258.408 
  "/>
<polyline clip-path="url(#clip510)" style="stroke:#000000; stroke-width:1; stroke-opacity:1; fill:none" points="
  26.8443,258.408 26.8443,255.638 
  "/>
<polyline clip-path="url(#clip510)" style="stroke:#000000; stroke-width:1; stroke-opacity:1; fill:none" points="
  100.402,258.408 100.402,255.638 
  "/>
<polyline clip-path="url(#clip510)" style="stroke:#000000; stroke-width:1; stroke-opacity:1; fill:none" points="
  173.959,258.408 173.959,255.638 
  "/>
<polyline clip-path="url(#clip510)" style="stroke:#000000; stroke-width:1; stroke-opacity:1; fill:none" points="
  247.517,258.408 247.517,255.638 
  "/>
<polyline clip-path="url(#clip510)" style="stroke:#000000; stroke-width:1; stroke-opacity:1; fill:none" points="
  321.074,258.408 321.074,255.638 
  "/>
<polyline clip-path="url(#clip510)" style="stroke:#000000; stroke-width:1; stroke-opacity:1; fill:none" points="
  394.632,258.408 394.632,255.638 
  "/>
<polyline clip-path="url(#clip510)" style="stroke:#000000; stroke-width:1; stroke-opacity:1; fill:none" points="
  468.189,258.408 468.189,255.638 
  "/>
<path clip-path="url(#clip510)" d="M 0 0 M26.8443 264.746 Q25.9415 264.746 25.4843 265.637 Q25.033 266.523 25.033 268.305 Q25.033 270.082 25.4843 270.973 Q25.9415 271.858 26.8443 271.858 Q27.7529 271.858 28.2042 270.973 Q28.6614 270.082 28.6614 268.305 Q28.6614 266.523 28.2042 265.637 Q27.7529 264.746 26.8443 264.746 M26.8443 263.82 Q28.2968 263.82 29.0607 264.972 Q29.8304 266.118 29.8304 268.305 Q29.8304 270.487 29.0607 271.638 Q28.2968 272.784 26.8443 272.784 Q25.3918 272.784 24.6221 271.638 Q23.8582 270.487 23.8582 268.305 Q23.8582 266.118 24.6221 264.972 Q25.3918 263.82 26.8443 263.82 Z" fill="#000000" fill-rule="evenodd" fill-opacity="1" /><path clip-path="url(#clip510)" d="M 0 0 M94.6205 271.633 L96.5302 271.633 L96.5302 265.041 L94.4527 265.458 L94.4527 264.393 L96.5187 263.976 L97.6876 263.976 L97.6876 271.633 L99.5973 271.633 L99.5973 272.616 L94.6205 272.616 L94.6205 271.633 Z" fill="#000000" fill-rule="evenodd" fill-opacity="1" /><path clip-path="url(#clip510)" d="M 0 0 M103.365 264.746 Q102.462 264.746 102.005 265.637 Q101.553 266.523 101.553 268.305 Q101.553 270.082 102.005 270.973 Q102.462 271.858 103.365 271.858 Q104.273 271.858 104.725 270.973 Q105.182 270.082 105.182 268.305 Q105.182 266.523 104.725 265.637 Q104.273 264.746 103.365 264.746 M103.365 263.82 Q104.817 263.82 105.581 264.972 Q106.351 266.118 106.351 268.305 Q106.351 270.487 105.581 271.638 Q104.817 272.784 103.365 272.784 Q101.912 272.784 101.142 271.638 Q100.379 270.487 100.379 268.305 Q100.379 266.118 101.142 264.972 Q101.912 263.82 103.365 263.82 Z" fill="#000000" fill-rule="evenodd" fill-opacity="1" /><path clip-path="url(#clip510)" d="M 0 0 M169.246 271.633 L173.326 271.633 L173.326 272.616 L167.839 272.616 L167.839 271.633 Q168.505 270.944 169.651 269.787 Q170.802 268.623 171.098 268.288 Q171.659 267.657 171.879 267.223 Q172.104 266.783 172.104 266.361 Q172.104 265.672 171.618 265.238 Q171.138 264.804 170.363 264.804 Q169.813 264.804 169.199 264.995 Q168.592 265.186 167.897 265.574 L167.897 264.393 Q168.603 264.109 169.217 263.965 Q169.83 263.82 170.339 263.82 Q171.682 263.82 172.481 264.491 Q173.279 265.163 173.279 266.285 Q173.279 266.818 173.077 267.298 Q172.88 267.773 172.353 268.421 Q172.209 268.589 171.433 269.393 Q170.658 270.192 169.246 271.633 Z" fill="#000000" fill-rule="evenodd" fill-opacity="1" /><path clip-path="url(#clip510)" d="M 0 0 M177.093 264.746 Q176.19 264.746 175.733 265.637 Q175.282 266.523 175.282 268.305 Q175.282 270.082 175.733 270.973 Q176.19 271.858 177.093 271.858 Q178.001 271.858 178.453 270.973 Q178.91 270.082 178.91 268.305 Q178.91 266.523 178.453 265.637 Q178.001 264.746 177.093 264.746 M177.093 263.82 Q178.545 263.82 179.309 264.972 Q180.079 266.118 180.079 268.305 Q180.079 270.487 179.309 271.638 Q178.545 272.784 177.093 272.784 Q175.64 272.784 174.871 271.638 Q174.107 270.487 174.107 268.305 Q174.107 266.118 174.871 264.972 Q175.64 263.82 177.093 263.82 Z" fill="#000000" fill-rule="evenodd" fill-opacity="1" /><path clip-path="url(#clip510)" d="M 0 0 M245.202 267.958 Q246.041 268.137 246.51 268.704 Q246.984 269.271 246.984 270.105 Q246.984 271.384 246.105 272.084 Q245.225 272.784 243.605 272.784 Q243.061 272.784 242.482 272.674 Q241.909 272.57 241.296 272.356 L241.296 271.227 Q241.782 271.511 242.36 271.656 Q242.939 271.8 243.57 271.8 Q244.669 271.8 245.242 271.366 Q245.821 270.932 245.821 270.105 Q245.821 269.341 245.283 268.913 Q244.75 268.479 243.796 268.479 L242.789 268.479 L242.789 267.518 L243.842 267.518 Q244.704 267.518 245.161 267.177 Q245.618 266.829 245.618 266.181 Q245.618 265.516 245.144 265.163 Q244.675 264.804 243.796 264.804 Q243.315 264.804 242.766 264.908 Q242.216 265.012 241.556 265.232 L241.556 264.19 Q242.222 264.005 242.8 263.913 Q243.385 263.82 243.9 263.82 Q245.231 263.82 246.006 264.428 Q246.782 265.03 246.782 266.06 Q246.782 266.777 246.371 267.275 Q245.96 267.767 245.202 267.958 Z" fill="#000000" fill-rule="evenodd" fill-opacity="1" /><path clip-path="url(#clip510)" d="M 0 0 M250.752 264.746 Q249.849 264.746 249.392 265.637 Q248.94 266.523 248.94 268.305 Q248.94 270.082 249.392 270.973 Q249.849 271.858 250.752 271.858 Q251.66 271.858 252.112 270.973 Q252.569 270.082 252.569 268.305 Q252.569 266.523 252.112 265.637 Q251.66 264.746 250.752 264.746 M250.752 263.82 Q252.204 263.82 252.968 264.972 Q253.738 266.118 253.738 268.305 Q253.738 270.487 252.968 271.638 Q252.204 272.784 250.752 272.784 Q249.299 272.784 248.529 271.638 Q247.765 270.487 247.765 268.305 Q247.765 266.118 248.529 264.972 Q249.299 263.82 250.752 263.82 Z" fill="#000000" fill-rule="evenodd" fill-opacity="1" /><path clip-path="url(#clip510)" d="M 0 0 M318.45 264.995 L315.498 269.607 L318.45 269.607 L318.45 264.995 M318.143 263.976 L319.613 263.976 L319.613 269.607 L320.845 269.607 L320.845 270.579 L319.613 270.579 L319.613 272.616 L318.45 272.616 L318.45 270.579 L314.549 270.579 L314.549 269.451 L318.143 263.976 Z" fill="#000000" fill-rule="evenodd" fill-opacity="1" /><path clip-path="url(#clip510)" d="M 0 0 M324.613 264.746 Q323.71 264.746 323.253 265.637 Q322.802 266.523 322.802 268.305 Q322.802 270.082 323.253 270.973 Q323.71 271.858 324.613 271.858 Q325.521 271.858 325.973 270.973 Q326.43 270.082 326.43 268.305 Q326.43 266.523 325.973 265.637 Q325.521 264.746 324.613 264.746 M324.613 263.82 Q326.065 263.82 326.829 264.972 Q327.599 266.118 327.599 268.305 Q327.599 270.487 326.829 271.638 Q326.065 272.784 324.613 272.784 Q323.16 272.784 322.391 271.638 Q321.627 270.487 321.627 268.305 Q321.627 266.118 322.391 264.972 Q323.16 263.82 324.613 263.82 Z" fill="#000000" fill-rule="evenodd" fill-opacity="1" /><path clip-path="url(#clip510)" d="M 0 0 M388.824 263.976 L393.413 263.976 L393.413 264.96 L389.895 264.96 L389.895 267.078 Q390.149 266.991 390.404 266.951 Q390.659 266.905 390.913 266.905 Q392.36 266.905 393.205 267.697 Q394.05 268.49 394.05 269.844 Q394.05 271.239 393.182 272.015 Q392.314 272.784 390.734 272.784 Q390.19 272.784 389.623 272.692 Q389.062 272.599 388.46 272.414 L388.46 271.239 Q388.981 271.523 389.536 271.662 Q390.092 271.8 390.711 271.8 Q391.712 271.8 392.296 271.274 Q392.881 270.747 392.881 269.844 Q392.881 268.942 392.296 268.415 Q391.712 267.888 390.711 267.888 Q390.242 267.888 389.773 267.993 Q389.31 268.097 388.824 268.317 L388.824 263.976 Z" fill="#000000" fill-rule="evenodd" fill-opacity="1" /><path clip-path="url(#clip510)" d="M 0 0 M397.817 264.746 Q396.915 264.746 396.457 265.637 Q396.006 266.523 396.006 268.305 Q396.006 270.082 396.457 270.973 Q396.915 271.858 397.817 271.858 Q398.726 271.858 399.177 270.973 Q399.634 270.082 399.634 268.305 Q399.634 266.523 399.177 265.637 Q398.726 264.746 397.817 264.746 M397.817 263.82 Q399.27 263.82 400.034 264.972 Q400.803 266.118 400.803 268.305 Q400.803 270.487 400.034 271.638 Q399.27 272.784 397.817 272.784 Q396.365 272.784 395.595 271.638 Q394.831 270.487 394.831 268.305 Q394.831 266.118 395.595 264.972 Q396.365 263.82 397.817 263.82 Z" fill="#000000" fill-rule="evenodd" fill-opacity="1" /><path clip-path="url(#clip510)" d="M 0 0 M464.914 267.831 Q464.126 267.831 463.664 268.369 Q463.206 268.907 463.206 269.844 Q463.206 270.776 463.664 271.32 Q464.126 271.858 464.914 271.858 Q465.701 271.858 466.158 271.32 Q466.621 270.776 466.621 269.844 Q466.621 268.907 466.158 268.369 Q465.701 267.831 464.914 267.831 M467.234 264.167 L467.234 265.232 Q466.794 265.024 466.343 264.914 Q465.897 264.804 465.458 264.804 Q464.3 264.804 463.687 265.585 Q463.079 266.366 462.992 267.946 Q463.334 267.443 463.849 267.177 Q464.364 266.905 464.983 266.905 Q466.285 266.905 467.037 267.697 Q467.795 268.484 467.795 269.844 Q467.795 271.175 467.008 271.98 Q466.221 272.784 464.914 272.784 Q463.415 272.784 462.622 271.638 Q461.829 270.487 461.829 268.305 Q461.829 266.256 462.801 265.041 Q463.773 263.82 465.411 263.82 Q465.851 263.82 466.297 263.907 Q466.748 263.994 467.234 264.167 Z" fill="#000000" fill-rule="evenodd" fill-opacity="1" /><path clip-path="url(#clip510)" d="M 0 0 M471.563 264.746 Q470.66 264.746 470.203 265.637 Q469.751 266.523 469.751 268.305 Q469.751 270.082 470.203 270.973 Q470.66 271.858 471.563 271.858 Q472.471 271.858 472.923 270.973 Q473.38 270.082 473.38 268.305 Q473.38 266.523 472.923 265.637 Q472.471 264.746 471.563 264.746 M471.563 263.82 Q473.015 263.82 473.779 264.972 Q474.549 266.118 474.549 268.305 Q474.549 270.487 473.779 271.638 Q473.015 272.784 471.563 272.784 Q470.11 272.784 469.341 271.638 Q468.577 270.487 468.577 268.305 Q468.577 266.118 469.341 264.972 Q470.11 263.82 471.563 263.82 Z" fill="#000000" fill-rule="evenodd" fill-opacity="1" /><g clip-path="url(#clip510)">
<text style="fill:#000000; fill-opacity:1; font-family:Arial,Helvetica Neue,Helvetica,sans-serif; font-size:16px; text-anchor:middle;" transform="rotate(0, 247.517, 293.459)" x="247.517" y="293.459">t</text>
</g>
<polyline clip-path="url(#clip512)" style="stroke:#000000; stroke-width:0.5; stroke-opacity:0.1; fill:none" points="
  26.8443,252.137 468.189,252.137 
  "/>
<polyline clip-path="url(#clip512)" style="stroke:#000000; stroke-width:0.5; stroke-opacity:0.1; fill:none" points="
  26.8443,197.748 468.189,197.748 
  "/>
<polyline clip-path="url(#clip512)" style="stroke:#000000; stroke-width:0.5; stroke-opacity:0.1; fill:none" points="
  26.8443,143.359 468.189,143.359 
  "/>
<polyline clip-path="url(#clip512)" style="stroke:#000000; stroke-width:0.5; stroke-opacity:0.1; fill:none" points="
  26.8443,88.9702 468.189,88.9702 
  "/>
<polyline clip-path="url(#clip512)" style="stroke:#000000; stroke-width:0.5; stroke-opacity:0.1; fill:none" points="
  26.8443,34.5811 468.189,34.5811 
  "/>
<polyline clip-path="url(#clip510)" style="stroke:#000000; stroke-width:1; stroke-opacity:1; fill:none" points="
  26.8443,258.408 26.8443,27.537 
  "/>
<polyline clip-path="url(#clip510)" style="stroke:#000000; stroke-width:1; stroke-opacity:1; fill:none" points="
  26.8443,252.137 32.1404,252.137 
  "/>
<polyline clip-path="url(#clip510)" style="stroke:#000000; stroke-width:1; stroke-opacity:1; fill:none" points="
  26.8443,197.748 32.1404,197.748 
  "/>
<polyline clip-path="url(#clip510)" style="stroke:#000000; stroke-width:1; stroke-opacity:1; fill:none" points="
  26.8443,143.359 32.1404,143.359 
  "/>
<polyline clip-path="url(#clip510)" style="stroke:#000000; stroke-width:1; stroke-opacity:1; fill:none" points="
  26.8443,88.9702 32.1404,88.9702 
  "/>
<polyline clip-path="url(#clip510)" style="stroke:#000000; stroke-width:1; stroke-opacity:1; fill:none" points="
  26.8443,34.5811 32.1404,34.5811 
  "/>
<path clip-path="url(#clip510)" d="M 0 0 M16.6582 248.587 Q15.7554 248.587 15.2983 249.478 Q14.8469 250.364 14.8469 252.146 Q14.8469 253.923 15.2983 254.814 Q15.7554 255.699 16.6582 255.699 Q17.5668 255.699 18.0181 254.814 Q18.4753 253.923 18.4753 252.146 Q18.4753 250.364 18.0181 249.478 Q17.5668 248.587 16.6582 248.587 M16.6582 247.661 Q18.1107 247.661 18.8746 248.813 Q19.6443 249.959 19.6443 252.146 Q19.6443 254.328 18.8746 255.479 Q18.1107 256.625 16.6582 256.625 Q15.2057 256.625 14.436 255.479 Q13.6721 254.328 13.6721 252.146 Q13.6721 249.959 14.436 248.813 Q15.2057 247.661 16.6582 247.661 Z" fill="#000000" fill-rule="evenodd" fill-opacity="1" /><path clip-path="url(#clip510)" d="M 0 0 M15.5645 201.084 L19.6443 201.084 L19.6443 202.068 L14.1582 202.068 L14.1582 201.084 Q14.8237 200.396 15.9695 199.238 Q17.1212 198.075 17.4163 197.74 Q17.9776 197.109 18.1975 196.675 Q18.4232 196.235 18.4232 195.813 Q18.4232 195.124 17.9371 194.69 Q17.4568 194.256 16.6813 194.256 Q16.1316 194.256 15.5182 194.447 Q14.9105 194.638 14.2161 195.025 L14.2161 193.845 Q14.9221 193.561 15.5355 193.417 Q16.1489 193.272 16.6582 193.272 Q18.0008 193.272 18.7994 193.943 Q19.598 194.615 19.598 195.737 Q19.598 196.27 19.3955 196.75 Q19.1987 197.225 18.6721 197.873 Q18.5274 198.041 17.7519 198.845 Q16.9765 199.644 15.5645 201.084 Z" fill="#000000" fill-rule="evenodd" fill-opacity="1" /><path clip-path="url(#clip510)" d="M 0 0 M17.2485 140.058 L14.2971 144.67 L17.2485 144.67 L17.2485 140.058 M16.9418 139.039 L18.4117 139.039 L18.4117 144.67 L19.6443 144.67 L19.6443 145.642 L18.4117 145.642 L18.4117 147.679 L17.2485 147.679 L17.2485 145.642 L13.348 145.642 L13.348 144.514 L16.9418 139.039 Z" fill="#000000" fill-rule="evenodd" fill-opacity="1" /><path clip-path="url(#clip510)" d="M 0 0 M16.7624 88.5043 Q15.9753 88.5043 15.5124 89.0425 Q15.0552 89.5807 15.0552 90.5182 Q15.0552 91.4499 15.5124 91.9939 Q15.9753 92.5321 16.7624 92.5321 Q17.5494 92.5321 18.0066 91.9939 Q18.4695 91.4499 18.4695 90.5182 Q18.4695 89.5807 18.0066 89.0425 Q17.5494 88.5043 16.7624 88.5043 M19.083 84.8411 L19.083 85.9059 Q18.6431 85.6976 18.1918 85.5877 Q17.7462 85.4777 17.3063 85.4777 Q16.1489 85.4777 15.5355 86.2589 Q14.9279 87.0402 14.8411 88.62 Q15.1825 88.1166 15.6976 87.8504 Q16.2126 87.5784 16.8318 87.5784 Q18.1339 87.5784 18.8862 88.3712 Q19.6443 89.1582 19.6443 90.5182 Q19.6443 91.8492 18.8573 92.6536 Q18.0702 93.458 16.7624 93.458 Q15.2635 93.458 14.4707 92.3122 Q13.6779 91.1605 13.6779 88.9788 Q13.6779 86.9302 14.6501 85.715 Q15.6223 84.4939 17.26 84.4939 Q17.6999 84.4939 18.1455 84.5807 Q18.5968 84.6675 19.083 84.8411 Z" fill="#000000" fill-rule="evenodd" fill-opacity="1" /><path clip-path="url(#clip510)" d="M 0 0 M16.6813 34.7981 Q15.848 34.7981 15.3677 35.2437 Q14.8932 35.6893 14.8932 36.4706 Q14.8932 37.2518 15.3677 37.6974 Q15.848 38.143 16.6813 38.143 Q17.5147 38.143 17.995 37.6974 Q18.4753 37.246 18.4753 36.4706 Q18.4753 35.6893 17.995 35.2437 Q17.5205 34.7981 16.6813 34.7981 M15.5124 34.3004 Q14.7601 34.1152 14.3376 33.6002 Q13.9209 33.0852 13.9209 32.3444 Q13.9209 31.3085 14.6559 30.7067 Q15.3966 30.1048 16.6813 30.1048 Q17.9718 30.1048 18.7068 30.7067 Q19.4417 31.3085 19.4417 32.3444 Q19.4417 33.0852 19.0193 33.6002 Q18.6026 34.1152 17.8561 34.3004 Q18.701 34.4972 19.1698 35.0701 Q19.6443 35.643 19.6443 36.4706 Q19.6443 37.7263 18.8746 38.3976 Q18.1107 39.0689 16.6813 39.0689 Q15.252 39.0689 14.4823 38.3976 Q13.7184 37.7263 13.7184 36.4706 Q13.7184 35.643 14.1929 35.0701 Q14.6675 34.4972 15.5124 34.3004 M15.0841 32.4544 Q15.0841 33.1257 15.5008 33.5018 Q15.9232 33.878 16.6813 33.878 Q17.4337 33.878 17.8561 33.5018 Q18.2843 33.1257 18.2843 32.4544 Q18.2843 31.7831 17.8561 31.4069 Q17.4337 31.0308 16.6813 31.0308 Q15.9232 31.0308 15.5008 31.4069 Q15.0841 31.7831 15.0841 32.4544 Z" fill="#000000" fill-rule="evenodd" fill-opacity="1" /><g clip-path="url(#clip510)">
<text style="fill:#000000; fill-opacity:1; font-family:Arial,Helvetica Neue,Helvetica,sans-serif; font-size:18px; font-weight:bold; text-anchor:middle;" transform="rotate(0, 247.517, 15.6)" x="247.517" y="15.6">Predator-prey solution</text>
</g>
<polyline clip-path="url(#clip512)" style="stroke:#009af9; stroke-width:2; stroke-opacity:1; fill:none" points="
  26.8443,224.943 27.2861,223.451 27.7279,221.887 28.1697,220.248 28.6114,218.533 29.0532,216.74 29.495,214.865 29.9368,212.908 30.3786,210.866 30.8204,208.737 
  31.2622,206.521 31.7039,204.215 32.1457,201.818 32.5875,199.331 33.0293,196.751 33.4711,194.079 33.9129,191.315 34.3547,188.459 34.7965,185.512 35.2382,182.475 
  35.68,179.35 36.1218,176.139 36.5636,172.843 37.0054,169.467 37.4472,166.013 37.889,162.485 38.3307,158.887 38.7725,155.224 39.2143,151.502 39.6561,147.725 
  40.0979,143.9 40.5397,140.033 40.9815,136.131 41.4232,132.2 41.865,128.248 42.3068,124.283 42.7486,120.312 43.1904,116.343 43.6322,112.384 44.074,108.443 
  44.5158,104.527 44.9575,100.645 45.3993,96.8048 45.8411,93.0138 46.2829,89.28 46.7247,85.6107 47.1665,82.0132 47.6083,78.4945 48.05,75.0615 48.4918,71.7211 
  48.9336,68.4796 49.3754,65.3435 49.8172,62.3187 50.259,59.4113 50.7008,56.6272 51.1425,53.9722 51.5843,51.4519 52.0261,49.0721 52.4679,46.8389 52.9097,44.7589 
  53.3515,42.8386 53.7933,41.0853 54.2351,39.5062 54.6768,38.109 55.1186,36.9017 55.5604,35.8933 56.0022,35.0941 56.444,34.5154 56.8858,34.1697 57.3276,34.0711 
  57.7693,34.2351 58.2111,34.6787 58.6529,35.42 59.0947,36.4788 59.5365,37.8763 59.9783,39.6348 60.4201,41.7746 60.8619,44.3276 61.3036,47.3283 61.7454,50.8099 
  62.1872,54.8035 62.629,59.339 63.0708,64.4446 63.5126,70.1467 63.9544,76.4702 64.3961,83.4386 64.8379,91.0734 65.2797,99.3856 65.7215,108.361 66.1633,117.958 
  66.6051,128.105 67.0469,138.703 67.4886,149.623 67.9304,160.708 68.3722,171.771 68.814,182.607 69.2558,192.989 69.6976,202.62 70.1394,211.276 70.5812,218.827 
  71.0229,225.233 71.4647,230.544 71.9065,234.895 72.3483,238.384 72.7901,241.137 73.2319,243.288 73.6737,244.966 74.1154,246.274 74.5572,247.296 74.999,248.098 
  75.4408,248.731 75.8826,249.233 76.3244,249.635 76.7662,249.958 77.208,250.22 77.6497,250.434 78.0915,250.609 78.5333,250.754 78.9751,250.874 79.4169,250.974 
  79.8587,251.058 80.3005,251.128 80.7422,251.187 81.184,251.237 81.6258,251.278 82.0676,251.313 82.5094,251.342 82.9512,251.365 83.393,251.384 83.8347,251.399 
  84.2765,251.411 84.7183,251.419 85.1601,251.424 85.6019,251.426 86.0437,251.426 86.4855,251.424 86.9273,251.419 87.369,251.412 87.8108,251.403 88.2526,251.391 
  88.6944,251.378 89.1362,251.362 89.578,251.345 90.0198,251.325 90.4615,251.303 90.9033,251.279 91.3451,251.253 91.7869,251.224 92.2287,251.193 92.6705,251.159 
  93.1123,251.123 93.5541,251.084 93.9958,251.042 94.4376,250.997 94.8794,250.949 95.3212,250.898 95.763,250.843 96.2048,250.785 96.6466,250.723 97.0883,250.656 
  97.5301,250.586 97.9719,250.511 98.4137,250.431 98.8555,250.346 99.2973,250.256 99.7391,250.16 100.181,250.058 100.623,249.949 101.064,249.834 101.506,249.712 
  101.948,249.583 102.39,249.445 102.832,249.299 103.273,249.144 103.715,248.98 104.157,248.806 104.599,248.622 105.04,248.426 105.482,248.218 105.924,247.998 
  106.366,247.765 106.808,247.518 107.249,247.256 107.691,246.979 108.133,246.685 108.575,246.374 109.017,246.045 109.458,245.696 109.9,245.327 110.342,244.936 
  110.784,244.523 111.226,244.086 111.667,243.623 112.109,243.134 112.551,242.617 112.993,242.07 113.434,241.492 113.876,240.881 114.318,240.237 114.76,239.556 
  115.202,238.837 115.643,238.079 116.085,237.28 116.527,236.436 116.969,235.548 117.411,234.611 117.852,233.624 118.294,232.586 118.736,231.493 119.178,230.344 
  119.619,229.136 120.061,227.867 120.503,226.535 120.945,225.137 121.387,223.671 121.828,222.136 122.27,220.527 122.712,218.844 123.154,217.083 123.596,215.243 
  124.037,213.322 124.479,211.318 124.921,209.23 125.363,207.057 125.804,204.796 126.246,202.448 126.688,200.011 127.13,197.484 127.572,194.868 128.013,192.162 
  128.455,189.366 128.897,186.482 129.339,183.51 129.781,180.453 130.222,177.313 130.664,174.091 131.106,170.792 131.548,167.418 131.989,163.973 132.431,160.462 
  132.873,156.889 133.315,153.26 133.757,149.58 134.198,145.855 134.64,142.092 135.082,138.298 135.524,134.479 135.966,130.643 136.407,126.799 136.849,122.954 
  137.291,119.118 137.733,115.299 138.174,111.505 138.616,107.746 139.058,104.029 139.5,100.365 139.942,96.7602 140.383,93.2251 140.825,89.7682 141.267,86.3983 
  141.709,83.1244 142.151,79.9555 142.592,76.9007 143.034,73.9688 143.476,71.1679 143.918,68.507 144.359,65.9952 144.801,63.6423 145.243,61.4583 145.685,59.4541 
  146.127,57.6407 146.568,56.0299 147.01,54.6336 147.452,53.4645 147.894,52.5358 148.336,51.8609 148.777,51.4539 149.219,51.3277 149.661,51.4954 150.103,51.9823 
  150.545,52.8145 150.986,54.0181 151.428,55.6191 151.87,57.643 152.312,60.1155 152.753,63.0617 153.195,66.5069 153.637,70.4759 154.079,74.9935 154.521,80.0844 
  154.962,85.7727 155.404,92.0828 155.846,99.0256 156.288,106.601 156.73,114.795 157.171,123.569 157.613,132.861 158.055,142.585 158.497,152.629 158.938,162.856 
  159.38,173.139 159.822,183.24 160.264,192.892 160.706,201.883 161.147,210.058 161.589,217.312 162.031,223.599 162.473,228.925 162.915,233.337 163.356,236.927 
  163.798,239.807 164.24,242.094 164.682,243.907 165.123,245.341 165.565,246.475 166.007,247.374 166.449,248.091 166.891,248.665 167.332,249.127 167.774,249.502 
  168.216,249.808 168.658,250.059 169.1,250.266 169.541,250.437 169.983,250.579 170.425,250.698 170.867,250.799 171.308,250.883 171.75,250.954 172.192,251.013 
  172.634,251.063 173.076,251.104 173.517,251.139 173.959,251.167 174.401,251.19 174.843,251.207 175.285,251.221 175.726,251.23 176.168,251.236 176.61,251.238 
  177.052,251.237 177.493,251.234 177.935,251.227 178.377,251.217 178.819,251.205 179.261,251.191 179.702,251.173 180.144,251.153 180.586,251.13 181.028,251.105 
  181.47,251.077 181.911,251.046 182.353,251.012 182.795,250.976 183.237,250.936 183.678,250.893 184.12,250.847 184.562,250.797 185.004,250.744 185.446,250.686 
  185.887,250.625 186.329,250.56 186.771,250.491 187.213,250.416 187.655,250.337 188.096,250.253 188.538,250.163 188.98,250.068 189.422,249.966 189.864,249.859 
  190.305,249.744 190.747,249.622 191.189,249.493 191.631,249.356 192.072,249.21 192.514,249.056 192.956,248.892 193.398,248.718 193.84,248.533 194.281,248.338 
  194.723,248.13 195.165,247.911 195.607,247.678 196.049,247.431 196.49,247.169 196.932,246.892 197.374,246.599 197.816,246.288 198.257,245.959 198.699,245.61 
  199.141,245.241 199.583,244.851 200.025,244.438 200.466,244.001 200.908,243.539 201.35,243.051 201.792,242.535 202.234,241.989 202.675,241.412 203.117,240.803 
  203.559,240.16 204.001,239.481 204.442,238.764 204.884,238.008 205.326,237.21 205.768,236.369 206.21,235.483 206.651,234.549 207.093,233.566 207.535,232.532 
  207.977,231.443 208.419,230.299 208.86,229.096 209.302,227.833 209.744,226.506 210.186,225.115 210.627,223.655 211.069,222.126 211.511,220.525 211.953,218.85 
  212.395,217.099 212.836,215.269 213.278,213.36 213.72,211.369 214.162,209.295 214.604,207.136 215.045,204.891 215.487,202.559 215.929,200.139 216.371,197.629 
  216.812,195.031 217.254,192.345 217.696,189.57 218.138,186.709 218.58,183.762 219.021,180.731 219.463,177.618 219.905,174.426 220.347,171.158 220.789,167.817 
  221.23,164.407 221.672,160.931 222.114,157.394 222.556,153.802 222.997,150.162 223.439,146.48 223.881,142.762 224.323,139.017 224.765,135.251 225.206,131.472 
  225.648,127.687 226.09,123.905 226.532,120.135 226.974,116.384 227.415,112.662 227.857,108.977 228.299,105.34 228.741,101.759 229.182,98.2449 229.624,94.8068 
  230.066,91.4535 230.508,88.1944 230.95,85.0391 231.391,81.9975 231.833,79.0795 232.275,76.2954 232.717,73.6556 233.159,71.1709 233.6,68.852 234.042,66.7102 
  234.484,64.7567 234.926,63.0032 235.368,61.4613 235.809,60.1431 236.251,59.0597 236.693,58.2252 237.135,57.6579 237.576,57.3773 238.018,57.4033 238.46,57.7567 
  238.902,58.4589 239.344,59.5324 239.785,60.9999 240.227,62.8853 240.669,65.213 241.111,68.0082 241.553,71.2969 241.994,75.1056 242.436,79.4618 242.878,84.3871 
  243.32,89.9078 243.761,96.0433 244.203,102.799 244.645,110.166 245.087,118.121 245.529,126.627 245.97,135.634 246.412,145.09 246.854,154.899 247.296,164.851 
  247.738,174.748 248.179,184.403 248.621,193.644 249.063,202.314 249.505,210.271 249.946,217.386 250.388,223.549 250.83,228.764 251.272,233.106 251.714,236.657 
  252.155,239.516 252.597,241.801 253.039,243.629 253.481,245.083 253.923,246.237 254.364,247.153 254.806,247.884 255.248,248.474 255.69,248.952 256.131,249.34 
  256.573,249.657 257.015,249.919 257.457,250.135 257.899,250.314 258.34,250.464 258.782,250.588 259.224,250.693 259.666,250.782 260.108,250.856 260.549,250.919 
  260.991,250.972 261.433,251.015 261.875,251.052 262.316,251.081 262.758,251.105 263.2,251.123 263.642,251.137 264.084,251.147 264.525,251.152 264.967,251.154 
  265.409,251.153 265.851,251.148 266.293,251.14 266.734,251.129 267.176,251.115 267.618,251.099 268.06,251.079 268.501,251.057 268.943,251.032 269.385,251.003 
  269.827,250.972 270.269,250.938 270.71,250.901 271.152,250.86 271.594,250.816 272.036,250.769 272.478,250.718 272.919,250.663 273.361,250.604 273.803,250.541 
  274.245,250.474 274.687,250.402 275.128,250.325 275.57,250.243 276.012,250.156 276.454,250.063 276.895,249.965 277.337,249.86 277.779,249.748 278.221,249.629 
  278.663,249.503 279.104,249.369 279.546,249.227 279.988,249.076 280.43,248.916 280.872,248.746 281.313,248.566 281.755,248.375 282.197,248.173 282.639,247.958 
  283.08,247.73 283.522,247.489 283.964,247.233 284.406,246.962 284.848,246.675 285.289,246.372 285.731,246.05 286.173,245.709 286.615,245.349 287.057,244.967 
  287.498,244.563 287.94,244.136 288.382,243.685 288.824,243.207 289.265,242.702 289.707,242.169 290.149,241.605 290.591,241.009 291.033,240.38 291.474,239.715 
  291.916,239.014 292.358,238.274 292.8,237.494 293.242,236.671 293.683,235.804 294.125,234.891 294.567,233.929 295.009,232.916 295.45,231.851 295.892,230.73 
  296.334,229.552 296.776,228.315 297.218,227.015 297.659,225.652 298.101,224.222 298.543,222.724 298.985,221.155 299.427,219.513 299.868,217.796 300.31,216.003 
  300.752,214.131 301.194,212.177 301.635,210.141 302.077,208.02 302.519,205.814 302.961,203.522 303.403,201.142 303.844,198.675 304.286,196.119 304.728,193.477 
  305.17,190.747 305.612,187.931 306.053,185.029 306.495,182.042 306.937,178.973 307.379,175.823 307.82,172.596 308.262,169.295 308.704,165.924 309.146,162.488 
  309.588,158.992 310.029,155.441 310.471,151.839 310.913,148.194 311.355,144.512 311.797,140.799 312.238,137.063 312.68,133.311 313.122,129.551 313.564,125.791 
  314.005,122.041 314.447,118.31 314.889,114.605 315.331,110.937 315.773,107.314 316.214,103.746 316.656,100.243 317.098,96.815 317.54,93.4711 317.982,90.2217 
  318.423,87.0767 318.865,84.0463 319.307,81.1407 319.749,78.3703 320.191,75.7455 320.632,73.2767 321.074,70.9747 321.516,68.85 321.958,66.9135 322.399,65.1773 
  322.841,63.6551 323.283,62.3612 323.725,61.311 324.167,60.5208 324.608,60.0078 325.05,59.7901 325.492,59.8867 325.934,60.3176 326.376,61.1036 326.817,62.2665 
  327.259,63.829 327.701,65.8148 328.143,68.2478 328.584,71.1507 329.026,74.5584 329.468,78.5034 329.91,83.0115 330.352,88.1017 330.793,93.7865 331.235,100.072 
  331.677,106.956 332.119,114.433 332.561,122.486 333.002,131.103 333.444,140.207 333.886,149.666 334.328,159.339 334.769,169.08 335.211,178.734 335.653,188.138 
  336.095,197.125 336.537,205.517 336.978,213.133 337.42,219.806 337.862,225.545 338.304,230.393 338.746,234.408 339.187,237.675 339.629,240.301 340.071,242.409 
  340.513,244.091 340.954,245.43 341.396,246.495 341.838,247.346 342.28,248.031 342.722,248.583 343.163,249.031 343.605,249.397 344.047,249.697 344.489,249.945 
  344.931,250.15 345.372,250.32 345.814,250.463 346.256,250.583 346.698,250.684 347.139,250.769 347.581,250.84 348.023,250.9 348.465,250.95 348.907,250.992 
  349.348,251.026 349.79,251.054 350.232,251.076 350.674,251.093 351.116,251.105 351.557,251.113 351.999,251.117 352.441,251.118 352.883,251.115 353.324,251.108 
  353.766,251.099 354.208,251.086 354.65,251.071 355.092,251.052 355.533,251.031 355.975,251.006 356.417,250.979 356.859,250.948 357.301,250.914 357.742,250.878 
  358.184,250.838 358.626,250.794 359.068,250.747 359.51,250.696 359.951,250.642 360.393,250.583 360.835,250.52 361.277,250.453 361.718,250.381 362.16,250.305 
  362.602,250.223 363.044,250.136 363.486,250.043 363.927,249.945 364.369,249.84 364.811,249.728 365.253,249.609 365.695,249.483 366.136,249.349 366.578,249.207 
  367.02,249.056 367.462,248.896 367.903,248.726 368.345,248.546 368.787,248.355 369.229,248.152 369.671,247.937 370.112,247.709 370.554,247.467 370.996,247.211 
  371.438,246.94 371.88,246.653 372.321,246.349 372.763,246.027 373.205,245.686 373.647,245.325 374.088,244.944 374.53,244.539 374.972,244.112 375.414,243.66 
  375.856,243.182 376.297,242.677 376.739,242.143 377.181,241.578 377.623,240.982 378.065,240.352 378.506,239.688 378.948,238.986 379.39,238.246 379.832,237.466 
  380.273,236.643 380.715,235.775 381.157,234.862 381.599,233.899 382.041,232.886 382.482,231.82 382.924,230.699 383.366,229.521 383.808,228.284 384.25,226.984 
  384.691,225.621 385.133,224.192 385.575,222.695 386.017,221.126 386.458,219.484 386.9,217.768 387.342,215.974 387.784,214.101 388.226,212.147 388.667,210.111 
  389.109,207.991 389.551,205.787 389.993,203.497 390.435,201.12 390.876,198.655 391.318,196.103 391.76,193.463 392.202,190.735 392.643,187.921 393.085,185.021 
  393.527,182.037 393.969,178.971 394.411,175.825 394.852,172.603 395.294,169.308 395.736,165.944 396.178,162.515 396.62,159.025 397.061,155.48 397.503,151.885 
  397.945,148.247 398.387,144.572 398.829,140.866 399.27,137.137 399.712,133.392 400.154,129.641 400.596,125.892 401.037,122.154 401.479,118.435 401.921,114.745 
  402.363,111.092 402.805,107.487 403.246,103.938 403.688,100.455 404.13,97.048 404.572,93.7264 405.014,90.5003 405.455,87.3799 405.897,84.3754 406.339,81.497 
  406.781,78.7546 407.222,76.1586 407.664,73.72 408.106,71.4501 408.548,69.3612 408.99,67.466 409.431,65.7776 409.873,64.31 410.315,63.0776 410.757,62.0954 
  411.199,61.3791 411.64,60.9449 412.082,60.8095 412.524,60.9904 412.966,61.4997 413.407,62.3582 413.849,63.6 414.291,65.2565 414.733,67.357 415.175,69.9284 
  415.616,72.9952 416.058,76.5796 416.5,80.7015 416.942,85.3783 417.384,90.6253 417.825,96.4551 418.267,102.878 418.709,109.903 419.151,117.538 419.592,125.801 
  420.034,134.598 420.476,143.801 420.918,153.281 421.36,162.902 421.801,172.522 422.243,181.996 422.685,191.174 423.127,199.9 423.569,208.015 424.01,215.353 
  424.452,221.745 424.894,227.169 425.336,231.721 425.777,235.472 426.219,238.517 426.661,240.969 427.103,242.934 427.545,244.501 427.986,245.748 428.428,246.741 
  428.87,247.538 429.312,248.18 429.754,248.699 430.195,249.122 430.637,249.468 431.079,249.752 431.521,249.987 431.962,250.182 432.404,250.344 432.846,250.481 
  433.288,250.596 433.73,250.692 434.171,250.773 434.613,250.841 435.055,250.898 435.497,250.946 435.939,250.986 436.38,251.018 436.822,251.044 437.264,251.065 
  437.706,251.08 438.147,251.091 438.589,251.098 439.031,251.101 439.473,251.1 439.915,251.096 440.356,251.088 440.798,251.077 441.24,251.063 441.682,251.046 
  442.124,251.027 442.565,251.004 443.007,250.978 443.449,250.949 443.891,250.917 444.333,250.881 444.774,250.843 445.216,250.801 445.658,250.755 446.1,250.706 
  446.541,250.653 446.983,250.596 447.425,250.535 447.867,250.47 448.309,250.4 448.75,250.325 449.192,250.246 449.634,250.161 450.076,250.071 450.518,249.974 
  450.959,249.872 451.401,249.763 451.843,249.647 452.285,249.524 452.726,249.393 453.168,249.254 453.61,249.106 454.052,248.95 454.494,248.784 454.935,248.607 
  455.377,248.42 455.819,248.222 456.261,248.012 456.703,247.789 457.144,247.553 457.586,247.303 458.028,247.037 458.47,246.756 458.911,246.459 459.353,246.144 
  459.795,245.81 460.237,245.457 460.679,245.084 461.12,244.688 461.562,244.27 462.004,243.827 462.446,243.359 462.888,242.865 463.329,242.342 463.771,241.789 
  464.213,241.205 464.655,240.589 465.096,239.938 465.538,239.251 465.98,238.526 466.422,237.761 466.864,236.955 467.305,236.104 467.747,235.209 468.189,234.265 
  
  "/>
<polyline clip-path="url(#clip512)" style="stroke:#e26f46; stroke-width:2; stroke-opacity:1; fill:none" points="
  26.8443,251.865 27.2861,251.868 27.7279,251.871 28.1697,251.873 28.6114,251.874 29.0532,251.874 29.495,251.874 29.9368,251.874 30.3786,251.872 30.8204,251.87 
  31.2622,251.868 31.7039,251.865 32.1457,251.861 32.5875,251.856 33.0293,251.85 33.4711,251.844 33.9129,251.836 34.3547,251.828 34.7965,251.818 35.2382,251.808 
  35.68,251.796 36.1218,251.783 36.5636,251.769 37.0054,251.753 37.4472,251.735 37.889,251.716 38.3307,251.694 38.7725,251.67 39.2143,251.644 39.6561,251.616 
  40.0979,251.584 40.5397,251.55 40.9815,251.511 41.4232,251.469 41.865,251.423 42.3068,251.372 42.7486,251.316 43.1904,251.255 43.6322,251.187 44.074,251.112 
  44.5158,251.029 44.9575,250.938 45.3993,250.838 45.8411,250.727 46.2829,250.604 46.7247,250.469 47.1665,250.319 47.6083,250.154 48.05,249.971 48.4918,249.768 
  48.9336,249.545 49.3754,249.297 49.8172,249.022 50.259,248.718 50.7008,248.381 51.1425,248.008 51.5843,247.595 52.0261,247.138 52.4679,246.63 52.9097,246.068 
  53.3515,245.445 53.7933,244.754 54.2351,243.988 54.6768,243.139 55.1186,242.198 55.5604,241.157 56.0022,240.005 56.444,238.729 56.8858,237.317 57.3276,235.755 
  57.7693,234.028 58.2111,232.12 58.6529,230.014 59.0947,227.692 59.5365,225.135 59.9783,222.323 60.4201,219.24 60.8619,215.86 61.3036,212.156 61.7454,208.103 
  62.1872,203.686 62.629,198.888 63.0708,193.702 63.5126,188.122 63.9544,182.148 64.3961,175.785 64.8379,169.041 65.2797,161.93 65.7215,154.523 66.1633,146.925 
  66.6051,139.258 67.0469,131.667 67.4886,124.315 67.9304,117.388 68.3722,111.089 68.814,105.637 69.2558,101.252 69.6976,98.1737 70.1394,96.5504 70.5812,96.4249 
  71.0229,97.7354 71.4647,100.315 71.9065,103.905 72.3483,108.313 72.7901,113.343 73.2319,118.796 73.6737,124.493 74.1154,130.295 74.5572,136.103 74.999,141.836 
  75.4408,147.439 75.8826,152.874 76.3244,158.116 76.7662,163.149 77.208,167.964 77.6497,172.558 78.0915,176.934 78.5333,181.093 78.9751,185.042 79.4169,188.785 
  79.8587,192.331 80.3005,195.689 80.7422,198.865 81.184,201.869 81.6258,204.708 82.0676,207.39 82.5094,209.924 82.9512,212.316 83.393,214.575 83.8347,216.707 
  84.2765,218.718 84.7183,220.616 85.1601,222.407 85.6019,224.096 86.0437,225.69 86.4855,227.193 86.9273,228.61 87.369,229.946 87.8108,231.206 88.2526,232.394 
  88.6944,233.514 89.1362,234.57 89.578,235.566 90.0198,236.505 90.4615,237.39 90.9033,238.223 91.3451,239.009 91.7869,239.75 92.2287,240.448 92.6705,241.106 
  93.1123,241.727 93.5541,242.311 93.9958,242.863 94.4376,243.382 94.8794,243.871 95.3212,244.332 95.763,244.767 96.2048,245.177 96.6466,245.562 97.0883,245.926 
  97.5301,246.269 97.9719,246.592 98.4137,246.896 98.8555,247.183 99.2973,247.453 99.7391,247.708 100.181,247.947 100.623,248.173 101.064,248.386 101.506,248.587 
  101.948,248.776 102.39,248.954 102.832,249.121 103.273,249.279 103.715,249.428 104.157,249.568 104.599,249.7 105.04,249.824 105.482,249.941 105.924,250.052 
  106.366,250.155 106.808,250.253 107.249,250.345 107.691,250.431 108.133,250.513 108.575,250.589 109.017,250.661 109.458,250.729 109.9,250.793 110.342,250.853 
  110.784,250.909 111.226,250.961 111.667,251.011 112.109,251.058 112.551,251.101 112.993,251.142 113.434,251.18 113.876,251.216 114.318,251.249 114.76,251.281 
  115.202,251.31 115.643,251.337 116.085,251.362 116.527,251.385 116.969,251.407 117.411,251.427 117.852,251.445 118.294,251.461 118.736,251.476 119.178,251.49 
  119.619,251.502 120.061,251.513 120.503,251.523 120.945,251.531 121.387,251.537 121.828,251.543 122.27,251.547 122.712,251.55 123.154,251.551 123.596,251.552 
  124.037,251.551 124.479,251.548 124.921,251.544 125.363,251.539 125.804,251.532 126.246,251.523 126.688,251.513 127.13,251.501 127.572,251.487 128.013,251.471 
  128.455,251.453 128.897,251.433 129.339,251.41 129.781,251.385 130.222,251.356 130.664,251.325 131.106,251.291 131.548,251.253 131.989,251.212 132.431,251.166 
  132.873,251.115 133.315,251.059 133.757,250.998 134.198,250.93 134.64,250.856 135.082,250.774 135.524,250.684 135.966,250.585 136.407,250.476 136.849,250.356 
  137.291,250.224 137.733,250.08 138.174,249.921 138.616,249.747 139.058,249.554 139.5,249.342 139.942,249.108 140.383,248.849 140.825,248.563 141.267,248.248 
  141.709,247.9 142.151,247.515 142.592,247.092 143.034,246.624 143.476,246.107 143.918,245.538 144.359,244.909 144.801,244.214 145.243,243.447 145.685,242.599 
  146.127,241.662 146.568,240.627 147.01,239.483 147.452,238.22 147.894,236.826 148.336,235.289 148.777,233.596 149.219,231.735 149.661,229.697 150.103,227.456 
  150.545,224.991 150.986,222.278 151.428,219.299 151.87,216.035 152.312,212.469 152.753,208.589 153.195,204.382 153.637,199.837 154.079,194.947 154.521,189.703 
  154.962,184.103 155.404,178.143 155.846,171.838 156.288,165.232 156.73,158.383 157.171,151.372 157.613,144.3 158.055,137.292 158.497,130.491 158.938,124.065 
  159.38,118.172 159.822,113.049 160.264,108.938 160.706,106.009 161.147,104.361 161.589,104.017 162.031,104.934 162.473,106.993 162.915,110.049 163.356,113.924 
  163.798,118.432 164.24,123.39 164.682,128.624 165.123,134.009 165.565,139.443 166.007,144.844 166.449,150.152 166.891,155.325 167.332,160.335 167.774,165.16 
  168.216,169.791 168.658,174.22 169.1,178.448 169.541,182.474 169.983,186.303 170.425,189.938 170.867,193.386 171.308,196.654 171.75,199.749 172.192,202.678 
  172.634,205.449 173.076,208.069 173.517,210.546 173.959,212.886 174.401,215.096 174.843,217.184 175.285,219.155 175.726,221.015 176.168,222.771 176.61,224.429 
  177.052,225.992 177.493,227.468 177.935,228.86 178.377,230.173 178.819,231.411 179.261,232.579 179.702,233.68 180.144,234.719 180.586,235.699 181.028,236.623 
  181.47,237.494 181.911,238.315 182.353,239.089 182.795,239.819 183.237,240.507 183.678,241.156 184.12,241.767 184.562,242.343 185.004,242.887 185.446,243.399 
  185.887,243.882 186.329,244.337 186.771,244.766 187.213,245.17 187.655,245.551 188.096,245.91 188.538,246.248 188.98,246.567 189.422,246.868 189.864,247.151 
  190.305,247.418 190.747,247.669 191.189,247.906 191.631,248.13 192.072,248.34 192.514,248.538 192.956,248.725 193.398,248.901 193.84,249.066 194.281,249.222 
  194.723,249.369 195.165,249.508 195.607,249.638 196.049,249.761 196.49,249.876 196.932,249.985 197.374,250.087 197.816,250.184 198.257,250.274 198.699,250.359 
  199.141,250.44 199.583,250.515 200.025,250.586 200.466,250.652 200.908,250.714 201.35,250.773 201.792,250.828 202.234,250.879 202.675,250.927 203.117,250.972 
  203.559,251.014 204.001,251.054 204.442,251.09 204.884,251.124 205.326,251.156 205.768,251.185 206.21,251.213 206.651,251.238 207.093,251.26 207.535,251.281 
  207.977,251.301 208.419,251.318 208.86,251.333 209.302,251.347 209.744,251.359 210.186,251.369 210.627,251.378 211.069,251.385 211.511,251.39 211.953,251.393 
  212.395,251.395 212.836,251.396 213.278,251.394 213.72,251.391 214.162,251.386 214.604,251.379 215.045,251.37 215.487,251.359 215.929,251.347 216.371,251.331 
  216.812,251.314 217.254,251.294 217.696,251.272 218.138,251.246 218.58,251.218 219.021,251.187 219.463,251.151 219.905,251.112 220.347,251.069 220.789,251.021 
  221.23,250.969 221.672,250.911 222.114,250.847 222.556,250.776 222.997,250.699 223.439,250.614 223.881,250.521 224.323,250.418 224.765,250.306 225.206,250.184 
  225.648,250.048 226.09,249.9 226.532,249.736 226.974,249.555 227.415,249.356 227.857,249.137 228.299,248.896 228.741,248.63 229.182,248.338 229.624,248.015 
  230.066,247.66 230.508,247.269 230.95,246.838 231.391,246.363 231.833,245.839 232.275,245.262 232.717,244.624 233.159,243.921 233.6,243.144 234.042,242.286 
  234.484,241.339 234.926,240.294 235.368,239.143 235.809,237.874 236.251,236.479 236.693,234.948 237.135,233.263 237.576,231.407 238.018,229.362 238.46,227.113 
  238.902,224.642 239.344,221.933 239.785,218.97 240.227,215.737 240.669,212.218 241.111,208.398 241.553,204.261 241.994,199.792 242.436,194.977 242.878,189.812 
  243.32,184.297 243.761,178.444 244.203,172.278 244.645,165.84 245.087,159.19 245.529,152.399 245.97,145.557 246.412,138.756 246.854,132.138 247.296,125.935 
  247.738,120.354 248.179,115.574 248.621,111.742 249.063,108.979 249.505,107.374 249.946,106.986 250.388,107.843 250.83,109.829 251.272,112.776 251.714,116.52 
  252.155,120.884 252.597,125.684 253.039,130.751 253.481,135.974 253.923,141.26 254.364,146.53 254.806,151.717 255.248,156.772 255.69,161.672 256.131,166.397 
  256.573,170.935 257.015,175.28 257.457,179.428 257.899,183.382 258.34,187.144 258.782,190.719 259.224,194.111 259.666,197.327 260.108,200.372 260.549,203.256 
  260.991,205.986 261.433,208.567 261.875,211.008 262.316,213.315 262.758,215.494 263.2,217.553 263.642,219.497 264.084,221.333 264.525,223.066 264.967,224.702 
  265.409,226.245 265.851,227.702 266.293,229.076 266.734,230.372 267.176,231.596 267.618,232.75 268.06,233.838 268.501,234.864 268.943,235.832 269.385,236.745 
  269.827,237.606 270.269,238.417 270.71,239.183 271.152,239.904 271.594,240.585 272.036,241.226 272.478,241.831 272.919,242.401 273.361,242.939 273.803,243.445 
  274.245,243.923 274.687,244.373 275.128,244.797 275.57,245.197 276.012,245.574 276.454,245.93 276.895,246.265 277.337,246.58 277.779,246.878 278.221,247.158 
  278.663,247.422 279.104,247.671 279.546,247.906 279.988,248.127 280.43,248.335 280.872,248.531 281.313,248.716 281.755,248.89 282.197,249.054 282.639,249.209 
  283.08,249.354 283.522,249.491 283.964,249.62 284.406,249.741 284.848,249.855 285.289,249.963 285.731,250.064 286.173,250.159 286.615,250.249 287.057,250.333 
  287.498,250.412 287.94,250.486 288.382,250.556 288.824,250.621 289.265,250.683 289.707,250.74 290.149,250.794 290.591,250.844 291.033,250.892 291.474,250.936 
  291.916,250.977 292.358,251.015 292.8,251.051 293.242,251.084 293.683,251.114 294.125,251.143 294.567,251.169 295.009,251.192 295.45,251.214 295.892,251.234 
  296.334,251.251 296.776,251.267 297.218,251.281 297.659,251.292 298.101,251.303 298.543,251.311 298.985,251.317 299.427,251.322 299.868,251.325 300.31,251.326 
  300.752,251.325 301.194,251.322 301.635,251.318 302.077,251.311 302.519,251.302 302.961,251.291 303.403,251.278 303.844,251.263 304.286,251.245 304.728,251.224 
  305.17,251.201 305.612,251.175 306.053,251.145 306.495,251.112 306.937,251.075 307.379,251.033 307.82,250.988 308.262,250.937 308.704,250.882 309.146,250.821 
  309.588,250.754 310.029,250.681 310.471,250.6 310.913,250.512 311.355,250.415 311.797,250.308 312.238,250.19 312.68,250.06 313.122,249.918 313.564,249.761 
  314.005,249.589 314.447,249.399 314.889,249.191 315.331,248.961 315.773,248.708 316.214,248.431 316.656,248.125 317.098,247.79 317.54,247.42 317.982,247.012 
  318.423,246.563 318.865,246.068 319.307,245.521 319.749,244.917 320.191,244.25 320.632,243.515 321.074,242.705 321.516,241.812 321.958,240.83 322.399,239.749 
  322.841,238.558 323.283,237.246 323.725,235.799 324.167,234.205 324.608,232.45 325.05,230.52 325.492,228.4 325.934,226.074 326.376,223.527 326.817,220.742 
  327.259,217.7 327.701,214.385 328.143,210.778 328.584,206.866 329.026,202.629 329.468,198.051 329.91,193.127 330.352,187.859 330.793,182.261 331.235,176.352 
  331.677,170.162 332.119,163.731 332.561,157.107 333.002,150.343 333.444,143.56 333.886,136.932 334.328,130.626 334.769,124.805 335.211,119.624 335.653,115.233 
  336.095,111.775 336.537,109.389 336.978,108.206 337.42,108.32 337.862,109.611 338.304,111.937 338.746,115.153 339.187,119.094 339.629,123.58 340.071,128.428 
  340.513,133.506 340.954,138.707 341.396,143.938 341.838,149.126 342.28,154.213 342.722,159.166 343.163,163.96 343.605,168.577 344.047,173.008 344.489,177.246 
  344.931,181.292 345.372,185.147 345.814,188.813 346.256,192.295 346.698,195.598 347.139,198.729 347.581,201.696 348.023,204.505 348.465,207.163 348.907,209.677 
  349.348,212.053 349.79,214.299 350.232,216.421 350.674,218.426 351.116,220.319 351.557,222.106 351.999,223.793 352.441,225.386 352.883,226.889 353.324,228.307 
  353.766,229.646 354.208,230.908 354.65,232.099 355.092,233.223 355.533,234.283 355.975,235.282 356.417,236.225 356.859,237.114 357.301,237.953 357.742,238.743 
  358.184,239.489 358.626,240.192 359.068,240.855 359.51,241.48 359.951,242.069 360.393,242.624 360.835,243.147 361.277,243.641 361.718,244.106 362.16,244.545 
  362.602,244.958 363.044,245.348 363.486,245.715 363.927,246.062 364.369,246.388 364.811,246.695 365.253,246.985 365.695,247.258 366.136,247.516 366.578,247.758 
  367.02,247.987 367.462,248.202 367.903,248.405 368.345,248.596 368.787,248.776 369.229,248.946 369.671,249.106 370.112,249.256 370.554,249.398 370.996,249.531 
  371.438,249.657 371.88,249.775 372.321,249.886 372.763,249.991 373.205,250.089 373.647,250.182 374.088,250.269 374.53,250.35 374.972,250.427 375.414,250.499 
  375.856,250.567 376.297,250.631 376.739,250.69 377.181,250.746 377.623,250.798 378.065,250.847 378.506,250.893 378.948,250.935 379.39,250.975 379.832,251.012 
  380.273,251.046 380.715,251.078 381.157,251.107 381.599,251.133 382.041,251.158 382.482,251.18 382.924,251.201 383.366,251.219 383.808,251.235 384.25,251.249 
  384.691,251.262 385.133,251.272 385.575,251.28 386.017,251.287 386.458,251.292 386.9,251.295 387.342,251.296 387.784,251.295 388.226,251.292 388.667,251.287 
  389.109,251.281 389.551,251.272 389.993,251.26 390.435,251.247 390.876,251.231 391.318,251.212 391.76,251.19 392.202,251.166 392.643,251.138 393.085,251.107 
  393.527,251.073 393.969,251.034 394.411,250.992 394.852,250.945 395.294,250.894 395.736,250.837 396.178,250.774 396.62,250.705 397.061,250.628 397.503,250.544 
  397.945,250.452 398.387,250.351 398.829,250.239 399.27,250.117 399.712,249.982 400.154,249.834 400.596,249.671 401.037,249.493 401.479,249.298 401.921,249.083 
  402.363,248.846 402.805,248.586 403.246,248.3 403.688,247.983 404.13,247.635 404.572,247.251 405.014,246.827 405.455,246.36 405.897,245.846 406.339,245.28 
  406.781,244.656 407.222,243.968 407.664,243.211 408.106,242.376 408.548,241.456 408.99,240.441 409.431,239.322 409.873,238.089 410.315,236.731 410.757,235.234 
  411.199,233.588 411.64,231.778 412.082,229.79 412.524,227.609 412.966,225.225 413.407,222.618 413.849,219.763 414.291,216.637 414.733,213.219 415.175,209.495 
  415.616,205.455 416.058,201.091 416.5,196.401 416.942,191.386 417.384,186.051 417.825,180.406 418.267,174.465 418.709,168.244 419.151,161.763 419.592,155.035 
  420.034,148.214 420.476,141.475 420.918,134.986 421.36,128.904 421.801,123.378 422.243,118.549 422.685,114.549 423.127,111.499 423.569,109.514 424.01,108.697 
  424.452,109.143 424.894,110.773 425.336,113.391 425.777,116.839 426.219,120.945 426.661,125.529 427.103,130.431 427.545,135.531 427.986,140.725 428.428,145.925 
  428.87,151.06 429.312,156.085 429.754,160.968 430.195,165.688 430.637,170.228 431.079,174.581 431.521,178.744 431.962,182.715 432.404,186.496 432.846,190.09 
  433.288,193.503 433.73,196.741 434.171,199.81 434.613,202.717 435.055,205.469 435.497,208.073 435.939,210.535 436.38,212.863 436.822,215.063 437.264,217.141 
  437.706,219.105 438.147,220.959 438.589,222.709 439.031,224.361 439.473,225.921 439.915,227.393 440.356,228.782 440.798,230.093 441.24,231.329 441.682,232.496 
  442.124,233.596 442.565,234.634 443.007,235.613 443.449,236.536 443.891,237.407 444.333,238.228 444.774,239.003 445.216,239.733 445.658,240.421 446.1,241.07 
  446.541,241.682 446.983,242.259 447.425,242.803 447.867,243.316 448.309,243.799 448.75,244.255 449.192,244.684 449.634,245.089 450.076,245.471 450.518,245.831 
  450.959,246.17 451.401,246.489 451.843,246.791 452.285,247.075 452.726,247.342 453.168,247.594 453.61,247.832 454.052,248.056 454.494,248.266 454.935,248.465 
  455.377,248.652 455.819,248.829 456.261,248.995 456.703,249.151 457.144,249.298 457.586,249.437 458.028,249.568 458.47,249.691 458.911,249.806 459.353,249.915 
  459.795,250.018 460.237,250.114 460.679,250.204 461.12,250.289 461.562,250.369 462.004,250.445 462.446,250.515 462.888,250.581 463.329,250.643 463.771,250.702 
  464.213,250.756 464.655,250.807 465.096,250.855 465.538,250.899 465.98,250.94 466.422,250.979 466.864,251.015 467.305,251.048 467.747,251.078 468.189,251.106 
  
  "/>
<path clip-path="url(#clip510)" d="
M358.895 80.5927 L453.477 80.5927 L453.477 35.2327 L358.895 35.2327  Z
  " fill="#ffffff" fill-rule="evenodd" fill-opacity="1"/>
<polyline clip-path="url(#clip510)" style="stroke:#000000; stroke-width:1; stroke-opacity:1; fill:none" points="
  358.895,80.5927 453.477,80.5927 453.477,35.2327 358.895,35.2327 358.895,80.5927 
  "/>
<polyline clip-path="url(#clip510)" style="stroke:#009af9; stroke-width:1; stroke-opacity:1; fill:none" points="
  363.799,50.3527 393.222,50.3527 
  "/>
<path clip-path="url(#clip510)" d="M 0 0 M399.197 53.7005 L399.197 57.138 L398.126 57.138 L398.126 48.1913 L399.197 48.1913 L399.197 49.1751 Q399.532 48.5964 400.042 48.3186 Q400.557 48.035 401.268 48.035 Q402.449 48.035 403.184 48.9725 Q403.925 49.91 403.925 51.4378 Q403.925 52.9656 403.184 53.9031 Q402.449 54.8406 401.268 54.8406 Q400.557 54.8406 400.042 54.5628 Q399.532 54.2792 399.197 53.7005 M402.819 51.4378 Q402.819 50.263 402.333 49.5975 Q401.853 48.9262 401.008 48.9262 Q400.163 48.9262 399.677 49.5975 Q399.197 50.263 399.197 51.4378 Q399.197 52.6126 399.677 53.2839 Q400.163 53.9494 401.008 53.9494 Q401.853 53.9494 402.333 53.2839 Q402.819 52.6126 402.819 51.4378 Z" fill="#000000" fill-rule="evenodd" fill-opacity="1" /><path clip-path="url(#clip510)" d="M 0 0 M408.797 49.1867 Q408.618 49.0825 408.404 49.0362 Q408.195 48.9841 407.941 48.9841 Q407.038 48.9841 406.552 49.5744 Q406.072 50.1589 406.072 51.2584 L406.072 54.6727 L405.001 54.6727 L405.001 48.1913 L406.072 48.1913 L406.072 49.1982 Q406.407 48.608 406.945 48.3244 Q407.484 48.035 408.253 48.035 Q408.363 48.035 408.496 48.0524 Q408.63 48.064 408.792 48.0929 L408.797 49.1867 Z" fill="#000000" fill-rule="evenodd" fill-opacity="1" /><path clip-path="url(#clip510)" d="M 0 0 M415.198 51.1658 L415.198 51.6866 L410.302 51.6866 Q410.371 52.7862 410.962 53.3649 Q411.558 53.9378 412.617 53.9378 Q413.23 53.9378 413.803 53.7873 Q414.382 53.6369 414.949 53.3359 L414.949 54.3429 Q414.376 54.5859 413.774 54.7132 Q413.172 54.8406 412.553 54.8406 Q411.002 54.8406 410.094 53.9378 Q409.191 53.035 409.191 51.4957 Q409.191 49.9042 410.047 48.9725 Q410.91 48.035 412.368 48.035 Q413.676 48.035 414.434 48.8799 Q415.198 49.7191 415.198 51.1658 M414.133 50.8533 Q414.121 49.9795 413.641 49.4586 Q413.167 48.9378 412.379 48.9378 Q411.488 48.9378 410.95 49.4413 Q410.418 49.9448 410.337 50.8591 L414.133 50.8533 Z" fill="#000000" fill-rule="evenodd" fill-opacity="1" /><path clip-path="url(#clip510)" d="M 0 0 M419.011 55.2746 Q418.56 56.432 418.132 56.785 Q417.704 57.138 416.986 57.138 L416.135 57.138 L416.135 56.2468 L416.76 56.2468 Q417.2 56.2468 417.443 56.0385 Q417.686 55.8301 417.981 55.0547 L418.172 54.5686 L415.551 48.1913 L416.679 48.1913 L418.705 53.2607 L420.73 48.1913 L421.859 48.1913 L419.011 55.2746 Z" fill="#000000" fill-rule="evenodd" fill-opacity="1" /><polyline clip-path="url(#clip510)" style="stroke:#e26f46; stroke-width:1; stroke-opacity:1; fill:none" points="
  363.799,65.4727 393.222,65.4727 
  "/>
<path clip-path="url(#clip510)" d="M 0 0 M399.197 68.8205 L399.197 72.258 L398.126 72.258 L398.126 63.3113 L399.197 63.3113 L399.197 64.2951 Q399.532 63.7164 400.042 63.4386 Q400.557 63.155 401.268 63.155 Q402.449 63.155 403.184 64.0925 Q403.925 65.03 403.925 66.5578 Q403.925 68.0856 403.184 69.0231 Q402.449 69.9606 401.268 69.9606 Q400.557 69.9606 400.042 69.6828 Q399.532 69.3992 399.197 68.8205 M402.819 66.5578 Q402.819 65.383 402.333 64.7175 Q401.853 64.0462 401.008 64.0462 Q400.163 64.0462 399.677 64.7175 Q399.197 65.383 399.197 66.5578 Q399.197 67.7326 399.677 68.4039 Q400.163 69.0694 401.008 69.0694 Q401.853 69.0694 402.333 68.4039 Q402.819 67.7326 402.819 66.5578 Z" fill="#000000" fill-rule="evenodd" fill-opacity="1" /><path clip-path="url(#clip510)" d="M 0 0 M408.797 64.3067 Q408.618 64.2025 408.404 64.1562 Q408.195 64.1041 407.941 64.1041 Q407.038 64.1041 406.552 64.6944 Q406.072 65.2789 406.072 66.3784 L406.072 69.7927 L405.001 69.7927 L405.001 63.3113 L406.072 63.3113 L406.072 64.3182 Q406.407 63.728 406.945 63.4444 Q407.484 63.155 408.253 63.155 Q408.363 63.155 408.496 63.1724 Q408.63 63.184 408.792 63.2129 L408.797 64.3067 Z" fill="#000000" fill-rule="evenodd" fill-opacity="1" /><path clip-path="url(#clip510)" d="M 0 0 M415.198 66.2858 L415.198 66.8066 L410.302 66.8066 Q410.371 67.9062 410.962 68.4849 Q411.558 69.0578 412.617 69.0578 Q413.23 69.0578 413.803 68.9073 Q414.382 68.7569 414.949 68.4559 L414.949 69.4629 Q414.376 69.7059 413.774 69.8332 Q413.172 69.9606 412.553 69.9606 Q411.002 69.9606 410.094 69.0578 Q409.191 68.155 409.191 66.6157 Q409.191 65.0242 410.047 64.0925 Q410.91 63.155 412.368 63.155 Q413.676 63.155 414.434 63.9999 Q415.198 64.8391 415.198 66.2858 M414.133 65.9733 Q414.121 65.0995 413.641 64.5786 Q413.167 64.0578 412.379 64.0578 Q411.488 64.0578 410.95 64.5613 Q410.418 65.0648 410.337 65.9791 L414.133 65.9733 Z" fill="#000000" fill-rule="evenodd" fill-opacity="1" /><path clip-path="url(#clip510)" d="M 0 0 M420.58 64.2951 L420.58 60.7882 L421.644 60.7882 L421.644 69.7927 L420.58 69.7927 L420.58 68.8205 Q420.244 69.3992 419.729 69.6828 Q419.22 69.9606 418.502 69.9606 Q417.327 69.9606 416.587 69.0231 Q415.852 68.0856 415.852 66.5578 Q415.852 65.03 416.587 64.0925 Q417.327 63.155 418.502 63.155 Q419.22 63.155 419.729 63.4386 Q420.244 63.7164 420.58 64.2951 M416.951 66.5578 Q416.951 67.7326 417.432 68.4039 Q417.918 69.0694 418.763 69.0694 Q419.607 69.0694 420.094 68.4039 Q420.58 67.7326 420.58 66.5578 Q420.58 65.383 420.094 64.7175 Q419.607 64.0462 418.763 64.0462 Q417.918 64.0462 417.432 64.7175 Q416.951 65.383 416.951 66.5578 Z" fill="#000000" fill-rule="evenodd" fill-opacity="1" /><path clip-path="url(#clip510)" d="M 0 0 M425.707 66.5347 Q424.416 66.5347 423.919 66.8298 Q423.421 67.1249 423.421 67.8367 Q423.421 68.4039 423.791 68.7395 Q424.168 69.0694 424.81 69.0694 Q425.695 69.0694 426.228 68.4444 Q426.766 67.8136 426.766 66.7719 L426.766 66.5347 L425.707 66.5347 M427.831 66.0948 L427.831 69.7927 L426.766 69.7927 L426.766 68.8089 Q426.401 69.3992 425.857 69.6828 Q425.313 69.9606 424.526 69.9606 Q423.531 69.9606 422.941 69.405 Q422.356 68.8437 422.356 67.9062 Q422.356 66.8124 423.085 66.2569 Q423.82 65.7013 425.273 65.7013 L426.766 65.7013 L426.766 65.5972 Q426.766 64.8622 426.28 64.4629 Q425.8 64.0578 424.926 64.0578 Q424.37 64.0578 423.844 64.1909 Q423.317 64.324 422.831 64.5902 L422.831 63.6064 Q423.415 63.3807 423.965 63.2708 Q424.515 63.155 425.036 63.155 Q426.442 63.155 427.136 63.8842 Q427.831 64.6134 427.831 66.0948 Z" fill="#000000" fill-rule="evenodd" fill-opacity="1" /><path clip-path="url(#clip510)" d="M 0 0 M430.001 61.471 L430.001 63.3113 L432.194 63.3113 L432.194 64.1388 L430.001 64.1388 L430.001 67.6573 Q430.001 68.4502 430.215 68.6758 Q430.435 68.9015 431.1 68.9015 L432.194 68.9015 L432.194 69.7927 L431.1 69.7927 Q429.868 69.7927 429.399 69.3356 Q428.93 68.8726 428.93 67.6573 L428.93 64.1388 L428.149 64.1388 L428.149 63.3113 L428.93 63.3113 L428.93 61.471 L430.001 61.471 Z" fill="#000000" fill-rule="evenodd" fill-opacity="1" /><path clip-path="url(#clip510)" d="M 0 0 M435.823 64.0578 Q434.966 64.0578 434.468 64.7291 Q433.971 65.3946 433.971 66.5578 Q433.971 67.721 434.463 68.3923 Q434.96 69.0578 435.823 69.0578 Q436.673 69.0578 437.171 68.3865 Q437.669 67.7152 437.669 66.5578 Q437.669 65.4062 437.171 64.7349 Q436.673 64.0578 435.823 64.0578 M435.823 63.155 Q437.212 63.155 438.004 64.0578 Q438.797 64.9606 438.797 66.5578 Q438.797 68.1492 438.004 69.0578 Q437.212 69.9606 435.823 69.9606 Q434.428 69.9606 433.635 69.0578 Q432.848 68.1492 432.848 66.5578 Q432.848 64.9606 433.635 64.0578 Q434.428 63.155 435.823 63.155 Z" fill="#000000" fill-rule="evenodd" fill-opacity="1" /><path clip-path="url(#clip510)" d="M 0 0 M443.67 64.3067 Q443.49 64.2025 443.276 64.1562 Q443.068 64.1041 442.813 64.1041 Q441.911 64.1041 441.424 64.6944 Q440.944 65.2789 440.944 66.3784 L440.944 69.7927 L439.874 69.7927 L439.874 63.3113 L440.944 63.3113 L440.944 64.3182 Q441.28 63.728 441.818 63.4444 Q442.356 63.155 443.126 63.155 Q443.236 63.155 443.369 63.1724 Q443.502 63.184 443.664 63.2129 L443.67 64.3067 Z" fill="#000000" fill-rule="evenodd" fill-opacity="1" /></svg>
