<?xml version="1.0" encoding="utf-8"?>
<svg xmlns="http://www.w3.org/2000/svg" xmlns:xlink="http://www.w3.org/1999/xlink" width="120" height="75" viewBox="0 0 480 300">
<defs>
  <clipPath id="clip620">
    <rect x="0" y="0" width="480" height="300"/>
  </clipPath>
</defs>
<path clip-path="url(#clip620)" d="
M0 300 L480 300 L480 0 L0 0  Z
  " fill="#ffffff" fill-rule="evenodd" fill-opacity="1"/>
<defs>
  <clipPath id="clip621">
    <rect x="96" y="0" width="337" height="300"/>
  </clipPath>
</defs>
<path clip-path="url(#clip620)" d="
M40.9802 258.408 L468.189 258.408 L468.189 11.811 L40.9802 11.811  Z
  " fill="#ffffff" fill-rule="evenodd" fill-opacity="1"/>
<defs>
  <clipPath id="clip622">
    <rect x="40" y="11" width="428" height="248"/>
  </clipPath>
</defs>
<polyline clip-path="url(#clip622)" style="stroke:#000000; stroke-width:0.5; stroke-opacity:0.1; fill:none" points="
  53.0711,258.408 53.0711,11.811 
  "/>
<polyline clip-path="url(#clip622)" style="stroke:#000000; stroke-width:0.5; stroke-opacity:0.1; fill:none" points="
  153.828,258.408 153.828,11.811 
  "/>
<polyline clip-path="url(#clip622)" style="stroke:#000000; stroke-width:0.5; stroke-opacity:0.1; fill:none" points="
  254.585,258.408 254.585,11.811 
  "/>
<polyline clip-path="url(#clip622)" style="stroke:#000000; stroke-width:0.5; stroke-opacity:0.1; fill:none" points="
  355.341,258.408 355.341,11.811 
  "/>
<polyline clip-path="url(#clip622)" style="stroke:#000000; stroke-width:0.5; stroke-opacity:0.1; fill:none" points="
  456.098,258.408 456.098,11.811 
  "/>
<polyline clip-path="url(#clip620)" style="stroke:#000000; stroke-width:1; stroke-opacity:1; fill:none" points="
  40.9802,258.408 468.189,258.408 
  "/>
<polyline clip-path="url(#clip620)" style="stroke:#000000; stroke-width:1; stroke-opacity:1; fill:none" points="
  53.0711,258.408 53.0711,255.449 
  "/>
<polyline clip-path="url(#clip620)" style="stroke:#000000; stroke-width:1; stroke-opacity:1; fill:none" points="
  153.828,258.408 153.828,255.449 
  "/>
<polyline clip-path="url(#clip620)" style="stroke:#000000; stroke-width:1; stroke-opacity:1; fill:none" points="
  254.585,258.408 254.585,255.449 
  "/>
<polyline clip-path="url(#clip620)" style="stroke:#000000; stroke-width:1; stroke-opacity:1; fill:none" points="
  355.341,258.408 355.341,255.449 
  "/>
<polyline clip-path="url(#clip620)" style="stroke:#000000; stroke-width:1; stroke-opacity:1; fill:none" points="
  456.098,258.408 456.098,255.449 
  "/>
<path clip-path="url(#clip620)" d="M 0 0 M28.1898 264.746 Q27.2871 264.746 26.8299 265.637 Q26.3785 266.523 26.3785 268.305 Q26.3785 270.082 26.8299 270.973 Q27.2871 271.858 28.1898 271.858 Q29.0984 271.858 29.5498 270.973 Q30.0069 270.082 30.0069 268.305 Q30.0069 266.523 29.5498 265.637 Q29.0984 264.746 28.1898 264.746 M28.1898 263.82 Q29.6424 263.82 30.4063 264.972 Q31.1759 266.118 31.1759 268.305 Q31.1759 270.487 30.4063 271.638 Q29.6424 272.784 28.1898 272.784 Q26.7373 272.784 25.9676 271.638 Q25.2037 270.487 25.2037 268.305 Q25.2037 266.118 25.9676 264.972 Q26.7373 263.82 28.1898 263.82 Z" fill="#000000" fill-rule="evenodd" fill-opacity="1" /><path clip-path="url(#clip620)" d="M 0 0 M32.4433 271.146 L33.6643 271.146 L33.6643 272.616 L32.4433 272.616 L32.4433 271.146 Z" fill="#000000" fill-rule="evenodd" fill-opacity="1" /><path clip-path="url(#clip620)" d="M 0 0 M37.4317 264.746 Q36.5289 264.746 36.0717 265.637 Q35.6203 266.523 35.6203 268.305 Q35.6203 270.082 36.0717 270.973 Q36.5289 271.858 37.4317 271.858 Q38.3402 271.858 38.7916 270.973 Q39.2488 270.082 39.2488 268.305 Q39.2488 266.523 38.7916 265.637 Q38.3402 264.746 37.4317 264.746 M37.4317 263.82 Q38.8842 263.82 39.6481 264.972 Q40.4178 266.118 40.4178 268.305 Q40.4178 270.487 39.6481 271.638 Q38.8842 272.784 37.4317 272.784 Q35.9791 272.784 35.2095 271.638 Q34.4456 270.487 34.4456 268.305 Q34.4456 266.118 35.2095 264.972 Q35.9791 263.82 37.4317 263.82 Z" fill="#000000" fill-rule="evenodd" fill-opacity="1" /><path clip-path="url(#clip620)" d="M 0 0 M44.1851 264.746 Q43.2823 264.746 42.8252 265.637 Q42.3738 266.523 42.3738 268.305 Q42.3738 270.082 42.8252 270.973 Q43.2823 271.858 44.1851 271.858 Q45.0937 271.858 45.5451 270.973 Q46.0022 270.082 46.0022 268.305 Q46.0022 266.523 45.5451 265.637 Q45.0937 264.746 44.1851 264.746 M44.1851 263.82 Q45.6377 263.82 46.4015 264.972 Q47.1712 266.118 47.1712 268.305 Q47.1712 270.487 46.4015 271.638 Q45.6377 272.784 44.1851 272.784 Q42.7326 272.784 41.9629 271.638 Q41.199 270.487 41.199 268.305 Q41.199 266.118 41.9629 264.972 Q42.7326 263.82 44.1851 263.82 Z" fill="#000000" fill-rule="evenodd" fill-opacity="1" /><path clip-path="url(#clip620)" d="M 0 0 M50.9385 264.746 Q50.0358 264.746 49.5786 265.637 Q49.1272 266.523 49.1272 268.305 Q49.1272 270.082 49.5786 270.973 Q50.0358 271.858 50.9385 271.858 Q51.8471 271.858 52.2985 270.973 Q52.7557 270.082 52.7557 268.305 Q52.7557 266.523 52.2985 265.637 Q51.8471 264.746 50.9385 264.746 M50.9385 263.82 Q52.3911 263.82 53.155 264.972 Q53.9246 266.118 53.9246 268.305 Q53.9246 270.487 53.155 271.638 Q52.3911 272.784 50.9385 272.784 Q49.486 272.784 48.7163 271.638 Q47.9525 270.487 47.9525 268.305 Q47.9525 266.118 48.7163 264.972 Q49.486 263.82 50.9385 263.82 Z" fill="#000000" fill-rule="evenodd" fill-opacity="1" /><path clip-path="url(#clip620)" d="M 0 0 M57.692 264.746 Q56.7892 264.746 56.332 265.637 Q55.8807 266.523 55.8807 268.305 Q55.8807 270.082 56.332 270.973 Q56.7892 271.858 57.692 271.858 Q58.6005 271.858 59.0519 270.973 Q59.5091 270.082 59.5091 268.305 Q59.5091 266.523 59.0519 265.637 Q58.6005 264.746 57.692 264.746 M57.692 263.82 Q59.1445 263.82 59.9084 264.972 Q60.6781 266.118 60.6781 268.305 Q60.6781 270.487 59.9084 271.638 Q59.1445 272.784 57.692 272.784 Q56.2394 272.784 55.4698 271.638 Q54.7059 270.487 54.7059 268.305 Q54.7059 266.118 55.4698 264.972 Q56.2394 263.82 57.692 263.82 Z" fill="#000000" fill-rule="evenodd" fill-opacity="1" /><path clip-path="url(#clip620)" d="M 0 0 M64.4454 264.746 Q63.5426 264.746 63.0855 265.637 Q62.6341 266.523 62.6341 268.305 Q62.6341 270.082 63.0855 270.973 Q63.5426 271.858 64.4454 271.858 Q65.354 271.858 65.8054 270.973 Q66.2625 270.082 66.2625 268.305 Q66.2625 266.523 65.8054 265.637 Q65.354 264.746 64.4454 264.746 M64.4454 263.82 Q65.898 263.82 66.6618 264.972 Q67.4315 266.118 67.4315 268.305 Q67.4315 270.487 66.6618 271.638 Q65.898 272.784 64.4454 272.784 Q62.9929 272.784 62.2232 271.638 Q61.4593 270.487 61.4593 268.305 Q61.4593 266.118 62.2232 264.972 Q62.9929 263.82 64.4454 263.82 Z" fill="#000000" fill-rule="evenodd" fill-opacity="1" /><path clip-path="url(#clip620)" d="M 0 0 M71.1989 264.746 Q70.2961 264.746 69.8389 265.637 Q69.3875 266.523 69.3875 268.305 Q69.3875 270.082 69.8389 270.973 Q70.2961 271.858 71.1989 271.858 Q72.1074 271.858 72.5588 270.973 Q73.016 270.082 73.016 268.305 Q73.016 266.523 72.5588 265.637 Q72.1074 264.746 71.1989 264.746 M71.1989 263.82 Q72.6514 263.82 73.4153 264.972 Q74.185 266.118 74.185 268.305 Q74.185 270.487 73.4153 271.638 Q72.6514 272.784 71.1989 272.784 Q69.7463 272.784 68.9766 271.638 Q68.2128 270.487 68.2128 268.305 Q68.2128 266.118 68.9766 264.972 Q69.7463 263.82 71.1989 263.82 Z" fill="#000000" fill-rule="evenodd" fill-opacity="1" /><path clip-path="url(#clip620)" d="M 0 0 M77.9523 264.746 Q77.0495 264.746 76.5923 265.637 Q76.141 266.523 76.141 268.305 Q76.141 270.082 76.5923 270.973 Q77.0495 271.858 77.9523 271.858 Q78.8609 271.858 79.3122 270.973 Q79.7694 270.082 79.7694 268.305 Q79.7694 266.523 79.3122 265.637 Q78.8609 264.746 77.9523 264.746 M77.9523 263.82 Q79.4048 263.82 80.1687 264.972 Q80.9384 266.118 80.9384 268.305 Q80.9384 270.487 80.1687 271.638 Q79.4048 272.784 77.9523 272.784 Q76.4998 272.784 75.7301 271.638 Q74.9662 270.487 74.9662 268.305 Q74.9662 266.118 75.7301 264.972 Q76.4998 263.82 77.9523 263.82 Z" fill="#000000" fill-rule="evenodd" fill-opacity="1" /><path clip-path="url(#clip620)" d="M 0 0 M126.976 271.633 L128.886 271.633 L128.886 265.041 L126.808 265.458 L126.808 264.393 L128.874 263.976 L130.043 263.976 L130.043 271.633 L131.953 271.633 L131.953 272.616 L126.976 272.616 L126.976 271.633 Z" fill="#000000" fill-rule="evenodd" fill-opacity="1" /><path clip-path="url(#clip620)" d="M 0 0 M133.22 271.146 L134.441 271.146 L134.441 272.616 L133.22 272.616 L133.22 271.146 Z" fill="#000000" fill-rule="evenodd" fill-opacity="1" /><path clip-path="url(#clip620)" d="M 0 0 M135.72 263.976 L140.309 263.976 L140.309 264.96 L136.791 264.96 L136.791 267.078 Q137.046 266.991 137.3 266.951 Q137.555 266.905 137.809 266.905 Q139.256 266.905 140.101 267.697 Q140.946 268.49 140.946 269.844 Q140.946 271.239 140.078 272.015 Q139.21 272.784 137.63 272.784 Q137.086 272.784 136.519 272.692 Q135.958 272.599 135.356 272.414 L135.356 271.239 Q135.877 271.523 136.432 271.662 Q136.988 271.8 137.607 271.8 Q138.608 271.8 139.192 271.274 Q139.777 270.747 139.777 269.844 Q139.777 268.942 139.192 268.415 Q138.608 267.888 137.607 267.888 Q137.138 267.888 136.669 267.993 Q136.206 268.097 135.72 268.317 L135.72 263.976 Z" fill="#000000" fill-rule="evenodd" fill-opacity="1" /><path clip-path="url(#clip620)" d="M 0 0 M141.918 263.976 L147.474 263.976 L147.474 264.474 L144.337 272.616 L143.116 272.616 L146.067 264.96 L141.918 264.96 L141.918 263.976 Z" fill="#000000" fill-rule="evenodd" fill-opacity="1" /><path clip-path="url(#clip620)" d="M 0 0 M151.241 264.746 Q150.338 264.746 149.881 265.637 Q149.43 266.523 149.43 268.305 Q149.43 270.082 149.881 270.973 Q150.338 271.858 151.241 271.858 Q152.15 271.858 152.601 270.973 Q153.058 270.082 153.058 268.305 Q153.058 266.523 152.601 265.637 Q152.15 264.746 151.241 264.746 M151.241 263.82 Q152.694 263.82 153.457 264.972 Q154.227 266.118 154.227 268.305 Q154.227 270.487 153.457 271.638 Q152.694 272.784 151.241 272.784 Q149.789 272.784 149.019 271.638 Q148.255 270.487 148.255 268.305 Q148.255 266.118 149.019 264.972 Q149.789 263.82 151.241 263.82 Z" fill="#000000" fill-rule="evenodd" fill-opacity="1" /><path clip-path="url(#clip620)" d="M 0 0 M155.199 263.976 L160.755 263.976 L160.755 264.474 L157.618 272.616 L156.397 272.616 L159.349 264.96 L155.199 264.96 L155.199 263.976 Z" fill="#000000" fill-rule="evenodd" fill-opacity="1" /><path clip-path="url(#clip620)" d="M 0 0 M162.057 272.437 L162.057 271.372 Q162.497 271.581 162.948 271.69 Q163.4 271.8 163.834 271.8 Q164.991 271.8 165.599 271.025 Q166.212 270.244 166.299 268.658 Q165.963 269.156 165.448 269.422 Q164.933 269.688 164.308 269.688 Q163.012 269.688 162.254 268.907 Q161.501 268.12 161.501 266.76 Q161.501 265.429 162.288 264.625 Q163.075 263.82 164.383 263.82 Q165.882 263.82 166.669 264.972 Q167.462 266.118 167.462 268.305 Q167.462 270.348 166.49 271.569 Q165.523 272.784 163.886 272.784 Q163.446 272.784 162.994 272.697 Q162.543 272.611 162.057 272.437 M164.383 268.774 Q165.17 268.774 165.628 268.236 Q166.091 267.697 166.091 266.76 Q166.091 265.828 165.628 265.29 Q165.17 264.746 164.383 264.746 Q163.596 264.746 163.133 265.29 Q162.676 265.828 162.676 266.76 Q162.676 267.697 163.133 268.236 Q163.596 268.774 164.383 268.774 Z" fill="#000000" fill-rule="evenodd" fill-opacity="1" /><path clip-path="url(#clip620)" d="M 0 0 M171.374 267.831 Q170.587 267.831 170.124 268.369 Q169.667 268.907 169.667 269.844 Q169.667 270.776 170.124 271.32 Q170.587 271.858 171.374 271.858 Q172.161 271.858 172.618 271.32 Q173.081 270.776 173.081 269.844 Q173.081 268.907 172.618 268.369 Q172.161 267.831 171.374 267.831 M173.695 264.167 L173.695 265.232 Q173.255 265.024 172.803 264.914 Q172.358 264.804 171.918 264.804 Q170.761 264.804 170.147 265.585 Q169.54 266.366 169.453 267.946 Q169.794 267.443 170.309 267.177 Q170.824 266.905 171.443 266.905 Q172.746 266.905 173.498 267.697 Q174.256 268.484 174.256 269.844 Q174.256 271.175 173.469 271.98 Q172.682 272.784 171.374 272.784 Q169.875 272.784 169.082 271.638 Q168.29 270.487 168.29 268.305 Q168.29 266.256 169.262 265.041 Q170.234 263.82 171.872 263.82 Q172.312 263.82 172.757 263.907 Q173.209 263.994 173.695 264.167 Z" fill="#000000" fill-rule="evenodd" fill-opacity="1" /><path clip-path="url(#clip620)" d="M 0 0 M179.065 267.958 Q179.904 268.137 180.373 268.704 Q180.847 269.271 180.847 270.105 Q180.847 271.384 179.968 272.084 Q179.088 272.784 177.468 272.784 Q176.924 272.784 176.345 272.674 Q175.772 272.57 175.159 272.356 L175.159 271.227 Q175.645 271.511 176.224 271.656 Q176.802 271.8 177.433 271.8 Q178.533 271.8 179.105 271.366 Q179.684 270.932 179.684 270.105 Q179.684 269.341 179.146 268.913 Q178.614 268.479 177.659 268.479 L176.652 268.479 L176.652 267.518 L177.705 267.518 Q178.567 267.518 179.024 267.177 Q179.482 266.829 179.482 266.181 Q179.482 265.516 179.007 265.163 Q178.538 264.804 177.659 264.804 Q177.178 264.804 176.629 264.908 Q176.079 265.012 175.419 265.232 L175.419 264.19 Q176.085 264.005 176.663 263.913 Q177.248 263.82 177.763 263.82 Q179.094 263.82 179.869 264.428 Q180.645 265.03 180.645 266.06 Q180.645 266.777 180.234 267.275 Q179.823 267.767 179.065 267.958 Z" fill="#000000" fill-rule="evenodd" fill-opacity="1" /><path clip-path="url(#clip620)" d="M 0 0 M231.471 267.958 Q232.31 268.137 232.779 268.704 Q233.254 269.271 233.254 270.105 Q233.254 271.384 232.374 272.084 Q231.494 272.784 229.874 272.784 Q229.33 272.784 228.751 272.674 Q228.179 272.57 227.565 272.356 L227.565 271.227 Q228.051 271.511 228.63 271.656 Q229.209 271.8 229.839 271.8 Q230.939 271.8 231.512 271.366 Q232.091 270.932 232.091 270.105 Q232.091 269.341 231.552 268.913 Q231.02 268.479 230.065 268.479 L229.058 268.479 L229.058 267.518 L230.111 267.518 Q230.974 267.518 231.431 267.177 Q231.888 266.829 231.888 266.181 Q231.888 265.516 231.413 265.163 Q230.945 264.804 230.065 264.804 Q229.585 264.804 229.035 264.908 Q228.485 265.012 227.825 265.232 L227.825 264.19 Q228.491 264.005 229.07 263.913 Q229.654 263.82 230.169 263.82 Q231.5 263.82 232.276 264.428 Q233.051 265.03 233.051 266.06 Q233.051 266.777 232.64 267.275 Q232.229 267.767 231.471 267.958 Z" fill="#000000" fill-rule="evenodd" fill-opacity="1" /><path clip-path="url(#clip620)" d="M 0 0 M234.521 271.146 L235.742 271.146 L235.742 272.616 L234.521 272.616 L234.521 271.146 Z" fill="#000000" fill-rule="evenodd" fill-opacity="1" /><path clip-path="url(#clip620)" d="M 0 0 M237.212 271.633 L239.122 271.633 L239.122 265.041 L237.044 265.458 L237.044 264.393 L239.11 263.976 L240.279 263.976 L240.279 271.633 L242.189 271.633 L242.189 272.616 L237.212 272.616 L237.212 271.633 Z" fill="#000000" fill-rule="evenodd" fill-opacity="1" /><path clip-path="url(#clip620)" d="M 0 0 M246.668 264.995 L243.717 269.607 L246.668 269.607 L246.668 264.995 M246.361 263.976 L247.831 263.976 L247.831 269.607 L249.064 269.607 L249.064 270.579 L247.831 270.579 L247.831 272.616 L246.668 272.616 L246.668 270.579 L242.768 270.579 L242.768 269.451 L246.361 263.976 Z" fill="#000000" fill-rule="evenodd" fill-opacity="1" /><path clip-path="url(#clip620)" d="M 0 0 M250.534 271.633 L252.443 271.633 L252.443 265.041 L250.366 265.458 L250.366 264.393 L252.432 263.976 L253.601 263.976 L253.601 271.633 L255.511 271.633 L255.511 272.616 L250.534 272.616 L250.534 271.633 Z" fill="#000000" fill-rule="evenodd" fill-opacity="1" /><path clip-path="url(#clip620)" d="M 0 0 M256.789 263.976 L261.379 263.976 L261.379 264.96 L257.86 264.96 L257.86 267.078 Q258.115 266.991 258.369 266.951 Q258.624 266.905 258.879 266.905 Q260.325 266.905 261.17 267.697 Q262.015 268.49 262.015 269.844 Q262.015 271.239 261.147 272.015 Q260.279 272.784 258.699 272.784 Q258.155 272.784 257.588 272.692 Q257.027 272.599 256.425 272.414 L256.425 271.239 Q256.946 271.523 257.501 271.662 Q258.057 271.8 258.676 271.8 Q259.677 271.8 260.262 271.274 Q260.846 270.747 260.846 269.844 Q260.846 268.942 260.262 268.415 Q259.677 267.888 258.676 267.888 Q258.207 267.888 257.739 267.993 Q257.276 268.097 256.789 268.317 L256.789 263.976 Z" fill="#000000" fill-rule="evenodd" fill-opacity="1" /><path clip-path="url(#clip620)" d="M 0 0 M263.317 272.437 L263.317 271.372 Q263.757 271.581 264.208 271.69 Q264.66 271.8 265.094 271.8 Q266.251 271.8 266.859 271.025 Q267.472 270.244 267.559 268.658 Q267.223 269.156 266.708 269.422 Q266.193 269.688 265.568 269.688 Q264.272 269.688 263.514 268.907 Q262.762 268.12 262.762 266.76 Q262.762 265.429 263.549 264.625 Q264.336 263.82 265.644 263.82 Q267.142 263.82 267.929 264.972 Q268.722 266.118 268.722 268.305 Q268.722 270.348 267.75 271.569 Q266.784 272.784 265.146 272.784 Q264.706 272.784 264.255 272.697 Q263.803 272.611 263.317 272.437 M265.644 268.774 Q266.431 268.774 266.888 268.236 Q267.351 267.697 267.351 266.76 Q267.351 265.828 266.888 265.29 Q266.431 264.746 265.644 264.746 Q264.857 264.746 264.394 265.29 Q263.936 265.828 263.936 266.76 Q263.936 267.697 264.394 268.236 Q264.857 268.774 265.644 268.774 Z" fill="#000000" fill-rule="evenodd" fill-opacity="1" /><path clip-path="url(#clip620)" d="M 0 0 M270.997 271.633 L275.076 271.633 L275.076 272.616 L269.59 272.616 L269.59 271.633 Q270.256 270.944 271.402 269.787 Q272.553 268.623 272.848 268.288 Q273.41 267.657 273.63 267.223 Q273.855 266.783 273.855 266.361 Q273.855 265.672 273.369 265.238 Q272.889 264.804 272.113 264.804 Q271.564 264.804 270.95 264.995 Q270.343 265.186 269.648 265.574 L269.648 264.393 Q270.354 264.109 270.968 263.965 Q271.581 263.82 272.09 263.82 Q273.433 263.82 274.231 264.491 Q275.03 265.163 275.03 266.285 Q275.03 266.818 274.828 267.298 Q274.631 267.773 274.104 268.421 Q273.96 268.589 273.184 269.393 Q272.409 270.192 270.997 271.633 Z" fill="#000000" fill-rule="evenodd" fill-opacity="1" /><path clip-path="url(#clip620)" d="M 0 0 M276.049 263.976 L281.604 263.976 L281.604 264.474 L278.468 272.616 L277.247 272.616 L280.198 264.96 L276.049 264.96 L276.049 263.976 Z" fill="#000000" fill-rule="evenodd" fill-opacity="1" /><path clip-path="url(#clip620)" d="M 0 0 M331.794 264.995 L328.843 269.607 L331.794 269.607 L331.794 264.995 M331.487 263.976 L332.957 263.976 L332.957 269.607 L334.19 269.607 L334.19 270.579 L332.957 270.579 L332.957 272.616 L331.794 272.616 L331.794 270.579 L327.894 270.579 L327.894 269.451 L331.487 263.976 Z" fill="#000000" fill-rule="evenodd" fill-opacity="1" /><path clip-path="url(#clip620)" d="M 0 0 M335.457 271.146 L336.678 271.146 L336.678 272.616 L335.457 272.616 L335.457 271.146 Z" fill="#000000" fill-rule="evenodd" fill-opacity="1" /><path clip-path="url(#clip620)" d="M 0 0 M337.651 263.976 L343.206 263.976 L343.206 264.474 L340.069 272.616 L338.848 272.616 L341.8 264.96 L337.651 264.96 L337.651 263.976 Z" fill="#000000" fill-rule="evenodd" fill-opacity="1" /><path clip-path="url(#clip620)" d="M 0 0 M344.676 271.633 L346.586 271.633 L346.586 265.041 L344.508 265.458 L344.508 264.393 L346.574 263.976 L347.743 263.976 L347.743 271.633 L349.653 271.633 L349.653 272.616 L344.676 272.616 L344.676 271.633 Z" fill="#000000" fill-rule="evenodd" fill-opacity="1" /><path clip-path="url(#clip620)" d="M 0 0 M351.927 271.633 L356.007 271.633 L356.007 272.616 L350.521 272.616 L350.521 271.633 Q351.186 270.944 352.332 269.787 Q353.484 268.623 353.779 268.288 Q354.34 267.657 354.56 267.223 Q354.786 266.783 354.786 266.361 Q354.786 265.672 354.3 265.238 Q353.819 264.804 353.044 264.804 Q352.494 264.804 351.881 264.995 Q351.273 265.186 350.579 265.574 L350.579 264.393 Q351.285 264.109 351.898 263.965 Q352.512 263.82 353.021 263.82 Q354.363 263.82 355.162 264.491 Q355.961 265.163 355.961 266.285 Q355.961 266.818 355.758 267.298 Q355.561 267.773 355.035 268.421 Q354.89 268.589 354.115 269.393 Q353.339 270.192 351.927 271.633 Z" fill="#000000" fill-rule="evenodd" fill-opacity="1" /><path clip-path="url(#clip620)" d="M 0 0 M360.816 267.958 Q361.655 268.137 362.124 268.704 Q362.598 269.271 362.598 270.105 Q362.598 271.384 361.719 272.084 Q360.839 272.784 359.219 272.784 Q358.675 272.784 358.096 272.674 Q357.523 272.57 356.91 272.356 L356.91 271.227 Q357.396 271.511 357.974 271.656 Q358.553 271.8 359.184 271.8 Q360.283 271.8 360.856 271.366 Q361.435 270.932 361.435 270.105 Q361.435 269.341 360.897 268.913 Q360.365 268.479 359.41 268.479 L358.403 268.479 L358.403 267.518 L359.456 267.518 Q360.318 267.518 360.775 267.177 Q361.233 266.829 361.233 266.181 Q361.233 265.516 360.758 265.163 Q360.289 264.804 359.41 264.804 Q358.929 264.804 358.38 264.908 Q357.83 265.012 357.17 265.232 L357.17 264.19 Q357.836 264.005 358.414 263.913 Q358.999 263.82 359.514 263.82 Q360.845 263.82 361.62 264.428 Q362.396 265.03 362.396 266.06 Q362.396 266.777 361.985 267.275 Q361.574 267.767 360.816 267.958 Z" fill="#000000" fill-rule="evenodd" fill-opacity="1" /><path clip-path="url(#clip620)" d="M 0 0 M366.366 268.513 Q365.532 268.513 365.052 268.959 Q364.577 269.405 364.577 270.186 Q364.577 270.967 365.052 271.413 Q365.532 271.858 366.366 271.858 Q367.199 271.858 367.679 271.413 Q368.16 270.961 368.16 270.186 Q368.16 269.405 367.679 268.959 Q367.205 268.513 366.366 268.513 M365.197 268.016 Q364.444 267.831 364.022 267.315 Q363.605 266.8 363.605 266.06 Q363.605 265.024 364.34 264.422 Q365.081 263.82 366.366 263.82 Q367.656 263.82 368.391 264.422 Q369.126 265.024 369.126 266.06 Q369.126 266.8 368.704 267.315 Q368.287 267.831 367.54 268.016 Q368.385 268.212 368.854 268.785 Q369.329 269.358 369.329 270.186 Q369.329 271.442 368.559 272.113 Q367.795 272.784 366.366 272.784 Q364.936 272.784 364.167 272.113 Q363.403 271.442 363.403 270.186 Q363.403 269.358 363.877 268.785 Q364.352 268.212 365.197 268.016 M364.768 266.17 Q364.768 266.841 365.185 267.217 Q365.608 267.593 366.366 267.593 Q367.118 267.593 367.54 267.217 Q367.969 266.841 367.969 266.17 Q367.969 265.498 367.54 265.122 Q367.118 264.746 366.366 264.746 Q365.608 264.746 365.185 265.122 Q364.768 265.498 364.768 266.17 Z" fill="#000000" fill-rule="evenodd" fill-opacity="1" /><path clip-path="url(#clip620)" d="M 0 0 M370.631 272.437 L370.631 271.372 Q371.07 271.581 371.522 271.69 Q371.973 271.8 372.407 271.8 Q373.565 271.8 374.172 271.025 Q374.786 270.244 374.873 268.658 Q374.537 269.156 374.022 269.422 Q373.507 269.688 372.882 269.688 Q371.586 269.688 370.827 268.907 Q370.075 268.12 370.075 266.76 Q370.075 265.429 370.862 264.625 Q371.649 263.82 372.957 263.82 Q374.456 263.82 375.243 264.972 Q376.036 266.118 376.036 268.305 Q376.036 270.348 375.064 271.569 Q374.097 272.784 372.459 272.784 Q372.02 272.784 371.568 272.697 Q371.117 272.611 370.631 272.437 M372.957 268.774 Q373.744 268.774 374.201 268.236 Q374.664 267.697 374.664 266.76 Q374.664 265.828 374.201 265.29 Q373.744 264.746 372.957 264.746 Q372.17 264.746 371.707 265.29 Q371.25 265.828 371.25 266.76 Q371.25 267.697 371.707 268.236 Q372.17 268.774 372.957 268.774 Z" fill="#000000" fill-rule="evenodd" fill-opacity="1" /><path clip-path="url(#clip620)" d="M 0 0 M379.803 264.746 Q378.9 264.746 378.443 265.637 Q377.992 266.523 377.992 268.305 Q377.992 270.082 378.443 270.973 Q378.9 271.858 379.803 271.858 Q380.712 271.858 381.163 270.973 Q381.62 270.082 381.62 268.305 Q381.62 266.523 381.163 265.637 Q380.712 264.746 379.803 264.746 M379.803 263.82 Q381.256 263.82 382.019 264.972 Q382.789 266.118 382.789 268.305 Q382.789 270.487 382.019 271.638 Q381.256 272.784 379.803 272.784 Q378.351 272.784 377.581 271.638 Q376.817 270.487 376.817 268.305 Q376.817 266.118 377.581 264.972 Q378.351 263.82 379.803 263.82 Z" fill="#000000" fill-rule="evenodd" fill-opacity="1" /><path clip-path="url(#clip620)" d="M 0 0 M431.981 267.831 Q431.194 267.831 430.731 268.369 Q430.274 268.907 430.274 269.844 Q430.274 270.776 430.731 271.32 Q431.194 271.858 431.981 271.858 Q432.768 271.858 433.225 271.32 Q433.688 270.776 433.688 269.844 Q433.688 268.907 433.225 268.369 Q432.768 267.831 431.981 267.831 M434.301 264.167 L434.301 265.232 Q433.862 265.024 433.41 264.914 Q432.965 264.804 432.525 264.804 Q431.367 264.804 430.754 265.585 Q430.146 266.366 430.06 267.946 Q430.401 267.443 430.916 267.177 Q431.431 266.905 432.05 266.905 Q433.352 266.905 434.105 267.697 Q434.863 268.484 434.863 269.844 Q434.863 271.175 434.076 271.98 Q433.289 272.784 431.981 272.784 Q430.482 272.784 429.689 271.638 Q428.896 270.487 428.896 268.305 Q428.896 266.256 429.869 265.041 Q430.841 263.82 432.478 263.82 Q432.918 263.82 433.364 263.907 Q433.815 263.994 434.301 264.167 Z" fill="#000000" fill-rule="evenodd" fill-opacity="1" /><path clip-path="url(#clip620)" d="M 0 0 M436.13 271.146 L437.351 271.146 L437.351 272.616 L436.13 272.616 L436.13 271.146 Z" fill="#000000" fill-rule="evenodd" fill-opacity="1" /><path clip-path="url(#clip620)" d="M 0 0 M439.625 271.633 L443.705 271.633 L443.705 272.616 L438.219 272.616 L438.219 271.633 Q438.885 270.944 440.031 269.787 Q441.182 268.623 441.477 268.288 Q442.039 267.657 442.259 267.223 Q442.484 266.783 442.484 266.361 Q442.484 265.672 441.998 265.238 Q441.518 264.804 440.742 264.804 Q440.193 264.804 439.579 264.995 Q438.972 265.186 438.277 265.574 L438.277 264.393 Q438.983 264.109 439.597 263.965 Q440.21 263.82 440.719 263.82 Q442.062 263.82 442.86 264.491 Q443.659 265.163 443.659 266.285 Q443.659 266.818 443.456 267.298 Q443.26 267.773 442.733 268.421 Q442.588 268.589 441.813 269.393 Q441.037 270.192 439.625 271.633 Z" fill="#000000" fill-rule="evenodd" fill-opacity="1" /><path clip-path="url(#clip620)" d="M 0 0 M447.473 268.513 Q446.639 268.513 446.159 268.959 Q445.684 269.405 445.684 270.186 Q445.684 270.967 446.159 271.413 Q446.639 271.858 447.473 271.858 Q448.306 271.858 448.786 271.413 Q449.267 270.961 449.267 270.186 Q449.267 269.405 448.786 268.959 Q448.312 268.513 447.473 268.513 M446.304 268.016 Q445.551 267.831 445.129 267.315 Q444.712 266.8 444.712 266.06 Q444.712 265.024 445.447 264.422 Q446.188 263.82 447.473 263.82 Q448.763 263.82 449.498 264.422 Q450.233 265.024 450.233 266.06 Q450.233 266.8 449.811 267.315 Q449.394 267.831 448.647 268.016 Q449.492 268.212 449.961 268.785 Q450.436 269.358 450.436 270.186 Q450.436 271.442 449.666 272.113 Q448.902 272.784 447.473 272.784 Q446.043 272.784 445.274 272.113 Q444.51 271.442 444.51 270.186 Q444.51 269.358 444.984 268.785 Q445.459 268.212 446.304 268.016 M445.875 266.17 Q445.875 266.841 446.292 267.217 Q446.715 267.593 447.473 267.593 Q448.225 267.593 448.647 267.217 Q449.076 266.841 449.076 266.17 Q449.076 265.498 448.647 265.122 Q448.225 264.746 447.473 264.746 Q446.715 264.746 446.292 265.122 Q445.875 265.498 445.875 266.17 Z" fill="#000000" fill-rule="evenodd" fill-opacity="1" /><path clip-path="url(#clip620)" d="M 0 0 M455.245 267.958 Q456.084 268.137 456.552 268.704 Q457.027 269.271 457.027 270.105 Q457.027 271.384 456.147 272.084 Q455.268 272.784 453.647 272.784 Q453.103 272.784 452.525 272.674 Q451.952 272.57 451.338 272.356 L451.338 271.227 Q451.824 271.511 452.403 271.656 Q452.982 271.8 453.613 271.8 Q454.712 271.8 455.285 271.366 Q455.864 270.932 455.864 270.105 Q455.864 269.341 455.326 268.913 Q454.793 268.479 453.838 268.479 L452.831 268.479 L452.831 267.518 L453.885 267.518 Q454.747 267.518 455.204 267.177 Q455.661 266.829 455.661 266.181 Q455.661 265.516 455.187 265.163 Q454.718 264.804 453.838 264.804 Q453.358 264.804 452.808 264.908 Q452.258 265.012 451.599 265.232 L451.599 264.19 Q452.264 264.005 452.843 263.913 Q453.427 263.82 453.943 263.82 Q455.274 263.82 456.049 264.428 Q456.824 265.03 456.824 266.06 Q456.824 266.777 456.414 267.275 Q456.003 267.767 455.245 267.958 Z" fill="#000000" fill-rule="evenodd" fill-opacity="1" /><path clip-path="url(#clip620)" d="M 0 0 M458.497 271.633 L460.407 271.633 L460.407 265.041 L458.329 265.458 L458.329 264.393 L460.395 263.976 L461.564 263.976 L461.564 271.633 L463.474 271.633 L463.474 272.616 L458.497 272.616 L458.497 271.633 Z" fill="#000000" fill-rule="evenodd" fill-opacity="1" /><path clip-path="url(#clip620)" d="M 0 0 M467.241 268.513 Q466.408 268.513 465.927 268.959 Q465.453 269.405 465.453 270.186 Q465.453 270.967 465.927 271.413 Q466.408 271.858 467.241 271.858 Q468.074 271.858 468.555 271.413 Q469.035 270.961 469.035 270.186 Q469.035 269.405 468.555 268.959 Q468.08 268.513 467.241 268.513 M466.072 268.016 Q465.32 267.831 464.897 267.315 Q464.481 266.8 464.481 266.06 Q464.481 265.024 465.216 264.422 Q465.956 263.82 467.241 263.82 Q468.532 263.82 469.266 264.422 Q470.001 265.024 470.001 266.06 Q470.001 266.8 469.579 267.315 Q469.162 267.831 468.416 268.016 Q469.261 268.212 469.729 268.785 Q470.204 269.358 470.204 270.186 Q470.204 271.442 469.434 272.113 Q468.67 272.784 467.241 272.784 Q465.812 272.784 465.042 272.113 Q464.278 271.442 464.278 270.186 Q464.278 269.358 464.753 268.785 Q465.227 268.212 466.072 268.016 M465.644 266.17 Q465.644 266.841 466.06 267.217 Q466.483 267.593 467.241 267.593 Q467.993 267.593 468.416 267.217 Q468.844 266.841 468.844 266.17 Q468.844 265.498 468.416 265.122 Q467.993 264.746 467.241 264.746 Q466.483 264.746 466.06 265.122 Q465.644 265.498 465.644 266.17 Z" fill="#000000" fill-rule="evenodd" fill-opacity="1" /><path clip-path="url(#clip620)" d="M 0 0 M471.483 263.976 L476.072 263.976 L476.072 264.96 L472.554 264.96 L472.554 267.078 Q472.808 266.991 473.063 266.951 Q473.317 266.905 473.572 266.905 Q475.019 266.905 475.864 267.697 Q476.709 268.49 476.709 269.844 Q476.709 271.239 475.841 272.015 Q474.972 272.784 473.393 272.784 Q472.849 272.784 472.282 272.692 Q471.72 272.599 471.118 272.414 L471.118 271.239 Q471.639 271.523 472.195 271.662 Q472.75 271.8 473.369 271.8 Q474.371 271.8 474.955 271.274 Q475.54 270.747 475.54 269.844 Q475.54 268.942 474.955 268.415 Q474.371 267.888 473.369 267.888 Q472.901 267.888 472.432 267.993 Q471.969 268.097 471.483 268.317 L471.483 263.976 Z" fill="#000000" fill-rule="evenodd" fill-opacity="1" /><path clip-path="url(#clip620)" d="M 0 0 M481.518 267.958 Q482.357 268.137 482.825 268.704 Q483.3 269.271 483.3 270.105 Q483.3 271.384 482.42 272.084 Q481.541 272.784 479.92 272.784 Q479.376 272.784 478.798 272.674 Q478.225 272.57 477.611 272.356 L477.611 271.227 Q478.097 271.511 478.676 271.656 Q479.255 271.8 479.886 271.8 Q480.985 271.8 481.558 271.366 Q482.137 270.932 482.137 270.105 Q482.137 269.341 481.599 268.913 Q481.066 268.479 480.111 268.479 L479.104 268.479 L479.104 267.518 L480.158 267.518 Q481.02 267.518 481.477 267.177 Q481.934 266.829 481.934 266.181 Q481.934 265.516 481.46 265.163 Q480.991 264.804 480.111 264.804 Q479.631 264.804 479.081 264.908 Q478.531 265.012 477.872 265.232 L477.872 264.19 Q478.537 264.005 479.116 263.913 Q479.7 263.82 480.216 263.82 Q481.547 263.82 482.322 264.428 Q483.097 265.03 483.097 266.06 Q483.097 266.777 482.687 267.275 Q482.276 267.767 481.518 267.958 Z" fill="#000000" fill-rule="evenodd" fill-opacity="1" /><g clip-path="url(#clip620)">
<text style="fill:#000000; fill-opacity:1; font-family:Arial,Helvetica Neue,Helvetica,sans-serif; font-size:16px; text-anchor:middle;" transform="rotate(0, 254.585, 293.459)" x="254.585" y="293.459">x</text>
</g>
<polyline clip-path="url(#clip622)" style="stroke:#000000; stroke-width:0.5; stroke-opacity:0.1; fill:none" points="
  40.9802,251.429 468.189,251.429 
  "/>
<polyline clip-path="url(#clip622)" style="stroke:#000000; stroke-width:0.5; stroke-opacity:0.1; fill:none" points="
  40.9802,135.11 468.189,135.11 
  "/>
<polyline clip-path="url(#clip622)" style="stroke:#000000; stroke-width:0.5; stroke-opacity:0.1; fill:none" points="
  40.9802,18.7902 468.189,18.7902 
  "/>
<polyline clip-path="url(#clip620)" style="stroke:#000000; stroke-width:1; stroke-opacity:1; fill:none" points="
  40.9802,258.408 40.9802,11.811 
  "/>
<polyline clip-path="url(#clip620)" style="stroke:#000000; stroke-width:1; stroke-opacity:1; fill:none" points="
  40.9802,251.429 46.1068,251.429 
  "/>
<polyline clip-path="url(#clip620)" style="stroke:#000000; stroke-width:1; stroke-opacity:1; fill:none" points="
  40.9802,135.11 46.1068,135.11 
  "/>
<polyline clip-path="url(#clip620)" style="stroke:#000000; stroke-width:1; stroke-opacity:1; fill:none" points="
  40.9802,18.7902 46.1068,18.7902 
  "/>
<path clip-path="url(#clip620)" d="M 0 0 M28.8034 254.765 L30.7131 254.765 L30.7131 248.174 L28.6356 248.591 L28.6356 247.526 L30.7016 247.109 L31.8705 247.109 L31.8705 254.765 L33.7802 254.765 L33.7802 255.749 L28.8034 255.749 L28.8034 254.765 Z" fill="#000000" fill-rule="evenodd" fill-opacity="1" /><path clip-path="url(#clip620)" d="M 0 0 M29.7004 138.446 L33.7802 138.446 L33.7802 139.43 L28.2942 139.43 L28.2942 138.446 Q28.9597 137.757 30.1055 136.6 Q31.2571 135.437 31.5522 135.101 Q32.1136 134.47 32.3335 134.036 Q32.5592 133.596 32.5592 133.174 Q32.5592 132.485 32.0731 132.051 Q31.5928 131.617 30.8173 131.617 Q30.2675 131.617 29.6541 131.808 Q29.0465 131.999 28.352 132.387 L28.352 131.206 Q29.0581 130.923 29.6715 130.778 Q30.2849 130.633 30.7942 130.633 Q32.1367 130.633 32.9353 131.305 Q33.734 131.976 33.734 133.099 Q33.734 133.631 33.5314 134.111 Q33.3346 134.586 32.808 135.234 Q32.6634 135.402 31.8879 136.206 Q31.1124 137.005 29.7004 138.446 Z" fill="#000000" fill-rule="evenodd" fill-opacity="1" /><path clip-path="url(#clip620)" d="M 0 0 M31.9978 18.4517 Q32.837 18.6311 33.3057 19.1982 Q33.7802 19.7653 33.7802 20.5986 Q33.7802 21.8776 32.9006 22.5778 Q32.021 23.278 30.4006 23.278 Q29.8567 23.278 29.278 23.1681 Q28.705 23.0639 28.0916 22.8498 L28.0916 21.7213 Q28.5777 22.0049 29.1564 22.1496 Q29.7351 22.2942 30.3659 22.2942 Q31.4654 22.2942 32.0384 21.8602 Q32.6171 21.4262 32.6171 20.5986 Q32.6171 19.8347 32.0789 19.4065 Q31.5465 18.9725 30.5916 18.9725 L29.5847 18.9725 L29.5847 18.0118 L30.6379 18.0118 Q31.5002 18.0118 31.9573 17.6704 Q32.4145 17.3232 32.4145 16.675 Q32.4145 16.0095 31.94 15.6565 Q31.4712 15.2977 30.5916 15.2977 Q30.1113 15.2977 29.5615 15.4019 Q29.0118 15.5061 28.352 15.726 L28.352 14.6843 Q29.0175 14.4991 29.5962 14.4065 Q30.1807 14.3139 30.6958 14.3139 Q32.0268 14.3139 32.8022 14.9216 Q33.5777 15.5234 33.5777 16.5535 Q33.5777 17.2711 33.1668 17.7688 Q32.7559 18.2607 31.9978 18.4517 Z" fill="#000000" fill-rule="evenodd" fill-opacity="1" /><g clip-path="url(#clip620)">
<text style="fill:#000000; fill-opacity:1; font-family:Arial,Helvetica Neue,Helvetica,sans-serif; font-size:16px; text-anchor:middle;" transform="rotate(-90, 18.0011, 135.11)" x="18.0011" y="135.11">y</text>
</g>
<circle clip-path="url(#clip622)" cx="53.0711" cy="251.429" r="3" fill="#add8e6" fill-rule="evenodd" fill-opacity="1" stroke="#000000" stroke-opacity="1" stroke-width="0.6"/>
<circle clip-path="url(#clip622)" cx="153.828" cy="251.429" r="3" fill="#add8e6" fill-rule="evenodd" fill-opacity="1" stroke="#000000" stroke-opacity="1" stroke-width="0.6"/>
<circle clip-path="url(#clip622)" cx="254.585" cy="251.429" r="3" fill="#add8e6" fill-rule="evenodd" fill-opacity="1" stroke="#000000" stroke-opacity="1" stroke-width="0.6"/>
<circle clip-path="url(#clip622)" cx="355.341" cy="251.429" r="3" fill="#add8e6" fill-rule="evenodd" fill-opacity="1" stroke="#000000" stroke-opacity="1" stroke-width="0.6"/>
<circle clip-path="url(#clip622)" cx="456.098" cy="251.429" r="3" fill="#add8e6" fill-rule="evenodd" fill-opacity="1" stroke="#000000" stroke-opacity="1" stroke-width="0.6"/>
<circle clip-path="url(#clip622)" cx="53.0711" cy="135.11" r="3" fill="#add8e6" fill-rule="evenodd" fill-opacity="1" stroke="#000000" stroke-opacity="1" stroke-width="0.6"/>
<circle clip-path="url(#clip622)" cx="153.828" cy="135.11" r="3" fill="#add8e6" fill-rule="evenodd" fill-opacity="1" stroke="#000000" stroke-opacity="1" stroke-width="0.6"/>
<circle clip-path="url(#clip622)" cx="254.585" cy="135.11" r="3" fill="#add8e6" fill-rule="evenodd" fill-opacity="1" stroke="#000000" stroke-opacity="1" stroke-width="0.6"/>
<circle clip-path="url(#clip622)" cx="355.341" cy="135.11" r="3" fill="#add8e6" fill-rule="evenodd" fill-opacity="1" stroke="#000000" stroke-opacity="1" stroke-width="0.6"/>
<circle clip-path="url(#clip622)" cx="456.098" cy="135.11" r="3" fill="#add8e6" fill-rule="evenodd" fill-opacity="1" stroke="#000000" stroke-opacity="1" stroke-width="0.6"/>
<circle clip-path="url(#clip622)" cx="53.0711" cy="18.7902" r="3" fill="#add8e6" fill-rule="evenodd" fill-opacity="1" stroke="#000000" stroke-opacity="1" stroke-width="0.6"/>
<circle clip-path="url(#clip622)" cx="153.828" cy="18.7902" r="3" fill="#add8e6" fill-rule="evenodd" fill-opacity="1" stroke="#000000" stroke-opacity="1" stroke-width="0.6"/>
<circle clip-path="url(#clip622)" cx="254.585" cy="18.7902" r="3" fill="#add8e6" fill-rule="evenodd" fill-opacity="1" stroke="#000000" stroke-opacity="1" stroke-width="0.6"/>
<circle clip-path="url(#clip622)" cx="355.341" cy="18.7902" r="3" fill="#add8e6" fill-rule="evenodd" fill-opacity="1" stroke="#000000" stroke-opacity="1" stroke-width="0.6"/>
<circle clip-path="url(#clip622)" cx="456.098" cy="18.7902" r="3" fill="#add8e6" fill-rule="evenodd" fill-opacity="1" stroke="#000000" stroke-opacity="1" stroke-width="0.6"/>
</svg>
