<?xml version="1.0" encoding="utf-8"?>
<svg xmlns="http://www.w3.org/2000/svg" xmlns:xlink="http://www.w3.org/1999/xlink" width="120" height="75" viewBox="0 0 480 300">
<defs>
  <clipPath id="clip750">
    <rect x="0" y="0" width="480" height="300"/>
  </clipPath>
</defs>
<path clip-path="url(#clip750)" d="
M0 300 L480 300 L480 0 L0 0  Z
  " fill="#ffffff" fill-rule="evenodd" fill-opacity="1"/>
<defs>
  <clipPath id="clip751">
    <rect x="96" y="0" width="337" height="300"/>
  </clipPath>
</defs>
<path clip-path="url(#clip750)" d="
M63.9427 258.408 L468.189 258.408 L468.189 27.537 L63.9427 27.537  Z
  " fill="#ffffff" fill-rule="evenodd" fill-opacity="1"/>
<defs>
  <clipPath id="clip752">
    <rect x="63" y="27" width="405" height="232"/>
  </clipPath>
</defs>
<polyline clip-path="url(#clip752)" style="stroke:#000000; stroke-width:0.5; stroke-opacity:0.1; fill:none" points="
  127.986,258.408 127.986,27.537 
  "/>
<polyline clip-path="url(#clip752)" style="stroke:#000000; stroke-width:0.5; stroke-opacity:0.1; fill:none" points="
  193.738,258.408 193.738,27.537 
  "/>
<polyline clip-path="url(#clip752)" style="stroke:#000000; stroke-width:0.5; stroke-opacity:0.1; fill:none" points="
  259.491,258.408 259.491,27.537 
  "/>
<polyline clip-path="url(#clip752)" style="stroke:#000000; stroke-width:0.5; stroke-opacity:0.1; fill:none" points="
  325.243,258.408 325.243,27.537 
  "/>
<polyline clip-path="url(#clip752)" style="stroke:#000000; stroke-width:0.5; stroke-opacity:0.1; fill:none" points="
  390.996,258.408 390.996,27.537 
  "/>
<polyline clip-path="url(#clip752)" style="stroke:#000000; stroke-width:0.5; stroke-opacity:0.1; fill:none" points="
  456.748,258.408 456.748,27.537 
  "/>
<polyline clip-path="url(#clip750)" style="stroke:#000000; stroke-width:1; stroke-opacity:1; fill:none" points="
  63.9427,258.408 468.189,258.408 
  "/>
<polyline clip-path="url(#clip750)" style="stroke:#000000; stroke-width:1; stroke-opacity:1; fill:none" points="
  127.986,258.408 127.986,255.638 
  "/>
<polyline clip-path="url(#clip750)" style="stroke:#000000; stroke-width:1; stroke-opacity:1; fill:none" points="
  193.738,258.408 193.738,255.638 
  "/>
<polyline clip-path="url(#clip750)" style="stroke:#000000; stroke-width:1; stroke-opacity:1; fill:none" points="
  259.491,258.408 259.491,255.638 
  "/>
<polyline clip-path="url(#clip750)" style="stroke:#000000; stroke-width:1; stroke-opacity:1; fill:none" points="
  325.243,258.408 325.243,255.638 
  "/>
<polyline clip-path="url(#clip750)" style="stroke:#000000; stroke-width:1; stroke-opacity:1; fill:none" points="
  390.996,258.408 390.996,255.638 
  "/>
<polyline clip-path="url(#clip750)" style="stroke:#000000; stroke-width:1; stroke-opacity:1; fill:none" points="
  456.748,258.408 456.748,255.638 
  "/>
<path clip-path="url(#clip750)" d="M 0 0 M122.204 271.633 L124.114 271.633 L124.114 265.041 L122.037 265.458 L122.037 264.393 L124.103 263.976 L125.272 263.976 L125.272 271.633 L127.181 271.633 L127.181 272.616 L122.204 272.616 L122.204 271.633 Z" fill="#000000" fill-rule="evenodd" fill-opacity="1" /><path clip-path="url(#clip750)" d="M 0 0 M130.949 264.746 Q130.046 264.746 129.589 265.637 Q129.137 266.523 129.137 268.305 Q129.137 270.082 129.589 270.973 Q130.046 271.858 130.949 271.858 Q131.857 271.858 132.309 270.973 Q132.766 270.082 132.766 268.305 Q132.766 266.523 132.309 265.637 Q131.857 264.746 130.949 264.746 M130.949 263.82 Q132.401 263.82 133.165 264.972 Q133.935 266.118 133.935 268.305 Q133.935 270.487 133.165 271.638 Q132.401 272.784 130.949 272.784 Q129.496 272.784 128.726 271.638 Q127.962 270.487 127.962 268.305 Q127.962 266.118 128.726 264.972 Q129.496 263.82 130.949 263.82 Z" fill="#000000" fill-rule="evenodd" fill-opacity="1" /><path clip-path="url(#clip750)" d="M 0 0 M189.025 271.633 L193.104 271.633 L193.104 272.616 L187.618 272.616 L187.618 271.633 Q188.284 270.944 189.43 269.787 Q190.581 268.623 190.876 268.288 Q191.438 267.657 191.658 267.223 Q191.883 266.783 191.883 266.361 Q191.883 265.672 191.397 265.238 Q190.917 264.804 190.141 264.804 Q189.592 264.804 188.978 264.995 Q188.371 265.186 187.676 265.574 L187.676 264.393 Q188.382 264.109 188.996 263.965 Q189.609 263.82 190.118 263.82 Q191.461 263.82 192.26 264.491 Q193.058 265.163 193.058 266.285 Q193.058 266.818 192.856 267.298 Q192.659 267.773 192.132 268.421 Q191.988 268.589 191.212 269.393 Q190.437 270.192 189.025 271.633 Z" fill="#000000" fill-rule="evenodd" fill-opacity="1" /><path clip-path="url(#clip750)" d="M 0 0 M196.872 264.746 Q195.969 264.746 195.512 265.637 Q195.06 266.523 195.06 268.305 Q195.06 270.082 195.512 270.973 Q195.969 271.858 196.872 271.858 Q197.78 271.858 198.232 270.973 Q198.689 270.082 198.689 268.305 Q198.689 266.523 198.232 265.637 Q197.78 264.746 196.872 264.746 M196.872 263.82 Q198.324 263.82 199.088 264.972 Q199.858 266.118 199.858 268.305 Q199.858 270.487 199.088 271.638 Q198.324 272.784 196.872 272.784 Q195.419 272.784 194.65 271.638 Q193.886 270.487 193.886 268.305 Q193.886 266.118 194.65 264.972 Q195.419 263.82 196.872 263.82 Z" fill="#000000" fill-rule="evenodd" fill-opacity="1" /><path clip-path="url(#clip750)" d="M 0 0 M257.176 267.958 Q258.015 268.137 258.484 268.704 Q258.958 269.271 258.958 270.105 Q258.958 271.384 258.079 272.084 Q257.199 272.784 255.579 272.784 Q255.035 272.784 254.456 272.674 Q253.883 272.57 253.27 272.356 L253.27 271.227 Q253.756 271.511 254.334 271.656 Q254.913 271.8 255.544 271.8 Q256.643 271.8 257.216 271.366 Q257.795 270.932 257.795 270.105 Q257.795 269.341 257.257 268.913 Q256.724 268.479 255.77 268.479 L254.763 268.479 L254.763 267.518 L255.816 267.518 Q256.678 267.518 257.135 267.177 Q257.592 266.829 257.592 266.181 Q257.592 265.516 257.118 265.163 Q256.649 264.804 255.77 264.804 Q255.289 264.804 254.739 264.908 Q254.19 265.012 253.53 265.232 L253.53 264.19 Q254.195 264.005 254.774 263.913 Q255.359 263.82 255.874 263.82 Q257.205 263.82 257.98 264.428 Q258.756 265.03 258.756 266.06 Q258.756 266.777 258.345 267.275 Q257.934 267.767 257.176 267.958 Z" fill="#000000" fill-rule="evenodd" fill-opacity="1" /><path clip-path="url(#clip750)" d="M 0 0 M262.726 264.746 Q261.823 264.746 261.366 265.637 Q260.914 266.523 260.914 268.305 Q260.914 270.082 261.366 270.973 Q261.823 271.858 262.726 271.858 Q263.634 271.858 264.085 270.973 Q264.543 270.082 264.543 268.305 Q264.543 266.523 264.085 265.637 Q263.634 264.746 262.726 264.746 M262.726 263.82 Q264.178 263.82 264.942 264.972 Q265.712 266.118 265.712 268.305 Q265.712 270.487 264.942 271.638 Q264.178 272.784 262.726 272.784 Q261.273 272.784 260.503 271.638 Q259.739 270.487 259.739 268.305 Q259.739 266.118 260.503 264.972 Q261.273 263.82 262.726 263.82 Z" fill="#000000" fill-rule="evenodd" fill-opacity="1" /><path clip-path="url(#clip750)" d="M 0 0 M322.619 264.995 L319.667 269.607 L322.619 269.607 L322.619 264.995 M322.312 263.976 L323.782 263.976 L323.782 269.607 L325.014 269.607 L325.014 270.579 L323.782 270.579 L323.782 272.616 L322.619 272.616 L322.619 270.579 L318.718 270.579 L318.718 269.451 L322.312 263.976 Z" fill="#000000" fill-rule="evenodd" fill-opacity="1" /><path clip-path="url(#clip750)" d="M 0 0 M328.782 264.746 Q327.879 264.746 327.422 265.637 Q326.971 266.523 326.971 268.305 Q326.971 270.082 327.422 270.973 Q327.879 271.858 328.782 271.858 Q329.69 271.858 330.142 270.973 Q330.599 270.082 330.599 268.305 Q330.599 266.523 330.142 265.637 Q329.69 264.746 328.782 264.746 M328.782 263.82 Q330.234 263.82 330.998 264.972 Q331.768 266.118 331.768 268.305 Q331.768 270.487 330.998 271.638 Q330.234 272.784 328.782 272.784 Q327.329 272.784 326.56 271.638 Q325.796 270.487 325.796 268.305 Q325.796 266.118 326.56 264.972 Q327.329 263.82 328.782 263.82 Z" fill="#000000" fill-rule="evenodd" fill-opacity="1" /><path clip-path="url(#clip750)" d="M 0 0 M385.188 263.976 L389.777 263.976 L389.777 264.96 L386.259 264.96 L386.259 267.078 Q386.514 266.991 386.768 266.951 Q387.023 266.905 387.277 266.905 Q388.724 266.905 389.569 267.697 Q390.414 268.49 390.414 269.844 Q390.414 271.239 389.546 272.015 Q388.678 272.784 387.098 272.784 Q386.554 272.784 385.987 272.692 Q385.426 272.599 384.824 272.414 L384.824 271.239 Q385.345 271.523 385.9 271.662 Q386.456 271.8 387.075 271.8 Q388.076 271.8 388.661 271.274 Q389.245 270.747 389.245 269.844 Q389.245 268.942 388.661 268.415 Q388.076 267.888 387.075 267.888 Q386.606 267.888 386.137 267.993 Q385.674 268.097 385.188 268.317 L385.188 263.976 Z" fill="#000000" fill-rule="evenodd" fill-opacity="1" /><path clip-path="url(#clip750)" d="M 0 0 M394.181 264.746 Q393.279 264.746 392.821 265.637 Q392.37 266.523 392.37 268.305 Q392.37 270.082 392.821 270.973 Q393.279 271.858 394.181 271.858 Q395.09 271.858 395.541 270.973 Q395.998 270.082 395.998 268.305 Q395.998 266.523 395.541 265.637 Q395.09 264.746 394.181 264.746 M394.181 263.82 Q395.634 263.82 396.398 264.972 Q397.167 266.118 397.167 268.305 Q397.167 270.487 396.398 271.638 Q395.634 272.784 394.181 272.784 Q392.729 272.784 391.959 271.638 Q391.195 270.487 391.195 268.305 Q391.195 266.118 391.959 264.972 Q392.729 263.82 394.181 263.82 Z" fill="#000000" fill-rule="evenodd" fill-opacity="1" /><path clip-path="url(#clip750)" d="M 0 0 M453.473 267.831 Q452.686 267.831 452.223 268.369 Q451.765 268.907 451.765 269.844 Q451.765 270.776 452.223 271.32 Q452.686 271.858 453.473 271.858 Q454.26 271.858 454.717 271.32 Q455.18 270.776 455.18 269.844 Q455.18 268.907 454.717 268.369 Q454.26 267.831 453.473 267.831 M455.793 264.167 L455.793 265.232 Q455.353 265.024 454.902 264.914 Q454.456 264.804 454.017 264.804 Q452.859 264.804 452.246 265.585 Q451.638 266.366 451.551 267.946 Q451.893 267.443 452.408 267.177 Q452.923 266.905 453.542 266.905 Q454.844 266.905 455.596 267.697 Q456.355 268.484 456.355 269.844 Q456.355 271.175 455.567 271.98 Q454.78 272.784 453.473 272.784 Q451.974 272.784 451.181 271.638 Q450.388 270.487 450.388 268.305 Q450.388 266.256 451.36 265.041 Q452.333 263.82 453.97 263.82 Q454.41 263.82 454.856 263.907 Q455.307 263.994 455.793 264.167 Z" fill="#000000" fill-rule="evenodd" fill-opacity="1" /><path clip-path="url(#clip750)" d="M 0 0 M460.122 264.746 Q459.219 264.746 458.762 265.637 Q458.311 266.523 458.311 268.305 Q458.311 270.082 458.762 270.973 Q459.219 271.858 460.122 271.858 Q461.03 271.858 461.482 270.973 Q461.939 270.082 461.939 268.305 Q461.939 266.523 461.482 265.637 Q461.03 264.746 460.122 264.746 M460.122 263.82 Q461.574 263.82 462.338 264.972 Q463.108 266.118 463.108 268.305 Q463.108 270.487 462.338 271.638 Q461.574 272.784 460.122 272.784 Q458.669 272.784 457.9 271.638 Q457.136 270.487 457.136 268.305 Q457.136 266.118 457.9 264.972 Q458.669 263.82 460.122 263.82 Z" fill="#000000" fill-rule="evenodd" fill-opacity="1" /><g clip-path="url(#clip750)">
<text style="fill:#000000; fill-opacity:1; font-family:Arial,Helvetica Neue,Helvetica,sans-serif; font-size:16px; text-anchor:middle;" transform="rotate(0, 266.066, 293.459)" x="266.066" y="293.459">N</text>
</g>
<polyline clip-path="url(#clip752)" style="stroke:#000000; stroke-width:0.5; stroke-opacity:0.1; fill:none" points="
  63.9427,231.838 468.189,231.838 
  "/>
<polyline clip-path="url(#clip752)" style="stroke:#000000; stroke-width:0.5; stroke-opacity:0.1; fill:none" points="
  63.9427,201.091 468.189,201.091 
  "/>
<polyline clip-path="url(#clip752)" style="stroke:#000000; stroke-width:0.5; stroke-opacity:0.1; fill:none" points="
  63.9427,170.344 468.189,170.344 
  "/>
<polyline clip-path="url(#clip752)" style="stroke:#000000; stroke-width:0.5; stroke-opacity:0.1; fill:none" points="
  63.9427,139.597 468.189,139.597 
  "/>
<polyline clip-path="url(#clip752)" style="stroke:#000000; stroke-width:0.5; stroke-opacity:0.1; fill:none" points="
  63.9427,108.851 468.189,108.851 
  "/>
<polyline clip-path="url(#clip752)" style="stroke:#000000; stroke-width:0.5; stroke-opacity:0.1; fill:none" points="
  63.9427,78.1038 468.189,78.1038 
  "/>
<polyline clip-path="url(#clip752)" style="stroke:#000000; stroke-width:0.5; stroke-opacity:0.1; fill:none" points="
  63.9427,47.357 468.189,47.357 
  "/>
<polyline clip-path="url(#clip750)" style="stroke:#000000; stroke-width:1; stroke-opacity:1; fill:none" points="
  63.9427,258.408 63.9427,27.537 
  "/>
<polyline clip-path="url(#clip750)" style="stroke:#000000; stroke-width:1; stroke-opacity:1; fill:none" points="
  63.9427,231.838 68.7937,231.838 
  "/>
<polyline clip-path="url(#clip750)" style="stroke:#000000; stroke-width:1; stroke-opacity:1; fill:none" points="
  63.9427,201.091 68.7937,201.091 
  "/>
<polyline clip-path="url(#clip750)" style="stroke:#000000; stroke-width:1; stroke-opacity:1; fill:none" points="
  63.9427,170.344 68.7937,170.344 
  "/>
<polyline clip-path="url(#clip750)" style="stroke:#000000; stroke-width:1; stroke-opacity:1; fill:none" points="
  63.9427,139.597 68.7937,139.597 
  "/>
<polyline clip-path="url(#clip750)" style="stroke:#000000; stroke-width:1; stroke-opacity:1; fill:none" points="
  63.9427,108.851 68.7937,108.851 
  "/>
<polyline clip-path="url(#clip750)" style="stroke:#000000; stroke-width:1; stroke-opacity:1; fill:none" points="
  63.9427,78.1038 68.7937,78.1038 
  "/>
<polyline clip-path="url(#clip750)" style="stroke:#000000; stroke-width:1; stroke-opacity:1; fill:none" points="
  63.9427,47.357 68.7937,47.357 
  "/>
<path clip-path="url(#clip750)" d="M 0 0 M28.5839 236.786 L30.4936 236.786 L30.4936 230.195 L28.4161 230.611 L28.4161 229.547 L30.482 229.13 L31.651 229.13 L31.651 236.786 L33.5607 236.786 L33.5607 237.77 L28.5839 237.77 L28.5839 236.786 Z" fill="#000000" fill-rule="evenodd" fill-opacity="1" /><path clip-path="url(#clip750)" d="M 0 0 M37.328 229.9 Q36.4253 229.9 35.9681 230.791 Q35.5167 231.676 35.5167 233.459 Q35.5167 235.235 35.9681 236.126 Q36.4253 237.012 37.328 237.012 Q38.2366 237.012 38.688 236.126 Q39.1452 235.235 39.1452 233.459 Q39.1452 231.676 38.688 230.791 Q38.2366 229.9 37.328 229.9 M37.328 228.974 Q38.7806 228.974 39.5445 230.125 Q40.3141 231.271 40.3141 233.459 Q40.3141 235.64 39.5445 236.792 Q38.7806 237.938 37.328 237.938 Q35.8755 237.938 35.1058 236.792 Q34.3419 235.64 34.3419 233.459 Q34.3419 231.271 35.1058 230.125 Q35.8755 228.974 37.328 228.974 Z" fill="#000000" fill-rule="evenodd" fill-opacity="1" /><path clip-path="url(#clip750)" d="M 0 0 M40.3141 227.499 L46.342 227.499 L46.342 228.298 L40.3141 228.298 L40.3141 227.499 Z" fill="#000000" fill-rule="evenodd" fill-opacity="1" /><path clip-path="url(#clip750)" d="M 0 0 M47.5363 230.118 L49.088 230.118 L49.088 224.762 L47.4 225.101 L47.4 224.236 L49.0786 223.897 L50.0284 223.897 L50.0284 230.118 L51.58 230.118 L51.58 230.917 L47.5363 230.917 L47.5363 230.118 Z" fill="#000000" fill-rule="evenodd" fill-opacity="1" /><path clip-path="url(#clip750)" d="M 0 0 M53.4279 230.118 L56.7427 230.118 L56.7427 230.917 L52.2853 230.917 L52.2853 230.118 Q52.826 229.558 53.757 228.618 Q54.6927 227.673 54.9325 227.4 Q55.3886 226.888 55.5672 226.535 Q55.7506 226.178 55.7506 225.834 Q55.7506 225.275 55.3557 224.922 Q54.9654 224.57 54.3353 224.57 Q53.8886 224.57 53.3902 224.725 Q52.8965 224.88 52.3323 225.195 L52.3323 224.236 Q52.9059 224.005 53.4043 223.888 Q53.9028 223.77 54.3165 223.77 Q55.4074 223.77 56.0562 224.316 Q56.7051 224.861 56.7051 225.773 Q56.7051 226.206 56.5405 226.596 Q56.3807 226.982 55.9528 227.508 Q55.8353 227.645 55.2052 228.298 Q54.5751 228.947 53.4279 230.118 Z" fill="#000000" fill-rule="evenodd" fill-opacity="1" /><path clip-path="url(#clip750)" d="M 0 0 M28.2594 206.039 L30.1692 206.039 L30.1692 199.448 L28.0916 199.864 L28.0916 198.8 L30.1576 198.383 L31.3266 198.383 L31.3266 206.039 L33.2363 206.039 L33.2363 207.023 L28.2594 207.023 L28.2594 206.039 Z" fill="#000000" fill-rule="evenodd" fill-opacity="1" /><path clip-path="url(#clip750)" d="M 0 0 M37.0036 199.153 Q36.1008 199.153 35.6437 200.044 Q35.1923 200.929 35.1923 202.712 Q35.1923 204.488 35.6437 205.38 Q36.1008 206.265 37.0036 206.265 Q37.9122 206.265 38.3636 205.38 Q38.8207 204.488 38.8207 202.712 Q38.8207 200.929 38.3636 200.044 Q37.9122 199.153 37.0036 199.153 M37.0036 198.227 Q38.4561 198.227 39.22 199.378 Q39.9897 200.524 39.9897 202.712 Q39.9897 204.893 39.22 206.045 Q38.4561 207.191 37.0036 207.191 Q35.5511 207.191 34.7814 206.045 Q34.0175 204.893 34.0175 202.712 Q34.0175 200.524 34.7814 199.378 Q35.5511 198.227 37.0036 198.227 Z" fill="#000000" fill-rule="evenodd" fill-opacity="1" /><path clip-path="url(#clip750)" d="M 0 0 M39.9897 196.752 L46.0176 196.752 L46.0176 197.551 L39.9897 197.551 L39.9897 196.752 Z" fill="#000000" fill-rule="evenodd" fill-opacity="1" /><path clip-path="url(#clip750)" d="M 0 0 M47.2119 199.371 L48.7635 199.371 L48.7635 194.016 L47.0755 194.354 L47.0755 193.489 L48.7541 193.15 L49.7039 193.15 L49.7039 199.371 L51.2556 199.371 L51.2556 200.17 L47.2119 200.17 L47.2119 199.371 Z" fill="#000000" fill-rule="evenodd" fill-opacity="1" /><path clip-path="url(#clip750)" d="M 0 0 M54.3165 193.776 Q53.583 193.776 53.2116 194.5 Q52.8448 195.219 52.8448 196.667 Q52.8448 198.111 53.2116 198.835 Q53.583 199.554 54.3165 199.554 Q55.0547 199.554 55.4215 198.835 Q55.7929 198.111 55.7929 196.667 Q55.7929 195.219 55.4215 194.5 Q55.0547 193.776 54.3165 193.776 M54.3165 193.023 Q55.4967 193.023 56.1174 193.959 Q56.7427 194.89 56.7427 196.667 Q56.7427 198.44 56.1174 199.376 Q55.4967 200.307 54.3165 200.307 Q53.1363 200.307 52.511 199.376 Q51.8903 198.44 51.8903 196.667 Q51.8903 194.89 52.511 193.959 Q53.1363 193.023 54.3165 193.023 Z" fill="#000000" fill-rule="evenodd" fill-opacity="1" /><path clip-path="url(#clip750)" d="M 0 0 M33.5162 175.292 L35.4259 175.292 L35.4259 168.701 L33.3484 169.118 L33.3484 168.053 L35.4144 167.636 L36.5833 167.636 L36.5833 175.292 L38.493 175.292 L38.493 176.276 L33.5162 176.276 L33.5162 175.292 Z" fill="#000000" fill-rule="evenodd" fill-opacity="1" /><path clip-path="url(#clip750)" d="M 0 0 M42.2604 168.406 Q41.3576 168.406 40.9004 169.297 Q40.449 170.182 40.449 171.965 Q40.449 173.741 40.9004 174.633 Q41.3576 175.518 42.2604 175.518 Q43.1689 175.518 43.6203 174.633 Q44.0775 173.741 44.0775 171.965 Q44.0775 170.182 43.6203 169.297 Q43.1689 168.406 42.2604 168.406 M42.2604 167.48 Q43.7129 167.48 44.4768 168.632 Q45.2465 169.777 45.2465 171.965 Q45.2465 174.147 44.4768 175.298 Q43.7129 176.444 42.2604 176.444 Q40.8078 176.444 40.0382 175.298 Q39.2743 174.147 39.2743 171.965 Q39.2743 169.777 40.0382 168.632 Q40.8078 167.48 42.2604 167.48 Z" fill="#000000" fill-rule="evenodd" fill-opacity="1" /><path clip-path="url(#clip750)" d="M 0 0 M45.2465 166.005 L51.2744 166.005 L51.2744 166.805 L45.2465 166.805 L45.2465 166.005 Z" fill="#000000" fill-rule="evenodd" fill-opacity="1" /><path clip-path="url(#clip750)" d="M 0 0 M54.3353 166.09 Q53.6583 166.09 53.268 166.452 Q52.8824 166.814 52.8824 167.449 Q52.8824 168.084 53.268 168.446 Q53.6583 168.808 54.3353 168.808 Q55.0124 168.808 55.4027 168.446 Q55.7929 168.079 55.7929 167.449 Q55.7929 166.814 55.4027 166.452 Q55.0171 166.09 54.3353 166.09 M53.3855 165.686 Q52.7743 165.535 52.431 165.117 Q52.0925 164.698 52.0925 164.096 Q52.0925 163.255 52.6897 162.766 Q53.2915 162.277 54.3353 162.277 Q55.3839 162.277 55.981 162.766 Q56.5782 163.255 56.5782 164.096 Q56.5782 164.698 56.2349 165.117 Q55.8964 165.535 55.2898 165.686 Q55.9763 165.845 56.3572 166.311 Q56.7427 166.776 56.7427 167.449 Q56.7427 168.469 56.1174 169.015 Q55.4967 169.56 54.3353 169.56 Q53.174 169.56 52.5486 169.015 Q51.9279 168.469 51.9279 167.449 Q51.9279 166.776 52.3135 166.311 Q52.6991 165.845 53.3855 165.686 M53.0376 164.186 Q53.0376 164.731 53.3761 165.037 Q53.7194 165.342 54.3353 165.342 Q54.9466 165.342 55.2898 165.037 Q55.6378 164.731 55.6378 164.186 Q55.6378 163.64 55.2898 163.335 Q54.9466 163.029 54.3353 163.029 Q53.7194 163.029 53.3761 163.335 Q53.0376 163.64 53.0376 164.186 Z" fill="#000000" fill-rule="evenodd" fill-opacity="1" /><path clip-path="url(#clip750)" d="M 0 0 M33.4645 144.546 L35.3742 144.546 L35.3742 137.954 L33.2967 138.371 L33.2967 137.306 L35.3626 136.889 L36.5316 136.889 L36.5316 144.546 L38.4413 144.546 L38.4413 145.529 L33.4645 145.529 L33.4645 144.546 Z" fill="#000000" fill-rule="evenodd" fill-opacity="1" /><path clip-path="url(#clip750)" d="M 0 0 M42.2087 137.659 Q41.3059 137.659 40.8487 138.55 Q40.3973 139.436 40.3973 141.218 Q40.3973 142.995 40.8487 143.886 Q41.3059 144.771 42.2087 144.771 Q43.1172 144.771 43.5686 143.886 Q44.0258 142.995 44.0258 141.218 Q44.0258 139.436 43.5686 138.55 Q43.1172 137.659 42.2087 137.659 M42.2087 136.733 Q43.6612 136.733 44.4251 137.885 Q45.1948 139.031 45.1948 141.218 Q45.1948 143.4 44.4251 144.551 Q43.6612 145.697 42.2087 145.697 Q40.7561 145.697 39.9864 144.551 Q39.2226 143.4 39.2226 141.218 Q39.2226 139.031 39.9864 137.885 Q40.7561 136.733 42.2087 136.733 Z" fill="#000000" fill-rule="evenodd" fill-opacity="1" /><path clip-path="url(#clip750)" d="M 0 0 M45.1948 135.258 L51.2226 135.258 L51.2226 136.058 L45.1948 136.058 L45.1948 135.258 Z" fill="#000000" fill-rule="evenodd" fill-opacity="1" /><path clip-path="url(#clip750)" d="M 0 0 M54.4012 134.788 Q53.7617 134.788 53.3855 135.226 Q53.0141 135.663 53.0141 136.425 Q53.0141 137.182 53.3855 137.624 Q53.7617 138.061 54.4012 138.061 Q55.0406 138.061 55.4121 137.624 Q55.7882 137.182 55.7882 136.425 Q55.7882 135.663 55.4121 135.226 Q55.0406 134.788 54.4012 134.788 M56.2866 131.812 L56.2866 132.677 Q55.9293 132.508 55.5625 132.418 Q55.2005 132.329 54.8431 132.329 Q53.9028 132.329 53.4043 132.964 Q52.9106 133.599 52.8401 134.882 Q53.1175 134.473 53.536 134.257 Q53.9545 134.036 54.4576 134.036 Q55.5155 134.036 56.1268 134.68 Q56.7427 135.32 56.7427 136.425 Q56.7427 137.506 56.1033 138.16 Q55.4638 138.813 54.4012 138.813 Q53.1834 138.813 52.5392 137.882 Q51.895 136.946 51.895 135.174 Q51.895 133.509 52.6849 132.522 Q53.4749 131.53 54.8055 131.53 Q55.1629 131.53 55.5249 131.6 Q55.8917 131.671 56.2866 131.812 Z" fill="#000000" fill-rule="evenodd" fill-opacity="1" /><path clip-path="url(#clip750)" d="M 0 0 M33.3987 113.799 L35.3084 113.799 L35.3084 107.207 L33.2308 107.624 L33.2308 106.559 L35.2968 106.143 L36.4658 106.143 L36.4658 113.799 L38.3755 113.799 L38.3755 114.783 L33.3987 114.783 L33.3987 113.799 Z" fill="#000000" fill-rule="evenodd" fill-opacity="1" /><path clip-path="url(#clip750)" d="M 0 0 M42.1428 106.912 Q41.2401 106.912 40.7829 107.803 Q40.3315 108.689 40.3315 110.471 Q40.3315 112.248 40.7829 113.139 Q41.2401 114.024 42.1428 114.024 Q43.0514 114.024 43.5028 113.139 Q43.96 112.248 43.96 110.471 Q43.96 108.689 43.5028 107.803 Q43.0514 106.912 42.1428 106.912 M42.1428 105.986 Q43.5954 105.986 44.3593 107.138 Q45.1289 108.284 45.1289 110.471 Q45.1289 112.653 44.3593 113.805 Q43.5954 114.95 42.1428 114.95 Q40.6903 114.95 39.9206 113.805 Q39.1567 112.653 39.1567 110.471 Q39.1567 108.284 39.9206 107.138 Q40.6903 105.986 42.1428 105.986 Z" fill="#000000" fill-rule="evenodd" fill-opacity="1" /><path clip-path="url(#clip750)" d="M 0 0 M45.1289 104.512 L51.1568 104.512 L51.1568 105.311 L45.1289 105.311 L45.1289 104.512 Z" fill="#000000" fill-rule="evenodd" fill-opacity="1" /><path clip-path="url(#clip750)" d="M 0 0 M54.7961 101.737 L52.3981 105.485 L54.7961 105.485 L54.7961 101.737 M54.5469 100.91 L55.7412 100.91 L55.7412 105.485 L56.7427 105.485 L56.7427 106.275 L55.7412 106.275 L55.7412 107.93 L54.7961 107.93 L54.7961 106.275 L51.627 106.275 L51.627 105.358 L54.5469 100.91 Z" fill="#000000" fill-rule="evenodd" fill-opacity="1" /><path clip-path="url(#clip750)" d="M 0 0 M33.8218 83.0519 L35.7316 83.0519 L35.7316 76.4605 L33.654 76.8772 L33.654 75.8124 L35.72 75.3957 L36.889 75.3957 L36.889 83.0519 L38.7987 83.0519 L38.7987 84.0357 L33.8218 84.0357 L33.8218 83.0519 Z" fill="#000000" fill-rule="evenodd" fill-opacity="1" /><path clip-path="url(#clip750)" d="M 0 0 M42.566 76.1654 Q41.6632 76.1654 41.2061 77.0566 Q40.7547 77.942 40.7547 79.7244 Q40.7547 81.501 41.2061 82.3922 Q41.6632 83.2776 42.566 83.2776 Q43.4746 83.2776 43.926 82.3922 Q44.3831 81.501 44.3831 79.7244 Q44.3831 77.942 43.926 77.0566 Q43.4746 76.1654 42.566 76.1654 M42.566 75.2395 Q44.0185 75.2395 44.7824 76.3911 Q45.5521 77.5369 45.5521 79.7244 Q45.5521 81.9061 44.7824 83.0577 Q44.0185 84.2035 42.566 84.2035 Q41.1135 84.2035 40.3438 83.0577 Q39.5799 81.9061 39.5799 79.7244 Q39.5799 77.5369 40.3438 76.3911 Q41.1135 75.2395 42.566 75.2395 Z" fill="#000000" fill-rule="evenodd" fill-opacity="1" /><path clip-path="url(#clip750)" d="M 0 0 M45.5521 73.7648 L51.58 73.7648 L51.58 74.5641 L45.5521 74.5641 L45.5521 73.7648 Z" fill="#000000" fill-rule="evenodd" fill-opacity="1" /><path clip-path="url(#clip750)" d="M 0 0 M53.4279 76.3838 L56.7427 76.3838 L56.7427 77.1831 L52.2853 77.1831 L52.2853 76.3838 Q52.826 75.8242 53.757 74.8839 Q54.6927 73.9388 54.9325 73.6661 Q55.3886 73.1535 55.5672 72.8009 Q55.7506 72.4436 55.7506 72.1003 Q55.7506 71.5408 55.3557 71.1881 Q54.9654 70.8355 54.3353 70.8355 Q53.8886 70.8355 53.3902 70.9907 Q52.8965 71.1458 52.3323 71.4608 L52.3323 70.5016 Q52.9059 70.2713 53.4043 70.1537 Q53.9028 70.0362 54.3165 70.0362 Q55.4074 70.0362 56.0562 70.5816 Q56.7051 71.127 56.7051 72.0392 Q56.7051 72.4718 56.5405 72.862 Q56.3807 73.2476 55.9528 73.7742 Q55.8353 73.9106 55.2052 74.5641 Q54.5751 75.213 53.4279 76.3838 Z" fill="#000000" fill-rule="evenodd" fill-opacity="1" /><path clip-path="url(#clip750)" d="M 0 0 M40.1601 52.3051 L42.0698 52.3051 L42.0698 45.7137 L39.9922 46.1304 L39.9922 45.0655 L42.0582 44.6489 L43.2272 44.6489 L43.2272 52.3051 L45.1369 52.3051 L45.1369 53.2889 L40.1601 53.2889 L40.1601 52.3051 Z" fill="#000000" fill-rule="evenodd" fill-opacity="1" /><path clip-path="url(#clip750)" d="M 0 0 M48.9042 45.4186 Q48.0015 45.4186 47.5443 46.3098 Q47.0929 47.1952 47.0929 48.9776 Q47.0929 50.7542 47.5443 51.6454 Q48.0015 52.5308 48.9042 52.5308 Q49.8128 52.5308 50.2642 51.6454 Q50.7213 50.7542 50.7213 48.9776 Q50.7213 47.1952 50.2642 46.3098 Q49.8128 45.4186 48.9042 45.4186 M48.9042 44.4926 Q50.3568 44.4926 51.1206 45.6442 Q51.8903 46.7901 51.8903 48.9776 Q51.8903 51.1593 51.1206 52.3109 Q50.3568 53.4567 48.9042 53.4567 Q47.4517 53.4567 46.682 52.3109 Q45.9181 51.1593 45.9181 48.9776 Q45.9181 46.7901 46.682 45.6442 Q47.4517 44.4926 48.9042 44.4926 Z" fill="#000000" fill-rule="evenodd" fill-opacity="1" /><path clip-path="url(#clip750)" d="M 0 0 M54.3165 40.0416 Q53.583 40.0416 53.2116 40.7657 Q52.8448 41.4851 52.8448 42.9333 Q52.8448 44.3768 53.2116 45.1009 Q53.583 45.8203 54.3165 45.8203 Q55.0547 45.8203 55.4215 45.1009 Q55.7929 44.3768 55.7929 42.9333 Q55.7929 41.4851 55.4215 40.7657 Q55.0547 40.0416 54.3165 40.0416 M54.3165 39.2893 Q55.4967 39.2893 56.1174 40.225 Q56.7427 41.156 56.7427 42.9333 Q56.7427 44.706 56.1174 45.6417 Q55.4967 46.5726 54.3165 46.5726 Q53.1363 46.5726 52.511 45.6417 Q51.8903 44.706 51.8903 42.9333 Q51.8903 41.156 52.511 40.225 Q53.1363 39.2893 54.3165 39.2893 Z" fill="#000000" fill-rule="evenodd" fill-opacity="1" /><g clip-path="url(#clip750)">
<text style="fill:#000000; fill-opacity:1; font-family:Arial,Helvetica Neue,Helvetica,sans-serif; font-size:16px; text-anchor:middle;" transform="rotate(-90, 18.0011, 142.973)" x="18.0011" y="142.973">max error</text>
</g>
<g clip-path="url(#clip750)">
<text style="fill:#000000; fill-opacity:1; font-family:Arial,Helvetica Neue,Helvetica,sans-serif; font-size:18px; font-weight:bold; text-anchor:middle;" transform="rotate(0, 266.066, 15.6)" x="266.066" y="15.6">Convergence of trig interpolation</text>
</g>
<polyline clip-path="url(#clip752)" style="stroke:#009af9; stroke-width:2; stroke-opacity:1; fill:none" points="
  75.3837,34.0711 88.5342,41.4123 101.685,52.9488 114.835,61.4606 127.986,69.0701 141.136,79.3283 154.287,91.6223 167.437,105.951 180.588,122.605 193.738,143.887 
  206.889,154.447 220.039,167.058 233.19,182.156 246.34,199.076 259.491,217.79 272.641,239.011 285.792,250.481 298.942,251.303 312.093,251.088 325.243,251.195 
  338.394,251.874 351.544,249.088 364.695,248.933 377.845,249.577 390.996,250.013 404.146,249.924 417.297,251.756 430.447,246.621 443.598,248.781 456.748,246.567 
  
  "/>
<path clip-path="url(#clip752)" d="M75.3837 38.0711 L72.5557 36.8991 L71.3837 34.0711 L72.5557 31.2431 L75.3837 30.0711 L78.2117 31.2431 L79.3837 34.0711 L78.2117 36.8991 Z" fill="#009af9" fill-rule="evenodd" fill-opacity="1" stroke="#000000" stroke-opacity="1" stroke-width="0.6"/>
<path clip-path="url(#clip752)" d="M88.5342 45.4123 L85.7062 44.2403 L84.5342 41.4123 L85.7062 38.5843 L88.5342 37.4123 L91.3622 38.5843 L92.5342 41.4123 L91.3622 44.2403 Z" fill="#009af9" fill-rule="evenodd" fill-opacity="1" stroke="#000000" stroke-opacity="1" stroke-width="0.6"/>
<path clip-path="url(#clip752)" d="M101.685 56.9488 L98.8566 55.7768 L97.6846 52.9488 L98.8566 50.1208 L101.685 48.9488 L104.513 50.1208 L105.685 52.9488 L104.513 55.7768 Z" fill="#009af9" fill-rule="evenodd" fill-opacity="1" stroke="#000000" stroke-opacity="1" stroke-width="0.6"/>
<path clip-path="url(#clip752)" d="M114.835 65.4606 L112.007 64.2886 L110.835 61.4606 L112.007 58.6326 L114.835 57.4606 L117.663 58.6326 L118.835 61.4606 L117.663 64.2886 Z" fill="#009af9" fill-rule="evenodd" fill-opacity="1" stroke="#000000" stroke-opacity="1" stroke-width="0.6"/>
<path clip-path="url(#clip752)" d="M127.986 73.0701 L125.158 71.8981 L123.986 69.0701 L125.158 66.2421 L127.986 65.0701 L130.814 66.2421 L131.986 69.0701 L130.814 71.8981 Z" fill="#009af9" fill-rule="evenodd" fill-opacity="1" stroke="#000000" stroke-opacity="1" stroke-width="0.6"/>
<path clip-path="url(#clip752)" d="M141.136 83.3283 L138.308 82.1563 L137.136 79.3283 L138.308 76.5003 L141.136 75.3283 L143.964 76.5003 L145.136 79.3283 L143.964 82.1563 Z" fill="#009af9" fill-rule="evenodd" fill-opacity="1" stroke="#000000" stroke-opacity="1" stroke-width="0.6"/>
<path clip-path="url(#clip752)" d="M154.287 95.6223 L151.459 94.4503 L150.287 91.6223 L151.459 88.7943 L154.287 87.6223 L157.115 88.7943 L158.287 91.6223 L157.115 94.4503 Z" fill="#009af9" fill-rule="evenodd" fill-opacity="1" stroke="#000000" stroke-opacity="1" stroke-width="0.6"/>
<path clip-path="url(#clip752)" d="M167.437 109.951 L164.609 108.779 L163.437 105.951 L164.609 103.123 L167.437 101.951 L170.265 103.123 L171.437 105.951 L170.265 108.779 Z" fill="#009af9" fill-rule="evenodd" fill-opacity="1" stroke="#000000" stroke-opacity="1" stroke-width="0.6"/>
<path clip-path="url(#clip752)" d="M180.588 126.605 L177.76 125.433 L176.588 122.605 L177.76 119.777 L180.588 118.605 L183.416 119.777 L184.588 122.605 L183.416 125.433 Z" fill="#009af9" fill-rule="evenodd" fill-opacity="1" stroke="#000000" stroke-opacity="1" stroke-width="0.6"/>
<path clip-path="url(#clip752)" d="M193.738 147.887 L190.91 146.715 L189.738 143.887 L190.91 141.059 L193.738 139.887 L196.566 141.059 L197.738 143.887 L196.566 146.715 Z" fill="#009af9" fill-rule="evenodd" fill-opacity="1" stroke="#000000" stroke-opacity="1" stroke-width="0.6"/>
<path clip-path="url(#clip752)" d="M206.889 158.447 L204.061 157.275 L202.889 154.447 L204.061 151.619 L206.889 150.447 L209.717 151.619 L210.889 154.447 L209.717 157.275 Z" fill="#009af9" fill-rule="evenodd" fill-opacity="1" stroke="#000000" stroke-opacity="1" stroke-width="0.6"/>
<path clip-path="url(#clip752)" d="M220.039 171.058 L217.211 169.886 L216.039 167.058 L217.211 164.23 L220.039 163.058 L222.867 164.23 L224.039 167.058 L222.867 169.886 Z" fill="#009af9" fill-rule="evenodd" fill-opacity="1" stroke="#000000" stroke-opacity="1" stroke-width="0.6"/>
<path clip-path="url(#clip752)" d="M233.19 186.156 L230.362 184.984 L229.19 182.156 L230.362 179.328 L233.19 178.156 L236.018 179.328 L237.19 182.156 L236.018 184.984 Z" fill="#009af9" fill-rule="evenodd" fill-opacity="1" stroke="#000000" stroke-opacity="1" stroke-width="0.6"/>
<path clip-path="url(#clip752)" d="M246.34 203.076 L243.512 201.904 L242.34 199.076 L243.512 196.248 L246.34 195.076 L249.168 196.248 L250.34 199.076 L249.168 201.904 Z" fill="#009af9" fill-rule="evenodd" fill-opacity="1" stroke="#000000" stroke-opacity="1" stroke-width="0.6"/>
<path clip-path="url(#clip752)" d="M259.491 221.79 L256.663 220.618 L255.491 217.79 L256.663 214.962 L259.491 213.79 L262.319 214.962 L263.491 217.79 L262.319 220.618 Z" fill="#009af9" fill-rule="evenodd" fill-opacity="1" stroke="#000000" stroke-opacity="1" stroke-width="0.6"/>
<path clip-path="url(#clip752)" d="M272.641 243.011 L269.813 241.839 L268.641 239.011 L269.813 236.183 L272.641 235.011 L275.469 236.183 L276.641 239.011 L275.469 241.839 Z" fill="#009af9" fill-rule="evenodd" fill-opacity="1" stroke="#000000" stroke-opacity="1" stroke-width="0.6"/>
<path clip-path="url(#clip752)" d="M285.792 254.481 L282.964 253.309 L281.792 250.481 L282.964 247.653 L285.792 246.481 L288.62 247.653 L289.792 250.481 L288.62 253.309 Z" fill="#009af9" fill-rule="evenodd" fill-opacity="1" stroke="#000000" stroke-opacity="1" stroke-width="0.6"/>
<path clip-path="url(#clip752)" d="M298.942 255.303 L296.114 254.131 L294.942 251.303 L296.114 248.475 L298.942 247.303 L301.77 248.475 L302.942 251.303 L301.77 254.131 Z" fill="#009af9" fill-rule="evenodd" fill-opacity="1" stroke="#000000" stroke-opacity="1" stroke-width="0.6"/>
<path clip-path="url(#clip752)" d="M312.093 255.088 L309.265 253.916 L308.093 251.088 L309.265 248.26 L312.093 247.088 L314.921 248.26 L316.093 251.088 L314.921 253.916 Z" fill="#009af9" fill-rule="evenodd" fill-opacity="1" stroke="#000000" stroke-opacity="1" stroke-width="0.6"/>
<path clip-path="url(#clip752)" d="M325.243 255.195 L322.415 254.023 L321.243 251.195 L322.415 248.367 L325.243 247.195 L328.071 248.367 L329.243 251.195 L328.071 254.023 Z" fill="#009af9" fill-rule="evenodd" fill-opacity="1" stroke="#000000" stroke-opacity="1" stroke-width="0.6"/>
<path clip-path="url(#clip752)" d="M338.394 255.874 L335.566 254.702 L334.394 251.874 L335.566 249.046 L338.394 247.874 L341.222 249.046 L342.394 251.874 L341.222 254.702 Z" fill="#009af9" fill-rule="evenodd" fill-opacity="1" stroke="#000000" stroke-opacity="1" stroke-width="0.6"/>
<path clip-path="url(#clip752)" d="M351.544 253.088 L348.716 251.916 L347.544 249.088 L348.716 246.26 L351.544 245.088 L354.372 246.26 L355.544 249.088 L354.372 251.916 Z" fill="#009af9" fill-rule="evenodd" fill-opacity="1" stroke="#000000" stroke-opacity="1" stroke-width="0.6"/>
<path clip-path="url(#clip752)" d="M364.695 252.933 L361.867 251.761 L360.695 248.933 L361.867 246.105 L364.695 244.933 L367.523 246.105 L368.695 248.933 L367.523 251.761 Z" fill="#009af9" fill-rule="evenodd" fill-opacity="1" stroke="#000000" stroke-opacity="1" stroke-width="0.6"/>
<path clip-path="url(#clip752)" d="M377.845 253.577 L375.017 252.405 L373.845 249.577 L375.017 246.749 L377.845 245.577 L380.673 246.749 L381.845 249.577 L380.673 252.405 Z" fill="#009af9" fill-rule="evenodd" fill-opacity="1" stroke="#000000" stroke-opacity="1" stroke-width="0.6"/>
<path clip-path="url(#clip752)" d="M390.996 254.013 L388.168 252.841 L386.996 250.013 L388.168 247.185 L390.996 246.013 L393.824 247.185 L394.996 250.013 L393.824 252.841 Z" fill="#009af9" fill-rule="evenodd" fill-opacity="1" stroke="#000000" stroke-opacity="1" stroke-width="0.6"/>
<path clip-path="url(#clip752)" d="M404.146 253.924 L401.318 252.752 L400.146 249.924 L401.318 247.096 L404.146 245.924 L406.974 247.096 L408.146 249.924 L406.974 252.752 Z" fill="#009af9" fill-rule="evenodd" fill-opacity="1" stroke="#000000" stroke-opacity="1" stroke-width="0.6"/>
<path clip-path="url(#clip752)" d="M417.297 255.756 L414.469 254.584 L413.297 251.756 L414.469 248.928 L417.297 247.756 L420.125 248.928 L421.297 251.756 L420.125 254.584 Z" fill="#009af9" fill-rule="evenodd" fill-opacity="1" stroke="#000000" stroke-opacity="1" stroke-width="0.6"/>
<path clip-path="url(#clip752)" d="M430.447 250.621 L427.619 249.449 L426.447 246.621 L427.619 243.793 L430.447 242.621 L433.275 243.793 L434.447 246.621 L433.275 249.449 Z" fill="#009af9" fill-rule="evenodd" fill-opacity="1" stroke="#000000" stroke-opacity="1" stroke-width="0.6"/>
<path clip-path="url(#clip752)" d="M443.598 252.781 L440.77 251.609 L439.598 248.781 L440.77 245.953 L443.598 244.781 L446.426 245.953 L447.598 248.781 L446.426 251.609 Z" fill="#009af9" fill-rule="evenodd" fill-opacity="1" stroke="#000000" stroke-opacity="1" stroke-width="0.6"/>
<path clip-path="url(#clip752)" d="M456.748 250.567 L453.92 249.395 L452.748 246.567 L453.92 243.739 L456.748 242.567 L459.576 243.739 L460.748 246.567 L459.576 249.395 Z" fill="#009af9" fill-rule="evenodd" fill-opacity="1" stroke="#000000" stroke-opacity="1" stroke-width="0.6"/>
</svg>
