<?xml version="1.0" encoding="utf-8"?>
<svg xmlns="http://www.w3.org/2000/svg" xmlns:xlink="http://www.w3.org/1999/xlink" width="120" height="75" viewBox="0 0 480 300">
<defs>
  <clipPath id="clip670">
    <rect x="0" y="0" width="480" height="300"/>
  </clipPath>
</defs>
<path clip-path="url(#clip670)" d="
M0 300 L480 300 L480 0 L0 0  Z
  " fill="#ffffff" fill-rule="evenodd" fill-opacity="1"/>
<defs>
  <clipPath id="clip671">
    <rect x="96" y="0" width="337" height="300"/>
  </clipPath>
</defs>
<path clip-path="url(#clip670)" d="
M50.5462 258.408 L468.189 258.408 L468.189 27.537 L50.5462 27.537  Z
  " fill="#ffffff" fill-rule="evenodd" fill-opacity="1"/>
<defs>
  <clipPath id="clip672">
    <rect x="50" y="27" width="419" height="232"/>
  </clipPath>
</defs>
<polyline clip-path="url(#clip672)" style="stroke:#000000; stroke-width:0.5; stroke-opacity:0.1; fill:none" points="
  62.3662,258.408 62.3662,27.537 
  "/>
<polyline clip-path="url(#clip672)" style="stroke:#000000; stroke-width:0.5; stroke-opacity:0.1; fill:none" points="
  160.867,258.408 160.867,27.537 
  "/>
<polyline clip-path="url(#clip672)" style="stroke:#000000; stroke-width:0.5; stroke-opacity:0.1; fill:none" points="
  259.368,258.408 259.368,27.537 
  "/>
<polyline clip-path="url(#clip672)" style="stroke:#000000; stroke-width:0.5; stroke-opacity:0.1; fill:none" points="
  357.868,258.408 357.868,27.537 
  "/>
<polyline clip-path="url(#clip672)" style="stroke:#000000; stroke-width:0.5; stroke-opacity:0.1; fill:none" points="
  456.369,258.408 456.369,27.537 
  "/>
<polyline clip-path="url(#clip670)" style="stroke:#000000; stroke-width:1; stroke-opacity:1; fill:none" points="
  50.5462,258.408 468.189,258.408 
  "/>
<polyline clip-path="url(#clip670)" style="stroke:#000000; stroke-width:1; stroke-opacity:1; fill:none" points="
  62.3662,258.408 62.3662,255.638 
  "/>
<polyline clip-path="url(#clip670)" style="stroke:#000000; stroke-width:1; stroke-opacity:1; fill:none" points="
  160.867,258.408 160.867,255.638 
  "/>
<polyline clip-path="url(#clip670)" style="stroke:#000000; stroke-width:1; stroke-opacity:1; fill:none" points="
  259.368,258.408 259.368,255.638 
  "/>
<polyline clip-path="url(#clip670)" style="stroke:#000000; stroke-width:1; stroke-opacity:1; fill:none" points="
  357.868,258.408 357.868,255.638 
  "/>
<polyline clip-path="url(#clip670)" style="stroke:#000000; stroke-width:1; stroke-opacity:1; fill:none" points="
  456.369,258.408 456.369,255.638 
  "/>
<path clip-path="url(#clip670)" d="M 0 0 M50.8125 268.409 L58.2314 268.409 L58.2314 269.393 L50.8125 269.393 L50.8125 268.409 Z" fill="#000000" fill-rule="evenodd" fill-opacity="1" /><path clip-path="url(#clip670)" d="M 0 0 M59.7013 271.633 L61.611 271.633 L61.611 265.041 L59.5335 265.458 L59.5335 264.393 L61.5995 263.976 L62.7684 263.976 L62.7684 271.633 L64.6782 271.633 L64.6782 272.616 L59.7013 272.616 L59.7013 271.633 Z" fill="#000000" fill-rule="evenodd" fill-opacity="1" /><path clip-path="url(#clip670)" d="M 0 0 M65.9455 271.146 L67.1666 271.146 L67.1666 272.616 L65.9455 272.616 L65.9455 271.146 Z" fill="#000000" fill-rule="evenodd" fill-opacity="1" /><path clip-path="url(#clip670)" d="M 0 0 M70.9339 264.746 Q70.0311 264.746 69.574 265.637 Q69.1226 266.523 69.1226 268.305 Q69.1226 270.082 69.574 270.973 Q70.0311 271.858 70.9339 271.858 Q71.8425 271.858 72.2939 270.973 Q72.751 270.082 72.751 268.305 Q72.751 266.523 72.2939 265.637 Q71.8425 264.746 70.9339 264.746 M70.9339 263.82 Q72.3864 263.82 73.1503 264.972 Q73.92 266.118 73.92 268.305 Q73.92 270.487 73.1503 271.638 Q72.3864 272.784 70.9339 272.784 Q69.4814 272.784 68.7117 271.638 Q67.9478 270.487 67.9478 268.305 Q67.9478 266.118 68.7117 264.972 Q69.4814 263.82 70.9339 263.82 Z" fill="#000000" fill-rule="evenodd" fill-opacity="1" /><path clip-path="url(#clip670)" d="M 0 0 M149.284 268.409 L156.703 268.409 L156.703 269.393 L149.284 269.393 L149.284 268.409 Z" fill="#000000" fill-rule="evenodd" fill-opacity="1" /><path clip-path="url(#clip670)" d="M 0 0 M160.47 264.746 Q159.568 264.746 159.111 265.637 Q158.659 266.523 158.659 268.305 Q158.659 270.082 159.111 270.973 Q159.568 271.858 160.47 271.858 Q161.379 271.858 161.83 270.973 Q162.288 270.082 162.288 268.305 Q162.288 266.523 161.83 265.637 Q161.379 264.746 160.47 264.746 M160.47 263.82 Q161.923 263.82 162.687 264.972 Q163.457 266.118 163.457 268.305 Q163.457 270.487 162.687 271.638 Q161.923 272.784 160.47 272.784 Q159.018 272.784 158.248 271.638 Q157.484 270.487 157.484 268.305 Q157.484 266.118 158.248 264.972 Q159.018 263.82 160.47 263.82 Z" fill="#000000" fill-rule="evenodd" fill-opacity="1" /><path clip-path="url(#clip670)" d="M 0 0 M164.724 271.146 L165.945 271.146 L165.945 272.616 L164.724 272.616 L164.724 271.146 Z" fill="#000000" fill-rule="evenodd" fill-opacity="1" /><path clip-path="url(#clip670)" d="M 0 0 M167.224 263.976 L171.813 263.976 L171.813 264.96 L168.295 264.96 L168.295 267.078 Q168.549 266.991 168.804 266.951 Q169.058 266.905 169.313 266.905 Q170.76 266.905 171.605 267.697 Q172.45 268.49 172.45 269.844 Q172.45 271.239 171.582 272.015 Q170.714 272.784 169.134 272.784 Q168.59 272.784 168.023 272.692 Q167.461 272.599 166.859 272.414 L166.859 271.239 Q167.38 271.523 167.936 271.662 Q168.491 271.8 169.11 271.8 Q170.112 271.8 170.696 271.274 Q171.281 270.747 171.281 269.844 Q171.281 268.942 170.696 268.415 Q170.112 267.888 169.11 267.888 Q168.642 267.888 168.173 267.993 Q167.71 268.097 167.224 268.317 L167.224 263.976 Z" fill="#000000" fill-rule="evenodd" fill-opacity="1" /><path clip-path="url(#clip670)" d="M 0 0 M254.747 264.746 Q253.844 264.746 253.387 265.637 Q252.935 266.523 252.935 268.305 Q252.935 270.082 253.387 270.973 Q253.844 271.858 254.747 271.858 Q255.655 271.858 256.107 270.973 Q256.564 270.082 256.564 268.305 Q256.564 266.523 256.107 265.637 Q255.655 264.746 254.747 264.746 M254.747 263.82 Q256.199 263.82 256.963 264.972 Q257.733 266.118 257.733 268.305 Q257.733 270.487 256.963 271.638 Q256.199 272.784 254.747 272.784 Q253.294 272.784 252.524 271.638 Q251.761 270.487 251.761 268.305 Q251.761 266.118 252.524 264.972 Q253.294 263.82 254.747 263.82 Z" fill="#000000" fill-rule="evenodd" fill-opacity="1" /><path clip-path="url(#clip670)" d="M 0 0 M259 271.146 L260.221 271.146 L260.221 272.616 L259 272.616 L259 271.146 Z" fill="#000000" fill-rule="evenodd" fill-opacity="1" /><path clip-path="url(#clip670)" d="M 0 0 M263.988 264.746 Q263.086 264.746 262.629 265.637 Q262.177 266.523 262.177 268.305 Q262.177 270.082 262.629 270.973 Q263.086 271.858 263.988 271.858 Q264.897 271.858 265.348 270.973 Q265.806 270.082 265.806 268.305 Q265.806 266.523 265.348 265.637 Q264.897 264.746 263.988 264.746 M263.988 263.82 Q265.441 263.82 266.205 264.972 Q266.975 266.118 266.975 268.305 Q266.975 270.487 266.205 271.638 Q265.441 272.784 263.988 272.784 Q262.536 272.784 261.766 271.638 Q261.002 270.487 261.002 268.305 Q261.002 266.118 261.766 264.972 Q262.536 263.82 263.988 263.82 Z" fill="#000000" fill-rule="evenodd" fill-opacity="1" /><path clip-path="url(#clip670)" d="M 0 0 M353.372 264.746 Q352.469 264.746 352.012 265.637 Q351.56 266.523 351.56 268.305 Q351.56 270.082 352.012 270.973 Q352.469 271.858 353.372 271.858 Q354.28 271.858 354.732 270.973 Q355.189 270.082 355.189 268.305 Q355.189 266.523 354.732 265.637 Q354.28 264.746 353.372 264.746 M353.372 263.82 Q354.824 263.82 355.588 264.972 Q356.358 266.118 356.358 268.305 Q356.358 270.487 355.588 271.638 Q354.824 272.784 353.372 272.784 Q351.919 272.784 351.15 271.638 Q350.386 270.487 350.386 268.305 Q350.386 266.118 351.15 264.972 Q351.919 263.82 353.372 263.82 Z" fill="#000000" fill-rule="evenodd" fill-opacity="1" /><path clip-path="url(#clip670)" d="M 0 0 M357.625 271.146 L358.846 271.146 L358.846 272.616 L357.625 272.616 L357.625 271.146 Z" fill="#000000" fill-rule="evenodd" fill-opacity="1" /><path clip-path="url(#clip670)" d="M 0 0 M360.125 263.976 L364.714 263.976 L364.714 264.96 L361.196 264.96 L361.196 267.078 Q361.45 266.991 361.705 266.951 Q361.96 266.905 362.214 266.905 Q363.661 266.905 364.506 267.697 Q365.351 268.49 365.351 269.844 Q365.351 271.239 364.483 272.015 Q363.615 272.784 362.035 272.784 Q361.491 272.784 360.924 272.692 Q360.362 272.599 359.761 272.414 L359.761 271.239 Q360.281 271.523 360.837 271.662 Q361.393 271.8 362.012 271.8 Q363.013 271.8 363.597 271.274 Q364.182 270.747 364.182 269.844 Q364.182 268.942 363.597 268.415 Q363.013 267.888 362.012 267.888 Q361.543 267.888 361.074 267.993 Q360.611 268.097 360.125 268.317 L360.125 263.976 Z" fill="#000000" fill-rule="evenodd" fill-opacity="1" /><path clip-path="url(#clip670)" d="M 0 0 M449.343 271.633 L451.253 271.633 L451.253 265.041 L449.176 265.458 L449.176 264.393 L451.242 263.976 L452.411 263.976 L452.411 271.633 L454.32 271.633 L454.32 272.616 L449.343 272.616 L449.343 271.633 Z" fill="#000000" fill-rule="evenodd" fill-opacity="1" /><path clip-path="url(#clip670)" d="M 0 0 M455.588 271.146 L456.809 271.146 L456.809 272.616 L455.588 272.616 L455.588 271.146 Z" fill="#000000" fill-rule="evenodd" fill-opacity="1" /><path clip-path="url(#clip670)" d="M 0 0 M460.576 264.746 Q459.673 264.746 459.216 265.637 Q458.765 266.523 458.765 268.305 Q458.765 270.082 459.216 270.973 Q459.673 271.858 460.576 271.858 Q461.485 271.858 461.936 270.973 Q462.393 270.082 462.393 268.305 Q462.393 266.523 461.936 265.637 Q461.485 264.746 460.576 264.746 M460.576 263.82 Q462.029 263.82 462.792 264.972 Q463.562 266.118 463.562 268.305 Q463.562 270.487 462.792 271.638 Q462.029 272.784 460.576 272.784 Q459.124 272.784 458.354 271.638 Q457.59 270.487 457.59 268.305 Q457.59 266.118 458.354 264.972 Q459.124 263.82 460.576 263.82 Z" fill="#000000" fill-rule="evenodd" fill-opacity="1" /><g clip-path="url(#clip670)">
<text style="fill:#000000; fill-opacity:1; font-family:Arial,Helvetica Neue,Helvetica,sans-serif; font-size:16px; text-anchor:middle;" transform="rotate(0, 259.368, 293.459)" x="259.368" y="293.459">x</text>
</g>
<polyline clip-path="url(#clip672)" style="stroke:#000000; stroke-width:0.5; stroke-opacity:0.1; fill:none" points="
  50.5462,210.72 468.189,210.72 
  "/>
<polyline clip-path="url(#clip672)" style="stroke:#000000; stroke-width:0.5; stroke-opacity:0.1; fill:none" points="
  50.5462,157.726 468.189,157.726 
  "/>
<polyline clip-path="url(#clip672)" style="stroke:#000000; stroke-width:0.5; stroke-opacity:0.1; fill:none" points="
  50.5462,104.731 468.189,104.731 
  "/>
<polyline clip-path="url(#clip672)" style="stroke:#000000; stroke-width:0.5; stroke-opacity:0.1; fill:none" points="
  50.5462,51.7361 468.189,51.7361 
  "/>
<polyline clip-path="url(#clip670)" style="stroke:#000000; stroke-width:1; stroke-opacity:1; fill:none" points="
  50.5462,258.408 50.5462,27.537 
  "/>
<polyline clip-path="url(#clip670)" style="stroke:#000000; stroke-width:1; stroke-opacity:1; fill:none" points="
  50.5462,210.72 55.5579,210.72 
  "/>
<polyline clip-path="url(#clip670)" style="stroke:#000000; stroke-width:1; stroke-opacity:1; fill:none" points="
  50.5462,157.726 55.5579,157.726 
  "/>
<polyline clip-path="url(#clip670)" style="stroke:#000000; stroke-width:1; stroke-opacity:1; fill:none" points="
  50.5462,104.731 55.5579,104.731 
  "/>
<polyline clip-path="url(#clip670)" style="stroke:#000000; stroke-width:1; stroke-opacity:1; fill:none" points="
  50.5462,51.7361 55.5579,51.7361 
  "/>
<path clip-path="url(#clip670)" d="M 0 0 M31.1182 207.17 Q30.2155 207.17 29.7583 208.061 Q29.3069 208.947 29.3069 210.729 Q29.3069 212.506 29.7583 213.397 Q30.2155 214.282 31.1182 214.282 Q32.0268 214.282 32.4782 213.397 Q32.9353 212.506 32.9353 210.729 Q32.9353 208.947 32.4782 208.061 Q32.0268 207.17 31.1182 207.17 M31.1182 206.244 Q32.5708 206.244 33.3346 207.396 Q34.1043 208.542 34.1043 210.729 Q34.1043 212.911 33.3346 214.062 Q32.5708 215.208 31.1182 215.208 Q29.6657 215.208 28.896 214.062 Q28.1321 212.911 28.1321 210.729 Q28.1321 208.542 28.896 207.396 Q29.6657 206.244 31.1182 206.244 Z" fill="#000000" fill-rule="evenodd" fill-opacity="1" /><path clip-path="url(#clip670)" d="M 0 0 M35.3717 213.57 L36.5927 213.57 L36.5927 215.04 L35.3717 215.04 L35.3717 213.57 Z" fill="#000000" fill-rule="evenodd" fill-opacity="1" /><path clip-path="url(#clip670)" d="M 0 0 M40.3601 207.17 Q39.4573 207.17 39.0001 208.061 Q38.5487 208.947 38.5487 210.729 Q38.5487 212.506 39.0001 213.397 Q39.4573 214.282 40.3601 214.282 Q41.2686 214.282 41.72 213.397 Q42.1772 212.506 42.1772 210.729 Q42.1772 208.947 41.72 208.061 Q41.2686 207.17 40.3601 207.17 M40.3601 206.244 Q41.8126 206.244 42.5765 207.396 Q43.3462 208.542 43.3462 210.729 Q43.3462 212.911 42.5765 214.062 Q41.8126 215.208 40.3601 215.208 Q38.9075 215.208 38.1379 214.062 Q37.374 212.911 37.374 210.729 Q37.374 208.542 38.1379 207.396 Q38.9075 206.244 40.3601 206.244 Z" fill="#000000" fill-rule="evenodd" fill-opacity="1" /><path clip-path="url(#clip670)" d="M 0 0 M31.2803 154.175 Q30.3775 154.175 29.9203 155.066 Q29.4689 155.952 29.4689 157.734 Q29.4689 159.511 29.9203 160.402 Q30.3775 161.288 31.2803 161.288 Q32.1888 161.288 32.6402 160.402 Q33.0974 159.511 33.0974 157.734 Q33.0974 155.952 32.6402 155.066 Q32.1888 154.175 31.2803 154.175 M31.2803 153.249 Q32.7328 153.249 33.4967 154.401 Q34.2664 155.547 34.2664 157.734 Q34.2664 159.916 33.4967 161.068 Q32.7328 162.213 31.2803 162.213 Q29.8277 162.213 29.0581 161.068 Q28.2942 159.916 28.2942 157.734 Q28.2942 155.547 29.0581 154.401 Q29.8277 153.249 31.2803 153.249 Z" fill="#000000" fill-rule="evenodd" fill-opacity="1" /><path clip-path="url(#clip670)" d="M 0 0 M35.5337 160.576 L36.7548 160.576 L36.7548 162.046 L35.5337 162.046 L35.5337 160.576 Z" fill="#000000" fill-rule="evenodd" fill-opacity="1" /><path clip-path="url(#clip670)" d="M 0 0 M41.5638 157.387 Q42.4029 157.566 42.8716 158.134 Q43.3462 158.701 43.3462 159.534 Q43.3462 160.813 42.4665 161.513 Q41.5869 162.213 39.9666 162.213 Q39.4226 162.213 38.8439 162.103 Q38.271 161.999 37.6575 161.785 L37.6575 160.657 Q38.1436 160.94 38.7224 161.085 Q39.3011 161.23 39.9318 161.23 Q41.0314 161.23 41.6043 160.796 Q42.183 160.362 42.183 159.534 Q42.183 158.77 41.6448 158.342 Q41.1124 157.908 40.1575 157.908 L39.1506 157.908 L39.1506 156.947 L40.2038 156.947 Q41.0661 156.947 41.5233 156.606 Q41.9804 156.259 41.9804 155.61 Q41.9804 154.945 41.5059 154.592 Q41.0372 154.233 40.1575 154.233 Q39.6772 154.233 39.1274 154.337 Q38.5777 154.441 37.918 154.661 L37.918 153.62 Q38.5835 153.435 39.1622 153.342 Q39.7467 153.249 40.2617 153.249 Q41.5927 153.249 42.3682 153.857 Q43.1436 154.459 43.1436 155.489 Q43.1436 156.207 42.7327 156.704 Q42.3219 157.196 41.5638 157.387 Z" fill="#000000" fill-rule="evenodd" fill-opacity="1" /><path clip-path="url(#clip670)" d="M 0 0 M31.0777 101.181 Q30.1749 101.181 29.7178 102.072 Q29.2664 102.957 29.2664 104.74 Q29.2664 106.516 29.7178 107.407 Q30.1749 108.293 31.0777 108.293 Q31.9863 108.293 32.4377 107.407 Q32.8948 106.516 32.8948 104.74 Q32.8948 102.957 32.4377 102.072 Q31.9863 101.181 31.0777 101.181 M31.0777 100.255 Q32.5303 100.255 33.2941 101.406 Q34.0638 102.552 34.0638 104.74 Q34.0638 106.921 33.2941 108.073 Q32.5303 109.219 31.0777 109.219 Q29.6252 109.219 28.8555 108.073 Q28.0916 106.921 28.0916 104.74 Q28.0916 102.552 28.8555 101.406 Q29.6252 100.255 31.0777 100.255 Z" fill="#000000" fill-rule="evenodd" fill-opacity="1" /><path clip-path="url(#clip670)" d="M 0 0 M35.3312 107.581 L36.5522 107.581 L36.5522 109.051 L35.3312 109.051 L35.3312 107.581 Z" fill="#000000" fill-rule="evenodd" fill-opacity="1" /><path clip-path="url(#clip670)" d="M 0 0 M40.4642 104.265 Q39.6772 104.265 39.2142 104.803 Q38.7571 105.341 38.7571 106.279 Q38.7571 107.211 39.2142 107.755 Q39.6772 108.293 40.4642 108.293 Q41.2513 108.293 41.7084 107.755 Q42.1714 107.211 42.1714 106.279 Q42.1714 105.341 41.7084 104.803 Q41.2513 104.265 40.4642 104.265 M42.7848 100.602 L42.7848 101.667 Q42.345 101.458 41.8936 101.348 Q41.448 101.238 41.0082 101.238 Q39.8508 101.238 39.2374 102.02 Q38.6298 102.801 38.543 104.381 Q38.8844 103.877 39.3994 103.611 Q39.9145 103.339 40.5337 103.339 Q41.8358 103.339 42.5881 104.132 Q43.3462 104.919 43.3462 106.279 Q43.3462 107.61 42.5591 108.414 Q41.7721 109.219 40.4642 109.219 Q38.9654 109.219 38.1726 108.073 Q37.3798 106.921 37.3798 104.74 Q37.3798 102.691 38.352 101.476 Q39.3242 100.255 40.9619 100.255 Q41.4017 100.255 41.8473 100.341 Q42.2987 100.428 42.7848 100.602 Z" fill="#000000" fill-rule="evenodd" fill-opacity="1" /><path clip-path="url(#clip670)" d="M 0 0 M31.1645 48.1857 Q30.2617 48.1857 29.8046 49.0769 Q29.3532 49.9623 29.3532 51.7447 Q29.3532 53.5213 29.8046 54.4125 Q30.2617 55.298 31.1645 55.298 Q32.0731 55.298 32.5245 54.4125 Q32.9816 53.5213 32.9816 51.7447 Q32.9816 49.9623 32.5245 49.0769 Q32.0731 48.1857 31.1645 48.1857 M31.1645 47.2598 Q32.6171 47.2598 33.3809 48.4114 Q34.1506 49.5572 34.1506 51.7447 Q34.1506 53.9264 33.3809 55.078 Q32.6171 56.2239 31.1645 56.2239 Q29.712 56.2239 28.9423 55.078 Q28.1784 53.9264 28.1784 51.7447 Q28.1784 49.5572 28.9423 48.4114 Q29.712 47.2598 31.1645 47.2598 Z" fill="#000000" fill-rule="evenodd" fill-opacity="1" /><path clip-path="url(#clip670)" d="M 0 0 M35.418 54.5862 L36.639 54.5862 L36.639 56.0561 L35.418 56.0561 L35.418 54.5862 Z" fill="#000000" fill-rule="evenodd" fill-opacity="1" /><path clip-path="url(#clip670)" d="M 0 0 M37.9411 55.8767 L37.9411 54.8118 Q38.3809 55.0202 38.8323 55.1301 Q39.2837 55.2401 39.7177 55.2401 Q40.8751 55.2401 41.4828 54.4646 Q42.0962 53.6834 42.183 52.0977 Q41.8473 52.5954 41.3323 52.8616 Q40.8172 53.1278 40.1922 53.1278 Q38.896 53.1278 38.1379 52.3466 Q37.3856 51.5595 37.3856 50.1996 Q37.3856 48.8686 38.1726 48.0642 Q38.9596 47.2598 40.2675 47.2598 Q41.7663 47.2598 42.5533 48.4114 Q43.3462 49.5572 43.3462 51.7447 Q43.3462 53.7875 42.374 55.0086 Q41.4075 56.2239 39.7698 56.2239 Q39.33 56.2239 38.8786 56.1371 Q38.4272 56.0503 37.9411 55.8767 M40.2675 52.2135 Q41.0545 52.2135 41.5117 51.6753 Q41.9746 51.1371 41.9746 50.1996 Q41.9746 49.2679 41.5117 48.7297 Q41.0545 48.1857 40.2675 48.1857 Q39.4804 48.1857 39.0175 48.7297 Q38.5603 49.2679 38.5603 50.1996 Q38.5603 51.1371 39.0175 51.6753 Q39.4804 52.2135 40.2675 52.2135 Z" fill="#000000" fill-rule="evenodd" fill-opacity="1" /><g clip-path="url(#clip670)">
<text style="fill:#000000; fill-opacity:1; font-family:Arial,Helvetica Neue,Helvetica,sans-serif; font-size:16px; text-anchor:middle;" transform="rotate(-90, 18.0011, 142.973)" x="18.0011" y="142.973">τ(x)</text>
</g>
<g clip-path="url(#clip670)">
<text style="fill:#000000; fill-opacity:1; font-family:Arial,Helvetica Neue,Helvetica,sans-serif; font-size:18px; font-weight:bold; text-anchor:middle;" transform="rotate(0, 259.368, 15.6)" x="259.368" y="15.6">Trig cardinal function, N=7</text>
</g>
<polyline clip-path="url(#clip672)" style="stroke:#009af9; stroke-width:2; stroke-opacity:1; fill:none" points="
  62.3662,235.956 63.3282,235.92 64.2901,235.814 65.2521,235.636 66.214,235.388 70.6613,233.349 75.1085,229.937 79.5558,225.342 84.003,219.82 92.8976,207.265 
  101.792,195.092 107.137,189.161 112.483,184.935 117.828,182.828 123.173,183.101 127.692,185.252 132.212,189.107 136.731,194.511 141.25,201.215 151.069,218.564 
  160.887,235.989 165.413,242.662 169.939,247.806 174.465,250.991 178.991,251.852 181.417,251.256 183.843,249.88 186.269,247.702 188.695,244.708 191.122,240.897 
  193.548,236.274 195.974,230.857 198.4,224.674 201.211,216.6 204.022,207.621 206.833,197.825 209.644,187.317 215.265,164.65 220.887,140.694 225.883,119.288 
  230.879,98.6849 235.875,79.748 240.871,63.2855 243.062,57.0346 245.252,51.4506 247.443,46.5807 249.633,42.4659 251.824,39.1412 254.014,36.635 256.205,34.9685 
  258.395,34.156 260.784,34.2512 263.172,35.3686 265.56,37.4969 267.948,40.6146 270.337,44.69 272.725,49.6822 275.113,55.5406 277.501,62.2067 282.306,77.7874 
  287.111,95.7354 291.916,115.341 296.721,135.84 302.033,158.606 307.346,180.484 312.658,200.533 317.971,217.945 320.498,225.112 323.025,231.484 325.553,237.021 
  328.08,241.692 330.607,245.482 333.135,248.383 335.662,250.403 338.189,251.559 340.817,251.874 343.445,251.33 346.073,249.982 348.7,247.895 353.956,241.808 
  359.212,233.749 368.06,217.834 376.908,202.148 382.31,194.102 387.711,187.936 393.112,184.049 398.514,182.647 403.591,183.601 408.669,186.604 413.746,191.367 
  418.824,197.488 426.958,208.886 435.093,220.295 439.16,225.32 443.227,229.57 447.294,232.846 451.361,234.996 452.613,235.415 453.865,235.715 455.117,235.896 
  456.369,235.956 
  "/>
<circle clip-path="url(#clip672)" cx="90.5093" cy="210.72" r="3" fill="#000000" fill-rule="evenodd" fill-opacity="1" stroke="none"/>
<circle clip-path="url(#clip672)" cx="146.795" cy="210.72" r="3" fill="#000000" fill-rule="evenodd" fill-opacity="1" stroke="none"/>
<circle clip-path="url(#clip672)" cx="203.081" cy="210.72" r="3" fill="#000000" fill-rule="evenodd" fill-opacity="1" stroke="none"/>
<circle clip-path="url(#clip672)" cx="259.368" cy="34.0711" r="3" fill="#000000" fill-rule="evenodd" fill-opacity="1" stroke="none"/>
<circle clip-path="url(#clip672)" cx="315.654" cy="210.72" r="3" fill="#000000" fill-rule="evenodd" fill-opacity="1" stroke="none"/>
<circle clip-path="url(#clip672)" cx="371.94" cy="210.72" r="3" fill="#000000" fill-rule="evenodd" fill-opacity="1" stroke="none"/>
<circle clip-path="url(#clip672)" cx="428.226" cy="210.72" r="3" fill="#000000" fill-rule="evenodd" fill-opacity="1" stroke="none"/>
</svg>
