<?xml version="1.0" encoding="utf-8"?>
<svg xmlns="http://www.w3.org/2000/svg" xmlns:xlink="http://www.w3.org/1999/xlink" width="120" height="75" viewBox="0 0 480 300">
<defs>
  <clipPath id="clip710">
    <rect x="0" y="0" width="480" height="300"/>
  </clipPath>
</defs>
<path clip-path="url(#clip710)" d="
M0 300 L480 300 L480 0 L0 0  Z
  " fill="#ffffff" fill-rule="evenodd" fill-opacity="1"/>
<defs>
  <clipPath id="clip711">
    <rect x="96" y="0" width="337" height="300"/>
  </clipPath>
</defs>
<path clip-path="url(#clip710)" d="
M41.5879 258.408 L468.189 258.408 L468.189 27.537 L41.5879 27.537  Z
  " fill="#ffffff" fill-rule="evenodd" fill-opacity="1"/>
<defs>
  <clipPath id="clip712">
    <rect x="41" y="27" width="428" height="232"/>
  </clipPath>
</defs>
<polyline clip-path="url(#clip712)" style="stroke:#000000; stroke-width:0.5; stroke-opacity:0.1; fill:none" points="
  53.6615,258.408 53.6615,27.537 
  "/>
<polyline clip-path="url(#clip712)" style="stroke:#000000; stroke-width:0.5; stroke-opacity:0.1; fill:none" points="
  154.275,258.408 154.275,27.537 
  "/>
<polyline clip-path="url(#clip712)" style="stroke:#000000; stroke-width:0.5; stroke-opacity:0.1; fill:none" points="
  254.888,258.408 254.888,27.537 
  "/>
<polyline clip-path="url(#clip712)" style="stroke:#000000; stroke-width:0.5; stroke-opacity:0.1; fill:none" points="
  355.502,258.408 355.502,27.537 
  "/>
<polyline clip-path="url(#clip712)" style="stroke:#000000; stroke-width:0.5; stroke-opacity:0.1; fill:none" points="
  456.115,258.408 456.115,27.537 
  "/>
<polyline clip-path="url(#clip710)" style="stroke:#000000; stroke-width:1; stroke-opacity:1; fill:none" points="
  41.5879,258.408 468.189,258.408 
  "/>
<polyline clip-path="url(#clip710)" style="stroke:#000000; stroke-width:1; stroke-opacity:1; fill:none" points="
  53.6615,258.408 53.6615,255.638 
  "/>
<polyline clip-path="url(#clip710)" style="stroke:#000000; stroke-width:1; stroke-opacity:1; fill:none" points="
  154.275,258.408 154.275,255.638 
  "/>
<polyline clip-path="url(#clip710)" style="stroke:#000000; stroke-width:1; stroke-opacity:1; fill:none" points="
  254.888,258.408 254.888,255.638 
  "/>
<polyline clip-path="url(#clip710)" style="stroke:#000000; stroke-width:1; stroke-opacity:1; fill:none" points="
  355.502,258.408 355.502,255.638 
  "/>
<polyline clip-path="url(#clip710)" style="stroke:#000000; stroke-width:1; stroke-opacity:1; fill:none" points="
  456.115,258.408 456.115,255.638 
  "/>
<path clip-path="url(#clip710)" d="M 0 0 M42.1077 268.409 L49.5267 268.409 L49.5267 269.393 L42.1077 269.393 L42.1077 268.409 Z" fill="#000000" fill-rule="evenodd" fill-opacity="1" /><path clip-path="url(#clip710)" d="M 0 0 M50.9966 271.633 L52.9063 271.633 L52.9063 265.041 L50.8288 265.458 L50.8288 264.393 L52.8947 263.976 L54.0637 263.976 L54.0637 271.633 L55.9734 271.633 L55.9734 272.616 L50.9966 272.616 L50.9966 271.633 Z" fill="#000000" fill-rule="evenodd" fill-opacity="1" /><path clip-path="url(#clip710)" d="M 0 0 M57.2408 271.146 L58.4618 271.146 L58.4618 272.616 L57.2408 272.616 L57.2408 271.146 Z" fill="#000000" fill-rule="evenodd" fill-opacity="1" /><path clip-path="url(#clip710)" d="M 0 0 M62.2292 264.746 Q61.3264 264.746 60.8692 265.637 Q60.4178 266.523 60.4178 268.305 Q60.4178 270.082 60.8692 270.973 Q61.3264 271.858 62.2292 271.858 Q63.1377 271.858 63.5891 270.973 Q64.0463 270.082 64.0463 268.305 Q64.0463 266.523 63.5891 265.637 Q63.1377 264.746 62.2292 264.746 M62.2292 263.82 Q63.6817 263.82 64.4456 264.972 Q65.2153 266.118 65.2153 268.305 Q65.2153 270.487 64.4456 271.638 Q63.6817 272.784 62.2292 272.784 Q60.7766 272.784 60.007 271.638 Q59.2431 270.487 59.2431 268.305 Q59.2431 266.118 60.007 264.972 Q60.7766 263.82 62.2292 263.82 Z" fill="#000000" fill-rule="evenodd" fill-opacity="1" /><path clip-path="url(#clip710)" d="M 0 0 M142.692 268.409 L150.111 268.409 L150.111 269.393 L142.692 269.393 L142.692 268.409 Z" fill="#000000" fill-rule="evenodd" fill-opacity="1" /><path clip-path="url(#clip710)" d="M 0 0 M153.879 264.746 Q152.976 264.746 152.519 265.637 Q152.067 266.523 152.067 268.305 Q152.067 270.082 152.519 270.973 Q152.976 271.858 153.879 271.858 Q154.787 271.858 155.239 270.973 Q155.696 270.082 155.696 268.305 Q155.696 266.523 155.239 265.637 Q154.787 264.746 153.879 264.746 M153.879 263.82 Q155.331 263.82 156.095 264.972 Q156.865 266.118 156.865 268.305 Q156.865 270.487 156.095 271.638 Q155.331 272.784 153.879 272.784 Q152.426 272.784 151.656 271.638 Q150.892 270.487 150.892 268.305 Q150.892 266.118 151.656 264.972 Q152.426 263.82 153.879 263.82 Z" fill="#000000" fill-rule="evenodd" fill-opacity="1" /><path clip-path="url(#clip710)" d="M 0 0 M158.132 271.146 L159.353 271.146 L159.353 272.616 L158.132 272.616 L158.132 271.146 Z" fill="#000000" fill-rule="evenodd" fill-opacity="1" /><path clip-path="url(#clip710)" d="M 0 0 M160.632 263.976 L165.221 263.976 L165.221 264.96 L161.703 264.96 L161.703 267.078 Q161.957 266.991 162.212 266.951 Q162.466 266.905 162.721 266.905 Q164.168 266.905 165.013 267.697 Q165.858 268.49 165.858 269.844 Q165.858 271.239 164.99 272.015 Q164.122 272.784 162.542 272.784 Q161.998 272.784 161.431 272.692 Q160.869 272.599 160.267 272.414 L160.267 271.239 Q160.788 271.523 161.344 271.662 Q161.899 271.8 162.519 271.8 Q163.52 271.8 164.104 271.274 Q164.689 270.747 164.689 269.844 Q164.689 268.942 164.104 268.415 Q163.52 267.888 162.519 267.888 Q162.05 267.888 161.581 267.993 Q161.118 268.097 160.632 268.317 L160.632 263.976 Z" fill="#000000" fill-rule="evenodd" fill-opacity="1" /><path clip-path="url(#clip710)" d="M 0 0 M250.268 264.746 Q249.365 264.746 248.908 265.637 Q248.456 266.523 248.456 268.305 Q248.456 270.082 248.908 270.973 Q249.365 271.858 250.268 271.858 Q251.176 271.858 251.627 270.973 Q252.085 270.082 252.085 268.305 Q252.085 266.523 251.627 265.637 Q251.176 264.746 250.268 264.746 M250.268 263.82 Q251.72 263.82 252.484 264.972 Q253.254 266.118 253.254 268.305 Q253.254 270.487 252.484 271.638 Q251.72 272.784 250.268 272.784 Q248.815 272.784 248.045 271.638 Q247.281 270.487 247.281 268.305 Q247.281 266.118 248.045 264.972 Q248.815 263.82 250.268 263.82 Z" fill="#000000" fill-rule="evenodd" fill-opacity="1" /><path clip-path="url(#clip710)" d="M 0 0 M254.521 271.146 L255.742 271.146 L255.742 272.616 L254.521 272.616 L254.521 271.146 Z" fill="#000000" fill-rule="evenodd" fill-opacity="1" /><path clip-path="url(#clip710)" d="M 0 0 M259.509 264.746 Q258.607 264.746 258.149 265.637 Q257.698 266.523 257.698 268.305 Q257.698 270.082 258.149 270.973 Q258.607 271.858 259.509 271.858 Q260.418 271.858 260.869 270.973 Q261.326 270.082 261.326 268.305 Q261.326 266.523 260.869 265.637 Q260.418 264.746 259.509 264.746 M259.509 263.82 Q260.962 263.82 261.726 264.972 Q262.495 266.118 262.495 268.305 Q262.495 270.487 261.726 271.638 Q260.962 272.784 259.509 272.784 Q258.057 272.784 257.287 271.638 Q256.523 270.487 256.523 268.305 Q256.523 266.118 257.287 264.972 Q258.057 263.82 259.509 263.82 Z" fill="#000000" fill-rule="evenodd" fill-opacity="1" /><path clip-path="url(#clip710)" d="M 0 0 M351.005 264.746 Q350.103 264.746 349.645 265.637 Q349.194 266.523 349.194 268.305 Q349.194 270.082 349.645 270.973 Q350.103 271.858 351.005 271.858 Q351.914 271.858 352.365 270.973 Q352.823 270.082 352.823 268.305 Q352.823 266.523 352.365 265.637 Q351.914 264.746 351.005 264.746 M351.005 263.82 Q352.458 263.82 353.222 264.972 Q353.991 266.118 353.991 268.305 Q353.991 270.487 353.222 271.638 Q352.458 272.784 351.005 272.784 Q349.553 272.784 348.783 271.638 Q348.019 270.487 348.019 268.305 Q348.019 266.118 348.783 264.972 Q349.553 263.82 351.005 263.82 Z" fill="#000000" fill-rule="evenodd" fill-opacity="1" /><path clip-path="url(#clip710)" d="M 0 0 M355.259 271.146 L356.48 271.146 L356.48 272.616 L355.259 272.616 L355.259 271.146 Z" fill="#000000" fill-rule="evenodd" fill-opacity="1" /><path clip-path="url(#clip710)" d="M 0 0 M357.759 263.976 L362.348 263.976 L362.348 264.96 L358.829 264.96 L358.829 267.078 Q359.084 266.991 359.339 266.951 Q359.593 266.905 359.848 266.905 Q361.295 266.905 362.14 267.697 Q362.984 268.49 362.984 269.844 Q362.984 271.239 362.116 272.015 Q361.248 272.784 359.669 272.784 Q359.125 272.784 358.557 272.692 Q357.996 272.599 357.394 272.414 L357.394 271.239 Q357.915 271.523 358.471 271.662 Q359.026 271.8 359.645 271.8 Q360.647 271.8 361.231 271.274 Q361.816 270.747 361.816 269.844 Q361.816 268.942 361.231 268.415 Q360.647 267.888 359.645 267.888 Q359.177 267.888 358.708 267.993 Q358.245 268.097 357.759 268.317 L357.759 263.976 Z" fill="#000000" fill-rule="evenodd" fill-opacity="1" /><path clip-path="url(#clip710)" d="M 0 0 M449.09 271.633 L451 271.633 L451 265.041 L448.922 265.458 L448.922 264.393 L450.988 263.976 L452.157 263.976 L452.157 271.633 L454.067 271.633 L454.067 272.616 L449.09 272.616 L449.09 271.633 Z" fill="#000000" fill-rule="evenodd" fill-opacity="1" /><path clip-path="url(#clip710)" d="M 0 0 M455.334 271.146 L456.555 271.146 L456.555 272.616 L455.334 272.616 L455.334 271.146 Z" fill="#000000" fill-rule="evenodd" fill-opacity="1" /><path clip-path="url(#clip710)" d="M 0 0 M460.323 264.746 Q459.42 264.746 458.963 265.637 Q458.511 266.523 458.511 268.305 Q458.511 270.082 458.963 270.973 Q459.42 271.858 460.323 271.858 Q461.231 271.858 461.682 270.973 Q462.14 270.082 462.14 268.305 Q462.14 266.523 461.682 265.637 Q461.231 264.746 460.323 264.746 M460.323 263.82 Q461.775 263.82 462.539 264.972 Q463.309 266.118 463.309 268.305 Q463.309 270.487 462.539 271.638 Q461.775 272.784 460.323 272.784 Q458.87 272.784 458.1 271.638 Q457.336 270.487 457.336 268.305 Q457.336 266.118 458.1 264.972 Q458.87 263.82 460.323 263.82 Z" fill="#000000" fill-rule="evenodd" fill-opacity="1" /><g clip-path="url(#clip710)">
<text style="fill:#000000; fill-opacity:1; font-family:Arial,Helvetica Neue,Helvetica,sans-serif; font-size:16px; text-anchor:middle;" transform="rotate(0, 254.888, 293.459)" x="254.888" y="293.459">x</text>
</g>
<polyline clip-path="url(#clip712)" style="stroke:#000000; stroke-width:0.5; stroke-opacity:0.1; fill:none" points="
  41.5879,248.099 468.189,248.099 
  "/>
<polyline clip-path="url(#clip712)" style="stroke:#000000; stroke-width:0.5; stroke-opacity:0.1; fill:none" points="
  41.5879,202.348 468.189,202.348 
  "/>
<polyline clip-path="url(#clip712)" style="stroke:#000000; stroke-width:0.5; stroke-opacity:0.1; fill:none" points="
  41.5879,156.597 468.189,156.597 
  "/>
<polyline clip-path="url(#clip712)" style="stroke:#000000; stroke-width:0.5; stroke-opacity:0.1; fill:none" points="
  41.5879,110.845 468.189,110.845 
  "/>
<polyline clip-path="url(#clip712)" style="stroke:#000000; stroke-width:0.5; stroke-opacity:0.1; fill:none" points="
  41.5879,65.0942 468.189,65.0942 
  "/>
<polyline clip-path="url(#clip710)" style="stroke:#000000; stroke-width:1; stroke-opacity:1; fill:none" points="
  41.5879,258.408 41.5879,27.537 
  "/>
<polyline clip-path="url(#clip710)" style="stroke:#000000; stroke-width:1; stroke-opacity:1; fill:none" points="
  41.5879,248.099 46.7071,248.099 
  "/>
<polyline clip-path="url(#clip710)" style="stroke:#000000; stroke-width:1; stroke-opacity:1; fill:none" points="
  41.5879,202.348 46.7071,202.348 
  "/>
<polyline clip-path="url(#clip710)" style="stroke:#000000; stroke-width:1; stroke-opacity:1; fill:none" points="
  41.5879,156.597 46.7071,156.597 
  "/>
<polyline clip-path="url(#clip710)" style="stroke:#000000; stroke-width:1; stroke-opacity:1; fill:none" points="
  41.5879,110.845 46.7071,110.845 
  "/>
<polyline clip-path="url(#clip710)" style="stroke:#000000; stroke-width:1; stroke-opacity:1; fill:none" points="
  41.5879,65.0942 46.7071,65.0942 
  "/>
<path clip-path="url(#clip710)" d="M 0 0 M31.4018 244.549 Q30.499 244.549 30.0418 245.44 Q29.5905 246.325 29.5905 248.108 Q29.5905 249.884 30.0418 250.775 Q30.499 251.661 31.4018 251.661 Q32.3103 251.661 32.7617 250.775 Q33.2189 249.884 33.2189 248.108 Q33.2189 246.325 32.7617 245.44 Q32.3103 244.549 31.4018 244.549 M31.4018 243.623 Q32.8543 243.623 33.6182 244.774 Q34.3879 245.92 34.3879 248.108 Q34.3879 250.289 33.6182 251.441 Q32.8543 252.587 31.4018 252.587 Q29.9492 252.587 29.1796 251.441 Q28.4157 250.289 28.4157 248.108 Q28.4157 245.92 29.1796 244.774 Q29.9492 243.623 31.4018 243.623 Z" fill="#000000" fill-rule="evenodd" fill-opacity="1" /><path clip-path="url(#clip710)" d="M 0 0 M30.308 205.684 L34.3879 205.684 L34.3879 206.668 L28.9018 206.668 L28.9018 205.684 Q29.5673 204.995 30.7131 203.838 Q31.8647 202.675 32.1599 202.339 Q32.7212 201.708 32.9411 201.274 Q33.1668 200.834 33.1668 200.412 Q33.1668 199.723 32.6807 199.289 Q32.2004 198.855 31.4249 198.855 Q30.8752 198.855 30.2617 199.046 Q29.6541 199.237 28.9597 199.625 L28.9597 198.444 Q29.6657 198.161 30.2791 198.016 Q30.8925 197.871 31.4018 197.871 Q32.7444 197.871 33.543 198.543 Q34.3416 199.214 34.3416 200.337 Q34.3416 200.869 34.139 201.349 Q33.9423 201.824 33.4157 202.472 Q33.271 202.64 32.4955 203.444 Q31.7201 204.243 30.308 205.684 Z" fill="#000000" fill-rule="evenodd" fill-opacity="1" /><path clip-path="url(#clip710)" d="M 0 0 M31.9921 153.295 L29.0407 157.907 L31.9921 157.907 L31.9921 153.295 M31.6854 152.277 L33.1553 152.277 L33.1553 157.907 L34.3879 157.907 L34.3879 158.88 L33.1553 158.88 L33.1553 160.917 L31.9921 160.917 L31.9921 158.88 L28.0916 158.88 L28.0916 157.751 L31.6854 152.277 Z" fill="#000000" fill-rule="evenodd" fill-opacity="1" /><path clip-path="url(#clip710)" d="M 0 0 M31.506 110.38 Q30.7189 110.38 30.256 110.918 Q29.7988 111.456 29.7988 112.393 Q29.7988 113.325 30.256 113.869 Q30.7189 114.407 31.506 114.407 Q32.293 114.407 32.7502 113.869 Q33.2131 113.325 33.2131 112.393 Q33.2131 111.456 32.7502 110.918 Q32.293 110.38 31.506 110.38 M33.8265 106.716 L33.8265 107.781 Q33.3867 107.573 32.9353 107.463 Q32.4897 107.353 32.0499 107.353 Q30.8925 107.353 30.2791 108.134 Q29.6715 108.915 29.5847 110.495 Q29.9261 109.992 30.4411 109.726 Q30.9562 109.454 31.5754 109.454 Q32.8775 109.454 33.6298 110.246 Q34.3879 111.033 34.3879 112.393 Q34.3879 113.724 33.6008 114.529 Q32.8138 115.333 31.506 115.333 Q30.0071 115.333 29.2143 114.187 Q28.4215 113.036 28.4215 110.854 Q28.4215 108.805 29.3937 107.59 Q30.3659 106.369 32.0036 106.369 Q32.4434 106.369 32.889 106.456 Q33.3404 106.543 33.8265 106.716 Z" fill="#000000" fill-rule="evenodd" fill-opacity="1" /><path clip-path="url(#clip710)" d="M 0 0 M31.4249 65.3112 Q30.5916 65.3112 30.1113 65.7568 Q29.6368 66.2024 29.6368 66.9837 Q29.6368 67.7649 30.1113 68.2105 Q30.5916 68.6561 31.4249 68.6561 Q32.2583 68.6561 32.7386 68.2105 Q33.2189 67.7592 33.2189 66.9837 Q33.2189 66.2024 32.7386 65.7568 Q32.2641 65.3112 31.4249 65.3112 M30.256 64.8136 Q29.5036 64.6284 29.0812 64.1133 Q28.6645 63.5983 28.6645 62.8576 Q28.6645 61.8217 29.3995 61.2198 Q30.1402 60.618 31.4249 60.618 Q32.7154 60.618 33.4504 61.2198 Q34.1853 61.8217 34.1853 62.8576 Q34.1853 63.5983 33.7629 64.1133 Q33.3462 64.6284 32.5997 64.8136 Q33.4446 65.0103 33.9133 65.5832 Q34.3879 66.1562 34.3879 66.9837 Q34.3879 68.2395 33.6182 68.9108 Q32.8543 69.5821 31.4249 69.5821 Q29.9955 69.5821 29.2259 68.9108 Q28.462 68.2395 28.462 66.9837 Q28.462 66.1562 28.9365 65.5832 Q29.4111 65.0103 30.256 64.8136 M29.8277 62.9675 Q29.8277 63.6388 30.2444 64.015 Q30.6668 64.3911 31.4249 64.3911 Q32.1772 64.3911 32.5997 64.015 Q33.0279 63.6388 33.0279 62.9675 Q33.0279 62.2962 32.5997 61.9201 Q32.1772 61.5439 31.4249 61.5439 Q30.6668 61.5439 30.2444 61.9201 Q29.8277 62.2962 29.8277 62.9675 Z" fill="#000000" fill-rule="evenodd" fill-opacity="1" /><g clip-path="url(#clip710)">
<text style="fill:#000000; fill-opacity:1; font-family:Arial,Helvetica Neue,Helvetica,sans-serif; font-size:16px; text-anchor:middle;" transform="rotate(-90, 18.0011, 142.973)" x="18.0011" y="142.973">p(x)</text>
</g>
<g clip-path="url(#clip710)">
<text style="fill:#000000; fill-opacity:1; font-family:Arial,Helvetica Neue,Helvetica,sans-serif; font-size:18px; font-weight:bold; text-anchor:middle;" transform="rotate(0, 254.888, 15.6)" x="254.888" y="15.6">Trig interpolation, N=7</text>
</g>
<polyline clip-path="url(#clip712)" style="stroke:#009af9; stroke-width:2; stroke-opacity:1; fill:none" points="
  53.6615,79.0699 54.6441,81.6821 55.6266,84.3305 56.6092,87.0113 57.5918,89.721 66.6771,115.528 75.7624,140.978 80.3051,152.949 84.8477,164.186 89.3904,174.577 
  93.933,184.059 99.3929,194.218 104.853,203.047 110.313,210.614 115.773,217.022 125.005,225.562 134.238,231.751 144.267,236.47 154.296,239.689 163.542,241.725 
  172.788,243.138 192.613,244.854 215.583,245.592 235.995,245.575 253.895,245.05 273.411,243.625 293.043,240.442 303.896,237.293 314.748,232.518 319.912,229.471 
  325.075,225.798 330.238,221.397 335.401,216.16 340.769,209.71 346.137,202.126 351.506,193.313 356.874,183.209 361.393,173.693 365.912,163.28 370.431,152.038 
  374.95,140.08 385.985,108.993 397.019,78.2814 402.206,65.3193 407.392,54.0286 409.985,49.1681 412.578,44.9074 415.172,41.297 417.765,38.3805 421.919,35.2407 
  426.074,34.0711 430.228,34.9092 434.383,37.7281 438.537,42.4377 442.692,48.8902 446.846,56.8886 451.001,66.1973 452.279,69.2862 453.558,72.4666 454.837,75.7306 
  456.115,79.0699 
  "/>
<path clip-path="url(#clip712)" d="M82.4082 162.25 L79.5802 161.078 L78.4082 158.25 L79.5802 155.422 L82.4082 154.25 L85.2362 155.422 L86.4082 158.25 L85.2362 161.078 Z" fill="#000000" fill-rule="evenodd" fill-opacity="1" stroke="none"/>
<path clip-path="url(#clip712)" d="M139.902 238.633 L137.074 237.461 L135.902 234.633 L137.074 231.805 L139.902 230.633 L142.73 231.805 L143.902 234.633 L142.73 237.461 Z" fill="#000000" fill-rule="evenodd" fill-opacity="1" stroke="none"/>
<path clip-path="url(#clip712)" d="M197.395 249.091 L194.567 247.919 L193.395 245.091 L194.567 242.263 L197.395 241.091 L200.223 242.263 L201.395 245.091 L200.223 247.919 Z" fill="#000000" fill-rule="evenodd" fill-opacity="1" stroke="none"/>
<path clip-path="url(#clip712)" d="M254.888 249.003 L252.06 247.831 L250.888 245.003 L252.06 242.175 L254.888 241.003 L257.716 242.175 L258.888 245.003 L257.716 247.831 Z" fill="#000000" fill-rule="evenodd" fill-opacity="1" stroke="none"/>
<path clip-path="url(#clip712)" d="M312.382 237.732 L309.554 236.56 L308.382 233.732 L309.554 230.904 L312.382 229.732 L315.21 230.904 L316.382 233.732 L315.21 236.56 Z" fill="#000000" fill-rule="evenodd" fill-opacity="1" stroke="none"/>
<path clip-path="url(#clip712)" d="M369.875 157.463 L367.047 156.291 L365.875 153.463 L367.047 150.635 L369.875 149.463 L372.703 150.635 L373.875 153.463 L372.703 156.291 Z" fill="#000000" fill-rule="evenodd" fill-opacity="1" stroke="none"/>
<path clip-path="url(#clip712)" d="M427.369 38.117 L424.541 36.945 L423.369 34.117 L424.541 31.289 L427.369 30.117 L430.197 31.289 L431.369 34.117 L430.197 36.945 Z" fill="#000000" fill-rule="evenodd" fill-opacity="1" stroke="none"/>
<polyline clip-path="url(#clip712)" style="stroke:#3da44d; stroke-width:2; stroke-opacity:1; fill:none" points="
  53.6615,75.4979 55.6266,80.6084 57.5918,85.9009 66.6771,112.039 75.7624,139.138 84.8477,164.934 93.933,187.579 99.3929,199.129 104.853,208.939 110.313,216.965 
  115.773,223.248 120.389,227.292 125.005,230.292 129.621,232.389 134.238,233.742 154.296,235.086 172.788,236.884 182.7,239.589 192.613,243.221 204.098,247.59 
  215.583,250.824 225.789,251.874 235.995,250.907 244.945,248.592 253.895,245.387 273.411,238.34 293.043,235.005 303.896,234.507 314.748,233.315 319.912,231.928 
  325.075,229.692 330.238,226.385 335.401,221.809 340.769,215.536 346.137,207.605 351.506,197.973 356.874,186.683 365.912,164.336 374.95,138.878 385.985,106.221 
  397.019,75.6593 402.206,63.2325 407.392,52.6131 409.985,48.0942 412.578,44.1549 415.172,40.8289 417.765,38.1448 421.919,35.2389 426.074,34.1036 430.228,34.7653 
  434.383,37.2104 438.537,41.386 442.692,47.2012 446.846,54.5303 451.001,63.2158 452.279,66.1342 453.558,69.1581 454.837,72.2814 456.115,75.4979 
  "/>
<path clip-path="url(#clip710)" d="
M160.788 95.7127 L264.368 95.7127 L264.368 35.2327 L160.788 35.2327  Z
  " fill="#ffffff" fill-rule="evenodd" fill-opacity="1"/>
<polyline clip-path="url(#clip710)" style="stroke:#000000; stroke-width:1; stroke-opacity:1; fill:none" points="
  160.788,95.7127 264.368,95.7127 264.368,35.2327 160.788,35.2327 160.788,95.7127 
  "/>
<polyline clip-path="url(#clip710)" style="stroke:#009af9; stroke-width:1; stroke-opacity:1; fill:none" points="
  165.528,50.3527 193.968,50.3527 
  "/>
<path clip-path="url(#clip710)" d="M 0 0 M202.834 45.6682 L202.834 46.5536 L201.816 46.5536 Q201.243 46.5536 201.017 46.7851 Q200.797 47.0165 200.797 47.6184 L200.797 48.1913 L202.551 48.1913 L202.551 49.0188 L200.797 49.0188 L200.797 54.6727 L199.727 54.6727 L199.727 49.0188 L198.708 49.0188 L198.708 48.1913 L199.727 48.1913 L199.727 47.7399 Q199.727 46.6577 200.23 46.1658 Q200.734 45.6682 201.827 45.6682 L202.834 45.6682 Z" fill="#000000" fill-rule="evenodd" fill-opacity="1" /><path clip-path="url(#clip710)" d="M 0 0 M203.841 52.1149 L203.841 48.1913 L204.906 48.1913 L204.906 52.0744 Q204.906 52.9945 205.265 53.4575 Q205.624 53.9146 206.341 53.9146 Q207.203 53.9146 207.701 53.3649 Q208.205 52.8151 208.205 51.866 L208.205 48.1913 L209.269 48.1913 L209.269 54.6727 L208.205 54.6727 L208.205 53.6774 Q207.817 54.2676 207.302 54.557 Q206.793 54.8406 206.116 54.8406 Q204.999 54.8406 204.42 54.1461 Q203.841 53.4517 203.841 52.1149 M206.521 48.035 L206.521 48.035 Z" fill="#000000" fill-rule="evenodd" fill-opacity="1" /><path clip-path="url(#clip710)" d="M 0 0 M215.774 50.7607 L215.774 54.6727 L214.709 54.6727 L214.709 50.7954 Q214.709 49.8753 214.35 49.4181 Q213.992 48.961 213.274 48.961 Q212.412 48.961 211.914 49.5107 Q211.416 50.0605 211.416 51.0096 L211.416 54.6727 L210.346 54.6727 L210.346 48.1913 L211.416 48.1913 L211.416 49.1982 Q211.798 48.6137 212.313 48.3244 Q212.834 48.035 213.511 48.035 Q214.628 48.035 215.201 48.7295 Q215.774 49.4181 215.774 50.7607 Z" fill="#000000" fill-rule="evenodd" fill-opacity="1" /><path clip-path="url(#clip710)" d="M 0 0 M221.555 48.4401 L221.555 49.4355 Q221.104 49.1867 220.647 49.0651 Q220.195 48.9378 219.732 48.9378 Q218.696 48.9378 218.124 49.5975 Q217.551 50.2515 217.551 51.4378 Q217.551 52.6241 218.124 53.2839 Q218.696 53.9378 219.732 53.9378 Q220.195 53.9378 220.647 53.8163 Q221.104 53.6889 221.555 53.4401 L221.555 54.4239 Q221.11 54.6322 220.629 54.7364 Q220.155 54.8406 219.617 54.8406 Q218.153 54.8406 217.29 53.9204 Q216.428 53.0003 216.428 51.4378 Q216.428 49.8522 217.296 48.9436 Q218.17 48.035 219.686 48.035 Q220.178 48.035 220.647 48.1392 Q221.115 48.2376 221.555 48.4401 Z" fill="#000000" fill-rule="evenodd" fill-opacity="1" /><path clip-path="url(#clip710)" d="M 0 0 M223.725 46.351 L223.725 48.1913 L225.919 48.1913 L225.919 49.0188 L223.725 49.0188 L223.725 52.5373 Q223.725 53.3302 223.94 53.5558 Q224.159 53.7815 224.825 53.7815 L225.919 53.7815 L225.919 54.6727 L224.825 54.6727 Q223.592 54.6727 223.124 54.2156 Q222.655 53.7526 222.655 52.5373 L222.655 49.0188 L221.874 49.0188 L221.874 48.1913 L222.655 48.1913 L222.655 46.351 L223.725 46.351 Z" fill="#000000" fill-rule="evenodd" fill-opacity="1" /><path clip-path="url(#clip710)" d="M 0 0 M227.036 48.1913 L228.1 48.1913 L228.1 54.6727 L227.036 54.6727 L227.036 48.1913 M227.036 45.6682 L228.1 45.6682 L228.1 47.0165 L227.036 47.0165 L227.036 45.6682 Z" fill="#000000" fill-rule="evenodd" fill-opacity="1" /><path clip-path="url(#clip710)" d="M 0 0 M231.729 48.9378 Q230.872 48.9378 230.375 49.6091 Q229.877 50.2746 229.877 51.4378 Q229.877 52.601 230.369 53.2723 Q230.867 53.9378 231.729 53.9378 Q232.58 53.9378 233.077 53.2665 Q233.575 52.5952 233.575 51.4378 Q233.575 50.2862 233.077 49.6149 Q232.58 48.9378 231.729 48.9378 M231.729 48.035 Q233.118 48.035 233.911 48.9378 Q234.703 49.8406 234.703 51.4378 Q234.703 53.0292 233.911 53.9378 Q233.118 54.8406 231.729 54.8406 Q230.334 54.8406 229.541 53.9378 Q228.754 53.0292 228.754 51.4378 Q228.754 49.8406 229.541 48.9378 Q230.334 48.035 231.729 48.035 Z" fill="#000000" fill-rule="evenodd" fill-opacity="1" /><path clip-path="url(#clip710)" d="M 0 0 M241.208 50.7607 L241.208 54.6727 L240.143 54.6727 L240.143 50.7954 Q240.143 49.8753 239.784 49.4181 Q239.426 48.961 238.708 48.961 Q237.846 48.961 237.348 49.5107 Q236.85 50.0605 236.85 51.0096 L236.85 54.6727 L235.78 54.6727 L235.78 48.1913 L236.85 48.1913 L236.85 49.1982 Q237.232 48.6137 237.747 48.3244 Q238.268 48.035 238.945 48.035 Q240.062 48.035 240.635 48.7295 Q241.208 49.4181 241.208 50.7607 Z" fill="#000000" fill-rule="evenodd" fill-opacity="1" /><path clip-path="url(#clip710)" d="M179.748 71.8727 L175.223 69.9975 L173.348 65.4727 L175.223 60.9479 L179.748 59.0727 L184.273 60.9479 L186.148 65.4727 L184.273 69.9975 Z" fill="#000000" fill-rule="evenodd" fill-opacity="1" stroke="none"/>
<path clip-path="url(#clip710)" d="M 0 0 M204.136 65.8807 L204.136 69.7927 L203.072 69.7927 L203.072 65.9154 Q203.072 64.9953 202.713 64.5381 Q202.354 64.081 201.636 64.081 Q200.774 64.081 200.276 64.6307 Q199.779 65.1805 199.779 66.1296 L199.779 69.7927 L198.708 69.7927 L198.708 63.3113 L199.779 63.3113 L199.779 64.3182 Q200.161 63.7337 200.676 63.4444 Q201.197 63.155 201.874 63.155 Q202.991 63.155 203.563 63.8495 Q204.136 64.5381 204.136 65.8807 Z" fill="#000000" fill-rule="evenodd" fill-opacity="1" /><path clip-path="url(#clip710)" d="M 0 0 M207.765 64.0578 Q206.908 64.0578 206.411 64.7291 Q205.913 65.3946 205.913 66.5578 Q205.913 67.721 206.405 68.3923 Q206.903 69.0578 207.765 69.0578 Q208.616 69.0578 209.113 68.3865 Q209.611 67.7152 209.611 66.5578 Q209.611 65.4062 209.113 64.7349 Q208.616 64.0578 207.765 64.0578 M207.765 63.155 Q209.154 63.155 209.947 64.0578 Q210.739 64.9606 210.739 66.5578 Q210.739 68.1492 209.947 69.0578 Q209.154 69.9606 207.765 69.9606 Q206.37 69.9606 205.577 69.0578 Q204.79 68.1492 204.79 66.5578 Q204.79 64.9606 205.577 64.0578 Q206.37 63.155 207.765 63.155 Z" fill="#000000" fill-rule="evenodd" fill-opacity="1" /><path clip-path="url(#clip710)" d="M 0 0 M216.121 64.2951 L216.121 60.7882 L217.186 60.7882 L217.186 69.7927 L216.121 69.7927 L216.121 68.8205 Q215.786 69.3992 215.271 69.6828 Q214.761 69.9606 214.044 69.9606 Q212.869 69.9606 212.128 69.0231 Q211.393 68.0856 211.393 66.5578 Q211.393 65.03 212.128 64.0925 Q212.869 63.155 214.044 63.155 Q214.761 63.155 215.271 63.4386 Q215.786 63.7164 216.121 64.2951 M212.493 66.5578 Q212.493 67.7326 212.973 68.4039 Q213.459 69.0694 214.304 69.0694 Q215.149 69.0694 215.635 68.4039 Q216.121 67.7326 216.121 66.5578 Q216.121 65.383 215.635 64.7175 Q215.149 64.0462 214.304 64.0462 Q213.459 64.0462 212.973 64.7175 Q212.493 65.383 212.493 66.5578 Z" fill="#000000" fill-rule="evenodd" fill-opacity="1" /><path clip-path="url(#clip710)" d="M 0 0 M223.847 66.2858 L223.847 66.8066 L218.951 66.8066 Q219.021 67.9062 219.611 68.4849 Q220.207 69.0578 221.266 69.0578 Q221.879 69.0578 222.452 68.9073 Q223.031 68.7569 223.598 68.4559 L223.598 69.4629 Q223.025 69.7059 222.423 69.8332 Q221.821 69.9606 221.202 69.9606 Q219.651 69.9606 218.743 69.0578 Q217.84 68.155 217.84 66.6157 Q217.84 65.0242 218.696 64.0925 Q219.559 63.155 221.017 63.155 Q222.325 63.155 223.083 63.9999 Q223.847 64.8391 223.847 66.2858 M222.782 65.9733 Q222.771 65.0995 222.29 64.5786 Q221.816 64.0578 221.029 64.0578 Q220.137 64.0578 219.599 64.5613 Q219.067 65.0648 218.986 65.9791 L222.782 65.9733 Z" fill="#000000" fill-rule="evenodd" fill-opacity="1" /><path clip-path="url(#clip710)" d="M 0 0 M229.096 63.5023 L229.096 64.5092 Q228.644 64.2777 228.158 64.162 Q227.672 64.0462 227.151 64.0462 Q226.358 64.0462 225.959 64.2893 Q225.566 64.5324 225.566 65.0185 Q225.566 65.3888 225.849 65.6029 Q226.133 65.8113 226.989 66.0023 L227.354 66.0833 Q228.488 66.3263 228.963 66.7719 Q229.443 67.2117 229.443 68.0046 Q229.443 68.9073 228.725 69.4339 Q228.014 69.9606 226.764 69.9606 Q226.243 69.9606 225.676 69.8564 Q225.114 69.758 224.489 69.5555 L224.489 68.4559 Q225.08 68.7627 225.652 68.9189 Q226.225 69.0694 226.787 69.0694 Q227.539 69.0694 227.944 68.8147 Q228.349 68.5543 228.349 68.0856 Q228.349 67.6515 228.054 67.4201 Q227.765 67.1886 226.775 66.9745 L226.405 66.8877 Q225.415 66.6793 224.975 66.2511 Q224.536 65.8171 224.536 65.0648 Q224.536 64.1504 225.184 63.6527 Q225.832 63.155 227.024 63.155 Q227.614 63.155 228.135 63.2418 Q228.656 63.3287 229.096 63.5023 Z" fill="#000000" fill-rule="evenodd" fill-opacity="1" /><polyline clip-path="url(#clip710)" style="stroke:#3da44d; stroke-width:1; stroke-opacity:1; fill:none" points="
  165.528,80.5927 193.968,80.5927 
  "/>
<path clip-path="url(#clip710)" d="M 0 0 M198.708 78.4313 L199.773 78.4313 L199.773 84.9127 L198.708 84.9127 L198.708 78.4313 M198.708 75.9082 L199.773 75.9082 L199.773 77.2565 L198.708 77.2565 L198.708 75.9082 Z" fill="#000000" fill-rule="evenodd" fill-opacity="1" /><path clip-path="url(#clip710)" d="M 0 0 M206.278 81.0007 L206.278 84.9127 L205.213 84.9127 L205.213 81.0354 Q205.213 80.1153 204.854 79.6581 Q204.495 79.201 203.778 79.201 Q202.915 79.201 202.418 79.7507 Q201.92 80.3005 201.92 81.2496 L201.92 84.9127 L200.849 84.9127 L200.849 78.4313 L201.92 78.4313 L201.92 79.4382 Q202.302 78.8537 202.817 78.5644 Q203.338 78.275 204.015 78.275 Q205.132 78.275 205.705 78.9695 Q206.278 79.6581 206.278 81.0007 Z" fill="#000000" fill-rule="evenodd" fill-opacity="1" /><path clip-path="url(#clip710)" d="M 0 0 M208.448 76.591 L208.448 78.4313 L210.641 78.4313 L210.641 79.2588 L208.448 79.2588 L208.448 82.7773 Q208.448 83.5702 208.662 83.7958 Q208.882 84.0215 209.547 84.0215 L210.641 84.0215 L210.641 84.9127 L209.547 84.9127 Q208.315 84.9127 207.846 84.4556 Q207.377 83.9926 207.377 82.7773 L207.377 79.2588 L206.596 79.2588 L206.596 78.4313 L207.377 78.4313 L207.377 76.591 L208.448 76.591 Z" fill="#000000" fill-rule="evenodd" fill-opacity="1" /><path clip-path="url(#clip710)" d="M 0 0 M217.302 81.4058 L217.302 81.9266 L212.406 81.9266 Q212.475 83.0262 213.066 83.6049 Q213.662 84.1778 214.721 84.1778 Q215.334 84.1778 215.907 84.0273 Q216.486 83.8769 217.053 83.5759 L217.053 84.5829 Q216.48 84.8259 215.878 84.9532 Q215.276 85.0806 214.657 85.0806 Q213.106 85.0806 212.198 84.1778 Q211.295 83.275 211.295 81.7357 Q211.295 80.1442 212.151 79.2125 Q213.014 78.275 214.472 78.275 Q215.78 78.275 216.538 79.1199 Q217.302 79.9591 217.302 81.4058 M216.237 81.0933 Q216.225 80.2195 215.745 79.6986 Q215.271 79.1778 214.484 79.1778 Q213.592 79.1778 213.054 79.6813 Q212.522 80.1848 212.441 81.0991 L216.237 81.0933 Z" fill="#000000" fill-rule="evenodd" fill-opacity="1" /><path clip-path="url(#clip710)" d="M 0 0 M222.174 79.4267 Q221.995 79.3225 221.781 79.2762 Q221.573 79.2241 221.318 79.2241 Q220.415 79.2241 219.929 79.8144 Q219.449 80.3989 219.449 81.4984 L219.449 84.9127 L218.378 84.9127 L218.378 78.4313 L219.449 78.4313 L219.449 79.4382 Q219.784 78.848 220.323 78.5644 Q220.861 78.275 221.631 78.275 Q221.74 78.275 221.874 78.2924 Q222.007 78.304 222.169 78.3329 L222.174 79.4267 Z" fill="#000000" fill-rule="evenodd" fill-opacity="1" /><path clip-path="url(#clip710)" d="M 0 0 M224.321 83.9405 L224.321 87.378 L223.251 87.378 L223.251 78.4313 L224.321 78.4313 L224.321 79.4151 Q224.657 78.8364 225.166 78.5586 Q225.681 78.275 226.393 78.275 Q227.574 78.275 228.309 79.2125 Q229.049 80.15 229.049 81.6778 Q229.049 83.2056 228.309 84.1431 Q227.574 85.0806 226.393 85.0806 Q225.681 85.0806 225.166 84.8028 Q224.657 84.5192 224.321 83.9405 M227.944 81.6778 Q227.944 80.503 227.458 79.8375 Q226.978 79.1662 226.133 79.1662 Q225.288 79.1662 224.802 79.8375 Q224.321 80.503 224.321 81.6778 Q224.321 82.8526 224.802 83.5239 Q225.288 84.1894 226.133 84.1894 Q226.978 84.1894 227.458 83.5239 Q227.944 82.8526 227.944 81.6778 Z" fill="#000000" fill-rule="evenodd" fill-opacity="1" /><path clip-path="url(#clip710)" d="M 0 0 M232.678 79.1778 Q231.821 79.1778 231.324 79.8491 Q230.826 80.5146 230.826 81.6778 Q230.826 82.841 231.318 83.5123 Q231.816 84.1778 232.678 84.1778 Q233.529 84.1778 234.026 83.5065 Q234.524 82.8352 234.524 81.6778 Q234.524 80.5262 234.026 79.8549 Q233.529 79.1778 232.678 79.1778 M232.678 78.275 Q234.067 78.275 234.86 79.1778 Q235.652 80.0806 235.652 81.6778 Q235.652 83.2692 234.86 84.1778 Q234.067 85.0806 232.678 85.0806 Q231.283 85.0806 230.49 84.1778 Q229.703 83.2692 229.703 81.6778 Q229.703 80.0806 230.49 79.1778 Q231.283 78.275 232.678 78.275 Z" fill="#000000" fill-rule="evenodd" fill-opacity="1" /><path clip-path="url(#clip710)" d="M 0 0 M236.769 75.9082 L237.834 75.9082 L237.834 84.9127 L236.769 84.9127 L236.769 75.9082 Z" fill="#000000" fill-rule="evenodd" fill-opacity="1" /><path clip-path="url(#clip710)" d="M 0 0 M241.897 81.6547 Q240.606 81.6547 240.108 81.9498 Q239.611 82.2449 239.611 82.9567 Q239.611 83.5239 239.981 83.8595 Q240.357 84.1894 241 84.1894 Q241.885 84.1894 242.417 83.5644 Q242.956 82.9336 242.956 81.8919 L242.956 81.6547 L241.897 81.6547 M244.02 81.2148 L244.02 84.9127 L242.956 84.9127 L242.956 83.9289 Q242.591 84.5192 242.047 84.8028 Q241.503 85.0806 240.716 85.0806 Q239.721 85.0806 239.13 84.525 Q238.546 83.9637 238.546 83.0262 Q238.546 81.9324 239.275 81.3769 Q240.01 80.8213 241.463 80.8213 L242.956 80.8213 L242.956 80.7172 Q242.956 79.9822 242.47 79.5829 Q241.989 79.1778 241.115 79.1778 Q240.56 79.1778 240.033 79.3109 Q239.507 79.444 239.02 79.7102 L239.02 78.7264 Q239.605 78.5007 240.155 78.3908 Q240.704 78.275 241.225 78.275 Q242.632 78.275 243.326 79.0042 Q244.02 79.7334 244.02 81.2148 Z" fill="#000000" fill-rule="evenodd" fill-opacity="1" /><path clip-path="url(#clip710)" d="M 0 0 M250.525 81.0007 L250.525 84.9127 L249.46 84.9127 L249.46 81.0354 Q249.46 80.1153 249.101 79.6581 Q248.743 79.201 248.025 79.201 Q247.163 79.201 246.665 79.7507 Q246.167 80.3005 246.167 81.2496 L246.167 84.9127 L245.097 84.9127 L245.097 78.4313 L246.167 78.4313 L246.167 79.4382 Q246.549 78.8537 247.064 78.5644 Q247.585 78.275 248.262 78.275 Q249.379 78.275 249.952 78.9695 Q250.525 79.6581 250.525 81.0007 Z" fill="#000000" fill-rule="evenodd" fill-opacity="1" /><path clip-path="url(#clip710)" d="M 0 0 M252.695 76.591 L252.695 78.4313 L254.888 78.4313 L254.888 79.2588 L252.695 79.2588 L252.695 82.7773 Q252.695 83.5702 252.909 83.7958 Q253.129 84.0215 253.795 84.0215 L254.888 84.0215 L254.888 84.9127 L253.795 84.9127 Q252.562 84.9127 252.093 84.4556 Q251.625 83.9926 251.625 82.7773 L251.625 79.2588 L250.843 79.2588 L250.843 78.4313 L251.625 78.4313 L251.625 76.591 L252.695 76.591 Z" fill="#000000" fill-rule="evenodd" fill-opacity="1" /></svg>
